G04 #@! TF.GenerationSoftware,KiCad,Pcbnew,5.0.0*
G04 #@! TF.CreationDate,2018-12-09T11:56:36+00:00*
G04 #@! TF.ProjectId,cw308_fe310,63773330385F66653331302E6B696361,rev?*
G04 #@! TF.SameCoordinates,Original*
G04 #@! TF.FileFunction,Soldermask,Bot*
G04 #@! TF.FilePolarity,Negative*
%FSLAX46Y46*%
G04 Gerber Fmt 4.6, Leading zero omitted, Abs format (unit mm)*
G04 Created by KiCad (PCBNEW 5.0.0) date Sun Dec  9 11:56:36 2018*
%MOMM*%
%LPD*%
G01*
G04 APERTURE LIST*
%ADD10O,2.997200X1.498600*%
%ADD11O,1.498600X2.997200*%
%ADD12C,6.350000*%
%ADD13R,1.700000X1.700000*%
%ADD14O,1.700000X1.700000*%
G04 APERTURE END LIST*
D10*
G04 #@! TO.C,J1*
X121678701Y-67030600D03*
X121678701Y-69570600D03*
X121678701Y-72110600D03*
X121678701Y-74650600D03*
X121678701Y-77190600D03*
X121678701Y-79730600D03*
X121678701Y-82270600D03*
X121678701Y-84810600D03*
X121678701Y-87350600D03*
X121678701Y-89890600D03*
X121678701Y-92430600D03*
X121678701Y-94970600D03*
X121678701Y-97510600D03*
X121678701Y-100050600D03*
X121678701Y-102590600D03*
X121678701Y-105130600D03*
X121678701Y-107670600D03*
X121678701Y-110210600D03*
X121678701Y-112750600D03*
X121678701Y-115290600D03*
D11*
X121678701Y-120370600D03*
X124218701Y-120370600D03*
X126758701Y-120370600D03*
X129298701Y-120370600D03*
X131838701Y-120370600D03*
X134378701Y-120370600D03*
X136918701Y-120370600D03*
X139458701Y-120370600D03*
X141998701Y-120370600D03*
X144538701Y-120370600D03*
X147078701Y-120370600D03*
X149618701Y-120370600D03*
X152158701Y-120370600D03*
X154698701Y-120370600D03*
X157238701Y-120370600D03*
X159778701Y-120370600D03*
X162318701Y-120370600D03*
X164858701Y-120370600D03*
X167398701Y-120370600D03*
X169938701Y-120370600D03*
D10*
X169938701Y-67030600D03*
X169938701Y-69570600D03*
X169938701Y-72110600D03*
X169938701Y-74650600D03*
X169938701Y-77190600D03*
X169938701Y-79730600D03*
X169938701Y-82270600D03*
X169938701Y-84810600D03*
X169938701Y-87350600D03*
X169938701Y-89890600D03*
X169938701Y-92430600D03*
X169938701Y-94970600D03*
X169938701Y-97510600D03*
X169938701Y-100050600D03*
X169938701Y-102590600D03*
X169938701Y-105130600D03*
X169938701Y-107670600D03*
X169938701Y-110210600D03*
X169938701Y-112750600D03*
X169938701Y-115290600D03*
D12*
X126758701Y-61950600D03*
X164858701Y-61950600D03*
X144538701Y-112750600D03*
G04 #@! TD*
D13*
G04 #@! TO.C,J2*
X125500000Y-67500000D03*
D14*
X128040000Y-67500000D03*
X125500000Y-70040000D03*
X128040000Y-70040000D03*
G04 #@! TD*
M02*
