M48
;DRILL file {KiCad 5.0.1} date Mon 18 Mar 2019 07:45:42 PM UTC
;FORMAT={-:-/ absolute / inch / decimal}
FMAT,2
INCH,TZ
T1C0.0118
T2C0.0390
T3C0.0394
T4C0.1340
%
G90
G05
M72
T1
X5.0469Y-2.9028
X5.11Y-2.992
X5.1107Y-3.4452
X5.1596Y-3.1247
X5.1942Y-3.5135
X5.4152Y-4.1329
X5.4393Y-4.105
X5.4808Y-3.249
X5.537Y-3.0012
X5.5468Y-4.2584
X5.572Y-3.3402
X5.6173Y-3.8836
X5.62Y-3.32
X5.6389Y-3.7107
X5.7382Y-3.061
X5.7437Y-4.2513
X5.7478Y-3.4441
X5.7665Y-4.0351
X5.7671Y-3.1277
X5.7711Y-4.131
X5.81Y-4.2342
X5.82Y-2.98
X5.8258Y-2.8421
X5.8453Y-3.4365
X5.8658Y-4.2714
X5.868Y-3.6988
X5.8728Y-3.9455
X5.8753Y-3.4222
X5.886Y-2.8853
X5.887Y-2.962
X5.9048Y-4.4157
X5.9049Y-3.9274
X5.919Y-2.83
X5.939Y-3.812
X5.9399Y-4.026
X5.9461Y-2.9098
X5.9664Y-3.675
X5.9843Y-2.8858
X5.991Y-2.946
X6.Y-3.4
X6.014Y-2.864
X6.05Y-2.834
X6.0547Y-3.7186
X6.0562Y-3.8198
X6.0677Y-4.0029
X6.093Y-4.3832
X6.1022Y-4.0852
X6.114Y-2.989
X6.1472Y-4.5685
X6.1566Y-4.2845
X6.166Y-2.985
X6.1837Y-3.4215
X6.204Y-2.969
X6.2109Y-3.1493
X6.2824Y-4.214
X6.308Y-2.9976
X6.3357Y-3.2493
X6.3407Y-3.097
X6.3407Y-3.2066
X6.3712Y-3.7658
X6.4683Y-3.4614
X6.5508Y-4.3346
X6.5781Y-4.4377
X5.9013Y-3.1151
X5.9013Y-3.1729
X5.9301Y-3.0863
X5.9301Y-3.1151
X5.9301Y-3.144
X5.9301Y-3.1729
X5.9301Y-3.2017
X5.959Y-3.1151
X5.959Y-3.1729
X5.9879Y-3.0863
X5.9879Y-3.1151
X5.9879Y-3.144
X5.9879Y-3.1729
X5.9879Y-3.2017
X6.0167Y-3.1151
X6.0167Y-3.1729
T2
X4.7905Y-2.639
X4.7905Y-2.739
X4.7905Y-2.839
X4.7905Y-2.939
X4.7905Y-3.039
X4.7905Y-3.139
X4.7905Y-3.239
X4.7905Y-3.339
X4.7905Y-3.439
X4.7905Y-3.539
X4.7905Y-3.639
X4.7905Y-3.739
X4.7905Y-3.839
X4.7905Y-3.939
X4.7905Y-4.039
X4.7905Y-4.139
X4.7905Y-4.239
X4.7905Y-4.339
X4.7905Y-4.439
X4.7905Y-4.539
X4.7905Y-4.739
X4.8905Y-4.739
X4.9905Y-4.739
X5.0905Y-4.739
X5.1905Y-4.739
X5.2905Y-4.739
X5.3905Y-4.739
X5.4905Y-4.739
X5.5905Y-4.739
X5.6905Y-4.739
X6.6905Y-2.639
X6.6905Y-2.739
X6.6905Y-2.839
X6.6905Y-2.939
X6.6905Y-3.039
X6.6905Y-3.139
X6.6905Y-3.239
X6.6905Y-3.339
X6.6905Y-3.439
X6.6905Y-3.539
X6.6905Y-3.639
X6.6905Y-3.739
X6.6905Y-3.839
X6.6905Y-3.939
X6.6905Y-4.039
X6.6905Y-4.139
X6.6905Y-4.239
X6.6905Y-4.339
X6.6905Y-4.439
X6.6905Y-4.539
T3
X4.989Y-2.64
X4.989Y-2.74
X5.089Y-2.64
X5.089Y-2.74
X5.189Y-2.64
X5.189Y-2.74
X5.719Y-3.5144
X5.719Y-3.6144
X5.819Y-3.5144
X5.819Y-3.6144
X5.919Y-3.5144
X5.919Y-3.6144
X6.019Y-3.5144
X6.019Y-3.6144
X6.119Y-3.5144
X6.119Y-3.6144
T4
X4.9905Y-2.439
X6.4905Y-2.439
T0
M30
