%TF.GenerationSoftware,KiCad,Pcbnew,5.0.1*%
%TF.CreationDate,2019-03-18T19:51:21+00:00*%
%TF.ProjectId,cw308_fe310,63773330385F66653331302E6B696361,rev?*%
%TF.SameCoordinates,Original*%
%TF.FileFunction,Copper,L2,Bot,Signal*%
%TF.FilePolarity,Positive*%
%FSLAX46Y46*%
G04 Gerber Fmt 4.6, Leading zero omitted, Abs format (unit mm)*
G04 Created by KiCad (PCBNEW 5.0.1) date Mon 18 Mar 2019 07:51:21 PM UTC*
%MOMM*%
%LPD*%
G01*
G04 APERTURE LIST*
%ADD10C,6.350000*%
%ADD11O,2.997200X1.498600*%
%ADD12O,1.498600X2.997200*%
%ADD13R,5.400000X5.400000*%
%ADD14C,0.600000*%
%ADD15R,1.700000X1.700000*%
%ADD16O,1.700000X1.700000*%
%ADD17C,0.250000*%
%ADD18C,0.254000*%
G04 APERTURE END LIST*
D10*
X164858701Y-61950600D03*
X126758701Y-61950600D03*
D11*
X169938701Y-115290600D03*
X169938701Y-112750600D03*
X169938701Y-110210600D03*
X169938701Y-107670600D03*
X169938701Y-105130600D03*
X169938701Y-102590600D03*
X169938701Y-100050600D03*
X169938701Y-97510600D03*
X169938701Y-94970600D03*
X169938701Y-92430600D03*
X169938701Y-89890600D03*
X169938701Y-87350600D03*
X169938701Y-84810600D03*
X169938701Y-82270600D03*
X169938701Y-79730600D03*
X169938701Y-77190600D03*
X169938701Y-74650600D03*
X169938701Y-72110600D03*
X169938701Y-69570600D03*
X169938701Y-67030600D03*
D12*
X144538701Y-120370600D03*
X141998701Y-120370600D03*
X139458701Y-120370600D03*
X136918701Y-120370600D03*
X134378701Y-120370600D03*
X131838701Y-120370600D03*
X129298701Y-120370600D03*
X126758701Y-120370600D03*
X124218701Y-120370600D03*
X121678701Y-120370600D03*
D11*
X121678701Y-115290600D03*
X121678701Y-112750600D03*
X121678701Y-110210600D03*
X121678701Y-107670600D03*
X121678701Y-105130600D03*
X121678701Y-102590600D03*
X121678701Y-100050600D03*
X121678701Y-97510600D03*
X121678701Y-94970600D03*
X121678701Y-92430600D03*
X121678701Y-89890600D03*
X121678701Y-87350600D03*
X121678701Y-84810600D03*
X121678701Y-82270600D03*
X121678701Y-79730600D03*
X121678701Y-77190600D03*
X121678701Y-74650600D03*
X121678701Y-72110600D03*
X121678701Y-69570600D03*
X121678701Y-67030600D03*
D13*
X151358600Y-79857600D03*
D14*
X149891933Y-79124267D03*
X149891933Y-80590933D03*
X150625267Y-78390933D03*
X150625267Y-79124267D03*
X150625267Y-79857600D03*
X150625267Y-80590933D03*
X150625267Y-81324267D03*
X151358600Y-79124267D03*
X151358600Y-80590933D03*
X152091933Y-78390933D03*
X152091933Y-79124267D03*
X152091933Y-79857600D03*
X152091933Y-80590933D03*
X152091933Y-81324267D03*
X152825267Y-79124267D03*
X152825267Y-80590933D03*
D15*
X145262600Y-91805760D03*
D16*
X145262600Y-89265760D03*
X147802600Y-91805760D03*
X147802600Y-89265760D03*
X150342600Y-91805760D03*
X150342600Y-89265760D03*
X152882600Y-91805760D03*
X152882600Y-89265760D03*
X155422600Y-91805760D03*
X155422600Y-89265760D03*
D15*
X126720600Y-69596000D03*
D16*
X126720600Y-67056000D03*
X129260600Y-69596000D03*
X129260600Y-67056000D03*
X131800600Y-69596000D03*
X131800600Y-67056000D03*
D14*
X147828000Y-75692000D03*
X139212320Y-82524598D03*
X156616400Y-75819000D03*
X149504400Y-73286620D03*
X129811780Y-87508080D03*
X157581598Y-75412600D03*
X129794000Y-75996800D03*
X142748000Y-84328000D03*
X152400000Y-86360000D03*
X150342600Y-71882000D03*
X157756860Y-79992220D03*
X146484342Y-79443580D03*
X149529800Y-75234800D03*
X155295600Y-75920600D03*
X152171402Y-74829379D03*
X151030000Y-73910000D03*
X140639800Y-76230480D03*
X145750014Y-77750000D03*
X152000000Y-73300000D03*
X153670002Y-71983600D03*
X152755600Y-72745600D03*
X148991320Y-108493560D03*
X149981920Y-112158780D03*
X161053780Y-78663800D03*
X131053840Y-79367380D03*
X157065980Y-86906100D03*
X164294820Y-87919560D03*
X156377664Y-108826324D03*
X154762200Y-111333280D03*
X156138880Y-116039900D03*
X142679420Y-98643440D03*
X140888720Y-108163360D03*
X154119580Y-101673660D03*
X150850600Y-96824800D03*
X141528800Y-84841078D03*
X160223200Y-76139040D03*
X161053780Y-81447480D03*
X150873460Y-102260400D03*
X154995104Y-103763913D03*
X145994120Y-87480140D03*
X147975320Y-72189340D03*
X159572960Y-107035600D03*
X161828480Y-95651320D03*
X147574000Y-107548680D03*
X145889980Y-107983456D03*
X131932680Y-89242900D03*
X160927870Y-82532220D03*
X143228060Y-94251780D03*
X148470620Y-87287100D03*
X149047200Y-93949360D03*
X149232620Y-86923880D03*
X151546560Y-93345000D03*
X166390320Y-110098840D03*
X167083740Y-112717580D03*
X146468965Y-102491540D03*
X146585940Y-104927400D03*
X128191260Y-73731120D03*
X137546683Y-104976875D03*
X153789295Y-94452704D03*
X138158220Y-104267000D03*
X149984460Y-99755960D03*
X149169120Y-100215700D03*
X153827480Y-97022920D03*
D17*
X151358600Y-79222600D02*
X151358600Y-79857600D01*
X147828000Y-75692000D02*
X151358600Y-79222600D01*
X154308600Y-79857600D02*
X156616400Y-77549800D01*
X156616400Y-77549800D02*
X156616400Y-76384685D01*
X156616400Y-76384685D02*
X156616400Y-75819000D01*
X151358600Y-79857600D02*
X154308600Y-79857600D01*
X151692169Y-75474389D02*
X152632417Y-75474389D01*
X161803080Y-75412600D02*
X158147283Y-75412600D01*
X149504400Y-73286620D02*
X151692169Y-75474389D01*
X152632417Y-75474389D02*
X153094205Y-75012601D01*
X157181599Y-75012601D02*
X157581598Y-75412600D01*
X153094205Y-75012601D02*
X157181599Y-75012601D01*
X158147283Y-75412600D02*
X157581598Y-75412600D01*
X165573931Y-89905260D02*
X165573931Y-79183451D01*
X165573931Y-79183451D02*
X161803080Y-75412600D01*
X129811780Y-87508080D02*
X129811780Y-76014580D01*
X129811780Y-76014580D02*
X129794000Y-75996800D01*
X142748000Y-84328000D02*
X144780000Y-86360000D01*
X144780000Y-86360000D02*
X152400000Y-86360000D01*
X169189401Y-72110600D02*
X169938701Y-72110600D01*
X167800000Y-73500001D02*
X169189401Y-72110600D01*
X167800000Y-75801199D02*
X167800000Y-73500001D01*
X169938701Y-77190600D02*
X169189401Y-77190600D01*
X169189401Y-77190600D02*
X167800000Y-75801199D01*
X157756860Y-79992220D02*
X153680160Y-84068920D01*
X146484342Y-81074625D02*
X146484342Y-80009265D01*
X146484342Y-80009265D02*
X146484342Y-79443580D01*
X149478637Y-84068920D02*
X146484342Y-81074625D01*
X153680160Y-84068920D02*
X149478637Y-84068920D01*
X150215600Y-75920600D02*
X154871336Y-75920600D01*
X154871336Y-75920600D02*
X155295600Y-75920600D01*
X149529800Y-75234800D02*
X150215600Y-75920600D01*
X161746960Y-74429380D02*
X152571401Y-74429380D01*
X166397940Y-90368120D02*
X166397940Y-79080360D01*
X166397940Y-79080360D02*
X161746960Y-74429380D01*
X152571401Y-74429380D02*
X152171402Y-74829379D01*
X167100000Y-78852780D02*
X167100000Y-90641420D01*
X162161220Y-73914000D02*
X167100000Y-78852780D01*
X151030000Y-73910000D02*
X151771885Y-73914000D01*
X151771885Y-73914000D02*
X162161220Y-73914000D01*
X141250000Y-77750000D02*
X140639800Y-77139800D01*
X141725750Y-77750000D02*
X141250000Y-77750000D01*
X141792506Y-77742478D02*
X141725750Y-77750000D01*
X141855915Y-77720290D02*
X141792506Y-77742478D01*
X141960299Y-77637046D02*
X141912796Y-77684549D01*
X142018228Y-77516756D02*
X141996040Y-77580165D01*
X142025750Y-77450000D02*
X142018228Y-77516756D01*
X142033271Y-76990015D02*
X142025750Y-77056772D01*
X142055459Y-76926606D02*
X142033271Y-76990015D01*
X142091200Y-76869725D02*
X142055459Y-76926606D01*
X142138703Y-76822222D02*
X142091200Y-76869725D01*
X142195584Y-76786481D02*
X142138703Y-76822222D01*
X143995584Y-78713519D02*
X143938703Y-78677778D01*
X144996040Y-76926606D02*
X144960299Y-76869725D01*
X141912796Y-77684549D02*
X141855915Y-77720290D01*
X144058993Y-78735707D02*
X143995584Y-78713519D01*
X144125750Y-78743228D02*
X144058993Y-78735707D01*
X144192506Y-78735707D02*
X144125750Y-78743228D01*
X144255915Y-78713519D02*
X144192506Y-78735707D01*
X144312796Y-78677778D02*
X144255915Y-78713519D01*
X144396040Y-78573394D02*
X144360299Y-78630275D01*
X142455915Y-76786481D02*
X142392506Y-76764293D01*
X144418228Y-78509985D02*
X144396040Y-78573394D01*
X144425750Y-77056772D02*
X144425750Y-78443228D01*
X140639800Y-77139800D02*
X140639800Y-76230480D01*
X144455459Y-76926606D02*
X144433271Y-76990015D01*
X144725750Y-76756772D02*
X144658993Y-76764293D01*
X143225750Y-78443228D02*
X143218228Y-78509985D01*
X144538703Y-76822222D02*
X144491200Y-76869725D01*
X143225750Y-77056772D02*
X143225750Y-78443228D01*
X145091200Y-77637046D02*
X145055459Y-77580165D01*
X143938703Y-78677778D02*
X143891200Y-78630275D01*
X144491200Y-76869725D02*
X144455459Y-76926606D01*
X143291200Y-76869725D02*
X143255459Y-76926606D01*
X145750014Y-77750000D02*
X145325750Y-77750000D01*
X143255459Y-76926606D02*
X143233271Y-76990015D01*
X145033271Y-77516756D02*
X145025750Y-77450000D01*
X144855915Y-76786481D02*
X144792506Y-76764293D01*
X144360299Y-78630275D02*
X144312796Y-78677778D01*
X142025750Y-77056772D02*
X142025750Y-77450000D01*
X144433271Y-76990015D02*
X144425750Y-77056772D01*
X143712796Y-76822222D02*
X143655915Y-76786481D01*
X145018228Y-76990015D02*
X144996040Y-76926606D01*
X143825750Y-77056772D02*
X143818228Y-76990015D01*
X145195584Y-77720290D02*
X145138703Y-77684549D01*
X144425750Y-78443228D02*
X144418228Y-78509985D01*
X145138703Y-77684549D02*
X145091200Y-77637046D01*
X144658993Y-76764293D02*
X144595584Y-76786481D01*
X142795584Y-78713519D02*
X142738703Y-78677778D01*
X145325750Y-77750000D02*
X145258993Y-77742478D01*
X145055459Y-77580165D02*
X145033271Y-77516756D01*
X143655915Y-76786481D02*
X143592506Y-76764293D01*
X145025750Y-77056772D02*
X145018228Y-76990015D01*
X144595584Y-76786481D02*
X144538703Y-76822222D01*
X143891200Y-78630275D02*
X143855459Y-78573394D01*
X145258993Y-77742478D02*
X145195584Y-77720290D01*
X143458993Y-76764293D02*
X143395584Y-76786481D01*
X142655459Y-78573394D02*
X142633271Y-78509985D01*
X144960299Y-76869725D02*
X144912796Y-76822222D01*
X144792506Y-76764293D02*
X144725750Y-76756772D01*
X142625750Y-77056772D02*
X142618228Y-76990015D01*
X143855459Y-78573394D02*
X143833271Y-78509985D01*
X143833271Y-78509985D02*
X143825750Y-78443228D01*
X143825750Y-78443228D02*
X143825750Y-77056772D01*
X145025750Y-77450000D02*
X145025750Y-77056772D01*
X143818228Y-76990015D02*
X143796040Y-76926606D01*
X143760299Y-76869725D02*
X143712796Y-76822222D01*
X143796040Y-76926606D02*
X143760299Y-76869725D01*
X142325750Y-76756772D02*
X142258993Y-76764293D01*
X143592506Y-76764293D02*
X143525750Y-76756772D01*
X143525750Y-76756772D02*
X143458993Y-76764293D01*
X143395584Y-76786481D02*
X143338703Y-76822222D01*
X143338703Y-76822222D02*
X143291200Y-76869725D01*
X144912796Y-76822222D02*
X144855915Y-76786481D01*
X143233271Y-76990015D02*
X143225750Y-77056772D01*
X143218228Y-78509985D02*
X143196040Y-78573394D01*
X143196040Y-78573394D02*
X143160299Y-78630275D01*
X143160299Y-78630275D02*
X143112796Y-78677778D01*
X143112796Y-78677778D02*
X143055915Y-78713519D01*
X143055915Y-78713519D02*
X142992506Y-78735707D01*
X142992506Y-78735707D02*
X142925750Y-78743228D01*
X142925750Y-78743228D02*
X142858993Y-78735707D01*
X141996040Y-77580165D02*
X141960299Y-77637046D01*
X142858993Y-78735707D02*
X142795584Y-78713519D01*
X142738703Y-78677778D02*
X142691200Y-78630275D01*
X142691200Y-78630275D02*
X142655459Y-78573394D01*
X142633271Y-78509985D02*
X142625750Y-78443228D01*
X142625750Y-78443228D02*
X142625750Y-77056772D01*
X142596040Y-76926606D02*
X142560299Y-76869725D01*
X142512796Y-76822222D02*
X142455915Y-76786481D01*
X142560299Y-76869725D02*
X142512796Y-76822222D01*
X142392506Y-76764293D02*
X142325750Y-76756772D01*
X142618228Y-76990015D02*
X142596040Y-76926606D01*
X142258993Y-76764293D02*
X142195584Y-76786481D01*
X167800000Y-113901199D02*
X169189401Y-115290600D01*
X167800000Y-78600000D02*
X167800000Y-113901199D01*
X169189401Y-115290600D02*
X169938701Y-115290600D01*
X152000000Y-73300000D02*
X162500000Y-73300000D01*
X162500000Y-73300000D02*
X167800000Y-78600000D01*
X153270003Y-71583601D02*
X153670002Y-71983600D01*
X152349202Y-70662800D02*
X153270003Y-71583601D01*
X148991320Y-108493560D02*
X156044900Y-108493560D01*
X156077665Y-108526325D02*
X156377664Y-108826324D01*
X156044900Y-108493560D02*
X156077665Y-108526325D01*
X156377664Y-108826324D02*
X156377664Y-109717816D01*
X156377664Y-109717816D02*
X154762200Y-111333280D01*
X149291319Y-108793559D02*
X148991320Y-108493560D01*
X149341840Y-108844080D02*
X149291319Y-108793559D01*
X149981920Y-112158780D02*
X149341840Y-111518700D01*
X149341840Y-111518700D02*
X149341840Y-108844080D01*
X139212320Y-82524598D02*
X141528800Y-84841078D01*
X156616400Y-75819000D02*
X156936440Y-76139040D01*
X156936440Y-76139040D02*
X160223200Y-76139040D01*
X161053780Y-81365260D02*
X161053780Y-81447480D01*
X161053780Y-78663800D02*
X161053780Y-81447480D01*
X161472880Y-81866580D02*
X161053780Y-81447480D01*
X161472880Y-85097620D02*
X161472880Y-81866580D01*
X164294820Y-87919560D02*
X161472880Y-85097620D01*
X150850600Y-96824800D02*
X150850600Y-102237540D01*
X150850600Y-102237540D02*
X150873460Y-102260400D01*
X152376973Y-103763913D02*
X150873460Y-102260400D01*
X154995104Y-103763913D02*
X152376973Y-103763913D01*
X144167862Y-87480140D02*
X145569856Y-87480140D01*
X145569856Y-87480140D02*
X145994120Y-87480140D01*
X141528800Y-84841078D02*
X144167862Y-87480140D01*
X147828000Y-72336660D02*
X147975320Y-72189340D01*
X147828000Y-75692000D02*
X147828000Y-72336660D01*
X165573931Y-89905260D02*
X165573931Y-91905869D01*
X165573931Y-91905869D02*
X161828480Y-95651320D01*
X159572960Y-107035600D02*
X159059880Y-107548680D01*
X159059880Y-107548680D02*
X147998264Y-107548680D01*
X147998264Y-107548680D02*
X147574000Y-107548680D01*
X147574000Y-107548680D02*
X146324756Y-107548680D01*
X146324756Y-107548680D02*
X145889980Y-107983456D01*
X124503180Y-69273420D02*
X126720600Y-67056000D01*
X124503180Y-80195421D02*
X124503180Y-69273420D01*
X121678701Y-82270600D02*
X122428001Y-82270600D01*
X122428001Y-82270600D02*
X124503180Y-80195421D01*
X123482100Y-84810600D02*
X121678701Y-84810600D01*
X126720600Y-69596000D02*
X126720600Y-81579720D01*
X126716790Y-81575910D02*
X123482100Y-84810600D01*
X126720600Y-81579720D02*
X126716790Y-81575910D01*
X143995857Y-71582001D02*
X131932680Y-83645178D01*
X150042601Y-71582001D02*
X143995857Y-71582001D01*
X150342600Y-71882000D02*
X150042601Y-71582001D01*
X131932680Y-83645178D02*
X131932680Y-88818636D01*
X131932680Y-88818636D02*
X131932680Y-89242900D01*
X160927870Y-84962571D02*
X160927870Y-82956484D01*
X156624681Y-89265760D02*
X160927870Y-84962571D01*
X160927870Y-82956484D02*
X160927870Y-82532220D01*
X155422600Y-89265760D02*
X156624681Y-89265760D01*
X146952601Y-90115759D02*
X147802600Y-89265760D01*
X146565620Y-90502740D02*
X146952601Y-90115759D01*
X144424618Y-90502740D02*
X146565620Y-90502740D01*
X143228060Y-94251780D02*
X143228060Y-91699298D01*
X143228060Y-91699298D02*
X144424618Y-90502740D01*
X148470620Y-87393780D02*
X148470620Y-87287100D01*
X150342600Y-89265760D02*
X148470620Y-87393780D01*
X149047200Y-90561160D02*
X150342600Y-89265760D01*
X149047200Y-93949360D02*
X149047200Y-90561160D01*
X150540720Y-86923880D02*
X149232620Y-86923880D01*
X152882600Y-89265760D02*
X150540720Y-86923880D01*
X151546560Y-90601800D02*
X152882600Y-89265760D01*
X151546560Y-93345000D02*
X151546560Y-90601800D01*
X144060519Y-89265760D02*
X145262600Y-89265760D01*
X139186920Y-113813781D02*
X139186920Y-94139359D01*
X139186920Y-94139359D02*
X144060519Y-89265760D01*
X134378701Y-120370600D02*
X134378701Y-118622000D01*
X134378701Y-118622000D02*
X139186920Y-113813781D01*
X166397940Y-90368120D02*
X166397940Y-110091220D01*
X166397940Y-110091220D02*
X166390320Y-110098840D01*
X167100000Y-90641420D02*
X167100000Y-112701320D01*
X167100000Y-112701320D02*
X167083740Y-112717580D01*
X147157442Y-65471040D02*
X149600920Y-67914518D01*
X149186402Y-67500000D02*
X149600920Y-67914518D01*
X149600920Y-67914518D02*
X153670002Y-71983600D01*
X130845560Y-65471040D02*
X129260600Y-67056000D01*
X147157442Y-65471040D02*
X130845560Y-65471040D01*
X130517900Y-68338700D02*
X130110599Y-68746001D01*
X133248400Y-68338700D02*
X130517900Y-68338700D01*
X134462520Y-69552820D02*
X133248400Y-68338700D01*
X152755600Y-72745600D02*
X149562820Y-69552820D01*
X130110599Y-68746001D02*
X129260600Y-69596000D01*
X149562820Y-69552820D02*
X134462520Y-69552820D01*
X146468965Y-104810425D02*
X146585940Y-104927400D01*
X146468965Y-102491540D02*
X146468965Y-104810425D01*
X137146684Y-104576876D02*
X137546683Y-104976875D01*
X128191260Y-73731120D02*
X128191260Y-95621452D01*
X128191260Y-95621452D02*
X137146684Y-104576876D01*
X153789295Y-92712455D02*
X152882600Y-91805760D01*
X153789295Y-94452704D02*
X153789295Y-92712455D01*
X138158220Y-104267000D02*
X129001520Y-95110300D01*
X129001520Y-72395080D02*
X131800600Y-69596000D01*
X129001520Y-95110300D02*
X129001520Y-72395080D01*
X149984460Y-99755960D02*
X149984460Y-95915480D01*
X147802600Y-93733620D02*
X147802600Y-91805760D01*
X149984460Y-95915480D02*
X147802600Y-93733620D01*
X149169120Y-95712280D02*
X145262600Y-91805760D01*
X149169120Y-100215700D02*
X149169120Y-95712280D01*
X150342600Y-93538040D02*
X150342600Y-91805760D01*
X153827480Y-97022920D02*
X150342600Y-93538040D01*
D18*
G36*
X173315000Y-57932539D02*
X173315001Y-122932538D01*
X173315001Y-123315000D01*
X118685000Y-123315000D01*
X118685000Y-67030600D01*
X119517981Y-67030600D01*
X119625419Y-67570727D01*
X119931376Y-68028625D01*
X120338416Y-68300600D01*
X119931376Y-68572575D01*
X119625419Y-69030473D01*
X119517981Y-69570600D01*
X119625419Y-70110727D01*
X119931376Y-70568625D01*
X120338416Y-70840600D01*
X119931376Y-71112575D01*
X119625419Y-71570473D01*
X119517981Y-72110600D01*
X119625419Y-72650727D01*
X119931376Y-73108625D01*
X120338416Y-73380600D01*
X119931376Y-73652575D01*
X119625419Y-74110473D01*
X119517981Y-74650600D01*
X119625419Y-75190727D01*
X119931376Y-75648625D01*
X120338416Y-75920600D01*
X119931376Y-76192575D01*
X119625419Y-76650473D01*
X119517981Y-77190600D01*
X119625419Y-77730727D01*
X119931376Y-78188625D01*
X120338416Y-78460600D01*
X119931376Y-78732575D01*
X119625419Y-79190473D01*
X119517981Y-79730600D01*
X119625419Y-80270727D01*
X119931376Y-80728625D01*
X120338416Y-81000600D01*
X119931376Y-81272575D01*
X119625419Y-81730473D01*
X119517981Y-82270600D01*
X119625419Y-82810727D01*
X119931376Y-83268625D01*
X120338416Y-83540600D01*
X119931376Y-83812575D01*
X119625419Y-84270473D01*
X119517981Y-84810600D01*
X119625419Y-85350727D01*
X119931376Y-85808625D01*
X120338416Y-86080600D01*
X119931376Y-86352575D01*
X119625419Y-86810473D01*
X119517981Y-87350600D01*
X119625419Y-87890727D01*
X119931376Y-88348625D01*
X120338416Y-88620600D01*
X119931376Y-88892575D01*
X119625419Y-89350473D01*
X119517981Y-89890600D01*
X119625419Y-90430727D01*
X119931376Y-90888625D01*
X120338416Y-91160600D01*
X119931376Y-91432575D01*
X119625419Y-91890473D01*
X119517981Y-92430600D01*
X119625419Y-92970727D01*
X119931376Y-93428625D01*
X120338416Y-93700600D01*
X119931376Y-93972575D01*
X119625419Y-94430473D01*
X119517981Y-94970600D01*
X119625419Y-95510727D01*
X119931376Y-95968625D01*
X120338416Y-96240600D01*
X119931376Y-96512575D01*
X119625419Y-96970473D01*
X119517981Y-97510600D01*
X119625419Y-98050727D01*
X119931376Y-98508625D01*
X120338416Y-98780600D01*
X119931376Y-99052575D01*
X119625419Y-99510473D01*
X119517981Y-100050600D01*
X119625419Y-100590727D01*
X119931376Y-101048625D01*
X120338416Y-101320600D01*
X119931376Y-101592575D01*
X119625419Y-102050473D01*
X119517981Y-102590600D01*
X119625419Y-103130727D01*
X119931376Y-103588625D01*
X120338416Y-103860600D01*
X119931376Y-104132575D01*
X119625419Y-104590473D01*
X119517981Y-105130600D01*
X119625419Y-105670727D01*
X119931376Y-106128625D01*
X120338416Y-106400600D01*
X119931376Y-106672575D01*
X119625419Y-107130473D01*
X119517981Y-107670600D01*
X119625419Y-108210727D01*
X119931376Y-108668625D01*
X120338416Y-108940600D01*
X119931376Y-109212575D01*
X119625419Y-109670473D01*
X119517981Y-110210600D01*
X119625419Y-110750727D01*
X119931376Y-111208625D01*
X120338416Y-111480600D01*
X119931376Y-111752575D01*
X119625419Y-112210473D01*
X119517981Y-112750600D01*
X119625419Y-113290727D01*
X119931376Y-113748625D01*
X120338416Y-114020600D01*
X119931376Y-114292575D01*
X119625419Y-114750473D01*
X119517981Y-115290600D01*
X119625419Y-115830727D01*
X119931376Y-116288625D01*
X120389274Y-116594582D01*
X120793060Y-116674900D01*
X122564342Y-116674900D01*
X122968128Y-116594582D01*
X123426026Y-116288625D01*
X123731983Y-115830727D01*
X123839421Y-115290600D01*
X123731983Y-114750473D01*
X123426026Y-114292575D01*
X123018986Y-114020600D01*
X123426026Y-113748625D01*
X123731983Y-113290727D01*
X123839421Y-112750600D01*
X123731983Y-112210473D01*
X123426026Y-111752575D01*
X123018986Y-111480600D01*
X123426026Y-111208625D01*
X123731983Y-110750727D01*
X123839421Y-110210600D01*
X123731983Y-109670473D01*
X123426026Y-109212575D01*
X123018986Y-108940600D01*
X123426026Y-108668625D01*
X123731983Y-108210727D01*
X123839421Y-107670600D01*
X123731983Y-107130473D01*
X123426026Y-106672575D01*
X123018986Y-106400600D01*
X123426026Y-106128625D01*
X123731983Y-105670727D01*
X123839421Y-105130600D01*
X123731983Y-104590473D01*
X123426026Y-104132575D01*
X123018986Y-103860600D01*
X123426026Y-103588625D01*
X123731983Y-103130727D01*
X123839421Y-102590600D01*
X123731983Y-102050473D01*
X123426026Y-101592575D01*
X123018986Y-101320600D01*
X123426026Y-101048625D01*
X123731983Y-100590727D01*
X123839421Y-100050600D01*
X123731983Y-99510473D01*
X123426026Y-99052575D01*
X123018986Y-98780600D01*
X123426026Y-98508625D01*
X123731983Y-98050727D01*
X123839421Y-97510600D01*
X123731983Y-96970473D01*
X123426026Y-96512575D01*
X123018986Y-96240600D01*
X123426026Y-95968625D01*
X123731983Y-95510727D01*
X123839421Y-94970600D01*
X123731983Y-94430473D01*
X123426026Y-93972575D01*
X123018986Y-93700600D01*
X123426026Y-93428625D01*
X123731983Y-92970727D01*
X123839421Y-92430600D01*
X123731983Y-91890473D01*
X123426026Y-91432575D01*
X123018986Y-91160600D01*
X123426026Y-90888625D01*
X123731983Y-90430727D01*
X123839421Y-89890600D01*
X123731983Y-89350473D01*
X123426026Y-88892575D01*
X123018986Y-88620600D01*
X123426026Y-88348625D01*
X123731983Y-87890727D01*
X123839421Y-87350600D01*
X123731983Y-86810473D01*
X123426026Y-86352575D01*
X123018986Y-86080600D01*
X123426026Y-85808625D01*
X123589379Y-85564150D01*
X123778637Y-85526504D01*
X124030029Y-85358529D01*
X124072431Y-85295070D01*
X127182112Y-82185391D01*
X127268529Y-82127649D01*
X127431260Y-81884105D01*
X127431261Y-95546600D01*
X127416372Y-95621452D01*
X127475357Y-95917989D01*
X127563505Y-96049911D01*
X127643332Y-96169381D01*
X127706788Y-96211781D01*
X136611683Y-105116677D01*
X136611683Y-105162858D01*
X136754028Y-105506510D01*
X137017048Y-105769530D01*
X137360700Y-105911875D01*
X137732666Y-105911875D01*
X138076318Y-105769530D01*
X138339338Y-105506510D01*
X138426920Y-105295067D01*
X138426920Y-113498979D01*
X133894229Y-118031671D01*
X133830773Y-118074071D01*
X133788373Y-118137527D01*
X133788372Y-118137528D01*
X133662798Y-118325463D01*
X133637723Y-118451523D01*
X133380677Y-118623275D01*
X133108702Y-119030316D01*
X132836726Y-118623275D01*
X132378828Y-118317318D01*
X131838701Y-118209880D01*
X131298575Y-118317318D01*
X130840677Y-118623275D01*
X130568702Y-119030316D01*
X130296726Y-118623275D01*
X129838828Y-118317318D01*
X129298701Y-118209880D01*
X128758575Y-118317318D01*
X128300677Y-118623275D01*
X128028702Y-119030316D01*
X127756726Y-118623275D01*
X127298828Y-118317318D01*
X126758701Y-118209880D01*
X126218575Y-118317318D01*
X125760677Y-118623275D01*
X125488702Y-119030316D01*
X125216726Y-118623275D01*
X124758828Y-118317318D01*
X124218701Y-118209880D01*
X123678575Y-118317318D01*
X123220677Y-118623275D01*
X122948702Y-119030316D01*
X122676726Y-118623275D01*
X122218828Y-118317318D01*
X121678701Y-118209880D01*
X121138575Y-118317318D01*
X120680677Y-118623275D01*
X120374720Y-119081173D01*
X120294401Y-119484959D01*
X120294401Y-121256240D01*
X120374719Y-121660026D01*
X120680676Y-122117924D01*
X121138574Y-122423882D01*
X121678701Y-122531320D01*
X122218827Y-122423882D01*
X122676725Y-122117925D01*
X122948701Y-121710884D01*
X123220676Y-122117924D01*
X123678574Y-122423882D01*
X124218701Y-122531320D01*
X124758827Y-122423882D01*
X125216725Y-122117925D01*
X125488701Y-121710884D01*
X125760676Y-122117924D01*
X126218574Y-122423882D01*
X126758701Y-122531320D01*
X127298827Y-122423882D01*
X127756725Y-122117925D01*
X128028701Y-121710884D01*
X128300676Y-122117924D01*
X128758574Y-122423882D01*
X129298701Y-122531320D01*
X129838827Y-122423882D01*
X130296725Y-122117925D01*
X130568701Y-121710884D01*
X130840676Y-122117924D01*
X131298574Y-122423882D01*
X131838701Y-122531320D01*
X132378827Y-122423882D01*
X132836725Y-122117925D01*
X133108701Y-121710884D01*
X133380676Y-122117924D01*
X133838574Y-122423882D01*
X134378701Y-122531320D01*
X134918827Y-122423882D01*
X135376725Y-122117925D01*
X135648701Y-121710884D01*
X135920676Y-122117924D01*
X136378574Y-122423882D01*
X136918701Y-122531320D01*
X137458827Y-122423882D01*
X137916725Y-122117925D01*
X138188701Y-121710884D01*
X138460676Y-122117924D01*
X138918574Y-122423882D01*
X139458701Y-122531320D01*
X139998827Y-122423882D01*
X140456725Y-122117925D01*
X140728701Y-121710884D01*
X141000676Y-122117924D01*
X141458574Y-122423882D01*
X141998701Y-122531320D01*
X142538827Y-122423882D01*
X142996725Y-122117925D01*
X143268701Y-121710884D01*
X143540676Y-122117924D01*
X143998574Y-122423882D01*
X144538701Y-122531320D01*
X145078827Y-122423882D01*
X145536725Y-122117925D01*
X145842683Y-121660027D01*
X145923001Y-121256241D01*
X145923001Y-119484959D01*
X145842683Y-119081173D01*
X145536726Y-118623275D01*
X145078828Y-118317318D01*
X144538701Y-118209880D01*
X143998575Y-118317318D01*
X143540677Y-118623275D01*
X143268702Y-119030316D01*
X142996726Y-118623275D01*
X142538828Y-118317318D01*
X141998701Y-118209880D01*
X141458575Y-118317318D01*
X141000677Y-118623275D01*
X140728702Y-119030316D01*
X140456726Y-118623275D01*
X139998828Y-118317318D01*
X139458701Y-118209880D01*
X138918575Y-118317318D01*
X138460677Y-118623275D01*
X138188702Y-119030316D01*
X137916726Y-118623275D01*
X137458828Y-118317318D01*
X136918701Y-118209880D01*
X136378575Y-118317318D01*
X135920677Y-118623275D01*
X135648702Y-119030316D01*
X135406967Y-118668535D01*
X138221585Y-115853917D01*
X155203880Y-115853917D01*
X155203880Y-116225883D01*
X155346225Y-116569535D01*
X155609245Y-116832555D01*
X155952897Y-116974900D01*
X156324863Y-116974900D01*
X156668515Y-116832555D01*
X156931535Y-116569535D01*
X157073880Y-116225883D01*
X157073880Y-115853917D01*
X156931535Y-115510265D01*
X156668515Y-115247245D01*
X156324863Y-115104900D01*
X155952897Y-115104900D01*
X155609245Y-115247245D01*
X155346225Y-115510265D01*
X155203880Y-115853917D01*
X138221585Y-115853917D01*
X139671393Y-114404110D01*
X139734849Y-114361710D01*
X139902824Y-114110318D01*
X139946920Y-113888633D01*
X139946920Y-113888629D01*
X139961808Y-113813781D01*
X139946920Y-113738933D01*
X139946920Y-107977377D01*
X139953720Y-107977377D01*
X139953720Y-108349343D01*
X140096065Y-108692995D01*
X140359085Y-108956015D01*
X140702737Y-109098360D01*
X141074703Y-109098360D01*
X141418355Y-108956015D01*
X141681375Y-108692995D01*
X141823720Y-108349343D01*
X141823720Y-107977377D01*
X141749202Y-107797473D01*
X144954980Y-107797473D01*
X144954980Y-108169439D01*
X145097325Y-108513091D01*
X145360345Y-108776111D01*
X145703997Y-108918456D01*
X146075963Y-108918456D01*
X146419615Y-108776111D01*
X146682635Y-108513091D01*
X146767305Y-108308680D01*
X147011710Y-108308680D01*
X147044365Y-108341335D01*
X147388017Y-108483680D01*
X147759983Y-108483680D01*
X148056320Y-108360933D01*
X148056320Y-108679543D01*
X148198665Y-109023195D01*
X148461685Y-109286215D01*
X148581841Y-109335985D01*
X148581840Y-111443853D01*
X148566952Y-111518700D01*
X148581840Y-111593547D01*
X148581840Y-111593551D01*
X148625936Y-111815236D01*
X148793911Y-112066629D01*
X148857370Y-112109031D01*
X149046920Y-112298581D01*
X149046920Y-112344763D01*
X149189265Y-112688415D01*
X149452285Y-112951435D01*
X149795937Y-113093780D01*
X150167903Y-113093780D01*
X150511555Y-112951435D01*
X150774575Y-112688415D01*
X150916920Y-112344763D01*
X150916920Y-111972797D01*
X150774575Y-111629145D01*
X150511555Y-111366125D01*
X150167903Y-111223780D01*
X150121721Y-111223780D01*
X150101840Y-111203899D01*
X150101840Y-109253560D01*
X155542594Y-109253560D01*
X155585009Y-109355959D01*
X155617665Y-109388615D01*
X155617665Y-109403014D01*
X154622399Y-110398280D01*
X154576217Y-110398280D01*
X154232565Y-110540625D01*
X153969545Y-110803645D01*
X153827200Y-111147297D01*
X153827200Y-111519263D01*
X153969545Y-111862915D01*
X154232565Y-112125935D01*
X154576217Y-112268280D01*
X154948183Y-112268280D01*
X155291835Y-112125935D01*
X155554855Y-111862915D01*
X155697200Y-111519263D01*
X155697200Y-111473081D01*
X156862137Y-110308145D01*
X156925593Y-110265745D01*
X157093568Y-110014353D01*
X157137664Y-109792668D01*
X157137664Y-109792664D01*
X157152552Y-109717817D01*
X157137664Y-109642970D01*
X157137664Y-109388614D01*
X157170319Y-109355959D01*
X157312664Y-109012307D01*
X157312664Y-108640341D01*
X157175286Y-108308680D01*
X158985033Y-108308680D01*
X159059880Y-108323568D01*
X159134727Y-108308680D01*
X159134732Y-108308680D01*
X159356417Y-108264584D01*
X159607809Y-108096609D01*
X159650211Y-108033150D01*
X159712761Y-107970600D01*
X159758943Y-107970600D01*
X160102595Y-107828255D01*
X160365615Y-107565235D01*
X160507960Y-107221583D01*
X160507960Y-106849617D01*
X160365615Y-106505965D01*
X160102595Y-106242945D01*
X159758943Y-106100600D01*
X159386977Y-106100600D01*
X159043325Y-106242945D01*
X158780305Y-106505965D01*
X158663201Y-106788680D01*
X148136290Y-106788680D01*
X148103635Y-106756025D01*
X147759983Y-106613680D01*
X147388017Y-106613680D01*
X147044365Y-106756025D01*
X147011710Y-106788680D01*
X146399602Y-106788680D01*
X146324755Y-106773792D01*
X146249908Y-106788680D01*
X146249904Y-106788680D01*
X146028219Y-106832776D01*
X145776827Y-107000751D01*
X145744951Y-107048456D01*
X145703997Y-107048456D01*
X145360345Y-107190801D01*
X145097325Y-107453821D01*
X144954980Y-107797473D01*
X141749202Y-107797473D01*
X141681375Y-107633725D01*
X141418355Y-107370705D01*
X141074703Y-107228360D01*
X140702737Y-107228360D01*
X140359085Y-107370705D01*
X140096065Y-107633725D01*
X139953720Y-107977377D01*
X139946920Y-107977377D01*
X139946920Y-102305557D01*
X145533965Y-102305557D01*
X145533965Y-102677523D01*
X145676310Y-103021175D01*
X145708965Y-103053830D01*
X145708966Y-104601330D01*
X145650940Y-104741417D01*
X145650940Y-105113383D01*
X145793285Y-105457035D01*
X146056305Y-105720055D01*
X146399957Y-105862400D01*
X146771923Y-105862400D01*
X147115575Y-105720055D01*
X147378595Y-105457035D01*
X147520940Y-105113383D01*
X147520940Y-104741417D01*
X147378595Y-104397765D01*
X147228965Y-104248135D01*
X147228965Y-103053830D01*
X147261620Y-103021175D01*
X147403965Y-102677523D01*
X147403965Y-102305557D01*
X147261620Y-101961905D01*
X146998600Y-101698885D01*
X146654948Y-101556540D01*
X146282982Y-101556540D01*
X145939330Y-101698885D01*
X145676310Y-101961905D01*
X145533965Y-102305557D01*
X139946920Y-102305557D01*
X139946920Y-98457457D01*
X141744420Y-98457457D01*
X141744420Y-98829423D01*
X141886765Y-99173075D01*
X142149785Y-99436095D01*
X142493437Y-99578440D01*
X142865403Y-99578440D01*
X143209055Y-99436095D01*
X143472075Y-99173075D01*
X143614420Y-98829423D01*
X143614420Y-98457457D01*
X143472075Y-98113805D01*
X143209055Y-97850785D01*
X142865403Y-97708440D01*
X142493437Y-97708440D01*
X142149785Y-97850785D01*
X141886765Y-98113805D01*
X141744420Y-98457457D01*
X139946920Y-98457457D01*
X139946920Y-94454160D01*
X142468061Y-91933020D01*
X142468060Y-93689490D01*
X142435405Y-93722145D01*
X142293060Y-94065797D01*
X142293060Y-94437763D01*
X142435405Y-94781415D01*
X142698425Y-95044435D01*
X143042077Y-95186780D01*
X143414043Y-95186780D01*
X143757695Y-95044435D01*
X144020715Y-94781415D01*
X144163060Y-94437763D01*
X144163060Y-94065797D01*
X144020715Y-93722145D01*
X143988060Y-93689490D01*
X143988060Y-93135799D01*
X144164835Y-93253917D01*
X144412600Y-93303200D01*
X145685239Y-93303200D01*
X148409121Y-96027083D01*
X148409120Y-99653410D01*
X148376465Y-99686065D01*
X148234120Y-100029717D01*
X148234120Y-100401683D01*
X148376465Y-100745335D01*
X148639485Y-101008355D01*
X148983137Y-101150700D01*
X149355103Y-101150700D01*
X149698755Y-101008355D01*
X149961775Y-100745335D01*
X149984298Y-100690960D01*
X150090601Y-100690960D01*
X150090601Y-101720969D01*
X150080805Y-101730765D01*
X149938460Y-102074417D01*
X149938460Y-102446383D01*
X150080805Y-102790035D01*
X150343825Y-103053055D01*
X150687477Y-103195400D01*
X150733658Y-103195400D01*
X151786646Y-104248389D01*
X151829044Y-104311842D01*
X151892497Y-104354240D01*
X151892499Y-104354242D01*
X152017875Y-104438015D01*
X152080436Y-104479817D01*
X152302121Y-104523913D01*
X152302125Y-104523913D01*
X152376972Y-104538801D01*
X152451819Y-104523913D01*
X154432814Y-104523913D01*
X154465469Y-104556568D01*
X154809121Y-104698913D01*
X155181087Y-104698913D01*
X155524739Y-104556568D01*
X155787759Y-104293548D01*
X155930104Y-103949896D01*
X155930104Y-103577930D01*
X155787759Y-103234278D01*
X155524739Y-102971258D01*
X155181087Y-102828913D01*
X154809121Y-102828913D01*
X154465469Y-102971258D01*
X154432814Y-103003913D01*
X152691776Y-103003913D01*
X151808460Y-102120598D01*
X151808460Y-102074417D01*
X151666115Y-101730765D01*
X151610600Y-101675250D01*
X151610600Y-101487677D01*
X153184580Y-101487677D01*
X153184580Y-101859643D01*
X153326925Y-102203295D01*
X153589945Y-102466315D01*
X153933597Y-102608660D01*
X154305563Y-102608660D01*
X154649215Y-102466315D01*
X154912235Y-102203295D01*
X155054580Y-101859643D01*
X155054580Y-101487677D01*
X154912235Y-101144025D01*
X154649215Y-100881005D01*
X154305563Y-100738660D01*
X153933597Y-100738660D01*
X153589945Y-100881005D01*
X153326925Y-101144025D01*
X153184580Y-101487677D01*
X151610600Y-101487677D01*
X151610600Y-97387090D01*
X151643255Y-97354435D01*
X151785600Y-97010783D01*
X151785600Y-96638817D01*
X151643255Y-96295165D01*
X151380235Y-96032145D01*
X151036583Y-95889800D01*
X150754240Y-95889800D01*
X150744460Y-95840632D01*
X150744460Y-95840628D01*
X150700364Y-95618943D01*
X150532389Y-95367551D01*
X150468933Y-95325151D01*
X149731316Y-94587534D01*
X149839855Y-94478995D01*
X149947903Y-94218144D01*
X152892480Y-97162722D01*
X152892480Y-97208903D01*
X153034825Y-97552555D01*
X153297845Y-97815575D01*
X153641497Y-97957920D01*
X154013463Y-97957920D01*
X154357115Y-97815575D01*
X154620135Y-97552555D01*
X154762480Y-97208903D01*
X154762480Y-96836937D01*
X154620135Y-96493285D01*
X154357115Y-96230265D01*
X154013463Y-96087920D01*
X153967282Y-96087920D01*
X152034349Y-94154988D01*
X152076195Y-94137655D01*
X152339215Y-93874635D01*
X152481560Y-93530983D01*
X152481560Y-93240080D01*
X152736344Y-93290760D01*
X153028856Y-93290760D01*
X153029296Y-93290673D01*
X153029295Y-93890414D01*
X152996640Y-93923069D01*
X152854295Y-94266721D01*
X152854295Y-94638687D01*
X152996640Y-94982339D01*
X153259660Y-95245359D01*
X153603312Y-95387704D01*
X153975278Y-95387704D01*
X154318930Y-95245359D01*
X154581950Y-94982339D01*
X154724295Y-94638687D01*
X154724295Y-94266721D01*
X154581950Y-93923069D01*
X154549295Y-93890414D01*
X154549295Y-93008230D01*
X154843182Y-93204599D01*
X155276344Y-93290760D01*
X155568856Y-93290760D01*
X156002018Y-93204599D01*
X156493225Y-92876385D01*
X156821439Y-92385178D01*
X156936692Y-91805760D01*
X156821439Y-91226342D01*
X156493225Y-90735135D01*
X156194839Y-90535760D01*
X156493225Y-90336385D01*
X156700969Y-90025474D01*
X156921218Y-89981664D01*
X157172610Y-89813689D01*
X157215012Y-89750230D01*
X161132851Y-85832392D01*
X163359820Y-88059362D01*
X163359820Y-88105543D01*
X163502165Y-88449195D01*
X163765185Y-88712215D01*
X164108837Y-88854560D01*
X164480803Y-88854560D01*
X164813931Y-88716574D01*
X164813931Y-89830409D01*
X164813932Y-91591066D01*
X161688679Y-94716320D01*
X161642497Y-94716320D01*
X161298845Y-94858665D01*
X161035825Y-95121685D01*
X160893480Y-95465337D01*
X160893480Y-95837303D01*
X161035825Y-96180955D01*
X161298845Y-96443975D01*
X161642497Y-96586320D01*
X162014463Y-96586320D01*
X162358115Y-96443975D01*
X162621135Y-96180955D01*
X162763480Y-95837303D01*
X162763480Y-95791121D01*
X165637940Y-92916662D01*
X165637941Y-109528929D01*
X165597665Y-109569205D01*
X165455320Y-109912857D01*
X165455320Y-110284823D01*
X165597665Y-110628475D01*
X165860685Y-110891495D01*
X166204337Y-111033840D01*
X166340001Y-111033840D01*
X166340001Y-112139029D01*
X166291085Y-112187945D01*
X166148740Y-112531597D01*
X166148740Y-112903563D01*
X166291085Y-113247215D01*
X166554105Y-113510235D01*
X166897757Y-113652580D01*
X167040001Y-113652580D01*
X167040001Y-113826347D01*
X167025112Y-113901199D01*
X167040001Y-113976051D01*
X167084097Y-114197736D01*
X167252072Y-114449128D01*
X167315528Y-114491528D01*
X167833830Y-115009830D01*
X167777981Y-115290600D01*
X167885419Y-115830727D01*
X168191376Y-116288625D01*
X168649274Y-116594582D01*
X169053060Y-116674900D01*
X170824342Y-116674900D01*
X171228128Y-116594582D01*
X171686026Y-116288625D01*
X171991983Y-115830727D01*
X172099421Y-115290600D01*
X171991983Y-114750473D01*
X171686026Y-114292575D01*
X171278986Y-114020600D01*
X171686026Y-113748625D01*
X171991983Y-113290727D01*
X172099421Y-112750600D01*
X171991983Y-112210473D01*
X171686026Y-111752575D01*
X171278986Y-111480600D01*
X171686026Y-111208625D01*
X171991983Y-110750727D01*
X172099421Y-110210600D01*
X171991983Y-109670473D01*
X171686026Y-109212575D01*
X171278986Y-108940600D01*
X171686026Y-108668625D01*
X171991983Y-108210727D01*
X172099421Y-107670600D01*
X171991983Y-107130473D01*
X171686026Y-106672575D01*
X171278986Y-106400600D01*
X171686026Y-106128625D01*
X171991983Y-105670727D01*
X172099421Y-105130600D01*
X171991983Y-104590473D01*
X171686026Y-104132575D01*
X171278986Y-103860600D01*
X171686026Y-103588625D01*
X171991983Y-103130727D01*
X172099421Y-102590600D01*
X171991983Y-102050473D01*
X171686026Y-101592575D01*
X171278986Y-101320600D01*
X171686026Y-101048625D01*
X171991983Y-100590727D01*
X172099421Y-100050600D01*
X171991983Y-99510473D01*
X171686026Y-99052575D01*
X171278986Y-98780600D01*
X171686026Y-98508625D01*
X171991983Y-98050727D01*
X172099421Y-97510600D01*
X171991983Y-96970473D01*
X171686026Y-96512575D01*
X171278986Y-96240600D01*
X171686026Y-95968625D01*
X171991983Y-95510727D01*
X172099421Y-94970600D01*
X171991983Y-94430473D01*
X171686026Y-93972575D01*
X171278986Y-93700600D01*
X171686026Y-93428625D01*
X171991983Y-92970727D01*
X172099421Y-92430600D01*
X171991983Y-91890473D01*
X171686026Y-91432575D01*
X171278986Y-91160600D01*
X171686026Y-90888625D01*
X171991983Y-90430727D01*
X172099421Y-89890600D01*
X171991983Y-89350473D01*
X171686026Y-88892575D01*
X171278986Y-88620600D01*
X171686026Y-88348625D01*
X171991983Y-87890727D01*
X172099421Y-87350600D01*
X171991983Y-86810473D01*
X171686026Y-86352575D01*
X171278986Y-86080600D01*
X171686026Y-85808625D01*
X171991983Y-85350727D01*
X172099421Y-84810600D01*
X171991983Y-84270473D01*
X171686026Y-83812575D01*
X171278986Y-83540600D01*
X171686026Y-83268625D01*
X171991983Y-82810727D01*
X172099421Y-82270600D01*
X171991983Y-81730473D01*
X171686026Y-81272575D01*
X171278986Y-81000600D01*
X171686026Y-80728625D01*
X171991983Y-80270727D01*
X172099421Y-79730600D01*
X171991983Y-79190473D01*
X171686026Y-78732575D01*
X171278986Y-78460600D01*
X171686026Y-78188625D01*
X171991983Y-77730727D01*
X172099421Y-77190600D01*
X171991983Y-76650473D01*
X171686026Y-76192575D01*
X171278986Y-75920600D01*
X171686026Y-75648625D01*
X171991983Y-75190727D01*
X172099421Y-74650600D01*
X171991983Y-74110473D01*
X171686026Y-73652575D01*
X171278986Y-73380600D01*
X171686026Y-73108625D01*
X171991983Y-72650727D01*
X172099421Y-72110600D01*
X171991983Y-71570473D01*
X171686026Y-71112575D01*
X171278986Y-70840600D01*
X171686026Y-70568625D01*
X171991983Y-70110727D01*
X172099421Y-69570600D01*
X171991983Y-69030473D01*
X171686026Y-68572575D01*
X171278986Y-68300600D01*
X171686026Y-68028625D01*
X171991983Y-67570727D01*
X172099421Y-67030600D01*
X171991983Y-66490473D01*
X171686026Y-66032575D01*
X171228128Y-65726618D01*
X170824342Y-65646300D01*
X169053060Y-65646300D01*
X168649274Y-65726618D01*
X168191376Y-66032575D01*
X167885419Y-66490473D01*
X167777981Y-67030600D01*
X167885419Y-67570727D01*
X168191376Y-68028625D01*
X168598416Y-68300600D01*
X168191376Y-68572575D01*
X167885419Y-69030473D01*
X167777981Y-69570600D01*
X167885419Y-70110727D01*
X168191376Y-70568625D01*
X168598416Y-70840600D01*
X168191376Y-71112575D01*
X167885419Y-71570473D01*
X167777981Y-72110600D01*
X167833830Y-72391370D01*
X167315528Y-72909672D01*
X167252072Y-72952072D01*
X167209672Y-73015528D01*
X167209671Y-73015529D01*
X167084097Y-73203464D01*
X167025112Y-73500001D01*
X167040001Y-73574853D01*
X167040000Y-75726352D01*
X167025112Y-75801199D01*
X167040000Y-75876046D01*
X167040000Y-75876050D01*
X167084096Y-76097735D01*
X167252071Y-76349128D01*
X167315530Y-76391530D01*
X167833830Y-76909830D01*
X167777981Y-77190600D01*
X167855595Y-77580793D01*
X163090331Y-72815530D01*
X163047929Y-72752071D01*
X162796537Y-72584096D01*
X162574852Y-72540000D01*
X162574847Y-72540000D01*
X162500000Y-72525112D01*
X162425153Y-72540000D01*
X154435892Y-72540000D01*
X154462657Y-72513235D01*
X154605002Y-72169583D01*
X154605002Y-71797617D01*
X154462657Y-71453965D01*
X154199637Y-71190945D01*
X153855985Y-71048600D01*
X153809804Y-71048600D01*
X150191251Y-67430048D01*
X150191249Y-67430045D01*
X147747773Y-64986570D01*
X147705371Y-64923111D01*
X147453979Y-64755136D01*
X147232294Y-64711040D01*
X147232289Y-64711040D01*
X147157442Y-64696152D01*
X147082595Y-64711040D01*
X130920407Y-64711040D01*
X130845560Y-64696152D01*
X130770713Y-64711040D01*
X130770708Y-64711040D01*
X130549023Y-64755136D01*
X130297631Y-64923111D01*
X130255231Y-64986567D01*
X129627008Y-65614791D01*
X129406856Y-65571000D01*
X129114344Y-65571000D01*
X128681182Y-65657161D01*
X128189975Y-65985375D01*
X127990600Y-66283761D01*
X127791225Y-65985375D01*
X127461864Y-65765303D01*
X127491504Y-65765498D01*
X127503552Y-65760600D01*
X127516557Y-65760600D01*
X128205157Y-65475373D01*
X128895621Y-65194674D01*
X128916495Y-65180726D01*
X128916892Y-65180562D01*
X128917196Y-65180258D01*
X128938071Y-65166310D01*
X128957621Y-65139833D01*
X129947934Y-64149520D01*
X129974411Y-64129970D01*
X129979467Y-64117987D01*
X129988663Y-64108791D01*
X130273909Y-63420146D01*
X130563638Y-62733476D01*
X130563723Y-62720473D01*
X130568701Y-62708456D01*
X130568701Y-62683403D01*
X161043803Y-62683403D01*
X161048701Y-62695451D01*
X161048701Y-62708456D01*
X161333928Y-63397056D01*
X161614627Y-64087520D01*
X161628575Y-64108394D01*
X161628739Y-64108791D01*
X161629043Y-64109095D01*
X161642991Y-64129970D01*
X161669468Y-64149520D01*
X162659781Y-65139833D01*
X162679331Y-65166310D01*
X162691314Y-65171366D01*
X162700510Y-65180562D01*
X163389155Y-65465808D01*
X164075825Y-65755537D01*
X164088828Y-65755622D01*
X164100845Y-65760600D01*
X164846218Y-65760600D01*
X165591504Y-65765498D01*
X165603552Y-65760600D01*
X165616557Y-65760600D01*
X166305157Y-65475373D01*
X166995621Y-65194674D01*
X167016495Y-65180726D01*
X167016892Y-65180562D01*
X167017196Y-65180258D01*
X167038071Y-65166310D01*
X167057621Y-65139833D01*
X168047934Y-64149520D01*
X168074411Y-64129970D01*
X168079467Y-64117987D01*
X168088663Y-64108791D01*
X168373909Y-63420146D01*
X168663638Y-62733476D01*
X168663723Y-62720473D01*
X168668701Y-62708456D01*
X168668701Y-61963083D01*
X168673599Y-61217797D01*
X168668701Y-61205749D01*
X168668701Y-61192744D01*
X168383474Y-60504144D01*
X168102775Y-59813680D01*
X168088827Y-59792806D01*
X168088663Y-59792409D01*
X168088359Y-59792105D01*
X168074411Y-59771230D01*
X168047934Y-59751680D01*
X167057621Y-58761367D01*
X167038071Y-58734890D01*
X167026088Y-58729834D01*
X167016892Y-58720638D01*
X166328247Y-58435392D01*
X165641577Y-58145663D01*
X165628574Y-58145578D01*
X165616557Y-58140600D01*
X164871184Y-58140600D01*
X164125898Y-58135702D01*
X164113850Y-58140600D01*
X164100845Y-58140600D01*
X163412245Y-58425827D01*
X162721781Y-58706526D01*
X162700907Y-58720474D01*
X162700510Y-58720638D01*
X162700206Y-58720942D01*
X162679331Y-58734890D01*
X162659781Y-58761367D01*
X161669468Y-59751680D01*
X161642991Y-59771230D01*
X161637935Y-59783213D01*
X161628739Y-59792409D01*
X161343493Y-60481054D01*
X161053764Y-61167724D01*
X161053679Y-61180727D01*
X161048701Y-61192744D01*
X161048701Y-61938117D01*
X161043803Y-62683403D01*
X130568701Y-62683403D01*
X130568701Y-61963083D01*
X130573599Y-61217797D01*
X130568701Y-61205749D01*
X130568701Y-61192744D01*
X130283474Y-60504144D01*
X130002775Y-59813680D01*
X129988827Y-59792806D01*
X129988663Y-59792409D01*
X129988359Y-59792105D01*
X129974411Y-59771230D01*
X129947934Y-59751680D01*
X128957621Y-58761367D01*
X128938071Y-58734890D01*
X128926088Y-58729834D01*
X128916892Y-58720638D01*
X128228247Y-58435392D01*
X127541577Y-58145663D01*
X127528574Y-58145578D01*
X127516557Y-58140600D01*
X126771184Y-58140600D01*
X126025898Y-58135702D01*
X126013850Y-58140600D01*
X126000845Y-58140600D01*
X125312245Y-58425827D01*
X124621781Y-58706526D01*
X124600907Y-58720474D01*
X124600510Y-58720638D01*
X124600206Y-58720942D01*
X124579331Y-58734890D01*
X124559781Y-58761367D01*
X123569468Y-59751680D01*
X123542991Y-59771230D01*
X123537935Y-59783213D01*
X123528739Y-59792409D01*
X123243493Y-60481054D01*
X122953764Y-61167724D01*
X122953679Y-61180727D01*
X122948701Y-61192744D01*
X122948701Y-61938117D01*
X122943803Y-62683403D01*
X122948701Y-62695451D01*
X122948701Y-62708456D01*
X123233928Y-63397056D01*
X123514627Y-64087520D01*
X123528575Y-64108394D01*
X123528739Y-64108791D01*
X123529043Y-64109095D01*
X123542991Y-64129970D01*
X123569468Y-64149520D01*
X124559781Y-65139833D01*
X124579331Y-65166310D01*
X124591314Y-65171366D01*
X124600510Y-65180562D01*
X125289155Y-65465808D01*
X125975825Y-65755537D01*
X125988828Y-65755622D01*
X125991912Y-65756900D01*
X125649975Y-65985375D01*
X125321761Y-66476582D01*
X125206508Y-67056000D01*
X125279391Y-67422407D01*
X124018708Y-68683091D01*
X123955252Y-68725491D01*
X123912852Y-68788947D01*
X123912851Y-68788948D01*
X123787277Y-68976883D01*
X123754300Y-69142669D01*
X123731983Y-69030473D01*
X123426026Y-68572575D01*
X123018986Y-68300600D01*
X123426026Y-68028625D01*
X123731983Y-67570727D01*
X123839421Y-67030600D01*
X123731983Y-66490473D01*
X123426026Y-66032575D01*
X122968128Y-65726618D01*
X122564342Y-65646300D01*
X120793060Y-65646300D01*
X120389274Y-65726618D01*
X119931376Y-66032575D01*
X119625419Y-66490473D01*
X119517981Y-67030600D01*
X118685000Y-67030600D01*
X118685000Y-57685000D01*
X173315000Y-57685000D01*
X173315000Y-57932539D01*
X173315000Y-57932539D01*
G37*
X173315000Y-57932539D02*
X173315001Y-122932538D01*
X173315001Y-123315000D01*
X118685000Y-123315000D01*
X118685000Y-67030600D01*
X119517981Y-67030600D01*
X119625419Y-67570727D01*
X119931376Y-68028625D01*
X120338416Y-68300600D01*
X119931376Y-68572575D01*
X119625419Y-69030473D01*
X119517981Y-69570600D01*
X119625419Y-70110727D01*
X119931376Y-70568625D01*
X120338416Y-70840600D01*
X119931376Y-71112575D01*
X119625419Y-71570473D01*
X119517981Y-72110600D01*
X119625419Y-72650727D01*
X119931376Y-73108625D01*
X120338416Y-73380600D01*
X119931376Y-73652575D01*
X119625419Y-74110473D01*
X119517981Y-74650600D01*
X119625419Y-75190727D01*
X119931376Y-75648625D01*
X120338416Y-75920600D01*
X119931376Y-76192575D01*
X119625419Y-76650473D01*
X119517981Y-77190600D01*
X119625419Y-77730727D01*
X119931376Y-78188625D01*
X120338416Y-78460600D01*
X119931376Y-78732575D01*
X119625419Y-79190473D01*
X119517981Y-79730600D01*
X119625419Y-80270727D01*
X119931376Y-80728625D01*
X120338416Y-81000600D01*
X119931376Y-81272575D01*
X119625419Y-81730473D01*
X119517981Y-82270600D01*
X119625419Y-82810727D01*
X119931376Y-83268625D01*
X120338416Y-83540600D01*
X119931376Y-83812575D01*
X119625419Y-84270473D01*
X119517981Y-84810600D01*
X119625419Y-85350727D01*
X119931376Y-85808625D01*
X120338416Y-86080600D01*
X119931376Y-86352575D01*
X119625419Y-86810473D01*
X119517981Y-87350600D01*
X119625419Y-87890727D01*
X119931376Y-88348625D01*
X120338416Y-88620600D01*
X119931376Y-88892575D01*
X119625419Y-89350473D01*
X119517981Y-89890600D01*
X119625419Y-90430727D01*
X119931376Y-90888625D01*
X120338416Y-91160600D01*
X119931376Y-91432575D01*
X119625419Y-91890473D01*
X119517981Y-92430600D01*
X119625419Y-92970727D01*
X119931376Y-93428625D01*
X120338416Y-93700600D01*
X119931376Y-93972575D01*
X119625419Y-94430473D01*
X119517981Y-94970600D01*
X119625419Y-95510727D01*
X119931376Y-95968625D01*
X120338416Y-96240600D01*
X119931376Y-96512575D01*
X119625419Y-96970473D01*
X119517981Y-97510600D01*
X119625419Y-98050727D01*
X119931376Y-98508625D01*
X120338416Y-98780600D01*
X119931376Y-99052575D01*
X119625419Y-99510473D01*
X119517981Y-100050600D01*
X119625419Y-100590727D01*
X119931376Y-101048625D01*
X120338416Y-101320600D01*
X119931376Y-101592575D01*
X119625419Y-102050473D01*
X119517981Y-102590600D01*
X119625419Y-103130727D01*
X119931376Y-103588625D01*
X120338416Y-103860600D01*
X119931376Y-104132575D01*
X119625419Y-104590473D01*
X119517981Y-105130600D01*
X119625419Y-105670727D01*
X119931376Y-106128625D01*
X120338416Y-106400600D01*
X119931376Y-106672575D01*
X119625419Y-107130473D01*
X119517981Y-107670600D01*
X119625419Y-108210727D01*
X119931376Y-108668625D01*
X120338416Y-108940600D01*
X119931376Y-109212575D01*
X119625419Y-109670473D01*
X119517981Y-110210600D01*
X119625419Y-110750727D01*
X119931376Y-111208625D01*
X120338416Y-111480600D01*
X119931376Y-111752575D01*
X119625419Y-112210473D01*
X119517981Y-112750600D01*
X119625419Y-113290727D01*
X119931376Y-113748625D01*
X120338416Y-114020600D01*
X119931376Y-114292575D01*
X119625419Y-114750473D01*
X119517981Y-115290600D01*
X119625419Y-115830727D01*
X119931376Y-116288625D01*
X120389274Y-116594582D01*
X120793060Y-116674900D01*
X122564342Y-116674900D01*
X122968128Y-116594582D01*
X123426026Y-116288625D01*
X123731983Y-115830727D01*
X123839421Y-115290600D01*
X123731983Y-114750473D01*
X123426026Y-114292575D01*
X123018986Y-114020600D01*
X123426026Y-113748625D01*
X123731983Y-113290727D01*
X123839421Y-112750600D01*
X123731983Y-112210473D01*
X123426026Y-111752575D01*
X123018986Y-111480600D01*
X123426026Y-111208625D01*
X123731983Y-110750727D01*
X123839421Y-110210600D01*
X123731983Y-109670473D01*
X123426026Y-109212575D01*
X123018986Y-108940600D01*
X123426026Y-108668625D01*
X123731983Y-108210727D01*
X123839421Y-107670600D01*
X123731983Y-107130473D01*
X123426026Y-106672575D01*
X123018986Y-106400600D01*
X123426026Y-106128625D01*
X123731983Y-105670727D01*
X123839421Y-105130600D01*
X123731983Y-104590473D01*
X123426026Y-104132575D01*
X123018986Y-103860600D01*
X123426026Y-103588625D01*
X123731983Y-103130727D01*
X123839421Y-102590600D01*
X123731983Y-102050473D01*
X123426026Y-101592575D01*
X123018986Y-101320600D01*
X123426026Y-101048625D01*
X123731983Y-100590727D01*
X123839421Y-100050600D01*
X123731983Y-99510473D01*
X123426026Y-99052575D01*
X123018986Y-98780600D01*
X123426026Y-98508625D01*
X123731983Y-98050727D01*
X123839421Y-97510600D01*
X123731983Y-96970473D01*
X123426026Y-96512575D01*
X123018986Y-96240600D01*
X123426026Y-95968625D01*
X123731983Y-95510727D01*
X123839421Y-94970600D01*
X123731983Y-94430473D01*
X123426026Y-93972575D01*
X123018986Y-93700600D01*
X123426026Y-93428625D01*
X123731983Y-92970727D01*
X123839421Y-92430600D01*
X123731983Y-91890473D01*
X123426026Y-91432575D01*
X123018986Y-91160600D01*
X123426026Y-90888625D01*
X123731983Y-90430727D01*
X123839421Y-89890600D01*
X123731983Y-89350473D01*
X123426026Y-88892575D01*
X123018986Y-88620600D01*
X123426026Y-88348625D01*
X123731983Y-87890727D01*
X123839421Y-87350600D01*
X123731983Y-86810473D01*
X123426026Y-86352575D01*
X123018986Y-86080600D01*
X123426026Y-85808625D01*
X123589379Y-85564150D01*
X123778637Y-85526504D01*
X124030029Y-85358529D01*
X124072431Y-85295070D01*
X127182112Y-82185391D01*
X127268529Y-82127649D01*
X127431260Y-81884105D01*
X127431261Y-95546600D01*
X127416372Y-95621452D01*
X127475357Y-95917989D01*
X127563505Y-96049911D01*
X127643332Y-96169381D01*
X127706788Y-96211781D01*
X136611683Y-105116677D01*
X136611683Y-105162858D01*
X136754028Y-105506510D01*
X137017048Y-105769530D01*
X137360700Y-105911875D01*
X137732666Y-105911875D01*
X138076318Y-105769530D01*
X138339338Y-105506510D01*
X138426920Y-105295067D01*
X138426920Y-113498979D01*
X133894229Y-118031671D01*
X133830773Y-118074071D01*
X133788373Y-118137527D01*
X133788372Y-118137528D01*
X133662798Y-118325463D01*
X133637723Y-118451523D01*
X133380677Y-118623275D01*
X133108702Y-119030316D01*
X132836726Y-118623275D01*
X132378828Y-118317318D01*
X131838701Y-118209880D01*
X131298575Y-118317318D01*
X130840677Y-118623275D01*
X130568702Y-119030316D01*
X130296726Y-118623275D01*
X129838828Y-118317318D01*
X129298701Y-118209880D01*
X128758575Y-118317318D01*
X128300677Y-118623275D01*
X128028702Y-119030316D01*
X127756726Y-118623275D01*
X127298828Y-118317318D01*
X126758701Y-118209880D01*
X126218575Y-118317318D01*
X125760677Y-118623275D01*
X125488702Y-119030316D01*
X125216726Y-118623275D01*
X124758828Y-118317318D01*
X124218701Y-118209880D01*
X123678575Y-118317318D01*
X123220677Y-118623275D01*
X122948702Y-119030316D01*
X122676726Y-118623275D01*
X122218828Y-118317318D01*
X121678701Y-118209880D01*
X121138575Y-118317318D01*
X120680677Y-118623275D01*
X120374720Y-119081173D01*
X120294401Y-119484959D01*
X120294401Y-121256240D01*
X120374719Y-121660026D01*
X120680676Y-122117924D01*
X121138574Y-122423882D01*
X121678701Y-122531320D01*
X122218827Y-122423882D01*
X122676725Y-122117925D01*
X122948701Y-121710884D01*
X123220676Y-122117924D01*
X123678574Y-122423882D01*
X124218701Y-122531320D01*
X124758827Y-122423882D01*
X125216725Y-122117925D01*
X125488701Y-121710884D01*
X125760676Y-122117924D01*
X126218574Y-122423882D01*
X126758701Y-122531320D01*
X127298827Y-122423882D01*
X127756725Y-122117925D01*
X128028701Y-121710884D01*
X128300676Y-122117924D01*
X128758574Y-122423882D01*
X129298701Y-122531320D01*
X129838827Y-122423882D01*
X130296725Y-122117925D01*
X130568701Y-121710884D01*
X130840676Y-122117924D01*
X131298574Y-122423882D01*
X131838701Y-122531320D01*
X132378827Y-122423882D01*
X132836725Y-122117925D01*
X133108701Y-121710884D01*
X133380676Y-122117924D01*
X133838574Y-122423882D01*
X134378701Y-122531320D01*
X134918827Y-122423882D01*
X135376725Y-122117925D01*
X135648701Y-121710884D01*
X135920676Y-122117924D01*
X136378574Y-122423882D01*
X136918701Y-122531320D01*
X137458827Y-122423882D01*
X137916725Y-122117925D01*
X138188701Y-121710884D01*
X138460676Y-122117924D01*
X138918574Y-122423882D01*
X139458701Y-122531320D01*
X139998827Y-122423882D01*
X140456725Y-122117925D01*
X140728701Y-121710884D01*
X141000676Y-122117924D01*
X141458574Y-122423882D01*
X141998701Y-122531320D01*
X142538827Y-122423882D01*
X142996725Y-122117925D01*
X143268701Y-121710884D01*
X143540676Y-122117924D01*
X143998574Y-122423882D01*
X144538701Y-122531320D01*
X145078827Y-122423882D01*
X145536725Y-122117925D01*
X145842683Y-121660027D01*
X145923001Y-121256241D01*
X145923001Y-119484959D01*
X145842683Y-119081173D01*
X145536726Y-118623275D01*
X145078828Y-118317318D01*
X144538701Y-118209880D01*
X143998575Y-118317318D01*
X143540677Y-118623275D01*
X143268702Y-119030316D01*
X142996726Y-118623275D01*
X142538828Y-118317318D01*
X141998701Y-118209880D01*
X141458575Y-118317318D01*
X141000677Y-118623275D01*
X140728702Y-119030316D01*
X140456726Y-118623275D01*
X139998828Y-118317318D01*
X139458701Y-118209880D01*
X138918575Y-118317318D01*
X138460677Y-118623275D01*
X138188702Y-119030316D01*
X137916726Y-118623275D01*
X137458828Y-118317318D01*
X136918701Y-118209880D01*
X136378575Y-118317318D01*
X135920677Y-118623275D01*
X135648702Y-119030316D01*
X135406967Y-118668535D01*
X138221585Y-115853917D01*
X155203880Y-115853917D01*
X155203880Y-116225883D01*
X155346225Y-116569535D01*
X155609245Y-116832555D01*
X155952897Y-116974900D01*
X156324863Y-116974900D01*
X156668515Y-116832555D01*
X156931535Y-116569535D01*
X157073880Y-116225883D01*
X157073880Y-115853917D01*
X156931535Y-115510265D01*
X156668515Y-115247245D01*
X156324863Y-115104900D01*
X155952897Y-115104900D01*
X155609245Y-115247245D01*
X155346225Y-115510265D01*
X155203880Y-115853917D01*
X138221585Y-115853917D01*
X139671393Y-114404110D01*
X139734849Y-114361710D01*
X139902824Y-114110318D01*
X139946920Y-113888633D01*
X139946920Y-113888629D01*
X139961808Y-113813781D01*
X139946920Y-113738933D01*
X139946920Y-107977377D01*
X139953720Y-107977377D01*
X139953720Y-108349343D01*
X140096065Y-108692995D01*
X140359085Y-108956015D01*
X140702737Y-109098360D01*
X141074703Y-109098360D01*
X141418355Y-108956015D01*
X141681375Y-108692995D01*
X141823720Y-108349343D01*
X141823720Y-107977377D01*
X141749202Y-107797473D01*
X144954980Y-107797473D01*
X144954980Y-108169439D01*
X145097325Y-108513091D01*
X145360345Y-108776111D01*
X145703997Y-108918456D01*
X146075963Y-108918456D01*
X146419615Y-108776111D01*
X146682635Y-108513091D01*
X146767305Y-108308680D01*
X147011710Y-108308680D01*
X147044365Y-108341335D01*
X147388017Y-108483680D01*
X147759983Y-108483680D01*
X148056320Y-108360933D01*
X148056320Y-108679543D01*
X148198665Y-109023195D01*
X148461685Y-109286215D01*
X148581841Y-109335985D01*
X148581840Y-111443853D01*
X148566952Y-111518700D01*
X148581840Y-111593547D01*
X148581840Y-111593551D01*
X148625936Y-111815236D01*
X148793911Y-112066629D01*
X148857370Y-112109031D01*
X149046920Y-112298581D01*
X149046920Y-112344763D01*
X149189265Y-112688415D01*
X149452285Y-112951435D01*
X149795937Y-113093780D01*
X150167903Y-113093780D01*
X150511555Y-112951435D01*
X150774575Y-112688415D01*
X150916920Y-112344763D01*
X150916920Y-111972797D01*
X150774575Y-111629145D01*
X150511555Y-111366125D01*
X150167903Y-111223780D01*
X150121721Y-111223780D01*
X150101840Y-111203899D01*
X150101840Y-109253560D01*
X155542594Y-109253560D01*
X155585009Y-109355959D01*
X155617665Y-109388615D01*
X155617665Y-109403014D01*
X154622399Y-110398280D01*
X154576217Y-110398280D01*
X154232565Y-110540625D01*
X153969545Y-110803645D01*
X153827200Y-111147297D01*
X153827200Y-111519263D01*
X153969545Y-111862915D01*
X154232565Y-112125935D01*
X154576217Y-112268280D01*
X154948183Y-112268280D01*
X155291835Y-112125935D01*
X155554855Y-111862915D01*
X155697200Y-111519263D01*
X155697200Y-111473081D01*
X156862137Y-110308145D01*
X156925593Y-110265745D01*
X157093568Y-110014353D01*
X157137664Y-109792668D01*
X157137664Y-109792664D01*
X157152552Y-109717817D01*
X157137664Y-109642970D01*
X157137664Y-109388614D01*
X157170319Y-109355959D01*
X157312664Y-109012307D01*
X157312664Y-108640341D01*
X157175286Y-108308680D01*
X158985033Y-108308680D01*
X159059880Y-108323568D01*
X159134727Y-108308680D01*
X159134732Y-108308680D01*
X159356417Y-108264584D01*
X159607809Y-108096609D01*
X159650211Y-108033150D01*
X159712761Y-107970600D01*
X159758943Y-107970600D01*
X160102595Y-107828255D01*
X160365615Y-107565235D01*
X160507960Y-107221583D01*
X160507960Y-106849617D01*
X160365615Y-106505965D01*
X160102595Y-106242945D01*
X159758943Y-106100600D01*
X159386977Y-106100600D01*
X159043325Y-106242945D01*
X158780305Y-106505965D01*
X158663201Y-106788680D01*
X148136290Y-106788680D01*
X148103635Y-106756025D01*
X147759983Y-106613680D01*
X147388017Y-106613680D01*
X147044365Y-106756025D01*
X147011710Y-106788680D01*
X146399602Y-106788680D01*
X146324755Y-106773792D01*
X146249908Y-106788680D01*
X146249904Y-106788680D01*
X146028219Y-106832776D01*
X145776827Y-107000751D01*
X145744951Y-107048456D01*
X145703997Y-107048456D01*
X145360345Y-107190801D01*
X145097325Y-107453821D01*
X144954980Y-107797473D01*
X141749202Y-107797473D01*
X141681375Y-107633725D01*
X141418355Y-107370705D01*
X141074703Y-107228360D01*
X140702737Y-107228360D01*
X140359085Y-107370705D01*
X140096065Y-107633725D01*
X139953720Y-107977377D01*
X139946920Y-107977377D01*
X139946920Y-102305557D01*
X145533965Y-102305557D01*
X145533965Y-102677523D01*
X145676310Y-103021175D01*
X145708965Y-103053830D01*
X145708966Y-104601330D01*
X145650940Y-104741417D01*
X145650940Y-105113383D01*
X145793285Y-105457035D01*
X146056305Y-105720055D01*
X146399957Y-105862400D01*
X146771923Y-105862400D01*
X147115575Y-105720055D01*
X147378595Y-105457035D01*
X147520940Y-105113383D01*
X147520940Y-104741417D01*
X147378595Y-104397765D01*
X147228965Y-104248135D01*
X147228965Y-103053830D01*
X147261620Y-103021175D01*
X147403965Y-102677523D01*
X147403965Y-102305557D01*
X147261620Y-101961905D01*
X146998600Y-101698885D01*
X146654948Y-101556540D01*
X146282982Y-101556540D01*
X145939330Y-101698885D01*
X145676310Y-101961905D01*
X145533965Y-102305557D01*
X139946920Y-102305557D01*
X139946920Y-98457457D01*
X141744420Y-98457457D01*
X141744420Y-98829423D01*
X141886765Y-99173075D01*
X142149785Y-99436095D01*
X142493437Y-99578440D01*
X142865403Y-99578440D01*
X143209055Y-99436095D01*
X143472075Y-99173075D01*
X143614420Y-98829423D01*
X143614420Y-98457457D01*
X143472075Y-98113805D01*
X143209055Y-97850785D01*
X142865403Y-97708440D01*
X142493437Y-97708440D01*
X142149785Y-97850785D01*
X141886765Y-98113805D01*
X141744420Y-98457457D01*
X139946920Y-98457457D01*
X139946920Y-94454160D01*
X142468061Y-91933020D01*
X142468060Y-93689490D01*
X142435405Y-93722145D01*
X142293060Y-94065797D01*
X142293060Y-94437763D01*
X142435405Y-94781415D01*
X142698425Y-95044435D01*
X143042077Y-95186780D01*
X143414043Y-95186780D01*
X143757695Y-95044435D01*
X144020715Y-94781415D01*
X144163060Y-94437763D01*
X144163060Y-94065797D01*
X144020715Y-93722145D01*
X143988060Y-93689490D01*
X143988060Y-93135799D01*
X144164835Y-93253917D01*
X144412600Y-93303200D01*
X145685239Y-93303200D01*
X148409121Y-96027083D01*
X148409120Y-99653410D01*
X148376465Y-99686065D01*
X148234120Y-100029717D01*
X148234120Y-100401683D01*
X148376465Y-100745335D01*
X148639485Y-101008355D01*
X148983137Y-101150700D01*
X149355103Y-101150700D01*
X149698755Y-101008355D01*
X149961775Y-100745335D01*
X149984298Y-100690960D01*
X150090601Y-100690960D01*
X150090601Y-101720969D01*
X150080805Y-101730765D01*
X149938460Y-102074417D01*
X149938460Y-102446383D01*
X150080805Y-102790035D01*
X150343825Y-103053055D01*
X150687477Y-103195400D01*
X150733658Y-103195400D01*
X151786646Y-104248389D01*
X151829044Y-104311842D01*
X151892497Y-104354240D01*
X151892499Y-104354242D01*
X152017875Y-104438015D01*
X152080436Y-104479817D01*
X152302121Y-104523913D01*
X152302125Y-104523913D01*
X152376972Y-104538801D01*
X152451819Y-104523913D01*
X154432814Y-104523913D01*
X154465469Y-104556568D01*
X154809121Y-104698913D01*
X155181087Y-104698913D01*
X155524739Y-104556568D01*
X155787759Y-104293548D01*
X155930104Y-103949896D01*
X155930104Y-103577930D01*
X155787759Y-103234278D01*
X155524739Y-102971258D01*
X155181087Y-102828913D01*
X154809121Y-102828913D01*
X154465469Y-102971258D01*
X154432814Y-103003913D01*
X152691776Y-103003913D01*
X151808460Y-102120598D01*
X151808460Y-102074417D01*
X151666115Y-101730765D01*
X151610600Y-101675250D01*
X151610600Y-101487677D01*
X153184580Y-101487677D01*
X153184580Y-101859643D01*
X153326925Y-102203295D01*
X153589945Y-102466315D01*
X153933597Y-102608660D01*
X154305563Y-102608660D01*
X154649215Y-102466315D01*
X154912235Y-102203295D01*
X155054580Y-101859643D01*
X155054580Y-101487677D01*
X154912235Y-101144025D01*
X154649215Y-100881005D01*
X154305563Y-100738660D01*
X153933597Y-100738660D01*
X153589945Y-100881005D01*
X153326925Y-101144025D01*
X153184580Y-101487677D01*
X151610600Y-101487677D01*
X151610600Y-97387090D01*
X151643255Y-97354435D01*
X151785600Y-97010783D01*
X151785600Y-96638817D01*
X151643255Y-96295165D01*
X151380235Y-96032145D01*
X151036583Y-95889800D01*
X150754240Y-95889800D01*
X150744460Y-95840632D01*
X150744460Y-95840628D01*
X150700364Y-95618943D01*
X150532389Y-95367551D01*
X150468933Y-95325151D01*
X149731316Y-94587534D01*
X149839855Y-94478995D01*
X149947903Y-94218144D01*
X152892480Y-97162722D01*
X152892480Y-97208903D01*
X153034825Y-97552555D01*
X153297845Y-97815575D01*
X153641497Y-97957920D01*
X154013463Y-97957920D01*
X154357115Y-97815575D01*
X154620135Y-97552555D01*
X154762480Y-97208903D01*
X154762480Y-96836937D01*
X154620135Y-96493285D01*
X154357115Y-96230265D01*
X154013463Y-96087920D01*
X153967282Y-96087920D01*
X152034349Y-94154988D01*
X152076195Y-94137655D01*
X152339215Y-93874635D01*
X152481560Y-93530983D01*
X152481560Y-93240080D01*
X152736344Y-93290760D01*
X153028856Y-93290760D01*
X153029296Y-93290673D01*
X153029295Y-93890414D01*
X152996640Y-93923069D01*
X152854295Y-94266721D01*
X152854295Y-94638687D01*
X152996640Y-94982339D01*
X153259660Y-95245359D01*
X153603312Y-95387704D01*
X153975278Y-95387704D01*
X154318930Y-95245359D01*
X154581950Y-94982339D01*
X154724295Y-94638687D01*
X154724295Y-94266721D01*
X154581950Y-93923069D01*
X154549295Y-93890414D01*
X154549295Y-93008230D01*
X154843182Y-93204599D01*
X155276344Y-93290760D01*
X155568856Y-93290760D01*
X156002018Y-93204599D01*
X156493225Y-92876385D01*
X156821439Y-92385178D01*
X156936692Y-91805760D01*
X156821439Y-91226342D01*
X156493225Y-90735135D01*
X156194839Y-90535760D01*
X156493225Y-90336385D01*
X156700969Y-90025474D01*
X156921218Y-89981664D01*
X157172610Y-89813689D01*
X157215012Y-89750230D01*
X161132851Y-85832392D01*
X163359820Y-88059362D01*
X163359820Y-88105543D01*
X163502165Y-88449195D01*
X163765185Y-88712215D01*
X164108837Y-88854560D01*
X164480803Y-88854560D01*
X164813931Y-88716574D01*
X164813931Y-89830409D01*
X164813932Y-91591066D01*
X161688679Y-94716320D01*
X161642497Y-94716320D01*
X161298845Y-94858665D01*
X161035825Y-95121685D01*
X160893480Y-95465337D01*
X160893480Y-95837303D01*
X161035825Y-96180955D01*
X161298845Y-96443975D01*
X161642497Y-96586320D01*
X162014463Y-96586320D01*
X162358115Y-96443975D01*
X162621135Y-96180955D01*
X162763480Y-95837303D01*
X162763480Y-95791121D01*
X165637940Y-92916662D01*
X165637941Y-109528929D01*
X165597665Y-109569205D01*
X165455320Y-109912857D01*
X165455320Y-110284823D01*
X165597665Y-110628475D01*
X165860685Y-110891495D01*
X166204337Y-111033840D01*
X166340001Y-111033840D01*
X166340001Y-112139029D01*
X166291085Y-112187945D01*
X166148740Y-112531597D01*
X166148740Y-112903563D01*
X166291085Y-113247215D01*
X166554105Y-113510235D01*
X166897757Y-113652580D01*
X167040001Y-113652580D01*
X167040001Y-113826347D01*
X167025112Y-113901199D01*
X167040001Y-113976051D01*
X167084097Y-114197736D01*
X167252072Y-114449128D01*
X167315528Y-114491528D01*
X167833830Y-115009830D01*
X167777981Y-115290600D01*
X167885419Y-115830727D01*
X168191376Y-116288625D01*
X168649274Y-116594582D01*
X169053060Y-116674900D01*
X170824342Y-116674900D01*
X171228128Y-116594582D01*
X171686026Y-116288625D01*
X171991983Y-115830727D01*
X172099421Y-115290600D01*
X171991983Y-114750473D01*
X171686026Y-114292575D01*
X171278986Y-114020600D01*
X171686026Y-113748625D01*
X171991983Y-113290727D01*
X172099421Y-112750600D01*
X171991983Y-112210473D01*
X171686026Y-111752575D01*
X171278986Y-111480600D01*
X171686026Y-111208625D01*
X171991983Y-110750727D01*
X172099421Y-110210600D01*
X171991983Y-109670473D01*
X171686026Y-109212575D01*
X171278986Y-108940600D01*
X171686026Y-108668625D01*
X171991983Y-108210727D01*
X172099421Y-107670600D01*
X171991983Y-107130473D01*
X171686026Y-106672575D01*
X171278986Y-106400600D01*
X171686026Y-106128625D01*
X171991983Y-105670727D01*
X172099421Y-105130600D01*
X171991983Y-104590473D01*
X171686026Y-104132575D01*
X171278986Y-103860600D01*
X171686026Y-103588625D01*
X171991983Y-103130727D01*
X172099421Y-102590600D01*
X171991983Y-102050473D01*
X171686026Y-101592575D01*
X171278986Y-101320600D01*
X171686026Y-101048625D01*
X171991983Y-100590727D01*
X172099421Y-100050600D01*
X171991983Y-99510473D01*
X171686026Y-99052575D01*
X171278986Y-98780600D01*
X171686026Y-98508625D01*
X171991983Y-98050727D01*
X172099421Y-97510600D01*
X171991983Y-96970473D01*
X171686026Y-96512575D01*
X171278986Y-96240600D01*
X171686026Y-95968625D01*
X171991983Y-95510727D01*
X172099421Y-94970600D01*
X171991983Y-94430473D01*
X171686026Y-93972575D01*
X171278986Y-93700600D01*
X171686026Y-93428625D01*
X171991983Y-92970727D01*
X172099421Y-92430600D01*
X171991983Y-91890473D01*
X171686026Y-91432575D01*
X171278986Y-91160600D01*
X171686026Y-90888625D01*
X171991983Y-90430727D01*
X172099421Y-89890600D01*
X171991983Y-89350473D01*
X171686026Y-88892575D01*
X171278986Y-88620600D01*
X171686026Y-88348625D01*
X171991983Y-87890727D01*
X172099421Y-87350600D01*
X171991983Y-86810473D01*
X171686026Y-86352575D01*
X171278986Y-86080600D01*
X171686026Y-85808625D01*
X171991983Y-85350727D01*
X172099421Y-84810600D01*
X171991983Y-84270473D01*
X171686026Y-83812575D01*
X171278986Y-83540600D01*
X171686026Y-83268625D01*
X171991983Y-82810727D01*
X172099421Y-82270600D01*
X171991983Y-81730473D01*
X171686026Y-81272575D01*
X171278986Y-81000600D01*
X171686026Y-80728625D01*
X171991983Y-80270727D01*
X172099421Y-79730600D01*
X171991983Y-79190473D01*
X171686026Y-78732575D01*
X171278986Y-78460600D01*
X171686026Y-78188625D01*
X171991983Y-77730727D01*
X172099421Y-77190600D01*
X171991983Y-76650473D01*
X171686026Y-76192575D01*
X171278986Y-75920600D01*
X171686026Y-75648625D01*
X171991983Y-75190727D01*
X172099421Y-74650600D01*
X171991983Y-74110473D01*
X171686026Y-73652575D01*
X171278986Y-73380600D01*
X171686026Y-73108625D01*
X171991983Y-72650727D01*
X172099421Y-72110600D01*
X171991983Y-71570473D01*
X171686026Y-71112575D01*
X171278986Y-70840600D01*
X171686026Y-70568625D01*
X171991983Y-70110727D01*
X172099421Y-69570600D01*
X171991983Y-69030473D01*
X171686026Y-68572575D01*
X171278986Y-68300600D01*
X171686026Y-68028625D01*
X171991983Y-67570727D01*
X172099421Y-67030600D01*
X171991983Y-66490473D01*
X171686026Y-66032575D01*
X171228128Y-65726618D01*
X170824342Y-65646300D01*
X169053060Y-65646300D01*
X168649274Y-65726618D01*
X168191376Y-66032575D01*
X167885419Y-66490473D01*
X167777981Y-67030600D01*
X167885419Y-67570727D01*
X168191376Y-68028625D01*
X168598416Y-68300600D01*
X168191376Y-68572575D01*
X167885419Y-69030473D01*
X167777981Y-69570600D01*
X167885419Y-70110727D01*
X168191376Y-70568625D01*
X168598416Y-70840600D01*
X168191376Y-71112575D01*
X167885419Y-71570473D01*
X167777981Y-72110600D01*
X167833830Y-72391370D01*
X167315528Y-72909672D01*
X167252072Y-72952072D01*
X167209672Y-73015528D01*
X167209671Y-73015529D01*
X167084097Y-73203464D01*
X167025112Y-73500001D01*
X167040001Y-73574853D01*
X167040000Y-75726352D01*
X167025112Y-75801199D01*
X167040000Y-75876046D01*
X167040000Y-75876050D01*
X167084096Y-76097735D01*
X167252071Y-76349128D01*
X167315530Y-76391530D01*
X167833830Y-76909830D01*
X167777981Y-77190600D01*
X167855595Y-77580793D01*
X163090331Y-72815530D01*
X163047929Y-72752071D01*
X162796537Y-72584096D01*
X162574852Y-72540000D01*
X162574847Y-72540000D01*
X162500000Y-72525112D01*
X162425153Y-72540000D01*
X154435892Y-72540000D01*
X154462657Y-72513235D01*
X154605002Y-72169583D01*
X154605002Y-71797617D01*
X154462657Y-71453965D01*
X154199637Y-71190945D01*
X153855985Y-71048600D01*
X153809804Y-71048600D01*
X150191251Y-67430048D01*
X150191249Y-67430045D01*
X147747773Y-64986570D01*
X147705371Y-64923111D01*
X147453979Y-64755136D01*
X147232294Y-64711040D01*
X147232289Y-64711040D01*
X147157442Y-64696152D01*
X147082595Y-64711040D01*
X130920407Y-64711040D01*
X130845560Y-64696152D01*
X130770713Y-64711040D01*
X130770708Y-64711040D01*
X130549023Y-64755136D01*
X130297631Y-64923111D01*
X130255231Y-64986567D01*
X129627008Y-65614791D01*
X129406856Y-65571000D01*
X129114344Y-65571000D01*
X128681182Y-65657161D01*
X128189975Y-65985375D01*
X127990600Y-66283761D01*
X127791225Y-65985375D01*
X127461864Y-65765303D01*
X127491504Y-65765498D01*
X127503552Y-65760600D01*
X127516557Y-65760600D01*
X128205157Y-65475373D01*
X128895621Y-65194674D01*
X128916495Y-65180726D01*
X128916892Y-65180562D01*
X128917196Y-65180258D01*
X128938071Y-65166310D01*
X128957621Y-65139833D01*
X129947934Y-64149520D01*
X129974411Y-64129970D01*
X129979467Y-64117987D01*
X129988663Y-64108791D01*
X130273909Y-63420146D01*
X130563638Y-62733476D01*
X130563723Y-62720473D01*
X130568701Y-62708456D01*
X130568701Y-62683403D01*
X161043803Y-62683403D01*
X161048701Y-62695451D01*
X161048701Y-62708456D01*
X161333928Y-63397056D01*
X161614627Y-64087520D01*
X161628575Y-64108394D01*
X161628739Y-64108791D01*
X161629043Y-64109095D01*
X161642991Y-64129970D01*
X161669468Y-64149520D01*
X162659781Y-65139833D01*
X162679331Y-65166310D01*
X162691314Y-65171366D01*
X162700510Y-65180562D01*
X163389155Y-65465808D01*
X164075825Y-65755537D01*
X164088828Y-65755622D01*
X164100845Y-65760600D01*
X164846218Y-65760600D01*
X165591504Y-65765498D01*
X165603552Y-65760600D01*
X165616557Y-65760600D01*
X166305157Y-65475373D01*
X166995621Y-65194674D01*
X167016495Y-65180726D01*
X167016892Y-65180562D01*
X167017196Y-65180258D01*
X167038071Y-65166310D01*
X167057621Y-65139833D01*
X168047934Y-64149520D01*
X168074411Y-64129970D01*
X168079467Y-64117987D01*
X168088663Y-64108791D01*
X168373909Y-63420146D01*
X168663638Y-62733476D01*
X168663723Y-62720473D01*
X168668701Y-62708456D01*
X168668701Y-61963083D01*
X168673599Y-61217797D01*
X168668701Y-61205749D01*
X168668701Y-61192744D01*
X168383474Y-60504144D01*
X168102775Y-59813680D01*
X168088827Y-59792806D01*
X168088663Y-59792409D01*
X168088359Y-59792105D01*
X168074411Y-59771230D01*
X168047934Y-59751680D01*
X167057621Y-58761367D01*
X167038071Y-58734890D01*
X167026088Y-58729834D01*
X167016892Y-58720638D01*
X166328247Y-58435392D01*
X165641577Y-58145663D01*
X165628574Y-58145578D01*
X165616557Y-58140600D01*
X164871184Y-58140600D01*
X164125898Y-58135702D01*
X164113850Y-58140600D01*
X164100845Y-58140600D01*
X163412245Y-58425827D01*
X162721781Y-58706526D01*
X162700907Y-58720474D01*
X162700510Y-58720638D01*
X162700206Y-58720942D01*
X162679331Y-58734890D01*
X162659781Y-58761367D01*
X161669468Y-59751680D01*
X161642991Y-59771230D01*
X161637935Y-59783213D01*
X161628739Y-59792409D01*
X161343493Y-60481054D01*
X161053764Y-61167724D01*
X161053679Y-61180727D01*
X161048701Y-61192744D01*
X161048701Y-61938117D01*
X161043803Y-62683403D01*
X130568701Y-62683403D01*
X130568701Y-61963083D01*
X130573599Y-61217797D01*
X130568701Y-61205749D01*
X130568701Y-61192744D01*
X130283474Y-60504144D01*
X130002775Y-59813680D01*
X129988827Y-59792806D01*
X129988663Y-59792409D01*
X129988359Y-59792105D01*
X129974411Y-59771230D01*
X129947934Y-59751680D01*
X128957621Y-58761367D01*
X128938071Y-58734890D01*
X128926088Y-58729834D01*
X128916892Y-58720638D01*
X128228247Y-58435392D01*
X127541577Y-58145663D01*
X127528574Y-58145578D01*
X127516557Y-58140600D01*
X126771184Y-58140600D01*
X126025898Y-58135702D01*
X126013850Y-58140600D01*
X126000845Y-58140600D01*
X125312245Y-58425827D01*
X124621781Y-58706526D01*
X124600907Y-58720474D01*
X124600510Y-58720638D01*
X124600206Y-58720942D01*
X124579331Y-58734890D01*
X124559781Y-58761367D01*
X123569468Y-59751680D01*
X123542991Y-59771230D01*
X123537935Y-59783213D01*
X123528739Y-59792409D01*
X123243493Y-60481054D01*
X122953764Y-61167724D01*
X122953679Y-61180727D01*
X122948701Y-61192744D01*
X122948701Y-61938117D01*
X122943803Y-62683403D01*
X122948701Y-62695451D01*
X122948701Y-62708456D01*
X123233928Y-63397056D01*
X123514627Y-64087520D01*
X123528575Y-64108394D01*
X123528739Y-64108791D01*
X123529043Y-64109095D01*
X123542991Y-64129970D01*
X123569468Y-64149520D01*
X124559781Y-65139833D01*
X124579331Y-65166310D01*
X124591314Y-65171366D01*
X124600510Y-65180562D01*
X125289155Y-65465808D01*
X125975825Y-65755537D01*
X125988828Y-65755622D01*
X125991912Y-65756900D01*
X125649975Y-65985375D01*
X125321761Y-66476582D01*
X125206508Y-67056000D01*
X125279391Y-67422407D01*
X124018708Y-68683091D01*
X123955252Y-68725491D01*
X123912852Y-68788947D01*
X123912851Y-68788948D01*
X123787277Y-68976883D01*
X123754300Y-69142669D01*
X123731983Y-69030473D01*
X123426026Y-68572575D01*
X123018986Y-68300600D01*
X123426026Y-68028625D01*
X123731983Y-67570727D01*
X123839421Y-67030600D01*
X123731983Y-66490473D01*
X123426026Y-66032575D01*
X122968128Y-65726618D01*
X122564342Y-65646300D01*
X120793060Y-65646300D01*
X120389274Y-65726618D01*
X119931376Y-66032575D01*
X119625419Y-66490473D01*
X119517981Y-67030600D01*
X118685000Y-67030600D01*
X118685000Y-57685000D01*
X173315000Y-57685000D01*
X173315000Y-57932539D01*
G36*
X168598416Y-111480600D02*
X168560000Y-111506269D01*
X168560000Y-111454931D01*
X168598416Y-111480600D01*
X168598416Y-111480600D01*
G37*
X168598416Y-111480600D02*
X168560000Y-111506269D01*
X168560000Y-111454931D01*
X168598416Y-111480600D01*
G36*
X168598416Y-108940600D02*
X168560000Y-108966269D01*
X168560000Y-108914931D01*
X168598416Y-108940600D01*
X168598416Y-108940600D01*
G37*
X168598416Y-108940600D02*
X168560000Y-108966269D01*
X168560000Y-108914931D01*
X168598416Y-108940600D01*
G36*
X168598416Y-106400600D02*
X168560000Y-106426269D01*
X168560000Y-106374931D01*
X168598416Y-106400600D01*
X168598416Y-106400600D01*
G37*
X168598416Y-106400600D02*
X168560000Y-106426269D01*
X168560000Y-106374931D01*
X168598416Y-106400600D01*
G36*
X168598416Y-103860600D02*
X168560000Y-103886269D01*
X168560000Y-103834931D01*
X168598416Y-103860600D01*
X168598416Y-103860600D01*
G37*
X168598416Y-103860600D02*
X168560000Y-103886269D01*
X168560000Y-103834931D01*
X168598416Y-103860600D01*
G36*
X133872190Y-70037292D02*
X133914591Y-70100749D01*
X134165983Y-70268724D01*
X134387668Y-70312820D01*
X134387673Y-70312820D01*
X134462520Y-70327708D01*
X134537367Y-70312820D01*
X149248019Y-70312820D01*
X149757200Y-70822001D01*
X144070705Y-70822001D01*
X143995857Y-70807113D01*
X143921009Y-70822001D01*
X143921005Y-70822001D01*
X143699320Y-70866097D01*
X143447928Y-71034072D01*
X143405528Y-71097528D01*
X131448210Y-83054847D01*
X131384751Y-83097249D01*
X131216776Y-83348642D01*
X131172680Y-83570327D01*
X131172680Y-83570331D01*
X131157792Y-83645178D01*
X131172680Y-83720025D01*
X131172681Y-88680609D01*
X131140025Y-88713265D01*
X130997680Y-89056917D01*
X130997680Y-89428883D01*
X131140025Y-89772535D01*
X131403045Y-90035555D01*
X131746697Y-90177900D01*
X132118663Y-90177900D01*
X132462315Y-90035555D01*
X132725335Y-89772535D01*
X132867680Y-89428883D01*
X132867680Y-89056917D01*
X132725335Y-88713265D01*
X132692680Y-88680610D01*
X132692680Y-83959979D01*
X139869845Y-76782815D01*
X139879800Y-76792770D01*
X139879800Y-77064952D01*
X139864912Y-77139800D01*
X139879800Y-77214647D01*
X139879800Y-77214651D01*
X139923896Y-77436336D01*
X140091871Y-77687729D01*
X140155330Y-77730131D01*
X140659671Y-78234473D01*
X140702071Y-78297929D01*
X140953463Y-78465904D01*
X141175148Y-78510000D01*
X141175152Y-78510000D01*
X141249999Y-78524888D01*
X141324846Y-78510000D01*
X141693770Y-78510000D01*
X141736466Y-78513601D01*
X141738362Y-78513387D01*
X141749061Y-78516147D01*
X141792601Y-78510000D01*
X141800602Y-78510000D01*
X141820167Y-78506108D01*
X141864308Y-78499876D01*
X141865750Y-78510087D01*
X141865750Y-78518079D01*
X141869637Y-78537622D01*
X141879239Y-78605633D01*
X141886429Y-78669451D01*
X141889696Y-78679702D01*
X141891199Y-78690347D01*
X141891830Y-78692150D01*
X141891520Y-78703195D01*
X141925838Y-78793097D01*
X141955067Y-78884805D01*
X141962198Y-78893250D01*
X141962831Y-78895059D01*
X141968294Y-78904321D01*
X141972127Y-78914361D01*
X141973141Y-78915976D01*
X141975297Y-78926812D01*
X142028764Y-79006832D01*
X142077671Y-79089740D01*
X142086502Y-79096386D01*
X142087516Y-79098000D01*
X142094899Y-79105809D01*
X142100871Y-79114747D01*
X142102221Y-79116097D01*
X142106733Y-79126181D01*
X142176674Y-79192304D01*
X142242797Y-79262245D01*
X142252880Y-79266757D01*
X142254230Y-79268107D01*
X142263171Y-79274081D01*
X142270978Y-79281462D01*
X142272592Y-79282476D01*
X142279238Y-79291307D01*
X142362143Y-79340212D01*
X142442166Y-79393681D01*
X142453002Y-79395837D01*
X142454617Y-79396851D01*
X142464657Y-79400684D01*
X142473919Y-79406147D01*
X142475726Y-79406779D01*
X142484172Y-79413911D01*
X142575875Y-79443139D01*
X142665783Y-79477459D01*
X142676831Y-79477149D01*
X142678631Y-79477779D01*
X142689276Y-79479282D01*
X142699527Y-79482549D01*
X142701417Y-79482762D01*
X142711227Y-79487830D01*
X142807128Y-79495920D01*
X142902438Y-79509376D01*
X142913140Y-79506615D01*
X142915046Y-79506830D01*
X142925750Y-79505927D01*
X142936454Y-79506830D01*
X142938359Y-79506615D01*
X142949061Y-79509376D01*
X143044379Y-79495919D01*
X143140274Y-79487829D01*
X143150084Y-79482761D01*
X143151973Y-79482548D01*
X143162219Y-79479282D01*
X143172868Y-79477779D01*
X143174671Y-79477148D01*
X143185716Y-79477458D01*
X143275619Y-79443140D01*
X143367327Y-79413911D01*
X143375773Y-79406779D01*
X143377580Y-79406147D01*
X143386842Y-79400684D01*
X143396882Y-79396851D01*
X143398497Y-79395837D01*
X143409333Y-79393681D01*
X143489353Y-79340214D01*
X143525750Y-79318744D01*
X143562143Y-79340212D01*
X143642166Y-79393681D01*
X143653002Y-79395837D01*
X143654617Y-79396851D01*
X143664657Y-79400684D01*
X143673919Y-79406147D01*
X143675726Y-79406779D01*
X143684172Y-79413911D01*
X143775875Y-79443139D01*
X143865783Y-79477459D01*
X143876831Y-79477149D01*
X143878631Y-79477779D01*
X143889276Y-79479282D01*
X143899527Y-79482549D01*
X143901417Y-79482762D01*
X143911227Y-79487830D01*
X144007128Y-79495920D01*
X144102438Y-79509376D01*
X144113140Y-79506615D01*
X144115046Y-79506830D01*
X144125750Y-79505927D01*
X144136454Y-79506830D01*
X144138359Y-79506615D01*
X144149061Y-79509376D01*
X144244379Y-79495919D01*
X144340274Y-79487829D01*
X144350084Y-79482761D01*
X144351973Y-79482548D01*
X144362219Y-79479282D01*
X144372868Y-79477779D01*
X144374671Y-79477148D01*
X144385716Y-79477458D01*
X144475619Y-79443140D01*
X144567327Y-79413911D01*
X144575773Y-79406779D01*
X144577580Y-79406147D01*
X144586842Y-79400684D01*
X144596882Y-79396851D01*
X144598497Y-79395837D01*
X144609333Y-79393681D01*
X144689353Y-79340214D01*
X144772261Y-79291307D01*
X144778907Y-79282476D01*
X144780521Y-79281462D01*
X144788330Y-79274079D01*
X144797268Y-79268107D01*
X144798618Y-79266757D01*
X144808702Y-79262245D01*
X144874825Y-79192304D01*
X144944766Y-79126181D01*
X144949278Y-79116098D01*
X144950628Y-79114748D01*
X144956602Y-79105807D01*
X144963983Y-79098000D01*
X144964997Y-79096386D01*
X144973828Y-79089740D01*
X145022733Y-79006835D01*
X145076202Y-78926812D01*
X145078358Y-78915976D01*
X145079372Y-78914361D01*
X145083205Y-78904321D01*
X145088668Y-78895059D01*
X145089298Y-78893258D01*
X145096427Y-78884816D01*
X145125655Y-78793116D01*
X145159980Y-78703195D01*
X145159670Y-78692147D01*
X145160300Y-78690347D01*
X145161803Y-78679704D01*
X145165067Y-78669462D01*
X145172256Y-78605661D01*
X145181859Y-78537642D01*
X145185750Y-78518080D01*
X145185750Y-78510080D01*
X145186004Y-78508280D01*
X145220379Y-78542655D01*
X145564031Y-78685000D01*
X145920632Y-78685000D01*
X145691687Y-78913945D01*
X145549342Y-79257597D01*
X145549342Y-79629563D01*
X145691687Y-79973215D01*
X145724342Y-80005870D01*
X145724342Y-80084116D01*
X145724343Y-80084120D01*
X145724342Y-80999778D01*
X145709454Y-81074625D01*
X145724342Y-81149472D01*
X145724342Y-81149476D01*
X145768438Y-81371161D01*
X145936413Y-81622554D01*
X145999872Y-81664956D01*
X148888308Y-84553393D01*
X148930708Y-84616849D01*
X149182100Y-84784824D01*
X149403785Y-84828920D01*
X149403789Y-84828920D01*
X149478637Y-84843808D01*
X149553485Y-84828920D01*
X153605313Y-84828920D01*
X153680160Y-84843808D01*
X153755007Y-84828920D01*
X153755012Y-84828920D01*
X153976697Y-84784824D01*
X154228089Y-84616849D01*
X154270491Y-84553390D01*
X157896663Y-80927220D01*
X157942843Y-80927220D01*
X158286495Y-80784875D01*
X158549515Y-80521855D01*
X158691860Y-80178203D01*
X158691860Y-79806237D01*
X158549515Y-79462585D01*
X158286495Y-79199565D01*
X157942843Y-79057220D01*
X157570877Y-79057220D01*
X157227225Y-79199565D01*
X156964205Y-79462585D01*
X156821860Y-79806237D01*
X156821860Y-79852417D01*
X154706040Y-81968238D01*
X154706040Y-80506083D01*
X154856529Y-80405529D01*
X154898931Y-80342070D01*
X157100873Y-78140129D01*
X157164329Y-78097729D01*
X157332304Y-77846337D01*
X157376400Y-77624652D01*
X157376400Y-77624648D01*
X157391288Y-77549801D01*
X157376400Y-77474954D01*
X157376400Y-76899040D01*
X159660910Y-76899040D01*
X159693565Y-76931695D01*
X160037217Y-77074040D01*
X160409183Y-77074040D01*
X160752835Y-76931695D01*
X161015855Y-76668675D01*
X161158200Y-76325023D01*
X161158200Y-76172600D01*
X161488279Y-76172600D01*
X164813932Y-79498254D01*
X164813931Y-87122546D01*
X164480803Y-86984560D01*
X164434622Y-86984560D01*
X162232880Y-84782819D01*
X162232880Y-81941427D01*
X162247768Y-81866580D01*
X162232880Y-81791733D01*
X162232880Y-81791728D01*
X162188784Y-81570043D01*
X162020809Y-81318651D01*
X161988780Y-81297250D01*
X161988780Y-81261497D01*
X161846435Y-80917845D01*
X161813780Y-80885190D01*
X161813780Y-79226090D01*
X161846435Y-79193435D01*
X161988780Y-78849783D01*
X161988780Y-78477817D01*
X161846435Y-78134165D01*
X161583415Y-77871145D01*
X161239763Y-77728800D01*
X160867797Y-77728800D01*
X160524145Y-77871145D01*
X160261125Y-78134165D01*
X160118780Y-78477817D01*
X160118780Y-78849783D01*
X160261125Y-79193435D01*
X160293780Y-79226090D01*
X160293781Y-80885189D01*
X160261125Y-80917845D01*
X160118780Y-81261497D01*
X160118780Y-81633463D01*
X160231707Y-81906093D01*
X160135215Y-82002585D01*
X159992870Y-82346237D01*
X159992870Y-82718203D01*
X160135215Y-83061855D01*
X160167871Y-83094511D01*
X160167870Y-84647769D01*
X158000980Y-86814660D01*
X158000980Y-86720117D01*
X157858635Y-86376465D01*
X157595615Y-86113445D01*
X157251963Y-85971100D01*
X156879997Y-85971100D01*
X156536345Y-86113445D01*
X156273325Y-86376465D01*
X156130980Y-86720117D01*
X156130980Y-87092083D01*
X156273325Y-87435735D01*
X156536345Y-87698755D01*
X156879997Y-87841100D01*
X156974540Y-87841100D01*
X156544206Y-88271434D01*
X156493225Y-88195135D01*
X156002018Y-87866921D01*
X155568856Y-87780760D01*
X155276344Y-87780760D01*
X154843182Y-87866921D01*
X154351975Y-88195135D01*
X154152600Y-88493521D01*
X153953225Y-88195135D01*
X153462018Y-87866921D01*
X153028856Y-87780760D01*
X152736344Y-87780760D01*
X152516193Y-87824551D01*
X151811642Y-87120000D01*
X151837710Y-87120000D01*
X151870365Y-87152655D01*
X152214017Y-87295000D01*
X152585983Y-87295000D01*
X152929635Y-87152655D01*
X153192655Y-86889635D01*
X153335000Y-86545983D01*
X153335000Y-86174017D01*
X153192655Y-85830365D01*
X152929635Y-85567345D01*
X152585983Y-85425000D01*
X152214017Y-85425000D01*
X151870365Y-85567345D01*
X151837710Y-85600000D01*
X145094802Y-85600000D01*
X143683000Y-84188199D01*
X143683000Y-84142017D01*
X143540655Y-83798365D01*
X143277635Y-83535345D01*
X142933983Y-83393000D01*
X142562017Y-83393000D01*
X142218365Y-83535345D01*
X141955345Y-83798365D01*
X141882033Y-83975355D01*
X141714783Y-83906078D01*
X141668603Y-83906078D01*
X140147320Y-82384797D01*
X140147320Y-82338615D01*
X140004975Y-81994963D01*
X139741955Y-81731943D01*
X139398303Y-81589598D01*
X139026337Y-81589598D01*
X138682685Y-81731943D01*
X138419665Y-81994963D01*
X138277320Y-82338615D01*
X138277320Y-82710581D01*
X138419665Y-83054233D01*
X138682685Y-83317253D01*
X139026337Y-83459598D01*
X139072519Y-83459598D01*
X140593800Y-84980881D01*
X140593800Y-85027061D01*
X140736145Y-85370713D01*
X140999165Y-85633733D01*
X141342817Y-85776078D01*
X141388999Y-85776078D01*
X143577533Y-87964613D01*
X143619933Y-88028069D01*
X143871325Y-88196044D01*
X144093010Y-88240140D01*
X144093014Y-88240140D01*
X144153822Y-88252235D01*
X143984231Y-88506046D01*
X143812124Y-88540280D01*
X143763981Y-88549856D01*
X143607249Y-88654582D01*
X143512590Y-88717831D01*
X143470191Y-88781286D01*
X138702448Y-93549030D01*
X138638992Y-93591430D01*
X138596592Y-93654886D01*
X138596591Y-93654887D01*
X138471017Y-93842822D01*
X138412032Y-94139359D01*
X138426921Y-94214211D01*
X138426921Y-103366263D01*
X138344203Y-103332000D01*
X138298023Y-103332000D01*
X129761520Y-94795499D01*
X129761520Y-88443080D01*
X129997763Y-88443080D01*
X130341415Y-88300735D01*
X130604435Y-88037715D01*
X130746780Y-87694063D01*
X130746780Y-87322097D01*
X130604435Y-86978445D01*
X130571780Y-86945790D01*
X130571780Y-80179741D01*
X130867857Y-80302380D01*
X131239823Y-80302380D01*
X131583475Y-80160035D01*
X131846495Y-79897015D01*
X131988840Y-79553363D01*
X131988840Y-79181397D01*
X131846495Y-78837745D01*
X131583475Y-78574725D01*
X131239823Y-78432380D01*
X130867857Y-78432380D01*
X130571780Y-78555019D01*
X130571780Y-76541310D01*
X130586655Y-76526435D01*
X130729000Y-76182783D01*
X130729000Y-75810817D01*
X130586655Y-75467165D01*
X130323635Y-75204145D01*
X129979983Y-75061800D01*
X129761520Y-75061800D01*
X129761520Y-72709881D01*
X131434192Y-71037209D01*
X131654344Y-71081000D01*
X131946856Y-71081000D01*
X132380018Y-70994839D01*
X132871225Y-70666625D01*
X133199439Y-70175418D01*
X133314692Y-69596000D01*
X133285838Y-69450939D01*
X133872190Y-70037292D01*
X133872190Y-70037292D01*
G37*
X133872190Y-70037292D02*
X133914591Y-70100749D01*
X134165983Y-70268724D01*
X134387668Y-70312820D01*
X134387673Y-70312820D01*
X134462520Y-70327708D01*
X134537367Y-70312820D01*
X149248019Y-70312820D01*
X149757200Y-70822001D01*
X144070705Y-70822001D01*
X143995857Y-70807113D01*
X143921009Y-70822001D01*
X143921005Y-70822001D01*
X143699320Y-70866097D01*
X143447928Y-71034072D01*
X143405528Y-71097528D01*
X131448210Y-83054847D01*
X131384751Y-83097249D01*
X131216776Y-83348642D01*
X131172680Y-83570327D01*
X131172680Y-83570331D01*
X131157792Y-83645178D01*
X131172680Y-83720025D01*
X131172681Y-88680609D01*
X131140025Y-88713265D01*
X130997680Y-89056917D01*
X130997680Y-89428883D01*
X131140025Y-89772535D01*
X131403045Y-90035555D01*
X131746697Y-90177900D01*
X132118663Y-90177900D01*
X132462315Y-90035555D01*
X132725335Y-89772535D01*
X132867680Y-89428883D01*
X132867680Y-89056917D01*
X132725335Y-88713265D01*
X132692680Y-88680610D01*
X132692680Y-83959979D01*
X139869845Y-76782815D01*
X139879800Y-76792770D01*
X139879800Y-77064952D01*
X139864912Y-77139800D01*
X139879800Y-77214647D01*
X139879800Y-77214651D01*
X139923896Y-77436336D01*
X140091871Y-77687729D01*
X140155330Y-77730131D01*
X140659671Y-78234473D01*
X140702071Y-78297929D01*
X140953463Y-78465904D01*
X141175148Y-78510000D01*
X141175152Y-78510000D01*
X141249999Y-78524888D01*
X141324846Y-78510000D01*
X141693770Y-78510000D01*
X141736466Y-78513601D01*
X141738362Y-78513387D01*
X141749061Y-78516147D01*
X141792601Y-78510000D01*
X141800602Y-78510000D01*
X141820167Y-78506108D01*
X141864308Y-78499876D01*
X141865750Y-78510087D01*
X141865750Y-78518079D01*
X141869637Y-78537622D01*
X141879239Y-78605633D01*
X141886429Y-78669451D01*
X141889696Y-78679702D01*
X141891199Y-78690347D01*
X141891830Y-78692150D01*
X141891520Y-78703195D01*
X141925838Y-78793097D01*
X141955067Y-78884805D01*
X141962198Y-78893250D01*
X141962831Y-78895059D01*
X141968294Y-78904321D01*
X141972127Y-78914361D01*
X141973141Y-78915976D01*
X141975297Y-78926812D01*
X142028764Y-79006832D01*
X142077671Y-79089740D01*
X142086502Y-79096386D01*
X142087516Y-79098000D01*
X142094899Y-79105809D01*
X142100871Y-79114747D01*
X142102221Y-79116097D01*
X142106733Y-79126181D01*
X142176674Y-79192304D01*
X142242797Y-79262245D01*
X142252880Y-79266757D01*
X142254230Y-79268107D01*
X142263171Y-79274081D01*
X142270978Y-79281462D01*
X142272592Y-79282476D01*
X142279238Y-79291307D01*
X142362143Y-79340212D01*
X142442166Y-79393681D01*
X142453002Y-79395837D01*
X142454617Y-79396851D01*
X142464657Y-79400684D01*
X142473919Y-79406147D01*
X142475726Y-79406779D01*
X142484172Y-79413911D01*
X142575875Y-79443139D01*
X142665783Y-79477459D01*
X142676831Y-79477149D01*
X142678631Y-79477779D01*
X142689276Y-79479282D01*
X142699527Y-79482549D01*
X142701417Y-79482762D01*
X142711227Y-79487830D01*
X142807128Y-79495920D01*
X142902438Y-79509376D01*
X142913140Y-79506615D01*
X142915046Y-79506830D01*
X142925750Y-79505927D01*
X142936454Y-79506830D01*
X142938359Y-79506615D01*
X142949061Y-79509376D01*
X143044379Y-79495919D01*
X143140274Y-79487829D01*
X143150084Y-79482761D01*
X143151973Y-79482548D01*
X143162219Y-79479282D01*
X143172868Y-79477779D01*
X143174671Y-79477148D01*
X143185716Y-79477458D01*
X143275619Y-79443140D01*
X143367327Y-79413911D01*
X143375773Y-79406779D01*
X143377580Y-79406147D01*
X143386842Y-79400684D01*
X143396882Y-79396851D01*
X143398497Y-79395837D01*
X143409333Y-79393681D01*
X143489353Y-79340214D01*
X143525750Y-79318744D01*
X143562143Y-79340212D01*
X143642166Y-79393681D01*
X143653002Y-79395837D01*
X143654617Y-79396851D01*
X143664657Y-79400684D01*
X143673919Y-79406147D01*
X143675726Y-79406779D01*
X143684172Y-79413911D01*
X143775875Y-79443139D01*
X143865783Y-79477459D01*
X143876831Y-79477149D01*
X143878631Y-79477779D01*
X143889276Y-79479282D01*
X143899527Y-79482549D01*
X143901417Y-79482762D01*
X143911227Y-79487830D01*
X144007128Y-79495920D01*
X144102438Y-79509376D01*
X144113140Y-79506615D01*
X144115046Y-79506830D01*
X144125750Y-79505927D01*
X144136454Y-79506830D01*
X144138359Y-79506615D01*
X144149061Y-79509376D01*
X144244379Y-79495919D01*
X144340274Y-79487829D01*
X144350084Y-79482761D01*
X144351973Y-79482548D01*
X144362219Y-79479282D01*
X144372868Y-79477779D01*
X144374671Y-79477148D01*
X144385716Y-79477458D01*
X144475619Y-79443140D01*
X144567327Y-79413911D01*
X144575773Y-79406779D01*
X144577580Y-79406147D01*
X144586842Y-79400684D01*
X144596882Y-79396851D01*
X144598497Y-79395837D01*
X144609333Y-79393681D01*
X144689353Y-79340214D01*
X144772261Y-79291307D01*
X144778907Y-79282476D01*
X144780521Y-79281462D01*
X144788330Y-79274079D01*
X144797268Y-79268107D01*
X144798618Y-79266757D01*
X144808702Y-79262245D01*
X144874825Y-79192304D01*
X144944766Y-79126181D01*
X144949278Y-79116098D01*
X144950628Y-79114748D01*
X144956602Y-79105807D01*
X144963983Y-79098000D01*
X144964997Y-79096386D01*
X144973828Y-79089740D01*
X145022733Y-79006835D01*
X145076202Y-78926812D01*
X145078358Y-78915976D01*
X145079372Y-78914361D01*
X145083205Y-78904321D01*
X145088668Y-78895059D01*
X145089298Y-78893258D01*
X145096427Y-78884816D01*
X145125655Y-78793116D01*
X145159980Y-78703195D01*
X145159670Y-78692147D01*
X145160300Y-78690347D01*
X145161803Y-78679704D01*
X145165067Y-78669462D01*
X145172256Y-78605661D01*
X145181859Y-78537642D01*
X145185750Y-78518080D01*
X145185750Y-78510080D01*
X145186004Y-78508280D01*
X145220379Y-78542655D01*
X145564031Y-78685000D01*
X145920632Y-78685000D01*
X145691687Y-78913945D01*
X145549342Y-79257597D01*
X145549342Y-79629563D01*
X145691687Y-79973215D01*
X145724342Y-80005870D01*
X145724342Y-80084116D01*
X145724343Y-80084120D01*
X145724342Y-80999778D01*
X145709454Y-81074625D01*
X145724342Y-81149472D01*
X145724342Y-81149476D01*
X145768438Y-81371161D01*
X145936413Y-81622554D01*
X145999872Y-81664956D01*
X148888308Y-84553393D01*
X148930708Y-84616849D01*
X149182100Y-84784824D01*
X149403785Y-84828920D01*
X149403789Y-84828920D01*
X149478637Y-84843808D01*
X149553485Y-84828920D01*
X153605313Y-84828920D01*
X153680160Y-84843808D01*
X153755007Y-84828920D01*
X153755012Y-84828920D01*
X153976697Y-84784824D01*
X154228089Y-84616849D01*
X154270491Y-84553390D01*
X157896663Y-80927220D01*
X157942843Y-80927220D01*
X158286495Y-80784875D01*
X158549515Y-80521855D01*
X158691860Y-80178203D01*
X158691860Y-79806237D01*
X158549515Y-79462585D01*
X158286495Y-79199565D01*
X157942843Y-79057220D01*
X157570877Y-79057220D01*
X157227225Y-79199565D01*
X156964205Y-79462585D01*
X156821860Y-79806237D01*
X156821860Y-79852417D01*
X154706040Y-81968238D01*
X154706040Y-80506083D01*
X154856529Y-80405529D01*
X154898931Y-80342070D01*
X157100873Y-78140129D01*
X157164329Y-78097729D01*
X157332304Y-77846337D01*
X157376400Y-77624652D01*
X157376400Y-77624648D01*
X157391288Y-77549801D01*
X157376400Y-77474954D01*
X157376400Y-76899040D01*
X159660910Y-76899040D01*
X159693565Y-76931695D01*
X160037217Y-77074040D01*
X160409183Y-77074040D01*
X160752835Y-76931695D01*
X161015855Y-76668675D01*
X161158200Y-76325023D01*
X161158200Y-76172600D01*
X161488279Y-76172600D01*
X164813932Y-79498254D01*
X164813931Y-87122546D01*
X164480803Y-86984560D01*
X164434622Y-86984560D01*
X162232880Y-84782819D01*
X162232880Y-81941427D01*
X162247768Y-81866580D01*
X162232880Y-81791733D01*
X162232880Y-81791728D01*
X162188784Y-81570043D01*
X162020809Y-81318651D01*
X161988780Y-81297250D01*
X161988780Y-81261497D01*
X161846435Y-80917845D01*
X161813780Y-80885190D01*
X161813780Y-79226090D01*
X161846435Y-79193435D01*
X161988780Y-78849783D01*
X161988780Y-78477817D01*
X161846435Y-78134165D01*
X161583415Y-77871145D01*
X161239763Y-77728800D01*
X160867797Y-77728800D01*
X160524145Y-77871145D01*
X160261125Y-78134165D01*
X160118780Y-78477817D01*
X160118780Y-78849783D01*
X160261125Y-79193435D01*
X160293780Y-79226090D01*
X160293781Y-80885189D01*
X160261125Y-80917845D01*
X160118780Y-81261497D01*
X160118780Y-81633463D01*
X160231707Y-81906093D01*
X160135215Y-82002585D01*
X159992870Y-82346237D01*
X159992870Y-82718203D01*
X160135215Y-83061855D01*
X160167871Y-83094511D01*
X160167870Y-84647769D01*
X158000980Y-86814660D01*
X158000980Y-86720117D01*
X157858635Y-86376465D01*
X157595615Y-86113445D01*
X157251963Y-85971100D01*
X156879997Y-85971100D01*
X156536345Y-86113445D01*
X156273325Y-86376465D01*
X156130980Y-86720117D01*
X156130980Y-87092083D01*
X156273325Y-87435735D01*
X156536345Y-87698755D01*
X156879997Y-87841100D01*
X156974540Y-87841100D01*
X156544206Y-88271434D01*
X156493225Y-88195135D01*
X156002018Y-87866921D01*
X155568856Y-87780760D01*
X155276344Y-87780760D01*
X154843182Y-87866921D01*
X154351975Y-88195135D01*
X154152600Y-88493521D01*
X153953225Y-88195135D01*
X153462018Y-87866921D01*
X153028856Y-87780760D01*
X152736344Y-87780760D01*
X152516193Y-87824551D01*
X151811642Y-87120000D01*
X151837710Y-87120000D01*
X151870365Y-87152655D01*
X152214017Y-87295000D01*
X152585983Y-87295000D01*
X152929635Y-87152655D01*
X153192655Y-86889635D01*
X153335000Y-86545983D01*
X153335000Y-86174017D01*
X153192655Y-85830365D01*
X152929635Y-85567345D01*
X152585983Y-85425000D01*
X152214017Y-85425000D01*
X151870365Y-85567345D01*
X151837710Y-85600000D01*
X145094802Y-85600000D01*
X143683000Y-84188199D01*
X143683000Y-84142017D01*
X143540655Y-83798365D01*
X143277635Y-83535345D01*
X142933983Y-83393000D01*
X142562017Y-83393000D01*
X142218365Y-83535345D01*
X141955345Y-83798365D01*
X141882033Y-83975355D01*
X141714783Y-83906078D01*
X141668603Y-83906078D01*
X140147320Y-82384797D01*
X140147320Y-82338615D01*
X140004975Y-81994963D01*
X139741955Y-81731943D01*
X139398303Y-81589598D01*
X139026337Y-81589598D01*
X138682685Y-81731943D01*
X138419665Y-81994963D01*
X138277320Y-82338615D01*
X138277320Y-82710581D01*
X138419665Y-83054233D01*
X138682685Y-83317253D01*
X139026337Y-83459598D01*
X139072519Y-83459598D01*
X140593800Y-84980881D01*
X140593800Y-85027061D01*
X140736145Y-85370713D01*
X140999165Y-85633733D01*
X141342817Y-85776078D01*
X141388999Y-85776078D01*
X143577533Y-87964613D01*
X143619933Y-88028069D01*
X143871325Y-88196044D01*
X144093010Y-88240140D01*
X144093014Y-88240140D01*
X144153822Y-88252235D01*
X143984231Y-88506046D01*
X143812124Y-88540280D01*
X143763981Y-88549856D01*
X143607249Y-88654582D01*
X143512590Y-88717831D01*
X143470191Y-88781286D01*
X138702448Y-93549030D01*
X138638992Y-93591430D01*
X138596592Y-93654886D01*
X138596591Y-93654887D01*
X138471017Y-93842822D01*
X138412032Y-94139359D01*
X138426921Y-94214211D01*
X138426921Y-103366263D01*
X138344203Y-103332000D01*
X138298023Y-103332000D01*
X129761520Y-94795499D01*
X129761520Y-88443080D01*
X129997763Y-88443080D01*
X130341415Y-88300735D01*
X130604435Y-88037715D01*
X130746780Y-87694063D01*
X130746780Y-87322097D01*
X130604435Y-86978445D01*
X130571780Y-86945790D01*
X130571780Y-80179741D01*
X130867857Y-80302380D01*
X131239823Y-80302380D01*
X131583475Y-80160035D01*
X131846495Y-79897015D01*
X131988840Y-79553363D01*
X131988840Y-79181397D01*
X131846495Y-78837745D01*
X131583475Y-78574725D01*
X131239823Y-78432380D01*
X130867857Y-78432380D01*
X130571780Y-78555019D01*
X130571780Y-76541310D01*
X130586655Y-76526435D01*
X130729000Y-76182783D01*
X130729000Y-75810817D01*
X130586655Y-75467165D01*
X130323635Y-75204145D01*
X129979983Y-75061800D01*
X129761520Y-75061800D01*
X129761520Y-72709881D01*
X131434192Y-71037209D01*
X131654344Y-71081000D01*
X131946856Y-71081000D01*
X132380018Y-70994839D01*
X132871225Y-70666625D01*
X133199439Y-70175418D01*
X133314692Y-69596000D01*
X133285838Y-69450939D01*
X133872190Y-70037292D01*
G36*
X168598416Y-101320600D02*
X168560000Y-101346269D01*
X168560000Y-101294931D01*
X168598416Y-101320600D01*
X168598416Y-101320600D01*
G37*
X168598416Y-101320600D02*
X168560000Y-101346269D01*
X168560000Y-101294931D01*
X168598416Y-101320600D01*
G36*
X168598416Y-98780600D02*
X168560000Y-98806269D01*
X168560000Y-98754931D01*
X168598416Y-98780600D01*
X168598416Y-98780600D01*
G37*
X168598416Y-98780600D02*
X168560000Y-98806269D01*
X168560000Y-98754931D01*
X168598416Y-98780600D01*
G36*
X168598416Y-96240600D02*
X168560000Y-96266269D01*
X168560000Y-96214931D01*
X168598416Y-96240600D01*
X168598416Y-96240600D01*
G37*
X168598416Y-96240600D02*
X168560000Y-96266269D01*
X168560000Y-96214931D01*
X168598416Y-96240600D01*
G36*
X168598416Y-93700600D02*
X168560000Y-93726269D01*
X168560000Y-93674931D01*
X168598416Y-93700600D01*
X168598416Y-93700600D01*
G37*
X168598416Y-93700600D02*
X168560000Y-93726269D01*
X168560000Y-93674931D01*
X168598416Y-93700600D01*
G36*
X168598416Y-91160600D02*
X168560000Y-91186269D01*
X168560000Y-91134931D01*
X168598416Y-91160600D01*
X168598416Y-91160600D01*
G37*
X168598416Y-91160600D02*
X168560000Y-91186269D01*
X168560000Y-91134931D01*
X168598416Y-91160600D01*
G36*
X154351975Y-90336385D02*
X154650361Y-90535760D01*
X154351975Y-90735135D01*
X154152600Y-91033521D01*
X153953225Y-90735135D01*
X153654839Y-90535760D01*
X153953225Y-90336385D01*
X154152600Y-90037999D01*
X154351975Y-90336385D01*
X154351975Y-90336385D01*
G37*
X154351975Y-90336385D02*
X154650361Y-90535760D01*
X154351975Y-90735135D01*
X154152600Y-91033521D01*
X153953225Y-90735135D01*
X153654839Y-90535760D01*
X153953225Y-90336385D01*
X154152600Y-90037999D01*
X154351975Y-90336385D01*
G36*
X168598416Y-88620600D02*
X168560000Y-88646269D01*
X168560000Y-88594931D01*
X168598416Y-88620600D01*
X168598416Y-88620600D01*
G37*
X168598416Y-88620600D02*
X168560000Y-88646269D01*
X168560000Y-88594931D01*
X168598416Y-88620600D01*
G36*
X147535620Y-87473083D02*
X147663064Y-87780760D01*
X147656344Y-87780760D01*
X147223182Y-87866921D01*
X146731975Y-88195135D01*
X146532600Y-88493521D01*
X146415169Y-88317773D01*
X146523755Y-88272795D01*
X146786775Y-88009775D01*
X146929120Y-87666123D01*
X146929120Y-87294157D01*
X146856982Y-87120000D01*
X147535620Y-87120000D01*
X147535620Y-87473083D01*
X147535620Y-87473083D01*
G37*
X147535620Y-87473083D02*
X147663064Y-87780760D01*
X147656344Y-87780760D01*
X147223182Y-87866921D01*
X146731975Y-88195135D01*
X146532600Y-88493521D01*
X146415169Y-88317773D01*
X146523755Y-88272795D01*
X146786775Y-88009775D01*
X146929120Y-87666123D01*
X146929120Y-87294157D01*
X146856982Y-87120000D01*
X147535620Y-87120000D01*
X147535620Y-87473083D01*
G36*
X150322799Y-87780760D02*
X150196344Y-87780760D01*
X149976192Y-87824551D01*
X149835521Y-87683880D01*
X150225919Y-87683880D01*
X150322799Y-87780760D01*
X150322799Y-87780760D01*
G37*
X150322799Y-87780760D02*
X150196344Y-87780760D01*
X149976192Y-87824551D01*
X149835521Y-87683880D01*
X150225919Y-87683880D01*
X150322799Y-87780760D01*
G36*
X168598416Y-86080600D02*
X168560000Y-86106269D01*
X168560000Y-86054931D01*
X168598416Y-86080600D01*
X168598416Y-86080600D01*
G37*
X168598416Y-86080600D02*
X168560000Y-86106269D01*
X168560000Y-86054931D01*
X168598416Y-86080600D01*
G36*
X125272443Y-70693765D02*
X125412791Y-70903809D01*
X125622835Y-71044157D01*
X125870600Y-71093440D01*
X125960600Y-71093440D01*
X125960601Y-81257296D01*
X123413616Y-83804283D01*
X123018986Y-83540600D01*
X123426026Y-83268625D01*
X123731983Y-82810727D01*
X123839421Y-82270600D01*
X123783572Y-81989830D01*
X124987653Y-80785750D01*
X125051109Y-80743350D01*
X125219084Y-80491958D01*
X125263180Y-80270273D01*
X125263180Y-80270269D01*
X125278068Y-80195422D01*
X125263180Y-80120575D01*
X125263180Y-70647196D01*
X125272443Y-70693765D01*
X125272443Y-70693765D01*
G37*
X125272443Y-70693765D02*
X125412791Y-70903809D01*
X125622835Y-71044157D01*
X125870600Y-71093440D01*
X125960600Y-71093440D01*
X125960601Y-81257296D01*
X123413616Y-83804283D01*
X123018986Y-83540600D01*
X123426026Y-83268625D01*
X123731983Y-82810727D01*
X123839421Y-82270600D01*
X123783572Y-81989830D01*
X124987653Y-80785750D01*
X125051109Y-80743350D01*
X125219084Y-80491958D01*
X125263180Y-80270273D01*
X125263180Y-80270269D01*
X125278068Y-80195422D01*
X125263180Y-80120575D01*
X125263180Y-70647196D01*
X125272443Y-70693765D01*
G36*
X168598416Y-83540600D02*
X168560000Y-83566269D01*
X168560000Y-83514931D01*
X168598416Y-83540600D01*
X168598416Y-83540600D01*
G37*
X168598416Y-83540600D02*
X168560000Y-83566269D01*
X168560000Y-83514931D01*
X168598416Y-83540600D01*
G36*
X153365359Y-83308920D02*
X149793439Y-83308920D01*
X149689559Y-83205040D01*
X153469239Y-83205040D01*
X153365359Y-83308920D01*
X153365359Y-83308920D01*
G37*
X153365359Y-83308920D02*
X149793439Y-83308920D01*
X149689559Y-83205040D01*
X153469239Y-83205040D01*
X153365359Y-83308920D01*
G36*
X147040320Y-72375323D02*
X147068001Y-72442151D01*
X147068000Y-75129710D01*
X147035345Y-75162365D01*
X146893000Y-75506017D01*
X146893000Y-75877983D01*
X147035345Y-76221635D01*
X147298365Y-76484655D01*
X147642017Y-76627000D01*
X147688199Y-76627000D01*
X148045609Y-76984411D01*
X148011160Y-77157600D01*
X148011160Y-81526642D01*
X147244342Y-80759824D01*
X147244342Y-80005870D01*
X147276997Y-79973215D01*
X147419342Y-79629563D01*
X147419342Y-79257597D01*
X147276997Y-78913945D01*
X147013977Y-78650925D01*
X146670325Y-78508580D01*
X146313724Y-78508580D01*
X146542669Y-78279635D01*
X146685014Y-77935983D01*
X146685014Y-77564017D01*
X146542669Y-77220365D01*
X146279649Y-76957345D01*
X145935997Y-76815000D01*
X145761055Y-76815000D01*
X145760300Y-76809653D01*
X145759670Y-76807853D01*
X145759980Y-76796805D01*
X145725655Y-76706884D01*
X145696427Y-76615184D01*
X145689298Y-76606742D01*
X145688668Y-76604941D01*
X145683205Y-76595679D01*
X145679372Y-76585639D01*
X145678358Y-76584024D01*
X145676202Y-76573188D01*
X145622733Y-76493165D01*
X145573828Y-76410260D01*
X145564997Y-76403614D01*
X145563983Y-76402000D01*
X145556602Y-76394193D01*
X145550628Y-76385252D01*
X145549278Y-76383902D01*
X145544766Y-76373819D01*
X145474825Y-76307696D01*
X145408702Y-76237755D01*
X145398618Y-76233243D01*
X145397268Y-76231893D01*
X145388330Y-76225921D01*
X145380521Y-76218538D01*
X145378907Y-76217524D01*
X145372261Y-76208693D01*
X145289353Y-76159786D01*
X145209333Y-76106319D01*
X145198497Y-76104163D01*
X145196882Y-76103149D01*
X145186842Y-76099316D01*
X145177580Y-76093853D01*
X145175773Y-76093221D01*
X145167327Y-76086089D01*
X145075619Y-76056860D01*
X144985716Y-76022542D01*
X144974671Y-76022852D01*
X144972868Y-76022221D01*
X144962219Y-76020718D01*
X144951973Y-76017452D01*
X144950084Y-76017239D01*
X144940274Y-76012171D01*
X144844379Y-76004081D01*
X144749061Y-75990624D01*
X144738359Y-75993385D01*
X144736454Y-75993170D01*
X144725750Y-75994073D01*
X144715046Y-75993170D01*
X144713140Y-75993385D01*
X144702438Y-75990624D01*
X144607128Y-76004080D01*
X144511227Y-76012170D01*
X144501417Y-76017238D01*
X144499527Y-76017451D01*
X144489276Y-76020718D01*
X144478631Y-76022221D01*
X144476831Y-76022851D01*
X144465783Y-76022541D01*
X144375875Y-76056861D01*
X144284172Y-76086089D01*
X144275726Y-76093221D01*
X144273919Y-76093853D01*
X144264657Y-76099316D01*
X144254617Y-76103149D01*
X144253002Y-76104163D01*
X144242166Y-76106319D01*
X144162143Y-76159788D01*
X144125750Y-76181256D01*
X144089353Y-76159786D01*
X144009333Y-76106319D01*
X143998497Y-76104163D01*
X143996882Y-76103149D01*
X143986842Y-76099316D01*
X143977580Y-76093853D01*
X143975773Y-76093221D01*
X143967327Y-76086089D01*
X143875619Y-76056860D01*
X143785716Y-76022542D01*
X143774671Y-76022852D01*
X143772868Y-76022221D01*
X143762219Y-76020718D01*
X143751973Y-76017452D01*
X143750084Y-76017239D01*
X143740274Y-76012171D01*
X143644379Y-76004081D01*
X143549061Y-75990624D01*
X143538359Y-75993385D01*
X143536454Y-75993170D01*
X143525750Y-75994073D01*
X143515046Y-75993170D01*
X143513140Y-75993385D01*
X143502438Y-75990624D01*
X143407128Y-76004080D01*
X143311227Y-76012170D01*
X143301417Y-76017238D01*
X143299527Y-76017451D01*
X143289276Y-76020718D01*
X143278631Y-76022221D01*
X143276831Y-76022851D01*
X143265783Y-76022541D01*
X143175875Y-76056861D01*
X143084172Y-76086089D01*
X143075726Y-76093221D01*
X143073919Y-76093853D01*
X143064657Y-76099316D01*
X143054617Y-76103149D01*
X143053002Y-76104163D01*
X143042166Y-76106319D01*
X142962143Y-76159788D01*
X142925750Y-76181256D01*
X142889353Y-76159786D01*
X142809333Y-76106319D01*
X142798497Y-76104163D01*
X142796882Y-76103149D01*
X142786842Y-76099316D01*
X142777580Y-76093853D01*
X142775773Y-76093221D01*
X142767327Y-76086089D01*
X142675619Y-76056860D01*
X142585716Y-76022542D01*
X142574671Y-76022852D01*
X142572868Y-76022221D01*
X142562219Y-76020718D01*
X142551973Y-76017452D01*
X142550084Y-76017239D01*
X142540274Y-76012171D01*
X142444379Y-76004081D01*
X142349061Y-75990624D01*
X142338359Y-75993385D01*
X142336454Y-75993170D01*
X142325750Y-75994073D01*
X142315046Y-75993170D01*
X142313140Y-75993385D01*
X142302438Y-75990624D01*
X142207128Y-76004080D01*
X142111227Y-76012170D01*
X142101417Y-76017238D01*
X142099527Y-76017451D01*
X142089276Y-76020718D01*
X142078631Y-76022221D01*
X142076831Y-76022851D01*
X142065783Y-76022541D01*
X141975875Y-76056861D01*
X141884172Y-76086089D01*
X141875726Y-76093221D01*
X141873919Y-76093853D01*
X141864657Y-76099316D01*
X141854617Y-76103149D01*
X141853002Y-76104163D01*
X141842166Y-76106319D01*
X141762143Y-76159788D01*
X141679238Y-76208693D01*
X141672592Y-76217524D01*
X141670978Y-76218538D01*
X141663171Y-76225919D01*
X141654230Y-76231893D01*
X141652880Y-76233243D01*
X141642797Y-76237755D01*
X141576674Y-76307696D01*
X141574800Y-76309467D01*
X141574800Y-76044497D01*
X141432455Y-75700845D01*
X141192135Y-75460525D01*
X144310659Y-72342001D01*
X147040320Y-72342001D01*
X147040320Y-72375323D01*
X147040320Y-72375323D01*
G37*
X147040320Y-72375323D02*
X147068001Y-72442151D01*
X147068000Y-75129710D01*
X147035345Y-75162365D01*
X146893000Y-75506017D01*
X146893000Y-75877983D01*
X147035345Y-76221635D01*
X147298365Y-76484655D01*
X147642017Y-76627000D01*
X147688199Y-76627000D01*
X148045609Y-76984411D01*
X148011160Y-77157600D01*
X148011160Y-81526642D01*
X147244342Y-80759824D01*
X147244342Y-80005870D01*
X147276997Y-79973215D01*
X147419342Y-79629563D01*
X147419342Y-79257597D01*
X147276997Y-78913945D01*
X147013977Y-78650925D01*
X146670325Y-78508580D01*
X146313724Y-78508580D01*
X146542669Y-78279635D01*
X146685014Y-77935983D01*
X146685014Y-77564017D01*
X146542669Y-77220365D01*
X146279649Y-76957345D01*
X145935997Y-76815000D01*
X145761055Y-76815000D01*
X145760300Y-76809653D01*
X145759670Y-76807853D01*
X145759980Y-76796805D01*
X145725655Y-76706884D01*
X145696427Y-76615184D01*
X145689298Y-76606742D01*
X145688668Y-76604941D01*
X145683205Y-76595679D01*
X145679372Y-76585639D01*
X145678358Y-76584024D01*
X145676202Y-76573188D01*
X145622733Y-76493165D01*
X145573828Y-76410260D01*
X145564997Y-76403614D01*
X145563983Y-76402000D01*
X145556602Y-76394193D01*
X145550628Y-76385252D01*
X145549278Y-76383902D01*
X145544766Y-76373819D01*
X145474825Y-76307696D01*
X145408702Y-76237755D01*
X145398618Y-76233243D01*
X145397268Y-76231893D01*
X145388330Y-76225921D01*
X145380521Y-76218538D01*
X145378907Y-76217524D01*
X145372261Y-76208693D01*
X145289353Y-76159786D01*
X145209333Y-76106319D01*
X145198497Y-76104163D01*
X145196882Y-76103149D01*
X145186842Y-76099316D01*
X145177580Y-76093853D01*
X145175773Y-76093221D01*
X145167327Y-76086089D01*
X145075619Y-76056860D01*
X144985716Y-76022542D01*
X144974671Y-76022852D01*
X144972868Y-76022221D01*
X144962219Y-76020718D01*
X144951973Y-76017452D01*
X144950084Y-76017239D01*
X144940274Y-76012171D01*
X144844379Y-76004081D01*
X144749061Y-75990624D01*
X144738359Y-75993385D01*
X144736454Y-75993170D01*
X144725750Y-75994073D01*
X144715046Y-75993170D01*
X144713140Y-75993385D01*
X144702438Y-75990624D01*
X144607128Y-76004080D01*
X144511227Y-76012170D01*
X144501417Y-76017238D01*
X144499527Y-76017451D01*
X144489276Y-76020718D01*
X144478631Y-76022221D01*
X144476831Y-76022851D01*
X144465783Y-76022541D01*
X144375875Y-76056861D01*
X144284172Y-76086089D01*
X144275726Y-76093221D01*
X144273919Y-76093853D01*
X144264657Y-76099316D01*
X144254617Y-76103149D01*
X144253002Y-76104163D01*
X144242166Y-76106319D01*
X144162143Y-76159788D01*
X144125750Y-76181256D01*
X144089353Y-76159786D01*
X144009333Y-76106319D01*
X143998497Y-76104163D01*
X143996882Y-76103149D01*
X143986842Y-76099316D01*
X143977580Y-76093853D01*
X143975773Y-76093221D01*
X143967327Y-76086089D01*
X143875619Y-76056860D01*
X143785716Y-76022542D01*
X143774671Y-76022852D01*
X143772868Y-76022221D01*
X143762219Y-76020718D01*
X143751973Y-76017452D01*
X143750084Y-76017239D01*
X143740274Y-76012171D01*
X143644379Y-76004081D01*
X143549061Y-75990624D01*
X143538359Y-75993385D01*
X143536454Y-75993170D01*
X143525750Y-75994073D01*
X143515046Y-75993170D01*
X143513140Y-75993385D01*
X143502438Y-75990624D01*
X143407128Y-76004080D01*
X143311227Y-76012170D01*
X143301417Y-76017238D01*
X143299527Y-76017451D01*
X143289276Y-76020718D01*
X143278631Y-76022221D01*
X143276831Y-76022851D01*
X143265783Y-76022541D01*
X143175875Y-76056861D01*
X143084172Y-76086089D01*
X143075726Y-76093221D01*
X143073919Y-76093853D01*
X143064657Y-76099316D01*
X143054617Y-76103149D01*
X143053002Y-76104163D01*
X143042166Y-76106319D01*
X142962143Y-76159788D01*
X142925750Y-76181256D01*
X142889353Y-76159786D01*
X142809333Y-76106319D01*
X142798497Y-76104163D01*
X142796882Y-76103149D01*
X142786842Y-76099316D01*
X142777580Y-76093853D01*
X142775773Y-76093221D01*
X142767327Y-76086089D01*
X142675619Y-76056860D01*
X142585716Y-76022542D01*
X142574671Y-76022852D01*
X142572868Y-76022221D01*
X142562219Y-76020718D01*
X142551973Y-76017452D01*
X142550084Y-76017239D01*
X142540274Y-76012171D01*
X142444379Y-76004081D01*
X142349061Y-75990624D01*
X142338359Y-75993385D01*
X142336454Y-75993170D01*
X142325750Y-75994073D01*
X142315046Y-75993170D01*
X142313140Y-75993385D01*
X142302438Y-75990624D01*
X142207128Y-76004080D01*
X142111227Y-76012170D01*
X142101417Y-76017238D01*
X142099527Y-76017451D01*
X142089276Y-76020718D01*
X142078631Y-76022221D01*
X142076831Y-76022851D01*
X142065783Y-76022541D01*
X141975875Y-76056861D01*
X141884172Y-76086089D01*
X141875726Y-76093221D01*
X141873919Y-76093853D01*
X141864657Y-76099316D01*
X141854617Y-76103149D01*
X141853002Y-76104163D01*
X141842166Y-76106319D01*
X141762143Y-76159788D01*
X141679238Y-76208693D01*
X141672592Y-76217524D01*
X141670978Y-76218538D01*
X141663171Y-76225919D01*
X141654230Y-76231893D01*
X141652880Y-76233243D01*
X141642797Y-76237755D01*
X141576674Y-76307696D01*
X141574800Y-76309467D01*
X141574800Y-76044497D01*
X141432455Y-75700845D01*
X141192135Y-75460525D01*
X144310659Y-72342001D01*
X147040320Y-72342001D01*
X147040320Y-72375323D01*
G36*
X168598416Y-81000600D02*
X168560000Y-81026269D01*
X168560000Y-80974931D01*
X168598416Y-81000600D01*
X168598416Y-81000600D01*
G37*
X168598416Y-81000600D02*
X168560000Y-81026269D01*
X168560000Y-80974931D01*
X168598416Y-81000600D01*
G36*
X123743180Y-79246765D02*
X123731983Y-79190473D01*
X123426026Y-78732575D01*
X123018986Y-78460600D01*
X123426026Y-78188625D01*
X123731983Y-77730727D01*
X123743180Y-77674435D01*
X123743180Y-79246765D01*
X123743180Y-79246765D01*
G37*
X123743180Y-79246765D02*
X123731983Y-79190473D01*
X123426026Y-78732575D01*
X123018986Y-78460600D01*
X123426026Y-78188625D01*
X123731983Y-77730727D01*
X123743180Y-77674435D01*
X123743180Y-79246765D01*
G36*
X168598416Y-78460600D02*
X168553174Y-78490830D01*
X168539304Y-78421103D01*
X168598416Y-78460600D01*
X168598416Y-78460600D01*
G37*
X168598416Y-78460600D02*
X168553174Y-78490830D01*
X168539304Y-78421103D01*
X168598416Y-78460600D01*
G36*
X154765965Y-76713255D02*
X155109617Y-76855600D01*
X155481583Y-76855600D01*
X155825235Y-76713255D01*
X155856401Y-76682089D01*
X155856400Y-77234998D01*
X154706040Y-78385359D01*
X154706040Y-77157600D01*
X154656757Y-76909835D01*
X154516409Y-76699791D01*
X154487688Y-76680600D01*
X154733310Y-76680600D01*
X154765965Y-76713255D01*
X154765965Y-76713255D01*
G37*
X154765965Y-76713255D02*
X155109617Y-76855600D01*
X155481583Y-76855600D01*
X155825235Y-76713255D01*
X155856401Y-76682089D01*
X155856400Y-77234998D01*
X154706040Y-78385359D01*
X154706040Y-77157600D01*
X154656757Y-76909835D01*
X154516409Y-76699791D01*
X154487688Y-76680600D01*
X154733310Y-76680600D01*
X154765965Y-76713255D01*
G36*
X123743180Y-76706766D02*
X123731983Y-76650473D01*
X123426026Y-76192575D01*
X123018986Y-75920600D01*
X123426026Y-75648625D01*
X123731983Y-75190727D01*
X123743180Y-75134434D01*
X123743180Y-76706766D01*
X123743180Y-76706766D01*
G37*
X123743180Y-76706766D02*
X123731983Y-76650473D01*
X123426026Y-76192575D01*
X123018986Y-75920600D01*
X123426026Y-75648625D01*
X123731983Y-75190727D01*
X123743180Y-75134434D01*
X123743180Y-76706766D01*
G36*
X149729976Y-76510160D02*
X149720962Y-76510160D01*
X149702810Y-76492008D01*
X149729976Y-76510160D01*
X149729976Y-76510160D01*
G37*
X149729976Y-76510160D02*
X149720962Y-76510160D01*
X149702810Y-76492008D01*
X149729976Y-76510160D01*
G36*
X149625271Y-76405073D02*
X149644192Y-76433390D01*
X149380602Y-76169800D01*
X149389998Y-76169800D01*
X149625271Y-76405073D01*
X149625271Y-76405073D01*
G37*
X149625271Y-76405073D02*
X149644192Y-76433390D01*
X149380602Y-76169800D01*
X149389998Y-76169800D01*
X149625271Y-76405073D01*
G36*
X148711745Y-73816255D02*
X148974765Y-74079275D01*
X149318417Y-74221620D01*
X149364599Y-74221620D01*
X149442779Y-74299800D01*
X149343817Y-74299800D01*
X149000165Y-74442145D01*
X148737145Y-74705165D01*
X148594800Y-75048817D01*
X148594800Y-75136510D01*
X148588000Y-75129710D01*
X148588000Y-73517507D01*
X148711745Y-73816255D01*
X148711745Y-73816255D01*
G37*
X148711745Y-73816255D02*
X148974765Y-74079275D01*
X149318417Y-74221620D01*
X149364599Y-74221620D01*
X149442779Y-74299800D01*
X149343817Y-74299800D01*
X149000165Y-74442145D01*
X148737145Y-74705165D01*
X148594800Y-75048817D01*
X148594800Y-75136510D01*
X148588000Y-75129710D01*
X148588000Y-73517507D01*
X148711745Y-73816255D01*
G36*
X123743181Y-74166767D02*
X123731983Y-74110473D01*
X123426026Y-73652575D01*
X123018986Y-73380600D01*
X123426026Y-73108625D01*
X123731983Y-72650727D01*
X123743181Y-72594432D01*
X123743181Y-74166767D01*
X123743181Y-74166767D01*
G37*
X123743181Y-74166767D02*
X123731983Y-74110473D01*
X123426026Y-73652575D01*
X123018986Y-73380600D01*
X123426026Y-73108625D01*
X123731983Y-72650727D01*
X123743181Y-72594432D01*
X123743181Y-74166767D01*
G36*
X151456454Y-72521256D02*
X151207345Y-72770365D01*
X151122583Y-72975000D01*
X150844017Y-72975000D01*
X150500365Y-73117345D01*
X150455146Y-73162564D01*
X150439400Y-73146819D01*
X150439400Y-73100637D01*
X150321914Y-72817000D01*
X150528583Y-72817000D01*
X150872235Y-72674655D01*
X151135255Y-72411635D01*
X151197225Y-72262026D01*
X151456454Y-72521256D01*
X151456454Y-72521256D01*
G37*
X151456454Y-72521256D02*
X151207345Y-72770365D01*
X151122583Y-72975000D01*
X150844017Y-72975000D01*
X150500365Y-73117345D01*
X150455146Y-73162564D01*
X150439400Y-73146819D01*
X150439400Y-73100637D01*
X150321914Y-72817000D01*
X150528583Y-72817000D01*
X150872235Y-72674655D01*
X151135255Y-72411635D01*
X151197225Y-72262026D01*
X151456454Y-72521256D01*
G36*
X128189975Y-70666625D02*
X128681182Y-70994839D01*
X129114344Y-71081000D01*
X129240799Y-71081000D01*
X128517048Y-71804751D01*
X128453592Y-71847151D01*
X128411192Y-71910607D01*
X128411191Y-71910608D01*
X128307045Y-72066474D01*
X128285617Y-72098543D01*
X128253142Y-72261808D01*
X128226632Y-72395080D01*
X128241521Y-72469932D01*
X128241521Y-72796120D01*
X128005277Y-72796120D01*
X127661625Y-72938465D01*
X127480600Y-73119490D01*
X127480600Y-71093440D01*
X127570600Y-71093440D01*
X127818365Y-71044157D01*
X128028409Y-70903809D01*
X128168757Y-70693765D01*
X128177784Y-70648381D01*
X128189975Y-70666625D01*
X128189975Y-70666625D01*
G37*
X128189975Y-70666625D02*
X128681182Y-70994839D01*
X129114344Y-71081000D01*
X129240799Y-71081000D01*
X128517048Y-71804751D01*
X128453592Y-71847151D01*
X128411192Y-71910607D01*
X128411191Y-71910608D01*
X128307045Y-72066474D01*
X128285617Y-72098543D01*
X128253142Y-72261808D01*
X128226632Y-72395080D01*
X128241521Y-72469932D01*
X128241521Y-72796120D01*
X128005277Y-72796120D01*
X127661625Y-72938465D01*
X127480600Y-73119490D01*
X127480600Y-71093440D01*
X127570600Y-71093440D01*
X127818365Y-71044157D01*
X128028409Y-70903809D01*
X128168757Y-70693765D01*
X128177784Y-70648381D01*
X128189975Y-70666625D01*
G36*
X148588000Y-73055733D02*
X148588000Y-72898950D01*
X148698862Y-72788088D01*
X148588000Y-73055733D01*
X148588000Y-73055733D01*
G37*
X148588000Y-73055733D02*
X148588000Y-72898950D01*
X148698862Y-72788088D01*
X148588000Y-73055733D01*
G36*
X149525086Y-72351620D02*
X149318417Y-72351620D01*
X148974765Y-72493965D01*
X148780858Y-72687872D01*
X148910320Y-72375323D01*
X148910320Y-72342001D01*
X149521102Y-72342001D01*
X149525086Y-72351620D01*
X149525086Y-72351620D01*
G37*
X149525086Y-72351620D02*
X149318417Y-72351620D01*
X148974765Y-72493965D01*
X148780858Y-72687872D01*
X148910320Y-72375323D01*
X148910320Y-72342001D01*
X149521102Y-72342001D01*
X149525086Y-72351620D01*
G36*
X123743181Y-71626768D02*
X123731983Y-71570473D01*
X123426026Y-71112575D01*
X123018986Y-70840600D01*
X123426026Y-70568625D01*
X123731983Y-70110727D01*
X123743181Y-70054431D01*
X123743181Y-71626768D01*
X123743181Y-71626768D01*
G37*
X123743181Y-71626768D02*
X123731983Y-71570473D01*
X123426026Y-71112575D01*
X123018986Y-70840600D01*
X123426026Y-70568625D01*
X123731983Y-70110727D01*
X123743181Y-70054431D01*
X123743181Y-71626768D01*
G36*
X149116447Y-68504847D02*
X149116450Y-68504849D01*
X149404421Y-68792820D01*
X134777322Y-68792820D01*
X133838731Y-67854230D01*
X133796329Y-67790771D01*
X133544937Y-67622796D01*
X133323252Y-67578700D01*
X133323247Y-67578700D01*
X133248400Y-67563812D01*
X133212252Y-67571002D01*
X133314692Y-67056000D01*
X133199439Y-66476582D01*
X133035373Y-66231040D01*
X146842641Y-66231040D01*
X149116447Y-68504847D01*
X149116447Y-68504847D01*
G37*
X149116447Y-68504847D02*
X149116450Y-68504849D01*
X149404421Y-68792820D01*
X134777322Y-68792820D01*
X133838731Y-67854230D01*
X133796329Y-67790771D01*
X133544937Y-67622796D01*
X133323252Y-67578700D01*
X133323247Y-67578700D01*
X133248400Y-67563812D01*
X133212252Y-67571002D01*
X133314692Y-67056000D01*
X133199439Y-66476582D01*
X133035373Y-66231040D01*
X146842641Y-66231040D01*
X149116447Y-68504847D01*
G36*
X128189975Y-68126625D02*
X128488361Y-68326000D01*
X128189975Y-68525375D01*
X128177784Y-68543619D01*
X128168757Y-68498235D01*
X128028409Y-68288191D01*
X127818365Y-68147843D01*
X127772981Y-68138816D01*
X127791225Y-68126625D01*
X127990600Y-67828239D01*
X128189975Y-68126625D01*
X128189975Y-68126625D01*
G37*
X128189975Y-68126625D02*
X128488361Y-68326000D01*
X128189975Y-68525375D01*
X128177784Y-68543619D01*
X128168757Y-68498235D01*
X128028409Y-68288191D01*
X127818365Y-68147843D01*
X127772981Y-68138816D01*
X127791225Y-68126625D01*
X127990600Y-67828239D01*
X128189975Y-68126625D01*
M02*
