G04 #@! TF.GenerationSoftware,KiCad,Pcbnew,5.0.0*
G04 #@! TF.CreationDate,2018-12-09T11:56:36+00:00*
G04 #@! TF.ProjectId,cw308_fe310,63773330385F66653331302E6B696361,rev?*
G04 #@! TF.SameCoordinates,Original*
G04 #@! TF.FileFunction,Legend,Top*
G04 #@! TF.FilePolarity,Positive*
%FSLAX46Y46*%
G04 Gerber Fmt 4.6, Leading zero omitted, Abs format (unit mm)*
G04 Created by KiCad (PCBNEW 5.0.0) date Sun Dec  9 11:56:36 2018*
%MOMM*%
%LPD*%
G01*
G04 APERTURE LIST*
%ADD10C,0.200000*%
%ADD11C,0.250000*%
%ADD12C,0.150000*%
%ADD13C,0.127000*%
%ADD14C,0.100000*%
%ADD15C,0.120000*%
G04 APERTURE END LIST*
D10*
X124678571Y-115952380D02*
X124345238Y-115476190D01*
X124107142Y-115952380D02*
X124107142Y-114952380D01*
X124488095Y-114952380D01*
X124583333Y-115000000D01*
X124630952Y-115047619D01*
X124678571Y-115142857D01*
X124678571Y-115285714D01*
X124630952Y-115380952D01*
X124583333Y-115428571D01*
X124488095Y-115476190D01*
X124107142Y-115476190D01*
X125488095Y-115904761D02*
X125392857Y-115952380D01*
X125202380Y-115952380D01*
X125107142Y-115904761D01*
X125059523Y-115809523D01*
X125059523Y-115428571D01*
X125107142Y-115333333D01*
X125202380Y-115285714D01*
X125392857Y-115285714D01*
X125488095Y-115333333D01*
X125535714Y-115428571D01*
X125535714Y-115523809D01*
X125059523Y-115619047D01*
X125869047Y-115285714D02*
X126107142Y-115952380D01*
X126345238Y-115285714D01*
X127678571Y-114952380D02*
X127773809Y-114952380D01*
X127869047Y-115000000D01*
X127916666Y-115047619D01*
X127964285Y-115142857D01*
X128011904Y-115333333D01*
X128011904Y-115571428D01*
X127964285Y-115761904D01*
X127916666Y-115857142D01*
X127869047Y-115904761D01*
X127773809Y-115952380D01*
X127678571Y-115952380D01*
X127583333Y-115904761D01*
X127535714Y-115857142D01*
X127488095Y-115761904D01*
X127440476Y-115571428D01*
X127440476Y-115333333D01*
X127488095Y-115142857D01*
X127535714Y-115047619D01*
X127583333Y-115000000D01*
X127678571Y-114952380D01*
X128440476Y-115857142D02*
X128488095Y-115904761D01*
X128440476Y-115952380D01*
X128392857Y-115904761D01*
X128440476Y-115857142D01*
X128440476Y-115952380D01*
X129440476Y-115952380D02*
X128869047Y-115952380D01*
X129154761Y-115952380D02*
X129154761Y-114952380D01*
X129059523Y-115095238D01*
X128964285Y-115190476D01*
X128869047Y-115238095D01*
X124171428Y-117657142D02*
X124171428Y-116757142D01*
X124557142Y-117657142D02*
X124557142Y-117185714D01*
X124514285Y-117100000D01*
X124428571Y-117057142D01*
X124300000Y-117057142D01*
X124214285Y-117100000D01*
X124171428Y-117142857D01*
X124857142Y-117057142D02*
X125200000Y-117057142D01*
X124985714Y-116757142D02*
X124985714Y-117528571D01*
X125028571Y-117614285D01*
X125114285Y-117657142D01*
X125200000Y-117657142D01*
X125371428Y-117057142D02*
X125714285Y-117057142D01*
X125500000Y-116757142D02*
X125500000Y-117528571D01*
X125542857Y-117614285D01*
X125628571Y-117657142D01*
X125714285Y-117657142D01*
X126014285Y-117057142D02*
X126014285Y-117957142D01*
X126014285Y-117100000D02*
X126100000Y-117057142D01*
X126271428Y-117057142D01*
X126357142Y-117100000D01*
X126400000Y-117142857D01*
X126442857Y-117228571D01*
X126442857Y-117485714D01*
X126400000Y-117571428D01*
X126357142Y-117614285D01*
X126271428Y-117657142D01*
X126100000Y-117657142D01*
X126014285Y-117614285D01*
X126785714Y-117614285D02*
X126871428Y-117657142D01*
X127042857Y-117657142D01*
X127128571Y-117614285D01*
X127171428Y-117528571D01*
X127171428Y-117485714D01*
X127128571Y-117400000D01*
X127042857Y-117357142D01*
X126914285Y-117357142D01*
X126828571Y-117314285D01*
X126785714Y-117228571D01*
X126785714Y-117185714D01*
X126828571Y-117100000D01*
X126914285Y-117057142D01*
X127042857Y-117057142D01*
X127128571Y-117100000D01*
X127557142Y-117571428D02*
X127600000Y-117614285D01*
X127557142Y-117657142D01*
X127514285Y-117614285D01*
X127557142Y-117571428D01*
X127557142Y-117657142D01*
X127557142Y-117100000D02*
X127600000Y-117142857D01*
X127557142Y-117185714D01*
X127514285Y-117142857D01*
X127557142Y-117100000D01*
X127557142Y-117185714D01*
X128628571Y-116714285D02*
X127857142Y-117871428D01*
X129571428Y-116714285D02*
X128800000Y-117871428D01*
X130257142Y-117657142D02*
X130257142Y-117185714D01*
X130214285Y-117100000D01*
X130128571Y-117057142D01*
X129957142Y-117057142D01*
X129871428Y-117100000D01*
X130257142Y-117614285D02*
X130171428Y-117657142D01*
X129957142Y-117657142D01*
X129871428Y-117614285D01*
X129828571Y-117528571D01*
X129828571Y-117442857D01*
X129871428Y-117357142D01*
X129957142Y-117314285D01*
X130171428Y-117314285D01*
X130257142Y-117271428D01*
X131071428Y-117657142D02*
X131071428Y-116757142D01*
X131071428Y-117614285D02*
X130985714Y-117657142D01*
X130814285Y-117657142D01*
X130728571Y-117614285D01*
X130685714Y-117571428D01*
X130642857Y-117485714D01*
X130642857Y-117228571D01*
X130685714Y-117142857D01*
X130728571Y-117100000D01*
X130814285Y-117057142D01*
X130985714Y-117057142D01*
X131071428Y-117100000D01*
X131885714Y-117657142D02*
X131885714Y-117185714D01*
X131842857Y-117100000D01*
X131757142Y-117057142D01*
X131585714Y-117057142D01*
X131500000Y-117100000D01*
X131885714Y-117614285D02*
X131800000Y-117657142D01*
X131585714Y-117657142D01*
X131500000Y-117614285D01*
X131457142Y-117528571D01*
X131457142Y-117442857D01*
X131500000Y-117357142D01*
X131585714Y-117314285D01*
X131800000Y-117314285D01*
X131885714Y-117271428D01*
X132314285Y-117657142D02*
X132314285Y-117057142D01*
X132314285Y-117142857D02*
X132357142Y-117100000D01*
X132442857Y-117057142D01*
X132571428Y-117057142D01*
X132657142Y-117100000D01*
X132700000Y-117185714D01*
X132700000Y-117657142D01*
X132700000Y-117185714D02*
X132742857Y-117100000D01*
X132828571Y-117057142D01*
X132957142Y-117057142D01*
X133042857Y-117100000D01*
X133085714Y-117185714D01*
X133085714Y-117657142D01*
X133428571Y-117057142D02*
X133600000Y-117657142D01*
X133771428Y-117228571D01*
X133942857Y-117657142D01*
X134114285Y-117057142D01*
X134414285Y-117614285D02*
X134500000Y-117657142D01*
X134671428Y-117657142D01*
X134757142Y-117614285D01*
X134800000Y-117528571D01*
X134800000Y-117485714D01*
X134757142Y-117400000D01*
X134671428Y-117357142D01*
X134542857Y-117357142D01*
X134457142Y-117314285D01*
X134414285Y-117228571D01*
X134414285Y-117185714D01*
X134457142Y-117100000D01*
X134542857Y-117057142D01*
X134671428Y-117057142D01*
X134757142Y-117100000D01*
X135185714Y-117571428D02*
X135228571Y-117614285D01*
X135185714Y-117657142D01*
X135142857Y-117614285D01*
X135185714Y-117571428D01*
X135185714Y-117657142D01*
X135528571Y-117657142D02*
X136000000Y-117057142D01*
X135528571Y-117057142D02*
X136000000Y-117657142D01*
X136257142Y-117057142D02*
X136471428Y-117657142D01*
X136685714Y-117057142D02*
X136471428Y-117657142D01*
X136385714Y-117871428D01*
X136342857Y-117914285D01*
X136257142Y-117957142D01*
X136942857Y-117057142D02*
X137414285Y-117057142D01*
X136942857Y-117657142D01*
X137414285Y-117657142D01*
X139023809Y-59228571D02*
X138690476Y-59228571D01*
X138690476Y-59752380D02*
X138690476Y-58752380D01*
X139166666Y-58752380D01*
X139547619Y-59228571D02*
X139880952Y-59228571D01*
X140023809Y-59752380D02*
X139547619Y-59752380D01*
X139547619Y-58752380D01*
X140023809Y-58752380D01*
X140357142Y-58752380D02*
X140976190Y-58752380D01*
X140642857Y-59133333D01*
X140785714Y-59133333D01*
X140880952Y-59180952D01*
X140928571Y-59228571D01*
X140976190Y-59323809D01*
X140976190Y-59561904D01*
X140928571Y-59657142D01*
X140880952Y-59704761D01*
X140785714Y-59752380D01*
X140500000Y-59752380D01*
X140404761Y-59704761D01*
X140357142Y-59657142D01*
X141928571Y-59752380D02*
X141357142Y-59752380D01*
X141642857Y-59752380D02*
X141642857Y-58752380D01*
X141547619Y-58895238D01*
X141452380Y-58990476D01*
X141357142Y-59038095D01*
X142547619Y-58752380D02*
X142642857Y-58752380D01*
X142738095Y-58800000D01*
X142785714Y-58847619D01*
X142833333Y-58942857D01*
X142880952Y-59133333D01*
X142880952Y-59371428D01*
X142833333Y-59561904D01*
X142785714Y-59657142D01*
X142738095Y-59704761D01*
X142642857Y-59752380D01*
X142547619Y-59752380D01*
X142452380Y-59704761D01*
X142404761Y-59657142D01*
X142357142Y-59561904D01*
X142309523Y-59371428D01*
X142309523Y-59133333D01*
X142357142Y-58942857D01*
X142404761Y-58847619D01*
X142452380Y-58800000D01*
X142547619Y-58752380D01*
X143928571Y-58752380D02*
X144500000Y-58752380D01*
X144214285Y-59752380D02*
X144214285Y-58752380D01*
X145261904Y-59752380D02*
X145261904Y-59228571D01*
X145214285Y-59133333D01*
X145119047Y-59085714D01*
X144928571Y-59085714D01*
X144833333Y-59133333D01*
X145261904Y-59704761D02*
X145166666Y-59752380D01*
X144928571Y-59752380D01*
X144833333Y-59704761D01*
X144785714Y-59609523D01*
X144785714Y-59514285D01*
X144833333Y-59419047D01*
X144928571Y-59371428D01*
X145166666Y-59371428D01*
X145261904Y-59323809D01*
X145738095Y-59752380D02*
X145738095Y-59085714D01*
X145738095Y-59276190D02*
X145785714Y-59180952D01*
X145833333Y-59133333D01*
X145928571Y-59085714D01*
X146023809Y-59085714D01*
X146785714Y-59085714D02*
X146785714Y-59895238D01*
X146738095Y-59990476D01*
X146690476Y-60038095D01*
X146595238Y-60085714D01*
X146452380Y-60085714D01*
X146357142Y-60038095D01*
X146785714Y-59704761D02*
X146690476Y-59752380D01*
X146500000Y-59752380D01*
X146404761Y-59704761D01*
X146357142Y-59657142D01*
X146309523Y-59561904D01*
X146309523Y-59276190D01*
X146357142Y-59180952D01*
X146404761Y-59133333D01*
X146500000Y-59085714D01*
X146690476Y-59085714D01*
X146785714Y-59133333D01*
X147642857Y-59704761D02*
X147547619Y-59752380D01*
X147357142Y-59752380D01*
X147261904Y-59704761D01*
X147214285Y-59609523D01*
X147214285Y-59228571D01*
X147261904Y-59133333D01*
X147357142Y-59085714D01*
X147547619Y-59085714D01*
X147642857Y-59133333D01*
X147690476Y-59228571D01*
X147690476Y-59323809D01*
X147214285Y-59419047D01*
X147976190Y-59085714D02*
X148357142Y-59085714D01*
X148119047Y-58752380D02*
X148119047Y-59609523D01*
X148166666Y-59704761D01*
X148261904Y-59752380D01*
X148357142Y-59752380D01*
X149785714Y-59228571D02*
X149928571Y-59276190D01*
X149976190Y-59323809D01*
X150023809Y-59419047D01*
X150023809Y-59561904D01*
X149976190Y-59657142D01*
X149928571Y-59704761D01*
X149833333Y-59752380D01*
X149452380Y-59752380D01*
X149452380Y-58752380D01*
X149785714Y-58752380D01*
X149880952Y-58800000D01*
X149928571Y-58847619D01*
X149976190Y-58942857D01*
X149976190Y-59038095D01*
X149928571Y-59133333D01*
X149880952Y-59180952D01*
X149785714Y-59228571D01*
X149452380Y-59228571D01*
X150595238Y-59752380D02*
X150500000Y-59704761D01*
X150452380Y-59657142D01*
X150404761Y-59561904D01*
X150404761Y-59276190D01*
X150452380Y-59180952D01*
X150500000Y-59133333D01*
X150595238Y-59085714D01*
X150738095Y-59085714D01*
X150833333Y-59133333D01*
X150880952Y-59180952D01*
X150928571Y-59276190D01*
X150928571Y-59561904D01*
X150880952Y-59657142D01*
X150833333Y-59704761D01*
X150738095Y-59752380D01*
X150595238Y-59752380D01*
X151785714Y-59752380D02*
X151785714Y-59228571D01*
X151738095Y-59133333D01*
X151642857Y-59085714D01*
X151452380Y-59085714D01*
X151357142Y-59133333D01*
X151785714Y-59704761D02*
X151690476Y-59752380D01*
X151452380Y-59752380D01*
X151357142Y-59704761D01*
X151309523Y-59609523D01*
X151309523Y-59514285D01*
X151357142Y-59419047D01*
X151452380Y-59371428D01*
X151690476Y-59371428D01*
X151785714Y-59323809D01*
X152261904Y-59752380D02*
X152261904Y-59085714D01*
X152261904Y-59276190D02*
X152309523Y-59180952D01*
X152357142Y-59133333D01*
X152452380Y-59085714D01*
X152547619Y-59085714D01*
X153309523Y-59752380D02*
X153309523Y-58752380D01*
X153309523Y-59704761D02*
X153214285Y-59752380D01*
X153023809Y-59752380D01*
X152928571Y-59704761D01*
X152880952Y-59657142D01*
X152833333Y-59561904D01*
X152833333Y-59276190D01*
X152880952Y-59180952D01*
X152928571Y-59133333D01*
X153023809Y-59085714D01*
X153214285Y-59085714D01*
X153309523Y-59133333D01*
X139761904Y-60928571D02*
X139428571Y-60928571D01*
X139428571Y-61452380D02*
X139428571Y-60452380D01*
X139904761Y-60452380D01*
X140428571Y-61452380D02*
X140333333Y-61404761D01*
X140285714Y-61357142D01*
X140238095Y-61261904D01*
X140238095Y-60976190D01*
X140285714Y-60880952D01*
X140333333Y-60833333D01*
X140428571Y-60785714D01*
X140571428Y-60785714D01*
X140666666Y-60833333D01*
X140714285Y-60880952D01*
X140761904Y-60976190D01*
X140761904Y-61261904D01*
X140714285Y-61357142D01*
X140666666Y-61404761D01*
X140571428Y-61452380D01*
X140428571Y-61452380D01*
X141190476Y-61452380D02*
X141190476Y-60785714D01*
X141190476Y-60976190D02*
X141238095Y-60880952D01*
X141285714Y-60833333D01*
X141380952Y-60785714D01*
X141476190Y-60785714D01*
X143142857Y-61357142D02*
X143095238Y-61404761D01*
X142952380Y-61452380D01*
X142857142Y-61452380D01*
X142714285Y-61404761D01*
X142619047Y-61309523D01*
X142571428Y-61214285D01*
X142523809Y-61023809D01*
X142523809Y-60880952D01*
X142571428Y-60690476D01*
X142619047Y-60595238D01*
X142714285Y-60500000D01*
X142857142Y-60452380D01*
X142952380Y-60452380D01*
X143095238Y-60500000D01*
X143142857Y-60547619D01*
X143571428Y-61452380D02*
X143571428Y-60452380D01*
X144000000Y-61452380D02*
X144000000Y-60928571D01*
X143952380Y-60833333D01*
X143857142Y-60785714D01*
X143714285Y-60785714D01*
X143619047Y-60833333D01*
X143571428Y-60880952D01*
X144476190Y-61452380D02*
X144476190Y-60785714D01*
X144476190Y-60452380D02*
X144428571Y-60500000D01*
X144476190Y-60547619D01*
X144523809Y-60500000D01*
X144476190Y-60452380D01*
X144476190Y-60547619D01*
X144952380Y-60785714D02*
X144952380Y-61785714D01*
X144952380Y-60833333D02*
X145047619Y-60785714D01*
X145238095Y-60785714D01*
X145333333Y-60833333D01*
X145380952Y-60880952D01*
X145428571Y-60976190D01*
X145428571Y-61261904D01*
X145380952Y-61357142D01*
X145333333Y-61404761D01*
X145238095Y-61452380D01*
X145047619Y-61452380D01*
X144952380Y-61404761D01*
X145761904Y-60452380D02*
X146000000Y-61452380D01*
X146190476Y-60738095D01*
X146380952Y-61452380D01*
X146619047Y-60452380D01*
X147000000Y-61452380D02*
X147000000Y-60452380D01*
X147428571Y-61452380D02*
X147428571Y-60928571D01*
X147380952Y-60833333D01*
X147285714Y-60785714D01*
X147142857Y-60785714D01*
X147047619Y-60833333D01*
X147000000Y-60880952D01*
X147904761Y-61452380D02*
X147904761Y-60785714D01*
X147904761Y-60452380D02*
X147857142Y-60500000D01*
X147904761Y-60547619D01*
X147952380Y-60500000D01*
X147904761Y-60452380D01*
X147904761Y-60547619D01*
X148333333Y-61404761D02*
X148428571Y-61452380D01*
X148619047Y-61452380D01*
X148714285Y-61404761D01*
X148761904Y-61309523D01*
X148761904Y-61261904D01*
X148714285Y-61166666D01*
X148619047Y-61119047D01*
X148476190Y-61119047D01*
X148380952Y-61071428D01*
X148333333Y-60976190D01*
X148333333Y-60928571D01*
X148380952Y-60833333D01*
X148476190Y-60785714D01*
X148619047Y-60785714D01*
X148714285Y-60833333D01*
X149190476Y-60785714D02*
X149190476Y-61785714D01*
X149190476Y-60833333D02*
X149285714Y-60785714D01*
X149476190Y-60785714D01*
X149571428Y-60833333D01*
X149619047Y-60880952D01*
X149666666Y-60976190D01*
X149666666Y-61261904D01*
X149619047Y-61357142D01*
X149571428Y-61404761D01*
X149476190Y-61452380D01*
X149285714Y-61452380D01*
X149190476Y-61404761D01*
X150476190Y-61404761D02*
X150380952Y-61452380D01*
X150190476Y-61452380D01*
X150095238Y-61404761D01*
X150047619Y-61309523D01*
X150047619Y-60928571D01*
X150095238Y-60833333D01*
X150190476Y-60785714D01*
X150380952Y-60785714D01*
X150476190Y-60833333D01*
X150523809Y-60928571D01*
X150523809Y-61023809D01*
X150047619Y-61119047D01*
X150952380Y-61452380D02*
X150952380Y-60785714D01*
X150952380Y-60976190D02*
X151000000Y-60880952D01*
X151047619Y-60833333D01*
X151142857Y-60785714D01*
X151238095Y-60785714D01*
X151952380Y-61404761D02*
X151857142Y-61452380D01*
X151666666Y-61452380D01*
X151571428Y-61404761D01*
X151523809Y-61309523D01*
X151523809Y-60928571D01*
X151571428Y-60833333D01*
X151666666Y-60785714D01*
X151857142Y-60785714D01*
X151952380Y-60833333D01*
X152000000Y-60928571D01*
X152000000Y-61023809D01*
X151523809Y-61119047D01*
X152428571Y-61452380D02*
X152428571Y-60785714D01*
X152428571Y-60976190D02*
X152476190Y-60880952D01*
X152523809Y-60833333D01*
X152619047Y-60785714D01*
X152714285Y-60785714D01*
X139904761Y-63057142D02*
X139857142Y-63104761D01*
X139714285Y-63152380D01*
X139619047Y-63152380D01*
X139476190Y-63104761D01*
X139380952Y-63009523D01*
X139333333Y-62914285D01*
X139285714Y-62723809D01*
X139285714Y-62580952D01*
X139333333Y-62390476D01*
X139380952Y-62295238D01*
X139476190Y-62200000D01*
X139619047Y-62152380D01*
X139714285Y-62152380D01*
X139857142Y-62200000D01*
X139904761Y-62247619D01*
X140238095Y-62152380D02*
X140476190Y-63152380D01*
X140666666Y-62438095D01*
X140857142Y-63152380D01*
X141095238Y-62152380D01*
X141380952Y-62152380D02*
X142000000Y-62152380D01*
X141666666Y-62533333D01*
X141809523Y-62533333D01*
X141904761Y-62580952D01*
X141952380Y-62628571D01*
X142000000Y-62723809D01*
X142000000Y-62961904D01*
X141952380Y-63057142D01*
X141904761Y-63104761D01*
X141809523Y-63152380D01*
X141523809Y-63152380D01*
X141428571Y-63104761D01*
X141380952Y-63057142D01*
X142619047Y-62152380D02*
X142714285Y-62152380D01*
X142809523Y-62200000D01*
X142857142Y-62247619D01*
X142904761Y-62342857D01*
X142952380Y-62533333D01*
X142952380Y-62771428D01*
X142904761Y-62961904D01*
X142857142Y-63057142D01*
X142809523Y-63104761D01*
X142714285Y-63152380D01*
X142619047Y-63152380D01*
X142523809Y-63104761D01*
X142476190Y-63057142D01*
X142428571Y-62961904D01*
X142380952Y-62771428D01*
X142380952Y-62533333D01*
X142428571Y-62342857D01*
X142476190Y-62247619D01*
X142523809Y-62200000D01*
X142619047Y-62152380D01*
X143523809Y-62580952D02*
X143428571Y-62533333D01*
X143380952Y-62485714D01*
X143333333Y-62390476D01*
X143333333Y-62342857D01*
X143380952Y-62247619D01*
X143428571Y-62200000D01*
X143523809Y-62152380D01*
X143714285Y-62152380D01*
X143809523Y-62200000D01*
X143857142Y-62247619D01*
X143904761Y-62342857D01*
X143904761Y-62390476D01*
X143857142Y-62485714D01*
X143809523Y-62533333D01*
X143714285Y-62580952D01*
X143523809Y-62580952D01*
X143428571Y-62628571D01*
X143380952Y-62676190D01*
X143333333Y-62771428D01*
X143333333Y-62961904D01*
X143380952Y-63057142D01*
X143428571Y-63104761D01*
X143523809Y-63152380D01*
X143714285Y-63152380D01*
X143809523Y-63104761D01*
X143857142Y-63057142D01*
X143904761Y-62961904D01*
X143904761Y-62771428D01*
X143857142Y-62676190D01*
X143809523Y-62628571D01*
X143714285Y-62580952D01*
X145095238Y-62152380D02*
X145095238Y-62961904D01*
X145142857Y-63057142D01*
X145190476Y-63104761D01*
X145285714Y-63152380D01*
X145476190Y-63152380D01*
X145571428Y-63104761D01*
X145619047Y-63057142D01*
X145666666Y-62961904D01*
X145666666Y-62152380D01*
X146476190Y-62628571D02*
X146142857Y-62628571D01*
X146142857Y-63152380D02*
X146142857Y-62152380D01*
X146619047Y-62152380D01*
X147190476Y-62152380D02*
X147380952Y-62152380D01*
X147476190Y-62200000D01*
X147571428Y-62295238D01*
X147619047Y-62485714D01*
X147619047Y-62819047D01*
X147571428Y-63009523D01*
X147476190Y-63104761D01*
X147380952Y-63152380D01*
X147190476Y-63152380D01*
X147095238Y-63104761D01*
X147000000Y-63009523D01*
X146952380Y-62819047D01*
X146952380Y-62485714D01*
X147000000Y-62295238D01*
X147095238Y-62200000D01*
X147190476Y-62152380D01*
X149142857Y-62628571D02*
X149285714Y-62676190D01*
X149333333Y-62723809D01*
X149380952Y-62819047D01*
X149380952Y-62961904D01*
X149333333Y-63057142D01*
X149285714Y-63104761D01*
X149190476Y-63152380D01*
X148809523Y-63152380D01*
X148809523Y-62152380D01*
X149142857Y-62152380D01*
X149238095Y-62200000D01*
X149285714Y-62247619D01*
X149333333Y-62342857D01*
X149333333Y-62438095D01*
X149285714Y-62533333D01*
X149238095Y-62580952D01*
X149142857Y-62628571D01*
X148809523Y-62628571D01*
X149952380Y-63152380D02*
X149857142Y-63104761D01*
X149809523Y-63057142D01*
X149761904Y-62961904D01*
X149761904Y-62676190D01*
X149809523Y-62580952D01*
X149857142Y-62533333D01*
X149952380Y-62485714D01*
X150095238Y-62485714D01*
X150190476Y-62533333D01*
X150238095Y-62580952D01*
X150285714Y-62676190D01*
X150285714Y-62961904D01*
X150238095Y-63057142D01*
X150190476Y-63104761D01*
X150095238Y-63152380D01*
X149952380Y-63152380D01*
X151142857Y-63152380D02*
X151142857Y-62628571D01*
X151095238Y-62533333D01*
X151000000Y-62485714D01*
X150809523Y-62485714D01*
X150714285Y-62533333D01*
X151142857Y-63104761D02*
X151047619Y-63152380D01*
X150809523Y-63152380D01*
X150714285Y-63104761D01*
X150666666Y-63009523D01*
X150666666Y-62914285D01*
X150714285Y-62819047D01*
X150809523Y-62771428D01*
X151047619Y-62771428D01*
X151142857Y-62723809D01*
X151619047Y-63152380D02*
X151619047Y-62485714D01*
X151619047Y-62676190D02*
X151666666Y-62580952D01*
X151714285Y-62533333D01*
X151809523Y-62485714D01*
X151904761Y-62485714D01*
X152666666Y-63152380D02*
X152666666Y-62152380D01*
X152666666Y-63104761D02*
X152571428Y-63152380D01*
X152380952Y-63152380D01*
X152285714Y-63104761D01*
X152238095Y-63057142D01*
X152190476Y-62961904D01*
X152190476Y-62676190D01*
X152238095Y-62580952D01*
X152285714Y-62533333D01*
X152380952Y-62485714D01*
X152571428Y-62485714D01*
X152666666Y-62533333D01*
D11*
X164886904Y-99627380D02*
X165505952Y-99627380D01*
X165172619Y-100008333D01*
X165315476Y-100008333D01*
X165410714Y-100055952D01*
X165458333Y-100103571D01*
X165505952Y-100198809D01*
X165505952Y-100436904D01*
X165458333Y-100532142D01*
X165410714Y-100579761D01*
X165315476Y-100627380D01*
X165029761Y-100627380D01*
X164934523Y-100579761D01*
X164886904Y-100532142D01*
X165791666Y-99627380D02*
X166125000Y-100627380D01*
X166458333Y-99627380D01*
X166696428Y-99627380D02*
X167315476Y-99627380D01*
X166982142Y-100008333D01*
X167125000Y-100008333D01*
X167220238Y-100055952D01*
X167267857Y-100103571D01*
X167315476Y-100198809D01*
X167315476Y-100436904D01*
X167267857Y-100532142D01*
X167220238Y-100579761D01*
X167125000Y-100627380D01*
X166839285Y-100627380D01*
X166744047Y-100579761D01*
X166696428Y-100532142D01*
D10*
X165530952Y-95502380D02*
X164959523Y-95502380D01*
X165245238Y-95502380D02*
X165245238Y-94502380D01*
X165150000Y-94645238D01*
X165054761Y-94740476D01*
X164959523Y-94788095D01*
X165816666Y-94502380D02*
X166150000Y-95502380D01*
X166483333Y-94502380D01*
X166959523Y-94930952D02*
X166864285Y-94883333D01*
X166816666Y-94835714D01*
X166769047Y-94740476D01*
X166769047Y-94692857D01*
X166816666Y-94597619D01*
X166864285Y-94550000D01*
X166959523Y-94502380D01*
X167150000Y-94502380D01*
X167245238Y-94550000D01*
X167292857Y-94597619D01*
X167340476Y-94692857D01*
X167340476Y-94740476D01*
X167292857Y-94835714D01*
X167245238Y-94883333D01*
X167150000Y-94930952D01*
X166959523Y-94930952D01*
X166864285Y-94978571D01*
X166816666Y-95026190D01*
X166769047Y-95121428D01*
X166769047Y-95311904D01*
X166816666Y-95407142D01*
X166864285Y-95454761D01*
X166959523Y-95502380D01*
X167150000Y-95502380D01*
X167245238Y-95454761D01*
X167292857Y-95407142D01*
X167340476Y-95311904D01*
X167340476Y-95121428D01*
X167292857Y-95026190D01*
X167245238Y-94978571D01*
X167150000Y-94930952D01*
X156636904Y-66529761D02*
X156779761Y-66577380D01*
X157017857Y-66577380D01*
X157113095Y-66529761D01*
X157160714Y-66482142D01*
X157208333Y-66386904D01*
X157208333Y-66291666D01*
X157160714Y-66196428D01*
X157113095Y-66148809D01*
X157017857Y-66101190D01*
X156827380Y-66053571D01*
X156732142Y-66005952D01*
X156684523Y-65958333D01*
X156636904Y-65863095D01*
X156636904Y-65767857D01*
X156684523Y-65672619D01*
X156732142Y-65625000D01*
X156827380Y-65577380D01*
X157065476Y-65577380D01*
X157208333Y-65625000D01*
X157636904Y-66577380D02*
X157636904Y-65577380D01*
X157636904Y-66053571D02*
X158208333Y-66053571D01*
X158208333Y-66577380D02*
X158208333Y-65577380D01*
X158684523Y-65577380D02*
X158684523Y-66386904D01*
X158732142Y-66482142D01*
X158779761Y-66529761D01*
X158875000Y-66577380D01*
X159065476Y-66577380D01*
X159160714Y-66529761D01*
X159208333Y-66482142D01*
X159255952Y-66386904D01*
X159255952Y-65577380D01*
X159732142Y-66577380D02*
X159732142Y-65577380D01*
X160303571Y-66577380D01*
X160303571Y-65577380D01*
X160636904Y-65577380D02*
X161208333Y-65577380D01*
X160922619Y-66577380D02*
X160922619Y-65577380D01*
D12*
G36*
X160200000Y-69750000D02*
X159375000Y-67050000D01*
X159175000Y-67775000D01*
X158775000Y-67600000D01*
X158800000Y-67675000D01*
X160200000Y-69750000D01*
G37*
X160200000Y-69750000D02*
X159375000Y-67050000D01*
X159175000Y-67775000D01*
X158775000Y-67600000D01*
X158800000Y-67675000D01*
X160200000Y-69750000D01*
D10*
X125904761Y-75707142D02*
X125857142Y-75754761D01*
X125714285Y-75802380D01*
X125619047Y-75802380D01*
X125476190Y-75754761D01*
X125380952Y-75659523D01*
X125333333Y-75564285D01*
X125285714Y-75373809D01*
X125285714Y-75230952D01*
X125333333Y-75040476D01*
X125380952Y-74945238D01*
X125476190Y-74850000D01*
X125619047Y-74802380D01*
X125714285Y-74802380D01*
X125857142Y-74850000D01*
X125904761Y-74897619D01*
X126809523Y-75802380D02*
X126333333Y-75802380D01*
X126333333Y-74802380D01*
X127142857Y-75802380D02*
X127142857Y-74802380D01*
X127714285Y-75802380D02*
X127285714Y-75230952D01*
X127714285Y-74802380D02*
X127142857Y-75373809D01*
D12*
G36*
X123725000Y-72875000D02*
X125025000Y-75000000D01*
X125100000Y-74475000D01*
X125500000Y-74450000D01*
X125575000Y-74475000D01*
X123725000Y-72875000D01*
G37*
X123725000Y-72875000D02*
X125025000Y-75000000D01*
X125100000Y-74475000D01*
X125500000Y-74450000D01*
X125575000Y-74475000D01*
X123725000Y-72875000D01*
D10*
X131591666Y-69452380D02*
X132258333Y-70452380D01*
X132258333Y-69452380D02*
X131591666Y-70452380D01*
X130714285Y-69452380D02*
X131285714Y-69452380D01*
X131000000Y-70452380D02*
X131000000Y-69452380D01*
X131591666Y-66952380D02*
X132258333Y-67952380D01*
X132258333Y-66952380D02*
X131591666Y-67952380D01*
X131309523Y-67952380D02*
X130976190Y-67476190D01*
X130738095Y-67952380D02*
X130738095Y-66952380D01*
X131119047Y-66952380D01*
X131214285Y-67000000D01*
X131261904Y-67047619D01*
X131309523Y-67142857D01*
X131309523Y-67285714D01*
X131261904Y-67380952D01*
X131214285Y-67428571D01*
X131119047Y-67476190D01*
X130738095Y-67476190D01*
D13*
G04 #@! TO.C,J1*
X119773701Y-65760600D02*
X123583701Y-65760600D01*
X123583701Y-65760600D02*
X123583701Y-68300600D01*
X123583701Y-68300600D02*
X123583701Y-118465600D01*
X123583701Y-118465600D02*
X168033701Y-118465600D01*
X168033701Y-118465600D02*
X168033701Y-68300600D01*
X168033701Y-68300600D02*
X168033701Y-65760600D01*
X168033701Y-65760600D02*
X171843701Y-65760600D01*
X171843701Y-65760600D02*
X171843701Y-68300600D01*
X171843701Y-68300600D02*
X171843701Y-122275600D01*
X171843701Y-122275600D02*
X122948701Y-122275600D01*
X122948701Y-122275600D02*
X120408701Y-122275600D01*
X120408701Y-122275600D02*
X119773701Y-122275600D01*
X119773701Y-122275600D02*
X119773701Y-68300600D01*
X119773701Y-68300600D02*
X119773701Y-65760600D01*
X119773701Y-68300600D02*
X123583701Y-68300600D01*
X122948701Y-122275600D02*
X122948701Y-118465600D01*
X122948701Y-118465600D02*
X120408701Y-118465600D01*
X120408701Y-118465600D02*
X120408701Y-122275600D01*
X122948701Y-118465600D02*
X123583701Y-118465600D01*
X168033701Y-68300600D02*
X171843701Y-68300600D01*
D12*
G04 #@! TO.C,U1*
X132771780Y-82635540D02*
X132976780Y-82635540D01*
X132771780Y-77135540D02*
X133071780Y-77135540D01*
X138281780Y-77135540D02*
X137981780Y-77135540D01*
X138281780Y-82635540D02*
X137981780Y-82635540D01*
X132771780Y-82635540D02*
X132771780Y-77135540D01*
X138281780Y-82635540D02*
X138281780Y-77135540D01*
X132976780Y-82635540D02*
X132976780Y-84385540D01*
D14*
G04 #@! TO.C,U2*
X160074100Y-80087860D02*
X160074100Y-80412860D01*
X160074100Y-80412860D02*
X160374100Y-80412860D01*
X162074100Y-77437860D02*
X162074100Y-77112860D01*
X162074100Y-77112860D02*
X161774100Y-77112860D01*
X160074100Y-77412860D02*
X160074100Y-77112860D01*
X160074100Y-77112860D02*
X160399100Y-77112860D01*
X161749100Y-80412860D02*
X162074100Y-80187860D01*
X162074100Y-80187860D02*
X162074100Y-80087860D01*
X162074100Y-80087860D02*
X162599100Y-80087860D01*
X161749100Y-80412860D02*
X161374100Y-80412860D01*
G04 #@! TO.C,U3*
X161746560Y-84154280D02*
X161371560Y-84154280D01*
X162071560Y-83829280D02*
X162596560Y-83829280D01*
X162071560Y-83929280D02*
X162071560Y-83829280D01*
X161746560Y-84154280D02*
X162071560Y-83929280D01*
X160071560Y-80854280D02*
X160396560Y-80854280D01*
X160071560Y-81154280D02*
X160071560Y-80854280D01*
X162071560Y-80854280D02*
X161771560Y-80854280D01*
X162071560Y-81179280D02*
X162071560Y-80854280D01*
X160071560Y-84154280D02*
X160371560Y-84154280D01*
X160071560Y-83829280D02*
X160071560Y-84154280D01*
D15*
G04 #@! TO.C,U4*
X153918600Y-76732600D02*
X154483600Y-76732600D01*
X154483600Y-76732600D02*
X154483600Y-77297600D01*
X148798600Y-82982600D02*
X148233600Y-82982600D01*
X148233600Y-82982600D02*
X148233600Y-82417600D01*
X153918600Y-82982600D02*
X154483600Y-82982600D01*
X154483600Y-82982600D02*
X154483600Y-82417600D01*
X148233600Y-76732600D02*
X148798600Y-76732600D01*
G04 #@! TO.C,C1*
X131546060Y-76631581D02*
X131546060Y-76957139D01*
X130526060Y-76631581D02*
X130526060Y-76957139D01*
G04 #@! TO.C,C4*
X165102321Y-81952560D02*
X165427879Y-81952560D01*
X165102321Y-80932560D02*
X165427879Y-80932560D01*
G04 #@! TO.C,C5*
X163784820Y-85511421D02*
X163784820Y-85836979D01*
X164804820Y-85511421D02*
X164804820Y-85836979D01*
G04 #@! TO.C,C6*
X163679600Y-72349579D02*
X163679600Y-72024021D01*
X162659600Y-72349579D02*
X162659600Y-72024021D01*
G04 #@! TO.C,C7*
X156968920Y-84652901D02*
X156968920Y-84978459D01*
X155948920Y-84652901D02*
X155948920Y-84978459D01*
G04 #@! TO.C,C8*
X147352480Y-84628801D02*
X147352480Y-84954359D01*
X146332480Y-84628801D02*
X146332480Y-84954359D01*
G04 #@! TO.C,C9*
X155397740Y-78138239D02*
X155397740Y-77812681D01*
X156417740Y-78138239D02*
X156417740Y-77812681D01*
G04 #@! TO.C,C10*
X147662779Y-74741500D02*
X147337221Y-74741500D01*
X147662779Y-73721500D02*
X147337221Y-73721500D01*
G04 #@! TO.C,C11*
X154969940Y-85854759D02*
X154969940Y-85529201D01*
X153949940Y-85854759D02*
X153949940Y-85529201D01*
G04 #@! TO.C,C12*
X145813240Y-80776861D02*
X145813240Y-81102419D01*
X144793240Y-80776861D02*
X144793240Y-81102419D01*
G04 #@! TO.C,C13*
X143287020Y-80776861D02*
X143287020Y-81102419D01*
X144307020Y-80776861D02*
X144307020Y-81102419D01*
G04 #@! TO.C,J2*
X124170000Y-71370000D02*
X129370000Y-71370000D01*
X124170000Y-68770000D02*
X124170000Y-71370000D01*
X129370000Y-66170000D02*
X129370000Y-71370000D01*
X124170000Y-68770000D02*
X126770000Y-68770000D01*
X126770000Y-68770000D02*
X126770000Y-66170000D01*
X126770000Y-66170000D02*
X129370000Y-66170000D01*
X124170000Y-67500000D02*
X124170000Y-66170000D01*
X124170000Y-66170000D02*
X125500000Y-66170000D01*
G04 #@! TO.C,R1*
X161723800Y-70296821D02*
X161723800Y-70622379D01*
X160703800Y-70296821D02*
X160703800Y-70622379D01*
G04 #@! TO.C,R2*
X157490700Y-84970839D02*
X157490700Y-84645281D01*
X158510700Y-84970839D02*
X158510700Y-84645281D01*
G04 #@! TO.C,R3*
X151942581Y-85325680D02*
X152268139Y-85325680D01*
X151942581Y-84305680D02*
X152268139Y-84305680D01*
G04 #@! TO.C,R4*
X142798260Y-81110039D02*
X142798260Y-80784481D01*
X141778260Y-81110039D02*
X141778260Y-80784481D01*
G04 #@! TO.C,C1*
D12*
X131357142Y-79366666D02*
X131404761Y-79414285D01*
X131452380Y-79557142D01*
X131452380Y-79652380D01*
X131404761Y-79795238D01*
X131309523Y-79890476D01*
X131214285Y-79938095D01*
X131023809Y-79985714D01*
X130880952Y-79985714D01*
X130690476Y-79938095D01*
X130595238Y-79890476D01*
X130500000Y-79795238D01*
X130452380Y-79652380D01*
X130452380Y-79557142D01*
X130500000Y-79414285D01*
X130547619Y-79366666D01*
X131452380Y-78414285D02*
X131452380Y-78985714D01*
X131452380Y-78700000D02*
X130452380Y-78700000D01*
X130595238Y-78795238D01*
X130690476Y-78890476D01*
X130738095Y-78985714D01*
G04 #@! TO.C,C4*
X165098433Y-80369702D02*
X165050814Y-80417321D01*
X164907957Y-80464940D01*
X164812719Y-80464940D01*
X164669861Y-80417321D01*
X164574623Y-80322083D01*
X164527004Y-80226845D01*
X164479385Y-80036369D01*
X164479385Y-79893512D01*
X164527004Y-79703036D01*
X164574623Y-79607798D01*
X164669861Y-79512560D01*
X164812719Y-79464940D01*
X164907957Y-79464940D01*
X165050814Y-79512560D01*
X165098433Y-79560179D01*
X165955576Y-79798274D02*
X165955576Y-80464940D01*
X165717480Y-79417321D02*
X165479385Y-80131607D01*
X166098433Y-80131607D01*
G04 #@! TO.C,C5*
X166081962Y-85840866D02*
X166129581Y-85888485D01*
X166177200Y-86031342D01*
X166177200Y-86126580D01*
X166129581Y-86269438D01*
X166034343Y-86364676D01*
X165939105Y-86412295D01*
X165748629Y-86459914D01*
X165605772Y-86459914D01*
X165415296Y-86412295D01*
X165320058Y-86364676D01*
X165224820Y-86269438D01*
X165177200Y-86126580D01*
X165177200Y-86031342D01*
X165224820Y-85888485D01*
X165272439Y-85840866D01*
X165177200Y-84936104D02*
X165177200Y-85412295D01*
X165653391Y-85459914D01*
X165605772Y-85412295D01*
X165558153Y-85317057D01*
X165558153Y-85078961D01*
X165605772Y-84983723D01*
X165653391Y-84936104D01*
X165748629Y-84888485D01*
X165986724Y-84888485D01*
X166081962Y-84936104D01*
X166129581Y-84983723D01*
X166177200Y-85078961D01*
X166177200Y-85317057D01*
X166129581Y-85412295D01*
X166081962Y-85459914D01*
G04 #@! TO.C,C6*
X163557142Y-74966666D02*
X163604761Y-75014285D01*
X163652380Y-75157142D01*
X163652380Y-75252380D01*
X163604761Y-75395238D01*
X163509523Y-75490476D01*
X163414285Y-75538095D01*
X163223809Y-75585714D01*
X163080952Y-75585714D01*
X162890476Y-75538095D01*
X162795238Y-75490476D01*
X162700000Y-75395238D01*
X162652380Y-75252380D01*
X162652380Y-75157142D01*
X162700000Y-75014285D01*
X162747619Y-74966666D01*
X162652380Y-74109523D02*
X162652380Y-74300000D01*
X162700000Y-74395238D01*
X162747619Y-74442857D01*
X162890476Y-74538095D01*
X163080952Y-74585714D01*
X163461904Y-74585714D01*
X163557142Y-74538095D01*
X163604761Y-74490476D01*
X163652380Y-74395238D01*
X163652380Y-74204761D01*
X163604761Y-74109523D01*
X163557142Y-74061904D01*
X163461904Y-74014285D01*
X163223809Y-74014285D01*
X163128571Y-74061904D01*
X163080952Y-74109523D01*
X163033333Y-74204761D01*
X163033333Y-74395238D01*
X163080952Y-74490476D01*
X163128571Y-74538095D01*
X163223809Y-74585714D01*
G04 #@! TO.C,C7*
X156857142Y-87666666D02*
X156904761Y-87714285D01*
X156952380Y-87857142D01*
X156952380Y-87952380D01*
X156904761Y-88095238D01*
X156809523Y-88190476D01*
X156714285Y-88238095D01*
X156523809Y-88285714D01*
X156380952Y-88285714D01*
X156190476Y-88238095D01*
X156095238Y-88190476D01*
X156000000Y-88095238D01*
X155952380Y-87952380D01*
X155952380Y-87857142D01*
X156000000Y-87714285D01*
X156047619Y-87666666D01*
X155952380Y-87333333D02*
X155952380Y-86666666D01*
X156952380Y-87095238D01*
G04 #@! TO.C,C8*
X147157142Y-87566666D02*
X147204761Y-87614285D01*
X147252380Y-87757142D01*
X147252380Y-87852380D01*
X147204761Y-87995238D01*
X147109523Y-88090476D01*
X147014285Y-88138095D01*
X146823809Y-88185714D01*
X146680952Y-88185714D01*
X146490476Y-88138095D01*
X146395238Y-88090476D01*
X146300000Y-87995238D01*
X146252380Y-87852380D01*
X146252380Y-87757142D01*
X146300000Y-87614285D01*
X146347619Y-87566666D01*
X146680952Y-86995238D02*
X146633333Y-87090476D01*
X146585714Y-87138095D01*
X146490476Y-87185714D01*
X146442857Y-87185714D01*
X146347619Y-87138095D01*
X146300000Y-87090476D01*
X146252380Y-86995238D01*
X146252380Y-86804761D01*
X146300000Y-86709523D01*
X146347619Y-86661904D01*
X146442857Y-86614285D01*
X146490476Y-86614285D01*
X146585714Y-86661904D01*
X146633333Y-86709523D01*
X146680952Y-86804761D01*
X146680952Y-86995238D01*
X146728571Y-87090476D01*
X146776190Y-87138095D01*
X146871428Y-87185714D01*
X147061904Y-87185714D01*
X147157142Y-87138095D01*
X147204761Y-87090476D01*
X147252380Y-86995238D01*
X147252380Y-86804761D01*
X147204761Y-86709523D01*
X147157142Y-86661904D01*
X147061904Y-86614285D01*
X146871428Y-86614285D01*
X146776190Y-86661904D01*
X146728571Y-86709523D01*
X146680952Y-86804761D01*
G04 #@! TO.C,C9*
X156357142Y-75666666D02*
X156404761Y-75714285D01*
X156452380Y-75857142D01*
X156452380Y-75952380D01*
X156404761Y-76095238D01*
X156309523Y-76190476D01*
X156214285Y-76238095D01*
X156023809Y-76285714D01*
X155880952Y-76285714D01*
X155690476Y-76238095D01*
X155595238Y-76190476D01*
X155500000Y-76095238D01*
X155452380Y-75952380D01*
X155452380Y-75857142D01*
X155500000Y-75714285D01*
X155547619Y-75666666D01*
X156452380Y-75190476D02*
X156452380Y-75000000D01*
X156404761Y-74904761D01*
X156357142Y-74857142D01*
X156214285Y-74761904D01*
X156023809Y-74714285D01*
X155642857Y-74714285D01*
X155547619Y-74761904D01*
X155500000Y-74809523D01*
X155452380Y-74904761D01*
X155452380Y-75095238D01*
X155500000Y-75190476D01*
X155547619Y-75238095D01*
X155642857Y-75285714D01*
X155880952Y-75285714D01*
X155976190Y-75238095D01*
X156023809Y-75190476D01*
X156071428Y-75095238D01*
X156071428Y-74904761D01*
X156023809Y-74809523D01*
X155976190Y-74761904D01*
X155880952Y-74714285D01*
G04 #@! TO.C,C10*
X143857142Y-74657142D02*
X143809523Y-74704761D01*
X143666666Y-74752380D01*
X143571428Y-74752380D01*
X143428571Y-74704761D01*
X143333333Y-74609523D01*
X143285714Y-74514285D01*
X143238095Y-74323809D01*
X143238095Y-74180952D01*
X143285714Y-73990476D01*
X143333333Y-73895238D01*
X143428571Y-73800000D01*
X143571428Y-73752380D01*
X143666666Y-73752380D01*
X143809523Y-73800000D01*
X143857142Y-73847619D01*
X144809523Y-74752380D02*
X144238095Y-74752380D01*
X144523809Y-74752380D02*
X144523809Y-73752380D01*
X144428571Y-73895238D01*
X144333333Y-73990476D01*
X144238095Y-74038095D01*
X145428571Y-73752380D02*
X145523809Y-73752380D01*
X145619047Y-73800000D01*
X145666666Y-73847619D01*
X145714285Y-73942857D01*
X145761904Y-74133333D01*
X145761904Y-74371428D01*
X145714285Y-74561904D01*
X145666666Y-74657142D01*
X145619047Y-74704761D01*
X145523809Y-74752380D01*
X145428571Y-74752380D01*
X145333333Y-74704761D01*
X145285714Y-74657142D01*
X145238095Y-74561904D01*
X145190476Y-74371428D01*
X145190476Y-74133333D01*
X145238095Y-73942857D01*
X145285714Y-73847619D01*
X145333333Y-73800000D01*
X145428571Y-73752380D01*
G04 #@! TO.C,C11*
X154857142Y-89242857D02*
X154904761Y-89290476D01*
X154952380Y-89433333D01*
X154952380Y-89528571D01*
X154904761Y-89671428D01*
X154809523Y-89766666D01*
X154714285Y-89814285D01*
X154523809Y-89861904D01*
X154380952Y-89861904D01*
X154190476Y-89814285D01*
X154095238Y-89766666D01*
X154000000Y-89671428D01*
X153952380Y-89528571D01*
X153952380Y-89433333D01*
X154000000Y-89290476D01*
X154047619Y-89242857D01*
X154952380Y-88290476D02*
X154952380Y-88861904D01*
X154952380Y-88576190D02*
X153952380Y-88576190D01*
X154095238Y-88671428D01*
X154190476Y-88766666D01*
X154238095Y-88861904D01*
X154952380Y-87338095D02*
X154952380Y-87909523D01*
X154952380Y-87623809D02*
X153952380Y-87623809D01*
X154095238Y-87719047D01*
X154190476Y-87814285D01*
X154238095Y-87909523D01*
G04 #@! TO.C,C12*
X145757142Y-84642857D02*
X145804761Y-84690476D01*
X145852380Y-84833333D01*
X145852380Y-84928571D01*
X145804761Y-85071428D01*
X145709523Y-85166666D01*
X145614285Y-85214285D01*
X145423809Y-85261904D01*
X145280952Y-85261904D01*
X145090476Y-85214285D01*
X144995238Y-85166666D01*
X144900000Y-85071428D01*
X144852380Y-84928571D01*
X144852380Y-84833333D01*
X144900000Y-84690476D01*
X144947619Y-84642857D01*
X145852380Y-83690476D02*
X145852380Y-84261904D01*
X145852380Y-83976190D02*
X144852380Y-83976190D01*
X144995238Y-84071428D01*
X145090476Y-84166666D01*
X145138095Y-84261904D01*
X144947619Y-83309523D02*
X144900000Y-83261904D01*
X144852380Y-83166666D01*
X144852380Y-82928571D01*
X144900000Y-82833333D01*
X144947619Y-82785714D01*
X145042857Y-82738095D01*
X145138095Y-82738095D01*
X145280952Y-82785714D01*
X145852380Y-83357142D01*
X145852380Y-82738095D01*
G04 #@! TO.C,C13*
X144257142Y-84642857D02*
X144304761Y-84690476D01*
X144352380Y-84833333D01*
X144352380Y-84928571D01*
X144304761Y-85071428D01*
X144209523Y-85166666D01*
X144114285Y-85214285D01*
X143923809Y-85261904D01*
X143780952Y-85261904D01*
X143590476Y-85214285D01*
X143495238Y-85166666D01*
X143400000Y-85071428D01*
X143352380Y-84928571D01*
X143352380Y-84833333D01*
X143400000Y-84690476D01*
X143447619Y-84642857D01*
X144352380Y-83690476D02*
X144352380Y-84261904D01*
X144352380Y-83976190D02*
X143352380Y-83976190D01*
X143495238Y-84071428D01*
X143590476Y-84166666D01*
X143638095Y-84261904D01*
X143352380Y-83357142D02*
X143352380Y-82738095D01*
X143733333Y-83071428D01*
X143733333Y-82928571D01*
X143780952Y-82833333D01*
X143828571Y-82785714D01*
X143923809Y-82738095D01*
X144161904Y-82738095D01*
X144257142Y-82785714D01*
X144304761Y-82833333D01*
X144352380Y-82928571D01*
X144352380Y-83214285D01*
X144304761Y-83309523D01*
X144257142Y-83357142D01*
G04 #@! TO.C,J2*
X126166666Y-71952380D02*
X126166666Y-72666666D01*
X126119047Y-72809523D01*
X126023809Y-72904761D01*
X125880952Y-72952380D01*
X125785714Y-72952380D01*
X126595238Y-72047619D02*
X126642857Y-72000000D01*
X126738095Y-71952380D01*
X126976190Y-71952380D01*
X127071428Y-72000000D01*
X127119047Y-72047619D01*
X127166666Y-72142857D01*
X127166666Y-72238095D01*
X127119047Y-72380952D01*
X126547619Y-72952380D01*
X127166666Y-72952380D01*
G04 #@! TO.C,R1*
X161652380Y-73066666D02*
X161176190Y-73400000D01*
X161652380Y-73638095D02*
X160652380Y-73638095D01*
X160652380Y-73257142D01*
X160700000Y-73161904D01*
X160747619Y-73114285D01*
X160842857Y-73066666D01*
X160985714Y-73066666D01*
X161080952Y-73114285D01*
X161128571Y-73161904D01*
X161176190Y-73257142D01*
X161176190Y-73638095D01*
X161652380Y-72114285D02*
X161652380Y-72685714D01*
X161652380Y-72400000D02*
X160652380Y-72400000D01*
X160795238Y-72495238D01*
X160890476Y-72590476D01*
X160938095Y-72685714D01*
G04 #@! TO.C,R2*
X158452380Y-87666666D02*
X157976190Y-88000000D01*
X158452380Y-88238095D02*
X157452380Y-88238095D01*
X157452380Y-87857142D01*
X157500000Y-87761904D01*
X157547619Y-87714285D01*
X157642857Y-87666666D01*
X157785714Y-87666666D01*
X157880952Y-87714285D01*
X157928571Y-87761904D01*
X157976190Y-87857142D01*
X157976190Y-88238095D01*
X157547619Y-87285714D02*
X157500000Y-87238095D01*
X157452380Y-87142857D01*
X157452380Y-86904761D01*
X157500000Y-86809523D01*
X157547619Y-86761904D01*
X157642857Y-86714285D01*
X157738095Y-86714285D01*
X157880952Y-86761904D01*
X158452380Y-87333333D01*
X158452380Y-86714285D01*
G04 #@! TO.C,R3*
X149333333Y-85452380D02*
X149000000Y-84976190D01*
X148761904Y-85452380D02*
X148761904Y-84452380D01*
X149142857Y-84452380D01*
X149238095Y-84500000D01*
X149285714Y-84547619D01*
X149333333Y-84642857D01*
X149333333Y-84785714D01*
X149285714Y-84880952D01*
X149238095Y-84928571D01*
X149142857Y-84976190D01*
X148761904Y-84976190D01*
X149666666Y-84452380D02*
X150285714Y-84452380D01*
X149952380Y-84833333D01*
X150095238Y-84833333D01*
X150190476Y-84880952D01*
X150238095Y-84928571D01*
X150285714Y-85023809D01*
X150285714Y-85261904D01*
X150238095Y-85357142D01*
X150190476Y-85404761D01*
X150095238Y-85452380D01*
X149809523Y-85452380D01*
X149714285Y-85404761D01*
X149666666Y-85357142D01*
G04 #@! TO.C,R4*
X142752380Y-83666666D02*
X142276190Y-84000000D01*
X142752380Y-84238095D02*
X141752380Y-84238095D01*
X141752380Y-83857142D01*
X141800000Y-83761904D01*
X141847619Y-83714285D01*
X141942857Y-83666666D01*
X142085714Y-83666666D01*
X142180952Y-83714285D01*
X142228571Y-83761904D01*
X142276190Y-83857142D01*
X142276190Y-84238095D01*
X142085714Y-82809523D02*
X142752380Y-82809523D01*
X141704761Y-83047619D02*
X142419047Y-83285714D01*
X142419047Y-82666666D01*
G04 #@! TD*
M02*
