%TF.GenerationSoftware,KiCad,Pcbnew,5.0.1*%
%TF.CreationDate,2019-03-18T19:51:21+00:00*%
%TF.ProjectId,cw308_fe310,63773330385F66653331302E6B696361,rev?*%
%TF.SameCoordinates,Original*%
%TF.FileFunction,Soldermask,Bot*%
%TF.FilePolarity,Negative*%
%FSLAX46Y46*%
G04 Gerber Fmt 4.6, Leading zero omitted, Abs format (unit mm)*
G04 Created by KiCad (PCBNEW 5.0.1) date Mon 18 Mar 2019 07:51:21 PM UTC*
%MOMM*%
%LPD*%
G01*
G04 APERTURE LIST*
%ADD10C,0.150000*%
G04 APERTURE END LIST*
D10*
G36*
X139605589Y-118882842D02*
X139676211Y-118904265D01*
X139746834Y-118925688D01*
X139862115Y-118987308D01*
X139877004Y-118995266D01*
X139906725Y-119019657D01*
X139991100Y-119088901D01*
X140060344Y-119173276D01*
X140084735Y-119202997D01*
X140084736Y-119202999D01*
X140154313Y-119333167D01*
X140197159Y-119474413D01*
X140208001Y-119584493D01*
X140208001Y-121156707D01*
X140197159Y-121266787D01*
X140154313Y-121408033D01*
X140092693Y-121523314D01*
X140084735Y-121538203D01*
X140056184Y-121572992D01*
X139991098Y-121652301D01*
X139877004Y-121745934D01*
X139746833Y-121815512D01*
X139676210Y-121836935D01*
X139605588Y-121858358D01*
X139458701Y-121872825D01*
X139311813Y-121858358D01*
X139241191Y-121836935D01*
X139170568Y-121815512D01*
X139040400Y-121745935D01*
X139040398Y-121745934D01*
X139005609Y-121717383D01*
X138926300Y-121652297D01*
X138832667Y-121538203D01*
X138763089Y-121408032D01*
X138741666Y-121337409D01*
X138720243Y-121266787D01*
X138709401Y-121156705D01*
X138709402Y-119584494D01*
X138720244Y-119474412D01*
X138763090Y-119333168D01*
X138763090Y-119333167D01*
X138832667Y-119202999D01*
X138832668Y-119202997D01*
X138857059Y-119173276D01*
X138926303Y-119088901D01*
X139010678Y-119019657D01*
X139040399Y-118995266D01*
X139055288Y-118987308D01*
X139170569Y-118925688D01*
X139241192Y-118904265D01*
X139311814Y-118882842D01*
X139458701Y-118868375D01*
X139605589Y-118882842D01*
X139605589Y-118882842D01*
G37*
G36*
X142145589Y-118882842D02*
X142216211Y-118904265D01*
X142286834Y-118925688D01*
X142402115Y-118987308D01*
X142417004Y-118995266D01*
X142446725Y-119019657D01*
X142531100Y-119088901D01*
X142600344Y-119173276D01*
X142624735Y-119202997D01*
X142624736Y-119202999D01*
X142694313Y-119333167D01*
X142737159Y-119474413D01*
X142748001Y-119584493D01*
X142748001Y-121156707D01*
X142737159Y-121266787D01*
X142694313Y-121408033D01*
X142632693Y-121523314D01*
X142624735Y-121538203D01*
X142596184Y-121572992D01*
X142531098Y-121652301D01*
X142417004Y-121745934D01*
X142286833Y-121815512D01*
X142216210Y-121836935D01*
X142145588Y-121858358D01*
X141998701Y-121872825D01*
X141851813Y-121858358D01*
X141781191Y-121836935D01*
X141710568Y-121815512D01*
X141580400Y-121745935D01*
X141580398Y-121745934D01*
X141545609Y-121717383D01*
X141466300Y-121652297D01*
X141372667Y-121538203D01*
X141303089Y-121408032D01*
X141281666Y-121337409D01*
X141260243Y-121266787D01*
X141249401Y-121156705D01*
X141249402Y-119584494D01*
X141260244Y-119474412D01*
X141303090Y-119333168D01*
X141303090Y-119333167D01*
X141372667Y-119202999D01*
X141372668Y-119202997D01*
X141397059Y-119173276D01*
X141466303Y-119088901D01*
X141550678Y-119019657D01*
X141580399Y-118995266D01*
X141595288Y-118987308D01*
X141710569Y-118925688D01*
X141781192Y-118904265D01*
X141851814Y-118882842D01*
X141998701Y-118868375D01*
X142145589Y-118882842D01*
X142145589Y-118882842D01*
G37*
G36*
X144685589Y-118882842D02*
X144756211Y-118904265D01*
X144826834Y-118925688D01*
X144942115Y-118987308D01*
X144957004Y-118995266D01*
X144986725Y-119019657D01*
X145071100Y-119088901D01*
X145140344Y-119173276D01*
X145164735Y-119202997D01*
X145164736Y-119202999D01*
X145234313Y-119333167D01*
X145277159Y-119474413D01*
X145288001Y-119584493D01*
X145288001Y-121156707D01*
X145277159Y-121266787D01*
X145234313Y-121408033D01*
X145172693Y-121523314D01*
X145164735Y-121538203D01*
X145136184Y-121572992D01*
X145071098Y-121652301D01*
X144957004Y-121745934D01*
X144826833Y-121815512D01*
X144756210Y-121836935D01*
X144685588Y-121858358D01*
X144538701Y-121872825D01*
X144391813Y-121858358D01*
X144321191Y-121836935D01*
X144250568Y-121815512D01*
X144120400Y-121745935D01*
X144120398Y-121745934D01*
X144085609Y-121717383D01*
X144006300Y-121652297D01*
X143912667Y-121538203D01*
X143843089Y-121408032D01*
X143821666Y-121337409D01*
X143800243Y-121266787D01*
X143789401Y-121156705D01*
X143789402Y-119584494D01*
X143800244Y-119474412D01*
X143843090Y-119333168D01*
X143843090Y-119333167D01*
X143912667Y-119202999D01*
X143912668Y-119202997D01*
X143937059Y-119173276D01*
X144006303Y-119088901D01*
X144090678Y-119019657D01*
X144120399Y-118995266D01*
X144135288Y-118987308D01*
X144250569Y-118925688D01*
X144321192Y-118904265D01*
X144391814Y-118882842D01*
X144538701Y-118868375D01*
X144685589Y-118882842D01*
X144685589Y-118882842D01*
G37*
G36*
X137065589Y-118882842D02*
X137136211Y-118904265D01*
X137206834Y-118925688D01*
X137322115Y-118987308D01*
X137337004Y-118995266D01*
X137366725Y-119019657D01*
X137451100Y-119088901D01*
X137520344Y-119173276D01*
X137544735Y-119202997D01*
X137544736Y-119202999D01*
X137614313Y-119333167D01*
X137657159Y-119474413D01*
X137668001Y-119584493D01*
X137668001Y-121156707D01*
X137657159Y-121266787D01*
X137614313Y-121408033D01*
X137552693Y-121523314D01*
X137544735Y-121538203D01*
X137516184Y-121572992D01*
X137451098Y-121652301D01*
X137337004Y-121745934D01*
X137206833Y-121815512D01*
X137136210Y-121836935D01*
X137065588Y-121858358D01*
X136918701Y-121872825D01*
X136771813Y-121858358D01*
X136701191Y-121836935D01*
X136630568Y-121815512D01*
X136500400Y-121745935D01*
X136500398Y-121745934D01*
X136465609Y-121717383D01*
X136386300Y-121652297D01*
X136292667Y-121538203D01*
X136223089Y-121408032D01*
X136201666Y-121337409D01*
X136180243Y-121266787D01*
X136169401Y-121156705D01*
X136169402Y-119584494D01*
X136180244Y-119474412D01*
X136223090Y-119333168D01*
X136223090Y-119333167D01*
X136292667Y-119202999D01*
X136292668Y-119202997D01*
X136317059Y-119173276D01*
X136386303Y-119088901D01*
X136470678Y-119019657D01*
X136500399Y-118995266D01*
X136515288Y-118987308D01*
X136630569Y-118925688D01*
X136701192Y-118904265D01*
X136771814Y-118882842D01*
X136918701Y-118868375D01*
X137065589Y-118882842D01*
X137065589Y-118882842D01*
G37*
G36*
X134525589Y-118882842D02*
X134596211Y-118904265D01*
X134666834Y-118925688D01*
X134782115Y-118987308D01*
X134797004Y-118995266D01*
X134826725Y-119019657D01*
X134911100Y-119088901D01*
X134980344Y-119173276D01*
X135004735Y-119202997D01*
X135004736Y-119202999D01*
X135074313Y-119333167D01*
X135117159Y-119474413D01*
X135128001Y-119584493D01*
X135128001Y-121156707D01*
X135117159Y-121266787D01*
X135074313Y-121408033D01*
X135012693Y-121523314D01*
X135004735Y-121538203D01*
X134976184Y-121572992D01*
X134911098Y-121652301D01*
X134797004Y-121745934D01*
X134666833Y-121815512D01*
X134596210Y-121836935D01*
X134525588Y-121858358D01*
X134378701Y-121872825D01*
X134231813Y-121858358D01*
X134161191Y-121836935D01*
X134090568Y-121815512D01*
X133960400Y-121745935D01*
X133960398Y-121745934D01*
X133925609Y-121717383D01*
X133846300Y-121652297D01*
X133752667Y-121538203D01*
X133683089Y-121408032D01*
X133661666Y-121337409D01*
X133640243Y-121266787D01*
X133629401Y-121156705D01*
X133629402Y-119584494D01*
X133640244Y-119474412D01*
X133683090Y-119333168D01*
X133683090Y-119333167D01*
X133752667Y-119202999D01*
X133752668Y-119202997D01*
X133777059Y-119173276D01*
X133846303Y-119088901D01*
X133930678Y-119019657D01*
X133960399Y-118995266D01*
X133975288Y-118987308D01*
X134090569Y-118925688D01*
X134161192Y-118904265D01*
X134231814Y-118882842D01*
X134378701Y-118868375D01*
X134525589Y-118882842D01*
X134525589Y-118882842D01*
G37*
G36*
X131985589Y-118882842D02*
X132056211Y-118904265D01*
X132126834Y-118925688D01*
X132242115Y-118987308D01*
X132257004Y-118995266D01*
X132286725Y-119019657D01*
X132371100Y-119088901D01*
X132440344Y-119173276D01*
X132464735Y-119202997D01*
X132464736Y-119202999D01*
X132534313Y-119333167D01*
X132577159Y-119474413D01*
X132588001Y-119584493D01*
X132588001Y-121156707D01*
X132577159Y-121266787D01*
X132534313Y-121408033D01*
X132472693Y-121523314D01*
X132464735Y-121538203D01*
X132436184Y-121572992D01*
X132371098Y-121652301D01*
X132257004Y-121745934D01*
X132126833Y-121815512D01*
X132056210Y-121836935D01*
X131985588Y-121858358D01*
X131838701Y-121872825D01*
X131691813Y-121858358D01*
X131621191Y-121836935D01*
X131550568Y-121815512D01*
X131420400Y-121745935D01*
X131420398Y-121745934D01*
X131385609Y-121717383D01*
X131306300Y-121652297D01*
X131212667Y-121538203D01*
X131143089Y-121408032D01*
X131121666Y-121337409D01*
X131100243Y-121266787D01*
X131089401Y-121156705D01*
X131089402Y-119584494D01*
X131100244Y-119474412D01*
X131143090Y-119333168D01*
X131143090Y-119333167D01*
X131212667Y-119202999D01*
X131212668Y-119202997D01*
X131237059Y-119173276D01*
X131306303Y-119088901D01*
X131390678Y-119019657D01*
X131420399Y-118995266D01*
X131435288Y-118987308D01*
X131550569Y-118925688D01*
X131621192Y-118904265D01*
X131691814Y-118882842D01*
X131838701Y-118868375D01*
X131985589Y-118882842D01*
X131985589Y-118882842D01*
G37*
G36*
X129445589Y-118882842D02*
X129516211Y-118904265D01*
X129586834Y-118925688D01*
X129702115Y-118987308D01*
X129717004Y-118995266D01*
X129746725Y-119019657D01*
X129831100Y-119088901D01*
X129900344Y-119173276D01*
X129924735Y-119202997D01*
X129924736Y-119202999D01*
X129994313Y-119333167D01*
X130037159Y-119474413D01*
X130048001Y-119584493D01*
X130048001Y-121156707D01*
X130037159Y-121266787D01*
X129994313Y-121408033D01*
X129932693Y-121523314D01*
X129924735Y-121538203D01*
X129896184Y-121572992D01*
X129831098Y-121652301D01*
X129717004Y-121745934D01*
X129586833Y-121815512D01*
X129516210Y-121836935D01*
X129445588Y-121858358D01*
X129298701Y-121872825D01*
X129151813Y-121858358D01*
X129081191Y-121836935D01*
X129010568Y-121815512D01*
X128880400Y-121745935D01*
X128880398Y-121745934D01*
X128845609Y-121717383D01*
X128766300Y-121652297D01*
X128672667Y-121538203D01*
X128603089Y-121408032D01*
X128581666Y-121337409D01*
X128560243Y-121266787D01*
X128549401Y-121156705D01*
X128549402Y-119584494D01*
X128560244Y-119474412D01*
X128603090Y-119333168D01*
X128603090Y-119333167D01*
X128672667Y-119202999D01*
X128672668Y-119202997D01*
X128697059Y-119173276D01*
X128766303Y-119088901D01*
X128850678Y-119019657D01*
X128880399Y-118995266D01*
X128895288Y-118987308D01*
X129010569Y-118925688D01*
X129081192Y-118904265D01*
X129151814Y-118882842D01*
X129298701Y-118868375D01*
X129445589Y-118882842D01*
X129445589Y-118882842D01*
G37*
G36*
X126905589Y-118882842D02*
X126976211Y-118904265D01*
X127046834Y-118925688D01*
X127162115Y-118987308D01*
X127177004Y-118995266D01*
X127206725Y-119019657D01*
X127291100Y-119088901D01*
X127360344Y-119173276D01*
X127384735Y-119202997D01*
X127384736Y-119202999D01*
X127454313Y-119333167D01*
X127497159Y-119474413D01*
X127508001Y-119584493D01*
X127508001Y-121156707D01*
X127497159Y-121266787D01*
X127454313Y-121408033D01*
X127392693Y-121523314D01*
X127384735Y-121538203D01*
X127356184Y-121572992D01*
X127291098Y-121652301D01*
X127177004Y-121745934D01*
X127046833Y-121815512D01*
X126976210Y-121836935D01*
X126905588Y-121858358D01*
X126758701Y-121872825D01*
X126611813Y-121858358D01*
X126541191Y-121836935D01*
X126470568Y-121815512D01*
X126340400Y-121745935D01*
X126340398Y-121745934D01*
X126305609Y-121717383D01*
X126226300Y-121652297D01*
X126132667Y-121538203D01*
X126063089Y-121408032D01*
X126041666Y-121337409D01*
X126020243Y-121266787D01*
X126009401Y-121156705D01*
X126009402Y-119584494D01*
X126020244Y-119474412D01*
X126063090Y-119333168D01*
X126063090Y-119333167D01*
X126132667Y-119202999D01*
X126132668Y-119202997D01*
X126157059Y-119173276D01*
X126226303Y-119088901D01*
X126310678Y-119019657D01*
X126340399Y-118995266D01*
X126355288Y-118987308D01*
X126470569Y-118925688D01*
X126541192Y-118904265D01*
X126611814Y-118882842D01*
X126758701Y-118868375D01*
X126905589Y-118882842D01*
X126905589Y-118882842D01*
G37*
G36*
X124365589Y-118882842D02*
X124436211Y-118904265D01*
X124506834Y-118925688D01*
X124622115Y-118987308D01*
X124637004Y-118995266D01*
X124666725Y-119019657D01*
X124751100Y-119088901D01*
X124820344Y-119173276D01*
X124844735Y-119202997D01*
X124844736Y-119202999D01*
X124914313Y-119333167D01*
X124957159Y-119474413D01*
X124968001Y-119584493D01*
X124968001Y-121156707D01*
X124957159Y-121266787D01*
X124914313Y-121408033D01*
X124852693Y-121523314D01*
X124844735Y-121538203D01*
X124816184Y-121572992D01*
X124751098Y-121652301D01*
X124637004Y-121745934D01*
X124506833Y-121815512D01*
X124436210Y-121836935D01*
X124365588Y-121858358D01*
X124218701Y-121872825D01*
X124071813Y-121858358D01*
X124001191Y-121836935D01*
X123930568Y-121815512D01*
X123800400Y-121745935D01*
X123800398Y-121745934D01*
X123765609Y-121717383D01*
X123686300Y-121652297D01*
X123592667Y-121538203D01*
X123523089Y-121408032D01*
X123501666Y-121337409D01*
X123480243Y-121266787D01*
X123469401Y-121156705D01*
X123469402Y-119584494D01*
X123480244Y-119474412D01*
X123523090Y-119333168D01*
X123523090Y-119333167D01*
X123592667Y-119202999D01*
X123592668Y-119202997D01*
X123617059Y-119173276D01*
X123686303Y-119088901D01*
X123770678Y-119019657D01*
X123800399Y-118995266D01*
X123815288Y-118987308D01*
X123930569Y-118925688D01*
X124001192Y-118904265D01*
X124071814Y-118882842D01*
X124218701Y-118868375D01*
X124365589Y-118882842D01*
X124365589Y-118882842D01*
G37*
G36*
X121825589Y-118882842D02*
X121896211Y-118904265D01*
X121966834Y-118925688D01*
X122082115Y-118987308D01*
X122097004Y-118995266D01*
X122126725Y-119019657D01*
X122211100Y-119088901D01*
X122280344Y-119173276D01*
X122304735Y-119202997D01*
X122304736Y-119202999D01*
X122374313Y-119333167D01*
X122417159Y-119474413D01*
X122428001Y-119584493D01*
X122428001Y-121156707D01*
X122417159Y-121266787D01*
X122374313Y-121408033D01*
X122312693Y-121523314D01*
X122304735Y-121538203D01*
X122276184Y-121572992D01*
X122211098Y-121652301D01*
X122097004Y-121745934D01*
X121966833Y-121815512D01*
X121896210Y-121836935D01*
X121825588Y-121858358D01*
X121678701Y-121872825D01*
X121531813Y-121858358D01*
X121461191Y-121836935D01*
X121390568Y-121815512D01*
X121260400Y-121745935D01*
X121260398Y-121745934D01*
X121225609Y-121717383D01*
X121146300Y-121652297D01*
X121052667Y-121538203D01*
X120983089Y-121408032D01*
X120961666Y-121337409D01*
X120940243Y-121266787D01*
X120929401Y-121156705D01*
X120929402Y-119584494D01*
X120940244Y-119474412D01*
X120983090Y-119333168D01*
X120983090Y-119333167D01*
X121052667Y-119202999D01*
X121052668Y-119202997D01*
X121077059Y-119173276D01*
X121146303Y-119088901D01*
X121230678Y-119019657D01*
X121260399Y-118995266D01*
X121275288Y-118987308D01*
X121390569Y-118925688D01*
X121461192Y-118904265D01*
X121531814Y-118882842D01*
X121678701Y-118868375D01*
X121825589Y-118882842D01*
X121825589Y-118882842D01*
G37*
G36*
X170779848Y-114546721D02*
X170834889Y-114552142D01*
X170905511Y-114573565D01*
X170976134Y-114594988D01*
X171091415Y-114656608D01*
X171106304Y-114664566D01*
X171136025Y-114688957D01*
X171220400Y-114758201D01*
X171289644Y-114842576D01*
X171314035Y-114872297D01*
X171314036Y-114872299D01*
X171383613Y-115002467D01*
X171426459Y-115143713D01*
X171440926Y-115290600D01*
X171426459Y-115437487D01*
X171383613Y-115578733D01*
X171321993Y-115694014D01*
X171314035Y-115708903D01*
X171289644Y-115738624D01*
X171220400Y-115822999D01*
X171136025Y-115892243D01*
X171106304Y-115916634D01*
X171106302Y-115916635D01*
X170976134Y-115986212D01*
X170905511Y-116007635D01*
X170834889Y-116029058D01*
X170779848Y-116034479D01*
X170724808Y-116039900D01*
X169152594Y-116039900D01*
X169097554Y-116034479D01*
X169042513Y-116029058D01*
X168971891Y-116007635D01*
X168901268Y-115986212D01*
X168771100Y-115916635D01*
X168771098Y-115916634D01*
X168741377Y-115892243D01*
X168657002Y-115822999D01*
X168587758Y-115738624D01*
X168563367Y-115708903D01*
X168555409Y-115694014D01*
X168493789Y-115578733D01*
X168450943Y-115437487D01*
X168436476Y-115290600D01*
X168450943Y-115143713D01*
X168493789Y-115002467D01*
X168563366Y-114872299D01*
X168563367Y-114872297D01*
X168587758Y-114842576D01*
X168657002Y-114758201D01*
X168741377Y-114688957D01*
X168771098Y-114664566D01*
X168785987Y-114656608D01*
X168901268Y-114594988D01*
X168971891Y-114573565D01*
X169042513Y-114552142D01*
X169097554Y-114546721D01*
X169152594Y-114541300D01*
X170724808Y-114541300D01*
X170779848Y-114546721D01*
X170779848Y-114546721D01*
G37*
G36*
X122519848Y-114546721D02*
X122574889Y-114552142D01*
X122645511Y-114573565D01*
X122716134Y-114594988D01*
X122831415Y-114656608D01*
X122846304Y-114664566D01*
X122876025Y-114688957D01*
X122960400Y-114758201D01*
X123029644Y-114842576D01*
X123054035Y-114872297D01*
X123054036Y-114872299D01*
X123123613Y-115002467D01*
X123166459Y-115143713D01*
X123180926Y-115290600D01*
X123166459Y-115437487D01*
X123123613Y-115578733D01*
X123061993Y-115694014D01*
X123054035Y-115708903D01*
X123029644Y-115738624D01*
X122960400Y-115822999D01*
X122876025Y-115892243D01*
X122846304Y-115916634D01*
X122846302Y-115916635D01*
X122716134Y-115986212D01*
X122645511Y-116007635D01*
X122574889Y-116029058D01*
X122519848Y-116034479D01*
X122464808Y-116039900D01*
X120892594Y-116039900D01*
X120837554Y-116034479D01*
X120782513Y-116029058D01*
X120711891Y-116007635D01*
X120641268Y-115986212D01*
X120511100Y-115916635D01*
X120511098Y-115916634D01*
X120481377Y-115892243D01*
X120397002Y-115822999D01*
X120327758Y-115738624D01*
X120303367Y-115708903D01*
X120295409Y-115694014D01*
X120233789Y-115578733D01*
X120190943Y-115437487D01*
X120176476Y-115290600D01*
X120190943Y-115143713D01*
X120233789Y-115002467D01*
X120303366Y-114872299D01*
X120303367Y-114872297D01*
X120327758Y-114842576D01*
X120397002Y-114758201D01*
X120481377Y-114688957D01*
X120511098Y-114664566D01*
X120525987Y-114656608D01*
X120641268Y-114594988D01*
X120711891Y-114573565D01*
X120782513Y-114552142D01*
X120837554Y-114546721D01*
X120892594Y-114541300D01*
X122464808Y-114541300D01*
X122519848Y-114546721D01*
X122519848Y-114546721D01*
G37*
G36*
X122519848Y-112006721D02*
X122574889Y-112012142D01*
X122645511Y-112033565D01*
X122716134Y-112054988D01*
X122831415Y-112116608D01*
X122846304Y-112124566D01*
X122876025Y-112148957D01*
X122960400Y-112218201D01*
X123029644Y-112302576D01*
X123054035Y-112332297D01*
X123054036Y-112332299D01*
X123123613Y-112462467D01*
X123166459Y-112603713D01*
X123180926Y-112750600D01*
X123166459Y-112897487D01*
X123123613Y-113038733D01*
X123061993Y-113154014D01*
X123054035Y-113168903D01*
X123029644Y-113198624D01*
X122960400Y-113282999D01*
X122876025Y-113352243D01*
X122846304Y-113376634D01*
X122846302Y-113376635D01*
X122716134Y-113446212D01*
X122645511Y-113467635D01*
X122574889Y-113489058D01*
X122519848Y-113494479D01*
X122464808Y-113499900D01*
X120892594Y-113499900D01*
X120837554Y-113494479D01*
X120782513Y-113489058D01*
X120711891Y-113467635D01*
X120641268Y-113446212D01*
X120511100Y-113376635D01*
X120511098Y-113376634D01*
X120481377Y-113352243D01*
X120397002Y-113282999D01*
X120327758Y-113198624D01*
X120303367Y-113168903D01*
X120295409Y-113154014D01*
X120233789Y-113038733D01*
X120190943Y-112897487D01*
X120176476Y-112750600D01*
X120190943Y-112603713D01*
X120233789Y-112462467D01*
X120303366Y-112332299D01*
X120303367Y-112332297D01*
X120327758Y-112302576D01*
X120397002Y-112218201D01*
X120481377Y-112148957D01*
X120511098Y-112124566D01*
X120525987Y-112116608D01*
X120641268Y-112054988D01*
X120711891Y-112033565D01*
X120782513Y-112012142D01*
X120837554Y-112006721D01*
X120892594Y-112001300D01*
X122464808Y-112001300D01*
X122519848Y-112006721D01*
X122519848Y-112006721D01*
G37*
G36*
X170779848Y-112006721D02*
X170834889Y-112012142D01*
X170905511Y-112033565D01*
X170976134Y-112054988D01*
X171091415Y-112116608D01*
X171106304Y-112124566D01*
X171136025Y-112148957D01*
X171220400Y-112218201D01*
X171289644Y-112302576D01*
X171314035Y-112332297D01*
X171314036Y-112332299D01*
X171383613Y-112462467D01*
X171426459Y-112603713D01*
X171440926Y-112750600D01*
X171426459Y-112897487D01*
X171383613Y-113038733D01*
X171321993Y-113154014D01*
X171314035Y-113168903D01*
X171289644Y-113198624D01*
X171220400Y-113282999D01*
X171136025Y-113352243D01*
X171106304Y-113376634D01*
X171106302Y-113376635D01*
X170976134Y-113446212D01*
X170905511Y-113467635D01*
X170834889Y-113489058D01*
X170779848Y-113494479D01*
X170724808Y-113499900D01*
X169152594Y-113499900D01*
X169097554Y-113494479D01*
X169042513Y-113489058D01*
X168971891Y-113467635D01*
X168901268Y-113446212D01*
X168771100Y-113376635D01*
X168771098Y-113376634D01*
X168741377Y-113352243D01*
X168657002Y-113282999D01*
X168587758Y-113198624D01*
X168563367Y-113168903D01*
X168555409Y-113154014D01*
X168493789Y-113038733D01*
X168450943Y-112897487D01*
X168436476Y-112750600D01*
X168450943Y-112603713D01*
X168493789Y-112462467D01*
X168563366Y-112332299D01*
X168563367Y-112332297D01*
X168587758Y-112302576D01*
X168657002Y-112218201D01*
X168741377Y-112148957D01*
X168771098Y-112124566D01*
X168785987Y-112116608D01*
X168901268Y-112054988D01*
X168971891Y-112033565D01*
X169042513Y-112012142D01*
X169097554Y-112006721D01*
X169152594Y-112001300D01*
X170724808Y-112001300D01*
X170779848Y-112006721D01*
X170779848Y-112006721D01*
G37*
G36*
X122519848Y-109466721D02*
X122574889Y-109472142D01*
X122645511Y-109493565D01*
X122716134Y-109514988D01*
X122831415Y-109576608D01*
X122846304Y-109584566D01*
X122876025Y-109608957D01*
X122960400Y-109678201D01*
X123029644Y-109762576D01*
X123054035Y-109792297D01*
X123054036Y-109792299D01*
X123123613Y-109922467D01*
X123166459Y-110063713D01*
X123180926Y-110210600D01*
X123166459Y-110357487D01*
X123123613Y-110498733D01*
X123061993Y-110614014D01*
X123054035Y-110628903D01*
X123029644Y-110658624D01*
X122960400Y-110742999D01*
X122876025Y-110812243D01*
X122846304Y-110836634D01*
X122846302Y-110836635D01*
X122716134Y-110906212D01*
X122645511Y-110927635D01*
X122574889Y-110949058D01*
X122519848Y-110954479D01*
X122464808Y-110959900D01*
X120892594Y-110959900D01*
X120837554Y-110954479D01*
X120782513Y-110949058D01*
X120711891Y-110927635D01*
X120641268Y-110906212D01*
X120511100Y-110836635D01*
X120511098Y-110836634D01*
X120481377Y-110812243D01*
X120397002Y-110742999D01*
X120327758Y-110658624D01*
X120303367Y-110628903D01*
X120295409Y-110614014D01*
X120233789Y-110498733D01*
X120190943Y-110357487D01*
X120176476Y-110210600D01*
X120190943Y-110063713D01*
X120233789Y-109922467D01*
X120303366Y-109792299D01*
X120303367Y-109792297D01*
X120327758Y-109762576D01*
X120397002Y-109678201D01*
X120481377Y-109608957D01*
X120511098Y-109584566D01*
X120525987Y-109576608D01*
X120641268Y-109514988D01*
X120711891Y-109493565D01*
X120782513Y-109472142D01*
X120837554Y-109466721D01*
X120892594Y-109461300D01*
X122464808Y-109461300D01*
X122519848Y-109466721D01*
X122519848Y-109466721D01*
G37*
G36*
X170779848Y-109466721D02*
X170834889Y-109472142D01*
X170905511Y-109493565D01*
X170976134Y-109514988D01*
X171091415Y-109576608D01*
X171106304Y-109584566D01*
X171136025Y-109608957D01*
X171220400Y-109678201D01*
X171289644Y-109762576D01*
X171314035Y-109792297D01*
X171314036Y-109792299D01*
X171383613Y-109922467D01*
X171426459Y-110063713D01*
X171440926Y-110210600D01*
X171426459Y-110357487D01*
X171383613Y-110498733D01*
X171321993Y-110614014D01*
X171314035Y-110628903D01*
X171289644Y-110658624D01*
X171220400Y-110742999D01*
X171136025Y-110812243D01*
X171106304Y-110836634D01*
X171106302Y-110836635D01*
X170976134Y-110906212D01*
X170905511Y-110927635D01*
X170834889Y-110949058D01*
X170779848Y-110954479D01*
X170724808Y-110959900D01*
X169152594Y-110959900D01*
X169097554Y-110954479D01*
X169042513Y-110949058D01*
X168971891Y-110927635D01*
X168901268Y-110906212D01*
X168771100Y-110836635D01*
X168771098Y-110836634D01*
X168741377Y-110812243D01*
X168657002Y-110742999D01*
X168587758Y-110658624D01*
X168563367Y-110628903D01*
X168555409Y-110614014D01*
X168493789Y-110498733D01*
X168450943Y-110357487D01*
X168436476Y-110210600D01*
X168450943Y-110063713D01*
X168493789Y-109922467D01*
X168563366Y-109792299D01*
X168563367Y-109792297D01*
X168587758Y-109762576D01*
X168657002Y-109678201D01*
X168741377Y-109608957D01*
X168771098Y-109584566D01*
X168785987Y-109576608D01*
X168901268Y-109514988D01*
X168971891Y-109493565D01*
X169042513Y-109472142D01*
X169097554Y-109466721D01*
X169152594Y-109461300D01*
X170724808Y-109461300D01*
X170779848Y-109466721D01*
X170779848Y-109466721D01*
G37*
G36*
X170779848Y-106926721D02*
X170834889Y-106932142D01*
X170905511Y-106953565D01*
X170976134Y-106974988D01*
X171091415Y-107036608D01*
X171106304Y-107044566D01*
X171136025Y-107068957D01*
X171220400Y-107138201D01*
X171289644Y-107222576D01*
X171314035Y-107252297D01*
X171314036Y-107252299D01*
X171383613Y-107382467D01*
X171426459Y-107523713D01*
X171440926Y-107670600D01*
X171426459Y-107817487D01*
X171383613Y-107958733D01*
X171321993Y-108074014D01*
X171314035Y-108088903D01*
X171289644Y-108118624D01*
X171220400Y-108202999D01*
X171136025Y-108272243D01*
X171106304Y-108296634D01*
X171106302Y-108296635D01*
X170976134Y-108366212D01*
X170905511Y-108387635D01*
X170834889Y-108409058D01*
X170779848Y-108414479D01*
X170724808Y-108419900D01*
X169152594Y-108419900D01*
X169097554Y-108414479D01*
X169042513Y-108409058D01*
X168971891Y-108387635D01*
X168901268Y-108366212D01*
X168771100Y-108296635D01*
X168771098Y-108296634D01*
X168741377Y-108272243D01*
X168657002Y-108202999D01*
X168587758Y-108118624D01*
X168563367Y-108088903D01*
X168555409Y-108074014D01*
X168493789Y-107958733D01*
X168450943Y-107817487D01*
X168436476Y-107670600D01*
X168450943Y-107523713D01*
X168493789Y-107382467D01*
X168563366Y-107252299D01*
X168563367Y-107252297D01*
X168587758Y-107222576D01*
X168657002Y-107138201D01*
X168741377Y-107068957D01*
X168771098Y-107044566D01*
X168785987Y-107036608D01*
X168901268Y-106974988D01*
X168971891Y-106953565D01*
X169042513Y-106932142D01*
X169097554Y-106926721D01*
X169152594Y-106921300D01*
X170724808Y-106921300D01*
X170779848Y-106926721D01*
X170779848Y-106926721D01*
G37*
G36*
X122519848Y-106926721D02*
X122574889Y-106932142D01*
X122645511Y-106953565D01*
X122716134Y-106974988D01*
X122831415Y-107036608D01*
X122846304Y-107044566D01*
X122876025Y-107068957D01*
X122960400Y-107138201D01*
X123029644Y-107222576D01*
X123054035Y-107252297D01*
X123054036Y-107252299D01*
X123123613Y-107382467D01*
X123166459Y-107523713D01*
X123180926Y-107670600D01*
X123166459Y-107817487D01*
X123123613Y-107958733D01*
X123061993Y-108074014D01*
X123054035Y-108088903D01*
X123029644Y-108118624D01*
X122960400Y-108202999D01*
X122876025Y-108272243D01*
X122846304Y-108296634D01*
X122846302Y-108296635D01*
X122716134Y-108366212D01*
X122645511Y-108387635D01*
X122574889Y-108409058D01*
X122519848Y-108414479D01*
X122464808Y-108419900D01*
X120892594Y-108419900D01*
X120837554Y-108414479D01*
X120782513Y-108409058D01*
X120711891Y-108387635D01*
X120641268Y-108366212D01*
X120511100Y-108296635D01*
X120511098Y-108296634D01*
X120481377Y-108272243D01*
X120397002Y-108202999D01*
X120327758Y-108118624D01*
X120303367Y-108088903D01*
X120295409Y-108074014D01*
X120233789Y-107958733D01*
X120190943Y-107817487D01*
X120176476Y-107670600D01*
X120190943Y-107523713D01*
X120233789Y-107382467D01*
X120303366Y-107252299D01*
X120303367Y-107252297D01*
X120327758Y-107222576D01*
X120397002Y-107138201D01*
X120481377Y-107068957D01*
X120511098Y-107044566D01*
X120525987Y-107036608D01*
X120641268Y-106974988D01*
X120711891Y-106953565D01*
X120782513Y-106932142D01*
X120837554Y-106926721D01*
X120892594Y-106921300D01*
X122464808Y-106921300D01*
X122519848Y-106926721D01*
X122519848Y-106926721D01*
G37*
G36*
X122519848Y-104386721D02*
X122574889Y-104392142D01*
X122645511Y-104413565D01*
X122716134Y-104434988D01*
X122831415Y-104496608D01*
X122846304Y-104504566D01*
X122876025Y-104528957D01*
X122960400Y-104598201D01*
X123029644Y-104682576D01*
X123054035Y-104712297D01*
X123054036Y-104712299D01*
X123123613Y-104842467D01*
X123166459Y-104983713D01*
X123180926Y-105130600D01*
X123166459Y-105277487D01*
X123123613Y-105418733D01*
X123061993Y-105534014D01*
X123054035Y-105548903D01*
X123029644Y-105578624D01*
X122960400Y-105662999D01*
X122876025Y-105732243D01*
X122846304Y-105756634D01*
X122846302Y-105756635D01*
X122716134Y-105826212D01*
X122645511Y-105847635D01*
X122574889Y-105869058D01*
X122519848Y-105874479D01*
X122464808Y-105879900D01*
X120892594Y-105879900D01*
X120837554Y-105874479D01*
X120782513Y-105869058D01*
X120711891Y-105847635D01*
X120641268Y-105826212D01*
X120511100Y-105756635D01*
X120511098Y-105756634D01*
X120481377Y-105732243D01*
X120397002Y-105662999D01*
X120327758Y-105578624D01*
X120303367Y-105548903D01*
X120295409Y-105534014D01*
X120233789Y-105418733D01*
X120190943Y-105277487D01*
X120176476Y-105130600D01*
X120190943Y-104983713D01*
X120233789Y-104842467D01*
X120303366Y-104712299D01*
X120303367Y-104712297D01*
X120327758Y-104682576D01*
X120397002Y-104598201D01*
X120481377Y-104528957D01*
X120511098Y-104504566D01*
X120525987Y-104496608D01*
X120641268Y-104434988D01*
X120711891Y-104413565D01*
X120782513Y-104392142D01*
X120837554Y-104386721D01*
X120892594Y-104381300D01*
X122464808Y-104381300D01*
X122519848Y-104386721D01*
X122519848Y-104386721D01*
G37*
G36*
X170779848Y-104386721D02*
X170834889Y-104392142D01*
X170905511Y-104413565D01*
X170976134Y-104434988D01*
X171091415Y-104496608D01*
X171106304Y-104504566D01*
X171136025Y-104528957D01*
X171220400Y-104598201D01*
X171289644Y-104682576D01*
X171314035Y-104712297D01*
X171314036Y-104712299D01*
X171383613Y-104842467D01*
X171426459Y-104983713D01*
X171440926Y-105130600D01*
X171426459Y-105277487D01*
X171383613Y-105418733D01*
X171321993Y-105534014D01*
X171314035Y-105548903D01*
X171289644Y-105578624D01*
X171220400Y-105662999D01*
X171136025Y-105732243D01*
X171106304Y-105756634D01*
X171106302Y-105756635D01*
X170976134Y-105826212D01*
X170905511Y-105847635D01*
X170834889Y-105869058D01*
X170779848Y-105874479D01*
X170724808Y-105879900D01*
X169152594Y-105879900D01*
X169097554Y-105874479D01*
X169042513Y-105869058D01*
X168971891Y-105847635D01*
X168901268Y-105826212D01*
X168771100Y-105756635D01*
X168771098Y-105756634D01*
X168741377Y-105732243D01*
X168657002Y-105662999D01*
X168587758Y-105578624D01*
X168563367Y-105548903D01*
X168555409Y-105534014D01*
X168493789Y-105418733D01*
X168450943Y-105277487D01*
X168436476Y-105130600D01*
X168450943Y-104983713D01*
X168493789Y-104842467D01*
X168563366Y-104712299D01*
X168563367Y-104712297D01*
X168587758Y-104682576D01*
X168657002Y-104598201D01*
X168741377Y-104528957D01*
X168771098Y-104504566D01*
X168785987Y-104496608D01*
X168901268Y-104434988D01*
X168971891Y-104413565D01*
X169042513Y-104392142D01*
X169097554Y-104386721D01*
X169152594Y-104381300D01*
X170724808Y-104381300D01*
X170779848Y-104386721D01*
X170779848Y-104386721D01*
G37*
G36*
X122519848Y-101846721D02*
X122574889Y-101852142D01*
X122645511Y-101873565D01*
X122716134Y-101894988D01*
X122831415Y-101956608D01*
X122846304Y-101964566D01*
X122876025Y-101988957D01*
X122960400Y-102058201D01*
X123029644Y-102142576D01*
X123054035Y-102172297D01*
X123054036Y-102172299D01*
X123123613Y-102302467D01*
X123166459Y-102443713D01*
X123180926Y-102590600D01*
X123166459Y-102737487D01*
X123123613Y-102878733D01*
X123061993Y-102994014D01*
X123054035Y-103008903D01*
X123029644Y-103038624D01*
X122960400Y-103122999D01*
X122876025Y-103192243D01*
X122846304Y-103216634D01*
X122846302Y-103216635D01*
X122716134Y-103286212D01*
X122645511Y-103307635D01*
X122574889Y-103329058D01*
X122519848Y-103334479D01*
X122464808Y-103339900D01*
X120892594Y-103339900D01*
X120837554Y-103334479D01*
X120782513Y-103329058D01*
X120711891Y-103307635D01*
X120641268Y-103286212D01*
X120511100Y-103216635D01*
X120511098Y-103216634D01*
X120481377Y-103192243D01*
X120397002Y-103122999D01*
X120327758Y-103038624D01*
X120303367Y-103008903D01*
X120295409Y-102994014D01*
X120233789Y-102878733D01*
X120190943Y-102737487D01*
X120176476Y-102590600D01*
X120190943Y-102443713D01*
X120233789Y-102302467D01*
X120303366Y-102172299D01*
X120303367Y-102172297D01*
X120327758Y-102142576D01*
X120397002Y-102058201D01*
X120481377Y-101988957D01*
X120511098Y-101964566D01*
X120525987Y-101956608D01*
X120641268Y-101894988D01*
X120711891Y-101873565D01*
X120782513Y-101852142D01*
X120837554Y-101846721D01*
X120892594Y-101841300D01*
X122464808Y-101841300D01*
X122519848Y-101846721D01*
X122519848Y-101846721D01*
G37*
G36*
X170779848Y-101846721D02*
X170834889Y-101852142D01*
X170905511Y-101873565D01*
X170976134Y-101894988D01*
X171091415Y-101956608D01*
X171106304Y-101964566D01*
X171136025Y-101988957D01*
X171220400Y-102058201D01*
X171289644Y-102142576D01*
X171314035Y-102172297D01*
X171314036Y-102172299D01*
X171383613Y-102302467D01*
X171426459Y-102443713D01*
X171440926Y-102590600D01*
X171426459Y-102737487D01*
X171383613Y-102878733D01*
X171321993Y-102994014D01*
X171314035Y-103008903D01*
X171289644Y-103038624D01*
X171220400Y-103122999D01*
X171136025Y-103192243D01*
X171106304Y-103216634D01*
X171106302Y-103216635D01*
X170976134Y-103286212D01*
X170905511Y-103307635D01*
X170834889Y-103329058D01*
X170779848Y-103334479D01*
X170724808Y-103339900D01*
X169152594Y-103339900D01*
X169097554Y-103334479D01*
X169042513Y-103329058D01*
X168971891Y-103307635D01*
X168901268Y-103286212D01*
X168771100Y-103216635D01*
X168771098Y-103216634D01*
X168741377Y-103192243D01*
X168657002Y-103122999D01*
X168587758Y-103038624D01*
X168563367Y-103008903D01*
X168555409Y-102994014D01*
X168493789Y-102878733D01*
X168450943Y-102737487D01*
X168436476Y-102590600D01*
X168450943Y-102443713D01*
X168493789Y-102302467D01*
X168563366Y-102172299D01*
X168563367Y-102172297D01*
X168587758Y-102142576D01*
X168657002Y-102058201D01*
X168741377Y-101988957D01*
X168771098Y-101964566D01*
X168785987Y-101956608D01*
X168901268Y-101894988D01*
X168971891Y-101873565D01*
X169042513Y-101852142D01*
X169097554Y-101846721D01*
X169152594Y-101841300D01*
X170724808Y-101841300D01*
X170779848Y-101846721D01*
X170779848Y-101846721D01*
G37*
G36*
X170779848Y-99306721D02*
X170834889Y-99312142D01*
X170905511Y-99333565D01*
X170976134Y-99354988D01*
X171091415Y-99416608D01*
X171106304Y-99424566D01*
X171136025Y-99448957D01*
X171220400Y-99518201D01*
X171289644Y-99602576D01*
X171314035Y-99632297D01*
X171314036Y-99632299D01*
X171383613Y-99762467D01*
X171426459Y-99903713D01*
X171440926Y-100050600D01*
X171426459Y-100197487D01*
X171383613Y-100338733D01*
X171321993Y-100454014D01*
X171314035Y-100468903D01*
X171289644Y-100498624D01*
X171220400Y-100582999D01*
X171136025Y-100652243D01*
X171106304Y-100676634D01*
X171106302Y-100676635D01*
X170976134Y-100746212D01*
X170905511Y-100767635D01*
X170834889Y-100789058D01*
X170779848Y-100794479D01*
X170724808Y-100799900D01*
X169152594Y-100799900D01*
X169097554Y-100794479D01*
X169042513Y-100789058D01*
X168971891Y-100767635D01*
X168901268Y-100746212D01*
X168771100Y-100676635D01*
X168771098Y-100676634D01*
X168741377Y-100652243D01*
X168657002Y-100582999D01*
X168587758Y-100498624D01*
X168563367Y-100468903D01*
X168555409Y-100454014D01*
X168493789Y-100338733D01*
X168450943Y-100197487D01*
X168436476Y-100050600D01*
X168450943Y-99903713D01*
X168493789Y-99762467D01*
X168563366Y-99632299D01*
X168563367Y-99632297D01*
X168587758Y-99602576D01*
X168657002Y-99518201D01*
X168741377Y-99448957D01*
X168771098Y-99424566D01*
X168785987Y-99416608D01*
X168901268Y-99354988D01*
X168971891Y-99333565D01*
X169042513Y-99312142D01*
X169097554Y-99306721D01*
X169152594Y-99301300D01*
X170724808Y-99301300D01*
X170779848Y-99306721D01*
X170779848Y-99306721D01*
G37*
G36*
X122519848Y-99306721D02*
X122574889Y-99312142D01*
X122645511Y-99333565D01*
X122716134Y-99354988D01*
X122831415Y-99416608D01*
X122846304Y-99424566D01*
X122876025Y-99448957D01*
X122960400Y-99518201D01*
X123029644Y-99602576D01*
X123054035Y-99632297D01*
X123054036Y-99632299D01*
X123123613Y-99762467D01*
X123166459Y-99903713D01*
X123180926Y-100050600D01*
X123166459Y-100197487D01*
X123123613Y-100338733D01*
X123061993Y-100454014D01*
X123054035Y-100468903D01*
X123029644Y-100498624D01*
X122960400Y-100582999D01*
X122876025Y-100652243D01*
X122846304Y-100676634D01*
X122846302Y-100676635D01*
X122716134Y-100746212D01*
X122645511Y-100767635D01*
X122574889Y-100789058D01*
X122519848Y-100794479D01*
X122464808Y-100799900D01*
X120892594Y-100799900D01*
X120837554Y-100794479D01*
X120782513Y-100789058D01*
X120711891Y-100767635D01*
X120641268Y-100746212D01*
X120511100Y-100676635D01*
X120511098Y-100676634D01*
X120481377Y-100652243D01*
X120397002Y-100582999D01*
X120327758Y-100498624D01*
X120303367Y-100468903D01*
X120295409Y-100454014D01*
X120233789Y-100338733D01*
X120190943Y-100197487D01*
X120176476Y-100050600D01*
X120190943Y-99903713D01*
X120233789Y-99762467D01*
X120303366Y-99632299D01*
X120303367Y-99632297D01*
X120327758Y-99602576D01*
X120397002Y-99518201D01*
X120481377Y-99448957D01*
X120511098Y-99424566D01*
X120525987Y-99416608D01*
X120641268Y-99354988D01*
X120711891Y-99333565D01*
X120782513Y-99312142D01*
X120837554Y-99306721D01*
X120892594Y-99301300D01*
X122464808Y-99301300D01*
X122519848Y-99306721D01*
X122519848Y-99306721D01*
G37*
G36*
X122519848Y-96766721D02*
X122574889Y-96772142D01*
X122645511Y-96793565D01*
X122716134Y-96814988D01*
X122831415Y-96876608D01*
X122846304Y-96884566D01*
X122876025Y-96908957D01*
X122960400Y-96978201D01*
X123029644Y-97062576D01*
X123054035Y-97092297D01*
X123054036Y-97092299D01*
X123123613Y-97222467D01*
X123166459Y-97363713D01*
X123180926Y-97510600D01*
X123166459Y-97657487D01*
X123123613Y-97798733D01*
X123061993Y-97914014D01*
X123054035Y-97928903D01*
X123029644Y-97958624D01*
X122960400Y-98042999D01*
X122876025Y-98112243D01*
X122846304Y-98136634D01*
X122846302Y-98136635D01*
X122716134Y-98206212D01*
X122645511Y-98227635D01*
X122574889Y-98249058D01*
X122519848Y-98254479D01*
X122464808Y-98259900D01*
X120892594Y-98259900D01*
X120837554Y-98254479D01*
X120782513Y-98249058D01*
X120711891Y-98227635D01*
X120641268Y-98206212D01*
X120511100Y-98136635D01*
X120511098Y-98136634D01*
X120481377Y-98112243D01*
X120397002Y-98042999D01*
X120327758Y-97958624D01*
X120303367Y-97928903D01*
X120295409Y-97914014D01*
X120233789Y-97798733D01*
X120190943Y-97657487D01*
X120176476Y-97510600D01*
X120190943Y-97363713D01*
X120233789Y-97222467D01*
X120303366Y-97092299D01*
X120303367Y-97092297D01*
X120327758Y-97062576D01*
X120397002Y-96978201D01*
X120481377Y-96908957D01*
X120511098Y-96884566D01*
X120525987Y-96876608D01*
X120641268Y-96814988D01*
X120711891Y-96793565D01*
X120782513Y-96772142D01*
X120837554Y-96766721D01*
X120892594Y-96761300D01*
X122464808Y-96761300D01*
X122519848Y-96766721D01*
X122519848Y-96766721D01*
G37*
G36*
X170779848Y-96766721D02*
X170834889Y-96772142D01*
X170905511Y-96793565D01*
X170976134Y-96814988D01*
X171091415Y-96876608D01*
X171106304Y-96884566D01*
X171136025Y-96908957D01*
X171220400Y-96978201D01*
X171289644Y-97062576D01*
X171314035Y-97092297D01*
X171314036Y-97092299D01*
X171383613Y-97222467D01*
X171426459Y-97363713D01*
X171440926Y-97510600D01*
X171426459Y-97657487D01*
X171383613Y-97798733D01*
X171321993Y-97914014D01*
X171314035Y-97928903D01*
X171289644Y-97958624D01*
X171220400Y-98042999D01*
X171136025Y-98112243D01*
X171106304Y-98136634D01*
X171106302Y-98136635D01*
X170976134Y-98206212D01*
X170905511Y-98227635D01*
X170834889Y-98249058D01*
X170779848Y-98254479D01*
X170724808Y-98259900D01*
X169152594Y-98259900D01*
X169097554Y-98254479D01*
X169042513Y-98249058D01*
X168971891Y-98227635D01*
X168901268Y-98206212D01*
X168771100Y-98136635D01*
X168771098Y-98136634D01*
X168741377Y-98112243D01*
X168657002Y-98042999D01*
X168587758Y-97958624D01*
X168563367Y-97928903D01*
X168555409Y-97914014D01*
X168493789Y-97798733D01*
X168450943Y-97657487D01*
X168436476Y-97510600D01*
X168450943Y-97363713D01*
X168493789Y-97222467D01*
X168563366Y-97092299D01*
X168563367Y-97092297D01*
X168587758Y-97062576D01*
X168657002Y-96978201D01*
X168741377Y-96908957D01*
X168771098Y-96884566D01*
X168785987Y-96876608D01*
X168901268Y-96814988D01*
X168971891Y-96793565D01*
X169042513Y-96772142D01*
X169097554Y-96766721D01*
X169152594Y-96761300D01*
X170724808Y-96761300D01*
X170779848Y-96766721D01*
X170779848Y-96766721D01*
G37*
G36*
X122519848Y-94226721D02*
X122574889Y-94232142D01*
X122645511Y-94253565D01*
X122716134Y-94274988D01*
X122831415Y-94336608D01*
X122846304Y-94344566D01*
X122876025Y-94368957D01*
X122960400Y-94438201D01*
X123029644Y-94522576D01*
X123054035Y-94552297D01*
X123054036Y-94552299D01*
X123123613Y-94682467D01*
X123166459Y-94823713D01*
X123180926Y-94970600D01*
X123166459Y-95117487D01*
X123123613Y-95258733D01*
X123061993Y-95374014D01*
X123054035Y-95388903D01*
X123029644Y-95418624D01*
X122960400Y-95502999D01*
X122876025Y-95572243D01*
X122846304Y-95596634D01*
X122846302Y-95596635D01*
X122716134Y-95666212D01*
X122645511Y-95687635D01*
X122574889Y-95709058D01*
X122519848Y-95714479D01*
X122464808Y-95719900D01*
X120892594Y-95719900D01*
X120837554Y-95714479D01*
X120782513Y-95709058D01*
X120711891Y-95687635D01*
X120641268Y-95666212D01*
X120511100Y-95596635D01*
X120511098Y-95596634D01*
X120481377Y-95572243D01*
X120397002Y-95502999D01*
X120327758Y-95418624D01*
X120303367Y-95388903D01*
X120295409Y-95374014D01*
X120233789Y-95258733D01*
X120190943Y-95117487D01*
X120176476Y-94970600D01*
X120190943Y-94823713D01*
X120233789Y-94682467D01*
X120303366Y-94552299D01*
X120303367Y-94552297D01*
X120327758Y-94522576D01*
X120397002Y-94438201D01*
X120481377Y-94368957D01*
X120511098Y-94344566D01*
X120525987Y-94336608D01*
X120641268Y-94274988D01*
X120711891Y-94253565D01*
X120782513Y-94232142D01*
X120837554Y-94226721D01*
X120892594Y-94221300D01*
X122464808Y-94221300D01*
X122519848Y-94226721D01*
X122519848Y-94226721D01*
G37*
G36*
X170779848Y-94226721D02*
X170834889Y-94232142D01*
X170905511Y-94253565D01*
X170976134Y-94274988D01*
X171091415Y-94336608D01*
X171106304Y-94344566D01*
X171136025Y-94368957D01*
X171220400Y-94438201D01*
X171289644Y-94522576D01*
X171314035Y-94552297D01*
X171314036Y-94552299D01*
X171383613Y-94682467D01*
X171426459Y-94823713D01*
X171440926Y-94970600D01*
X171426459Y-95117487D01*
X171383613Y-95258733D01*
X171321993Y-95374014D01*
X171314035Y-95388903D01*
X171289644Y-95418624D01*
X171220400Y-95502999D01*
X171136025Y-95572243D01*
X171106304Y-95596634D01*
X171106302Y-95596635D01*
X170976134Y-95666212D01*
X170905511Y-95687635D01*
X170834889Y-95709058D01*
X170779848Y-95714479D01*
X170724808Y-95719900D01*
X169152594Y-95719900D01*
X169097554Y-95714479D01*
X169042513Y-95709058D01*
X168971891Y-95687635D01*
X168901268Y-95666212D01*
X168771100Y-95596635D01*
X168771098Y-95596634D01*
X168741377Y-95572243D01*
X168657002Y-95502999D01*
X168587758Y-95418624D01*
X168563367Y-95388903D01*
X168555409Y-95374014D01*
X168493789Y-95258733D01*
X168450943Y-95117487D01*
X168436476Y-94970600D01*
X168450943Y-94823713D01*
X168493789Y-94682467D01*
X168563366Y-94552299D01*
X168563367Y-94552297D01*
X168587758Y-94522576D01*
X168657002Y-94438201D01*
X168741377Y-94368957D01*
X168771098Y-94344566D01*
X168785987Y-94336608D01*
X168901268Y-94274988D01*
X168971891Y-94253565D01*
X169042513Y-94232142D01*
X169097554Y-94226721D01*
X169152594Y-94221300D01*
X170724808Y-94221300D01*
X170779848Y-94226721D01*
X170779848Y-94226721D01*
G37*
G36*
X122519848Y-91686721D02*
X122574889Y-91692142D01*
X122645511Y-91713565D01*
X122716134Y-91734988D01*
X122831415Y-91796608D01*
X122846304Y-91804566D01*
X122876025Y-91828957D01*
X122960400Y-91898201D01*
X123021283Y-91972389D01*
X123054035Y-92012297D01*
X123054036Y-92012299D01*
X123123613Y-92142467D01*
X123123613Y-92142468D01*
X123165418Y-92280279D01*
X123166459Y-92283713D01*
X123180926Y-92430600D01*
X123166459Y-92577487D01*
X123123613Y-92718733D01*
X123061993Y-92834014D01*
X123054035Y-92848903D01*
X123029644Y-92878624D01*
X122960400Y-92962999D01*
X122876025Y-93032243D01*
X122846304Y-93056634D01*
X122846302Y-93056635D01*
X122716134Y-93126212D01*
X122645511Y-93147635D01*
X122574889Y-93169058D01*
X122519848Y-93174479D01*
X122464808Y-93179900D01*
X120892594Y-93179900D01*
X120837554Y-93174479D01*
X120782513Y-93169058D01*
X120711891Y-93147635D01*
X120641268Y-93126212D01*
X120511100Y-93056635D01*
X120511098Y-93056634D01*
X120481377Y-93032243D01*
X120397002Y-92962999D01*
X120327758Y-92878624D01*
X120303367Y-92848903D01*
X120295409Y-92834014D01*
X120233789Y-92718733D01*
X120190943Y-92577487D01*
X120176476Y-92430600D01*
X120190943Y-92283713D01*
X120191985Y-92280279D01*
X120233789Y-92142468D01*
X120233789Y-92142467D01*
X120303366Y-92012299D01*
X120303367Y-92012297D01*
X120336119Y-91972389D01*
X120397002Y-91898201D01*
X120481377Y-91828957D01*
X120511098Y-91804566D01*
X120525987Y-91796608D01*
X120641268Y-91734988D01*
X120711891Y-91713565D01*
X120782513Y-91692142D01*
X120837554Y-91686721D01*
X120892594Y-91681300D01*
X122464808Y-91681300D01*
X122519848Y-91686721D01*
X122519848Y-91686721D01*
G37*
G36*
X170779848Y-91686721D02*
X170834889Y-91692142D01*
X170905511Y-91713565D01*
X170976134Y-91734988D01*
X171091415Y-91796608D01*
X171106304Y-91804566D01*
X171136025Y-91828957D01*
X171220400Y-91898201D01*
X171281283Y-91972389D01*
X171314035Y-92012297D01*
X171314036Y-92012299D01*
X171383613Y-92142467D01*
X171383613Y-92142468D01*
X171425418Y-92280279D01*
X171426459Y-92283713D01*
X171440926Y-92430600D01*
X171426459Y-92577487D01*
X171383613Y-92718733D01*
X171321993Y-92834014D01*
X171314035Y-92848903D01*
X171289644Y-92878624D01*
X171220400Y-92962999D01*
X171136025Y-93032243D01*
X171106304Y-93056634D01*
X171106302Y-93056635D01*
X170976134Y-93126212D01*
X170905511Y-93147635D01*
X170834889Y-93169058D01*
X170779848Y-93174479D01*
X170724808Y-93179900D01*
X169152594Y-93179900D01*
X169097554Y-93174479D01*
X169042513Y-93169058D01*
X168971891Y-93147635D01*
X168901268Y-93126212D01*
X168771100Y-93056635D01*
X168771098Y-93056634D01*
X168741377Y-93032243D01*
X168657002Y-92962999D01*
X168587758Y-92878624D01*
X168563367Y-92848903D01*
X168555409Y-92834014D01*
X168493789Y-92718733D01*
X168450943Y-92577487D01*
X168436476Y-92430600D01*
X168450943Y-92283713D01*
X168451985Y-92280279D01*
X168493789Y-92142468D01*
X168493789Y-92142467D01*
X168563366Y-92012299D01*
X168563367Y-92012297D01*
X168596119Y-91972389D01*
X168657002Y-91898201D01*
X168741377Y-91828957D01*
X168771098Y-91804566D01*
X168785987Y-91796608D01*
X168901268Y-91734988D01*
X168971891Y-91713565D01*
X169042513Y-91692142D01*
X169097554Y-91686721D01*
X169152594Y-91681300D01*
X170724808Y-91681300D01*
X170779848Y-91686721D01*
X170779848Y-91686721D01*
G37*
G36*
X155589230Y-90968059D02*
X155749455Y-91016663D01*
X155897120Y-91095591D01*
X156026549Y-91201811D01*
X156132769Y-91331240D01*
X156211697Y-91478905D01*
X156260301Y-91639130D01*
X156276712Y-91805760D01*
X156260301Y-91972390D01*
X156211697Y-92132615D01*
X156132769Y-92280280D01*
X156026549Y-92409709D01*
X155897120Y-92515929D01*
X155749455Y-92594857D01*
X155589230Y-92643461D01*
X155464352Y-92655760D01*
X155380848Y-92655760D01*
X155255970Y-92643461D01*
X155095745Y-92594857D01*
X154948080Y-92515929D01*
X154818651Y-92409709D01*
X154712431Y-92280280D01*
X154633503Y-92132615D01*
X154584899Y-91972390D01*
X154568488Y-91805760D01*
X154584899Y-91639130D01*
X154633503Y-91478905D01*
X154712431Y-91331240D01*
X154818651Y-91201811D01*
X154948080Y-91095591D01*
X155095745Y-91016663D01*
X155255970Y-90968059D01*
X155380848Y-90955760D01*
X155464352Y-90955760D01*
X155589230Y-90968059D01*
X155589230Y-90968059D01*
G37*
G36*
X147969230Y-90968059D02*
X148129455Y-91016663D01*
X148277120Y-91095591D01*
X148406549Y-91201811D01*
X148512769Y-91331240D01*
X148591697Y-91478905D01*
X148640301Y-91639130D01*
X148656712Y-91805760D01*
X148640301Y-91972390D01*
X148591697Y-92132615D01*
X148512769Y-92280280D01*
X148406549Y-92409709D01*
X148277120Y-92515929D01*
X148129455Y-92594857D01*
X147969230Y-92643461D01*
X147844352Y-92655760D01*
X147760848Y-92655760D01*
X147635970Y-92643461D01*
X147475745Y-92594857D01*
X147328080Y-92515929D01*
X147198651Y-92409709D01*
X147092431Y-92280280D01*
X147013503Y-92132615D01*
X146964899Y-91972390D01*
X146948488Y-91805760D01*
X146964899Y-91639130D01*
X147013503Y-91478905D01*
X147092431Y-91331240D01*
X147198651Y-91201811D01*
X147328080Y-91095591D01*
X147475745Y-91016663D01*
X147635970Y-90968059D01*
X147760848Y-90955760D01*
X147844352Y-90955760D01*
X147969230Y-90968059D01*
X147969230Y-90968059D01*
G37*
G36*
X150509230Y-90968059D02*
X150669455Y-91016663D01*
X150817120Y-91095591D01*
X150946549Y-91201811D01*
X151052769Y-91331240D01*
X151131697Y-91478905D01*
X151180301Y-91639130D01*
X151196712Y-91805760D01*
X151180301Y-91972390D01*
X151131697Y-92132615D01*
X151052769Y-92280280D01*
X150946549Y-92409709D01*
X150817120Y-92515929D01*
X150669455Y-92594857D01*
X150509230Y-92643461D01*
X150384352Y-92655760D01*
X150300848Y-92655760D01*
X150175970Y-92643461D01*
X150015745Y-92594857D01*
X149868080Y-92515929D01*
X149738651Y-92409709D01*
X149632431Y-92280280D01*
X149553503Y-92132615D01*
X149504899Y-91972390D01*
X149488488Y-91805760D01*
X149504899Y-91639130D01*
X149553503Y-91478905D01*
X149632431Y-91331240D01*
X149738651Y-91201811D01*
X149868080Y-91095591D01*
X150015745Y-91016663D01*
X150175970Y-90968059D01*
X150300848Y-90955760D01*
X150384352Y-90955760D01*
X150509230Y-90968059D01*
X150509230Y-90968059D01*
G37*
G36*
X146112600Y-92655760D02*
X144412600Y-92655760D01*
X144412600Y-90955760D01*
X146112600Y-90955760D01*
X146112600Y-92655760D01*
X146112600Y-92655760D01*
G37*
G36*
X153049230Y-90968059D02*
X153209455Y-91016663D01*
X153357120Y-91095591D01*
X153486549Y-91201811D01*
X153592769Y-91331240D01*
X153671697Y-91478905D01*
X153720301Y-91639130D01*
X153736712Y-91805760D01*
X153720301Y-91972390D01*
X153671697Y-92132615D01*
X153592769Y-92280280D01*
X153486549Y-92409709D01*
X153357120Y-92515929D01*
X153209455Y-92594857D01*
X153049230Y-92643461D01*
X152924352Y-92655760D01*
X152840848Y-92655760D01*
X152715970Y-92643461D01*
X152555745Y-92594857D01*
X152408080Y-92515929D01*
X152278651Y-92409709D01*
X152172431Y-92280280D01*
X152093503Y-92132615D01*
X152044899Y-91972390D01*
X152028488Y-91805760D01*
X152044899Y-91639130D01*
X152093503Y-91478905D01*
X152172431Y-91331240D01*
X152278651Y-91201811D01*
X152408080Y-91095591D01*
X152555745Y-91016663D01*
X152715970Y-90968059D01*
X152840848Y-90955760D01*
X152924352Y-90955760D01*
X153049230Y-90968059D01*
X153049230Y-90968059D01*
G37*
G36*
X170779848Y-89146721D02*
X170834889Y-89152142D01*
X170905511Y-89173565D01*
X170976134Y-89194988D01*
X171091415Y-89256608D01*
X171106304Y-89264566D01*
X171136025Y-89288957D01*
X171220400Y-89358201D01*
X171281283Y-89432389D01*
X171314035Y-89472297D01*
X171314036Y-89472299D01*
X171383613Y-89602467D01*
X171383613Y-89602468D01*
X171425418Y-89740279D01*
X171426459Y-89743713D01*
X171440926Y-89890600D01*
X171426459Y-90037487D01*
X171383613Y-90178733D01*
X171321993Y-90294014D01*
X171314035Y-90308903D01*
X171289644Y-90338624D01*
X171220400Y-90422999D01*
X171136025Y-90492243D01*
X171106304Y-90516634D01*
X171106302Y-90516635D01*
X170976134Y-90586212D01*
X170905511Y-90607635D01*
X170834889Y-90629058D01*
X170779848Y-90634479D01*
X170724808Y-90639900D01*
X169152594Y-90639900D01*
X169097554Y-90634479D01*
X169042513Y-90629058D01*
X168971891Y-90607635D01*
X168901268Y-90586212D01*
X168771100Y-90516635D01*
X168771098Y-90516634D01*
X168741377Y-90492243D01*
X168657002Y-90422999D01*
X168587758Y-90338624D01*
X168563367Y-90308903D01*
X168555409Y-90294014D01*
X168493789Y-90178733D01*
X168450943Y-90037487D01*
X168436476Y-89890600D01*
X168450943Y-89743713D01*
X168451985Y-89740279D01*
X168493789Y-89602468D01*
X168493789Y-89602467D01*
X168563366Y-89472299D01*
X168563367Y-89472297D01*
X168596119Y-89432389D01*
X168657002Y-89358201D01*
X168741377Y-89288957D01*
X168771098Y-89264566D01*
X168785987Y-89256608D01*
X168901268Y-89194988D01*
X168971891Y-89173565D01*
X169042513Y-89152142D01*
X169097554Y-89146721D01*
X169152594Y-89141300D01*
X170724808Y-89141300D01*
X170779848Y-89146721D01*
X170779848Y-89146721D01*
G37*
G36*
X122519848Y-89146721D02*
X122574889Y-89152142D01*
X122645511Y-89173565D01*
X122716134Y-89194988D01*
X122831415Y-89256608D01*
X122846304Y-89264566D01*
X122876025Y-89288957D01*
X122960400Y-89358201D01*
X123021283Y-89432389D01*
X123054035Y-89472297D01*
X123054036Y-89472299D01*
X123123613Y-89602467D01*
X123123613Y-89602468D01*
X123165418Y-89740279D01*
X123166459Y-89743713D01*
X123180926Y-89890600D01*
X123166459Y-90037487D01*
X123123613Y-90178733D01*
X123061993Y-90294014D01*
X123054035Y-90308903D01*
X123029644Y-90338624D01*
X122960400Y-90422999D01*
X122876025Y-90492243D01*
X122846304Y-90516634D01*
X122846302Y-90516635D01*
X122716134Y-90586212D01*
X122645511Y-90607635D01*
X122574889Y-90629058D01*
X122519848Y-90634479D01*
X122464808Y-90639900D01*
X120892594Y-90639900D01*
X120837554Y-90634479D01*
X120782513Y-90629058D01*
X120711891Y-90607635D01*
X120641268Y-90586212D01*
X120511100Y-90516635D01*
X120511098Y-90516634D01*
X120481377Y-90492243D01*
X120397002Y-90422999D01*
X120327758Y-90338624D01*
X120303367Y-90308903D01*
X120295409Y-90294014D01*
X120233789Y-90178733D01*
X120190943Y-90037487D01*
X120176476Y-89890600D01*
X120190943Y-89743713D01*
X120191985Y-89740279D01*
X120233789Y-89602468D01*
X120233789Y-89602467D01*
X120303366Y-89472299D01*
X120303367Y-89472297D01*
X120336119Y-89432389D01*
X120397002Y-89358201D01*
X120481377Y-89288957D01*
X120511098Y-89264566D01*
X120525987Y-89256608D01*
X120641268Y-89194988D01*
X120711891Y-89173565D01*
X120782513Y-89152142D01*
X120837554Y-89146721D01*
X120892594Y-89141300D01*
X122464808Y-89141300D01*
X122519848Y-89146721D01*
X122519848Y-89146721D01*
G37*
G36*
X147969230Y-88428059D02*
X148129455Y-88476663D01*
X148277120Y-88555591D01*
X148406549Y-88661811D01*
X148512769Y-88791240D01*
X148591697Y-88938905D01*
X148640301Y-89099130D01*
X148656712Y-89265760D01*
X148640301Y-89432390D01*
X148591697Y-89592615D01*
X148512769Y-89740280D01*
X148406549Y-89869709D01*
X148277120Y-89975929D01*
X148129455Y-90054857D01*
X147969230Y-90103461D01*
X147844352Y-90115760D01*
X147760848Y-90115760D01*
X147635970Y-90103461D01*
X147475745Y-90054857D01*
X147328080Y-89975929D01*
X147198651Y-89869709D01*
X147092431Y-89740280D01*
X147013503Y-89592615D01*
X146964899Y-89432390D01*
X146948488Y-89265760D01*
X146964899Y-89099130D01*
X147013503Y-88938905D01*
X147092431Y-88791240D01*
X147198651Y-88661811D01*
X147328080Y-88555591D01*
X147475745Y-88476663D01*
X147635970Y-88428059D01*
X147760848Y-88415760D01*
X147844352Y-88415760D01*
X147969230Y-88428059D01*
X147969230Y-88428059D01*
G37*
G36*
X145429230Y-88428059D02*
X145589455Y-88476663D01*
X145737120Y-88555591D01*
X145866549Y-88661811D01*
X145972769Y-88791240D01*
X146051697Y-88938905D01*
X146100301Y-89099130D01*
X146116712Y-89265760D01*
X146100301Y-89432390D01*
X146051697Y-89592615D01*
X145972769Y-89740280D01*
X145866549Y-89869709D01*
X145737120Y-89975929D01*
X145589455Y-90054857D01*
X145429230Y-90103461D01*
X145304352Y-90115760D01*
X145220848Y-90115760D01*
X145095970Y-90103461D01*
X144935745Y-90054857D01*
X144788080Y-89975929D01*
X144658651Y-89869709D01*
X144552431Y-89740280D01*
X144473503Y-89592615D01*
X144424899Y-89432390D01*
X144408488Y-89265760D01*
X144424899Y-89099130D01*
X144473503Y-88938905D01*
X144552431Y-88791240D01*
X144658651Y-88661811D01*
X144788080Y-88555591D01*
X144935745Y-88476663D01*
X145095970Y-88428059D01*
X145220848Y-88415760D01*
X145304352Y-88415760D01*
X145429230Y-88428059D01*
X145429230Y-88428059D01*
G37*
G36*
X150509230Y-88428059D02*
X150669455Y-88476663D01*
X150817120Y-88555591D01*
X150946549Y-88661811D01*
X151052769Y-88791240D01*
X151131697Y-88938905D01*
X151180301Y-89099130D01*
X151196712Y-89265760D01*
X151180301Y-89432390D01*
X151131697Y-89592615D01*
X151052769Y-89740280D01*
X150946549Y-89869709D01*
X150817120Y-89975929D01*
X150669455Y-90054857D01*
X150509230Y-90103461D01*
X150384352Y-90115760D01*
X150300848Y-90115760D01*
X150175970Y-90103461D01*
X150015745Y-90054857D01*
X149868080Y-89975929D01*
X149738651Y-89869709D01*
X149632431Y-89740280D01*
X149553503Y-89592615D01*
X149504899Y-89432390D01*
X149488488Y-89265760D01*
X149504899Y-89099130D01*
X149553503Y-88938905D01*
X149632431Y-88791240D01*
X149738651Y-88661811D01*
X149868080Y-88555591D01*
X150015745Y-88476663D01*
X150175970Y-88428059D01*
X150300848Y-88415760D01*
X150384352Y-88415760D01*
X150509230Y-88428059D01*
X150509230Y-88428059D01*
G37*
G36*
X153049230Y-88428059D02*
X153209455Y-88476663D01*
X153357120Y-88555591D01*
X153486549Y-88661811D01*
X153592769Y-88791240D01*
X153671697Y-88938905D01*
X153720301Y-89099130D01*
X153736712Y-89265760D01*
X153720301Y-89432390D01*
X153671697Y-89592615D01*
X153592769Y-89740280D01*
X153486549Y-89869709D01*
X153357120Y-89975929D01*
X153209455Y-90054857D01*
X153049230Y-90103461D01*
X152924352Y-90115760D01*
X152840848Y-90115760D01*
X152715970Y-90103461D01*
X152555745Y-90054857D01*
X152408080Y-89975929D01*
X152278651Y-89869709D01*
X152172431Y-89740280D01*
X152093503Y-89592615D01*
X152044899Y-89432390D01*
X152028488Y-89265760D01*
X152044899Y-89099130D01*
X152093503Y-88938905D01*
X152172431Y-88791240D01*
X152278651Y-88661811D01*
X152408080Y-88555591D01*
X152555745Y-88476663D01*
X152715970Y-88428059D01*
X152840848Y-88415760D01*
X152924352Y-88415760D01*
X153049230Y-88428059D01*
X153049230Y-88428059D01*
G37*
G36*
X155589230Y-88428059D02*
X155749455Y-88476663D01*
X155897120Y-88555591D01*
X156026549Y-88661811D01*
X156132769Y-88791240D01*
X156211697Y-88938905D01*
X156260301Y-89099130D01*
X156276712Y-89265760D01*
X156260301Y-89432390D01*
X156211697Y-89592615D01*
X156132769Y-89740280D01*
X156026549Y-89869709D01*
X155897120Y-89975929D01*
X155749455Y-90054857D01*
X155589230Y-90103461D01*
X155464352Y-90115760D01*
X155380848Y-90115760D01*
X155255970Y-90103461D01*
X155095745Y-90054857D01*
X154948080Y-89975929D01*
X154818651Y-89869709D01*
X154712431Y-89740280D01*
X154633503Y-89592615D01*
X154584899Y-89432390D01*
X154568488Y-89265760D01*
X154584899Y-89099130D01*
X154633503Y-88938905D01*
X154712431Y-88791240D01*
X154818651Y-88661811D01*
X154948080Y-88555591D01*
X155095745Y-88476663D01*
X155255970Y-88428059D01*
X155380848Y-88415760D01*
X155464352Y-88415760D01*
X155589230Y-88428059D01*
X155589230Y-88428059D01*
G37*
G36*
X122519848Y-86606721D02*
X122574889Y-86612142D01*
X122645511Y-86633565D01*
X122716134Y-86654988D01*
X122831415Y-86716608D01*
X122846304Y-86724566D01*
X122876025Y-86748957D01*
X122960400Y-86818201D01*
X123029644Y-86902576D01*
X123054035Y-86932297D01*
X123054036Y-86932299D01*
X123123613Y-87062467D01*
X123166459Y-87203713D01*
X123180926Y-87350600D01*
X123166459Y-87497487D01*
X123123613Y-87638733D01*
X123061993Y-87754014D01*
X123054035Y-87768903D01*
X123029644Y-87798624D01*
X122960400Y-87882999D01*
X122876025Y-87952243D01*
X122846304Y-87976634D01*
X122846302Y-87976635D01*
X122716134Y-88046212D01*
X122645511Y-88067635D01*
X122574889Y-88089058D01*
X122519848Y-88094479D01*
X122464808Y-88099900D01*
X120892594Y-88099900D01*
X120837554Y-88094479D01*
X120782513Y-88089058D01*
X120711891Y-88067635D01*
X120641268Y-88046212D01*
X120511100Y-87976635D01*
X120511098Y-87976634D01*
X120481377Y-87952243D01*
X120397002Y-87882999D01*
X120327758Y-87798624D01*
X120303367Y-87768903D01*
X120295409Y-87754014D01*
X120233789Y-87638733D01*
X120190943Y-87497487D01*
X120176476Y-87350600D01*
X120190943Y-87203713D01*
X120233789Y-87062467D01*
X120303366Y-86932299D01*
X120303367Y-86932297D01*
X120327758Y-86902576D01*
X120397002Y-86818201D01*
X120481377Y-86748957D01*
X120511098Y-86724566D01*
X120525987Y-86716608D01*
X120641268Y-86654988D01*
X120711891Y-86633565D01*
X120782513Y-86612142D01*
X120837554Y-86606721D01*
X120892594Y-86601300D01*
X122464808Y-86601300D01*
X122519848Y-86606721D01*
X122519848Y-86606721D01*
G37*
G36*
X170779848Y-86606721D02*
X170834889Y-86612142D01*
X170905511Y-86633565D01*
X170976134Y-86654988D01*
X171091415Y-86716608D01*
X171106304Y-86724566D01*
X171136025Y-86748957D01*
X171220400Y-86818201D01*
X171289644Y-86902576D01*
X171314035Y-86932297D01*
X171314036Y-86932299D01*
X171383613Y-87062467D01*
X171426459Y-87203713D01*
X171440926Y-87350600D01*
X171426459Y-87497487D01*
X171383613Y-87638733D01*
X171321993Y-87754014D01*
X171314035Y-87768903D01*
X171289644Y-87798624D01*
X171220400Y-87882999D01*
X171136025Y-87952243D01*
X171106304Y-87976634D01*
X171106302Y-87976635D01*
X170976134Y-88046212D01*
X170905511Y-88067635D01*
X170834889Y-88089058D01*
X170779848Y-88094479D01*
X170724808Y-88099900D01*
X169152594Y-88099900D01*
X169097554Y-88094479D01*
X169042513Y-88089058D01*
X168971891Y-88067635D01*
X168901268Y-88046212D01*
X168771100Y-87976635D01*
X168771098Y-87976634D01*
X168741377Y-87952243D01*
X168657002Y-87882999D01*
X168587758Y-87798624D01*
X168563367Y-87768903D01*
X168555409Y-87754014D01*
X168493789Y-87638733D01*
X168450943Y-87497487D01*
X168436476Y-87350600D01*
X168450943Y-87203713D01*
X168493789Y-87062467D01*
X168563366Y-86932299D01*
X168563367Y-86932297D01*
X168587758Y-86902576D01*
X168657002Y-86818201D01*
X168741377Y-86748957D01*
X168771098Y-86724566D01*
X168785987Y-86716608D01*
X168901268Y-86654988D01*
X168971891Y-86633565D01*
X169042513Y-86612142D01*
X169097554Y-86606721D01*
X169152594Y-86601300D01*
X170724808Y-86601300D01*
X170779848Y-86606721D01*
X170779848Y-86606721D01*
G37*
G36*
X122519848Y-84066721D02*
X122574889Y-84072142D01*
X122645511Y-84093565D01*
X122716134Y-84114988D01*
X122831415Y-84176608D01*
X122846304Y-84184566D01*
X122876025Y-84208957D01*
X122960400Y-84278201D01*
X123029644Y-84362576D01*
X123054035Y-84392297D01*
X123054036Y-84392299D01*
X123123613Y-84522467D01*
X123166459Y-84663713D01*
X123180926Y-84810600D01*
X123166459Y-84957487D01*
X123123613Y-85098733D01*
X123061993Y-85214014D01*
X123054035Y-85228903D01*
X123029644Y-85258624D01*
X122960400Y-85342999D01*
X122876025Y-85412243D01*
X122846304Y-85436634D01*
X122846302Y-85436635D01*
X122716134Y-85506212D01*
X122645511Y-85527635D01*
X122574889Y-85549058D01*
X122519848Y-85554479D01*
X122464808Y-85559900D01*
X120892594Y-85559900D01*
X120837554Y-85554479D01*
X120782513Y-85549058D01*
X120711891Y-85527635D01*
X120641268Y-85506212D01*
X120511100Y-85436635D01*
X120511098Y-85436634D01*
X120481377Y-85412243D01*
X120397002Y-85342999D01*
X120327758Y-85258624D01*
X120303367Y-85228903D01*
X120295409Y-85214014D01*
X120233789Y-85098733D01*
X120190943Y-84957487D01*
X120176476Y-84810600D01*
X120190943Y-84663713D01*
X120233789Y-84522467D01*
X120303366Y-84392299D01*
X120303367Y-84392297D01*
X120327758Y-84362576D01*
X120397002Y-84278201D01*
X120481377Y-84208957D01*
X120511098Y-84184566D01*
X120525987Y-84176608D01*
X120641268Y-84114988D01*
X120711891Y-84093565D01*
X120782513Y-84072142D01*
X120837554Y-84066721D01*
X120892594Y-84061300D01*
X122464808Y-84061300D01*
X122519848Y-84066721D01*
X122519848Y-84066721D01*
G37*
G36*
X170779848Y-84066721D02*
X170834889Y-84072142D01*
X170905511Y-84093565D01*
X170976134Y-84114988D01*
X171091415Y-84176608D01*
X171106304Y-84184566D01*
X171136025Y-84208957D01*
X171220400Y-84278201D01*
X171289644Y-84362576D01*
X171314035Y-84392297D01*
X171314036Y-84392299D01*
X171383613Y-84522467D01*
X171426459Y-84663713D01*
X171440926Y-84810600D01*
X171426459Y-84957487D01*
X171383613Y-85098733D01*
X171321993Y-85214014D01*
X171314035Y-85228903D01*
X171289644Y-85258624D01*
X171220400Y-85342999D01*
X171136025Y-85412243D01*
X171106304Y-85436634D01*
X171106302Y-85436635D01*
X170976134Y-85506212D01*
X170905511Y-85527635D01*
X170834889Y-85549058D01*
X170779848Y-85554479D01*
X170724808Y-85559900D01*
X169152594Y-85559900D01*
X169097554Y-85554479D01*
X169042513Y-85549058D01*
X168971891Y-85527635D01*
X168901268Y-85506212D01*
X168771100Y-85436635D01*
X168771098Y-85436634D01*
X168741377Y-85412243D01*
X168657002Y-85342999D01*
X168587758Y-85258624D01*
X168563367Y-85228903D01*
X168555409Y-85214014D01*
X168493789Y-85098733D01*
X168450943Y-84957487D01*
X168436476Y-84810600D01*
X168450943Y-84663713D01*
X168493789Y-84522467D01*
X168563366Y-84392299D01*
X168563367Y-84392297D01*
X168587758Y-84362576D01*
X168657002Y-84278201D01*
X168741377Y-84208957D01*
X168771098Y-84184566D01*
X168785987Y-84176608D01*
X168901268Y-84114988D01*
X168971891Y-84093565D01*
X169042513Y-84072142D01*
X169097554Y-84066721D01*
X169152594Y-84061300D01*
X170724808Y-84061300D01*
X170779848Y-84066721D01*
X170779848Y-84066721D01*
G37*
G36*
X122519848Y-81526721D02*
X122574889Y-81532142D01*
X122645511Y-81553565D01*
X122716134Y-81574988D01*
X122831415Y-81636608D01*
X122846304Y-81644566D01*
X122876025Y-81668957D01*
X122960400Y-81738201D01*
X123029644Y-81822576D01*
X123054035Y-81852297D01*
X123054036Y-81852299D01*
X123123613Y-81982467D01*
X123166459Y-82123713D01*
X123180926Y-82270600D01*
X123166459Y-82417487D01*
X123123613Y-82558733D01*
X123061993Y-82674014D01*
X123054035Y-82688903D01*
X123029644Y-82718624D01*
X122960400Y-82802999D01*
X122876025Y-82872243D01*
X122846304Y-82896634D01*
X122846302Y-82896635D01*
X122716134Y-82966212D01*
X122645511Y-82987635D01*
X122574889Y-83009058D01*
X122519848Y-83014479D01*
X122464808Y-83019900D01*
X120892594Y-83019900D01*
X120837554Y-83014479D01*
X120782513Y-83009058D01*
X120711891Y-82987635D01*
X120641268Y-82966212D01*
X120511100Y-82896635D01*
X120511098Y-82896634D01*
X120481377Y-82872243D01*
X120397002Y-82802999D01*
X120327758Y-82718624D01*
X120303367Y-82688903D01*
X120295409Y-82674014D01*
X120233789Y-82558733D01*
X120190943Y-82417487D01*
X120176476Y-82270600D01*
X120190943Y-82123713D01*
X120233789Y-81982467D01*
X120303366Y-81852299D01*
X120303367Y-81852297D01*
X120327758Y-81822576D01*
X120397002Y-81738201D01*
X120481377Y-81668957D01*
X120511098Y-81644566D01*
X120525987Y-81636608D01*
X120641268Y-81574988D01*
X120711891Y-81553565D01*
X120782513Y-81532142D01*
X120837554Y-81526721D01*
X120892594Y-81521300D01*
X122464808Y-81521300D01*
X122519848Y-81526721D01*
X122519848Y-81526721D01*
G37*
G36*
X170779848Y-81526721D02*
X170834889Y-81532142D01*
X170905511Y-81553565D01*
X170976134Y-81574988D01*
X171091415Y-81636608D01*
X171106304Y-81644566D01*
X171136025Y-81668957D01*
X171220400Y-81738201D01*
X171289644Y-81822576D01*
X171314035Y-81852297D01*
X171314036Y-81852299D01*
X171383613Y-81982467D01*
X171426459Y-82123713D01*
X171440926Y-82270600D01*
X171426459Y-82417487D01*
X171383613Y-82558733D01*
X171321993Y-82674014D01*
X171314035Y-82688903D01*
X171289644Y-82718624D01*
X171220400Y-82802999D01*
X171136025Y-82872243D01*
X171106304Y-82896634D01*
X171106302Y-82896635D01*
X170976134Y-82966212D01*
X170905511Y-82987635D01*
X170834889Y-83009058D01*
X170779848Y-83014479D01*
X170724808Y-83019900D01*
X169152594Y-83019900D01*
X169097554Y-83014479D01*
X169042513Y-83009058D01*
X168971891Y-82987635D01*
X168901268Y-82966212D01*
X168771100Y-82896635D01*
X168771098Y-82896634D01*
X168741377Y-82872243D01*
X168657002Y-82802999D01*
X168587758Y-82718624D01*
X168563367Y-82688903D01*
X168555409Y-82674014D01*
X168493789Y-82558733D01*
X168450943Y-82417487D01*
X168436476Y-82270600D01*
X168450943Y-82123713D01*
X168493789Y-81982467D01*
X168563366Y-81852299D01*
X168563367Y-81852297D01*
X168587758Y-81822576D01*
X168657002Y-81738201D01*
X168741377Y-81668957D01*
X168771098Y-81644566D01*
X168785987Y-81636608D01*
X168901268Y-81574988D01*
X168971891Y-81553565D01*
X169042513Y-81532142D01*
X169097554Y-81526721D01*
X169152594Y-81521300D01*
X170724808Y-81521300D01*
X170779848Y-81526721D01*
X170779848Y-81526721D01*
G37*
G36*
X122519848Y-78986721D02*
X122574889Y-78992142D01*
X122645511Y-79013565D01*
X122716134Y-79034988D01*
X122831415Y-79096608D01*
X122846304Y-79104566D01*
X122876025Y-79128957D01*
X122960400Y-79198201D01*
X123029644Y-79282576D01*
X123054035Y-79312297D01*
X123054036Y-79312299D01*
X123123613Y-79442467D01*
X123166459Y-79583713D01*
X123180926Y-79730600D01*
X123166459Y-79877487D01*
X123123613Y-80018733D01*
X123061993Y-80134014D01*
X123054035Y-80148903D01*
X123029644Y-80178624D01*
X122960400Y-80262999D01*
X122876025Y-80332243D01*
X122846304Y-80356634D01*
X122846302Y-80356635D01*
X122716134Y-80426212D01*
X122645511Y-80447635D01*
X122574889Y-80469058D01*
X122519848Y-80474479D01*
X122464808Y-80479900D01*
X120892594Y-80479900D01*
X120837554Y-80474479D01*
X120782513Y-80469058D01*
X120711891Y-80447635D01*
X120641268Y-80426212D01*
X120511100Y-80356635D01*
X120511098Y-80356634D01*
X120481377Y-80332243D01*
X120397002Y-80262999D01*
X120327758Y-80178624D01*
X120303367Y-80148903D01*
X120295409Y-80134014D01*
X120233789Y-80018733D01*
X120190943Y-79877487D01*
X120176476Y-79730600D01*
X120190943Y-79583713D01*
X120233789Y-79442467D01*
X120303366Y-79312299D01*
X120303367Y-79312297D01*
X120327758Y-79282576D01*
X120397002Y-79198201D01*
X120481377Y-79128957D01*
X120511098Y-79104566D01*
X120525987Y-79096608D01*
X120641268Y-79034988D01*
X120711891Y-79013565D01*
X120782513Y-78992142D01*
X120837554Y-78986721D01*
X120892594Y-78981300D01*
X122464808Y-78981300D01*
X122519848Y-78986721D01*
X122519848Y-78986721D01*
G37*
G36*
X170779848Y-78986721D02*
X170834889Y-78992142D01*
X170905511Y-79013565D01*
X170976134Y-79034988D01*
X171091415Y-79096608D01*
X171106304Y-79104566D01*
X171136025Y-79128957D01*
X171220400Y-79198201D01*
X171289644Y-79282576D01*
X171314035Y-79312297D01*
X171314036Y-79312299D01*
X171383613Y-79442467D01*
X171426459Y-79583713D01*
X171440926Y-79730600D01*
X171426459Y-79877487D01*
X171383613Y-80018733D01*
X171321993Y-80134014D01*
X171314035Y-80148903D01*
X171289644Y-80178624D01*
X171220400Y-80262999D01*
X171136025Y-80332243D01*
X171106304Y-80356634D01*
X171106302Y-80356635D01*
X170976134Y-80426212D01*
X170905511Y-80447635D01*
X170834889Y-80469058D01*
X170779848Y-80474479D01*
X170724808Y-80479900D01*
X169152594Y-80479900D01*
X169097554Y-80474479D01*
X169042513Y-80469058D01*
X168971891Y-80447635D01*
X168901268Y-80426212D01*
X168771100Y-80356635D01*
X168771098Y-80356634D01*
X168741377Y-80332243D01*
X168657002Y-80262999D01*
X168587758Y-80178624D01*
X168563367Y-80148903D01*
X168555409Y-80134014D01*
X168493789Y-80018733D01*
X168450943Y-79877487D01*
X168436476Y-79730600D01*
X168450943Y-79583713D01*
X168493789Y-79442467D01*
X168563366Y-79312299D01*
X168563367Y-79312297D01*
X168587758Y-79282576D01*
X168657002Y-79198201D01*
X168741377Y-79128957D01*
X168771098Y-79104566D01*
X168785987Y-79096608D01*
X168901268Y-79034988D01*
X168971891Y-79013565D01*
X169042513Y-78992142D01*
X169097554Y-78986721D01*
X169152594Y-78981300D01*
X170724808Y-78981300D01*
X170779848Y-78986721D01*
X170779848Y-78986721D01*
G37*
G36*
X170779848Y-76446721D02*
X170834889Y-76452142D01*
X170905511Y-76473565D01*
X170976134Y-76494988D01*
X171091415Y-76556608D01*
X171106304Y-76564566D01*
X171136025Y-76588957D01*
X171220400Y-76658201D01*
X171289644Y-76742576D01*
X171314035Y-76772297D01*
X171314036Y-76772299D01*
X171383613Y-76902467D01*
X171426459Y-77043713D01*
X171440926Y-77190600D01*
X171426459Y-77337487D01*
X171383613Y-77478733D01*
X171321993Y-77594014D01*
X171314035Y-77608903D01*
X171289644Y-77638624D01*
X171220400Y-77722999D01*
X171136025Y-77792243D01*
X171106304Y-77816634D01*
X171106302Y-77816635D01*
X170976134Y-77886212D01*
X170905511Y-77907635D01*
X170834889Y-77929058D01*
X170779848Y-77934479D01*
X170724808Y-77939900D01*
X169152594Y-77939900D01*
X169097554Y-77934479D01*
X169042513Y-77929058D01*
X168971891Y-77907635D01*
X168901268Y-77886212D01*
X168771100Y-77816635D01*
X168771098Y-77816634D01*
X168741377Y-77792243D01*
X168657002Y-77722999D01*
X168587758Y-77638624D01*
X168563367Y-77608903D01*
X168555409Y-77594014D01*
X168493789Y-77478733D01*
X168450943Y-77337487D01*
X168436476Y-77190600D01*
X168450943Y-77043713D01*
X168493789Y-76902467D01*
X168563366Y-76772299D01*
X168563367Y-76772297D01*
X168587758Y-76742576D01*
X168657002Y-76658201D01*
X168741377Y-76588957D01*
X168771098Y-76564566D01*
X168785987Y-76556608D01*
X168901268Y-76494988D01*
X168971891Y-76473565D01*
X169042513Y-76452142D01*
X169097554Y-76446721D01*
X169152594Y-76441300D01*
X170724808Y-76441300D01*
X170779848Y-76446721D01*
X170779848Y-76446721D01*
G37*
G36*
X122519848Y-76446721D02*
X122574889Y-76452142D01*
X122645511Y-76473565D01*
X122716134Y-76494988D01*
X122831415Y-76556608D01*
X122846304Y-76564566D01*
X122876025Y-76588957D01*
X122960400Y-76658201D01*
X123029644Y-76742576D01*
X123054035Y-76772297D01*
X123054036Y-76772299D01*
X123123613Y-76902467D01*
X123166459Y-77043713D01*
X123180926Y-77190600D01*
X123166459Y-77337487D01*
X123123613Y-77478733D01*
X123061993Y-77594014D01*
X123054035Y-77608903D01*
X123029644Y-77638624D01*
X122960400Y-77722999D01*
X122876025Y-77792243D01*
X122846304Y-77816634D01*
X122846302Y-77816635D01*
X122716134Y-77886212D01*
X122645511Y-77907635D01*
X122574889Y-77929058D01*
X122519848Y-77934479D01*
X122464808Y-77939900D01*
X120892594Y-77939900D01*
X120837554Y-77934479D01*
X120782513Y-77929058D01*
X120711891Y-77907635D01*
X120641268Y-77886212D01*
X120511100Y-77816635D01*
X120511098Y-77816634D01*
X120481377Y-77792243D01*
X120397002Y-77722999D01*
X120327758Y-77638624D01*
X120303367Y-77608903D01*
X120295409Y-77594014D01*
X120233789Y-77478733D01*
X120190943Y-77337487D01*
X120176476Y-77190600D01*
X120190943Y-77043713D01*
X120233789Y-76902467D01*
X120303366Y-76772299D01*
X120303367Y-76772297D01*
X120327758Y-76742576D01*
X120397002Y-76658201D01*
X120481377Y-76588957D01*
X120511098Y-76564566D01*
X120525987Y-76556608D01*
X120641268Y-76494988D01*
X120711891Y-76473565D01*
X120782513Y-76452142D01*
X120837554Y-76446721D01*
X120892594Y-76441300D01*
X122464808Y-76441300D01*
X122519848Y-76446721D01*
X122519848Y-76446721D01*
G37*
G36*
X170779848Y-73906721D02*
X170834889Y-73912142D01*
X170905511Y-73933565D01*
X170976134Y-73954988D01*
X171091415Y-74016608D01*
X171106304Y-74024566D01*
X171136025Y-74048957D01*
X171220400Y-74118201D01*
X171289644Y-74202576D01*
X171314035Y-74232297D01*
X171314036Y-74232299D01*
X171383613Y-74362467D01*
X171426459Y-74503713D01*
X171440926Y-74650600D01*
X171426459Y-74797487D01*
X171383613Y-74938733D01*
X171321993Y-75054014D01*
X171314035Y-75068903D01*
X171289644Y-75098624D01*
X171220400Y-75182999D01*
X171136025Y-75252243D01*
X171106304Y-75276634D01*
X171106302Y-75276635D01*
X170976134Y-75346212D01*
X170905511Y-75367635D01*
X170834889Y-75389058D01*
X170779848Y-75394479D01*
X170724808Y-75399900D01*
X169152594Y-75399900D01*
X169097554Y-75394479D01*
X169042513Y-75389058D01*
X168971891Y-75367635D01*
X168901268Y-75346212D01*
X168771100Y-75276635D01*
X168771098Y-75276634D01*
X168741377Y-75252243D01*
X168657002Y-75182999D01*
X168587758Y-75098624D01*
X168563367Y-75068903D01*
X168555409Y-75054014D01*
X168493789Y-74938733D01*
X168450943Y-74797487D01*
X168436476Y-74650600D01*
X168450943Y-74503713D01*
X168493789Y-74362467D01*
X168563366Y-74232299D01*
X168563367Y-74232297D01*
X168587758Y-74202576D01*
X168657002Y-74118201D01*
X168741377Y-74048957D01*
X168771098Y-74024566D01*
X168785987Y-74016608D01*
X168901268Y-73954988D01*
X168971891Y-73933565D01*
X169042513Y-73912142D01*
X169097554Y-73906721D01*
X169152594Y-73901300D01*
X170724808Y-73901300D01*
X170779848Y-73906721D01*
X170779848Y-73906721D01*
G37*
G36*
X122519848Y-73906721D02*
X122574889Y-73912142D01*
X122645511Y-73933565D01*
X122716134Y-73954988D01*
X122831415Y-74016608D01*
X122846304Y-74024566D01*
X122876025Y-74048957D01*
X122960400Y-74118201D01*
X123029644Y-74202576D01*
X123054035Y-74232297D01*
X123054036Y-74232299D01*
X123123613Y-74362467D01*
X123166459Y-74503713D01*
X123180926Y-74650600D01*
X123166459Y-74797487D01*
X123123613Y-74938733D01*
X123061993Y-75054014D01*
X123054035Y-75068903D01*
X123029644Y-75098624D01*
X122960400Y-75182999D01*
X122876025Y-75252243D01*
X122846304Y-75276634D01*
X122846302Y-75276635D01*
X122716134Y-75346212D01*
X122645511Y-75367635D01*
X122574889Y-75389058D01*
X122519848Y-75394479D01*
X122464808Y-75399900D01*
X120892594Y-75399900D01*
X120837554Y-75394479D01*
X120782513Y-75389058D01*
X120711891Y-75367635D01*
X120641268Y-75346212D01*
X120511100Y-75276635D01*
X120511098Y-75276634D01*
X120481377Y-75252243D01*
X120397002Y-75182999D01*
X120327758Y-75098624D01*
X120303367Y-75068903D01*
X120295409Y-75054014D01*
X120233789Y-74938733D01*
X120190943Y-74797487D01*
X120176476Y-74650600D01*
X120190943Y-74503713D01*
X120233789Y-74362467D01*
X120303366Y-74232299D01*
X120303367Y-74232297D01*
X120327758Y-74202576D01*
X120397002Y-74118201D01*
X120481377Y-74048957D01*
X120511098Y-74024566D01*
X120525987Y-74016608D01*
X120641268Y-73954988D01*
X120711891Y-73933565D01*
X120782513Y-73912142D01*
X120837554Y-73906721D01*
X120892594Y-73901300D01*
X122464808Y-73901300D01*
X122519848Y-73906721D01*
X122519848Y-73906721D01*
G37*
G36*
X170779848Y-71366721D02*
X170834889Y-71372142D01*
X170905511Y-71393565D01*
X170976134Y-71414988D01*
X171091415Y-71476608D01*
X171106304Y-71484566D01*
X171136025Y-71508957D01*
X171220400Y-71578201D01*
X171289644Y-71662576D01*
X171314035Y-71692297D01*
X171314036Y-71692299D01*
X171383613Y-71822467D01*
X171426459Y-71963713D01*
X171440926Y-72110600D01*
X171426459Y-72257487D01*
X171383613Y-72398733D01*
X171321993Y-72514014D01*
X171314035Y-72528903D01*
X171289644Y-72558624D01*
X171220400Y-72642999D01*
X171136025Y-72712243D01*
X171106304Y-72736634D01*
X171106302Y-72736635D01*
X170976134Y-72806212D01*
X170905511Y-72827635D01*
X170834889Y-72849058D01*
X170779848Y-72854479D01*
X170724808Y-72859900D01*
X169152594Y-72859900D01*
X169097554Y-72854479D01*
X169042513Y-72849058D01*
X168971891Y-72827635D01*
X168901268Y-72806212D01*
X168771100Y-72736635D01*
X168771098Y-72736634D01*
X168741377Y-72712243D01*
X168657002Y-72642999D01*
X168587758Y-72558624D01*
X168563367Y-72528903D01*
X168555409Y-72514014D01*
X168493789Y-72398733D01*
X168450943Y-72257487D01*
X168436476Y-72110600D01*
X168450943Y-71963713D01*
X168493789Y-71822467D01*
X168563366Y-71692299D01*
X168563367Y-71692297D01*
X168587758Y-71662576D01*
X168657002Y-71578201D01*
X168741377Y-71508957D01*
X168771098Y-71484566D01*
X168785987Y-71476608D01*
X168901268Y-71414988D01*
X168971891Y-71393565D01*
X169042513Y-71372142D01*
X169097554Y-71366721D01*
X169152594Y-71361300D01*
X170724808Y-71361300D01*
X170779848Y-71366721D01*
X170779848Y-71366721D01*
G37*
G36*
X122519848Y-71366721D02*
X122574889Y-71372142D01*
X122645511Y-71393565D01*
X122716134Y-71414988D01*
X122831415Y-71476608D01*
X122846304Y-71484566D01*
X122876025Y-71508957D01*
X122960400Y-71578201D01*
X123029644Y-71662576D01*
X123054035Y-71692297D01*
X123054036Y-71692299D01*
X123123613Y-71822467D01*
X123166459Y-71963713D01*
X123180926Y-72110600D01*
X123166459Y-72257487D01*
X123123613Y-72398733D01*
X123061993Y-72514014D01*
X123054035Y-72528903D01*
X123029644Y-72558624D01*
X122960400Y-72642999D01*
X122876025Y-72712243D01*
X122846304Y-72736634D01*
X122846302Y-72736635D01*
X122716134Y-72806212D01*
X122645511Y-72827635D01*
X122574889Y-72849058D01*
X122519848Y-72854479D01*
X122464808Y-72859900D01*
X120892594Y-72859900D01*
X120837554Y-72854479D01*
X120782513Y-72849058D01*
X120711891Y-72827635D01*
X120641268Y-72806212D01*
X120511100Y-72736635D01*
X120511098Y-72736634D01*
X120481377Y-72712243D01*
X120397002Y-72642999D01*
X120327758Y-72558624D01*
X120303367Y-72528903D01*
X120295409Y-72514014D01*
X120233789Y-72398733D01*
X120190943Y-72257487D01*
X120176476Y-72110600D01*
X120190943Y-71963713D01*
X120233789Y-71822467D01*
X120303366Y-71692299D01*
X120303367Y-71692297D01*
X120327758Y-71662576D01*
X120397002Y-71578201D01*
X120481377Y-71508957D01*
X120511098Y-71484566D01*
X120525987Y-71476608D01*
X120641268Y-71414988D01*
X120711891Y-71393565D01*
X120782513Y-71372142D01*
X120837554Y-71366721D01*
X120892594Y-71361300D01*
X122464808Y-71361300D01*
X122519848Y-71366721D01*
X122519848Y-71366721D01*
G37*
G36*
X127570600Y-70446000D02*
X125870600Y-70446000D01*
X125870600Y-68746000D01*
X127570600Y-68746000D01*
X127570600Y-70446000D01*
X127570600Y-70446000D01*
G37*
G36*
X131967230Y-68758299D02*
X132127455Y-68806903D01*
X132275120Y-68885831D01*
X132404549Y-68992051D01*
X132510769Y-69121480D01*
X132589697Y-69269145D01*
X132638301Y-69429370D01*
X132654712Y-69596000D01*
X132638301Y-69762630D01*
X132589697Y-69922855D01*
X132510769Y-70070520D01*
X132404549Y-70199949D01*
X132275120Y-70306169D01*
X132127455Y-70385097D01*
X131967230Y-70433701D01*
X131842352Y-70446000D01*
X131758848Y-70446000D01*
X131633970Y-70433701D01*
X131473745Y-70385097D01*
X131326080Y-70306169D01*
X131196651Y-70199949D01*
X131090431Y-70070520D01*
X131011503Y-69922855D01*
X130962899Y-69762630D01*
X130946488Y-69596000D01*
X130962899Y-69429370D01*
X131011503Y-69269145D01*
X131090431Y-69121480D01*
X131196651Y-68992051D01*
X131326080Y-68885831D01*
X131473745Y-68806903D01*
X131633970Y-68758299D01*
X131758848Y-68746000D01*
X131842352Y-68746000D01*
X131967230Y-68758299D01*
X131967230Y-68758299D01*
G37*
G36*
X129427230Y-68758299D02*
X129587455Y-68806903D01*
X129735120Y-68885831D01*
X129864549Y-68992051D01*
X129970769Y-69121480D01*
X130049697Y-69269145D01*
X130098301Y-69429370D01*
X130114712Y-69596000D01*
X130098301Y-69762630D01*
X130049697Y-69922855D01*
X129970769Y-70070520D01*
X129864549Y-70199949D01*
X129735120Y-70306169D01*
X129587455Y-70385097D01*
X129427230Y-70433701D01*
X129302352Y-70446000D01*
X129218848Y-70446000D01*
X129093970Y-70433701D01*
X128933745Y-70385097D01*
X128786080Y-70306169D01*
X128656651Y-70199949D01*
X128550431Y-70070520D01*
X128471503Y-69922855D01*
X128422899Y-69762630D01*
X128406488Y-69596000D01*
X128422899Y-69429370D01*
X128471503Y-69269145D01*
X128550431Y-69121480D01*
X128656651Y-68992051D01*
X128786080Y-68885831D01*
X128933745Y-68806903D01*
X129093970Y-68758299D01*
X129218848Y-68746000D01*
X129302352Y-68746000D01*
X129427230Y-68758299D01*
X129427230Y-68758299D01*
G37*
G36*
X170779848Y-68826721D02*
X170834889Y-68832142D01*
X170905511Y-68853565D01*
X170976134Y-68874988D01*
X170996421Y-68885832D01*
X171106304Y-68944566D01*
X171136025Y-68968957D01*
X171220400Y-69038201D01*
X171288744Y-69121480D01*
X171314035Y-69152297D01*
X171314036Y-69152299D01*
X171383613Y-69282467D01*
X171383613Y-69282468D01*
X171426459Y-69423712D01*
X171440926Y-69570600D01*
X171426459Y-69717488D01*
X171412765Y-69762630D01*
X171383613Y-69858733D01*
X171321993Y-69974014D01*
X171314035Y-69988903D01*
X171289644Y-70018624D01*
X171220400Y-70102999D01*
X171136025Y-70172243D01*
X171106304Y-70196634D01*
X171106302Y-70196635D01*
X170976134Y-70266212D01*
X170905511Y-70287635D01*
X170834889Y-70309058D01*
X170779848Y-70314479D01*
X170724808Y-70319900D01*
X169152594Y-70319900D01*
X169097554Y-70314479D01*
X169042513Y-70309058D01*
X168971891Y-70287635D01*
X168901268Y-70266212D01*
X168771100Y-70196635D01*
X168771098Y-70196634D01*
X168741377Y-70172243D01*
X168657002Y-70102999D01*
X168587758Y-70018624D01*
X168563367Y-69988903D01*
X168555409Y-69974014D01*
X168493789Y-69858733D01*
X168464637Y-69762630D01*
X168450943Y-69717488D01*
X168436476Y-69570600D01*
X168450943Y-69423712D01*
X168493789Y-69282468D01*
X168493789Y-69282467D01*
X168563366Y-69152299D01*
X168563367Y-69152297D01*
X168588658Y-69121480D01*
X168657002Y-69038201D01*
X168741377Y-68968957D01*
X168771098Y-68944566D01*
X168880981Y-68885832D01*
X168901268Y-68874988D01*
X168971891Y-68853565D01*
X169042513Y-68832142D01*
X169097554Y-68826721D01*
X169152594Y-68821300D01*
X170724808Y-68821300D01*
X170779848Y-68826721D01*
X170779848Y-68826721D01*
G37*
G36*
X122519848Y-68826721D02*
X122574889Y-68832142D01*
X122645511Y-68853565D01*
X122716134Y-68874988D01*
X122736421Y-68885832D01*
X122846304Y-68944566D01*
X122876025Y-68968957D01*
X122960400Y-69038201D01*
X123028744Y-69121480D01*
X123054035Y-69152297D01*
X123054036Y-69152299D01*
X123123613Y-69282467D01*
X123123613Y-69282468D01*
X123166459Y-69423712D01*
X123180926Y-69570600D01*
X123166459Y-69717488D01*
X123152765Y-69762630D01*
X123123613Y-69858733D01*
X123061993Y-69974014D01*
X123054035Y-69988903D01*
X123029644Y-70018624D01*
X122960400Y-70102999D01*
X122876025Y-70172243D01*
X122846304Y-70196634D01*
X122846302Y-70196635D01*
X122716134Y-70266212D01*
X122645511Y-70287635D01*
X122574889Y-70309058D01*
X122519848Y-70314479D01*
X122464808Y-70319900D01*
X120892594Y-70319900D01*
X120837554Y-70314479D01*
X120782513Y-70309058D01*
X120711891Y-70287635D01*
X120641268Y-70266212D01*
X120511100Y-70196635D01*
X120511098Y-70196634D01*
X120481377Y-70172243D01*
X120397002Y-70102999D01*
X120327758Y-70018624D01*
X120303367Y-69988903D01*
X120295409Y-69974014D01*
X120233789Y-69858733D01*
X120204637Y-69762630D01*
X120190943Y-69717488D01*
X120176476Y-69570600D01*
X120190943Y-69423712D01*
X120233789Y-69282468D01*
X120233789Y-69282467D01*
X120303366Y-69152299D01*
X120303367Y-69152297D01*
X120328658Y-69121480D01*
X120397002Y-69038201D01*
X120481377Y-68968957D01*
X120511098Y-68944566D01*
X120620981Y-68885832D01*
X120641268Y-68874988D01*
X120711891Y-68853565D01*
X120782513Y-68832142D01*
X120837554Y-68826721D01*
X120892594Y-68821300D01*
X122464808Y-68821300D01*
X122519848Y-68826721D01*
X122519848Y-68826721D01*
G37*
G36*
X129427230Y-66218299D02*
X129587455Y-66266903D01*
X129735120Y-66345831D01*
X129864549Y-66452051D01*
X129970769Y-66581480D01*
X130049697Y-66729145D01*
X130098301Y-66889370D01*
X130114712Y-67056000D01*
X130098301Y-67222630D01*
X130049697Y-67382855D01*
X129970769Y-67530520D01*
X129864549Y-67659949D01*
X129735120Y-67766169D01*
X129587455Y-67845097D01*
X129427230Y-67893701D01*
X129302352Y-67906000D01*
X129218848Y-67906000D01*
X129093970Y-67893701D01*
X128933745Y-67845097D01*
X128786080Y-67766169D01*
X128656651Y-67659949D01*
X128550431Y-67530520D01*
X128471503Y-67382855D01*
X128422899Y-67222630D01*
X128406488Y-67056000D01*
X128422899Y-66889370D01*
X128471503Y-66729145D01*
X128550431Y-66581480D01*
X128656651Y-66452051D01*
X128786080Y-66345831D01*
X128933745Y-66266903D01*
X129093970Y-66218299D01*
X129218848Y-66206000D01*
X129302352Y-66206000D01*
X129427230Y-66218299D01*
X129427230Y-66218299D01*
G37*
G36*
X126887230Y-66218299D02*
X127047455Y-66266903D01*
X127195120Y-66345831D01*
X127324549Y-66452051D01*
X127430769Y-66581480D01*
X127509697Y-66729145D01*
X127558301Y-66889370D01*
X127574712Y-67056000D01*
X127558301Y-67222630D01*
X127509697Y-67382855D01*
X127430769Y-67530520D01*
X127324549Y-67659949D01*
X127195120Y-67766169D01*
X127047455Y-67845097D01*
X126887230Y-67893701D01*
X126762352Y-67906000D01*
X126678848Y-67906000D01*
X126553970Y-67893701D01*
X126393745Y-67845097D01*
X126246080Y-67766169D01*
X126116651Y-67659949D01*
X126010431Y-67530520D01*
X125931503Y-67382855D01*
X125882899Y-67222630D01*
X125866488Y-67056000D01*
X125882899Y-66889370D01*
X125931503Y-66729145D01*
X126010431Y-66581480D01*
X126116651Y-66452051D01*
X126246080Y-66345831D01*
X126393745Y-66266903D01*
X126553970Y-66218299D01*
X126678848Y-66206000D01*
X126762352Y-66206000D01*
X126887230Y-66218299D01*
X126887230Y-66218299D01*
G37*
G36*
X131967230Y-66218299D02*
X132127455Y-66266903D01*
X132275120Y-66345831D01*
X132404549Y-66452051D01*
X132510769Y-66581480D01*
X132589697Y-66729145D01*
X132638301Y-66889370D01*
X132654712Y-67056000D01*
X132638301Y-67222630D01*
X132589697Y-67382855D01*
X132510769Y-67530520D01*
X132404549Y-67659949D01*
X132275120Y-67766169D01*
X132127455Y-67845097D01*
X131967230Y-67893701D01*
X131842352Y-67906000D01*
X131758848Y-67906000D01*
X131633970Y-67893701D01*
X131473745Y-67845097D01*
X131326080Y-67766169D01*
X131196651Y-67659949D01*
X131090431Y-67530520D01*
X131011503Y-67382855D01*
X130962899Y-67222630D01*
X130946488Y-67056000D01*
X130962899Y-66889370D01*
X131011503Y-66729145D01*
X131090431Y-66581480D01*
X131196651Y-66452051D01*
X131326080Y-66345831D01*
X131473745Y-66266903D01*
X131633970Y-66218299D01*
X131758848Y-66206000D01*
X131842352Y-66206000D01*
X131967230Y-66218299D01*
X131967230Y-66218299D01*
G37*
G36*
X122519848Y-66286721D02*
X122574889Y-66292142D01*
X122645511Y-66313565D01*
X122716134Y-66334988D01*
X122736421Y-66345832D01*
X122846304Y-66404566D01*
X122876025Y-66428957D01*
X122960400Y-66498201D01*
X123028744Y-66581480D01*
X123054035Y-66612297D01*
X123054036Y-66612299D01*
X123123613Y-66742467D01*
X123123613Y-66742468D01*
X123166459Y-66883712D01*
X123180926Y-67030600D01*
X123166459Y-67177488D01*
X123152765Y-67222630D01*
X123123613Y-67318733D01*
X123061993Y-67434014D01*
X123054035Y-67448903D01*
X123029644Y-67478624D01*
X122960400Y-67562999D01*
X122876025Y-67632243D01*
X122846304Y-67656634D01*
X122846302Y-67656635D01*
X122716134Y-67726212D01*
X122645511Y-67747635D01*
X122574889Y-67769058D01*
X122519848Y-67774479D01*
X122464808Y-67779900D01*
X120892594Y-67779900D01*
X120837554Y-67774479D01*
X120782513Y-67769058D01*
X120711891Y-67747635D01*
X120641268Y-67726212D01*
X120511100Y-67656635D01*
X120511098Y-67656634D01*
X120481377Y-67632243D01*
X120397002Y-67562999D01*
X120327758Y-67478624D01*
X120303367Y-67448903D01*
X120295409Y-67434014D01*
X120233789Y-67318733D01*
X120204637Y-67222630D01*
X120190943Y-67177488D01*
X120176476Y-67030600D01*
X120190943Y-66883712D01*
X120233789Y-66742468D01*
X120233789Y-66742467D01*
X120303366Y-66612299D01*
X120303367Y-66612297D01*
X120328658Y-66581480D01*
X120397002Y-66498201D01*
X120481377Y-66428957D01*
X120511098Y-66404566D01*
X120620981Y-66345832D01*
X120641268Y-66334988D01*
X120711891Y-66313565D01*
X120782513Y-66292142D01*
X120837554Y-66286721D01*
X120892594Y-66281300D01*
X122464808Y-66281300D01*
X122519848Y-66286721D01*
X122519848Y-66286721D01*
G37*
G36*
X170779848Y-66286721D02*
X170834889Y-66292142D01*
X170905511Y-66313565D01*
X170976134Y-66334988D01*
X170996421Y-66345832D01*
X171106304Y-66404566D01*
X171136025Y-66428957D01*
X171220400Y-66498201D01*
X171288744Y-66581480D01*
X171314035Y-66612297D01*
X171314036Y-66612299D01*
X171383613Y-66742467D01*
X171383613Y-66742468D01*
X171426459Y-66883712D01*
X171440926Y-67030600D01*
X171426459Y-67177488D01*
X171412765Y-67222630D01*
X171383613Y-67318733D01*
X171321993Y-67434014D01*
X171314035Y-67448903D01*
X171289644Y-67478624D01*
X171220400Y-67562999D01*
X171136025Y-67632243D01*
X171106304Y-67656634D01*
X171106302Y-67656635D01*
X170976134Y-67726212D01*
X170905511Y-67747635D01*
X170834889Y-67769058D01*
X170779848Y-67774479D01*
X170724808Y-67779900D01*
X169152594Y-67779900D01*
X169097554Y-67774479D01*
X169042513Y-67769058D01*
X168971891Y-67747635D01*
X168901268Y-67726212D01*
X168771100Y-67656635D01*
X168771098Y-67656634D01*
X168741377Y-67632243D01*
X168657002Y-67562999D01*
X168587758Y-67478624D01*
X168563367Y-67448903D01*
X168555409Y-67434014D01*
X168493789Y-67318733D01*
X168464637Y-67222630D01*
X168450943Y-67177488D01*
X168436476Y-67030600D01*
X168450943Y-66883712D01*
X168493789Y-66742468D01*
X168493789Y-66742467D01*
X168563366Y-66612299D01*
X168563367Y-66612297D01*
X168588658Y-66581480D01*
X168657002Y-66498201D01*
X168741377Y-66428957D01*
X168771098Y-66404566D01*
X168880981Y-66345832D01*
X168901268Y-66334988D01*
X168971891Y-66313565D01*
X169042513Y-66292142D01*
X169097554Y-66286721D01*
X169152594Y-66281300D01*
X170724808Y-66281300D01*
X170779848Y-66286721D01*
X170779848Y-66286721D01*
G37*
G36*
X127684813Y-58897613D02*
X128262626Y-59136951D01*
X128782648Y-59484419D01*
X129224882Y-59926653D01*
X129572350Y-60446675D01*
X129811688Y-61024488D01*
X129933701Y-61637888D01*
X129933701Y-62263312D01*
X129811688Y-62876712D01*
X129572350Y-63454525D01*
X129224882Y-63974547D01*
X128782648Y-64416781D01*
X128262626Y-64764249D01*
X127684813Y-65003587D01*
X127071413Y-65125600D01*
X126445989Y-65125600D01*
X125832589Y-65003587D01*
X125254776Y-64764249D01*
X124734754Y-64416781D01*
X124292520Y-63974547D01*
X123945052Y-63454525D01*
X123705714Y-62876712D01*
X123583701Y-62263312D01*
X123583701Y-61637888D01*
X123705714Y-61024488D01*
X123945052Y-60446675D01*
X124292520Y-59926653D01*
X124734754Y-59484419D01*
X125254776Y-59136951D01*
X125832589Y-58897613D01*
X126445989Y-58775600D01*
X127071413Y-58775600D01*
X127684813Y-58897613D01*
X127684813Y-58897613D01*
G37*
G36*
X165784813Y-58897613D02*
X166362626Y-59136951D01*
X166882648Y-59484419D01*
X167324882Y-59926653D01*
X167672350Y-60446675D01*
X167911688Y-61024488D01*
X168033701Y-61637888D01*
X168033701Y-62263312D01*
X167911688Y-62876712D01*
X167672350Y-63454525D01*
X167324882Y-63974547D01*
X166882648Y-64416781D01*
X166362626Y-64764249D01*
X165784813Y-65003587D01*
X165171413Y-65125600D01*
X164545989Y-65125600D01*
X163932589Y-65003587D01*
X163354776Y-64764249D01*
X162834754Y-64416781D01*
X162392520Y-63974547D01*
X162045052Y-63454525D01*
X161805714Y-62876712D01*
X161683701Y-62263312D01*
X161683701Y-61637888D01*
X161805714Y-61024488D01*
X162045052Y-60446675D01*
X162392520Y-59926653D01*
X162834754Y-59484419D01*
X163354776Y-59136951D01*
X163932589Y-58897613D01*
X164545989Y-58775600D01*
X165171413Y-58775600D01*
X165784813Y-58897613D01*
X165784813Y-58897613D01*
G37*
M02*
