G04 #@! TF.GenerationSoftware,KiCad,Pcbnew,5.0.0*
G04 #@! TF.CreationDate,2018-12-09T11:56:36+00:00*
G04 #@! TF.ProjectId,cw308_fe310,63773330385F66653331302E6B696361,rev?*
G04 #@! TF.SameCoordinates,Original*
G04 #@! TF.FileFunction,Soldermask,Top*
G04 #@! TF.FilePolarity,Negative*
%FSLAX46Y46*%
G04 Gerber Fmt 4.6, Leading zero omitted, Abs format (unit mm)*
G04 Created by KiCad (PCBNEW 5.0.0) date Sun Dec  9 11:56:36 2018*
%MOMM*%
%LPD*%
G01*
G04 APERTURE LIST*
%ADD10O,2.997200X1.498600*%
%ADD11O,1.498600X2.997200*%
%ADD12C,6.350000*%
%ADD13R,0.650000X1.700000*%
%ADD14R,1.190000X0.740000*%
%ADD15R,0.650000X0.200000*%
%ADD16R,0.200000X0.650000*%
%ADD17R,4.400000X4.400000*%
%ADD18C,0.100000*%
%ADD19C,0.875000*%
%ADD20R,1.700000X1.700000*%
%ADD21O,1.700000X1.700000*%
G04 APERTURE END LIST*
D10*
G04 #@! TO.C,J1*
X121678701Y-67030600D03*
X121678701Y-69570600D03*
X121678701Y-72110600D03*
X121678701Y-74650600D03*
X121678701Y-77190600D03*
X121678701Y-79730600D03*
X121678701Y-82270600D03*
X121678701Y-84810600D03*
X121678701Y-87350600D03*
X121678701Y-89890600D03*
X121678701Y-92430600D03*
X121678701Y-94970600D03*
X121678701Y-97510600D03*
X121678701Y-100050600D03*
X121678701Y-102590600D03*
X121678701Y-105130600D03*
X121678701Y-107670600D03*
X121678701Y-110210600D03*
X121678701Y-112750600D03*
X121678701Y-115290600D03*
D11*
X121678701Y-120370600D03*
X124218701Y-120370600D03*
X126758701Y-120370600D03*
X129298701Y-120370600D03*
X131838701Y-120370600D03*
X134378701Y-120370600D03*
X136918701Y-120370600D03*
X139458701Y-120370600D03*
X141998701Y-120370600D03*
X144538701Y-120370600D03*
X147078701Y-120370600D03*
X149618701Y-120370600D03*
X152158701Y-120370600D03*
X154698701Y-120370600D03*
X157238701Y-120370600D03*
X159778701Y-120370600D03*
X162318701Y-120370600D03*
X164858701Y-120370600D03*
X167398701Y-120370600D03*
X169938701Y-120370600D03*
D10*
X169938701Y-67030600D03*
X169938701Y-69570600D03*
X169938701Y-72110600D03*
X169938701Y-74650600D03*
X169938701Y-77190600D03*
X169938701Y-79730600D03*
X169938701Y-82270600D03*
X169938701Y-84810600D03*
X169938701Y-87350600D03*
X169938701Y-89890600D03*
X169938701Y-92430600D03*
X169938701Y-94970600D03*
X169938701Y-97510600D03*
X169938701Y-100050600D03*
X169938701Y-102590600D03*
X169938701Y-105130600D03*
X169938701Y-107670600D03*
X169938701Y-110210600D03*
X169938701Y-112750600D03*
X169938701Y-115290600D03*
D12*
X126758701Y-61950600D03*
X164858701Y-61950600D03*
X144538701Y-112750600D03*
G04 #@! TD*
D13*
G04 #@! TO.C,U1*
X133621780Y-83535540D03*
X134891780Y-83535540D03*
X136161780Y-83535540D03*
X137431780Y-83535540D03*
X137431780Y-76235540D03*
X136161780Y-76235540D03*
X134891780Y-76235540D03*
X133621780Y-76235540D03*
G04 #@! TD*
D14*
G04 #@! TO.C,U2*
X159724100Y-79712860D03*
X159724100Y-77812860D03*
X162424100Y-77812860D03*
X162424100Y-78762860D03*
X162424100Y-79712860D03*
G04 #@! TD*
G04 #@! TO.C,U3*
X162421560Y-83454280D03*
X162421560Y-82504280D03*
X162421560Y-81554280D03*
X159721560Y-81554280D03*
X159721560Y-83454280D03*
G04 #@! TD*
D15*
G04 #@! TO.C,U4*
X148433600Y-77657600D03*
X148433600Y-78057600D03*
X148433600Y-78457600D03*
X148433600Y-78857600D03*
X148433600Y-79257600D03*
X148433600Y-79657600D03*
X148433600Y-80057600D03*
X148433600Y-80457600D03*
X148433600Y-80857600D03*
X148433600Y-81257600D03*
X148433600Y-81657600D03*
X148433600Y-82057600D03*
D16*
X149158600Y-82782600D03*
X149558600Y-82782600D03*
X149958600Y-82782600D03*
X150358600Y-82782600D03*
X150758600Y-82782600D03*
X151158600Y-82782600D03*
X151558600Y-82782600D03*
X151958600Y-82782600D03*
X152358600Y-82782600D03*
X152758600Y-82782600D03*
X153158600Y-82782600D03*
X153558600Y-82782600D03*
D15*
X154283600Y-82057600D03*
X154283600Y-81657600D03*
X154283600Y-81257600D03*
X154283600Y-80857600D03*
X154283600Y-80457600D03*
X154283600Y-80057600D03*
X154283600Y-79657600D03*
X154283600Y-79257600D03*
X154283600Y-78857600D03*
X154283600Y-78457600D03*
X154283600Y-78057600D03*
X154283600Y-77657600D03*
D16*
X153558600Y-76932600D03*
X153158600Y-76932600D03*
X152758600Y-76932600D03*
X152358600Y-76932600D03*
X151958600Y-76932600D03*
X151558600Y-76932600D03*
X151158600Y-76932600D03*
X150758600Y-76932600D03*
X150358600Y-76932600D03*
X149958600Y-76932600D03*
X149558600Y-76932600D03*
X149158600Y-76932600D03*
D17*
X151358600Y-79857600D03*
G04 #@! TD*
D18*
G04 #@! TO.C,C1*
G36*
X131313751Y-75570413D02*
X131334986Y-75573563D01*
X131355810Y-75578779D01*
X131376022Y-75586011D01*
X131395428Y-75595190D01*
X131413841Y-75606226D01*
X131431084Y-75619014D01*
X131446990Y-75633430D01*
X131461406Y-75649336D01*
X131474194Y-75666579D01*
X131485230Y-75684992D01*
X131494409Y-75704398D01*
X131501641Y-75724610D01*
X131506857Y-75745434D01*
X131510007Y-75766669D01*
X131511060Y-75788110D01*
X131511060Y-76225610D01*
X131510007Y-76247051D01*
X131506857Y-76268286D01*
X131501641Y-76289110D01*
X131494409Y-76309322D01*
X131485230Y-76328728D01*
X131474194Y-76347141D01*
X131461406Y-76364384D01*
X131446990Y-76380290D01*
X131431084Y-76394706D01*
X131413841Y-76407494D01*
X131395428Y-76418530D01*
X131376022Y-76427709D01*
X131355810Y-76434941D01*
X131334986Y-76440157D01*
X131313751Y-76443307D01*
X131292310Y-76444360D01*
X130779810Y-76444360D01*
X130758369Y-76443307D01*
X130737134Y-76440157D01*
X130716310Y-76434941D01*
X130696098Y-76427709D01*
X130676692Y-76418530D01*
X130658279Y-76407494D01*
X130641036Y-76394706D01*
X130625130Y-76380290D01*
X130610714Y-76364384D01*
X130597926Y-76347141D01*
X130586890Y-76328728D01*
X130577711Y-76309322D01*
X130570479Y-76289110D01*
X130565263Y-76268286D01*
X130562113Y-76247051D01*
X130561060Y-76225610D01*
X130561060Y-75788110D01*
X130562113Y-75766669D01*
X130565263Y-75745434D01*
X130570479Y-75724610D01*
X130577711Y-75704398D01*
X130586890Y-75684992D01*
X130597926Y-75666579D01*
X130610714Y-75649336D01*
X130625130Y-75633430D01*
X130641036Y-75619014D01*
X130658279Y-75606226D01*
X130676692Y-75595190D01*
X130696098Y-75586011D01*
X130716310Y-75578779D01*
X130737134Y-75573563D01*
X130758369Y-75570413D01*
X130779810Y-75569360D01*
X131292310Y-75569360D01*
X131313751Y-75570413D01*
X131313751Y-75570413D01*
G37*
D19*
X131036060Y-76006860D03*
D18*
G36*
X131313751Y-77145413D02*
X131334986Y-77148563D01*
X131355810Y-77153779D01*
X131376022Y-77161011D01*
X131395428Y-77170190D01*
X131413841Y-77181226D01*
X131431084Y-77194014D01*
X131446990Y-77208430D01*
X131461406Y-77224336D01*
X131474194Y-77241579D01*
X131485230Y-77259992D01*
X131494409Y-77279398D01*
X131501641Y-77299610D01*
X131506857Y-77320434D01*
X131510007Y-77341669D01*
X131511060Y-77363110D01*
X131511060Y-77800610D01*
X131510007Y-77822051D01*
X131506857Y-77843286D01*
X131501641Y-77864110D01*
X131494409Y-77884322D01*
X131485230Y-77903728D01*
X131474194Y-77922141D01*
X131461406Y-77939384D01*
X131446990Y-77955290D01*
X131431084Y-77969706D01*
X131413841Y-77982494D01*
X131395428Y-77993530D01*
X131376022Y-78002709D01*
X131355810Y-78009941D01*
X131334986Y-78015157D01*
X131313751Y-78018307D01*
X131292310Y-78019360D01*
X130779810Y-78019360D01*
X130758369Y-78018307D01*
X130737134Y-78015157D01*
X130716310Y-78009941D01*
X130696098Y-78002709D01*
X130676692Y-77993530D01*
X130658279Y-77982494D01*
X130641036Y-77969706D01*
X130625130Y-77955290D01*
X130610714Y-77939384D01*
X130597926Y-77922141D01*
X130586890Y-77903728D01*
X130577711Y-77884322D01*
X130570479Y-77864110D01*
X130565263Y-77843286D01*
X130562113Y-77822051D01*
X130561060Y-77800610D01*
X130561060Y-77363110D01*
X130562113Y-77341669D01*
X130565263Y-77320434D01*
X130570479Y-77299610D01*
X130577711Y-77279398D01*
X130586890Y-77259992D01*
X130597926Y-77241579D01*
X130610714Y-77224336D01*
X130625130Y-77208430D01*
X130641036Y-77194014D01*
X130658279Y-77181226D01*
X130676692Y-77170190D01*
X130696098Y-77161011D01*
X130716310Y-77153779D01*
X130737134Y-77148563D01*
X130758369Y-77145413D01*
X130779810Y-77144360D01*
X131292310Y-77144360D01*
X131313751Y-77145413D01*
X131313751Y-77145413D01*
G37*
D19*
X131036060Y-77581860D03*
G04 #@! TD*
D18*
G04 #@! TO.C,C4*
G36*
X166292791Y-80968613D02*
X166314026Y-80971763D01*
X166334850Y-80976979D01*
X166355062Y-80984211D01*
X166374468Y-80993390D01*
X166392881Y-81004426D01*
X166410124Y-81017214D01*
X166426030Y-81031630D01*
X166440446Y-81047536D01*
X166453234Y-81064779D01*
X166464270Y-81083192D01*
X166473449Y-81102598D01*
X166480681Y-81122810D01*
X166485897Y-81143634D01*
X166489047Y-81164869D01*
X166490100Y-81186310D01*
X166490100Y-81698810D01*
X166489047Y-81720251D01*
X166485897Y-81741486D01*
X166480681Y-81762310D01*
X166473449Y-81782522D01*
X166464270Y-81801928D01*
X166453234Y-81820341D01*
X166440446Y-81837584D01*
X166426030Y-81853490D01*
X166410124Y-81867906D01*
X166392881Y-81880694D01*
X166374468Y-81891730D01*
X166355062Y-81900909D01*
X166334850Y-81908141D01*
X166314026Y-81913357D01*
X166292791Y-81916507D01*
X166271350Y-81917560D01*
X165833850Y-81917560D01*
X165812409Y-81916507D01*
X165791174Y-81913357D01*
X165770350Y-81908141D01*
X165750138Y-81900909D01*
X165730732Y-81891730D01*
X165712319Y-81880694D01*
X165695076Y-81867906D01*
X165679170Y-81853490D01*
X165664754Y-81837584D01*
X165651966Y-81820341D01*
X165640930Y-81801928D01*
X165631751Y-81782522D01*
X165624519Y-81762310D01*
X165619303Y-81741486D01*
X165616153Y-81720251D01*
X165615100Y-81698810D01*
X165615100Y-81186310D01*
X165616153Y-81164869D01*
X165619303Y-81143634D01*
X165624519Y-81122810D01*
X165631751Y-81102598D01*
X165640930Y-81083192D01*
X165651966Y-81064779D01*
X165664754Y-81047536D01*
X165679170Y-81031630D01*
X165695076Y-81017214D01*
X165712319Y-81004426D01*
X165730732Y-80993390D01*
X165750138Y-80984211D01*
X165770350Y-80976979D01*
X165791174Y-80971763D01*
X165812409Y-80968613D01*
X165833850Y-80967560D01*
X166271350Y-80967560D01*
X166292791Y-80968613D01*
X166292791Y-80968613D01*
G37*
D19*
X166052600Y-81442560D03*
D18*
G36*
X164717791Y-80968613D02*
X164739026Y-80971763D01*
X164759850Y-80976979D01*
X164780062Y-80984211D01*
X164799468Y-80993390D01*
X164817881Y-81004426D01*
X164835124Y-81017214D01*
X164851030Y-81031630D01*
X164865446Y-81047536D01*
X164878234Y-81064779D01*
X164889270Y-81083192D01*
X164898449Y-81102598D01*
X164905681Y-81122810D01*
X164910897Y-81143634D01*
X164914047Y-81164869D01*
X164915100Y-81186310D01*
X164915100Y-81698810D01*
X164914047Y-81720251D01*
X164910897Y-81741486D01*
X164905681Y-81762310D01*
X164898449Y-81782522D01*
X164889270Y-81801928D01*
X164878234Y-81820341D01*
X164865446Y-81837584D01*
X164851030Y-81853490D01*
X164835124Y-81867906D01*
X164817881Y-81880694D01*
X164799468Y-81891730D01*
X164780062Y-81900909D01*
X164759850Y-81908141D01*
X164739026Y-81913357D01*
X164717791Y-81916507D01*
X164696350Y-81917560D01*
X164258850Y-81917560D01*
X164237409Y-81916507D01*
X164216174Y-81913357D01*
X164195350Y-81908141D01*
X164175138Y-81900909D01*
X164155732Y-81891730D01*
X164137319Y-81880694D01*
X164120076Y-81867906D01*
X164104170Y-81853490D01*
X164089754Y-81837584D01*
X164076966Y-81820341D01*
X164065930Y-81801928D01*
X164056751Y-81782522D01*
X164049519Y-81762310D01*
X164044303Y-81741486D01*
X164041153Y-81720251D01*
X164040100Y-81698810D01*
X164040100Y-81186310D01*
X164041153Y-81164869D01*
X164044303Y-81143634D01*
X164049519Y-81122810D01*
X164056751Y-81102598D01*
X164065930Y-81083192D01*
X164076966Y-81064779D01*
X164089754Y-81047536D01*
X164104170Y-81031630D01*
X164120076Y-81017214D01*
X164137319Y-81004426D01*
X164155732Y-80993390D01*
X164175138Y-80984211D01*
X164195350Y-80976979D01*
X164216174Y-80971763D01*
X164237409Y-80968613D01*
X164258850Y-80967560D01*
X164696350Y-80967560D01*
X164717791Y-80968613D01*
X164717791Y-80968613D01*
G37*
D19*
X164477600Y-81442560D03*
G04 #@! TD*
D18*
G04 #@! TO.C,C5*
G36*
X164572511Y-86025253D02*
X164593746Y-86028403D01*
X164614570Y-86033619D01*
X164634782Y-86040851D01*
X164654188Y-86050030D01*
X164672601Y-86061066D01*
X164689844Y-86073854D01*
X164705750Y-86088270D01*
X164720166Y-86104176D01*
X164732954Y-86121419D01*
X164743990Y-86139832D01*
X164753169Y-86159238D01*
X164760401Y-86179450D01*
X164765617Y-86200274D01*
X164768767Y-86221509D01*
X164769820Y-86242950D01*
X164769820Y-86680450D01*
X164768767Y-86701891D01*
X164765617Y-86723126D01*
X164760401Y-86743950D01*
X164753169Y-86764162D01*
X164743990Y-86783568D01*
X164732954Y-86801981D01*
X164720166Y-86819224D01*
X164705750Y-86835130D01*
X164689844Y-86849546D01*
X164672601Y-86862334D01*
X164654188Y-86873370D01*
X164634782Y-86882549D01*
X164614570Y-86889781D01*
X164593746Y-86894997D01*
X164572511Y-86898147D01*
X164551070Y-86899200D01*
X164038570Y-86899200D01*
X164017129Y-86898147D01*
X163995894Y-86894997D01*
X163975070Y-86889781D01*
X163954858Y-86882549D01*
X163935452Y-86873370D01*
X163917039Y-86862334D01*
X163899796Y-86849546D01*
X163883890Y-86835130D01*
X163869474Y-86819224D01*
X163856686Y-86801981D01*
X163845650Y-86783568D01*
X163836471Y-86764162D01*
X163829239Y-86743950D01*
X163824023Y-86723126D01*
X163820873Y-86701891D01*
X163819820Y-86680450D01*
X163819820Y-86242950D01*
X163820873Y-86221509D01*
X163824023Y-86200274D01*
X163829239Y-86179450D01*
X163836471Y-86159238D01*
X163845650Y-86139832D01*
X163856686Y-86121419D01*
X163869474Y-86104176D01*
X163883890Y-86088270D01*
X163899796Y-86073854D01*
X163917039Y-86061066D01*
X163935452Y-86050030D01*
X163954858Y-86040851D01*
X163975070Y-86033619D01*
X163995894Y-86028403D01*
X164017129Y-86025253D01*
X164038570Y-86024200D01*
X164551070Y-86024200D01*
X164572511Y-86025253D01*
X164572511Y-86025253D01*
G37*
D19*
X164294820Y-86461700D03*
D18*
G36*
X164572511Y-84450253D02*
X164593746Y-84453403D01*
X164614570Y-84458619D01*
X164634782Y-84465851D01*
X164654188Y-84475030D01*
X164672601Y-84486066D01*
X164689844Y-84498854D01*
X164705750Y-84513270D01*
X164720166Y-84529176D01*
X164732954Y-84546419D01*
X164743990Y-84564832D01*
X164753169Y-84584238D01*
X164760401Y-84604450D01*
X164765617Y-84625274D01*
X164768767Y-84646509D01*
X164769820Y-84667950D01*
X164769820Y-85105450D01*
X164768767Y-85126891D01*
X164765617Y-85148126D01*
X164760401Y-85168950D01*
X164753169Y-85189162D01*
X164743990Y-85208568D01*
X164732954Y-85226981D01*
X164720166Y-85244224D01*
X164705750Y-85260130D01*
X164689844Y-85274546D01*
X164672601Y-85287334D01*
X164654188Y-85298370D01*
X164634782Y-85307549D01*
X164614570Y-85314781D01*
X164593746Y-85319997D01*
X164572511Y-85323147D01*
X164551070Y-85324200D01*
X164038570Y-85324200D01*
X164017129Y-85323147D01*
X163995894Y-85319997D01*
X163975070Y-85314781D01*
X163954858Y-85307549D01*
X163935452Y-85298370D01*
X163917039Y-85287334D01*
X163899796Y-85274546D01*
X163883890Y-85260130D01*
X163869474Y-85244224D01*
X163856686Y-85226981D01*
X163845650Y-85208568D01*
X163836471Y-85189162D01*
X163829239Y-85168950D01*
X163824023Y-85148126D01*
X163820873Y-85126891D01*
X163819820Y-85105450D01*
X163819820Y-84667950D01*
X163820873Y-84646509D01*
X163824023Y-84625274D01*
X163829239Y-84604450D01*
X163836471Y-84584238D01*
X163845650Y-84564832D01*
X163856686Y-84546419D01*
X163869474Y-84529176D01*
X163883890Y-84513270D01*
X163899796Y-84498854D01*
X163917039Y-84486066D01*
X163935452Y-84475030D01*
X163954858Y-84465851D01*
X163975070Y-84458619D01*
X163995894Y-84453403D01*
X164017129Y-84450253D01*
X164038570Y-84449200D01*
X164551070Y-84449200D01*
X164572511Y-84450253D01*
X164572511Y-84450253D01*
G37*
D19*
X164294820Y-84886700D03*
G04 #@! TD*
D18*
G04 #@! TO.C,C6*
G36*
X163447291Y-70962853D02*
X163468526Y-70966003D01*
X163489350Y-70971219D01*
X163509562Y-70978451D01*
X163528968Y-70987630D01*
X163547381Y-70998666D01*
X163564624Y-71011454D01*
X163580530Y-71025870D01*
X163594946Y-71041776D01*
X163607734Y-71059019D01*
X163618770Y-71077432D01*
X163627949Y-71096838D01*
X163635181Y-71117050D01*
X163640397Y-71137874D01*
X163643547Y-71159109D01*
X163644600Y-71180550D01*
X163644600Y-71618050D01*
X163643547Y-71639491D01*
X163640397Y-71660726D01*
X163635181Y-71681550D01*
X163627949Y-71701762D01*
X163618770Y-71721168D01*
X163607734Y-71739581D01*
X163594946Y-71756824D01*
X163580530Y-71772730D01*
X163564624Y-71787146D01*
X163547381Y-71799934D01*
X163528968Y-71810970D01*
X163509562Y-71820149D01*
X163489350Y-71827381D01*
X163468526Y-71832597D01*
X163447291Y-71835747D01*
X163425850Y-71836800D01*
X162913350Y-71836800D01*
X162891909Y-71835747D01*
X162870674Y-71832597D01*
X162849850Y-71827381D01*
X162829638Y-71820149D01*
X162810232Y-71810970D01*
X162791819Y-71799934D01*
X162774576Y-71787146D01*
X162758670Y-71772730D01*
X162744254Y-71756824D01*
X162731466Y-71739581D01*
X162720430Y-71721168D01*
X162711251Y-71701762D01*
X162704019Y-71681550D01*
X162698803Y-71660726D01*
X162695653Y-71639491D01*
X162694600Y-71618050D01*
X162694600Y-71180550D01*
X162695653Y-71159109D01*
X162698803Y-71137874D01*
X162704019Y-71117050D01*
X162711251Y-71096838D01*
X162720430Y-71077432D01*
X162731466Y-71059019D01*
X162744254Y-71041776D01*
X162758670Y-71025870D01*
X162774576Y-71011454D01*
X162791819Y-70998666D01*
X162810232Y-70987630D01*
X162829638Y-70978451D01*
X162849850Y-70971219D01*
X162870674Y-70966003D01*
X162891909Y-70962853D01*
X162913350Y-70961800D01*
X163425850Y-70961800D01*
X163447291Y-70962853D01*
X163447291Y-70962853D01*
G37*
D19*
X163169600Y-71399300D03*
D18*
G36*
X163447291Y-72537853D02*
X163468526Y-72541003D01*
X163489350Y-72546219D01*
X163509562Y-72553451D01*
X163528968Y-72562630D01*
X163547381Y-72573666D01*
X163564624Y-72586454D01*
X163580530Y-72600870D01*
X163594946Y-72616776D01*
X163607734Y-72634019D01*
X163618770Y-72652432D01*
X163627949Y-72671838D01*
X163635181Y-72692050D01*
X163640397Y-72712874D01*
X163643547Y-72734109D01*
X163644600Y-72755550D01*
X163644600Y-73193050D01*
X163643547Y-73214491D01*
X163640397Y-73235726D01*
X163635181Y-73256550D01*
X163627949Y-73276762D01*
X163618770Y-73296168D01*
X163607734Y-73314581D01*
X163594946Y-73331824D01*
X163580530Y-73347730D01*
X163564624Y-73362146D01*
X163547381Y-73374934D01*
X163528968Y-73385970D01*
X163509562Y-73395149D01*
X163489350Y-73402381D01*
X163468526Y-73407597D01*
X163447291Y-73410747D01*
X163425850Y-73411800D01*
X162913350Y-73411800D01*
X162891909Y-73410747D01*
X162870674Y-73407597D01*
X162849850Y-73402381D01*
X162829638Y-73395149D01*
X162810232Y-73385970D01*
X162791819Y-73374934D01*
X162774576Y-73362146D01*
X162758670Y-73347730D01*
X162744254Y-73331824D01*
X162731466Y-73314581D01*
X162720430Y-73296168D01*
X162711251Y-73276762D01*
X162704019Y-73256550D01*
X162698803Y-73235726D01*
X162695653Y-73214491D01*
X162694600Y-73193050D01*
X162694600Y-72755550D01*
X162695653Y-72734109D01*
X162698803Y-72712874D01*
X162704019Y-72692050D01*
X162711251Y-72671838D01*
X162720430Y-72652432D01*
X162731466Y-72634019D01*
X162744254Y-72616776D01*
X162758670Y-72600870D01*
X162774576Y-72586454D01*
X162791819Y-72573666D01*
X162810232Y-72562630D01*
X162829638Y-72553451D01*
X162849850Y-72546219D01*
X162870674Y-72541003D01*
X162891909Y-72537853D01*
X162913350Y-72536800D01*
X163425850Y-72536800D01*
X163447291Y-72537853D01*
X163447291Y-72537853D01*
G37*
D19*
X163169600Y-72974300D03*
G04 #@! TD*
D18*
G04 #@! TO.C,C7*
G36*
X156736611Y-83591733D02*
X156757846Y-83594883D01*
X156778670Y-83600099D01*
X156798882Y-83607331D01*
X156818288Y-83616510D01*
X156836701Y-83627546D01*
X156853944Y-83640334D01*
X156869850Y-83654750D01*
X156884266Y-83670656D01*
X156897054Y-83687899D01*
X156908090Y-83706312D01*
X156917269Y-83725718D01*
X156924501Y-83745930D01*
X156929717Y-83766754D01*
X156932867Y-83787989D01*
X156933920Y-83809430D01*
X156933920Y-84246930D01*
X156932867Y-84268371D01*
X156929717Y-84289606D01*
X156924501Y-84310430D01*
X156917269Y-84330642D01*
X156908090Y-84350048D01*
X156897054Y-84368461D01*
X156884266Y-84385704D01*
X156869850Y-84401610D01*
X156853944Y-84416026D01*
X156836701Y-84428814D01*
X156818288Y-84439850D01*
X156798882Y-84449029D01*
X156778670Y-84456261D01*
X156757846Y-84461477D01*
X156736611Y-84464627D01*
X156715170Y-84465680D01*
X156202670Y-84465680D01*
X156181229Y-84464627D01*
X156159994Y-84461477D01*
X156139170Y-84456261D01*
X156118958Y-84449029D01*
X156099552Y-84439850D01*
X156081139Y-84428814D01*
X156063896Y-84416026D01*
X156047990Y-84401610D01*
X156033574Y-84385704D01*
X156020786Y-84368461D01*
X156009750Y-84350048D01*
X156000571Y-84330642D01*
X155993339Y-84310430D01*
X155988123Y-84289606D01*
X155984973Y-84268371D01*
X155983920Y-84246930D01*
X155983920Y-83809430D01*
X155984973Y-83787989D01*
X155988123Y-83766754D01*
X155993339Y-83745930D01*
X156000571Y-83725718D01*
X156009750Y-83706312D01*
X156020786Y-83687899D01*
X156033574Y-83670656D01*
X156047990Y-83654750D01*
X156063896Y-83640334D01*
X156081139Y-83627546D01*
X156099552Y-83616510D01*
X156118958Y-83607331D01*
X156139170Y-83600099D01*
X156159994Y-83594883D01*
X156181229Y-83591733D01*
X156202670Y-83590680D01*
X156715170Y-83590680D01*
X156736611Y-83591733D01*
X156736611Y-83591733D01*
G37*
D19*
X156458920Y-84028180D03*
D18*
G36*
X156736611Y-85166733D02*
X156757846Y-85169883D01*
X156778670Y-85175099D01*
X156798882Y-85182331D01*
X156818288Y-85191510D01*
X156836701Y-85202546D01*
X156853944Y-85215334D01*
X156869850Y-85229750D01*
X156884266Y-85245656D01*
X156897054Y-85262899D01*
X156908090Y-85281312D01*
X156917269Y-85300718D01*
X156924501Y-85320930D01*
X156929717Y-85341754D01*
X156932867Y-85362989D01*
X156933920Y-85384430D01*
X156933920Y-85821930D01*
X156932867Y-85843371D01*
X156929717Y-85864606D01*
X156924501Y-85885430D01*
X156917269Y-85905642D01*
X156908090Y-85925048D01*
X156897054Y-85943461D01*
X156884266Y-85960704D01*
X156869850Y-85976610D01*
X156853944Y-85991026D01*
X156836701Y-86003814D01*
X156818288Y-86014850D01*
X156798882Y-86024029D01*
X156778670Y-86031261D01*
X156757846Y-86036477D01*
X156736611Y-86039627D01*
X156715170Y-86040680D01*
X156202670Y-86040680D01*
X156181229Y-86039627D01*
X156159994Y-86036477D01*
X156139170Y-86031261D01*
X156118958Y-86024029D01*
X156099552Y-86014850D01*
X156081139Y-86003814D01*
X156063896Y-85991026D01*
X156047990Y-85976610D01*
X156033574Y-85960704D01*
X156020786Y-85943461D01*
X156009750Y-85925048D01*
X156000571Y-85905642D01*
X155993339Y-85885430D01*
X155988123Y-85864606D01*
X155984973Y-85843371D01*
X155983920Y-85821930D01*
X155983920Y-85384430D01*
X155984973Y-85362989D01*
X155988123Y-85341754D01*
X155993339Y-85320930D01*
X156000571Y-85300718D01*
X156009750Y-85281312D01*
X156020786Y-85262899D01*
X156033574Y-85245656D01*
X156047990Y-85229750D01*
X156063896Y-85215334D01*
X156081139Y-85202546D01*
X156099552Y-85191510D01*
X156118958Y-85182331D01*
X156139170Y-85175099D01*
X156159994Y-85169883D01*
X156181229Y-85166733D01*
X156202670Y-85165680D01*
X156715170Y-85165680D01*
X156736611Y-85166733D01*
X156736611Y-85166733D01*
G37*
D19*
X156458920Y-85603180D03*
G04 #@! TD*
D18*
G04 #@! TO.C,C8*
G36*
X147120171Y-83567633D02*
X147141406Y-83570783D01*
X147162230Y-83575999D01*
X147182442Y-83583231D01*
X147201848Y-83592410D01*
X147220261Y-83603446D01*
X147237504Y-83616234D01*
X147253410Y-83630650D01*
X147267826Y-83646556D01*
X147280614Y-83663799D01*
X147291650Y-83682212D01*
X147300829Y-83701618D01*
X147308061Y-83721830D01*
X147313277Y-83742654D01*
X147316427Y-83763889D01*
X147317480Y-83785330D01*
X147317480Y-84222830D01*
X147316427Y-84244271D01*
X147313277Y-84265506D01*
X147308061Y-84286330D01*
X147300829Y-84306542D01*
X147291650Y-84325948D01*
X147280614Y-84344361D01*
X147267826Y-84361604D01*
X147253410Y-84377510D01*
X147237504Y-84391926D01*
X147220261Y-84404714D01*
X147201848Y-84415750D01*
X147182442Y-84424929D01*
X147162230Y-84432161D01*
X147141406Y-84437377D01*
X147120171Y-84440527D01*
X147098730Y-84441580D01*
X146586230Y-84441580D01*
X146564789Y-84440527D01*
X146543554Y-84437377D01*
X146522730Y-84432161D01*
X146502518Y-84424929D01*
X146483112Y-84415750D01*
X146464699Y-84404714D01*
X146447456Y-84391926D01*
X146431550Y-84377510D01*
X146417134Y-84361604D01*
X146404346Y-84344361D01*
X146393310Y-84325948D01*
X146384131Y-84306542D01*
X146376899Y-84286330D01*
X146371683Y-84265506D01*
X146368533Y-84244271D01*
X146367480Y-84222830D01*
X146367480Y-83785330D01*
X146368533Y-83763889D01*
X146371683Y-83742654D01*
X146376899Y-83721830D01*
X146384131Y-83701618D01*
X146393310Y-83682212D01*
X146404346Y-83663799D01*
X146417134Y-83646556D01*
X146431550Y-83630650D01*
X146447456Y-83616234D01*
X146464699Y-83603446D01*
X146483112Y-83592410D01*
X146502518Y-83583231D01*
X146522730Y-83575999D01*
X146543554Y-83570783D01*
X146564789Y-83567633D01*
X146586230Y-83566580D01*
X147098730Y-83566580D01*
X147120171Y-83567633D01*
X147120171Y-83567633D01*
G37*
D19*
X146842480Y-84004080D03*
D18*
G36*
X147120171Y-85142633D02*
X147141406Y-85145783D01*
X147162230Y-85150999D01*
X147182442Y-85158231D01*
X147201848Y-85167410D01*
X147220261Y-85178446D01*
X147237504Y-85191234D01*
X147253410Y-85205650D01*
X147267826Y-85221556D01*
X147280614Y-85238799D01*
X147291650Y-85257212D01*
X147300829Y-85276618D01*
X147308061Y-85296830D01*
X147313277Y-85317654D01*
X147316427Y-85338889D01*
X147317480Y-85360330D01*
X147317480Y-85797830D01*
X147316427Y-85819271D01*
X147313277Y-85840506D01*
X147308061Y-85861330D01*
X147300829Y-85881542D01*
X147291650Y-85900948D01*
X147280614Y-85919361D01*
X147267826Y-85936604D01*
X147253410Y-85952510D01*
X147237504Y-85966926D01*
X147220261Y-85979714D01*
X147201848Y-85990750D01*
X147182442Y-85999929D01*
X147162230Y-86007161D01*
X147141406Y-86012377D01*
X147120171Y-86015527D01*
X147098730Y-86016580D01*
X146586230Y-86016580D01*
X146564789Y-86015527D01*
X146543554Y-86012377D01*
X146522730Y-86007161D01*
X146502518Y-85999929D01*
X146483112Y-85990750D01*
X146464699Y-85979714D01*
X146447456Y-85966926D01*
X146431550Y-85952510D01*
X146417134Y-85936604D01*
X146404346Y-85919361D01*
X146393310Y-85900948D01*
X146384131Y-85881542D01*
X146376899Y-85861330D01*
X146371683Y-85840506D01*
X146368533Y-85819271D01*
X146367480Y-85797830D01*
X146367480Y-85360330D01*
X146368533Y-85338889D01*
X146371683Y-85317654D01*
X146376899Y-85296830D01*
X146384131Y-85276618D01*
X146393310Y-85257212D01*
X146404346Y-85238799D01*
X146417134Y-85221556D01*
X146431550Y-85205650D01*
X146447456Y-85191234D01*
X146464699Y-85178446D01*
X146483112Y-85167410D01*
X146502518Y-85158231D01*
X146522730Y-85150999D01*
X146543554Y-85145783D01*
X146564789Y-85142633D01*
X146586230Y-85141580D01*
X147098730Y-85141580D01*
X147120171Y-85142633D01*
X147120171Y-85142633D01*
G37*
D19*
X146842480Y-85579080D03*
G04 #@! TD*
D18*
G04 #@! TO.C,C9*
G36*
X156185431Y-78326513D02*
X156206666Y-78329663D01*
X156227490Y-78334879D01*
X156247702Y-78342111D01*
X156267108Y-78351290D01*
X156285521Y-78362326D01*
X156302764Y-78375114D01*
X156318670Y-78389530D01*
X156333086Y-78405436D01*
X156345874Y-78422679D01*
X156356910Y-78441092D01*
X156366089Y-78460498D01*
X156373321Y-78480710D01*
X156378537Y-78501534D01*
X156381687Y-78522769D01*
X156382740Y-78544210D01*
X156382740Y-78981710D01*
X156381687Y-79003151D01*
X156378537Y-79024386D01*
X156373321Y-79045210D01*
X156366089Y-79065422D01*
X156356910Y-79084828D01*
X156345874Y-79103241D01*
X156333086Y-79120484D01*
X156318670Y-79136390D01*
X156302764Y-79150806D01*
X156285521Y-79163594D01*
X156267108Y-79174630D01*
X156247702Y-79183809D01*
X156227490Y-79191041D01*
X156206666Y-79196257D01*
X156185431Y-79199407D01*
X156163990Y-79200460D01*
X155651490Y-79200460D01*
X155630049Y-79199407D01*
X155608814Y-79196257D01*
X155587990Y-79191041D01*
X155567778Y-79183809D01*
X155548372Y-79174630D01*
X155529959Y-79163594D01*
X155512716Y-79150806D01*
X155496810Y-79136390D01*
X155482394Y-79120484D01*
X155469606Y-79103241D01*
X155458570Y-79084828D01*
X155449391Y-79065422D01*
X155442159Y-79045210D01*
X155436943Y-79024386D01*
X155433793Y-79003151D01*
X155432740Y-78981710D01*
X155432740Y-78544210D01*
X155433793Y-78522769D01*
X155436943Y-78501534D01*
X155442159Y-78480710D01*
X155449391Y-78460498D01*
X155458570Y-78441092D01*
X155469606Y-78422679D01*
X155482394Y-78405436D01*
X155496810Y-78389530D01*
X155512716Y-78375114D01*
X155529959Y-78362326D01*
X155548372Y-78351290D01*
X155567778Y-78342111D01*
X155587990Y-78334879D01*
X155608814Y-78329663D01*
X155630049Y-78326513D01*
X155651490Y-78325460D01*
X156163990Y-78325460D01*
X156185431Y-78326513D01*
X156185431Y-78326513D01*
G37*
D19*
X155907740Y-78762960D03*
D18*
G36*
X156185431Y-76751513D02*
X156206666Y-76754663D01*
X156227490Y-76759879D01*
X156247702Y-76767111D01*
X156267108Y-76776290D01*
X156285521Y-76787326D01*
X156302764Y-76800114D01*
X156318670Y-76814530D01*
X156333086Y-76830436D01*
X156345874Y-76847679D01*
X156356910Y-76866092D01*
X156366089Y-76885498D01*
X156373321Y-76905710D01*
X156378537Y-76926534D01*
X156381687Y-76947769D01*
X156382740Y-76969210D01*
X156382740Y-77406710D01*
X156381687Y-77428151D01*
X156378537Y-77449386D01*
X156373321Y-77470210D01*
X156366089Y-77490422D01*
X156356910Y-77509828D01*
X156345874Y-77528241D01*
X156333086Y-77545484D01*
X156318670Y-77561390D01*
X156302764Y-77575806D01*
X156285521Y-77588594D01*
X156267108Y-77599630D01*
X156247702Y-77608809D01*
X156227490Y-77616041D01*
X156206666Y-77621257D01*
X156185431Y-77624407D01*
X156163990Y-77625460D01*
X155651490Y-77625460D01*
X155630049Y-77624407D01*
X155608814Y-77621257D01*
X155587990Y-77616041D01*
X155567778Y-77608809D01*
X155548372Y-77599630D01*
X155529959Y-77588594D01*
X155512716Y-77575806D01*
X155496810Y-77561390D01*
X155482394Y-77545484D01*
X155469606Y-77528241D01*
X155458570Y-77509828D01*
X155449391Y-77490422D01*
X155442159Y-77470210D01*
X155436943Y-77449386D01*
X155433793Y-77428151D01*
X155432740Y-77406710D01*
X155432740Y-76969210D01*
X155433793Y-76947769D01*
X155436943Y-76926534D01*
X155442159Y-76905710D01*
X155449391Y-76885498D01*
X155458570Y-76866092D01*
X155469606Y-76847679D01*
X155482394Y-76830436D01*
X155496810Y-76814530D01*
X155512716Y-76800114D01*
X155529959Y-76787326D01*
X155548372Y-76776290D01*
X155567778Y-76767111D01*
X155587990Y-76759879D01*
X155608814Y-76754663D01*
X155630049Y-76751513D01*
X155651490Y-76750460D01*
X156163990Y-76750460D01*
X156185431Y-76751513D01*
X156185431Y-76751513D01*
G37*
D19*
X155907740Y-77187960D03*
G04 #@! TD*
D18*
G04 #@! TO.C,C10*
G36*
X148527691Y-73757553D02*
X148548926Y-73760703D01*
X148569750Y-73765919D01*
X148589962Y-73773151D01*
X148609368Y-73782330D01*
X148627781Y-73793366D01*
X148645024Y-73806154D01*
X148660930Y-73820570D01*
X148675346Y-73836476D01*
X148688134Y-73853719D01*
X148699170Y-73872132D01*
X148708349Y-73891538D01*
X148715581Y-73911750D01*
X148720797Y-73932574D01*
X148723947Y-73953809D01*
X148725000Y-73975250D01*
X148725000Y-74487750D01*
X148723947Y-74509191D01*
X148720797Y-74530426D01*
X148715581Y-74551250D01*
X148708349Y-74571462D01*
X148699170Y-74590868D01*
X148688134Y-74609281D01*
X148675346Y-74626524D01*
X148660930Y-74642430D01*
X148645024Y-74656846D01*
X148627781Y-74669634D01*
X148609368Y-74680670D01*
X148589962Y-74689849D01*
X148569750Y-74697081D01*
X148548926Y-74702297D01*
X148527691Y-74705447D01*
X148506250Y-74706500D01*
X148068750Y-74706500D01*
X148047309Y-74705447D01*
X148026074Y-74702297D01*
X148005250Y-74697081D01*
X147985038Y-74689849D01*
X147965632Y-74680670D01*
X147947219Y-74669634D01*
X147929976Y-74656846D01*
X147914070Y-74642430D01*
X147899654Y-74626524D01*
X147886866Y-74609281D01*
X147875830Y-74590868D01*
X147866651Y-74571462D01*
X147859419Y-74551250D01*
X147854203Y-74530426D01*
X147851053Y-74509191D01*
X147850000Y-74487750D01*
X147850000Y-73975250D01*
X147851053Y-73953809D01*
X147854203Y-73932574D01*
X147859419Y-73911750D01*
X147866651Y-73891538D01*
X147875830Y-73872132D01*
X147886866Y-73853719D01*
X147899654Y-73836476D01*
X147914070Y-73820570D01*
X147929976Y-73806154D01*
X147947219Y-73793366D01*
X147965632Y-73782330D01*
X147985038Y-73773151D01*
X148005250Y-73765919D01*
X148026074Y-73760703D01*
X148047309Y-73757553D01*
X148068750Y-73756500D01*
X148506250Y-73756500D01*
X148527691Y-73757553D01*
X148527691Y-73757553D01*
G37*
D19*
X148287500Y-74231500D03*
D18*
G36*
X146952691Y-73757553D02*
X146973926Y-73760703D01*
X146994750Y-73765919D01*
X147014962Y-73773151D01*
X147034368Y-73782330D01*
X147052781Y-73793366D01*
X147070024Y-73806154D01*
X147085930Y-73820570D01*
X147100346Y-73836476D01*
X147113134Y-73853719D01*
X147124170Y-73872132D01*
X147133349Y-73891538D01*
X147140581Y-73911750D01*
X147145797Y-73932574D01*
X147148947Y-73953809D01*
X147150000Y-73975250D01*
X147150000Y-74487750D01*
X147148947Y-74509191D01*
X147145797Y-74530426D01*
X147140581Y-74551250D01*
X147133349Y-74571462D01*
X147124170Y-74590868D01*
X147113134Y-74609281D01*
X147100346Y-74626524D01*
X147085930Y-74642430D01*
X147070024Y-74656846D01*
X147052781Y-74669634D01*
X147034368Y-74680670D01*
X147014962Y-74689849D01*
X146994750Y-74697081D01*
X146973926Y-74702297D01*
X146952691Y-74705447D01*
X146931250Y-74706500D01*
X146493750Y-74706500D01*
X146472309Y-74705447D01*
X146451074Y-74702297D01*
X146430250Y-74697081D01*
X146410038Y-74689849D01*
X146390632Y-74680670D01*
X146372219Y-74669634D01*
X146354976Y-74656846D01*
X146339070Y-74642430D01*
X146324654Y-74626524D01*
X146311866Y-74609281D01*
X146300830Y-74590868D01*
X146291651Y-74571462D01*
X146284419Y-74551250D01*
X146279203Y-74530426D01*
X146276053Y-74509191D01*
X146275000Y-74487750D01*
X146275000Y-73975250D01*
X146276053Y-73953809D01*
X146279203Y-73932574D01*
X146284419Y-73911750D01*
X146291651Y-73891538D01*
X146300830Y-73872132D01*
X146311866Y-73853719D01*
X146324654Y-73836476D01*
X146339070Y-73820570D01*
X146354976Y-73806154D01*
X146372219Y-73793366D01*
X146390632Y-73782330D01*
X146410038Y-73773151D01*
X146430250Y-73765919D01*
X146451074Y-73760703D01*
X146472309Y-73757553D01*
X146493750Y-73756500D01*
X146931250Y-73756500D01*
X146952691Y-73757553D01*
X146952691Y-73757553D01*
G37*
D19*
X146712500Y-74231500D03*
G04 #@! TD*
D18*
G04 #@! TO.C,C11*
G36*
X154737631Y-84468033D02*
X154758866Y-84471183D01*
X154779690Y-84476399D01*
X154799902Y-84483631D01*
X154819308Y-84492810D01*
X154837721Y-84503846D01*
X154854964Y-84516634D01*
X154870870Y-84531050D01*
X154885286Y-84546956D01*
X154898074Y-84564199D01*
X154909110Y-84582612D01*
X154918289Y-84602018D01*
X154925521Y-84622230D01*
X154930737Y-84643054D01*
X154933887Y-84664289D01*
X154934940Y-84685730D01*
X154934940Y-85123230D01*
X154933887Y-85144671D01*
X154930737Y-85165906D01*
X154925521Y-85186730D01*
X154918289Y-85206942D01*
X154909110Y-85226348D01*
X154898074Y-85244761D01*
X154885286Y-85262004D01*
X154870870Y-85277910D01*
X154854964Y-85292326D01*
X154837721Y-85305114D01*
X154819308Y-85316150D01*
X154799902Y-85325329D01*
X154779690Y-85332561D01*
X154758866Y-85337777D01*
X154737631Y-85340927D01*
X154716190Y-85341980D01*
X154203690Y-85341980D01*
X154182249Y-85340927D01*
X154161014Y-85337777D01*
X154140190Y-85332561D01*
X154119978Y-85325329D01*
X154100572Y-85316150D01*
X154082159Y-85305114D01*
X154064916Y-85292326D01*
X154049010Y-85277910D01*
X154034594Y-85262004D01*
X154021806Y-85244761D01*
X154010770Y-85226348D01*
X154001591Y-85206942D01*
X153994359Y-85186730D01*
X153989143Y-85165906D01*
X153985993Y-85144671D01*
X153984940Y-85123230D01*
X153984940Y-84685730D01*
X153985993Y-84664289D01*
X153989143Y-84643054D01*
X153994359Y-84622230D01*
X154001591Y-84602018D01*
X154010770Y-84582612D01*
X154021806Y-84564199D01*
X154034594Y-84546956D01*
X154049010Y-84531050D01*
X154064916Y-84516634D01*
X154082159Y-84503846D01*
X154100572Y-84492810D01*
X154119978Y-84483631D01*
X154140190Y-84476399D01*
X154161014Y-84471183D01*
X154182249Y-84468033D01*
X154203690Y-84466980D01*
X154716190Y-84466980D01*
X154737631Y-84468033D01*
X154737631Y-84468033D01*
G37*
D19*
X154459940Y-84904480D03*
D18*
G36*
X154737631Y-86043033D02*
X154758866Y-86046183D01*
X154779690Y-86051399D01*
X154799902Y-86058631D01*
X154819308Y-86067810D01*
X154837721Y-86078846D01*
X154854964Y-86091634D01*
X154870870Y-86106050D01*
X154885286Y-86121956D01*
X154898074Y-86139199D01*
X154909110Y-86157612D01*
X154918289Y-86177018D01*
X154925521Y-86197230D01*
X154930737Y-86218054D01*
X154933887Y-86239289D01*
X154934940Y-86260730D01*
X154934940Y-86698230D01*
X154933887Y-86719671D01*
X154930737Y-86740906D01*
X154925521Y-86761730D01*
X154918289Y-86781942D01*
X154909110Y-86801348D01*
X154898074Y-86819761D01*
X154885286Y-86837004D01*
X154870870Y-86852910D01*
X154854964Y-86867326D01*
X154837721Y-86880114D01*
X154819308Y-86891150D01*
X154799902Y-86900329D01*
X154779690Y-86907561D01*
X154758866Y-86912777D01*
X154737631Y-86915927D01*
X154716190Y-86916980D01*
X154203690Y-86916980D01*
X154182249Y-86915927D01*
X154161014Y-86912777D01*
X154140190Y-86907561D01*
X154119978Y-86900329D01*
X154100572Y-86891150D01*
X154082159Y-86880114D01*
X154064916Y-86867326D01*
X154049010Y-86852910D01*
X154034594Y-86837004D01*
X154021806Y-86819761D01*
X154010770Y-86801348D01*
X154001591Y-86781942D01*
X153994359Y-86761730D01*
X153989143Y-86740906D01*
X153985993Y-86719671D01*
X153984940Y-86698230D01*
X153984940Y-86260730D01*
X153985993Y-86239289D01*
X153989143Y-86218054D01*
X153994359Y-86197230D01*
X154001591Y-86177018D01*
X154010770Y-86157612D01*
X154021806Y-86139199D01*
X154034594Y-86121956D01*
X154049010Y-86106050D01*
X154064916Y-86091634D01*
X154082159Y-86078846D01*
X154100572Y-86067810D01*
X154119978Y-86058631D01*
X154140190Y-86051399D01*
X154161014Y-86046183D01*
X154182249Y-86043033D01*
X154203690Y-86041980D01*
X154716190Y-86041980D01*
X154737631Y-86043033D01*
X154737631Y-86043033D01*
G37*
D19*
X154459940Y-86479480D03*
G04 #@! TD*
D18*
G04 #@! TO.C,C12*
G36*
X145580931Y-79715693D02*
X145602166Y-79718843D01*
X145622990Y-79724059D01*
X145643202Y-79731291D01*
X145662608Y-79740470D01*
X145681021Y-79751506D01*
X145698264Y-79764294D01*
X145714170Y-79778710D01*
X145728586Y-79794616D01*
X145741374Y-79811859D01*
X145752410Y-79830272D01*
X145761589Y-79849678D01*
X145768821Y-79869890D01*
X145774037Y-79890714D01*
X145777187Y-79911949D01*
X145778240Y-79933390D01*
X145778240Y-80370890D01*
X145777187Y-80392331D01*
X145774037Y-80413566D01*
X145768821Y-80434390D01*
X145761589Y-80454602D01*
X145752410Y-80474008D01*
X145741374Y-80492421D01*
X145728586Y-80509664D01*
X145714170Y-80525570D01*
X145698264Y-80539986D01*
X145681021Y-80552774D01*
X145662608Y-80563810D01*
X145643202Y-80572989D01*
X145622990Y-80580221D01*
X145602166Y-80585437D01*
X145580931Y-80588587D01*
X145559490Y-80589640D01*
X145046990Y-80589640D01*
X145025549Y-80588587D01*
X145004314Y-80585437D01*
X144983490Y-80580221D01*
X144963278Y-80572989D01*
X144943872Y-80563810D01*
X144925459Y-80552774D01*
X144908216Y-80539986D01*
X144892310Y-80525570D01*
X144877894Y-80509664D01*
X144865106Y-80492421D01*
X144854070Y-80474008D01*
X144844891Y-80454602D01*
X144837659Y-80434390D01*
X144832443Y-80413566D01*
X144829293Y-80392331D01*
X144828240Y-80370890D01*
X144828240Y-79933390D01*
X144829293Y-79911949D01*
X144832443Y-79890714D01*
X144837659Y-79869890D01*
X144844891Y-79849678D01*
X144854070Y-79830272D01*
X144865106Y-79811859D01*
X144877894Y-79794616D01*
X144892310Y-79778710D01*
X144908216Y-79764294D01*
X144925459Y-79751506D01*
X144943872Y-79740470D01*
X144963278Y-79731291D01*
X144983490Y-79724059D01*
X145004314Y-79718843D01*
X145025549Y-79715693D01*
X145046990Y-79714640D01*
X145559490Y-79714640D01*
X145580931Y-79715693D01*
X145580931Y-79715693D01*
G37*
D19*
X145303240Y-80152140D03*
D18*
G36*
X145580931Y-81290693D02*
X145602166Y-81293843D01*
X145622990Y-81299059D01*
X145643202Y-81306291D01*
X145662608Y-81315470D01*
X145681021Y-81326506D01*
X145698264Y-81339294D01*
X145714170Y-81353710D01*
X145728586Y-81369616D01*
X145741374Y-81386859D01*
X145752410Y-81405272D01*
X145761589Y-81424678D01*
X145768821Y-81444890D01*
X145774037Y-81465714D01*
X145777187Y-81486949D01*
X145778240Y-81508390D01*
X145778240Y-81945890D01*
X145777187Y-81967331D01*
X145774037Y-81988566D01*
X145768821Y-82009390D01*
X145761589Y-82029602D01*
X145752410Y-82049008D01*
X145741374Y-82067421D01*
X145728586Y-82084664D01*
X145714170Y-82100570D01*
X145698264Y-82114986D01*
X145681021Y-82127774D01*
X145662608Y-82138810D01*
X145643202Y-82147989D01*
X145622990Y-82155221D01*
X145602166Y-82160437D01*
X145580931Y-82163587D01*
X145559490Y-82164640D01*
X145046990Y-82164640D01*
X145025549Y-82163587D01*
X145004314Y-82160437D01*
X144983490Y-82155221D01*
X144963278Y-82147989D01*
X144943872Y-82138810D01*
X144925459Y-82127774D01*
X144908216Y-82114986D01*
X144892310Y-82100570D01*
X144877894Y-82084664D01*
X144865106Y-82067421D01*
X144854070Y-82049008D01*
X144844891Y-82029602D01*
X144837659Y-82009390D01*
X144832443Y-81988566D01*
X144829293Y-81967331D01*
X144828240Y-81945890D01*
X144828240Y-81508390D01*
X144829293Y-81486949D01*
X144832443Y-81465714D01*
X144837659Y-81444890D01*
X144844891Y-81424678D01*
X144854070Y-81405272D01*
X144865106Y-81386859D01*
X144877894Y-81369616D01*
X144892310Y-81353710D01*
X144908216Y-81339294D01*
X144925459Y-81326506D01*
X144943872Y-81315470D01*
X144963278Y-81306291D01*
X144983490Y-81299059D01*
X145004314Y-81293843D01*
X145025549Y-81290693D01*
X145046990Y-81289640D01*
X145559490Y-81289640D01*
X145580931Y-81290693D01*
X145580931Y-81290693D01*
G37*
D19*
X145303240Y-81727140D03*
G04 #@! TD*
D18*
G04 #@! TO.C,C13*
G36*
X144074711Y-81290693D02*
X144095946Y-81293843D01*
X144116770Y-81299059D01*
X144136982Y-81306291D01*
X144156388Y-81315470D01*
X144174801Y-81326506D01*
X144192044Y-81339294D01*
X144207950Y-81353710D01*
X144222366Y-81369616D01*
X144235154Y-81386859D01*
X144246190Y-81405272D01*
X144255369Y-81424678D01*
X144262601Y-81444890D01*
X144267817Y-81465714D01*
X144270967Y-81486949D01*
X144272020Y-81508390D01*
X144272020Y-81945890D01*
X144270967Y-81967331D01*
X144267817Y-81988566D01*
X144262601Y-82009390D01*
X144255369Y-82029602D01*
X144246190Y-82049008D01*
X144235154Y-82067421D01*
X144222366Y-82084664D01*
X144207950Y-82100570D01*
X144192044Y-82114986D01*
X144174801Y-82127774D01*
X144156388Y-82138810D01*
X144136982Y-82147989D01*
X144116770Y-82155221D01*
X144095946Y-82160437D01*
X144074711Y-82163587D01*
X144053270Y-82164640D01*
X143540770Y-82164640D01*
X143519329Y-82163587D01*
X143498094Y-82160437D01*
X143477270Y-82155221D01*
X143457058Y-82147989D01*
X143437652Y-82138810D01*
X143419239Y-82127774D01*
X143401996Y-82114986D01*
X143386090Y-82100570D01*
X143371674Y-82084664D01*
X143358886Y-82067421D01*
X143347850Y-82049008D01*
X143338671Y-82029602D01*
X143331439Y-82009390D01*
X143326223Y-81988566D01*
X143323073Y-81967331D01*
X143322020Y-81945890D01*
X143322020Y-81508390D01*
X143323073Y-81486949D01*
X143326223Y-81465714D01*
X143331439Y-81444890D01*
X143338671Y-81424678D01*
X143347850Y-81405272D01*
X143358886Y-81386859D01*
X143371674Y-81369616D01*
X143386090Y-81353710D01*
X143401996Y-81339294D01*
X143419239Y-81326506D01*
X143437652Y-81315470D01*
X143457058Y-81306291D01*
X143477270Y-81299059D01*
X143498094Y-81293843D01*
X143519329Y-81290693D01*
X143540770Y-81289640D01*
X144053270Y-81289640D01*
X144074711Y-81290693D01*
X144074711Y-81290693D01*
G37*
D19*
X143797020Y-81727140D03*
D18*
G36*
X144074711Y-79715693D02*
X144095946Y-79718843D01*
X144116770Y-79724059D01*
X144136982Y-79731291D01*
X144156388Y-79740470D01*
X144174801Y-79751506D01*
X144192044Y-79764294D01*
X144207950Y-79778710D01*
X144222366Y-79794616D01*
X144235154Y-79811859D01*
X144246190Y-79830272D01*
X144255369Y-79849678D01*
X144262601Y-79869890D01*
X144267817Y-79890714D01*
X144270967Y-79911949D01*
X144272020Y-79933390D01*
X144272020Y-80370890D01*
X144270967Y-80392331D01*
X144267817Y-80413566D01*
X144262601Y-80434390D01*
X144255369Y-80454602D01*
X144246190Y-80474008D01*
X144235154Y-80492421D01*
X144222366Y-80509664D01*
X144207950Y-80525570D01*
X144192044Y-80539986D01*
X144174801Y-80552774D01*
X144156388Y-80563810D01*
X144136982Y-80572989D01*
X144116770Y-80580221D01*
X144095946Y-80585437D01*
X144074711Y-80588587D01*
X144053270Y-80589640D01*
X143540770Y-80589640D01*
X143519329Y-80588587D01*
X143498094Y-80585437D01*
X143477270Y-80580221D01*
X143457058Y-80572989D01*
X143437652Y-80563810D01*
X143419239Y-80552774D01*
X143401996Y-80539986D01*
X143386090Y-80525570D01*
X143371674Y-80509664D01*
X143358886Y-80492421D01*
X143347850Y-80474008D01*
X143338671Y-80454602D01*
X143331439Y-80434390D01*
X143326223Y-80413566D01*
X143323073Y-80392331D01*
X143322020Y-80370890D01*
X143322020Y-79933390D01*
X143323073Y-79911949D01*
X143326223Y-79890714D01*
X143331439Y-79869890D01*
X143338671Y-79849678D01*
X143347850Y-79830272D01*
X143358886Y-79811859D01*
X143371674Y-79794616D01*
X143386090Y-79778710D01*
X143401996Y-79764294D01*
X143419239Y-79751506D01*
X143437652Y-79740470D01*
X143457058Y-79731291D01*
X143477270Y-79724059D01*
X143498094Y-79718843D01*
X143519329Y-79715693D01*
X143540770Y-79714640D01*
X144053270Y-79714640D01*
X144074711Y-79715693D01*
X144074711Y-79715693D01*
G37*
D19*
X143797020Y-80152140D03*
G04 #@! TD*
D20*
G04 #@! TO.C,J2*
X125500000Y-67500000D03*
D21*
X128040000Y-67500000D03*
X125500000Y-70040000D03*
X128040000Y-70040000D03*
G04 #@! TD*
D18*
G04 #@! TO.C,R1*
G36*
X161491491Y-69235653D02*
X161512726Y-69238803D01*
X161533550Y-69244019D01*
X161553762Y-69251251D01*
X161573168Y-69260430D01*
X161591581Y-69271466D01*
X161608824Y-69284254D01*
X161624730Y-69298670D01*
X161639146Y-69314576D01*
X161651934Y-69331819D01*
X161662970Y-69350232D01*
X161672149Y-69369638D01*
X161679381Y-69389850D01*
X161684597Y-69410674D01*
X161687747Y-69431909D01*
X161688800Y-69453350D01*
X161688800Y-69890850D01*
X161687747Y-69912291D01*
X161684597Y-69933526D01*
X161679381Y-69954350D01*
X161672149Y-69974562D01*
X161662970Y-69993968D01*
X161651934Y-70012381D01*
X161639146Y-70029624D01*
X161624730Y-70045530D01*
X161608824Y-70059946D01*
X161591581Y-70072734D01*
X161573168Y-70083770D01*
X161553762Y-70092949D01*
X161533550Y-70100181D01*
X161512726Y-70105397D01*
X161491491Y-70108547D01*
X161470050Y-70109600D01*
X160957550Y-70109600D01*
X160936109Y-70108547D01*
X160914874Y-70105397D01*
X160894050Y-70100181D01*
X160873838Y-70092949D01*
X160854432Y-70083770D01*
X160836019Y-70072734D01*
X160818776Y-70059946D01*
X160802870Y-70045530D01*
X160788454Y-70029624D01*
X160775666Y-70012381D01*
X160764630Y-69993968D01*
X160755451Y-69974562D01*
X160748219Y-69954350D01*
X160743003Y-69933526D01*
X160739853Y-69912291D01*
X160738800Y-69890850D01*
X160738800Y-69453350D01*
X160739853Y-69431909D01*
X160743003Y-69410674D01*
X160748219Y-69389850D01*
X160755451Y-69369638D01*
X160764630Y-69350232D01*
X160775666Y-69331819D01*
X160788454Y-69314576D01*
X160802870Y-69298670D01*
X160818776Y-69284254D01*
X160836019Y-69271466D01*
X160854432Y-69260430D01*
X160873838Y-69251251D01*
X160894050Y-69244019D01*
X160914874Y-69238803D01*
X160936109Y-69235653D01*
X160957550Y-69234600D01*
X161470050Y-69234600D01*
X161491491Y-69235653D01*
X161491491Y-69235653D01*
G37*
D19*
X161213800Y-69672100D03*
D18*
G36*
X161491491Y-70810653D02*
X161512726Y-70813803D01*
X161533550Y-70819019D01*
X161553762Y-70826251D01*
X161573168Y-70835430D01*
X161591581Y-70846466D01*
X161608824Y-70859254D01*
X161624730Y-70873670D01*
X161639146Y-70889576D01*
X161651934Y-70906819D01*
X161662970Y-70925232D01*
X161672149Y-70944638D01*
X161679381Y-70964850D01*
X161684597Y-70985674D01*
X161687747Y-71006909D01*
X161688800Y-71028350D01*
X161688800Y-71465850D01*
X161687747Y-71487291D01*
X161684597Y-71508526D01*
X161679381Y-71529350D01*
X161672149Y-71549562D01*
X161662970Y-71568968D01*
X161651934Y-71587381D01*
X161639146Y-71604624D01*
X161624730Y-71620530D01*
X161608824Y-71634946D01*
X161591581Y-71647734D01*
X161573168Y-71658770D01*
X161553762Y-71667949D01*
X161533550Y-71675181D01*
X161512726Y-71680397D01*
X161491491Y-71683547D01*
X161470050Y-71684600D01*
X160957550Y-71684600D01*
X160936109Y-71683547D01*
X160914874Y-71680397D01*
X160894050Y-71675181D01*
X160873838Y-71667949D01*
X160854432Y-71658770D01*
X160836019Y-71647734D01*
X160818776Y-71634946D01*
X160802870Y-71620530D01*
X160788454Y-71604624D01*
X160775666Y-71587381D01*
X160764630Y-71568968D01*
X160755451Y-71549562D01*
X160748219Y-71529350D01*
X160743003Y-71508526D01*
X160739853Y-71487291D01*
X160738800Y-71465850D01*
X160738800Y-71028350D01*
X160739853Y-71006909D01*
X160743003Y-70985674D01*
X160748219Y-70964850D01*
X160755451Y-70944638D01*
X160764630Y-70925232D01*
X160775666Y-70906819D01*
X160788454Y-70889576D01*
X160802870Y-70873670D01*
X160818776Y-70859254D01*
X160836019Y-70846466D01*
X160854432Y-70835430D01*
X160873838Y-70826251D01*
X160894050Y-70819019D01*
X160914874Y-70813803D01*
X160936109Y-70810653D01*
X160957550Y-70809600D01*
X161470050Y-70809600D01*
X161491491Y-70810653D01*
X161491491Y-70810653D01*
G37*
D19*
X161213800Y-71247100D03*
G04 #@! TD*
D18*
G04 #@! TO.C,R2*
G36*
X158278391Y-85159113D02*
X158299626Y-85162263D01*
X158320450Y-85167479D01*
X158340662Y-85174711D01*
X158360068Y-85183890D01*
X158378481Y-85194926D01*
X158395724Y-85207714D01*
X158411630Y-85222130D01*
X158426046Y-85238036D01*
X158438834Y-85255279D01*
X158449870Y-85273692D01*
X158459049Y-85293098D01*
X158466281Y-85313310D01*
X158471497Y-85334134D01*
X158474647Y-85355369D01*
X158475700Y-85376810D01*
X158475700Y-85814310D01*
X158474647Y-85835751D01*
X158471497Y-85856986D01*
X158466281Y-85877810D01*
X158459049Y-85898022D01*
X158449870Y-85917428D01*
X158438834Y-85935841D01*
X158426046Y-85953084D01*
X158411630Y-85968990D01*
X158395724Y-85983406D01*
X158378481Y-85996194D01*
X158360068Y-86007230D01*
X158340662Y-86016409D01*
X158320450Y-86023641D01*
X158299626Y-86028857D01*
X158278391Y-86032007D01*
X158256950Y-86033060D01*
X157744450Y-86033060D01*
X157723009Y-86032007D01*
X157701774Y-86028857D01*
X157680950Y-86023641D01*
X157660738Y-86016409D01*
X157641332Y-86007230D01*
X157622919Y-85996194D01*
X157605676Y-85983406D01*
X157589770Y-85968990D01*
X157575354Y-85953084D01*
X157562566Y-85935841D01*
X157551530Y-85917428D01*
X157542351Y-85898022D01*
X157535119Y-85877810D01*
X157529903Y-85856986D01*
X157526753Y-85835751D01*
X157525700Y-85814310D01*
X157525700Y-85376810D01*
X157526753Y-85355369D01*
X157529903Y-85334134D01*
X157535119Y-85313310D01*
X157542351Y-85293098D01*
X157551530Y-85273692D01*
X157562566Y-85255279D01*
X157575354Y-85238036D01*
X157589770Y-85222130D01*
X157605676Y-85207714D01*
X157622919Y-85194926D01*
X157641332Y-85183890D01*
X157660738Y-85174711D01*
X157680950Y-85167479D01*
X157701774Y-85162263D01*
X157723009Y-85159113D01*
X157744450Y-85158060D01*
X158256950Y-85158060D01*
X158278391Y-85159113D01*
X158278391Y-85159113D01*
G37*
D19*
X158000700Y-85595560D03*
D18*
G36*
X158278391Y-83584113D02*
X158299626Y-83587263D01*
X158320450Y-83592479D01*
X158340662Y-83599711D01*
X158360068Y-83608890D01*
X158378481Y-83619926D01*
X158395724Y-83632714D01*
X158411630Y-83647130D01*
X158426046Y-83663036D01*
X158438834Y-83680279D01*
X158449870Y-83698692D01*
X158459049Y-83718098D01*
X158466281Y-83738310D01*
X158471497Y-83759134D01*
X158474647Y-83780369D01*
X158475700Y-83801810D01*
X158475700Y-84239310D01*
X158474647Y-84260751D01*
X158471497Y-84281986D01*
X158466281Y-84302810D01*
X158459049Y-84323022D01*
X158449870Y-84342428D01*
X158438834Y-84360841D01*
X158426046Y-84378084D01*
X158411630Y-84393990D01*
X158395724Y-84408406D01*
X158378481Y-84421194D01*
X158360068Y-84432230D01*
X158340662Y-84441409D01*
X158320450Y-84448641D01*
X158299626Y-84453857D01*
X158278391Y-84457007D01*
X158256950Y-84458060D01*
X157744450Y-84458060D01*
X157723009Y-84457007D01*
X157701774Y-84453857D01*
X157680950Y-84448641D01*
X157660738Y-84441409D01*
X157641332Y-84432230D01*
X157622919Y-84421194D01*
X157605676Y-84408406D01*
X157589770Y-84393990D01*
X157575354Y-84378084D01*
X157562566Y-84360841D01*
X157551530Y-84342428D01*
X157542351Y-84323022D01*
X157535119Y-84302810D01*
X157529903Y-84281986D01*
X157526753Y-84260751D01*
X157525700Y-84239310D01*
X157525700Y-83801810D01*
X157526753Y-83780369D01*
X157529903Y-83759134D01*
X157535119Y-83738310D01*
X157542351Y-83718098D01*
X157551530Y-83698692D01*
X157562566Y-83680279D01*
X157575354Y-83663036D01*
X157589770Y-83647130D01*
X157605676Y-83632714D01*
X157622919Y-83619926D01*
X157641332Y-83608890D01*
X157660738Y-83599711D01*
X157680950Y-83592479D01*
X157701774Y-83587263D01*
X157723009Y-83584113D01*
X157744450Y-83583060D01*
X158256950Y-83583060D01*
X158278391Y-83584113D01*
X158278391Y-83584113D01*
G37*
D19*
X158000700Y-84020560D03*
G04 #@! TD*
D18*
G04 #@! TO.C,R3*
G36*
X153133051Y-84341733D02*
X153154286Y-84344883D01*
X153175110Y-84350099D01*
X153195322Y-84357331D01*
X153214728Y-84366510D01*
X153233141Y-84377546D01*
X153250384Y-84390334D01*
X153266290Y-84404750D01*
X153280706Y-84420656D01*
X153293494Y-84437899D01*
X153304530Y-84456312D01*
X153313709Y-84475718D01*
X153320941Y-84495930D01*
X153326157Y-84516754D01*
X153329307Y-84537989D01*
X153330360Y-84559430D01*
X153330360Y-85071930D01*
X153329307Y-85093371D01*
X153326157Y-85114606D01*
X153320941Y-85135430D01*
X153313709Y-85155642D01*
X153304530Y-85175048D01*
X153293494Y-85193461D01*
X153280706Y-85210704D01*
X153266290Y-85226610D01*
X153250384Y-85241026D01*
X153233141Y-85253814D01*
X153214728Y-85264850D01*
X153195322Y-85274029D01*
X153175110Y-85281261D01*
X153154286Y-85286477D01*
X153133051Y-85289627D01*
X153111610Y-85290680D01*
X152674110Y-85290680D01*
X152652669Y-85289627D01*
X152631434Y-85286477D01*
X152610610Y-85281261D01*
X152590398Y-85274029D01*
X152570992Y-85264850D01*
X152552579Y-85253814D01*
X152535336Y-85241026D01*
X152519430Y-85226610D01*
X152505014Y-85210704D01*
X152492226Y-85193461D01*
X152481190Y-85175048D01*
X152472011Y-85155642D01*
X152464779Y-85135430D01*
X152459563Y-85114606D01*
X152456413Y-85093371D01*
X152455360Y-85071930D01*
X152455360Y-84559430D01*
X152456413Y-84537989D01*
X152459563Y-84516754D01*
X152464779Y-84495930D01*
X152472011Y-84475718D01*
X152481190Y-84456312D01*
X152492226Y-84437899D01*
X152505014Y-84420656D01*
X152519430Y-84404750D01*
X152535336Y-84390334D01*
X152552579Y-84377546D01*
X152570992Y-84366510D01*
X152590398Y-84357331D01*
X152610610Y-84350099D01*
X152631434Y-84344883D01*
X152652669Y-84341733D01*
X152674110Y-84340680D01*
X153111610Y-84340680D01*
X153133051Y-84341733D01*
X153133051Y-84341733D01*
G37*
D19*
X152892860Y-84815680D03*
D18*
G36*
X151558051Y-84341733D02*
X151579286Y-84344883D01*
X151600110Y-84350099D01*
X151620322Y-84357331D01*
X151639728Y-84366510D01*
X151658141Y-84377546D01*
X151675384Y-84390334D01*
X151691290Y-84404750D01*
X151705706Y-84420656D01*
X151718494Y-84437899D01*
X151729530Y-84456312D01*
X151738709Y-84475718D01*
X151745941Y-84495930D01*
X151751157Y-84516754D01*
X151754307Y-84537989D01*
X151755360Y-84559430D01*
X151755360Y-85071930D01*
X151754307Y-85093371D01*
X151751157Y-85114606D01*
X151745941Y-85135430D01*
X151738709Y-85155642D01*
X151729530Y-85175048D01*
X151718494Y-85193461D01*
X151705706Y-85210704D01*
X151691290Y-85226610D01*
X151675384Y-85241026D01*
X151658141Y-85253814D01*
X151639728Y-85264850D01*
X151620322Y-85274029D01*
X151600110Y-85281261D01*
X151579286Y-85286477D01*
X151558051Y-85289627D01*
X151536610Y-85290680D01*
X151099110Y-85290680D01*
X151077669Y-85289627D01*
X151056434Y-85286477D01*
X151035610Y-85281261D01*
X151015398Y-85274029D01*
X150995992Y-85264850D01*
X150977579Y-85253814D01*
X150960336Y-85241026D01*
X150944430Y-85226610D01*
X150930014Y-85210704D01*
X150917226Y-85193461D01*
X150906190Y-85175048D01*
X150897011Y-85155642D01*
X150889779Y-85135430D01*
X150884563Y-85114606D01*
X150881413Y-85093371D01*
X150880360Y-85071930D01*
X150880360Y-84559430D01*
X150881413Y-84537989D01*
X150884563Y-84516754D01*
X150889779Y-84495930D01*
X150897011Y-84475718D01*
X150906190Y-84456312D01*
X150917226Y-84437899D01*
X150930014Y-84420656D01*
X150944430Y-84404750D01*
X150960336Y-84390334D01*
X150977579Y-84377546D01*
X150995992Y-84366510D01*
X151015398Y-84357331D01*
X151035610Y-84350099D01*
X151056434Y-84344883D01*
X151077669Y-84341733D01*
X151099110Y-84340680D01*
X151536610Y-84340680D01*
X151558051Y-84341733D01*
X151558051Y-84341733D01*
G37*
D19*
X151317860Y-84815680D03*
G04 #@! TD*
D18*
G04 #@! TO.C,R4*
G36*
X142565951Y-79723313D02*
X142587186Y-79726463D01*
X142608010Y-79731679D01*
X142628222Y-79738911D01*
X142647628Y-79748090D01*
X142666041Y-79759126D01*
X142683284Y-79771914D01*
X142699190Y-79786330D01*
X142713606Y-79802236D01*
X142726394Y-79819479D01*
X142737430Y-79837892D01*
X142746609Y-79857298D01*
X142753841Y-79877510D01*
X142759057Y-79898334D01*
X142762207Y-79919569D01*
X142763260Y-79941010D01*
X142763260Y-80378510D01*
X142762207Y-80399951D01*
X142759057Y-80421186D01*
X142753841Y-80442010D01*
X142746609Y-80462222D01*
X142737430Y-80481628D01*
X142726394Y-80500041D01*
X142713606Y-80517284D01*
X142699190Y-80533190D01*
X142683284Y-80547606D01*
X142666041Y-80560394D01*
X142647628Y-80571430D01*
X142628222Y-80580609D01*
X142608010Y-80587841D01*
X142587186Y-80593057D01*
X142565951Y-80596207D01*
X142544510Y-80597260D01*
X142032010Y-80597260D01*
X142010569Y-80596207D01*
X141989334Y-80593057D01*
X141968510Y-80587841D01*
X141948298Y-80580609D01*
X141928892Y-80571430D01*
X141910479Y-80560394D01*
X141893236Y-80547606D01*
X141877330Y-80533190D01*
X141862914Y-80517284D01*
X141850126Y-80500041D01*
X141839090Y-80481628D01*
X141829911Y-80462222D01*
X141822679Y-80442010D01*
X141817463Y-80421186D01*
X141814313Y-80399951D01*
X141813260Y-80378510D01*
X141813260Y-79941010D01*
X141814313Y-79919569D01*
X141817463Y-79898334D01*
X141822679Y-79877510D01*
X141829911Y-79857298D01*
X141839090Y-79837892D01*
X141850126Y-79819479D01*
X141862914Y-79802236D01*
X141877330Y-79786330D01*
X141893236Y-79771914D01*
X141910479Y-79759126D01*
X141928892Y-79748090D01*
X141948298Y-79738911D01*
X141968510Y-79731679D01*
X141989334Y-79726463D01*
X142010569Y-79723313D01*
X142032010Y-79722260D01*
X142544510Y-79722260D01*
X142565951Y-79723313D01*
X142565951Y-79723313D01*
G37*
D19*
X142288260Y-80159760D03*
D18*
G36*
X142565951Y-81298313D02*
X142587186Y-81301463D01*
X142608010Y-81306679D01*
X142628222Y-81313911D01*
X142647628Y-81323090D01*
X142666041Y-81334126D01*
X142683284Y-81346914D01*
X142699190Y-81361330D01*
X142713606Y-81377236D01*
X142726394Y-81394479D01*
X142737430Y-81412892D01*
X142746609Y-81432298D01*
X142753841Y-81452510D01*
X142759057Y-81473334D01*
X142762207Y-81494569D01*
X142763260Y-81516010D01*
X142763260Y-81953510D01*
X142762207Y-81974951D01*
X142759057Y-81996186D01*
X142753841Y-82017010D01*
X142746609Y-82037222D01*
X142737430Y-82056628D01*
X142726394Y-82075041D01*
X142713606Y-82092284D01*
X142699190Y-82108190D01*
X142683284Y-82122606D01*
X142666041Y-82135394D01*
X142647628Y-82146430D01*
X142628222Y-82155609D01*
X142608010Y-82162841D01*
X142587186Y-82168057D01*
X142565951Y-82171207D01*
X142544510Y-82172260D01*
X142032010Y-82172260D01*
X142010569Y-82171207D01*
X141989334Y-82168057D01*
X141968510Y-82162841D01*
X141948298Y-82155609D01*
X141928892Y-82146430D01*
X141910479Y-82135394D01*
X141893236Y-82122606D01*
X141877330Y-82108190D01*
X141862914Y-82092284D01*
X141850126Y-82075041D01*
X141839090Y-82056628D01*
X141829911Y-82037222D01*
X141822679Y-82017010D01*
X141817463Y-81996186D01*
X141814313Y-81974951D01*
X141813260Y-81953510D01*
X141813260Y-81516010D01*
X141814313Y-81494569D01*
X141817463Y-81473334D01*
X141822679Y-81452510D01*
X141829911Y-81432298D01*
X141839090Y-81412892D01*
X141850126Y-81394479D01*
X141862914Y-81377236D01*
X141877330Y-81361330D01*
X141893236Y-81346914D01*
X141910479Y-81334126D01*
X141928892Y-81323090D01*
X141948298Y-81313911D01*
X141968510Y-81306679D01*
X141989334Y-81301463D01*
X142010569Y-81298313D01*
X142032010Y-81297260D01*
X142544510Y-81297260D01*
X142565951Y-81298313D01*
X142565951Y-81298313D01*
G37*
D19*
X142288260Y-81734760D03*
G04 #@! TD*
M02*
