M48
;DRILL file {KiCad 5.0.0} date Sun Dec  9 11:57:12 2018
;FORMAT={-:-/ absolute / inch / decimal}
FMAT,2
INCH,TZ
T1C0.0118
T2C0.0157
T3C0.0390
T4C0.0394
T5C0.1340
%
G90
G05
M72
T1
X5.11Y-2.992
X5.158Y-3.5143
X5.4808Y-3.249
X5.537Y-3.0012
X5.62Y-3.32
X5.7382Y-3.061
X5.76Y-3.46
X5.7671Y-3.1277
X5.82Y-2.98
X5.886Y-2.8853
X5.887Y-2.962
X5.8884Y-3.7912
X5.919Y-2.83
X5.9346Y-3.6996
X5.9382Y-3.7866
X5.9461Y-2.9098
X5.9843Y-2.8858
X5.991Y-2.946
X6.Y-3.4
X6.014Y-2.864
X6.05Y-2.834
X6.114Y-2.989
X6.166Y-2.985
X6.204Y-2.969
X6.2109Y-3.1493
X6.3364Y-3.2475
X6.3384Y-3.1011
X6.34Y-3.2
X6.3906Y-3.6176
X6.4621Y-3.5741
X6.5187Y-3.5396
X5.9013Y-3.1151
X5.9013Y-3.1729
X5.9301Y-3.0863
X5.9301Y-3.1151
X5.9301Y-3.144
X5.9301Y-3.1729
X5.9301Y-3.2017
X5.959Y-3.1151
X5.959Y-3.1729
X5.9879Y-3.0863
X5.9879Y-3.1151
X5.9879Y-3.144
X5.9879Y-3.1729
X5.9879Y-3.2017
X6.0167Y-3.1151
X6.0167Y-3.1729
T2
X5.1107Y-3.4452
T3
X4.7905Y-2.639
X4.7905Y-2.739
X4.7905Y-2.839
X4.7905Y-2.939
X4.7905Y-3.039
X4.7905Y-3.139
X4.7905Y-3.239
X4.7905Y-3.339
X4.7905Y-3.439
X4.7905Y-3.539
X4.7905Y-3.639
X4.7905Y-3.739
X4.7905Y-3.839
X4.7905Y-3.939
X4.7905Y-4.039
X4.7905Y-4.139
X4.7905Y-4.239
X4.7905Y-4.339
X4.7905Y-4.439
X4.7905Y-4.539
X4.7905Y-4.739
X4.8905Y-4.739
X4.9905Y-4.739
X5.0905Y-4.739
X5.1905Y-4.739
X5.2905Y-4.739
X5.3905Y-4.739
X5.4905Y-4.739
X5.5905Y-4.739
X5.6905Y-4.739
X5.7905Y-4.739
X5.8905Y-4.739
X5.9905Y-4.739
X6.0905Y-4.739
X6.1905Y-4.739
X6.2905Y-4.739
X6.3905Y-4.739
X6.4905Y-4.739
X6.5905Y-4.739
X6.6905Y-2.639
X6.6905Y-2.739
X6.6905Y-2.839
X6.6905Y-2.939
X6.6905Y-3.039
X6.6905Y-3.139
X6.6905Y-3.239
X6.6905Y-3.339
X6.6905Y-3.439
X6.6905Y-3.539
X6.6905Y-3.639
X6.6905Y-3.739
X6.6905Y-3.839
X6.6905Y-3.939
X6.6905Y-4.039
X6.6905Y-4.139
X6.6905Y-4.239
X6.6905Y-4.339
X6.6905Y-4.439
X6.6905Y-4.539
X6.6905Y-4.739
T4
X4.9409Y-2.6575
X4.9409Y-2.7575
X5.0409Y-2.6575
X5.0409Y-2.7575
T5
X4.9905Y-2.439
X5.6905Y-4.439
X6.4905Y-2.439
T0
M30
