G04 #@! TF.GenerationSoftware,KiCad,Pcbnew,5.0.0*
G04 #@! TF.CreationDate,2018-12-09T11:56:36+00:00*
G04 #@! TF.ProjectId,cw308_fe310,63773330385F66653331302E6B696361,rev?*
G04 #@! TF.SameCoordinates,Original*
G04 #@! TF.FileFunction,Copper,L2,Bot,Signal*
G04 #@! TF.FilePolarity,Positive*
%FSLAX46Y46*%
G04 Gerber Fmt 4.6, Leading zero omitted, Abs format (unit mm)*
G04 Created by KiCad (PCBNEW 5.0.0) date Sun Dec  9 11:56:36 2018*
%MOMM*%
%LPD*%
G01*
G04 APERTURE LIST*
G04 #@! TA.AperFunction,ComponentPad*
%ADD10O,2.997200X1.498600*%
G04 #@! TD*
G04 #@! TA.AperFunction,ComponentPad*
%ADD11O,1.498600X2.997200*%
G04 #@! TD*
G04 #@! TA.AperFunction,ComponentPad*
%ADD12C,6.350000*%
G04 #@! TD*
G04 #@! TA.AperFunction,Conductor*
%ADD13R,5.400000X5.400000*%
G04 #@! TD*
G04 #@! TA.AperFunction,ViaPad*
%ADD14C,0.600000*%
G04 #@! TD*
G04 #@! TA.AperFunction,ComponentPad*
%ADD15R,1.700000X1.700000*%
G04 #@! TD*
G04 #@! TA.AperFunction,ComponentPad*
%ADD16O,1.700000X1.700000*%
G04 #@! TD*
G04 #@! TA.AperFunction,ViaPad*
%ADD17C,0.800000*%
G04 #@! TD*
G04 #@! TA.AperFunction,Conductor*
%ADD18C,0.250000*%
G04 #@! TD*
G04 #@! TA.AperFunction,Conductor*
%ADD19C,0.254000*%
G04 #@! TD*
G04 APERTURE END LIST*
D10*
G04 #@! TO.P,J1,A1*
G04 #@! TO.N,Net-(J1-PadA1)*
X121678701Y-67030600D03*
G04 #@! TO.P,J1,A2*
G04 #@! TO.N,GND*
X121678701Y-69570600D03*
G04 #@! TO.P,J1,A3*
G04 #@! TO.N,CLKIN*
X121678701Y-72110600D03*
G04 #@! TO.P,J1,A4*
G04 #@! TO.N,GND*
X121678701Y-74650600D03*
G04 #@! TO.P,J1,A5*
G04 #@! TO.N,CLKOUT*
X121678701Y-77190600D03*
G04 #@! TO.P,J1,A6*
G04 #@! TO.N,GND*
X121678701Y-79730600D03*
G04 #@! TO.P,J1,A7*
G04 #@! TO.N,GPIO1*
X121678701Y-82270600D03*
G04 #@! TO.P,J1,A8*
G04 #@! TO.N,GPIO2*
X121678701Y-84810600D03*
G04 #@! TO.P,J1,A9*
G04 #@! TO.N,GPIO3*
X121678701Y-87350600D03*
G04 #@! TO.P,J1,A10*
G04 #@! TO.N,GPIO4*
X121678701Y-89890600D03*
G04 #@! TO.P,J1,A11*
G04 #@! TO.N,UFO.RST*
X121678701Y-92430600D03*
G04 #@! TO.P,J1,A12*
G04 #@! TO.N,Net-(J1-PadA12)*
X121678701Y-94970600D03*
G04 #@! TO.P,J1,A13*
G04 #@! TO.N,Net-(J1-PadA13)*
X121678701Y-97510600D03*
G04 #@! TO.P,J1,A14*
G04 #@! TO.N,Net-(J1-PadA14)*
X121678701Y-100050600D03*
G04 #@! TO.P,J1,A15*
G04 #@! TO.N,GND*
X121678701Y-102590600D03*
G04 #@! TO.P,J1,A16*
X121678701Y-105130600D03*
G04 #@! TO.P,J1,A17*
G04 #@! TO.N,Net-(J1-PadA17)*
X121678701Y-107670600D03*
G04 #@! TO.P,J1,A18*
G04 #@! TO.N,Net-(J1-PadA18)*
X121678701Y-110210600D03*
G04 #@! TO.P,J1,A19*
G04 #@! TO.N,Net-(J1-PadA19)*
X121678701Y-112750600D03*
G04 #@! TO.P,J1,A20*
G04 #@! TO.N,Net-(J1-PadA20)*
X121678701Y-115290600D03*
D11*
G04 #@! TO.P,J1,B1*
G04 #@! TO.N,GND*
X121678701Y-120370600D03*
G04 #@! TO.P,J1,B2*
G04 #@! TO.N,JTAG_TRST*
X124218701Y-120370600D03*
G04 #@! TO.P,J1,B3*
G04 #@! TO.N,JTAG_TDI*
X126758701Y-120370600D03*
G04 #@! TO.P,J1,B4*
G04 #@! TO.N,JTAG_TDO*
X129298701Y-120370600D03*
G04 #@! TO.P,J1,B5*
G04 #@! TO.N,JTAG_TMS*
X131838701Y-120370600D03*
G04 #@! TO.P,J1,B6*
G04 #@! TO.N,JTAG_TCK*
X134378701Y-120370600D03*
G04 #@! TO.P,J1,B7*
G04 #@! TO.N,Net-(J1-PadB7)*
X136918701Y-120370600D03*
G04 #@! TO.P,J1,B8*
G04 #@! TO.N,Net-(J1-PadB8)*
X139458701Y-120370600D03*
G04 #@! TO.P,J1,B9*
G04 #@! TO.N,GND*
X141998701Y-120370600D03*
G04 #@! TO.P,J1,B10*
X144538701Y-120370600D03*
G04 #@! TO.P,J1,B11*
G04 #@! TO.N,Net-(J1-PadB11)*
X147078701Y-120370600D03*
G04 #@! TO.P,J1,B12*
G04 #@! TO.N,Net-(J1-PadB12)*
X149618701Y-120370600D03*
G04 #@! TO.P,J1,B13*
G04 #@! TO.N,Net-(J1-PadB13)*
X152158701Y-120370600D03*
G04 #@! TO.P,J1,B14*
G04 #@! TO.N,Net-(J1-PadB14)*
X154698701Y-120370600D03*
G04 #@! TO.P,J1,B15*
G04 #@! TO.N,Net-(J1-PadB15)*
X157238701Y-120370600D03*
G04 #@! TO.P,J1,B16*
G04 #@! TO.N,Net-(J1-PadB16)*
X159778701Y-120370600D03*
G04 #@! TO.P,J1,B17*
G04 #@! TO.N,Net-(J1-PadB17)*
X162318701Y-120370600D03*
G04 #@! TO.P,J1,B18*
G04 #@! TO.N,Net-(J1-PadB18)*
X164858701Y-120370600D03*
G04 #@! TO.P,J1,B19*
G04 #@! TO.N,Net-(J1-PadB19)*
X167398701Y-120370600D03*
G04 #@! TO.P,J1,B20*
G04 #@! TO.N,Net-(J1-PadB20)*
X169938701Y-120370600D03*
D10*
G04 #@! TO.P,J1,C1*
G04 #@! TO.N,GND*
X169938701Y-67030600D03*
G04 #@! TO.P,J1,C2*
G04 #@! TO.N,VCC_CLEAN*
X169938701Y-69570600D03*
G04 #@! TO.P,J1,C3*
G04 #@! TO.N,Net-(C6-Pad2)*
X169938701Y-72110600D03*
G04 #@! TO.P,J1,C4*
G04 #@! TO.N,GND*
X169938701Y-74650600D03*
G04 #@! TO.P,J1,C5*
G04 #@! TO.N,Net-(C6-Pad2)*
X169938701Y-77190600D03*
G04 #@! TO.P,J1,C6*
G04 #@! TO.N,Net-(J1-PadC6)*
X169938701Y-79730600D03*
G04 #@! TO.P,J1,C7*
G04 #@! TO.N,GND*
X169938701Y-82270600D03*
G04 #@! TO.P,J1,C8*
G04 #@! TO.N,+1V8*
X169938701Y-84810600D03*
G04 #@! TO.P,J1,C9*
G04 #@! TO.N,GND*
X169938701Y-87350600D03*
G04 #@! TO.P,J1,C10*
X169938701Y-89890600D03*
G04 #@! TO.P,J1,C11*
G04 #@! TO.N,Net-(J1-PadC11)*
X169938701Y-92430600D03*
G04 #@! TO.P,J1,C12*
G04 #@! TO.N,+1V8*
X169938701Y-94970600D03*
G04 #@! TO.P,J1,C13*
G04 #@! TO.N,Net-(J1-PadC13)*
X169938701Y-97510600D03*
G04 #@! TO.P,J1,C14*
G04 #@! TO.N,+3V3*
X169938701Y-100050600D03*
G04 #@! TO.P,J1,C15*
G04 #@! TO.N,Net-(J1-PadC15)*
X169938701Y-102590600D03*
G04 #@! TO.P,J1,C16*
G04 #@! TO.N,GND*
X169938701Y-105130600D03*
G04 #@! TO.P,J1,C17*
X169938701Y-107670600D03*
G04 #@! TO.P,J1,C18*
G04 #@! TO.N,LED1*
X169938701Y-110210600D03*
G04 #@! TO.P,J1,C19*
G04 #@! TO.N,LED2*
X169938701Y-112750600D03*
G04 #@! TO.P,J1,C20*
G04 #@! TO.N,LED3*
X169938701Y-115290600D03*
D12*
G04 #@! TO.P,J1,MH1*
G04 #@! TO.N,N/C*
X126758701Y-61950600D03*
G04 #@! TO.P,J1,MH2*
X164858701Y-61950600D03*
G04 #@! TO.P,J1,MH3*
X144538701Y-112750600D03*
G04 #@! TD*
D13*
G04 #@! TO.N,GND*
G04 #@! TO.C,U4*
X151358600Y-79857600D03*
D14*
X149891933Y-79124267D03*
X149891933Y-80590933D03*
X150625267Y-78390933D03*
X150625267Y-79124267D03*
X150625267Y-79857600D03*
X150625267Y-80590933D03*
X150625267Y-81324267D03*
X151358600Y-79124267D03*
X151358600Y-80590933D03*
X152091933Y-78390933D03*
X152091933Y-79124267D03*
X152091933Y-79857600D03*
X152091933Y-80590933D03*
X152091933Y-81324267D03*
X152825267Y-79124267D03*
X152825267Y-80590933D03*
G04 #@! TD*
D15*
G04 #@! TO.P,J2,1*
G04 #@! TO.N,GPIO1*
X125500000Y-67500000D03*
D16*
G04 #@! TO.P,J2,2*
G04 #@! TO.N,RX*
X128040000Y-67500000D03*
G04 #@! TO.P,J2,3*
G04 #@! TO.N,GPIO2*
X125500000Y-70040000D03*
G04 #@! TO.P,J2,4*
G04 #@! TO.N,TX*
X128040000Y-70040000D03*
G04 #@! TD*
D14*
G04 #@! TO.N,GND*
X146304000Y-87884000D03*
X147828000Y-75692000D03*
X161036000Y-81280000D03*
X139212320Y-82524598D03*
X156616400Y-75819000D03*
G04 #@! TO.N,+3V3*
X149504400Y-73286620D03*
X165573931Y-89905260D03*
D17*
X129811780Y-87508080D03*
D14*
X157581598Y-75412600D03*
X129794000Y-75996800D03*
G04 #@! TO.N,+1V8*
X142748000Y-84328000D03*
X152400000Y-86360000D03*
G04 #@! TO.N,RX*
X153670002Y-71983600D03*
G04 #@! TO.N,TX*
X152755600Y-72745600D03*
G04 #@! TO.N,GPIO4*
X131013200Y-89263220D03*
X150342600Y-71882000D03*
G04 #@! TO.N,UFO.RST*
X160995360Y-78767940D03*
G04 #@! TO.N,JTAG_TRST*
X160944558Y-82486500D03*
G04 #@! TO.N,JTAG_TDI*
X150740002Y-93970000D03*
G04 #@! TO.N,JTAG_TDO*
X149565360Y-96296480D03*
G04 #@! TO.N,JTAG_TMS*
X150830000Y-96180000D03*
G04 #@! TO.N,VCC_CLEAN*
X157756860Y-79992220D03*
X146484342Y-79443580D03*
X149529800Y-75234800D03*
X155295600Y-75920600D03*
G04 #@! TO.N,LED1*
X164137340Y-90782140D03*
X152171402Y-74829379D03*
G04 #@! TO.N,LED2*
X151030000Y-73910000D03*
X162321240Y-91887040D03*
G04 #@! TO.N,FLASH_IO0*
X140639800Y-76230480D03*
X145750014Y-77750000D03*
G04 #@! TO.N,LED3*
X152000000Y-73300000D03*
G04 #@! TD*
D18*
G04 #@! TO.N,GND*
X151358600Y-79222600D02*
X151358600Y-79857600D01*
X147828000Y-75692000D02*
X151358600Y-79222600D01*
X144571722Y-87884000D02*
X139612319Y-82924597D01*
X146304000Y-87884000D02*
X144571722Y-87884000D01*
X139612319Y-82924597D02*
X139212320Y-82524598D01*
X154308600Y-79857600D02*
X156616400Y-77549800D01*
X156616400Y-77549800D02*
X156616400Y-76384685D01*
X156616400Y-76384685D02*
X156616400Y-75819000D01*
X151358600Y-79857600D02*
X154308600Y-79857600D01*
G04 #@! TO.N,+3V3*
X151692169Y-75474389D02*
X152632417Y-75474389D01*
X161803080Y-75412600D02*
X158147283Y-75412600D01*
X149504400Y-73286620D02*
X151692169Y-75474389D01*
X152632417Y-75474389D02*
X153094205Y-75012601D01*
X157181599Y-75012601D02*
X157581598Y-75412600D01*
X153094205Y-75012601D02*
X157181599Y-75012601D01*
X158147283Y-75412600D02*
X157581598Y-75412600D01*
X165573931Y-89905260D02*
X165573931Y-79183451D01*
X165573931Y-79183451D02*
X161803080Y-75412600D01*
X129811780Y-87508080D02*
X129811780Y-76014580D01*
X129811780Y-76014580D02*
X129794000Y-75996800D01*
G04 #@! TO.N,+1V8*
X142748000Y-84328000D02*
X144780000Y-86360000D01*
X144780000Y-86360000D02*
X152400000Y-86360000D01*
G04 #@! TO.N,Net-(C6-Pad2)*
X169189401Y-72110600D02*
X169938701Y-72110600D01*
X167800000Y-73500001D02*
X169189401Y-72110600D01*
X167800000Y-75801199D02*
X167800000Y-73500001D01*
X169938701Y-77190600D02*
X169189401Y-77190600D01*
X169189401Y-77190600D02*
X167800000Y-75801199D01*
G04 #@! TO.N,GPIO1*
X124000000Y-69000000D02*
X125500000Y-67500000D01*
X124000000Y-79564767D02*
X124000000Y-69000000D01*
X121678701Y-82270600D02*
X121678701Y-81886066D01*
X121678701Y-81886066D02*
X124000000Y-79564767D01*
G04 #@! TO.N,GPIO2*
X125500000Y-81738601D02*
X125500000Y-71242081D01*
X125500000Y-71242081D02*
X125500000Y-70040000D01*
X122428001Y-84810600D02*
X125500000Y-81738601D01*
X121678701Y-84810600D02*
X122428001Y-84810600D01*
G04 #@! TO.N,RX*
X153270003Y-71583601D02*
X153670002Y-71983600D01*
X152349202Y-70662800D02*
X153270003Y-71583601D01*
G04 #@! TO.N,GPIO4*
X143683158Y-71869300D02*
X143695858Y-71882000D01*
X131013200Y-89263220D02*
X131013200Y-84539258D01*
X143695858Y-71882000D02*
X150342600Y-71882000D01*
X131013200Y-84539258D02*
X143683158Y-71869300D01*
G04 #@! TO.N,UFO.RST*
X121678701Y-92430600D02*
X148209000Y-92430600D01*
X148209000Y-92430600D02*
X160995360Y-79644240D01*
X160995360Y-79644240D02*
X160995360Y-78767940D01*
G04 #@! TO.N,JTAG_TRST*
X160378873Y-82486500D02*
X160944558Y-82486500D01*
X159819340Y-82486500D02*
X160378873Y-82486500D01*
X124218701Y-120370600D02*
X124218701Y-118087139D01*
X124218701Y-118087139D02*
X159819340Y-82486500D01*
G04 #@! TO.N,JTAG_TDI*
X126758701Y-120370600D02*
X126758701Y-117951301D01*
X150440003Y-94269999D02*
X150740002Y-93970000D01*
X126758701Y-117951301D02*
X150440003Y-94269999D01*
G04 #@! TO.N,JTAG_TDO*
X149565360Y-96296480D02*
X149523520Y-96296480D01*
X129298701Y-118622000D02*
X129298701Y-120370600D01*
X129298701Y-116521299D02*
X129298701Y-118622000D01*
X149523520Y-96296480D02*
X129298701Y-116521299D01*
G04 #@! TO.N,JTAG_TMS*
X131838701Y-115171299D02*
X150530001Y-96479999D01*
X131838701Y-120370600D02*
X131838701Y-115171299D01*
X150530001Y-96479999D02*
X150830000Y-96180000D01*
G04 #@! TO.N,VCC_CLEAN*
X157756860Y-79992220D02*
X153680160Y-84068920D01*
X146484342Y-81074625D02*
X146484342Y-80009265D01*
X146484342Y-80009265D02*
X146484342Y-79443580D01*
X149478637Y-84068920D02*
X146484342Y-81074625D01*
X153680160Y-84068920D02*
X149478637Y-84068920D01*
X150215600Y-75920600D02*
X154871336Y-75920600D01*
X154871336Y-75920600D02*
X155295600Y-75920600D01*
X149529800Y-75234800D02*
X150215600Y-75920600D01*
G04 #@! TO.N,LED1*
X164137340Y-90782140D02*
X165983920Y-90782140D01*
X161746960Y-74429380D02*
X152571401Y-74429380D01*
X166397940Y-90368120D02*
X166397940Y-79080360D01*
X166397940Y-79080360D02*
X161746960Y-74429380D01*
X152571401Y-74429380D02*
X152171402Y-74829379D01*
X165983920Y-90782140D02*
X166397940Y-90368120D01*
G04 #@! TO.N,LED2*
X167100000Y-78852780D02*
X167100000Y-90641420D01*
X162161220Y-73914000D02*
X167100000Y-78852780D01*
X151030000Y-73910000D02*
X151771885Y-73914000D01*
X151771885Y-73914000D02*
X162161220Y-73914000D01*
X165854380Y-91887040D02*
X162321240Y-91887040D01*
X167100000Y-90641420D02*
X165854380Y-91887040D01*
G04 #@! TO.N,FLASH_IO0*
X141250000Y-77750000D02*
X140639800Y-77139800D01*
X141725750Y-77750000D02*
X141250000Y-77750000D01*
X141792506Y-77742478D02*
X141725750Y-77750000D01*
X141855915Y-77720290D02*
X141792506Y-77742478D01*
X141960299Y-77637046D02*
X141912796Y-77684549D01*
X142018228Y-77516756D02*
X141996040Y-77580165D01*
X142025750Y-77450000D02*
X142018228Y-77516756D01*
X142033271Y-76990015D02*
X142025750Y-77056772D01*
X142055459Y-76926606D02*
X142033271Y-76990015D01*
X142091200Y-76869725D02*
X142055459Y-76926606D01*
X142138703Y-76822222D02*
X142091200Y-76869725D01*
X142195584Y-76786481D02*
X142138703Y-76822222D01*
X143995584Y-78713519D02*
X143938703Y-78677778D01*
X144996040Y-76926606D02*
X144960299Y-76869725D01*
X141912796Y-77684549D02*
X141855915Y-77720290D01*
X144058993Y-78735707D02*
X143995584Y-78713519D01*
X144125750Y-78743228D02*
X144058993Y-78735707D01*
X144192506Y-78735707D02*
X144125750Y-78743228D01*
X144255915Y-78713519D02*
X144192506Y-78735707D01*
X144312796Y-78677778D02*
X144255915Y-78713519D01*
X144396040Y-78573394D02*
X144360299Y-78630275D01*
X142455915Y-76786481D02*
X142392506Y-76764293D01*
X144418228Y-78509985D02*
X144396040Y-78573394D01*
X144425750Y-77056772D02*
X144425750Y-78443228D01*
X140639800Y-77139800D02*
X140639800Y-76230480D01*
X144455459Y-76926606D02*
X144433271Y-76990015D01*
X144725750Y-76756772D02*
X144658993Y-76764293D01*
X143225750Y-78443228D02*
X143218228Y-78509985D01*
X144538703Y-76822222D02*
X144491200Y-76869725D01*
X143225750Y-77056772D02*
X143225750Y-78443228D01*
X145091200Y-77637046D02*
X145055459Y-77580165D01*
X143938703Y-78677778D02*
X143891200Y-78630275D01*
X144491200Y-76869725D02*
X144455459Y-76926606D01*
X143291200Y-76869725D02*
X143255459Y-76926606D01*
X145750014Y-77750000D02*
X145325750Y-77750000D01*
X143255459Y-76926606D02*
X143233271Y-76990015D01*
X145033271Y-77516756D02*
X145025750Y-77450000D01*
X144855915Y-76786481D02*
X144792506Y-76764293D01*
X144360299Y-78630275D02*
X144312796Y-78677778D01*
X142025750Y-77056772D02*
X142025750Y-77450000D01*
X144433271Y-76990015D02*
X144425750Y-77056772D01*
X143712796Y-76822222D02*
X143655915Y-76786481D01*
X145018228Y-76990015D02*
X144996040Y-76926606D01*
X143825750Y-77056772D02*
X143818228Y-76990015D01*
X145195584Y-77720290D02*
X145138703Y-77684549D01*
X144425750Y-78443228D02*
X144418228Y-78509985D01*
X145138703Y-77684549D02*
X145091200Y-77637046D01*
X144658993Y-76764293D02*
X144595584Y-76786481D01*
X142795584Y-78713519D02*
X142738703Y-78677778D01*
X145325750Y-77750000D02*
X145258993Y-77742478D01*
X145055459Y-77580165D02*
X145033271Y-77516756D01*
X143655915Y-76786481D02*
X143592506Y-76764293D01*
X145025750Y-77056772D02*
X145018228Y-76990015D01*
X144595584Y-76786481D02*
X144538703Y-76822222D01*
X143891200Y-78630275D02*
X143855459Y-78573394D01*
X145258993Y-77742478D02*
X145195584Y-77720290D01*
X143458993Y-76764293D02*
X143395584Y-76786481D01*
X142655459Y-78573394D02*
X142633271Y-78509985D01*
X144960299Y-76869725D02*
X144912796Y-76822222D01*
X144792506Y-76764293D02*
X144725750Y-76756772D01*
X142625750Y-77056772D02*
X142618228Y-76990015D01*
X143855459Y-78573394D02*
X143833271Y-78509985D01*
X143833271Y-78509985D02*
X143825750Y-78443228D01*
X143825750Y-78443228D02*
X143825750Y-77056772D01*
X145025750Y-77450000D02*
X145025750Y-77056772D01*
X143818228Y-76990015D02*
X143796040Y-76926606D01*
X143760299Y-76869725D02*
X143712796Y-76822222D01*
X143796040Y-76926606D02*
X143760299Y-76869725D01*
X142325750Y-76756772D02*
X142258993Y-76764293D01*
X143592506Y-76764293D02*
X143525750Y-76756772D01*
X143525750Y-76756772D02*
X143458993Y-76764293D01*
X143395584Y-76786481D02*
X143338703Y-76822222D01*
X143338703Y-76822222D02*
X143291200Y-76869725D01*
X144912796Y-76822222D02*
X144855915Y-76786481D01*
X143233271Y-76990015D02*
X143225750Y-77056772D01*
X143218228Y-78509985D02*
X143196040Y-78573394D01*
X143196040Y-78573394D02*
X143160299Y-78630275D01*
X143160299Y-78630275D02*
X143112796Y-78677778D01*
X143112796Y-78677778D02*
X143055915Y-78713519D01*
X143055915Y-78713519D02*
X142992506Y-78735707D01*
X142992506Y-78735707D02*
X142925750Y-78743228D01*
X142925750Y-78743228D02*
X142858993Y-78735707D01*
X141996040Y-77580165D02*
X141960299Y-77637046D01*
X142858993Y-78735707D02*
X142795584Y-78713519D01*
X142738703Y-78677778D02*
X142691200Y-78630275D01*
X142691200Y-78630275D02*
X142655459Y-78573394D01*
X142633271Y-78509985D02*
X142625750Y-78443228D01*
X142625750Y-78443228D02*
X142625750Y-77056772D01*
X142596040Y-76926606D02*
X142560299Y-76869725D01*
X142512796Y-76822222D02*
X142455915Y-76786481D01*
X142560299Y-76869725D02*
X142512796Y-76822222D01*
X142392506Y-76764293D02*
X142325750Y-76756772D01*
X142618228Y-76990015D02*
X142596040Y-76926606D01*
X142258993Y-76764293D02*
X142195584Y-76786481D01*
G04 #@! TO.N,LED3*
X167800000Y-113901199D02*
X169189401Y-115290600D01*
X167800000Y-78600000D02*
X167800000Y-113901199D01*
X169189401Y-115290600D02*
X169938701Y-115290600D01*
X152000000Y-73300000D02*
X162500000Y-73300000D01*
X162500000Y-73300000D02*
X167800000Y-78600000D01*
G04 #@! TO.N,RX*
X149186402Y-67500000D02*
X153670002Y-71983600D01*
X128040000Y-67500000D02*
X149186402Y-67500000D01*
G04 #@! TO.N,TX*
X128040000Y-70040000D02*
X150050000Y-70040000D01*
X151234299Y-71224299D02*
X152755600Y-72745600D01*
X150050000Y-70040000D02*
X151234299Y-71224299D01*
G04 #@! TD*
D19*
G04 #@! TO.N,GND*
G36*
X173315000Y-57932539D02*
X173315001Y-122932538D01*
X173315001Y-123315000D01*
X118685000Y-123315000D01*
X118685000Y-120497600D01*
X120294401Y-120497600D01*
X120294401Y-121246900D01*
X120448375Y-121766981D01*
X120789655Y-122188550D01*
X121266284Y-122447427D01*
X121337626Y-122461524D01*
X121551701Y-122338852D01*
X121551701Y-120497600D01*
X120294401Y-120497600D01*
X118685000Y-120497600D01*
X118685000Y-119494300D01*
X120294401Y-119494300D01*
X120294401Y-120243600D01*
X121551701Y-120243600D01*
X121551701Y-118402348D01*
X121337626Y-118279676D01*
X121266284Y-118293773D01*
X120789655Y-118552650D01*
X120448375Y-118974219D01*
X120294401Y-119494300D01*
X118685000Y-119494300D01*
X118685000Y-107670600D01*
X119517981Y-107670600D01*
X119625419Y-108210727D01*
X119931376Y-108668625D01*
X120338416Y-108940600D01*
X119931376Y-109212575D01*
X119625419Y-109670473D01*
X119517981Y-110210600D01*
X119625419Y-110750727D01*
X119931376Y-111208625D01*
X120338416Y-111480600D01*
X119931376Y-111752575D01*
X119625419Y-112210473D01*
X119517981Y-112750600D01*
X119625419Y-113290727D01*
X119931376Y-113748625D01*
X120338416Y-114020600D01*
X119931376Y-114292575D01*
X119625419Y-114750473D01*
X119517981Y-115290600D01*
X119625419Y-115830727D01*
X119931376Y-116288625D01*
X120389274Y-116594582D01*
X120793060Y-116674900D01*
X122564342Y-116674900D01*
X122968128Y-116594582D01*
X123426026Y-116288625D01*
X123731983Y-115830727D01*
X123839421Y-115290600D01*
X123731983Y-114750473D01*
X123426026Y-114292575D01*
X123018986Y-114020600D01*
X123426026Y-113748625D01*
X123731983Y-113290727D01*
X123839421Y-112750600D01*
X123731983Y-112210473D01*
X123426026Y-111752575D01*
X123018986Y-111480600D01*
X123426026Y-111208625D01*
X123731983Y-110750727D01*
X123839421Y-110210600D01*
X123731983Y-109670473D01*
X123426026Y-109212575D01*
X123018986Y-108940600D01*
X123426026Y-108668625D01*
X123731983Y-108210727D01*
X123839421Y-107670600D01*
X123731983Y-107130473D01*
X123426026Y-106672575D01*
X122995064Y-106384616D01*
X123075082Y-106360926D01*
X123496651Y-106019646D01*
X123755528Y-105543017D01*
X123769625Y-105471675D01*
X123646953Y-105257600D01*
X121805701Y-105257600D01*
X121805701Y-105277600D01*
X121551701Y-105277600D01*
X121551701Y-105257600D01*
X119710449Y-105257600D01*
X119587777Y-105471675D01*
X119601874Y-105543017D01*
X119860751Y-106019646D01*
X120282320Y-106360926D01*
X120362338Y-106384616D01*
X119931376Y-106672575D01*
X119625419Y-107130473D01*
X119517981Y-107670600D01*
X118685000Y-107670600D01*
X118685000Y-102931675D01*
X119587777Y-102931675D01*
X119601874Y-103003017D01*
X119860751Y-103479646D01*
X120282320Y-103820926D01*
X120416328Y-103860600D01*
X120282320Y-103900274D01*
X119860751Y-104241554D01*
X119601874Y-104718183D01*
X119587777Y-104789525D01*
X119710449Y-105003600D01*
X121551701Y-105003600D01*
X121551701Y-102717600D01*
X121805701Y-102717600D01*
X121805701Y-105003600D01*
X123646953Y-105003600D01*
X123769625Y-104789525D01*
X123755528Y-104718183D01*
X123496651Y-104241554D01*
X123075082Y-103900274D01*
X122941074Y-103860600D01*
X123075082Y-103820926D01*
X123496651Y-103479646D01*
X123755528Y-103003017D01*
X123769625Y-102931675D01*
X123646953Y-102717600D01*
X121805701Y-102717600D01*
X121551701Y-102717600D01*
X119710449Y-102717600D01*
X119587777Y-102931675D01*
X118685000Y-102931675D01*
X118685000Y-67030600D01*
X119517981Y-67030600D01*
X119625419Y-67570727D01*
X119931376Y-68028625D01*
X120362338Y-68316584D01*
X120282320Y-68340274D01*
X119860751Y-68681554D01*
X119601874Y-69158183D01*
X119587777Y-69229525D01*
X119710449Y-69443600D01*
X121551701Y-69443600D01*
X121551701Y-69423600D01*
X121805701Y-69423600D01*
X121805701Y-69443600D01*
X121825701Y-69443600D01*
X121825701Y-69697600D01*
X121805701Y-69697600D01*
X121805701Y-69717600D01*
X121551701Y-69717600D01*
X121551701Y-69697600D01*
X119710449Y-69697600D01*
X119587777Y-69911675D01*
X119601874Y-69983017D01*
X119860751Y-70459646D01*
X120282320Y-70800926D01*
X120362338Y-70824616D01*
X119931376Y-71112575D01*
X119625419Y-71570473D01*
X119517981Y-72110600D01*
X119625419Y-72650727D01*
X119931376Y-73108625D01*
X120362338Y-73396584D01*
X120282320Y-73420274D01*
X119860751Y-73761554D01*
X119601874Y-74238183D01*
X119587777Y-74309525D01*
X119710449Y-74523600D01*
X121551701Y-74523600D01*
X121551701Y-74503600D01*
X121805701Y-74503600D01*
X121805701Y-74523600D01*
X121825701Y-74523600D01*
X121825701Y-74777600D01*
X121805701Y-74777600D01*
X121805701Y-74797600D01*
X121551701Y-74797600D01*
X121551701Y-74777600D01*
X119710449Y-74777600D01*
X119587777Y-74991675D01*
X119601874Y-75063017D01*
X119860751Y-75539646D01*
X120282320Y-75880926D01*
X120362338Y-75904616D01*
X119931376Y-76192575D01*
X119625419Y-76650473D01*
X119517981Y-77190600D01*
X119625419Y-77730727D01*
X119931376Y-78188625D01*
X120362338Y-78476584D01*
X120282320Y-78500274D01*
X119860751Y-78841554D01*
X119601874Y-79318183D01*
X119587777Y-79389525D01*
X119710449Y-79603600D01*
X121551701Y-79603600D01*
X121551701Y-79583600D01*
X121805701Y-79583600D01*
X121805701Y-79603600D01*
X121825701Y-79603600D01*
X121825701Y-79857600D01*
X121805701Y-79857600D01*
X121805701Y-79877600D01*
X121551701Y-79877600D01*
X121551701Y-79857600D01*
X119710449Y-79857600D01*
X119587777Y-80071675D01*
X119601874Y-80143017D01*
X119860751Y-80619646D01*
X120282320Y-80960926D01*
X120362338Y-80984616D01*
X119931376Y-81272575D01*
X119625419Y-81730473D01*
X119517981Y-82270600D01*
X119625419Y-82810727D01*
X119931376Y-83268625D01*
X120338416Y-83540600D01*
X119931376Y-83812575D01*
X119625419Y-84270473D01*
X119517981Y-84810600D01*
X119625419Y-85350727D01*
X119931376Y-85808625D01*
X120338416Y-86080600D01*
X119931376Y-86352575D01*
X119625419Y-86810473D01*
X119517981Y-87350600D01*
X119625419Y-87890727D01*
X119931376Y-88348625D01*
X120338416Y-88620600D01*
X119931376Y-88892575D01*
X119625419Y-89350473D01*
X119517981Y-89890600D01*
X119625419Y-90430727D01*
X119931376Y-90888625D01*
X120338416Y-91160600D01*
X119931376Y-91432575D01*
X119625419Y-91890473D01*
X119517981Y-92430600D01*
X119625419Y-92970727D01*
X119931376Y-93428625D01*
X120338416Y-93700600D01*
X119931376Y-93972575D01*
X119625419Y-94430473D01*
X119517981Y-94970600D01*
X119625419Y-95510727D01*
X119931376Y-95968625D01*
X120338416Y-96240600D01*
X119931376Y-96512575D01*
X119625419Y-96970473D01*
X119517981Y-97510600D01*
X119625419Y-98050727D01*
X119931376Y-98508625D01*
X120338416Y-98780600D01*
X119931376Y-99052575D01*
X119625419Y-99510473D01*
X119517981Y-100050600D01*
X119625419Y-100590727D01*
X119931376Y-101048625D01*
X120362338Y-101336584D01*
X120282320Y-101360274D01*
X119860751Y-101701554D01*
X119601874Y-102178183D01*
X119587777Y-102249525D01*
X119710449Y-102463600D01*
X121551701Y-102463600D01*
X121551701Y-102443600D01*
X121805701Y-102443600D01*
X121805701Y-102463600D01*
X123646953Y-102463600D01*
X123769625Y-102249525D01*
X123755528Y-102178183D01*
X123496651Y-101701554D01*
X123075082Y-101360274D01*
X122995064Y-101336584D01*
X123426026Y-101048625D01*
X123731983Y-100590727D01*
X123839421Y-100050600D01*
X123731983Y-99510473D01*
X123426026Y-99052575D01*
X123018986Y-98780600D01*
X123426026Y-98508625D01*
X123731983Y-98050727D01*
X123839421Y-97510600D01*
X123731983Y-96970473D01*
X123426026Y-96512575D01*
X123018986Y-96240600D01*
X123426026Y-95968625D01*
X123731983Y-95510727D01*
X123839421Y-94970600D01*
X123731983Y-94430473D01*
X123426026Y-93972575D01*
X123018986Y-93700600D01*
X123426026Y-93428625D01*
X123585069Y-93190600D01*
X148040438Y-93190600D01*
X123734229Y-117496810D01*
X123670773Y-117539210D01*
X123628373Y-117602666D01*
X123628372Y-117602667D01*
X123502798Y-117790602D01*
X123443813Y-118087139D01*
X123458702Y-118161991D01*
X123458702Y-118464232D01*
X123220677Y-118623275D01*
X122932717Y-119054238D01*
X122909027Y-118974219D01*
X122567747Y-118552650D01*
X122091118Y-118293773D01*
X122019776Y-118279676D01*
X121805701Y-118402348D01*
X121805701Y-120243600D01*
X121825701Y-120243600D01*
X121825701Y-120497600D01*
X121805701Y-120497600D01*
X121805701Y-122338852D01*
X122019776Y-122461524D01*
X122091118Y-122447427D01*
X122567747Y-122188550D01*
X122909027Y-121766981D01*
X122932717Y-121686962D01*
X123220676Y-122117924D01*
X123678574Y-122423882D01*
X124218701Y-122531320D01*
X124758827Y-122423882D01*
X125216725Y-122117925D01*
X125488701Y-121710884D01*
X125760676Y-122117924D01*
X126218574Y-122423882D01*
X126758701Y-122531320D01*
X127298827Y-122423882D01*
X127756725Y-122117925D01*
X128028701Y-121710884D01*
X128300676Y-122117924D01*
X128758574Y-122423882D01*
X129298701Y-122531320D01*
X129838827Y-122423882D01*
X130296725Y-122117925D01*
X130568701Y-121710884D01*
X130840676Y-122117924D01*
X131298574Y-122423882D01*
X131838701Y-122531320D01*
X132378827Y-122423882D01*
X132836725Y-122117925D01*
X133108701Y-121710884D01*
X133380676Y-122117924D01*
X133838574Y-122423882D01*
X134378701Y-122531320D01*
X134918827Y-122423882D01*
X135376725Y-122117925D01*
X135648701Y-121710884D01*
X135920676Y-122117924D01*
X136378574Y-122423882D01*
X136918701Y-122531320D01*
X137458827Y-122423882D01*
X137916725Y-122117925D01*
X138188701Y-121710884D01*
X138460676Y-122117924D01*
X138918574Y-122423882D01*
X139458701Y-122531320D01*
X139998827Y-122423882D01*
X140456725Y-122117925D01*
X140744685Y-121686963D01*
X140768375Y-121766981D01*
X141109655Y-122188550D01*
X141586284Y-122447427D01*
X141657626Y-122461524D01*
X141871701Y-122338852D01*
X141871701Y-120497600D01*
X142125701Y-120497600D01*
X142125701Y-122338852D01*
X142339776Y-122461524D01*
X142411118Y-122447427D01*
X142887747Y-122188550D01*
X143229027Y-121766981D01*
X143268701Y-121632973D01*
X143308375Y-121766981D01*
X143649655Y-122188550D01*
X144126284Y-122447427D01*
X144197626Y-122461524D01*
X144411701Y-122338852D01*
X144411701Y-120497600D01*
X142125701Y-120497600D01*
X141871701Y-120497600D01*
X141851701Y-120497600D01*
X141851701Y-120243600D01*
X141871701Y-120243600D01*
X141871701Y-118402348D01*
X142125701Y-118402348D01*
X142125701Y-120243600D01*
X144411701Y-120243600D01*
X144411701Y-118402348D01*
X144665701Y-118402348D01*
X144665701Y-120243600D01*
X144685701Y-120243600D01*
X144685701Y-120497600D01*
X144665701Y-120497600D01*
X144665701Y-122338852D01*
X144879776Y-122461524D01*
X144951118Y-122447427D01*
X145427747Y-122188550D01*
X145769027Y-121766981D01*
X145792717Y-121686962D01*
X146080676Y-122117924D01*
X146538574Y-122423882D01*
X147078701Y-122531320D01*
X147618827Y-122423882D01*
X148076725Y-122117925D01*
X148348701Y-121710884D01*
X148620676Y-122117924D01*
X149078574Y-122423882D01*
X149618701Y-122531320D01*
X150158827Y-122423882D01*
X150616725Y-122117925D01*
X150888701Y-121710884D01*
X151160676Y-122117924D01*
X151618574Y-122423882D01*
X152158701Y-122531320D01*
X152698827Y-122423882D01*
X153156725Y-122117925D01*
X153428701Y-121710884D01*
X153700676Y-122117924D01*
X154158574Y-122423882D01*
X154698701Y-122531320D01*
X155238827Y-122423882D01*
X155696725Y-122117925D01*
X155968701Y-121710884D01*
X156240676Y-122117924D01*
X156698574Y-122423882D01*
X157238701Y-122531320D01*
X157778827Y-122423882D01*
X158236725Y-122117925D01*
X158508701Y-121710884D01*
X158780676Y-122117924D01*
X159238574Y-122423882D01*
X159778701Y-122531320D01*
X160318827Y-122423882D01*
X160776725Y-122117925D01*
X161048701Y-121710884D01*
X161320676Y-122117924D01*
X161778574Y-122423882D01*
X162318701Y-122531320D01*
X162858827Y-122423882D01*
X163316725Y-122117925D01*
X163588701Y-121710884D01*
X163860676Y-122117924D01*
X164318574Y-122423882D01*
X164858701Y-122531320D01*
X165398827Y-122423882D01*
X165856725Y-122117925D01*
X166128701Y-121710884D01*
X166400676Y-122117924D01*
X166858574Y-122423882D01*
X167398701Y-122531320D01*
X167938827Y-122423882D01*
X168396725Y-122117925D01*
X168668701Y-121710884D01*
X168940676Y-122117924D01*
X169398574Y-122423882D01*
X169938701Y-122531320D01*
X170478827Y-122423882D01*
X170936725Y-122117925D01*
X171242683Y-121660027D01*
X171323001Y-121256241D01*
X171323001Y-119484959D01*
X171242683Y-119081173D01*
X170936726Y-118623275D01*
X170478828Y-118317318D01*
X169938701Y-118209880D01*
X169398575Y-118317318D01*
X168940677Y-118623275D01*
X168668702Y-119030316D01*
X168396726Y-118623275D01*
X167938828Y-118317318D01*
X167398701Y-118209880D01*
X166858575Y-118317318D01*
X166400677Y-118623275D01*
X166128702Y-119030316D01*
X165856726Y-118623275D01*
X165398828Y-118317318D01*
X164858701Y-118209880D01*
X164318575Y-118317318D01*
X163860677Y-118623275D01*
X163588702Y-119030316D01*
X163316726Y-118623275D01*
X162858828Y-118317318D01*
X162318701Y-118209880D01*
X161778575Y-118317318D01*
X161320677Y-118623275D01*
X161048702Y-119030316D01*
X160776726Y-118623275D01*
X160318828Y-118317318D01*
X159778701Y-118209880D01*
X159238575Y-118317318D01*
X158780677Y-118623275D01*
X158508702Y-119030316D01*
X158236726Y-118623275D01*
X157778828Y-118317318D01*
X157238701Y-118209880D01*
X156698575Y-118317318D01*
X156240677Y-118623275D01*
X155968702Y-119030316D01*
X155696726Y-118623275D01*
X155238828Y-118317318D01*
X154698701Y-118209880D01*
X154158575Y-118317318D01*
X153700677Y-118623275D01*
X153428702Y-119030316D01*
X153156726Y-118623275D01*
X152698828Y-118317318D01*
X152158701Y-118209880D01*
X151618575Y-118317318D01*
X151160677Y-118623275D01*
X150888702Y-119030316D01*
X150616726Y-118623275D01*
X150158828Y-118317318D01*
X149618701Y-118209880D01*
X149078575Y-118317318D01*
X148620677Y-118623275D01*
X148348702Y-119030316D01*
X148076726Y-118623275D01*
X147618828Y-118317318D01*
X147078701Y-118209880D01*
X146538575Y-118317318D01*
X146080677Y-118623275D01*
X145792717Y-119054238D01*
X145769027Y-118974219D01*
X145427747Y-118552650D01*
X144951118Y-118293773D01*
X144879776Y-118279676D01*
X144665701Y-118402348D01*
X144411701Y-118402348D01*
X144197626Y-118279676D01*
X144126284Y-118293773D01*
X143649655Y-118552650D01*
X143308375Y-118974219D01*
X143268701Y-119108227D01*
X143229027Y-118974219D01*
X142887747Y-118552650D01*
X142411118Y-118293773D01*
X142339776Y-118279676D01*
X142125701Y-118402348D01*
X141871701Y-118402348D01*
X141657626Y-118279676D01*
X141586284Y-118293773D01*
X141109655Y-118552650D01*
X140768375Y-118974219D01*
X140744685Y-119054237D01*
X140456726Y-118623275D01*
X139998828Y-118317318D01*
X139458701Y-118209880D01*
X138918575Y-118317318D01*
X138460677Y-118623275D01*
X138188702Y-119030316D01*
X137916726Y-118623275D01*
X137458828Y-118317318D01*
X136918701Y-118209880D01*
X136378575Y-118317318D01*
X135920677Y-118623275D01*
X135648702Y-119030316D01*
X135376726Y-118623275D01*
X134918828Y-118317318D01*
X134378701Y-118209880D01*
X133838575Y-118317318D01*
X133380677Y-118623275D01*
X133108702Y-119030316D01*
X132836726Y-118623275D01*
X132598701Y-118464232D01*
X132598701Y-115486100D01*
X136092057Y-111992744D01*
X140728701Y-111992744D01*
X140728701Y-113508456D01*
X141308739Y-114908791D01*
X142380510Y-115980562D01*
X143780845Y-116560600D01*
X145296557Y-116560600D01*
X146696892Y-115980562D01*
X147768663Y-114908791D01*
X148348701Y-113508456D01*
X148348701Y-111992744D01*
X147768663Y-110592409D01*
X146696892Y-109520638D01*
X145296557Y-108940600D01*
X143780845Y-108940600D01*
X142380510Y-109520638D01*
X141308739Y-110592409D01*
X140728701Y-111992744D01*
X136092057Y-111992744D01*
X150969802Y-97115000D01*
X151015983Y-97115000D01*
X151359635Y-96972655D01*
X151622655Y-96709635D01*
X151765000Y-96365983D01*
X151765000Y-95994017D01*
X151622655Y-95650365D01*
X151359635Y-95387345D01*
X151015983Y-95245000D01*
X150644017Y-95245000D01*
X150466116Y-95318689D01*
X150879805Y-94905000D01*
X150925985Y-94905000D01*
X151269637Y-94762655D01*
X151532657Y-94499635D01*
X151675002Y-94155983D01*
X151675002Y-93784017D01*
X151532657Y-93440365D01*
X151269637Y-93177345D01*
X150925985Y-93035000D01*
X150554019Y-93035000D01*
X150210367Y-93177345D01*
X149947347Y-93440365D01*
X149805002Y-93784017D01*
X149805002Y-93830197D01*
X126274229Y-117360972D01*
X126210773Y-117403372D01*
X126168373Y-117466828D01*
X126168372Y-117466829D01*
X126042798Y-117654764D01*
X125983813Y-117951301D01*
X125998702Y-118026153D01*
X125998702Y-118464232D01*
X125760677Y-118623275D01*
X125488702Y-119030316D01*
X125216726Y-118623275D01*
X124978701Y-118464232D01*
X124978701Y-118401940D01*
X160134142Y-83246500D01*
X160382268Y-83246500D01*
X160414923Y-83279155D01*
X160758575Y-83421500D01*
X161130541Y-83421500D01*
X161474193Y-83279155D01*
X161737213Y-83016135D01*
X161879558Y-82672483D01*
X161879558Y-82300517D01*
X161737213Y-81956865D01*
X161474193Y-81693845D01*
X161130541Y-81551500D01*
X160758575Y-81551500D01*
X160414923Y-81693845D01*
X160382268Y-81726500D01*
X159987902Y-81726500D01*
X161479833Y-80234569D01*
X161543289Y-80192169D01*
X161623801Y-80071675D01*
X161711264Y-79940778D01*
X161728277Y-79855248D01*
X161755360Y-79719092D01*
X161755360Y-79719088D01*
X161770248Y-79644240D01*
X161755360Y-79569392D01*
X161755360Y-79330230D01*
X161788015Y-79297575D01*
X161930360Y-78953923D01*
X161930360Y-78581957D01*
X161788015Y-78238305D01*
X161524995Y-77975285D01*
X161181343Y-77832940D01*
X160809377Y-77832940D01*
X160465725Y-77975285D01*
X160202705Y-78238305D01*
X160060360Y-78581957D01*
X160060360Y-78953923D01*
X160202705Y-79297575D01*
X160234964Y-79329834D01*
X153335000Y-86229799D01*
X153335000Y-86174017D01*
X153192655Y-85830365D01*
X152929635Y-85567345D01*
X152585983Y-85425000D01*
X152214017Y-85425000D01*
X151870365Y-85567345D01*
X151837710Y-85600000D01*
X145094802Y-85600000D01*
X143683000Y-84188199D01*
X143683000Y-84142017D01*
X143540655Y-83798365D01*
X143277635Y-83535345D01*
X142933983Y-83393000D01*
X142562017Y-83393000D01*
X142218365Y-83535345D01*
X141955345Y-83798365D01*
X141813000Y-84142017D01*
X141813000Y-84513983D01*
X141955345Y-84857635D01*
X142218365Y-85120655D01*
X142562017Y-85263000D01*
X142608199Y-85263000D01*
X144189671Y-86844473D01*
X144232071Y-86907929D01*
X144483463Y-87075904D01*
X144705148Y-87120000D01*
X144705153Y-87120000D01*
X144780000Y-87134888D01*
X144854847Y-87120000D01*
X151837710Y-87120000D01*
X151870365Y-87152655D01*
X152214017Y-87295000D01*
X152269799Y-87295000D01*
X147894199Y-91670600D01*
X123585069Y-91670600D01*
X123426026Y-91432575D01*
X123018986Y-91160600D01*
X123426026Y-90888625D01*
X123731983Y-90430727D01*
X123839421Y-89890600D01*
X123731983Y-89350473D01*
X123426026Y-88892575D01*
X123018986Y-88620600D01*
X123426026Y-88348625D01*
X123731983Y-87890727D01*
X123839421Y-87350600D01*
X123731983Y-86810473D01*
X123426026Y-86352575D01*
X123018986Y-86080600D01*
X123426026Y-85808625D01*
X123731983Y-85350727D01*
X123839421Y-84810600D01*
X123783572Y-84529830D01*
X125984473Y-82328930D01*
X126047929Y-82286530D01*
X126143432Y-82143600D01*
X126215904Y-82035139D01*
X126229121Y-81968691D01*
X126260000Y-81813453D01*
X126260000Y-81813449D01*
X126274888Y-81738601D01*
X126260000Y-81663753D01*
X126260000Y-71318178D01*
X126570625Y-71110625D01*
X126770000Y-70812239D01*
X126969375Y-71110625D01*
X127460582Y-71438839D01*
X127893744Y-71525000D01*
X128186256Y-71525000D01*
X128619418Y-71438839D01*
X129110625Y-71110625D01*
X129318178Y-70800000D01*
X149735199Y-70800000D01*
X149962574Y-71027375D01*
X149812965Y-71089345D01*
X149780310Y-71122000D01*
X143821852Y-71122000D01*
X143683158Y-71094412D01*
X143683157Y-71094412D01*
X143386620Y-71153397D01*
X143198684Y-71278971D01*
X143198681Y-71278974D01*
X143135229Y-71321371D01*
X143092832Y-71384823D01*
X130571780Y-83905877D01*
X130571780Y-76541310D01*
X130586655Y-76526435D01*
X130729000Y-76182783D01*
X130729000Y-75810817D01*
X130586655Y-75467165D01*
X130323635Y-75204145D01*
X129979983Y-75061800D01*
X129608017Y-75061800D01*
X129264365Y-75204145D01*
X129001345Y-75467165D01*
X128859000Y-75810817D01*
X128859000Y-76182783D01*
X129001345Y-76526435D01*
X129051781Y-76576871D01*
X129051780Y-86804369D01*
X128934349Y-86921800D01*
X128776780Y-87302206D01*
X128776780Y-87713954D01*
X128934349Y-88094360D01*
X129225500Y-88385511D01*
X129605906Y-88543080D01*
X130017654Y-88543080D01*
X130253200Y-88445514D01*
X130253200Y-88700930D01*
X130220545Y-88733585D01*
X130078200Y-89077237D01*
X130078200Y-89449203D01*
X130220545Y-89792855D01*
X130483565Y-90055875D01*
X130827217Y-90198220D01*
X131199183Y-90198220D01*
X131542835Y-90055875D01*
X131805855Y-89792855D01*
X131948200Y-89449203D01*
X131948200Y-89077237D01*
X131805855Y-88733585D01*
X131773200Y-88700930D01*
X131773200Y-84854059D01*
X139857145Y-76770115D01*
X139879800Y-76792770D01*
X139879800Y-77064952D01*
X139864912Y-77139800D01*
X139879800Y-77214647D01*
X139879800Y-77214651D01*
X139923896Y-77436336D01*
X140091871Y-77687729D01*
X140155330Y-77730131D01*
X140659671Y-78234473D01*
X140702071Y-78297929D01*
X140953463Y-78465904D01*
X141175148Y-78510000D01*
X141175152Y-78510000D01*
X141249999Y-78524888D01*
X141324846Y-78510000D01*
X141693770Y-78510000D01*
X141736466Y-78513601D01*
X141738362Y-78513387D01*
X141749061Y-78516147D01*
X141792601Y-78510000D01*
X141800602Y-78510000D01*
X141820167Y-78506108D01*
X141864308Y-78499876D01*
X141865750Y-78510087D01*
X141865750Y-78518079D01*
X141869637Y-78537622D01*
X141879239Y-78605633D01*
X141886429Y-78669451D01*
X141889696Y-78679702D01*
X141891199Y-78690347D01*
X141891830Y-78692150D01*
X141891520Y-78703195D01*
X141925838Y-78793097D01*
X141955067Y-78884805D01*
X141962198Y-78893250D01*
X141962831Y-78895059D01*
X141968294Y-78904321D01*
X141972127Y-78914361D01*
X141973141Y-78915976D01*
X141975297Y-78926812D01*
X142028764Y-79006832D01*
X142077671Y-79089740D01*
X142086502Y-79096386D01*
X142087516Y-79098000D01*
X142094899Y-79105809D01*
X142100871Y-79114747D01*
X142102221Y-79116097D01*
X142106733Y-79126181D01*
X142176674Y-79192304D01*
X142242797Y-79262245D01*
X142252880Y-79266757D01*
X142254230Y-79268107D01*
X142263171Y-79274081D01*
X142270978Y-79281462D01*
X142272592Y-79282476D01*
X142279238Y-79291307D01*
X142362143Y-79340212D01*
X142442166Y-79393681D01*
X142453002Y-79395837D01*
X142454617Y-79396851D01*
X142464657Y-79400684D01*
X142473919Y-79406147D01*
X142475726Y-79406779D01*
X142484172Y-79413911D01*
X142575875Y-79443139D01*
X142665783Y-79477459D01*
X142676831Y-79477149D01*
X142678631Y-79477779D01*
X142689276Y-79479282D01*
X142699527Y-79482549D01*
X142701417Y-79482762D01*
X142711227Y-79487830D01*
X142807128Y-79495920D01*
X142902438Y-79509376D01*
X142913140Y-79506615D01*
X142915046Y-79506830D01*
X142925750Y-79505927D01*
X142936454Y-79506830D01*
X142938359Y-79506615D01*
X142949061Y-79509376D01*
X143044379Y-79495919D01*
X143140274Y-79487829D01*
X143150084Y-79482761D01*
X143151973Y-79482548D01*
X143162219Y-79479282D01*
X143172868Y-79477779D01*
X143174671Y-79477148D01*
X143185716Y-79477458D01*
X143275619Y-79443140D01*
X143367327Y-79413911D01*
X143375773Y-79406779D01*
X143377580Y-79406147D01*
X143386842Y-79400684D01*
X143396882Y-79396851D01*
X143398497Y-79395837D01*
X143409333Y-79393681D01*
X143489353Y-79340214D01*
X143525750Y-79318744D01*
X143562143Y-79340212D01*
X143642166Y-79393681D01*
X143653002Y-79395837D01*
X143654617Y-79396851D01*
X143664657Y-79400684D01*
X143673919Y-79406147D01*
X143675726Y-79406779D01*
X143684172Y-79413911D01*
X143775875Y-79443139D01*
X143865783Y-79477459D01*
X143876831Y-79477149D01*
X143878631Y-79477779D01*
X143889276Y-79479282D01*
X143899527Y-79482549D01*
X143901417Y-79482762D01*
X143911227Y-79487830D01*
X144007128Y-79495920D01*
X144102438Y-79509376D01*
X144113140Y-79506615D01*
X144115046Y-79506830D01*
X144125750Y-79505927D01*
X144136454Y-79506830D01*
X144138359Y-79506615D01*
X144149061Y-79509376D01*
X144244379Y-79495919D01*
X144340274Y-79487829D01*
X144350084Y-79482761D01*
X144351973Y-79482548D01*
X144362219Y-79479282D01*
X144372868Y-79477779D01*
X144374671Y-79477148D01*
X144385716Y-79477458D01*
X144475619Y-79443140D01*
X144567327Y-79413911D01*
X144575773Y-79406779D01*
X144577580Y-79406147D01*
X144586842Y-79400684D01*
X144596882Y-79396851D01*
X144598497Y-79395837D01*
X144609333Y-79393681D01*
X144689353Y-79340214D01*
X144772261Y-79291307D01*
X144778907Y-79282476D01*
X144780521Y-79281462D01*
X144788330Y-79274079D01*
X144797268Y-79268107D01*
X144798618Y-79266757D01*
X144808702Y-79262245D01*
X144874825Y-79192304D01*
X144944766Y-79126181D01*
X144949278Y-79116098D01*
X144950628Y-79114748D01*
X144956602Y-79105807D01*
X144963983Y-79098000D01*
X144964997Y-79096386D01*
X144973828Y-79089740D01*
X145022733Y-79006835D01*
X145076202Y-78926812D01*
X145078358Y-78915976D01*
X145079372Y-78914361D01*
X145083205Y-78904321D01*
X145088668Y-78895059D01*
X145089298Y-78893258D01*
X145096427Y-78884816D01*
X145125655Y-78793116D01*
X145159980Y-78703195D01*
X145159670Y-78692147D01*
X145160300Y-78690347D01*
X145161803Y-78679704D01*
X145165067Y-78669462D01*
X145172256Y-78605661D01*
X145181859Y-78537642D01*
X145185750Y-78518080D01*
X145185750Y-78510080D01*
X145186004Y-78508280D01*
X145220379Y-78542655D01*
X145564031Y-78685000D01*
X145920632Y-78685000D01*
X145691687Y-78913945D01*
X145549342Y-79257597D01*
X145549342Y-79629563D01*
X145691687Y-79973215D01*
X145724342Y-80005870D01*
X145724342Y-80084116D01*
X145724343Y-80084120D01*
X145724342Y-80999778D01*
X145709454Y-81074625D01*
X145724342Y-81149472D01*
X145724342Y-81149476D01*
X145768438Y-81371161D01*
X145936413Y-81622554D01*
X145999872Y-81664956D01*
X148888308Y-84553393D01*
X148930708Y-84616849D01*
X149182100Y-84784824D01*
X149403785Y-84828920D01*
X149403789Y-84828920D01*
X149478637Y-84843808D01*
X149553485Y-84828920D01*
X153605313Y-84828920D01*
X153680160Y-84843808D01*
X153755007Y-84828920D01*
X153755012Y-84828920D01*
X153976697Y-84784824D01*
X154228089Y-84616849D01*
X154270491Y-84553390D01*
X157896663Y-80927220D01*
X157942843Y-80927220D01*
X158286495Y-80784875D01*
X158549515Y-80521855D01*
X158691860Y-80178203D01*
X158691860Y-79806237D01*
X158549515Y-79462585D01*
X158286495Y-79199565D01*
X157942843Y-79057220D01*
X157570877Y-79057220D01*
X157227225Y-79199565D01*
X156964205Y-79462585D01*
X156821860Y-79806237D01*
X156821860Y-79852417D01*
X154693600Y-81980678D01*
X154693600Y-80143350D01*
X154534850Y-79984600D01*
X153251995Y-79984600D01*
X153270071Y-79966524D01*
X153277874Y-79963292D01*
X153278180Y-79958415D01*
X153290086Y-79946509D01*
X153284507Y-79857600D01*
X153290086Y-79768691D01*
X153278180Y-79756785D01*
X153277874Y-79751908D01*
X153271273Y-79749878D01*
X153251995Y-79730600D01*
X154534850Y-79730600D01*
X154693600Y-79571850D01*
X154693600Y-77031290D01*
X154596927Y-76797901D01*
X154479625Y-76680600D01*
X154733310Y-76680600D01*
X154765965Y-76713255D01*
X155109617Y-76855600D01*
X155481583Y-76855600D01*
X155825235Y-76713255D01*
X156088255Y-76450235D01*
X156230600Y-76106583D01*
X156230600Y-75772601D01*
X156718678Y-75772601D01*
X156788943Y-75942235D01*
X157051963Y-76205255D01*
X157395615Y-76347600D01*
X157767581Y-76347600D01*
X158111233Y-76205255D01*
X158143888Y-76172600D01*
X161488279Y-76172600D01*
X164813932Y-79498254D01*
X164813931Y-89342970D01*
X164781276Y-89375625D01*
X164638931Y-89719277D01*
X164638931Y-89977869D01*
X164323323Y-89847140D01*
X163951357Y-89847140D01*
X163607705Y-89989485D01*
X163344685Y-90252505D01*
X163202340Y-90596157D01*
X163202340Y-90968123D01*
X163268165Y-91127040D01*
X162883530Y-91127040D01*
X162850875Y-91094385D01*
X162507223Y-90952040D01*
X162135257Y-90952040D01*
X161791605Y-91094385D01*
X161528585Y-91357405D01*
X161386240Y-91701057D01*
X161386240Y-92073023D01*
X161528585Y-92416675D01*
X161791605Y-92679695D01*
X162135257Y-92822040D01*
X162507223Y-92822040D01*
X162850875Y-92679695D01*
X162883530Y-92647040D01*
X165779533Y-92647040D01*
X165854380Y-92661928D01*
X165929227Y-92647040D01*
X165929232Y-92647040D01*
X166150917Y-92602944D01*
X166402309Y-92434969D01*
X166444711Y-92371510D01*
X167040000Y-91776221D01*
X167040001Y-113826347D01*
X167025112Y-113901199D01*
X167040001Y-113976051D01*
X167084097Y-114197736D01*
X167252072Y-114449128D01*
X167315528Y-114491528D01*
X167833830Y-115009830D01*
X167777981Y-115290600D01*
X167885419Y-115830727D01*
X168191376Y-116288625D01*
X168649274Y-116594582D01*
X169053060Y-116674900D01*
X170824342Y-116674900D01*
X171228128Y-116594582D01*
X171686026Y-116288625D01*
X171991983Y-115830727D01*
X172099421Y-115290600D01*
X171991983Y-114750473D01*
X171686026Y-114292575D01*
X171278986Y-114020600D01*
X171686026Y-113748625D01*
X171991983Y-113290727D01*
X172099421Y-112750600D01*
X171991983Y-112210473D01*
X171686026Y-111752575D01*
X171278986Y-111480600D01*
X171686026Y-111208625D01*
X171991983Y-110750727D01*
X172099421Y-110210600D01*
X171991983Y-109670473D01*
X171686026Y-109212575D01*
X171255064Y-108924616D01*
X171335082Y-108900926D01*
X171756651Y-108559646D01*
X172015528Y-108083017D01*
X172029625Y-108011675D01*
X171906953Y-107797600D01*
X170065701Y-107797600D01*
X170065701Y-107817600D01*
X169811701Y-107817600D01*
X169811701Y-107797600D01*
X169791701Y-107797600D01*
X169791701Y-107543600D01*
X169811701Y-107543600D01*
X169811701Y-105257600D01*
X170065701Y-105257600D01*
X170065701Y-107543600D01*
X171906953Y-107543600D01*
X172029625Y-107329525D01*
X172015528Y-107258183D01*
X171756651Y-106781554D01*
X171335082Y-106440274D01*
X171201074Y-106400600D01*
X171335082Y-106360926D01*
X171756651Y-106019646D01*
X172015528Y-105543017D01*
X172029625Y-105471675D01*
X171906953Y-105257600D01*
X170065701Y-105257600D01*
X169811701Y-105257600D01*
X169791701Y-105257600D01*
X169791701Y-105003600D01*
X169811701Y-105003600D01*
X169811701Y-104983600D01*
X170065701Y-104983600D01*
X170065701Y-105003600D01*
X171906953Y-105003600D01*
X172029625Y-104789525D01*
X172015528Y-104718183D01*
X171756651Y-104241554D01*
X171335082Y-103900274D01*
X171255064Y-103876584D01*
X171686026Y-103588625D01*
X171991983Y-103130727D01*
X172099421Y-102590600D01*
X171991983Y-102050473D01*
X171686026Y-101592575D01*
X171278986Y-101320600D01*
X171686026Y-101048625D01*
X171991983Y-100590727D01*
X172099421Y-100050600D01*
X171991983Y-99510473D01*
X171686026Y-99052575D01*
X171278986Y-98780600D01*
X171686026Y-98508625D01*
X171991983Y-98050727D01*
X172099421Y-97510600D01*
X171991983Y-96970473D01*
X171686026Y-96512575D01*
X171278986Y-96240600D01*
X171686026Y-95968625D01*
X171991983Y-95510727D01*
X172099421Y-94970600D01*
X171991983Y-94430473D01*
X171686026Y-93972575D01*
X171278986Y-93700600D01*
X171686026Y-93428625D01*
X171991983Y-92970727D01*
X172099421Y-92430600D01*
X171991983Y-91890473D01*
X171686026Y-91432575D01*
X171255064Y-91144616D01*
X171335082Y-91120926D01*
X171756651Y-90779646D01*
X172015528Y-90303017D01*
X172029625Y-90231675D01*
X171906953Y-90017600D01*
X170065701Y-90017600D01*
X170065701Y-90037600D01*
X169811701Y-90037600D01*
X169811701Y-90017600D01*
X169791701Y-90017600D01*
X169791701Y-89763600D01*
X169811701Y-89763600D01*
X169811701Y-87477600D01*
X170065701Y-87477600D01*
X170065701Y-89763600D01*
X171906953Y-89763600D01*
X172029625Y-89549525D01*
X172015528Y-89478183D01*
X171756651Y-89001554D01*
X171335082Y-88660274D01*
X171201074Y-88620600D01*
X171335082Y-88580926D01*
X171756651Y-88239646D01*
X172015528Y-87763017D01*
X172029625Y-87691675D01*
X171906953Y-87477600D01*
X170065701Y-87477600D01*
X169811701Y-87477600D01*
X169791701Y-87477600D01*
X169791701Y-87223600D01*
X169811701Y-87223600D01*
X169811701Y-87203600D01*
X170065701Y-87203600D01*
X170065701Y-87223600D01*
X171906953Y-87223600D01*
X172029625Y-87009525D01*
X172015528Y-86938183D01*
X171756651Y-86461554D01*
X171335082Y-86120274D01*
X171255064Y-86096584D01*
X171686026Y-85808625D01*
X171991983Y-85350727D01*
X172099421Y-84810600D01*
X171991983Y-84270473D01*
X171686026Y-83812575D01*
X171255064Y-83524616D01*
X171335082Y-83500926D01*
X171756651Y-83159646D01*
X172015528Y-82683017D01*
X172029625Y-82611675D01*
X171906953Y-82397600D01*
X170065701Y-82397600D01*
X170065701Y-82417600D01*
X169811701Y-82417600D01*
X169811701Y-82397600D01*
X169791701Y-82397600D01*
X169791701Y-82143600D01*
X169811701Y-82143600D01*
X169811701Y-82123600D01*
X170065701Y-82123600D01*
X170065701Y-82143600D01*
X171906953Y-82143600D01*
X172029625Y-81929525D01*
X172015528Y-81858183D01*
X171756651Y-81381554D01*
X171335082Y-81040274D01*
X171255064Y-81016584D01*
X171686026Y-80728625D01*
X171991983Y-80270727D01*
X172099421Y-79730600D01*
X171991983Y-79190473D01*
X171686026Y-78732575D01*
X171278986Y-78460600D01*
X171686026Y-78188625D01*
X171991983Y-77730727D01*
X172099421Y-77190600D01*
X171991983Y-76650473D01*
X171686026Y-76192575D01*
X171255064Y-75904616D01*
X171335082Y-75880926D01*
X171756651Y-75539646D01*
X172015528Y-75063017D01*
X172029625Y-74991675D01*
X171906953Y-74777600D01*
X170065701Y-74777600D01*
X170065701Y-74797600D01*
X169811701Y-74797600D01*
X169811701Y-74777600D01*
X169791701Y-74777600D01*
X169791701Y-74523600D01*
X169811701Y-74523600D01*
X169811701Y-74503600D01*
X170065701Y-74503600D01*
X170065701Y-74523600D01*
X171906953Y-74523600D01*
X172029625Y-74309525D01*
X172015528Y-74238183D01*
X171756651Y-73761554D01*
X171335082Y-73420274D01*
X171255064Y-73396584D01*
X171686026Y-73108625D01*
X171991983Y-72650727D01*
X172099421Y-72110600D01*
X171991983Y-71570473D01*
X171686026Y-71112575D01*
X171278986Y-70840600D01*
X171686026Y-70568625D01*
X171991983Y-70110727D01*
X172099421Y-69570600D01*
X171991983Y-69030473D01*
X171686026Y-68572575D01*
X171255064Y-68284616D01*
X171335082Y-68260926D01*
X171756651Y-67919646D01*
X172015528Y-67443017D01*
X172029625Y-67371675D01*
X171906953Y-67157600D01*
X170065701Y-67157600D01*
X170065701Y-67177600D01*
X169811701Y-67177600D01*
X169811701Y-67157600D01*
X167970449Y-67157600D01*
X167847777Y-67371675D01*
X167861874Y-67443017D01*
X168120751Y-67919646D01*
X168542320Y-68260926D01*
X168622338Y-68284616D01*
X168191376Y-68572575D01*
X167885419Y-69030473D01*
X167777981Y-69570600D01*
X167885419Y-70110727D01*
X168191376Y-70568625D01*
X168598416Y-70840600D01*
X168191376Y-71112575D01*
X167885419Y-71570473D01*
X167777981Y-72110600D01*
X167833830Y-72391370D01*
X167315528Y-72909672D01*
X167252072Y-72952072D01*
X167209672Y-73015528D01*
X167209671Y-73015529D01*
X167084097Y-73203464D01*
X167025112Y-73500001D01*
X167040001Y-73574853D01*
X167040000Y-75726352D01*
X167025112Y-75801199D01*
X167040000Y-75876046D01*
X167040000Y-75876050D01*
X167084096Y-76097735D01*
X167252071Y-76349128D01*
X167315530Y-76391530D01*
X167833830Y-76909830D01*
X167777981Y-77190600D01*
X167855595Y-77580793D01*
X163090331Y-72815530D01*
X163047929Y-72752071D01*
X162796537Y-72584096D01*
X162574852Y-72540000D01*
X162574847Y-72540000D01*
X162500000Y-72525112D01*
X162425153Y-72540000D01*
X154435892Y-72540000D01*
X154462657Y-72513235D01*
X154605002Y-72169583D01*
X154605002Y-71797617D01*
X154462657Y-71453965D01*
X154199637Y-71190945D01*
X153855985Y-71048600D01*
X153809804Y-71048600D01*
X149776733Y-67015530D01*
X149734331Y-66952071D01*
X149482939Y-66784096D01*
X149261254Y-66740000D01*
X149261249Y-66740000D01*
X149186402Y-66725112D01*
X149111555Y-66740000D01*
X129318178Y-66740000D01*
X129284452Y-66689525D01*
X167847777Y-66689525D01*
X167970449Y-66903600D01*
X169811701Y-66903600D01*
X169811701Y-65646300D01*
X170065701Y-65646300D01*
X170065701Y-66903600D01*
X171906953Y-66903600D01*
X172029625Y-66689525D01*
X172015528Y-66618183D01*
X171756651Y-66141554D01*
X171335082Y-65800274D01*
X170815001Y-65646300D01*
X170065701Y-65646300D01*
X169811701Y-65646300D01*
X169062401Y-65646300D01*
X168542320Y-65800274D01*
X168120751Y-66141554D01*
X167861874Y-66618183D01*
X167847777Y-66689525D01*
X129284452Y-66689525D01*
X129110625Y-66429375D01*
X128619418Y-66101161D01*
X128186256Y-66015000D01*
X127893744Y-66015000D01*
X127460582Y-66101161D01*
X126969375Y-66429375D01*
X126957184Y-66447619D01*
X126948157Y-66402235D01*
X126807809Y-66192191D01*
X126597765Y-66051843D01*
X126350000Y-66002560D01*
X124650000Y-66002560D01*
X124402235Y-66051843D01*
X124192191Y-66192191D01*
X124051843Y-66402235D01*
X124002560Y-66650000D01*
X124002560Y-67922638D01*
X123515528Y-68409671D01*
X123452072Y-68452071D01*
X123409672Y-68515527D01*
X123409671Y-68515528D01*
X123368212Y-68577576D01*
X123075082Y-68340274D01*
X122995064Y-68316584D01*
X123426026Y-68028625D01*
X123731983Y-67570727D01*
X123839421Y-67030600D01*
X123731983Y-66490473D01*
X123426026Y-66032575D01*
X122968128Y-65726618D01*
X122564342Y-65646300D01*
X120793060Y-65646300D01*
X120389274Y-65726618D01*
X119931376Y-66032575D01*
X119625419Y-66490473D01*
X119517981Y-67030600D01*
X118685000Y-67030600D01*
X118685000Y-61192744D01*
X122948701Y-61192744D01*
X122948701Y-62708456D01*
X123528739Y-64108791D01*
X124600510Y-65180562D01*
X126000845Y-65760600D01*
X127516557Y-65760600D01*
X128916892Y-65180562D01*
X129988663Y-64108791D01*
X130568701Y-62708456D01*
X130568701Y-61192744D01*
X161048701Y-61192744D01*
X161048701Y-62708456D01*
X161628739Y-64108791D01*
X162700510Y-65180562D01*
X164100845Y-65760600D01*
X165616557Y-65760600D01*
X167016892Y-65180562D01*
X168088663Y-64108791D01*
X168668701Y-62708456D01*
X168668701Y-61192744D01*
X168088663Y-59792409D01*
X167016892Y-58720638D01*
X165616557Y-58140600D01*
X164100845Y-58140600D01*
X162700510Y-58720638D01*
X161628739Y-59792409D01*
X161048701Y-61192744D01*
X130568701Y-61192744D01*
X129988663Y-59792409D01*
X128916892Y-58720638D01*
X127516557Y-58140600D01*
X126000845Y-58140600D01*
X124600510Y-58720638D01*
X123528739Y-59792409D01*
X122948701Y-61192744D01*
X118685000Y-61192744D01*
X118685000Y-57685000D01*
X173315000Y-57685000D01*
X173315000Y-57932539D01*
X173315000Y-57932539D01*
G37*
X173315000Y-57932539D02*
X173315001Y-122932538D01*
X173315001Y-123315000D01*
X118685000Y-123315000D01*
X118685000Y-120497600D01*
X120294401Y-120497600D01*
X120294401Y-121246900D01*
X120448375Y-121766981D01*
X120789655Y-122188550D01*
X121266284Y-122447427D01*
X121337626Y-122461524D01*
X121551701Y-122338852D01*
X121551701Y-120497600D01*
X120294401Y-120497600D01*
X118685000Y-120497600D01*
X118685000Y-119494300D01*
X120294401Y-119494300D01*
X120294401Y-120243600D01*
X121551701Y-120243600D01*
X121551701Y-118402348D01*
X121337626Y-118279676D01*
X121266284Y-118293773D01*
X120789655Y-118552650D01*
X120448375Y-118974219D01*
X120294401Y-119494300D01*
X118685000Y-119494300D01*
X118685000Y-107670600D01*
X119517981Y-107670600D01*
X119625419Y-108210727D01*
X119931376Y-108668625D01*
X120338416Y-108940600D01*
X119931376Y-109212575D01*
X119625419Y-109670473D01*
X119517981Y-110210600D01*
X119625419Y-110750727D01*
X119931376Y-111208625D01*
X120338416Y-111480600D01*
X119931376Y-111752575D01*
X119625419Y-112210473D01*
X119517981Y-112750600D01*
X119625419Y-113290727D01*
X119931376Y-113748625D01*
X120338416Y-114020600D01*
X119931376Y-114292575D01*
X119625419Y-114750473D01*
X119517981Y-115290600D01*
X119625419Y-115830727D01*
X119931376Y-116288625D01*
X120389274Y-116594582D01*
X120793060Y-116674900D01*
X122564342Y-116674900D01*
X122968128Y-116594582D01*
X123426026Y-116288625D01*
X123731983Y-115830727D01*
X123839421Y-115290600D01*
X123731983Y-114750473D01*
X123426026Y-114292575D01*
X123018986Y-114020600D01*
X123426026Y-113748625D01*
X123731983Y-113290727D01*
X123839421Y-112750600D01*
X123731983Y-112210473D01*
X123426026Y-111752575D01*
X123018986Y-111480600D01*
X123426026Y-111208625D01*
X123731983Y-110750727D01*
X123839421Y-110210600D01*
X123731983Y-109670473D01*
X123426026Y-109212575D01*
X123018986Y-108940600D01*
X123426026Y-108668625D01*
X123731983Y-108210727D01*
X123839421Y-107670600D01*
X123731983Y-107130473D01*
X123426026Y-106672575D01*
X122995064Y-106384616D01*
X123075082Y-106360926D01*
X123496651Y-106019646D01*
X123755528Y-105543017D01*
X123769625Y-105471675D01*
X123646953Y-105257600D01*
X121805701Y-105257600D01*
X121805701Y-105277600D01*
X121551701Y-105277600D01*
X121551701Y-105257600D01*
X119710449Y-105257600D01*
X119587777Y-105471675D01*
X119601874Y-105543017D01*
X119860751Y-106019646D01*
X120282320Y-106360926D01*
X120362338Y-106384616D01*
X119931376Y-106672575D01*
X119625419Y-107130473D01*
X119517981Y-107670600D01*
X118685000Y-107670600D01*
X118685000Y-102931675D01*
X119587777Y-102931675D01*
X119601874Y-103003017D01*
X119860751Y-103479646D01*
X120282320Y-103820926D01*
X120416328Y-103860600D01*
X120282320Y-103900274D01*
X119860751Y-104241554D01*
X119601874Y-104718183D01*
X119587777Y-104789525D01*
X119710449Y-105003600D01*
X121551701Y-105003600D01*
X121551701Y-102717600D01*
X121805701Y-102717600D01*
X121805701Y-105003600D01*
X123646953Y-105003600D01*
X123769625Y-104789525D01*
X123755528Y-104718183D01*
X123496651Y-104241554D01*
X123075082Y-103900274D01*
X122941074Y-103860600D01*
X123075082Y-103820926D01*
X123496651Y-103479646D01*
X123755528Y-103003017D01*
X123769625Y-102931675D01*
X123646953Y-102717600D01*
X121805701Y-102717600D01*
X121551701Y-102717600D01*
X119710449Y-102717600D01*
X119587777Y-102931675D01*
X118685000Y-102931675D01*
X118685000Y-67030600D01*
X119517981Y-67030600D01*
X119625419Y-67570727D01*
X119931376Y-68028625D01*
X120362338Y-68316584D01*
X120282320Y-68340274D01*
X119860751Y-68681554D01*
X119601874Y-69158183D01*
X119587777Y-69229525D01*
X119710449Y-69443600D01*
X121551701Y-69443600D01*
X121551701Y-69423600D01*
X121805701Y-69423600D01*
X121805701Y-69443600D01*
X121825701Y-69443600D01*
X121825701Y-69697600D01*
X121805701Y-69697600D01*
X121805701Y-69717600D01*
X121551701Y-69717600D01*
X121551701Y-69697600D01*
X119710449Y-69697600D01*
X119587777Y-69911675D01*
X119601874Y-69983017D01*
X119860751Y-70459646D01*
X120282320Y-70800926D01*
X120362338Y-70824616D01*
X119931376Y-71112575D01*
X119625419Y-71570473D01*
X119517981Y-72110600D01*
X119625419Y-72650727D01*
X119931376Y-73108625D01*
X120362338Y-73396584D01*
X120282320Y-73420274D01*
X119860751Y-73761554D01*
X119601874Y-74238183D01*
X119587777Y-74309525D01*
X119710449Y-74523600D01*
X121551701Y-74523600D01*
X121551701Y-74503600D01*
X121805701Y-74503600D01*
X121805701Y-74523600D01*
X121825701Y-74523600D01*
X121825701Y-74777600D01*
X121805701Y-74777600D01*
X121805701Y-74797600D01*
X121551701Y-74797600D01*
X121551701Y-74777600D01*
X119710449Y-74777600D01*
X119587777Y-74991675D01*
X119601874Y-75063017D01*
X119860751Y-75539646D01*
X120282320Y-75880926D01*
X120362338Y-75904616D01*
X119931376Y-76192575D01*
X119625419Y-76650473D01*
X119517981Y-77190600D01*
X119625419Y-77730727D01*
X119931376Y-78188625D01*
X120362338Y-78476584D01*
X120282320Y-78500274D01*
X119860751Y-78841554D01*
X119601874Y-79318183D01*
X119587777Y-79389525D01*
X119710449Y-79603600D01*
X121551701Y-79603600D01*
X121551701Y-79583600D01*
X121805701Y-79583600D01*
X121805701Y-79603600D01*
X121825701Y-79603600D01*
X121825701Y-79857600D01*
X121805701Y-79857600D01*
X121805701Y-79877600D01*
X121551701Y-79877600D01*
X121551701Y-79857600D01*
X119710449Y-79857600D01*
X119587777Y-80071675D01*
X119601874Y-80143017D01*
X119860751Y-80619646D01*
X120282320Y-80960926D01*
X120362338Y-80984616D01*
X119931376Y-81272575D01*
X119625419Y-81730473D01*
X119517981Y-82270600D01*
X119625419Y-82810727D01*
X119931376Y-83268625D01*
X120338416Y-83540600D01*
X119931376Y-83812575D01*
X119625419Y-84270473D01*
X119517981Y-84810600D01*
X119625419Y-85350727D01*
X119931376Y-85808625D01*
X120338416Y-86080600D01*
X119931376Y-86352575D01*
X119625419Y-86810473D01*
X119517981Y-87350600D01*
X119625419Y-87890727D01*
X119931376Y-88348625D01*
X120338416Y-88620600D01*
X119931376Y-88892575D01*
X119625419Y-89350473D01*
X119517981Y-89890600D01*
X119625419Y-90430727D01*
X119931376Y-90888625D01*
X120338416Y-91160600D01*
X119931376Y-91432575D01*
X119625419Y-91890473D01*
X119517981Y-92430600D01*
X119625419Y-92970727D01*
X119931376Y-93428625D01*
X120338416Y-93700600D01*
X119931376Y-93972575D01*
X119625419Y-94430473D01*
X119517981Y-94970600D01*
X119625419Y-95510727D01*
X119931376Y-95968625D01*
X120338416Y-96240600D01*
X119931376Y-96512575D01*
X119625419Y-96970473D01*
X119517981Y-97510600D01*
X119625419Y-98050727D01*
X119931376Y-98508625D01*
X120338416Y-98780600D01*
X119931376Y-99052575D01*
X119625419Y-99510473D01*
X119517981Y-100050600D01*
X119625419Y-100590727D01*
X119931376Y-101048625D01*
X120362338Y-101336584D01*
X120282320Y-101360274D01*
X119860751Y-101701554D01*
X119601874Y-102178183D01*
X119587777Y-102249525D01*
X119710449Y-102463600D01*
X121551701Y-102463600D01*
X121551701Y-102443600D01*
X121805701Y-102443600D01*
X121805701Y-102463600D01*
X123646953Y-102463600D01*
X123769625Y-102249525D01*
X123755528Y-102178183D01*
X123496651Y-101701554D01*
X123075082Y-101360274D01*
X122995064Y-101336584D01*
X123426026Y-101048625D01*
X123731983Y-100590727D01*
X123839421Y-100050600D01*
X123731983Y-99510473D01*
X123426026Y-99052575D01*
X123018986Y-98780600D01*
X123426026Y-98508625D01*
X123731983Y-98050727D01*
X123839421Y-97510600D01*
X123731983Y-96970473D01*
X123426026Y-96512575D01*
X123018986Y-96240600D01*
X123426026Y-95968625D01*
X123731983Y-95510727D01*
X123839421Y-94970600D01*
X123731983Y-94430473D01*
X123426026Y-93972575D01*
X123018986Y-93700600D01*
X123426026Y-93428625D01*
X123585069Y-93190600D01*
X148040438Y-93190600D01*
X123734229Y-117496810D01*
X123670773Y-117539210D01*
X123628373Y-117602666D01*
X123628372Y-117602667D01*
X123502798Y-117790602D01*
X123443813Y-118087139D01*
X123458702Y-118161991D01*
X123458702Y-118464232D01*
X123220677Y-118623275D01*
X122932717Y-119054238D01*
X122909027Y-118974219D01*
X122567747Y-118552650D01*
X122091118Y-118293773D01*
X122019776Y-118279676D01*
X121805701Y-118402348D01*
X121805701Y-120243600D01*
X121825701Y-120243600D01*
X121825701Y-120497600D01*
X121805701Y-120497600D01*
X121805701Y-122338852D01*
X122019776Y-122461524D01*
X122091118Y-122447427D01*
X122567747Y-122188550D01*
X122909027Y-121766981D01*
X122932717Y-121686962D01*
X123220676Y-122117924D01*
X123678574Y-122423882D01*
X124218701Y-122531320D01*
X124758827Y-122423882D01*
X125216725Y-122117925D01*
X125488701Y-121710884D01*
X125760676Y-122117924D01*
X126218574Y-122423882D01*
X126758701Y-122531320D01*
X127298827Y-122423882D01*
X127756725Y-122117925D01*
X128028701Y-121710884D01*
X128300676Y-122117924D01*
X128758574Y-122423882D01*
X129298701Y-122531320D01*
X129838827Y-122423882D01*
X130296725Y-122117925D01*
X130568701Y-121710884D01*
X130840676Y-122117924D01*
X131298574Y-122423882D01*
X131838701Y-122531320D01*
X132378827Y-122423882D01*
X132836725Y-122117925D01*
X133108701Y-121710884D01*
X133380676Y-122117924D01*
X133838574Y-122423882D01*
X134378701Y-122531320D01*
X134918827Y-122423882D01*
X135376725Y-122117925D01*
X135648701Y-121710884D01*
X135920676Y-122117924D01*
X136378574Y-122423882D01*
X136918701Y-122531320D01*
X137458827Y-122423882D01*
X137916725Y-122117925D01*
X138188701Y-121710884D01*
X138460676Y-122117924D01*
X138918574Y-122423882D01*
X139458701Y-122531320D01*
X139998827Y-122423882D01*
X140456725Y-122117925D01*
X140744685Y-121686963D01*
X140768375Y-121766981D01*
X141109655Y-122188550D01*
X141586284Y-122447427D01*
X141657626Y-122461524D01*
X141871701Y-122338852D01*
X141871701Y-120497600D01*
X142125701Y-120497600D01*
X142125701Y-122338852D01*
X142339776Y-122461524D01*
X142411118Y-122447427D01*
X142887747Y-122188550D01*
X143229027Y-121766981D01*
X143268701Y-121632973D01*
X143308375Y-121766981D01*
X143649655Y-122188550D01*
X144126284Y-122447427D01*
X144197626Y-122461524D01*
X144411701Y-122338852D01*
X144411701Y-120497600D01*
X142125701Y-120497600D01*
X141871701Y-120497600D01*
X141851701Y-120497600D01*
X141851701Y-120243600D01*
X141871701Y-120243600D01*
X141871701Y-118402348D01*
X142125701Y-118402348D01*
X142125701Y-120243600D01*
X144411701Y-120243600D01*
X144411701Y-118402348D01*
X144665701Y-118402348D01*
X144665701Y-120243600D01*
X144685701Y-120243600D01*
X144685701Y-120497600D01*
X144665701Y-120497600D01*
X144665701Y-122338852D01*
X144879776Y-122461524D01*
X144951118Y-122447427D01*
X145427747Y-122188550D01*
X145769027Y-121766981D01*
X145792717Y-121686962D01*
X146080676Y-122117924D01*
X146538574Y-122423882D01*
X147078701Y-122531320D01*
X147618827Y-122423882D01*
X148076725Y-122117925D01*
X148348701Y-121710884D01*
X148620676Y-122117924D01*
X149078574Y-122423882D01*
X149618701Y-122531320D01*
X150158827Y-122423882D01*
X150616725Y-122117925D01*
X150888701Y-121710884D01*
X151160676Y-122117924D01*
X151618574Y-122423882D01*
X152158701Y-122531320D01*
X152698827Y-122423882D01*
X153156725Y-122117925D01*
X153428701Y-121710884D01*
X153700676Y-122117924D01*
X154158574Y-122423882D01*
X154698701Y-122531320D01*
X155238827Y-122423882D01*
X155696725Y-122117925D01*
X155968701Y-121710884D01*
X156240676Y-122117924D01*
X156698574Y-122423882D01*
X157238701Y-122531320D01*
X157778827Y-122423882D01*
X158236725Y-122117925D01*
X158508701Y-121710884D01*
X158780676Y-122117924D01*
X159238574Y-122423882D01*
X159778701Y-122531320D01*
X160318827Y-122423882D01*
X160776725Y-122117925D01*
X161048701Y-121710884D01*
X161320676Y-122117924D01*
X161778574Y-122423882D01*
X162318701Y-122531320D01*
X162858827Y-122423882D01*
X163316725Y-122117925D01*
X163588701Y-121710884D01*
X163860676Y-122117924D01*
X164318574Y-122423882D01*
X164858701Y-122531320D01*
X165398827Y-122423882D01*
X165856725Y-122117925D01*
X166128701Y-121710884D01*
X166400676Y-122117924D01*
X166858574Y-122423882D01*
X167398701Y-122531320D01*
X167938827Y-122423882D01*
X168396725Y-122117925D01*
X168668701Y-121710884D01*
X168940676Y-122117924D01*
X169398574Y-122423882D01*
X169938701Y-122531320D01*
X170478827Y-122423882D01*
X170936725Y-122117925D01*
X171242683Y-121660027D01*
X171323001Y-121256241D01*
X171323001Y-119484959D01*
X171242683Y-119081173D01*
X170936726Y-118623275D01*
X170478828Y-118317318D01*
X169938701Y-118209880D01*
X169398575Y-118317318D01*
X168940677Y-118623275D01*
X168668702Y-119030316D01*
X168396726Y-118623275D01*
X167938828Y-118317318D01*
X167398701Y-118209880D01*
X166858575Y-118317318D01*
X166400677Y-118623275D01*
X166128702Y-119030316D01*
X165856726Y-118623275D01*
X165398828Y-118317318D01*
X164858701Y-118209880D01*
X164318575Y-118317318D01*
X163860677Y-118623275D01*
X163588702Y-119030316D01*
X163316726Y-118623275D01*
X162858828Y-118317318D01*
X162318701Y-118209880D01*
X161778575Y-118317318D01*
X161320677Y-118623275D01*
X161048702Y-119030316D01*
X160776726Y-118623275D01*
X160318828Y-118317318D01*
X159778701Y-118209880D01*
X159238575Y-118317318D01*
X158780677Y-118623275D01*
X158508702Y-119030316D01*
X158236726Y-118623275D01*
X157778828Y-118317318D01*
X157238701Y-118209880D01*
X156698575Y-118317318D01*
X156240677Y-118623275D01*
X155968702Y-119030316D01*
X155696726Y-118623275D01*
X155238828Y-118317318D01*
X154698701Y-118209880D01*
X154158575Y-118317318D01*
X153700677Y-118623275D01*
X153428702Y-119030316D01*
X153156726Y-118623275D01*
X152698828Y-118317318D01*
X152158701Y-118209880D01*
X151618575Y-118317318D01*
X151160677Y-118623275D01*
X150888702Y-119030316D01*
X150616726Y-118623275D01*
X150158828Y-118317318D01*
X149618701Y-118209880D01*
X149078575Y-118317318D01*
X148620677Y-118623275D01*
X148348702Y-119030316D01*
X148076726Y-118623275D01*
X147618828Y-118317318D01*
X147078701Y-118209880D01*
X146538575Y-118317318D01*
X146080677Y-118623275D01*
X145792717Y-119054238D01*
X145769027Y-118974219D01*
X145427747Y-118552650D01*
X144951118Y-118293773D01*
X144879776Y-118279676D01*
X144665701Y-118402348D01*
X144411701Y-118402348D01*
X144197626Y-118279676D01*
X144126284Y-118293773D01*
X143649655Y-118552650D01*
X143308375Y-118974219D01*
X143268701Y-119108227D01*
X143229027Y-118974219D01*
X142887747Y-118552650D01*
X142411118Y-118293773D01*
X142339776Y-118279676D01*
X142125701Y-118402348D01*
X141871701Y-118402348D01*
X141657626Y-118279676D01*
X141586284Y-118293773D01*
X141109655Y-118552650D01*
X140768375Y-118974219D01*
X140744685Y-119054237D01*
X140456726Y-118623275D01*
X139998828Y-118317318D01*
X139458701Y-118209880D01*
X138918575Y-118317318D01*
X138460677Y-118623275D01*
X138188702Y-119030316D01*
X137916726Y-118623275D01*
X137458828Y-118317318D01*
X136918701Y-118209880D01*
X136378575Y-118317318D01*
X135920677Y-118623275D01*
X135648702Y-119030316D01*
X135376726Y-118623275D01*
X134918828Y-118317318D01*
X134378701Y-118209880D01*
X133838575Y-118317318D01*
X133380677Y-118623275D01*
X133108702Y-119030316D01*
X132836726Y-118623275D01*
X132598701Y-118464232D01*
X132598701Y-115486100D01*
X136092057Y-111992744D01*
X140728701Y-111992744D01*
X140728701Y-113508456D01*
X141308739Y-114908791D01*
X142380510Y-115980562D01*
X143780845Y-116560600D01*
X145296557Y-116560600D01*
X146696892Y-115980562D01*
X147768663Y-114908791D01*
X148348701Y-113508456D01*
X148348701Y-111992744D01*
X147768663Y-110592409D01*
X146696892Y-109520638D01*
X145296557Y-108940600D01*
X143780845Y-108940600D01*
X142380510Y-109520638D01*
X141308739Y-110592409D01*
X140728701Y-111992744D01*
X136092057Y-111992744D01*
X150969802Y-97115000D01*
X151015983Y-97115000D01*
X151359635Y-96972655D01*
X151622655Y-96709635D01*
X151765000Y-96365983D01*
X151765000Y-95994017D01*
X151622655Y-95650365D01*
X151359635Y-95387345D01*
X151015983Y-95245000D01*
X150644017Y-95245000D01*
X150466116Y-95318689D01*
X150879805Y-94905000D01*
X150925985Y-94905000D01*
X151269637Y-94762655D01*
X151532657Y-94499635D01*
X151675002Y-94155983D01*
X151675002Y-93784017D01*
X151532657Y-93440365D01*
X151269637Y-93177345D01*
X150925985Y-93035000D01*
X150554019Y-93035000D01*
X150210367Y-93177345D01*
X149947347Y-93440365D01*
X149805002Y-93784017D01*
X149805002Y-93830197D01*
X126274229Y-117360972D01*
X126210773Y-117403372D01*
X126168373Y-117466828D01*
X126168372Y-117466829D01*
X126042798Y-117654764D01*
X125983813Y-117951301D01*
X125998702Y-118026153D01*
X125998702Y-118464232D01*
X125760677Y-118623275D01*
X125488702Y-119030316D01*
X125216726Y-118623275D01*
X124978701Y-118464232D01*
X124978701Y-118401940D01*
X160134142Y-83246500D01*
X160382268Y-83246500D01*
X160414923Y-83279155D01*
X160758575Y-83421500D01*
X161130541Y-83421500D01*
X161474193Y-83279155D01*
X161737213Y-83016135D01*
X161879558Y-82672483D01*
X161879558Y-82300517D01*
X161737213Y-81956865D01*
X161474193Y-81693845D01*
X161130541Y-81551500D01*
X160758575Y-81551500D01*
X160414923Y-81693845D01*
X160382268Y-81726500D01*
X159987902Y-81726500D01*
X161479833Y-80234569D01*
X161543289Y-80192169D01*
X161623801Y-80071675D01*
X161711264Y-79940778D01*
X161728277Y-79855248D01*
X161755360Y-79719092D01*
X161755360Y-79719088D01*
X161770248Y-79644240D01*
X161755360Y-79569392D01*
X161755360Y-79330230D01*
X161788015Y-79297575D01*
X161930360Y-78953923D01*
X161930360Y-78581957D01*
X161788015Y-78238305D01*
X161524995Y-77975285D01*
X161181343Y-77832940D01*
X160809377Y-77832940D01*
X160465725Y-77975285D01*
X160202705Y-78238305D01*
X160060360Y-78581957D01*
X160060360Y-78953923D01*
X160202705Y-79297575D01*
X160234964Y-79329834D01*
X153335000Y-86229799D01*
X153335000Y-86174017D01*
X153192655Y-85830365D01*
X152929635Y-85567345D01*
X152585983Y-85425000D01*
X152214017Y-85425000D01*
X151870365Y-85567345D01*
X151837710Y-85600000D01*
X145094802Y-85600000D01*
X143683000Y-84188199D01*
X143683000Y-84142017D01*
X143540655Y-83798365D01*
X143277635Y-83535345D01*
X142933983Y-83393000D01*
X142562017Y-83393000D01*
X142218365Y-83535345D01*
X141955345Y-83798365D01*
X141813000Y-84142017D01*
X141813000Y-84513983D01*
X141955345Y-84857635D01*
X142218365Y-85120655D01*
X142562017Y-85263000D01*
X142608199Y-85263000D01*
X144189671Y-86844473D01*
X144232071Y-86907929D01*
X144483463Y-87075904D01*
X144705148Y-87120000D01*
X144705153Y-87120000D01*
X144780000Y-87134888D01*
X144854847Y-87120000D01*
X151837710Y-87120000D01*
X151870365Y-87152655D01*
X152214017Y-87295000D01*
X152269799Y-87295000D01*
X147894199Y-91670600D01*
X123585069Y-91670600D01*
X123426026Y-91432575D01*
X123018986Y-91160600D01*
X123426026Y-90888625D01*
X123731983Y-90430727D01*
X123839421Y-89890600D01*
X123731983Y-89350473D01*
X123426026Y-88892575D01*
X123018986Y-88620600D01*
X123426026Y-88348625D01*
X123731983Y-87890727D01*
X123839421Y-87350600D01*
X123731983Y-86810473D01*
X123426026Y-86352575D01*
X123018986Y-86080600D01*
X123426026Y-85808625D01*
X123731983Y-85350727D01*
X123839421Y-84810600D01*
X123783572Y-84529830D01*
X125984473Y-82328930D01*
X126047929Y-82286530D01*
X126143432Y-82143600D01*
X126215904Y-82035139D01*
X126229121Y-81968691D01*
X126260000Y-81813453D01*
X126260000Y-81813449D01*
X126274888Y-81738601D01*
X126260000Y-81663753D01*
X126260000Y-71318178D01*
X126570625Y-71110625D01*
X126770000Y-70812239D01*
X126969375Y-71110625D01*
X127460582Y-71438839D01*
X127893744Y-71525000D01*
X128186256Y-71525000D01*
X128619418Y-71438839D01*
X129110625Y-71110625D01*
X129318178Y-70800000D01*
X149735199Y-70800000D01*
X149962574Y-71027375D01*
X149812965Y-71089345D01*
X149780310Y-71122000D01*
X143821852Y-71122000D01*
X143683158Y-71094412D01*
X143683157Y-71094412D01*
X143386620Y-71153397D01*
X143198684Y-71278971D01*
X143198681Y-71278974D01*
X143135229Y-71321371D01*
X143092832Y-71384823D01*
X130571780Y-83905877D01*
X130571780Y-76541310D01*
X130586655Y-76526435D01*
X130729000Y-76182783D01*
X130729000Y-75810817D01*
X130586655Y-75467165D01*
X130323635Y-75204145D01*
X129979983Y-75061800D01*
X129608017Y-75061800D01*
X129264365Y-75204145D01*
X129001345Y-75467165D01*
X128859000Y-75810817D01*
X128859000Y-76182783D01*
X129001345Y-76526435D01*
X129051781Y-76576871D01*
X129051780Y-86804369D01*
X128934349Y-86921800D01*
X128776780Y-87302206D01*
X128776780Y-87713954D01*
X128934349Y-88094360D01*
X129225500Y-88385511D01*
X129605906Y-88543080D01*
X130017654Y-88543080D01*
X130253200Y-88445514D01*
X130253200Y-88700930D01*
X130220545Y-88733585D01*
X130078200Y-89077237D01*
X130078200Y-89449203D01*
X130220545Y-89792855D01*
X130483565Y-90055875D01*
X130827217Y-90198220D01*
X131199183Y-90198220D01*
X131542835Y-90055875D01*
X131805855Y-89792855D01*
X131948200Y-89449203D01*
X131948200Y-89077237D01*
X131805855Y-88733585D01*
X131773200Y-88700930D01*
X131773200Y-84854059D01*
X139857145Y-76770115D01*
X139879800Y-76792770D01*
X139879800Y-77064952D01*
X139864912Y-77139800D01*
X139879800Y-77214647D01*
X139879800Y-77214651D01*
X139923896Y-77436336D01*
X140091871Y-77687729D01*
X140155330Y-77730131D01*
X140659671Y-78234473D01*
X140702071Y-78297929D01*
X140953463Y-78465904D01*
X141175148Y-78510000D01*
X141175152Y-78510000D01*
X141249999Y-78524888D01*
X141324846Y-78510000D01*
X141693770Y-78510000D01*
X141736466Y-78513601D01*
X141738362Y-78513387D01*
X141749061Y-78516147D01*
X141792601Y-78510000D01*
X141800602Y-78510000D01*
X141820167Y-78506108D01*
X141864308Y-78499876D01*
X141865750Y-78510087D01*
X141865750Y-78518079D01*
X141869637Y-78537622D01*
X141879239Y-78605633D01*
X141886429Y-78669451D01*
X141889696Y-78679702D01*
X141891199Y-78690347D01*
X141891830Y-78692150D01*
X141891520Y-78703195D01*
X141925838Y-78793097D01*
X141955067Y-78884805D01*
X141962198Y-78893250D01*
X141962831Y-78895059D01*
X141968294Y-78904321D01*
X141972127Y-78914361D01*
X141973141Y-78915976D01*
X141975297Y-78926812D01*
X142028764Y-79006832D01*
X142077671Y-79089740D01*
X142086502Y-79096386D01*
X142087516Y-79098000D01*
X142094899Y-79105809D01*
X142100871Y-79114747D01*
X142102221Y-79116097D01*
X142106733Y-79126181D01*
X142176674Y-79192304D01*
X142242797Y-79262245D01*
X142252880Y-79266757D01*
X142254230Y-79268107D01*
X142263171Y-79274081D01*
X142270978Y-79281462D01*
X142272592Y-79282476D01*
X142279238Y-79291307D01*
X142362143Y-79340212D01*
X142442166Y-79393681D01*
X142453002Y-79395837D01*
X142454617Y-79396851D01*
X142464657Y-79400684D01*
X142473919Y-79406147D01*
X142475726Y-79406779D01*
X142484172Y-79413911D01*
X142575875Y-79443139D01*
X142665783Y-79477459D01*
X142676831Y-79477149D01*
X142678631Y-79477779D01*
X142689276Y-79479282D01*
X142699527Y-79482549D01*
X142701417Y-79482762D01*
X142711227Y-79487830D01*
X142807128Y-79495920D01*
X142902438Y-79509376D01*
X142913140Y-79506615D01*
X142915046Y-79506830D01*
X142925750Y-79505927D01*
X142936454Y-79506830D01*
X142938359Y-79506615D01*
X142949061Y-79509376D01*
X143044379Y-79495919D01*
X143140274Y-79487829D01*
X143150084Y-79482761D01*
X143151973Y-79482548D01*
X143162219Y-79479282D01*
X143172868Y-79477779D01*
X143174671Y-79477148D01*
X143185716Y-79477458D01*
X143275619Y-79443140D01*
X143367327Y-79413911D01*
X143375773Y-79406779D01*
X143377580Y-79406147D01*
X143386842Y-79400684D01*
X143396882Y-79396851D01*
X143398497Y-79395837D01*
X143409333Y-79393681D01*
X143489353Y-79340214D01*
X143525750Y-79318744D01*
X143562143Y-79340212D01*
X143642166Y-79393681D01*
X143653002Y-79395837D01*
X143654617Y-79396851D01*
X143664657Y-79400684D01*
X143673919Y-79406147D01*
X143675726Y-79406779D01*
X143684172Y-79413911D01*
X143775875Y-79443139D01*
X143865783Y-79477459D01*
X143876831Y-79477149D01*
X143878631Y-79477779D01*
X143889276Y-79479282D01*
X143899527Y-79482549D01*
X143901417Y-79482762D01*
X143911227Y-79487830D01*
X144007128Y-79495920D01*
X144102438Y-79509376D01*
X144113140Y-79506615D01*
X144115046Y-79506830D01*
X144125750Y-79505927D01*
X144136454Y-79506830D01*
X144138359Y-79506615D01*
X144149061Y-79509376D01*
X144244379Y-79495919D01*
X144340274Y-79487829D01*
X144350084Y-79482761D01*
X144351973Y-79482548D01*
X144362219Y-79479282D01*
X144372868Y-79477779D01*
X144374671Y-79477148D01*
X144385716Y-79477458D01*
X144475619Y-79443140D01*
X144567327Y-79413911D01*
X144575773Y-79406779D01*
X144577580Y-79406147D01*
X144586842Y-79400684D01*
X144596882Y-79396851D01*
X144598497Y-79395837D01*
X144609333Y-79393681D01*
X144689353Y-79340214D01*
X144772261Y-79291307D01*
X144778907Y-79282476D01*
X144780521Y-79281462D01*
X144788330Y-79274079D01*
X144797268Y-79268107D01*
X144798618Y-79266757D01*
X144808702Y-79262245D01*
X144874825Y-79192304D01*
X144944766Y-79126181D01*
X144949278Y-79116098D01*
X144950628Y-79114748D01*
X144956602Y-79105807D01*
X144963983Y-79098000D01*
X144964997Y-79096386D01*
X144973828Y-79089740D01*
X145022733Y-79006835D01*
X145076202Y-78926812D01*
X145078358Y-78915976D01*
X145079372Y-78914361D01*
X145083205Y-78904321D01*
X145088668Y-78895059D01*
X145089298Y-78893258D01*
X145096427Y-78884816D01*
X145125655Y-78793116D01*
X145159980Y-78703195D01*
X145159670Y-78692147D01*
X145160300Y-78690347D01*
X145161803Y-78679704D01*
X145165067Y-78669462D01*
X145172256Y-78605661D01*
X145181859Y-78537642D01*
X145185750Y-78518080D01*
X145185750Y-78510080D01*
X145186004Y-78508280D01*
X145220379Y-78542655D01*
X145564031Y-78685000D01*
X145920632Y-78685000D01*
X145691687Y-78913945D01*
X145549342Y-79257597D01*
X145549342Y-79629563D01*
X145691687Y-79973215D01*
X145724342Y-80005870D01*
X145724342Y-80084116D01*
X145724343Y-80084120D01*
X145724342Y-80999778D01*
X145709454Y-81074625D01*
X145724342Y-81149472D01*
X145724342Y-81149476D01*
X145768438Y-81371161D01*
X145936413Y-81622554D01*
X145999872Y-81664956D01*
X148888308Y-84553393D01*
X148930708Y-84616849D01*
X149182100Y-84784824D01*
X149403785Y-84828920D01*
X149403789Y-84828920D01*
X149478637Y-84843808D01*
X149553485Y-84828920D01*
X153605313Y-84828920D01*
X153680160Y-84843808D01*
X153755007Y-84828920D01*
X153755012Y-84828920D01*
X153976697Y-84784824D01*
X154228089Y-84616849D01*
X154270491Y-84553390D01*
X157896663Y-80927220D01*
X157942843Y-80927220D01*
X158286495Y-80784875D01*
X158549515Y-80521855D01*
X158691860Y-80178203D01*
X158691860Y-79806237D01*
X158549515Y-79462585D01*
X158286495Y-79199565D01*
X157942843Y-79057220D01*
X157570877Y-79057220D01*
X157227225Y-79199565D01*
X156964205Y-79462585D01*
X156821860Y-79806237D01*
X156821860Y-79852417D01*
X154693600Y-81980678D01*
X154693600Y-80143350D01*
X154534850Y-79984600D01*
X153251995Y-79984600D01*
X153270071Y-79966524D01*
X153277874Y-79963292D01*
X153278180Y-79958415D01*
X153290086Y-79946509D01*
X153284507Y-79857600D01*
X153290086Y-79768691D01*
X153278180Y-79756785D01*
X153277874Y-79751908D01*
X153271273Y-79749878D01*
X153251995Y-79730600D01*
X154534850Y-79730600D01*
X154693600Y-79571850D01*
X154693600Y-77031290D01*
X154596927Y-76797901D01*
X154479625Y-76680600D01*
X154733310Y-76680600D01*
X154765965Y-76713255D01*
X155109617Y-76855600D01*
X155481583Y-76855600D01*
X155825235Y-76713255D01*
X156088255Y-76450235D01*
X156230600Y-76106583D01*
X156230600Y-75772601D01*
X156718678Y-75772601D01*
X156788943Y-75942235D01*
X157051963Y-76205255D01*
X157395615Y-76347600D01*
X157767581Y-76347600D01*
X158111233Y-76205255D01*
X158143888Y-76172600D01*
X161488279Y-76172600D01*
X164813932Y-79498254D01*
X164813931Y-89342970D01*
X164781276Y-89375625D01*
X164638931Y-89719277D01*
X164638931Y-89977869D01*
X164323323Y-89847140D01*
X163951357Y-89847140D01*
X163607705Y-89989485D01*
X163344685Y-90252505D01*
X163202340Y-90596157D01*
X163202340Y-90968123D01*
X163268165Y-91127040D01*
X162883530Y-91127040D01*
X162850875Y-91094385D01*
X162507223Y-90952040D01*
X162135257Y-90952040D01*
X161791605Y-91094385D01*
X161528585Y-91357405D01*
X161386240Y-91701057D01*
X161386240Y-92073023D01*
X161528585Y-92416675D01*
X161791605Y-92679695D01*
X162135257Y-92822040D01*
X162507223Y-92822040D01*
X162850875Y-92679695D01*
X162883530Y-92647040D01*
X165779533Y-92647040D01*
X165854380Y-92661928D01*
X165929227Y-92647040D01*
X165929232Y-92647040D01*
X166150917Y-92602944D01*
X166402309Y-92434969D01*
X166444711Y-92371510D01*
X167040000Y-91776221D01*
X167040001Y-113826347D01*
X167025112Y-113901199D01*
X167040001Y-113976051D01*
X167084097Y-114197736D01*
X167252072Y-114449128D01*
X167315528Y-114491528D01*
X167833830Y-115009830D01*
X167777981Y-115290600D01*
X167885419Y-115830727D01*
X168191376Y-116288625D01*
X168649274Y-116594582D01*
X169053060Y-116674900D01*
X170824342Y-116674900D01*
X171228128Y-116594582D01*
X171686026Y-116288625D01*
X171991983Y-115830727D01*
X172099421Y-115290600D01*
X171991983Y-114750473D01*
X171686026Y-114292575D01*
X171278986Y-114020600D01*
X171686026Y-113748625D01*
X171991983Y-113290727D01*
X172099421Y-112750600D01*
X171991983Y-112210473D01*
X171686026Y-111752575D01*
X171278986Y-111480600D01*
X171686026Y-111208625D01*
X171991983Y-110750727D01*
X172099421Y-110210600D01*
X171991983Y-109670473D01*
X171686026Y-109212575D01*
X171255064Y-108924616D01*
X171335082Y-108900926D01*
X171756651Y-108559646D01*
X172015528Y-108083017D01*
X172029625Y-108011675D01*
X171906953Y-107797600D01*
X170065701Y-107797600D01*
X170065701Y-107817600D01*
X169811701Y-107817600D01*
X169811701Y-107797600D01*
X169791701Y-107797600D01*
X169791701Y-107543600D01*
X169811701Y-107543600D01*
X169811701Y-105257600D01*
X170065701Y-105257600D01*
X170065701Y-107543600D01*
X171906953Y-107543600D01*
X172029625Y-107329525D01*
X172015528Y-107258183D01*
X171756651Y-106781554D01*
X171335082Y-106440274D01*
X171201074Y-106400600D01*
X171335082Y-106360926D01*
X171756651Y-106019646D01*
X172015528Y-105543017D01*
X172029625Y-105471675D01*
X171906953Y-105257600D01*
X170065701Y-105257600D01*
X169811701Y-105257600D01*
X169791701Y-105257600D01*
X169791701Y-105003600D01*
X169811701Y-105003600D01*
X169811701Y-104983600D01*
X170065701Y-104983600D01*
X170065701Y-105003600D01*
X171906953Y-105003600D01*
X172029625Y-104789525D01*
X172015528Y-104718183D01*
X171756651Y-104241554D01*
X171335082Y-103900274D01*
X171255064Y-103876584D01*
X171686026Y-103588625D01*
X171991983Y-103130727D01*
X172099421Y-102590600D01*
X171991983Y-102050473D01*
X171686026Y-101592575D01*
X171278986Y-101320600D01*
X171686026Y-101048625D01*
X171991983Y-100590727D01*
X172099421Y-100050600D01*
X171991983Y-99510473D01*
X171686026Y-99052575D01*
X171278986Y-98780600D01*
X171686026Y-98508625D01*
X171991983Y-98050727D01*
X172099421Y-97510600D01*
X171991983Y-96970473D01*
X171686026Y-96512575D01*
X171278986Y-96240600D01*
X171686026Y-95968625D01*
X171991983Y-95510727D01*
X172099421Y-94970600D01*
X171991983Y-94430473D01*
X171686026Y-93972575D01*
X171278986Y-93700600D01*
X171686026Y-93428625D01*
X171991983Y-92970727D01*
X172099421Y-92430600D01*
X171991983Y-91890473D01*
X171686026Y-91432575D01*
X171255064Y-91144616D01*
X171335082Y-91120926D01*
X171756651Y-90779646D01*
X172015528Y-90303017D01*
X172029625Y-90231675D01*
X171906953Y-90017600D01*
X170065701Y-90017600D01*
X170065701Y-90037600D01*
X169811701Y-90037600D01*
X169811701Y-90017600D01*
X169791701Y-90017600D01*
X169791701Y-89763600D01*
X169811701Y-89763600D01*
X169811701Y-87477600D01*
X170065701Y-87477600D01*
X170065701Y-89763600D01*
X171906953Y-89763600D01*
X172029625Y-89549525D01*
X172015528Y-89478183D01*
X171756651Y-89001554D01*
X171335082Y-88660274D01*
X171201074Y-88620600D01*
X171335082Y-88580926D01*
X171756651Y-88239646D01*
X172015528Y-87763017D01*
X172029625Y-87691675D01*
X171906953Y-87477600D01*
X170065701Y-87477600D01*
X169811701Y-87477600D01*
X169791701Y-87477600D01*
X169791701Y-87223600D01*
X169811701Y-87223600D01*
X169811701Y-87203600D01*
X170065701Y-87203600D01*
X170065701Y-87223600D01*
X171906953Y-87223600D01*
X172029625Y-87009525D01*
X172015528Y-86938183D01*
X171756651Y-86461554D01*
X171335082Y-86120274D01*
X171255064Y-86096584D01*
X171686026Y-85808625D01*
X171991983Y-85350727D01*
X172099421Y-84810600D01*
X171991983Y-84270473D01*
X171686026Y-83812575D01*
X171255064Y-83524616D01*
X171335082Y-83500926D01*
X171756651Y-83159646D01*
X172015528Y-82683017D01*
X172029625Y-82611675D01*
X171906953Y-82397600D01*
X170065701Y-82397600D01*
X170065701Y-82417600D01*
X169811701Y-82417600D01*
X169811701Y-82397600D01*
X169791701Y-82397600D01*
X169791701Y-82143600D01*
X169811701Y-82143600D01*
X169811701Y-82123600D01*
X170065701Y-82123600D01*
X170065701Y-82143600D01*
X171906953Y-82143600D01*
X172029625Y-81929525D01*
X172015528Y-81858183D01*
X171756651Y-81381554D01*
X171335082Y-81040274D01*
X171255064Y-81016584D01*
X171686026Y-80728625D01*
X171991983Y-80270727D01*
X172099421Y-79730600D01*
X171991983Y-79190473D01*
X171686026Y-78732575D01*
X171278986Y-78460600D01*
X171686026Y-78188625D01*
X171991983Y-77730727D01*
X172099421Y-77190600D01*
X171991983Y-76650473D01*
X171686026Y-76192575D01*
X171255064Y-75904616D01*
X171335082Y-75880926D01*
X171756651Y-75539646D01*
X172015528Y-75063017D01*
X172029625Y-74991675D01*
X171906953Y-74777600D01*
X170065701Y-74777600D01*
X170065701Y-74797600D01*
X169811701Y-74797600D01*
X169811701Y-74777600D01*
X169791701Y-74777600D01*
X169791701Y-74523600D01*
X169811701Y-74523600D01*
X169811701Y-74503600D01*
X170065701Y-74503600D01*
X170065701Y-74523600D01*
X171906953Y-74523600D01*
X172029625Y-74309525D01*
X172015528Y-74238183D01*
X171756651Y-73761554D01*
X171335082Y-73420274D01*
X171255064Y-73396584D01*
X171686026Y-73108625D01*
X171991983Y-72650727D01*
X172099421Y-72110600D01*
X171991983Y-71570473D01*
X171686026Y-71112575D01*
X171278986Y-70840600D01*
X171686026Y-70568625D01*
X171991983Y-70110727D01*
X172099421Y-69570600D01*
X171991983Y-69030473D01*
X171686026Y-68572575D01*
X171255064Y-68284616D01*
X171335082Y-68260926D01*
X171756651Y-67919646D01*
X172015528Y-67443017D01*
X172029625Y-67371675D01*
X171906953Y-67157600D01*
X170065701Y-67157600D01*
X170065701Y-67177600D01*
X169811701Y-67177600D01*
X169811701Y-67157600D01*
X167970449Y-67157600D01*
X167847777Y-67371675D01*
X167861874Y-67443017D01*
X168120751Y-67919646D01*
X168542320Y-68260926D01*
X168622338Y-68284616D01*
X168191376Y-68572575D01*
X167885419Y-69030473D01*
X167777981Y-69570600D01*
X167885419Y-70110727D01*
X168191376Y-70568625D01*
X168598416Y-70840600D01*
X168191376Y-71112575D01*
X167885419Y-71570473D01*
X167777981Y-72110600D01*
X167833830Y-72391370D01*
X167315528Y-72909672D01*
X167252072Y-72952072D01*
X167209672Y-73015528D01*
X167209671Y-73015529D01*
X167084097Y-73203464D01*
X167025112Y-73500001D01*
X167040001Y-73574853D01*
X167040000Y-75726352D01*
X167025112Y-75801199D01*
X167040000Y-75876046D01*
X167040000Y-75876050D01*
X167084096Y-76097735D01*
X167252071Y-76349128D01*
X167315530Y-76391530D01*
X167833830Y-76909830D01*
X167777981Y-77190600D01*
X167855595Y-77580793D01*
X163090331Y-72815530D01*
X163047929Y-72752071D01*
X162796537Y-72584096D01*
X162574852Y-72540000D01*
X162574847Y-72540000D01*
X162500000Y-72525112D01*
X162425153Y-72540000D01*
X154435892Y-72540000D01*
X154462657Y-72513235D01*
X154605002Y-72169583D01*
X154605002Y-71797617D01*
X154462657Y-71453965D01*
X154199637Y-71190945D01*
X153855985Y-71048600D01*
X153809804Y-71048600D01*
X149776733Y-67015530D01*
X149734331Y-66952071D01*
X149482939Y-66784096D01*
X149261254Y-66740000D01*
X149261249Y-66740000D01*
X149186402Y-66725112D01*
X149111555Y-66740000D01*
X129318178Y-66740000D01*
X129284452Y-66689525D01*
X167847777Y-66689525D01*
X167970449Y-66903600D01*
X169811701Y-66903600D01*
X169811701Y-65646300D01*
X170065701Y-65646300D01*
X170065701Y-66903600D01*
X171906953Y-66903600D01*
X172029625Y-66689525D01*
X172015528Y-66618183D01*
X171756651Y-66141554D01*
X171335082Y-65800274D01*
X170815001Y-65646300D01*
X170065701Y-65646300D01*
X169811701Y-65646300D01*
X169062401Y-65646300D01*
X168542320Y-65800274D01*
X168120751Y-66141554D01*
X167861874Y-66618183D01*
X167847777Y-66689525D01*
X129284452Y-66689525D01*
X129110625Y-66429375D01*
X128619418Y-66101161D01*
X128186256Y-66015000D01*
X127893744Y-66015000D01*
X127460582Y-66101161D01*
X126969375Y-66429375D01*
X126957184Y-66447619D01*
X126948157Y-66402235D01*
X126807809Y-66192191D01*
X126597765Y-66051843D01*
X126350000Y-66002560D01*
X124650000Y-66002560D01*
X124402235Y-66051843D01*
X124192191Y-66192191D01*
X124051843Y-66402235D01*
X124002560Y-66650000D01*
X124002560Y-67922638D01*
X123515528Y-68409671D01*
X123452072Y-68452071D01*
X123409672Y-68515527D01*
X123409671Y-68515528D01*
X123368212Y-68577576D01*
X123075082Y-68340274D01*
X122995064Y-68316584D01*
X123426026Y-68028625D01*
X123731983Y-67570727D01*
X123839421Y-67030600D01*
X123731983Y-66490473D01*
X123426026Y-66032575D01*
X122968128Y-65726618D01*
X122564342Y-65646300D01*
X120793060Y-65646300D01*
X120389274Y-65726618D01*
X119931376Y-66032575D01*
X119625419Y-66490473D01*
X119517981Y-67030600D01*
X118685000Y-67030600D01*
X118685000Y-61192744D01*
X122948701Y-61192744D01*
X122948701Y-62708456D01*
X123528739Y-64108791D01*
X124600510Y-65180562D01*
X126000845Y-65760600D01*
X127516557Y-65760600D01*
X128916892Y-65180562D01*
X129988663Y-64108791D01*
X130568701Y-62708456D01*
X130568701Y-61192744D01*
X161048701Y-61192744D01*
X161048701Y-62708456D01*
X161628739Y-64108791D01*
X162700510Y-65180562D01*
X164100845Y-65760600D01*
X165616557Y-65760600D01*
X167016892Y-65180562D01*
X168088663Y-64108791D01*
X168668701Y-62708456D01*
X168668701Y-61192744D01*
X168088663Y-59792409D01*
X167016892Y-58720638D01*
X165616557Y-58140600D01*
X164100845Y-58140600D01*
X162700510Y-58720638D01*
X161628739Y-59792409D01*
X161048701Y-61192744D01*
X130568701Y-61192744D01*
X129988663Y-59792409D01*
X128916892Y-58720638D01*
X127516557Y-58140600D01*
X126000845Y-58140600D01*
X124600510Y-58720638D01*
X123528739Y-59792409D01*
X122948701Y-61192744D01*
X118685000Y-61192744D01*
X118685000Y-57685000D01*
X173315000Y-57685000D01*
X173315000Y-57932539D01*
G36*
X148711745Y-72756985D02*
X148569400Y-73100637D01*
X148569400Y-73472603D01*
X148711745Y-73816255D01*
X148974765Y-74079275D01*
X149318417Y-74221620D01*
X149364599Y-74221620D01*
X149442779Y-74299800D01*
X149343817Y-74299800D01*
X149000165Y-74442145D01*
X148737145Y-74705165D01*
X148594800Y-75048817D01*
X148594800Y-75420783D01*
X148737145Y-75764435D01*
X149000165Y-76027455D01*
X149343817Y-76169800D01*
X149389998Y-76169800D01*
X149625271Y-76405073D01*
X149667671Y-76468529D01*
X149731127Y-76510929D01*
X149748594Y-76522600D01*
X148532291Y-76522600D01*
X148298902Y-76619273D01*
X148120273Y-76797901D01*
X148023600Y-77031290D01*
X148023600Y-79571850D01*
X148182350Y-79730600D01*
X149465205Y-79730600D01*
X149447129Y-79748676D01*
X149439326Y-79751908D01*
X149439020Y-79756785D01*
X149427114Y-79768691D01*
X149432693Y-79857600D01*
X149427114Y-79946509D01*
X149439020Y-79958415D01*
X149439326Y-79963292D01*
X149445927Y-79965322D01*
X149465205Y-79984600D01*
X148182350Y-79984600D01*
X148023600Y-80143350D01*
X148023600Y-81539082D01*
X147244342Y-80759824D01*
X147244342Y-80005870D01*
X147276997Y-79973215D01*
X147419342Y-79629563D01*
X147419342Y-79257597D01*
X147276997Y-78913945D01*
X147013977Y-78650925D01*
X146670325Y-78508580D01*
X146313724Y-78508580D01*
X146542669Y-78279635D01*
X146685014Y-77935983D01*
X146685014Y-77564017D01*
X146542669Y-77220365D01*
X146279649Y-76957345D01*
X145935997Y-76815000D01*
X145761055Y-76815000D01*
X145760300Y-76809653D01*
X145759670Y-76807853D01*
X145759980Y-76796805D01*
X145725655Y-76706884D01*
X145696427Y-76615184D01*
X145689298Y-76606742D01*
X145688668Y-76604941D01*
X145683205Y-76595679D01*
X145679372Y-76585639D01*
X145678358Y-76584024D01*
X145676202Y-76573188D01*
X145622733Y-76493165D01*
X145573828Y-76410260D01*
X145564997Y-76403614D01*
X145563983Y-76402000D01*
X145556602Y-76394193D01*
X145550628Y-76385252D01*
X145549278Y-76383902D01*
X145544766Y-76373819D01*
X145474825Y-76307696D01*
X145408702Y-76237755D01*
X145398618Y-76233243D01*
X145397268Y-76231893D01*
X145388330Y-76225921D01*
X145380521Y-76218538D01*
X145378907Y-76217524D01*
X145372261Y-76208693D01*
X145289353Y-76159786D01*
X145209333Y-76106319D01*
X145198497Y-76104163D01*
X145196882Y-76103149D01*
X145186842Y-76099316D01*
X145177580Y-76093853D01*
X145175773Y-76093221D01*
X145167327Y-76086089D01*
X145075619Y-76056860D01*
X144985716Y-76022542D01*
X144974671Y-76022852D01*
X144972868Y-76022221D01*
X144962219Y-76020718D01*
X144951973Y-76017452D01*
X144950084Y-76017239D01*
X144940274Y-76012171D01*
X144844379Y-76004081D01*
X144749061Y-75990624D01*
X144738359Y-75993385D01*
X144736454Y-75993170D01*
X144725750Y-75994073D01*
X144715046Y-75993170D01*
X144713140Y-75993385D01*
X144702438Y-75990624D01*
X144607128Y-76004080D01*
X144511227Y-76012170D01*
X144501417Y-76017238D01*
X144499527Y-76017451D01*
X144489276Y-76020718D01*
X144478631Y-76022221D01*
X144476831Y-76022851D01*
X144465783Y-76022541D01*
X144375875Y-76056861D01*
X144284172Y-76086089D01*
X144275726Y-76093221D01*
X144273919Y-76093853D01*
X144264657Y-76099316D01*
X144254617Y-76103149D01*
X144253002Y-76104163D01*
X144242166Y-76106319D01*
X144162143Y-76159788D01*
X144125750Y-76181256D01*
X144089353Y-76159786D01*
X144009333Y-76106319D01*
X143998497Y-76104163D01*
X143996882Y-76103149D01*
X143986842Y-76099316D01*
X143977580Y-76093853D01*
X143975773Y-76093221D01*
X143967327Y-76086089D01*
X143875619Y-76056860D01*
X143785716Y-76022542D01*
X143774671Y-76022852D01*
X143772868Y-76022221D01*
X143762219Y-76020718D01*
X143751973Y-76017452D01*
X143750084Y-76017239D01*
X143740274Y-76012171D01*
X143644379Y-76004081D01*
X143549061Y-75990624D01*
X143538359Y-75993385D01*
X143536454Y-75993170D01*
X143525750Y-75994073D01*
X143515046Y-75993170D01*
X143513140Y-75993385D01*
X143502438Y-75990624D01*
X143407128Y-76004080D01*
X143311227Y-76012170D01*
X143301417Y-76017238D01*
X143299527Y-76017451D01*
X143289276Y-76020718D01*
X143278631Y-76022221D01*
X143276831Y-76022851D01*
X143265783Y-76022541D01*
X143175875Y-76056861D01*
X143084172Y-76086089D01*
X143075726Y-76093221D01*
X143073919Y-76093853D01*
X143064657Y-76099316D01*
X143054617Y-76103149D01*
X143053002Y-76104163D01*
X143042166Y-76106319D01*
X142962143Y-76159788D01*
X142925750Y-76181256D01*
X142889353Y-76159786D01*
X142809333Y-76106319D01*
X142798497Y-76104163D01*
X142796882Y-76103149D01*
X142786842Y-76099316D01*
X142777580Y-76093853D01*
X142775773Y-76093221D01*
X142767327Y-76086089D01*
X142675619Y-76056860D01*
X142585716Y-76022542D01*
X142574671Y-76022852D01*
X142572868Y-76022221D01*
X142562219Y-76020718D01*
X142551973Y-76017452D01*
X142550084Y-76017239D01*
X142540274Y-76012171D01*
X142444379Y-76004081D01*
X142349061Y-75990624D01*
X142338359Y-75993385D01*
X142336454Y-75993170D01*
X142325750Y-75994073D01*
X142315046Y-75993170D01*
X142313140Y-75993385D01*
X142302438Y-75990624D01*
X142207128Y-76004080D01*
X142111227Y-76012170D01*
X142101417Y-76017238D01*
X142099527Y-76017451D01*
X142089276Y-76020718D01*
X142078631Y-76022221D01*
X142076831Y-76022851D01*
X142065783Y-76022541D01*
X141975875Y-76056861D01*
X141884172Y-76086089D01*
X141875726Y-76093221D01*
X141873919Y-76093853D01*
X141864657Y-76099316D01*
X141854617Y-76103149D01*
X141853002Y-76104163D01*
X141842166Y-76106319D01*
X141762143Y-76159788D01*
X141679238Y-76208693D01*
X141672592Y-76217524D01*
X141670978Y-76218538D01*
X141663171Y-76225919D01*
X141654230Y-76231893D01*
X141652880Y-76233243D01*
X141642797Y-76237755D01*
X141576674Y-76307696D01*
X141574800Y-76309467D01*
X141574800Y-76044497D01*
X141432455Y-75700845D01*
X141179435Y-75447825D01*
X143985261Y-72642000D01*
X148826730Y-72642000D01*
X148711745Y-72756985D01*
X148711745Y-72756985D01*
G37*
X148711745Y-72756985D02*
X148569400Y-73100637D01*
X148569400Y-73472603D01*
X148711745Y-73816255D01*
X148974765Y-74079275D01*
X149318417Y-74221620D01*
X149364599Y-74221620D01*
X149442779Y-74299800D01*
X149343817Y-74299800D01*
X149000165Y-74442145D01*
X148737145Y-74705165D01*
X148594800Y-75048817D01*
X148594800Y-75420783D01*
X148737145Y-75764435D01*
X149000165Y-76027455D01*
X149343817Y-76169800D01*
X149389998Y-76169800D01*
X149625271Y-76405073D01*
X149667671Y-76468529D01*
X149731127Y-76510929D01*
X149748594Y-76522600D01*
X148532291Y-76522600D01*
X148298902Y-76619273D01*
X148120273Y-76797901D01*
X148023600Y-77031290D01*
X148023600Y-79571850D01*
X148182350Y-79730600D01*
X149465205Y-79730600D01*
X149447129Y-79748676D01*
X149439326Y-79751908D01*
X149439020Y-79756785D01*
X149427114Y-79768691D01*
X149432693Y-79857600D01*
X149427114Y-79946509D01*
X149439020Y-79958415D01*
X149439326Y-79963292D01*
X149445927Y-79965322D01*
X149465205Y-79984600D01*
X148182350Y-79984600D01*
X148023600Y-80143350D01*
X148023600Y-81539082D01*
X147244342Y-80759824D01*
X147244342Y-80005870D01*
X147276997Y-79973215D01*
X147419342Y-79629563D01*
X147419342Y-79257597D01*
X147276997Y-78913945D01*
X147013977Y-78650925D01*
X146670325Y-78508580D01*
X146313724Y-78508580D01*
X146542669Y-78279635D01*
X146685014Y-77935983D01*
X146685014Y-77564017D01*
X146542669Y-77220365D01*
X146279649Y-76957345D01*
X145935997Y-76815000D01*
X145761055Y-76815000D01*
X145760300Y-76809653D01*
X145759670Y-76807853D01*
X145759980Y-76796805D01*
X145725655Y-76706884D01*
X145696427Y-76615184D01*
X145689298Y-76606742D01*
X145688668Y-76604941D01*
X145683205Y-76595679D01*
X145679372Y-76585639D01*
X145678358Y-76584024D01*
X145676202Y-76573188D01*
X145622733Y-76493165D01*
X145573828Y-76410260D01*
X145564997Y-76403614D01*
X145563983Y-76402000D01*
X145556602Y-76394193D01*
X145550628Y-76385252D01*
X145549278Y-76383902D01*
X145544766Y-76373819D01*
X145474825Y-76307696D01*
X145408702Y-76237755D01*
X145398618Y-76233243D01*
X145397268Y-76231893D01*
X145388330Y-76225921D01*
X145380521Y-76218538D01*
X145378907Y-76217524D01*
X145372261Y-76208693D01*
X145289353Y-76159786D01*
X145209333Y-76106319D01*
X145198497Y-76104163D01*
X145196882Y-76103149D01*
X145186842Y-76099316D01*
X145177580Y-76093853D01*
X145175773Y-76093221D01*
X145167327Y-76086089D01*
X145075619Y-76056860D01*
X144985716Y-76022542D01*
X144974671Y-76022852D01*
X144972868Y-76022221D01*
X144962219Y-76020718D01*
X144951973Y-76017452D01*
X144950084Y-76017239D01*
X144940274Y-76012171D01*
X144844379Y-76004081D01*
X144749061Y-75990624D01*
X144738359Y-75993385D01*
X144736454Y-75993170D01*
X144725750Y-75994073D01*
X144715046Y-75993170D01*
X144713140Y-75993385D01*
X144702438Y-75990624D01*
X144607128Y-76004080D01*
X144511227Y-76012170D01*
X144501417Y-76017238D01*
X144499527Y-76017451D01*
X144489276Y-76020718D01*
X144478631Y-76022221D01*
X144476831Y-76022851D01*
X144465783Y-76022541D01*
X144375875Y-76056861D01*
X144284172Y-76086089D01*
X144275726Y-76093221D01*
X144273919Y-76093853D01*
X144264657Y-76099316D01*
X144254617Y-76103149D01*
X144253002Y-76104163D01*
X144242166Y-76106319D01*
X144162143Y-76159788D01*
X144125750Y-76181256D01*
X144089353Y-76159786D01*
X144009333Y-76106319D01*
X143998497Y-76104163D01*
X143996882Y-76103149D01*
X143986842Y-76099316D01*
X143977580Y-76093853D01*
X143975773Y-76093221D01*
X143967327Y-76086089D01*
X143875619Y-76056860D01*
X143785716Y-76022542D01*
X143774671Y-76022852D01*
X143772868Y-76022221D01*
X143762219Y-76020718D01*
X143751973Y-76017452D01*
X143750084Y-76017239D01*
X143740274Y-76012171D01*
X143644379Y-76004081D01*
X143549061Y-75990624D01*
X143538359Y-75993385D01*
X143536454Y-75993170D01*
X143525750Y-75994073D01*
X143515046Y-75993170D01*
X143513140Y-75993385D01*
X143502438Y-75990624D01*
X143407128Y-76004080D01*
X143311227Y-76012170D01*
X143301417Y-76017238D01*
X143299527Y-76017451D01*
X143289276Y-76020718D01*
X143278631Y-76022221D01*
X143276831Y-76022851D01*
X143265783Y-76022541D01*
X143175875Y-76056861D01*
X143084172Y-76086089D01*
X143075726Y-76093221D01*
X143073919Y-76093853D01*
X143064657Y-76099316D01*
X143054617Y-76103149D01*
X143053002Y-76104163D01*
X143042166Y-76106319D01*
X142962143Y-76159788D01*
X142925750Y-76181256D01*
X142889353Y-76159786D01*
X142809333Y-76106319D01*
X142798497Y-76104163D01*
X142796882Y-76103149D01*
X142786842Y-76099316D01*
X142777580Y-76093853D01*
X142775773Y-76093221D01*
X142767327Y-76086089D01*
X142675619Y-76056860D01*
X142585716Y-76022542D01*
X142574671Y-76022852D01*
X142572868Y-76022221D01*
X142562219Y-76020718D01*
X142551973Y-76017452D01*
X142550084Y-76017239D01*
X142540274Y-76012171D01*
X142444379Y-76004081D01*
X142349061Y-75990624D01*
X142338359Y-75993385D01*
X142336454Y-75993170D01*
X142325750Y-75994073D01*
X142315046Y-75993170D01*
X142313140Y-75993385D01*
X142302438Y-75990624D01*
X142207128Y-76004080D01*
X142111227Y-76012170D01*
X142101417Y-76017238D01*
X142099527Y-76017451D01*
X142089276Y-76020718D01*
X142078631Y-76022221D01*
X142076831Y-76022851D01*
X142065783Y-76022541D01*
X141975875Y-76056861D01*
X141884172Y-76086089D01*
X141875726Y-76093221D01*
X141873919Y-76093853D01*
X141864657Y-76099316D01*
X141854617Y-76103149D01*
X141853002Y-76104163D01*
X141842166Y-76106319D01*
X141762143Y-76159788D01*
X141679238Y-76208693D01*
X141672592Y-76217524D01*
X141670978Y-76218538D01*
X141663171Y-76225919D01*
X141654230Y-76231893D01*
X141652880Y-76233243D01*
X141642797Y-76237755D01*
X141576674Y-76307696D01*
X141574800Y-76309467D01*
X141574800Y-76044497D01*
X141432455Y-75700845D01*
X141179435Y-75447825D01*
X143985261Y-72642000D01*
X148826730Y-72642000D01*
X148711745Y-72756985D01*
G04 #@! TD*
M02*
