G04 #@! TF.GenerationSoftware,KiCad,Pcbnew,5.0.0*
G04 #@! TF.CreationDate,2018-12-09T11:56:36+00:00*
G04 #@! TF.ProjectId,cw308_fe310,63773330385F66653331302E6B696361,rev?*
G04 #@! TF.SameCoordinates,Original*
G04 #@! TF.FileFunction,Copper,L1,Top,Signal*
G04 #@! TF.FilePolarity,Positive*
%FSLAX46Y46*%
G04 Gerber Fmt 4.6, Leading zero omitted, Abs format (unit mm)*
G04 Created by KiCad (PCBNEW 5.0.0) date Sun Dec  9 11:56:36 2018*
%MOMM*%
%LPD*%
G01*
G04 APERTURE LIST*
G04 #@! TA.AperFunction,ComponentPad*
%ADD10O,2.997200X1.498600*%
G04 #@! TD*
G04 #@! TA.AperFunction,ComponentPad*
%ADD11O,1.498600X2.997200*%
G04 #@! TD*
G04 #@! TA.AperFunction,ComponentPad*
%ADD12C,6.350000*%
G04 #@! TD*
G04 #@! TA.AperFunction,SMDPad,CuDef*
%ADD13R,0.650000X1.700000*%
G04 #@! TD*
G04 #@! TA.AperFunction,SMDPad,CuDef*
%ADD14R,1.050000X0.600000*%
G04 #@! TD*
G04 #@! TA.AperFunction,SMDPad,CuDef*
%ADD15R,0.650000X0.200000*%
G04 #@! TD*
G04 #@! TA.AperFunction,SMDPad,CuDef*
%ADD16R,0.200000X0.650000*%
G04 #@! TD*
G04 #@! TA.AperFunction,SMDPad,CuDef*
%ADD17R,4.400000X4.400000*%
G04 #@! TD*
G04 #@! TA.AperFunction,ViaPad*
%ADD18C,0.600000*%
G04 #@! TD*
G04 #@! TA.AperFunction,Conductor*
%ADD19C,0.100000*%
G04 #@! TD*
G04 #@! TA.AperFunction,SMDPad,CuDef*
%ADD20C,0.875000*%
G04 #@! TD*
G04 #@! TA.AperFunction,ComponentPad*
%ADD21R,1.700000X1.700000*%
G04 #@! TD*
G04 #@! TA.AperFunction,ComponentPad*
%ADD22O,1.700000X1.700000*%
G04 #@! TD*
G04 #@! TA.AperFunction,ViaPad*
%ADD23C,0.800000*%
G04 #@! TD*
G04 #@! TA.AperFunction,Conductor*
%ADD24C,0.250000*%
G04 #@! TD*
G04 #@! TA.AperFunction,Conductor*
%ADD25C,0.254000*%
G04 #@! TD*
G04 APERTURE END LIST*
D10*
G04 #@! TO.P,J1,A1*
G04 #@! TO.N,Net-(J1-PadA1)*
X121678701Y-67030600D03*
G04 #@! TO.P,J1,A2*
G04 #@! TO.N,GND*
X121678701Y-69570600D03*
G04 #@! TO.P,J1,A3*
G04 #@! TO.N,CLKIN*
X121678701Y-72110600D03*
G04 #@! TO.P,J1,A4*
G04 #@! TO.N,GND*
X121678701Y-74650600D03*
G04 #@! TO.P,J1,A5*
G04 #@! TO.N,CLKOUT*
X121678701Y-77190600D03*
G04 #@! TO.P,J1,A6*
G04 #@! TO.N,GND*
X121678701Y-79730600D03*
G04 #@! TO.P,J1,A7*
G04 #@! TO.N,GPIO1*
X121678701Y-82270600D03*
G04 #@! TO.P,J1,A8*
G04 #@! TO.N,GPIO2*
X121678701Y-84810600D03*
G04 #@! TO.P,J1,A9*
G04 #@! TO.N,GPIO3*
X121678701Y-87350600D03*
G04 #@! TO.P,J1,A10*
G04 #@! TO.N,GPIO4*
X121678701Y-89890600D03*
G04 #@! TO.P,J1,A11*
G04 #@! TO.N,UFO.RST*
X121678701Y-92430600D03*
G04 #@! TO.P,J1,A12*
G04 #@! TO.N,Net-(J1-PadA12)*
X121678701Y-94970600D03*
G04 #@! TO.P,J1,A13*
G04 #@! TO.N,Net-(J1-PadA13)*
X121678701Y-97510600D03*
G04 #@! TO.P,J1,A14*
G04 #@! TO.N,Net-(J1-PadA14)*
X121678701Y-100050600D03*
G04 #@! TO.P,J1,A15*
G04 #@! TO.N,GND*
X121678701Y-102590600D03*
G04 #@! TO.P,J1,A16*
X121678701Y-105130600D03*
G04 #@! TO.P,J1,A17*
G04 #@! TO.N,Net-(J1-PadA17)*
X121678701Y-107670600D03*
G04 #@! TO.P,J1,A18*
G04 #@! TO.N,Net-(J1-PadA18)*
X121678701Y-110210600D03*
G04 #@! TO.P,J1,A19*
G04 #@! TO.N,Net-(J1-PadA19)*
X121678701Y-112750600D03*
G04 #@! TO.P,J1,A20*
G04 #@! TO.N,Net-(J1-PadA20)*
X121678701Y-115290600D03*
D11*
G04 #@! TO.P,J1,B1*
G04 #@! TO.N,GND*
X121678701Y-120370600D03*
G04 #@! TO.P,J1,B2*
G04 #@! TO.N,JTAG_TRST*
X124218701Y-120370600D03*
G04 #@! TO.P,J1,B3*
G04 #@! TO.N,JTAG_TDI*
X126758701Y-120370600D03*
G04 #@! TO.P,J1,B4*
G04 #@! TO.N,JTAG_TDO*
X129298701Y-120370600D03*
G04 #@! TO.P,J1,B5*
G04 #@! TO.N,JTAG_TMS*
X131838701Y-120370600D03*
G04 #@! TO.P,J1,B6*
G04 #@! TO.N,JTAG_TCK*
X134378701Y-120370600D03*
G04 #@! TO.P,J1,B7*
G04 #@! TO.N,Net-(J1-PadB7)*
X136918701Y-120370600D03*
G04 #@! TO.P,J1,B8*
G04 #@! TO.N,Net-(J1-PadB8)*
X139458701Y-120370600D03*
G04 #@! TO.P,J1,B9*
G04 #@! TO.N,GND*
X141998701Y-120370600D03*
G04 #@! TO.P,J1,B10*
X144538701Y-120370600D03*
G04 #@! TO.P,J1,B11*
G04 #@! TO.N,Net-(J1-PadB11)*
X147078701Y-120370600D03*
G04 #@! TO.P,J1,B12*
G04 #@! TO.N,Net-(J1-PadB12)*
X149618701Y-120370600D03*
G04 #@! TO.P,J1,B13*
G04 #@! TO.N,Net-(J1-PadB13)*
X152158701Y-120370600D03*
G04 #@! TO.P,J1,B14*
G04 #@! TO.N,Net-(J1-PadB14)*
X154698701Y-120370600D03*
G04 #@! TO.P,J1,B15*
G04 #@! TO.N,Net-(J1-PadB15)*
X157238701Y-120370600D03*
G04 #@! TO.P,J1,B16*
G04 #@! TO.N,Net-(J1-PadB16)*
X159778701Y-120370600D03*
G04 #@! TO.P,J1,B17*
G04 #@! TO.N,Net-(J1-PadB17)*
X162318701Y-120370600D03*
G04 #@! TO.P,J1,B18*
G04 #@! TO.N,Net-(J1-PadB18)*
X164858701Y-120370600D03*
G04 #@! TO.P,J1,B19*
G04 #@! TO.N,Net-(J1-PadB19)*
X167398701Y-120370600D03*
G04 #@! TO.P,J1,B20*
G04 #@! TO.N,Net-(J1-PadB20)*
X169938701Y-120370600D03*
D10*
G04 #@! TO.P,J1,C1*
G04 #@! TO.N,GND*
X169938701Y-67030600D03*
G04 #@! TO.P,J1,C2*
G04 #@! TO.N,VCC_CLEAN*
X169938701Y-69570600D03*
G04 #@! TO.P,J1,C3*
G04 #@! TO.N,Net-(C6-Pad2)*
X169938701Y-72110600D03*
G04 #@! TO.P,J1,C4*
G04 #@! TO.N,GND*
X169938701Y-74650600D03*
G04 #@! TO.P,J1,C5*
G04 #@! TO.N,Net-(C6-Pad2)*
X169938701Y-77190600D03*
G04 #@! TO.P,J1,C6*
G04 #@! TO.N,Net-(J1-PadC6)*
X169938701Y-79730600D03*
G04 #@! TO.P,J1,C7*
G04 #@! TO.N,GND*
X169938701Y-82270600D03*
G04 #@! TO.P,J1,C8*
G04 #@! TO.N,+1V8*
X169938701Y-84810600D03*
G04 #@! TO.P,J1,C9*
G04 #@! TO.N,GND*
X169938701Y-87350600D03*
G04 #@! TO.P,J1,C10*
X169938701Y-89890600D03*
G04 #@! TO.P,J1,C11*
G04 #@! TO.N,Net-(J1-PadC11)*
X169938701Y-92430600D03*
G04 #@! TO.P,J1,C12*
G04 #@! TO.N,+1V8*
X169938701Y-94970600D03*
G04 #@! TO.P,J1,C13*
G04 #@! TO.N,Net-(J1-PadC13)*
X169938701Y-97510600D03*
G04 #@! TO.P,J1,C14*
G04 #@! TO.N,+3V3*
X169938701Y-100050600D03*
G04 #@! TO.P,J1,C15*
G04 #@! TO.N,Net-(J1-PadC15)*
X169938701Y-102590600D03*
G04 #@! TO.P,J1,C16*
G04 #@! TO.N,GND*
X169938701Y-105130600D03*
G04 #@! TO.P,J1,C17*
X169938701Y-107670600D03*
G04 #@! TO.P,J1,C18*
G04 #@! TO.N,LED1*
X169938701Y-110210600D03*
G04 #@! TO.P,J1,C19*
G04 #@! TO.N,LED2*
X169938701Y-112750600D03*
G04 #@! TO.P,J1,C20*
G04 #@! TO.N,LED3*
X169938701Y-115290600D03*
D12*
G04 #@! TO.P,J1,MH1*
G04 #@! TO.N,N/C*
X126758701Y-61950600D03*
G04 #@! TO.P,J1,MH2*
X164858701Y-61950600D03*
G04 #@! TO.P,J1,MH3*
X144538701Y-112750600D03*
G04 #@! TD*
D13*
G04 #@! TO.P,U1,1*
G04 #@! TO.N,FLASH_S*
X133621780Y-83535540D03*
G04 #@! TO.P,U1,2*
G04 #@! TO.N,FLASH_IO1*
X134891780Y-83535540D03*
G04 #@! TO.P,U1,3*
G04 #@! TO.N,FLASH_IO2*
X136161780Y-83535540D03*
G04 #@! TO.P,U1,4*
G04 #@! TO.N,GND*
X137431780Y-83535540D03*
G04 #@! TO.P,U1,5*
G04 #@! TO.N,FLASH_IO0*
X137431780Y-76235540D03*
G04 #@! TO.P,U1,6*
G04 #@! TO.N,FLASH_SCK*
X136161780Y-76235540D03*
G04 #@! TO.P,U1,7*
G04 #@! TO.N,FLASH_IO3*
X134891780Y-76235540D03*
G04 #@! TO.P,U1,8*
G04 #@! TO.N,+3V3*
X133621780Y-76235540D03*
G04 #@! TD*
D14*
G04 #@! TO.P,U2,5*
G04 #@! TO.N,+1V8*
X159724100Y-79712860D03*
G04 #@! TO.P,U2,4*
G04 #@! TO.N,Net-(C7-Pad1)*
X159724100Y-77812860D03*
G04 #@! TO.P,U2,3*
G04 #@! TO.N,GND*
X162424100Y-77812860D03*
G04 #@! TO.P,U2,2*
G04 #@! TO.N,UFO.RST*
X162424100Y-78762860D03*
G04 #@! TO.P,U2,1*
G04 #@! TO.N,Net-(U2-Pad1)*
X162424100Y-79712860D03*
G04 #@! TD*
G04 #@! TO.P,U3,1*
G04 #@! TO.N,Net-(U3-Pad1)*
X162421560Y-83454280D03*
G04 #@! TO.P,U3,2*
G04 #@! TO.N,JTAG_TRST*
X162421560Y-82504280D03*
G04 #@! TO.P,U3,3*
G04 #@! TO.N,GND*
X162421560Y-81554280D03*
G04 #@! TO.P,U3,4*
G04 #@! TO.N,Net-(C7-Pad1)*
X159721560Y-81554280D03*
G04 #@! TO.P,U3,5*
G04 #@! TO.N,+1V8*
X159721560Y-83454280D03*
G04 #@! TD*
D15*
G04 #@! TO.P,U4,1*
G04 #@! TO.N,FLASH_IO3*
X148433600Y-77657600D03*
G04 #@! TO.P,U4,2*
G04 #@! TO.N,FLASH_IO2*
X148433600Y-78057600D03*
G04 #@! TO.P,U4,3*
G04 #@! TO.N,FLASH_IO1*
X148433600Y-78457600D03*
G04 #@! TO.P,U4,4*
G04 #@! TO.N,FLASH_IO0*
X148433600Y-78857600D03*
G04 #@! TO.P,U4,5*
G04 #@! TO.N,FLASH_S*
X148433600Y-79257600D03*
G04 #@! TO.P,U4,6*
G04 #@! TO.N,VCC_CLEAN*
X148433600Y-79657600D03*
G04 #@! TO.P,U4,7*
G04 #@! TO.N,Net-(C12-Pad1)*
X148433600Y-80057600D03*
G04 #@! TO.P,U4,8*
G04 #@! TO.N,PLL_AVSS*
X148433600Y-80457600D03*
G04 #@! TO.P,U4,9*
G04 #@! TO.N,CLKIN*
X148433600Y-80857600D03*
G04 #@! TO.P,U4,10*
G04 #@! TO.N,Net-(U4-Pad10)*
X148433600Y-81257600D03*
G04 #@! TO.P,U4,11*
G04 #@! TO.N,+3V3*
X148433600Y-81657600D03*
G04 #@! TO.P,U4,12*
X148433600Y-82057600D03*
D16*
G04 #@! TO.P,U4,13*
G04 #@! TO.N,JTAG_TCK*
X149158600Y-82782600D03*
G04 #@! TO.P,U4,14*
G04 #@! TO.N,JTAG_TDO*
X149558600Y-82782600D03*
G04 #@! TO.P,U4,15*
G04 #@! TO.N,JTAG_TMS*
X149958600Y-82782600D03*
G04 #@! TO.P,U4,16*
G04 #@! TO.N,JTAG_TDI*
X150358600Y-82782600D03*
G04 #@! TO.P,U4,17*
G04 #@! TO.N,Net-(U4-Pad17)*
X150758600Y-82782600D03*
G04 #@! TO.P,U4,18*
G04 #@! TO.N,Net-(R3-Pad1)*
X151158600Y-82782600D03*
G04 #@! TO.P,U4,19*
G04 #@! TO.N,+1V8*
X151558600Y-82782600D03*
G04 #@! TO.P,U4,20*
G04 #@! TO.N,Net-(U4-Pad20)*
X151958600Y-82782600D03*
G04 #@! TO.P,U4,21*
G04 #@! TO.N,Net-(U4-Pad21)*
X152358600Y-82782600D03*
G04 #@! TO.P,U4,22*
G04 #@! TO.N,Net-(U4-Pad22)*
X152758600Y-82782600D03*
G04 #@! TO.P,U4,23*
G04 #@! TO.N,+1V8*
X153158600Y-82782600D03*
G04 #@! TO.P,U4,24*
G04 #@! TO.N,Net-(C7-Pad1)*
X153558600Y-82782600D03*
D15*
G04 #@! TO.P,U4,25*
G04 #@! TO.N,Net-(U4-Pad25)*
X154283600Y-82057600D03*
G04 #@! TO.P,U4,26*
G04 #@! TO.N,Net-(U4-Pad26)*
X154283600Y-81657600D03*
G04 #@! TO.P,U4,27*
G04 #@! TO.N,Net-(U4-Pad27)*
X154283600Y-81257600D03*
G04 #@! TO.P,U4,28*
G04 #@! TO.N,Net-(U4-Pad28)*
X154283600Y-80857600D03*
G04 #@! TO.P,U4,29*
G04 #@! TO.N,Net-(U4-Pad29)*
X154283600Y-80457600D03*
G04 #@! TO.P,U4,30*
G04 #@! TO.N,VCC_CLEAN*
X154283600Y-80057600D03*
G04 #@! TO.P,U4,31*
G04 #@! TO.N,Net-(U4-Pad31)*
X154283600Y-79657600D03*
G04 #@! TO.P,U4,32*
G04 #@! TO.N,+3V3*
X154283600Y-79257600D03*
G04 #@! TO.P,U4,33*
G04 #@! TO.N,Net-(U4-Pad33)*
X154283600Y-78857600D03*
G04 #@! TO.P,U4,34*
G04 #@! TO.N,Net-(U4-Pad34)*
X154283600Y-78457600D03*
G04 #@! TO.P,U4,35*
G04 #@! TO.N,Net-(U4-Pad35)*
X154283600Y-78057600D03*
G04 #@! TO.P,U4,36*
G04 #@! TO.N,Net-(U4-Pad36)*
X154283600Y-77657600D03*
D16*
G04 #@! TO.P,U4,37*
G04 #@! TO.N,Net-(U4-Pad37)*
X153558600Y-76932600D03*
G04 #@! TO.P,U4,38*
G04 #@! TO.N,RX*
X153158600Y-76932600D03*
G04 #@! TO.P,U4,39*
G04 #@! TO.N,TX*
X152758600Y-76932600D03*
G04 #@! TO.P,U4,40*
G04 #@! TO.N,Net-(U4-Pad40)*
X152358600Y-76932600D03*
G04 #@! TO.P,U4,41*
G04 #@! TO.N,LED1*
X151958600Y-76932600D03*
G04 #@! TO.P,U4,42*
G04 #@! TO.N,Net-(U4-Pad42)*
X151558600Y-76932600D03*
G04 #@! TO.P,U4,43*
G04 #@! TO.N,LED3*
X151158600Y-76932600D03*
G04 #@! TO.P,U4,44*
G04 #@! TO.N,LED2*
X150758600Y-76932600D03*
G04 #@! TO.P,U4,45*
G04 #@! TO.N,GPIO4*
X150358600Y-76932600D03*
G04 #@! TO.P,U4,46*
G04 #@! TO.N,VCC_CLEAN*
X149958600Y-76932600D03*
G04 #@! TO.P,U4,47*
G04 #@! TO.N,+3V3*
X149558600Y-76932600D03*
G04 #@! TO.P,U4,48*
G04 #@! TO.N,FLASH_SCK*
X149158600Y-76932600D03*
D17*
G04 #@! TO.P,U4,49*
G04 #@! TO.N,GND*
X151358600Y-79857600D03*
D18*
G04 #@! TD*
G04 #@! TO.N,GND*
G04 #@! TO.C,U4*
X149891933Y-79124267D03*
G04 #@! TO.N,GND*
G04 #@! TO.C,U4*
X149891933Y-80590933D03*
X150625267Y-78390933D03*
X150625267Y-79124267D03*
X150625267Y-79857600D03*
X150625267Y-80590933D03*
X150625267Y-81324267D03*
X151358600Y-79124267D03*
X151358600Y-80590933D03*
X152091933Y-78390933D03*
X152091933Y-79124267D03*
X152091933Y-79857600D03*
X152091933Y-80590933D03*
X152091933Y-81324267D03*
X152825267Y-79124267D03*
X152825267Y-80590933D03*
G04 #@! TD*
D19*
G04 #@! TO.N,+3V3*
G04 #@! TO.C,C1*
G36*
X131313751Y-75570413D02*
X131334986Y-75573563D01*
X131355810Y-75578779D01*
X131376022Y-75586011D01*
X131395428Y-75595190D01*
X131413841Y-75606226D01*
X131431084Y-75619014D01*
X131446990Y-75633430D01*
X131461406Y-75649336D01*
X131474194Y-75666579D01*
X131485230Y-75684992D01*
X131494409Y-75704398D01*
X131501641Y-75724610D01*
X131506857Y-75745434D01*
X131510007Y-75766669D01*
X131511060Y-75788110D01*
X131511060Y-76225610D01*
X131510007Y-76247051D01*
X131506857Y-76268286D01*
X131501641Y-76289110D01*
X131494409Y-76309322D01*
X131485230Y-76328728D01*
X131474194Y-76347141D01*
X131461406Y-76364384D01*
X131446990Y-76380290D01*
X131431084Y-76394706D01*
X131413841Y-76407494D01*
X131395428Y-76418530D01*
X131376022Y-76427709D01*
X131355810Y-76434941D01*
X131334986Y-76440157D01*
X131313751Y-76443307D01*
X131292310Y-76444360D01*
X130779810Y-76444360D01*
X130758369Y-76443307D01*
X130737134Y-76440157D01*
X130716310Y-76434941D01*
X130696098Y-76427709D01*
X130676692Y-76418530D01*
X130658279Y-76407494D01*
X130641036Y-76394706D01*
X130625130Y-76380290D01*
X130610714Y-76364384D01*
X130597926Y-76347141D01*
X130586890Y-76328728D01*
X130577711Y-76309322D01*
X130570479Y-76289110D01*
X130565263Y-76268286D01*
X130562113Y-76247051D01*
X130561060Y-76225610D01*
X130561060Y-75788110D01*
X130562113Y-75766669D01*
X130565263Y-75745434D01*
X130570479Y-75724610D01*
X130577711Y-75704398D01*
X130586890Y-75684992D01*
X130597926Y-75666579D01*
X130610714Y-75649336D01*
X130625130Y-75633430D01*
X130641036Y-75619014D01*
X130658279Y-75606226D01*
X130676692Y-75595190D01*
X130696098Y-75586011D01*
X130716310Y-75578779D01*
X130737134Y-75573563D01*
X130758369Y-75570413D01*
X130779810Y-75569360D01*
X131292310Y-75569360D01*
X131313751Y-75570413D01*
X131313751Y-75570413D01*
G37*
D20*
G04 #@! TD*
G04 #@! TO.P,C1,1*
G04 #@! TO.N,+3V3*
X131036060Y-76006860D03*
D19*
G04 #@! TO.N,GND*
G04 #@! TO.C,C1*
G36*
X131313751Y-77145413D02*
X131334986Y-77148563D01*
X131355810Y-77153779D01*
X131376022Y-77161011D01*
X131395428Y-77170190D01*
X131413841Y-77181226D01*
X131431084Y-77194014D01*
X131446990Y-77208430D01*
X131461406Y-77224336D01*
X131474194Y-77241579D01*
X131485230Y-77259992D01*
X131494409Y-77279398D01*
X131501641Y-77299610D01*
X131506857Y-77320434D01*
X131510007Y-77341669D01*
X131511060Y-77363110D01*
X131511060Y-77800610D01*
X131510007Y-77822051D01*
X131506857Y-77843286D01*
X131501641Y-77864110D01*
X131494409Y-77884322D01*
X131485230Y-77903728D01*
X131474194Y-77922141D01*
X131461406Y-77939384D01*
X131446990Y-77955290D01*
X131431084Y-77969706D01*
X131413841Y-77982494D01*
X131395428Y-77993530D01*
X131376022Y-78002709D01*
X131355810Y-78009941D01*
X131334986Y-78015157D01*
X131313751Y-78018307D01*
X131292310Y-78019360D01*
X130779810Y-78019360D01*
X130758369Y-78018307D01*
X130737134Y-78015157D01*
X130716310Y-78009941D01*
X130696098Y-78002709D01*
X130676692Y-77993530D01*
X130658279Y-77982494D01*
X130641036Y-77969706D01*
X130625130Y-77955290D01*
X130610714Y-77939384D01*
X130597926Y-77922141D01*
X130586890Y-77903728D01*
X130577711Y-77884322D01*
X130570479Y-77864110D01*
X130565263Y-77843286D01*
X130562113Y-77822051D01*
X130561060Y-77800610D01*
X130561060Y-77363110D01*
X130562113Y-77341669D01*
X130565263Y-77320434D01*
X130570479Y-77299610D01*
X130577711Y-77279398D01*
X130586890Y-77259992D01*
X130597926Y-77241579D01*
X130610714Y-77224336D01*
X130625130Y-77208430D01*
X130641036Y-77194014D01*
X130658279Y-77181226D01*
X130676692Y-77170190D01*
X130696098Y-77161011D01*
X130716310Y-77153779D01*
X130737134Y-77148563D01*
X130758369Y-77145413D01*
X130779810Y-77144360D01*
X131292310Y-77144360D01*
X131313751Y-77145413D01*
X131313751Y-77145413D01*
G37*
D20*
G04 #@! TD*
G04 #@! TO.P,C1,2*
G04 #@! TO.N,GND*
X131036060Y-77581860D03*
D19*
G04 #@! TO.N,GND*
G04 #@! TO.C,C4*
G36*
X166292791Y-80968613D02*
X166314026Y-80971763D01*
X166334850Y-80976979D01*
X166355062Y-80984211D01*
X166374468Y-80993390D01*
X166392881Y-81004426D01*
X166410124Y-81017214D01*
X166426030Y-81031630D01*
X166440446Y-81047536D01*
X166453234Y-81064779D01*
X166464270Y-81083192D01*
X166473449Y-81102598D01*
X166480681Y-81122810D01*
X166485897Y-81143634D01*
X166489047Y-81164869D01*
X166490100Y-81186310D01*
X166490100Y-81698810D01*
X166489047Y-81720251D01*
X166485897Y-81741486D01*
X166480681Y-81762310D01*
X166473449Y-81782522D01*
X166464270Y-81801928D01*
X166453234Y-81820341D01*
X166440446Y-81837584D01*
X166426030Y-81853490D01*
X166410124Y-81867906D01*
X166392881Y-81880694D01*
X166374468Y-81891730D01*
X166355062Y-81900909D01*
X166334850Y-81908141D01*
X166314026Y-81913357D01*
X166292791Y-81916507D01*
X166271350Y-81917560D01*
X165833850Y-81917560D01*
X165812409Y-81916507D01*
X165791174Y-81913357D01*
X165770350Y-81908141D01*
X165750138Y-81900909D01*
X165730732Y-81891730D01*
X165712319Y-81880694D01*
X165695076Y-81867906D01*
X165679170Y-81853490D01*
X165664754Y-81837584D01*
X165651966Y-81820341D01*
X165640930Y-81801928D01*
X165631751Y-81782522D01*
X165624519Y-81762310D01*
X165619303Y-81741486D01*
X165616153Y-81720251D01*
X165615100Y-81698810D01*
X165615100Y-81186310D01*
X165616153Y-81164869D01*
X165619303Y-81143634D01*
X165624519Y-81122810D01*
X165631751Y-81102598D01*
X165640930Y-81083192D01*
X165651966Y-81064779D01*
X165664754Y-81047536D01*
X165679170Y-81031630D01*
X165695076Y-81017214D01*
X165712319Y-81004426D01*
X165730732Y-80993390D01*
X165750138Y-80984211D01*
X165770350Y-80976979D01*
X165791174Y-80971763D01*
X165812409Y-80968613D01*
X165833850Y-80967560D01*
X166271350Y-80967560D01*
X166292791Y-80968613D01*
X166292791Y-80968613D01*
G37*
D20*
G04 #@! TD*
G04 #@! TO.P,C4,2*
G04 #@! TO.N,GND*
X166052600Y-81442560D03*
D19*
G04 #@! TO.N,+1V8*
G04 #@! TO.C,C4*
G36*
X164717791Y-80968613D02*
X164739026Y-80971763D01*
X164759850Y-80976979D01*
X164780062Y-80984211D01*
X164799468Y-80993390D01*
X164817881Y-81004426D01*
X164835124Y-81017214D01*
X164851030Y-81031630D01*
X164865446Y-81047536D01*
X164878234Y-81064779D01*
X164889270Y-81083192D01*
X164898449Y-81102598D01*
X164905681Y-81122810D01*
X164910897Y-81143634D01*
X164914047Y-81164869D01*
X164915100Y-81186310D01*
X164915100Y-81698810D01*
X164914047Y-81720251D01*
X164910897Y-81741486D01*
X164905681Y-81762310D01*
X164898449Y-81782522D01*
X164889270Y-81801928D01*
X164878234Y-81820341D01*
X164865446Y-81837584D01*
X164851030Y-81853490D01*
X164835124Y-81867906D01*
X164817881Y-81880694D01*
X164799468Y-81891730D01*
X164780062Y-81900909D01*
X164759850Y-81908141D01*
X164739026Y-81913357D01*
X164717791Y-81916507D01*
X164696350Y-81917560D01*
X164258850Y-81917560D01*
X164237409Y-81916507D01*
X164216174Y-81913357D01*
X164195350Y-81908141D01*
X164175138Y-81900909D01*
X164155732Y-81891730D01*
X164137319Y-81880694D01*
X164120076Y-81867906D01*
X164104170Y-81853490D01*
X164089754Y-81837584D01*
X164076966Y-81820341D01*
X164065930Y-81801928D01*
X164056751Y-81782522D01*
X164049519Y-81762310D01*
X164044303Y-81741486D01*
X164041153Y-81720251D01*
X164040100Y-81698810D01*
X164040100Y-81186310D01*
X164041153Y-81164869D01*
X164044303Y-81143634D01*
X164049519Y-81122810D01*
X164056751Y-81102598D01*
X164065930Y-81083192D01*
X164076966Y-81064779D01*
X164089754Y-81047536D01*
X164104170Y-81031630D01*
X164120076Y-81017214D01*
X164137319Y-81004426D01*
X164155732Y-80993390D01*
X164175138Y-80984211D01*
X164195350Y-80976979D01*
X164216174Y-80971763D01*
X164237409Y-80968613D01*
X164258850Y-80967560D01*
X164696350Y-80967560D01*
X164717791Y-80968613D01*
X164717791Y-80968613D01*
G37*
D20*
G04 #@! TD*
G04 #@! TO.P,C4,1*
G04 #@! TO.N,+1V8*
X164477600Y-81442560D03*
D19*
G04 #@! TO.N,GND*
G04 #@! TO.C,C5*
G36*
X164572511Y-86025253D02*
X164593746Y-86028403D01*
X164614570Y-86033619D01*
X164634782Y-86040851D01*
X164654188Y-86050030D01*
X164672601Y-86061066D01*
X164689844Y-86073854D01*
X164705750Y-86088270D01*
X164720166Y-86104176D01*
X164732954Y-86121419D01*
X164743990Y-86139832D01*
X164753169Y-86159238D01*
X164760401Y-86179450D01*
X164765617Y-86200274D01*
X164768767Y-86221509D01*
X164769820Y-86242950D01*
X164769820Y-86680450D01*
X164768767Y-86701891D01*
X164765617Y-86723126D01*
X164760401Y-86743950D01*
X164753169Y-86764162D01*
X164743990Y-86783568D01*
X164732954Y-86801981D01*
X164720166Y-86819224D01*
X164705750Y-86835130D01*
X164689844Y-86849546D01*
X164672601Y-86862334D01*
X164654188Y-86873370D01*
X164634782Y-86882549D01*
X164614570Y-86889781D01*
X164593746Y-86894997D01*
X164572511Y-86898147D01*
X164551070Y-86899200D01*
X164038570Y-86899200D01*
X164017129Y-86898147D01*
X163995894Y-86894997D01*
X163975070Y-86889781D01*
X163954858Y-86882549D01*
X163935452Y-86873370D01*
X163917039Y-86862334D01*
X163899796Y-86849546D01*
X163883890Y-86835130D01*
X163869474Y-86819224D01*
X163856686Y-86801981D01*
X163845650Y-86783568D01*
X163836471Y-86764162D01*
X163829239Y-86743950D01*
X163824023Y-86723126D01*
X163820873Y-86701891D01*
X163819820Y-86680450D01*
X163819820Y-86242950D01*
X163820873Y-86221509D01*
X163824023Y-86200274D01*
X163829239Y-86179450D01*
X163836471Y-86159238D01*
X163845650Y-86139832D01*
X163856686Y-86121419D01*
X163869474Y-86104176D01*
X163883890Y-86088270D01*
X163899796Y-86073854D01*
X163917039Y-86061066D01*
X163935452Y-86050030D01*
X163954858Y-86040851D01*
X163975070Y-86033619D01*
X163995894Y-86028403D01*
X164017129Y-86025253D01*
X164038570Y-86024200D01*
X164551070Y-86024200D01*
X164572511Y-86025253D01*
X164572511Y-86025253D01*
G37*
D20*
G04 #@! TD*
G04 #@! TO.P,C5,2*
G04 #@! TO.N,GND*
X164294820Y-86461700D03*
D19*
G04 #@! TO.N,+1V8*
G04 #@! TO.C,C5*
G36*
X164572511Y-84450253D02*
X164593746Y-84453403D01*
X164614570Y-84458619D01*
X164634782Y-84465851D01*
X164654188Y-84475030D01*
X164672601Y-84486066D01*
X164689844Y-84498854D01*
X164705750Y-84513270D01*
X164720166Y-84529176D01*
X164732954Y-84546419D01*
X164743990Y-84564832D01*
X164753169Y-84584238D01*
X164760401Y-84604450D01*
X164765617Y-84625274D01*
X164768767Y-84646509D01*
X164769820Y-84667950D01*
X164769820Y-85105450D01*
X164768767Y-85126891D01*
X164765617Y-85148126D01*
X164760401Y-85168950D01*
X164753169Y-85189162D01*
X164743990Y-85208568D01*
X164732954Y-85226981D01*
X164720166Y-85244224D01*
X164705750Y-85260130D01*
X164689844Y-85274546D01*
X164672601Y-85287334D01*
X164654188Y-85298370D01*
X164634782Y-85307549D01*
X164614570Y-85314781D01*
X164593746Y-85319997D01*
X164572511Y-85323147D01*
X164551070Y-85324200D01*
X164038570Y-85324200D01*
X164017129Y-85323147D01*
X163995894Y-85319997D01*
X163975070Y-85314781D01*
X163954858Y-85307549D01*
X163935452Y-85298370D01*
X163917039Y-85287334D01*
X163899796Y-85274546D01*
X163883890Y-85260130D01*
X163869474Y-85244224D01*
X163856686Y-85226981D01*
X163845650Y-85208568D01*
X163836471Y-85189162D01*
X163829239Y-85168950D01*
X163824023Y-85148126D01*
X163820873Y-85126891D01*
X163819820Y-85105450D01*
X163819820Y-84667950D01*
X163820873Y-84646509D01*
X163824023Y-84625274D01*
X163829239Y-84604450D01*
X163836471Y-84584238D01*
X163845650Y-84564832D01*
X163856686Y-84546419D01*
X163869474Y-84529176D01*
X163883890Y-84513270D01*
X163899796Y-84498854D01*
X163917039Y-84486066D01*
X163935452Y-84475030D01*
X163954858Y-84465851D01*
X163975070Y-84458619D01*
X163995894Y-84453403D01*
X164017129Y-84450253D01*
X164038570Y-84449200D01*
X164551070Y-84449200D01*
X164572511Y-84450253D01*
X164572511Y-84450253D01*
G37*
D20*
G04 #@! TD*
G04 #@! TO.P,C5,1*
G04 #@! TO.N,+1V8*
X164294820Y-84886700D03*
D19*
G04 #@! TO.N,Net-(C6-Pad2)*
G04 #@! TO.C,C6*
G36*
X163447291Y-70962853D02*
X163468526Y-70966003D01*
X163489350Y-70971219D01*
X163509562Y-70978451D01*
X163528968Y-70987630D01*
X163547381Y-70998666D01*
X163564624Y-71011454D01*
X163580530Y-71025870D01*
X163594946Y-71041776D01*
X163607734Y-71059019D01*
X163618770Y-71077432D01*
X163627949Y-71096838D01*
X163635181Y-71117050D01*
X163640397Y-71137874D01*
X163643547Y-71159109D01*
X163644600Y-71180550D01*
X163644600Y-71618050D01*
X163643547Y-71639491D01*
X163640397Y-71660726D01*
X163635181Y-71681550D01*
X163627949Y-71701762D01*
X163618770Y-71721168D01*
X163607734Y-71739581D01*
X163594946Y-71756824D01*
X163580530Y-71772730D01*
X163564624Y-71787146D01*
X163547381Y-71799934D01*
X163528968Y-71810970D01*
X163509562Y-71820149D01*
X163489350Y-71827381D01*
X163468526Y-71832597D01*
X163447291Y-71835747D01*
X163425850Y-71836800D01*
X162913350Y-71836800D01*
X162891909Y-71835747D01*
X162870674Y-71832597D01*
X162849850Y-71827381D01*
X162829638Y-71820149D01*
X162810232Y-71810970D01*
X162791819Y-71799934D01*
X162774576Y-71787146D01*
X162758670Y-71772730D01*
X162744254Y-71756824D01*
X162731466Y-71739581D01*
X162720430Y-71721168D01*
X162711251Y-71701762D01*
X162704019Y-71681550D01*
X162698803Y-71660726D01*
X162695653Y-71639491D01*
X162694600Y-71618050D01*
X162694600Y-71180550D01*
X162695653Y-71159109D01*
X162698803Y-71137874D01*
X162704019Y-71117050D01*
X162711251Y-71096838D01*
X162720430Y-71077432D01*
X162731466Y-71059019D01*
X162744254Y-71041776D01*
X162758670Y-71025870D01*
X162774576Y-71011454D01*
X162791819Y-70998666D01*
X162810232Y-70987630D01*
X162829638Y-70978451D01*
X162849850Y-70971219D01*
X162870674Y-70966003D01*
X162891909Y-70962853D01*
X162913350Y-70961800D01*
X163425850Y-70961800D01*
X163447291Y-70962853D01*
X163447291Y-70962853D01*
G37*
D20*
G04 #@! TD*
G04 #@! TO.P,C6,2*
G04 #@! TO.N,Net-(C6-Pad2)*
X163169600Y-71399300D03*
D19*
G04 #@! TO.N,GND*
G04 #@! TO.C,C6*
G36*
X163447291Y-72537853D02*
X163468526Y-72541003D01*
X163489350Y-72546219D01*
X163509562Y-72553451D01*
X163528968Y-72562630D01*
X163547381Y-72573666D01*
X163564624Y-72586454D01*
X163580530Y-72600870D01*
X163594946Y-72616776D01*
X163607734Y-72634019D01*
X163618770Y-72652432D01*
X163627949Y-72671838D01*
X163635181Y-72692050D01*
X163640397Y-72712874D01*
X163643547Y-72734109D01*
X163644600Y-72755550D01*
X163644600Y-73193050D01*
X163643547Y-73214491D01*
X163640397Y-73235726D01*
X163635181Y-73256550D01*
X163627949Y-73276762D01*
X163618770Y-73296168D01*
X163607734Y-73314581D01*
X163594946Y-73331824D01*
X163580530Y-73347730D01*
X163564624Y-73362146D01*
X163547381Y-73374934D01*
X163528968Y-73385970D01*
X163509562Y-73395149D01*
X163489350Y-73402381D01*
X163468526Y-73407597D01*
X163447291Y-73410747D01*
X163425850Y-73411800D01*
X162913350Y-73411800D01*
X162891909Y-73410747D01*
X162870674Y-73407597D01*
X162849850Y-73402381D01*
X162829638Y-73395149D01*
X162810232Y-73385970D01*
X162791819Y-73374934D01*
X162774576Y-73362146D01*
X162758670Y-73347730D01*
X162744254Y-73331824D01*
X162731466Y-73314581D01*
X162720430Y-73296168D01*
X162711251Y-73276762D01*
X162704019Y-73256550D01*
X162698803Y-73235726D01*
X162695653Y-73214491D01*
X162694600Y-73193050D01*
X162694600Y-72755550D01*
X162695653Y-72734109D01*
X162698803Y-72712874D01*
X162704019Y-72692050D01*
X162711251Y-72671838D01*
X162720430Y-72652432D01*
X162731466Y-72634019D01*
X162744254Y-72616776D01*
X162758670Y-72600870D01*
X162774576Y-72586454D01*
X162791819Y-72573666D01*
X162810232Y-72562630D01*
X162829638Y-72553451D01*
X162849850Y-72546219D01*
X162870674Y-72541003D01*
X162891909Y-72537853D01*
X162913350Y-72536800D01*
X163425850Y-72536800D01*
X163447291Y-72537853D01*
X163447291Y-72537853D01*
G37*
D20*
G04 #@! TD*
G04 #@! TO.P,C6,1*
G04 #@! TO.N,GND*
X163169600Y-72974300D03*
D19*
G04 #@! TO.N,Net-(C7-Pad1)*
G04 #@! TO.C,C7*
G36*
X156736611Y-83591733D02*
X156757846Y-83594883D01*
X156778670Y-83600099D01*
X156798882Y-83607331D01*
X156818288Y-83616510D01*
X156836701Y-83627546D01*
X156853944Y-83640334D01*
X156869850Y-83654750D01*
X156884266Y-83670656D01*
X156897054Y-83687899D01*
X156908090Y-83706312D01*
X156917269Y-83725718D01*
X156924501Y-83745930D01*
X156929717Y-83766754D01*
X156932867Y-83787989D01*
X156933920Y-83809430D01*
X156933920Y-84246930D01*
X156932867Y-84268371D01*
X156929717Y-84289606D01*
X156924501Y-84310430D01*
X156917269Y-84330642D01*
X156908090Y-84350048D01*
X156897054Y-84368461D01*
X156884266Y-84385704D01*
X156869850Y-84401610D01*
X156853944Y-84416026D01*
X156836701Y-84428814D01*
X156818288Y-84439850D01*
X156798882Y-84449029D01*
X156778670Y-84456261D01*
X156757846Y-84461477D01*
X156736611Y-84464627D01*
X156715170Y-84465680D01*
X156202670Y-84465680D01*
X156181229Y-84464627D01*
X156159994Y-84461477D01*
X156139170Y-84456261D01*
X156118958Y-84449029D01*
X156099552Y-84439850D01*
X156081139Y-84428814D01*
X156063896Y-84416026D01*
X156047990Y-84401610D01*
X156033574Y-84385704D01*
X156020786Y-84368461D01*
X156009750Y-84350048D01*
X156000571Y-84330642D01*
X155993339Y-84310430D01*
X155988123Y-84289606D01*
X155984973Y-84268371D01*
X155983920Y-84246930D01*
X155983920Y-83809430D01*
X155984973Y-83787989D01*
X155988123Y-83766754D01*
X155993339Y-83745930D01*
X156000571Y-83725718D01*
X156009750Y-83706312D01*
X156020786Y-83687899D01*
X156033574Y-83670656D01*
X156047990Y-83654750D01*
X156063896Y-83640334D01*
X156081139Y-83627546D01*
X156099552Y-83616510D01*
X156118958Y-83607331D01*
X156139170Y-83600099D01*
X156159994Y-83594883D01*
X156181229Y-83591733D01*
X156202670Y-83590680D01*
X156715170Y-83590680D01*
X156736611Y-83591733D01*
X156736611Y-83591733D01*
G37*
D20*
G04 #@! TD*
G04 #@! TO.P,C7,1*
G04 #@! TO.N,Net-(C7-Pad1)*
X156458920Y-84028180D03*
D19*
G04 #@! TO.N,GND*
G04 #@! TO.C,C7*
G36*
X156736611Y-85166733D02*
X156757846Y-85169883D01*
X156778670Y-85175099D01*
X156798882Y-85182331D01*
X156818288Y-85191510D01*
X156836701Y-85202546D01*
X156853944Y-85215334D01*
X156869850Y-85229750D01*
X156884266Y-85245656D01*
X156897054Y-85262899D01*
X156908090Y-85281312D01*
X156917269Y-85300718D01*
X156924501Y-85320930D01*
X156929717Y-85341754D01*
X156932867Y-85362989D01*
X156933920Y-85384430D01*
X156933920Y-85821930D01*
X156932867Y-85843371D01*
X156929717Y-85864606D01*
X156924501Y-85885430D01*
X156917269Y-85905642D01*
X156908090Y-85925048D01*
X156897054Y-85943461D01*
X156884266Y-85960704D01*
X156869850Y-85976610D01*
X156853944Y-85991026D01*
X156836701Y-86003814D01*
X156818288Y-86014850D01*
X156798882Y-86024029D01*
X156778670Y-86031261D01*
X156757846Y-86036477D01*
X156736611Y-86039627D01*
X156715170Y-86040680D01*
X156202670Y-86040680D01*
X156181229Y-86039627D01*
X156159994Y-86036477D01*
X156139170Y-86031261D01*
X156118958Y-86024029D01*
X156099552Y-86014850D01*
X156081139Y-86003814D01*
X156063896Y-85991026D01*
X156047990Y-85976610D01*
X156033574Y-85960704D01*
X156020786Y-85943461D01*
X156009750Y-85925048D01*
X156000571Y-85905642D01*
X155993339Y-85885430D01*
X155988123Y-85864606D01*
X155984973Y-85843371D01*
X155983920Y-85821930D01*
X155983920Y-85384430D01*
X155984973Y-85362989D01*
X155988123Y-85341754D01*
X155993339Y-85320930D01*
X156000571Y-85300718D01*
X156009750Y-85281312D01*
X156020786Y-85262899D01*
X156033574Y-85245656D01*
X156047990Y-85229750D01*
X156063896Y-85215334D01*
X156081139Y-85202546D01*
X156099552Y-85191510D01*
X156118958Y-85182331D01*
X156139170Y-85175099D01*
X156159994Y-85169883D01*
X156181229Y-85166733D01*
X156202670Y-85165680D01*
X156715170Y-85165680D01*
X156736611Y-85166733D01*
X156736611Y-85166733D01*
G37*
D20*
G04 #@! TD*
G04 #@! TO.P,C7,2*
G04 #@! TO.N,GND*
X156458920Y-85603180D03*
D19*
G04 #@! TO.N,+3V3*
G04 #@! TO.C,C8*
G36*
X147120171Y-83567633D02*
X147141406Y-83570783D01*
X147162230Y-83575999D01*
X147182442Y-83583231D01*
X147201848Y-83592410D01*
X147220261Y-83603446D01*
X147237504Y-83616234D01*
X147253410Y-83630650D01*
X147267826Y-83646556D01*
X147280614Y-83663799D01*
X147291650Y-83682212D01*
X147300829Y-83701618D01*
X147308061Y-83721830D01*
X147313277Y-83742654D01*
X147316427Y-83763889D01*
X147317480Y-83785330D01*
X147317480Y-84222830D01*
X147316427Y-84244271D01*
X147313277Y-84265506D01*
X147308061Y-84286330D01*
X147300829Y-84306542D01*
X147291650Y-84325948D01*
X147280614Y-84344361D01*
X147267826Y-84361604D01*
X147253410Y-84377510D01*
X147237504Y-84391926D01*
X147220261Y-84404714D01*
X147201848Y-84415750D01*
X147182442Y-84424929D01*
X147162230Y-84432161D01*
X147141406Y-84437377D01*
X147120171Y-84440527D01*
X147098730Y-84441580D01*
X146586230Y-84441580D01*
X146564789Y-84440527D01*
X146543554Y-84437377D01*
X146522730Y-84432161D01*
X146502518Y-84424929D01*
X146483112Y-84415750D01*
X146464699Y-84404714D01*
X146447456Y-84391926D01*
X146431550Y-84377510D01*
X146417134Y-84361604D01*
X146404346Y-84344361D01*
X146393310Y-84325948D01*
X146384131Y-84306542D01*
X146376899Y-84286330D01*
X146371683Y-84265506D01*
X146368533Y-84244271D01*
X146367480Y-84222830D01*
X146367480Y-83785330D01*
X146368533Y-83763889D01*
X146371683Y-83742654D01*
X146376899Y-83721830D01*
X146384131Y-83701618D01*
X146393310Y-83682212D01*
X146404346Y-83663799D01*
X146417134Y-83646556D01*
X146431550Y-83630650D01*
X146447456Y-83616234D01*
X146464699Y-83603446D01*
X146483112Y-83592410D01*
X146502518Y-83583231D01*
X146522730Y-83575999D01*
X146543554Y-83570783D01*
X146564789Y-83567633D01*
X146586230Y-83566580D01*
X147098730Y-83566580D01*
X147120171Y-83567633D01*
X147120171Y-83567633D01*
G37*
D20*
G04 #@! TD*
G04 #@! TO.P,C8,1*
G04 #@! TO.N,+3V3*
X146842480Y-84004080D03*
D19*
G04 #@! TO.N,GND*
G04 #@! TO.C,C8*
G36*
X147120171Y-85142633D02*
X147141406Y-85145783D01*
X147162230Y-85150999D01*
X147182442Y-85158231D01*
X147201848Y-85167410D01*
X147220261Y-85178446D01*
X147237504Y-85191234D01*
X147253410Y-85205650D01*
X147267826Y-85221556D01*
X147280614Y-85238799D01*
X147291650Y-85257212D01*
X147300829Y-85276618D01*
X147308061Y-85296830D01*
X147313277Y-85317654D01*
X147316427Y-85338889D01*
X147317480Y-85360330D01*
X147317480Y-85797830D01*
X147316427Y-85819271D01*
X147313277Y-85840506D01*
X147308061Y-85861330D01*
X147300829Y-85881542D01*
X147291650Y-85900948D01*
X147280614Y-85919361D01*
X147267826Y-85936604D01*
X147253410Y-85952510D01*
X147237504Y-85966926D01*
X147220261Y-85979714D01*
X147201848Y-85990750D01*
X147182442Y-85999929D01*
X147162230Y-86007161D01*
X147141406Y-86012377D01*
X147120171Y-86015527D01*
X147098730Y-86016580D01*
X146586230Y-86016580D01*
X146564789Y-86015527D01*
X146543554Y-86012377D01*
X146522730Y-86007161D01*
X146502518Y-85999929D01*
X146483112Y-85990750D01*
X146464699Y-85979714D01*
X146447456Y-85966926D01*
X146431550Y-85952510D01*
X146417134Y-85936604D01*
X146404346Y-85919361D01*
X146393310Y-85900948D01*
X146384131Y-85881542D01*
X146376899Y-85861330D01*
X146371683Y-85840506D01*
X146368533Y-85819271D01*
X146367480Y-85797830D01*
X146367480Y-85360330D01*
X146368533Y-85338889D01*
X146371683Y-85317654D01*
X146376899Y-85296830D01*
X146384131Y-85276618D01*
X146393310Y-85257212D01*
X146404346Y-85238799D01*
X146417134Y-85221556D01*
X146431550Y-85205650D01*
X146447456Y-85191234D01*
X146464699Y-85178446D01*
X146483112Y-85167410D01*
X146502518Y-85158231D01*
X146522730Y-85150999D01*
X146543554Y-85145783D01*
X146564789Y-85142633D01*
X146586230Y-85141580D01*
X147098730Y-85141580D01*
X147120171Y-85142633D01*
X147120171Y-85142633D01*
G37*
D20*
G04 #@! TD*
G04 #@! TO.P,C8,2*
G04 #@! TO.N,GND*
X146842480Y-85579080D03*
D19*
G04 #@! TO.N,+3V3*
G04 #@! TO.C,C9*
G36*
X156185431Y-78326513D02*
X156206666Y-78329663D01*
X156227490Y-78334879D01*
X156247702Y-78342111D01*
X156267108Y-78351290D01*
X156285521Y-78362326D01*
X156302764Y-78375114D01*
X156318670Y-78389530D01*
X156333086Y-78405436D01*
X156345874Y-78422679D01*
X156356910Y-78441092D01*
X156366089Y-78460498D01*
X156373321Y-78480710D01*
X156378537Y-78501534D01*
X156381687Y-78522769D01*
X156382740Y-78544210D01*
X156382740Y-78981710D01*
X156381687Y-79003151D01*
X156378537Y-79024386D01*
X156373321Y-79045210D01*
X156366089Y-79065422D01*
X156356910Y-79084828D01*
X156345874Y-79103241D01*
X156333086Y-79120484D01*
X156318670Y-79136390D01*
X156302764Y-79150806D01*
X156285521Y-79163594D01*
X156267108Y-79174630D01*
X156247702Y-79183809D01*
X156227490Y-79191041D01*
X156206666Y-79196257D01*
X156185431Y-79199407D01*
X156163990Y-79200460D01*
X155651490Y-79200460D01*
X155630049Y-79199407D01*
X155608814Y-79196257D01*
X155587990Y-79191041D01*
X155567778Y-79183809D01*
X155548372Y-79174630D01*
X155529959Y-79163594D01*
X155512716Y-79150806D01*
X155496810Y-79136390D01*
X155482394Y-79120484D01*
X155469606Y-79103241D01*
X155458570Y-79084828D01*
X155449391Y-79065422D01*
X155442159Y-79045210D01*
X155436943Y-79024386D01*
X155433793Y-79003151D01*
X155432740Y-78981710D01*
X155432740Y-78544210D01*
X155433793Y-78522769D01*
X155436943Y-78501534D01*
X155442159Y-78480710D01*
X155449391Y-78460498D01*
X155458570Y-78441092D01*
X155469606Y-78422679D01*
X155482394Y-78405436D01*
X155496810Y-78389530D01*
X155512716Y-78375114D01*
X155529959Y-78362326D01*
X155548372Y-78351290D01*
X155567778Y-78342111D01*
X155587990Y-78334879D01*
X155608814Y-78329663D01*
X155630049Y-78326513D01*
X155651490Y-78325460D01*
X156163990Y-78325460D01*
X156185431Y-78326513D01*
X156185431Y-78326513D01*
G37*
D20*
G04 #@! TD*
G04 #@! TO.P,C9,1*
G04 #@! TO.N,+3V3*
X155907740Y-78762960D03*
D19*
G04 #@! TO.N,GND*
G04 #@! TO.C,C9*
G36*
X156185431Y-76751513D02*
X156206666Y-76754663D01*
X156227490Y-76759879D01*
X156247702Y-76767111D01*
X156267108Y-76776290D01*
X156285521Y-76787326D01*
X156302764Y-76800114D01*
X156318670Y-76814530D01*
X156333086Y-76830436D01*
X156345874Y-76847679D01*
X156356910Y-76866092D01*
X156366089Y-76885498D01*
X156373321Y-76905710D01*
X156378537Y-76926534D01*
X156381687Y-76947769D01*
X156382740Y-76969210D01*
X156382740Y-77406710D01*
X156381687Y-77428151D01*
X156378537Y-77449386D01*
X156373321Y-77470210D01*
X156366089Y-77490422D01*
X156356910Y-77509828D01*
X156345874Y-77528241D01*
X156333086Y-77545484D01*
X156318670Y-77561390D01*
X156302764Y-77575806D01*
X156285521Y-77588594D01*
X156267108Y-77599630D01*
X156247702Y-77608809D01*
X156227490Y-77616041D01*
X156206666Y-77621257D01*
X156185431Y-77624407D01*
X156163990Y-77625460D01*
X155651490Y-77625460D01*
X155630049Y-77624407D01*
X155608814Y-77621257D01*
X155587990Y-77616041D01*
X155567778Y-77608809D01*
X155548372Y-77599630D01*
X155529959Y-77588594D01*
X155512716Y-77575806D01*
X155496810Y-77561390D01*
X155482394Y-77545484D01*
X155469606Y-77528241D01*
X155458570Y-77509828D01*
X155449391Y-77490422D01*
X155442159Y-77470210D01*
X155436943Y-77449386D01*
X155433793Y-77428151D01*
X155432740Y-77406710D01*
X155432740Y-76969210D01*
X155433793Y-76947769D01*
X155436943Y-76926534D01*
X155442159Y-76905710D01*
X155449391Y-76885498D01*
X155458570Y-76866092D01*
X155469606Y-76847679D01*
X155482394Y-76830436D01*
X155496810Y-76814530D01*
X155512716Y-76800114D01*
X155529959Y-76787326D01*
X155548372Y-76776290D01*
X155567778Y-76767111D01*
X155587990Y-76759879D01*
X155608814Y-76754663D01*
X155630049Y-76751513D01*
X155651490Y-76750460D01*
X156163990Y-76750460D01*
X156185431Y-76751513D01*
X156185431Y-76751513D01*
G37*
D20*
G04 #@! TD*
G04 #@! TO.P,C9,2*
G04 #@! TO.N,GND*
X155907740Y-77187960D03*
D19*
G04 #@! TO.N,+3V3*
G04 #@! TO.C,C10*
G36*
X148527691Y-73757553D02*
X148548926Y-73760703D01*
X148569750Y-73765919D01*
X148589962Y-73773151D01*
X148609368Y-73782330D01*
X148627781Y-73793366D01*
X148645024Y-73806154D01*
X148660930Y-73820570D01*
X148675346Y-73836476D01*
X148688134Y-73853719D01*
X148699170Y-73872132D01*
X148708349Y-73891538D01*
X148715581Y-73911750D01*
X148720797Y-73932574D01*
X148723947Y-73953809D01*
X148725000Y-73975250D01*
X148725000Y-74487750D01*
X148723947Y-74509191D01*
X148720797Y-74530426D01*
X148715581Y-74551250D01*
X148708349Y-74571462D01*
X148699170Y-74590868D01*
X148688134Y-74609281D01*
X148675346Y-74626524D01*
X148660930Y-74642430D01*
X148645024Y-74656846D01*
X148627781Y-74669634D01*
X148609368Y-74680670D01*
X148589962Y-74689849D01*
X148569750Y-74697081D01*
X148548926Y-74702297D01*
X148527691Y-74705447D01*
X148506250Y-74706500D01*
X148068750Y-74706500D01*
X148047309Y-74705447D01*
X148026074Y-74702297D01*
X148005250Y-74697081D01*
X147985038Y-74689849D01*
X147965632Y-74680670D01*
X147947219Y-74669634D01*
X147929976Y-74656846D01*
X147914070Y-74642430D01*
X147899654Y-74626524D01*
X147886866Y-74609281D01*
X147875830Y-74590868D01*
X147866651Y-74571462D01*
X147859419Y-74551250D01*
X147854203Y-74530426D01*
X147851053Y-74509191D01*
X147850000Y-74487750D01*
X147850000Y-73975250D01*
X147851053Y-73953809D01*
X147854203Y-73932574D01*
X147859419Y-73911750D01*
X147866651Y-73891538D01*
X147875830Y-73872132D01*
X147886866Y-73853719D01*
X147899654Y-73836476D01*
X147914070Y-73820570D01*
X147929976Y-73806154D01*
X147947219Y-73793366D01*
X147965632Y-73782330D01*
X147985038Y-73773151D01*
X148005250Y-73765919D01*
X148026074Y-73760703D01*
X148047309Y-73757553D01*
X148068750Y-73756500D01*
X148506250Y-73756500D01*
X148527691Y-73757553D01*
X148527691Y-73757553D01*
G37*
D20*
G04 #@! TD*
G04 #@! TO.P,C10,1*
G04 #@! TO.N,+3V3*
X148287500Y-74231500D03*
D19*
G04 #@! TO.N,GND*
G04 #@! TO.C,C10*
G36*
X146952691Y-73757553D02*
X146973926Y-73760703D01*
X146994750Y-73765919D01*
X147014962Y-73773151D01*
X147034368Y-73782330D01*
X147052781Y-73793366D01*
X147070024Y-73806154D01*
X147085930Y-73820570D01*
X147100346Y-73836476D01*
X147113134Y-73853719D01*
X147124170Y-73872132D01*
X147133349Y-73891538D01*
X147140581Y-73911750D01*
X147145797Y-73932574D01*
X147148947Y-73953809D01*
X147150000Y-73975250D01*
X147150000Y-74487750D01*
X147148947Y-74509191D01*
X147145797Y-74530426D01*
X147140581Y-74551250D01*
X147133349Y-74571462D01*
X147124170Y-74590868D01*
X147113134Y-74609281D01*
X147100346Y-74626524D01*
X147085930Y-74642430D01*
X147070024Y-74656846D01*
X147052781Y-74669634D01*
X147034368Y-74680670D01*
X147014962Y-74689849D01*
X146994750Y-74697081D01*
X146973926Y-74702297D01*
X146952691Y-74705447D01*
X146931250Y-74706500D01*
X146493750Y-74706500D01*
X146472309Y-74705447D01*
X146451074Y-74702297D01*
X146430250Y-74697081D01*
X146410038Y-74689849D01*
X146390632Y-74680670D01*
X146372219Y-74669634D01*
X146354976Y-74656846D01*
X146339070Y-74642430D01*
X146324654Y-74626524D01*
X146311866Y-74609281D01*
X146300830Y-74590868D01*
X146291651Y-74571462D01*
X146284419Y-74551250D01*
X146279203Y-74530426D01*
X146276053Y-74509191D01*
X146275000Y-74487750D01*
X146275000Y-73975250D01*
X146276053Y-73953809D01*
X146279203Y-73932574D01*
X146284419Y-73911750D01*
X146291651Y-73891538D01*
X146300830Y-73872132D01*
X146311866Y-73853719D01*
X146324654Y-73836476D01*
X146339070Y-73820570D01*
X146354976Y-73806154D01*
X146372219Y-73793366D01*
X146390632Y-73782330D01*
X146410038Y-73773151D01*
X146430250Y-73765919D01*
X146451074Y-73760703D01*
X146472309Y-73757553D01*
X146493750Y-73756500D01*
X146931250Y-73756500D01*
X146952691Y-73757553D01*
X146952691Y-73757553D01*
G37*
D20*
G04 #@! TD*
G04 #@! TO.P,C10,2*
G04 #@! TO.N,GND*
X146712500Y-74231500D03*
D19*
G04 #@! TO.N,+1V8*
G04 #@! TO.C,C11*
G36*
X154737631Y-84468033D02*
X154758866Y-84471183D01*
X154779690Y-84476399D01*
X154799902Y-84483631D01*
X154819308Y-84492810D01*
X154837721Y-84503846D01*
X154854964Y-84516634D01*
X154870870Y-84531050D01*
X154885286Y-84546956D01*
X154898074Y-84564199D01*
X154909110Y-84582612D01*
X154918289Y-84602018D01*
X154925521Y-84622230D01*
X154930737Y-84643054D01*
X154933887Y-84664289D01*
X154934940Y-84685730D01*
X154934940Y-85123230D01*
X154933887Y-85144671D01*
X154930737Y-85165906D01*
X154925521Y-85186730D01*
X154918289Y-85206942D01*
X154909110Y-85226348D01*
X154898074Y-85244761D01*
X154885286Y-85262004D01*
X154870870Y-85277910D01*
X154854964Y-85292326D01*
X154837721Y-85305114D01*
X154819308Y-85316150D01*
X154799902Y-85325329D01*
X154779690Y-85332561D01*
X154758866Y-85337777D01*
X154737631Y-85340927D01*
X154716190Y-85341980D01*
X154203690Y-85341980D01*
X154182249Y-85340927D01*
X154161014Y-85337777D01*
X154140190Y-85332561D01*
X154119978Y-85325329D01*
X154100572Y-85316150D01*
X154082159Y-85305114D01*
X154064916Y-85292326D01*
X154049010Y-85277910D01*
X154034594Y-85262004D01*
X154021806Y-85244761D01*
X154010770Y-85226348D01*
X154001591Y-85206942D01*
X153994359Y-85186730D01*
X153989143Y-85165906D01*
X153985993Y-85144671D01*
X153984940Y-85123230D01*
X153984940Y-84685730D01*
X153985993Y-84664289D01*
X153989143Y-84643054D01*
X153994359Y-84622230D01*
X154001591Y-84602018D01*
X154010770Y-84582612D01*
X154021806Y-84564199D01*
X154034594Y-84546956D01*
X154049010Y-84531050D01*
X154064916Y-84516634D01*
X154082159Y-84503846D01*
X154100572Y-84492810D01*
X154119978Y-84483631D01*
X154140190Y-84476399D01*
X154161014Y-84471183D01*
X154182249Y-84468033D01*
X154203690Y-84466980D01*
X154716190Y-84466980D01*
X154737631Y-84468033D01*
X154737631Y-84468033D01*
G37*
D20*
G04 #@! TD*
G04 #@! TO.P,C11,2*
G04 #@! TO.N,+1V8*
X154459940Y-84904480D03*
D19*
G04 #@! TO.N,GND*
G04 #@! TO.C,C11*
G36*
X154737631Y-86043033D02*
X154758866Y-86046183D01*
X154779690Y-86051399D01*
X154799902Y-86058631D01*
X154819308Y-86067810D01*
X154837721Y-86078846D01*
X154854964Y-86091634D01*
X154870870Y-86106050D01*
X154885286Y-86121956D01*
X154898074Y-86139199D01*
X154909110Y-86157612D01*
X154918289Y-86177018D01*
X154925521Y-86197230D01*
X154930737Y-86218054D01*
X154933887Y-86239289D01*
X154934940Y-86260730D01*
X154934940Y-86698230D01*
X154933887Y-86719671D01*
X154930737Y-86740906D01*
X154925521Y-86761730D01*
X154918289Y-86781942D01*
X154909110Y-86801348D01*
X154898074Y-86819761D01*
X154885286Y-86837004D01*
X154870870Y-86852910D01*
X154854964Y-86867326D01*
X154837721Y-86880114D01*
X154819308Y-86891150D01*
X154799902Y-86900329D01*
X154779690Y-86907561D01*
X154758866Y-86912777D01*
X154737631Y-86915927D01*
X154716190Y-86916980D01*
X154203690Y-86916980D01*
X154182249Y-86915927D01*
X154161014Y-86912777D01*
X154140190Y-86907561D01*
X154119978Y-86900329D01*
X154100572Y-86891150D01*
X154082159Y-86880114D01*
X154064916Y-86867326D01*
X154049010Y-86852910D01*
X154034594Y-86837004D01*
X154021806Y-86819761D01*
X154010770Y-86801348D01*
X154001591Y-86781942D01*
X153994359Y-86761730D01*
X153989143Y-86740906D01*
X153985993Y-86719671D01*
X153984940Y-86698230D01*
X153984940Y-86260730D01*
X153985993Y-86239289D01*
X153989143Y-86218054D01*
X153994359Y-86197230D01*
X154001591Y-86177018D01*
X154010770Y-86157612D01*
X154021806Y-86139199D01*
X154034594Y-86121956D01*
X154049010Y-86106050D01*
X154064916Y-86091634D01*
X154082159Y-86078846D01*
X154100572Y-86067810D01*
X154119978Y-86058631D01*
X154140190Y-86051399D01*
X154161014Y-86046183D01*
X154182249Y-86043033D01*
X154203690Y-86041980D01*
X154716190Y-86041980D01*
X154737631Y-86043033D01*
X154737631Y-86043033D01*
G37*
D20*
G04 #@! TD*
G04 #@! TO.P,C11,1*
G04 #@! TO.N,GND*
X154459940Y-86479480D03*
D19*
G04 #@! TO.N,Net-(C12-Pad1)*
G04 #@! TO.C,C12*
G36*
X145580931Y-79715693D02*
X145602166Y-79718843D01*
X145622990Y-79724059D01*
X145643202Y-79731291D01*
X145662608Y-79740470D01*
X145681021Y-79751506D01*
X145698264Y-79764294D01*
X145714170Y-79778710D01*
X145728586Y-79794616D01*
X145741374Y-79811859D01*
X145752410Y-79830272D01*
X145761589Y-79849678D01*
X145768821Y-79869890D01*
X145774037Y-79890714D01*
X145777187Y-79911949D01*
X145778240Y-79933390D01*
X145778240Y-80370890D01*
X145777187Y-80392331D01*
X145774037Y-80413566D01*
X145768821Y-80434390D01*
X145761589Y-80454602D01*
X145752410Y-80474008D01*
X145741374Y-80492421D01*
X145728586Y-80509664D01*
X145714170Y-80525570D01*
X145698264Y-80539986D01*
X145681021Y-80552774D01*
X145662608Y-80563810D01*
X145643202Y-80572989D01*
X145622990Y-80580221D01*
X145602166Y-80585437D01*
X145580931Y-80588587D01*
X145559490Y-80589640D01*
X145046990Y-80589640D01*
X145025549Y-80588587D01*
X145004314Y-80585437D01*
X144983490Y-80580221D01*
X144963278Y-80572989D01*
X144943872Y-80563810D01*
X144925459Y-80552774D01*
X144908216Y-80539986D01*
X144892310Y-80525570D01*
X144877894Y-80509664D01*
X144865106Y-80492421D01*
X144854070Y-80474008D01*
X144844891Y-80454602D01*
X144837659Y-80434390D01*
X144832443Y-80413566D01*
X144829293Y-80392331D01*
X144828240Y-80370890D01*
X144828240Y-79933390D01*
X144829293Y-79911949D01*
X144832443Y-79890714D01*
X144837659Y-79869890D01*
X144844891Y-79849678D01*
X144854070Y-79830272D01*
X144865106Y-79811859D01*
X144877894Y-79794616D01*
X144892310Y-79778710D01*
X144908216Y-79764294D01*
X144925459Y-79751506D01*
X144943872Y-79740470D01*
X144963278Y-79731291D01*
X144983490Y-79724059D01*
X145004314Y-79718843D01*
X145025549Y-79715693D01*
X145046990Y-79714640D01*
X145559490Y-79714640D01*
X145580931Y-79715693D01*
X145580931Y-79715693D01*
G37*
D20*
G04 #@! TD*
G04 #@! TO.P,C12,1*
G04 #@! TO.N,Net-(C12-Pad1)*
X145303240Y-80152140D03*
D19*
G04 #@! TO.N,PLL_AVSS*
G04 #@! TO.C,C12*
G36*
X145580931Y-81290693D02*
X145602166Y-81293843D01*
X145622990Y-81299059D01*
X145643202Y-81306291D01*
X145662608Y-81315470D01*
X145681021Y-81326506D01*
X145698264Y-81339294D01*
X145714170Y-81353710D01*
X145728586Y-81369616D01*
X145741374Y-81386859D01*
X145752410Y-81405272D01*
X145761589Y-81424678D01*
X145768821Y-81444890D01*
X145774037Y-81465714D01*
X145777187Y-81486949D01*
X145778240Y-81508390D01*
X145778240Y-81945890D01*
X145777187Y-81967331D01*
X145774037Y-81988566D01*
X145768821Y-82009390D01*
X145761589Y-82029602D01*
X145752410Y-82049008D01*
X145741374Y-82067421D01*
X145728586Y-82084664D01*
X145714170Y-82100570D01*
X145698264Y-82114986D01*
X145681021Y-82127774D01*
X145662608Y-82138810D01*
X145643202Y-82147989D01*
X145622990Y-82155221D01*
X145602166Y-82160437D01*
X145580931Y-82163587D01*
X145559490Y-82164640D01*
X145046990Y-82164640D01*
X145025549Y-82163587D01*
X145004314Y-82160437D01*
X144983490Y-82155221D01*
X144963278Y-82147989D01*
X144943872Y-82138810D01*
X144925459Y-82127774D01*
X144908216Y-82114986D01*
X144892310Y-82100570D01*
X144877894Y-82084664D01*
X144865106Y-82067421D01*
X144854070Y-82049008D01*
X144844891Y-82029602D01*
X144837659Y-82009390D01*
X144832443Y-81988566D01*
X144829293Y-81967331D01*
X144828240Y-81945890D01*
X144828240Y-81508390D01*
X144829293Y-81486949D01*
X144832443Y-81465714D01*
X144837659Y-81444890D01*
X144844891Y-81424678D01*
X144854070Y-81405272D01*
X144865106Y-81386859D01*
X144877894Y-81369616D01*
X144892310Y-81353710D01*
X144908216Y-81339294D01*
X144925459Y-81326506D01*
X144943872Y-81315470D01*
X144963278Y-81306291D01*
X144983490Y-81299059D01*
X145004314Y-81293843D01*
X145025549Y-81290693D01*
X145046990Y-81289640D01*
X145559490Y-81289640D01*
X145580931Y-81290693D01*
X145580931Y-81290693D01*
G37*
D20*
G04 #@! TD*
G04 #@! TO.P,C12,2*
G04 #@! TO.N,PLL_AVSS*
X145303240Y-81727140D03*
D19*
G04 #@! TO.N,PLL_AVSS*
G04 #@! TO.C,C13*
G36*
X144074711Y-81290693D02*
X144095946Y-81293843D01*
X144116770Y-81299059D01*
X144136982Y-81306291D01*
X144156388Y-81315470D01*
X144174801Y-81326506D01*
X144192044Y-81339294D01*
X144207950Y-81353710D01*
X144222366Y-81369616D01*
X144235154Y-81386859D01*
X144246190Y-81405272D01*
X144255369Y-81424678D01*
X144262601Y-81444890D01*
X144267817Y-81465714D01*
X144270967Y-81486949D01*
X144272020Y-81508390D01*
X144272020Y-81945890D01*
X144270967Y-81967331D01*
X144267817Y-81988566D01*
X144262601Y-82009390D01*
X144255369Y-82029602D01*
X144246190Y-82049008D01*
X144235154Y-82067421D01*
X144222366Y-82084664D01*
X144207950Y-82100570D01*
X144192044Y-82114986D01*
X144174801Y-82127774D01*
X144156388Y-82138810D01*
X144136982Y-82147989D01*
X144116770Y-82155221D01*
X144095946Y-82160437D01*
X144074711Y-82163587D01*
X144053270Y-82164640D01*
X143540770Y-82164640D01*
X143519329Y-82163587D01*
X143498094Y-82160437D01*
X143477270Y-82155221D01*
X143457058Y-82147989D01*
X143437652Y-82138810D01*
X143419239Y-82127774D01*
X143401996Y-82114986D01*
X143386090Y-82100570D01*
X143371674Y-82084664D01*
X143358886Y-82067421D01*
X143347850Y-82049008D01*
X143338671Y-82029602D01*
X143331439Y-82009390D01*
X143326223Y-81988566D01*
X143323073Y-81967331D01*
X143322020Y-81945890D01*
X143322020Y-81508390D01*
X143323073Y-81486949D01*
X143326223Y-81465714D01*
X143331439Y-81444890D01*
X143338671Y-81424678D01*
X143347850Y-81405272D01*
X143358886Y-81386859D01*
X143371674Y-81369616D01*
X143386090Y-81353710D01*
X143401996Y-81339294D01*
X143419239Y-81326506D01*
X143437652Y-81315470D01*
X143457058Y-81306291D01*
X143477270Y-81299059D01*
X143498094Y-81293843D01*
X143519329Y-81290693D01*
X143540770Y-81289640D01*
X144053270Y-81289640D01*
X144074711Y-81290693D01*
X144074711Y-81290693D01*
G37*
D20*
G04 #@! TD*
G04 #@! TO.P,C13,2*
G04 #@! TO.N,PLL_AVSS*
X143797020Y-81727140D03*
D19*
G04 #@! TO.N,Net-(C12-Pad1)*
G04 #@! TO.C,C13*
G36*
X144074711Y-79715693D02*
X144095946Y-79718843D01*
X144116770Y-79724059D01*
X144136982Y-79731291D01*
X144156388Y-79740470D01*
X144174801Y-79751506D01*
X144192044Y-79764294D01*
X144207950Y-79778710D01*
X144222366Y-79794616D01*
X144235154Y-79811859D01*
X144246190Y-79830272D01*
X144255369Y-79849678D01*
X144262601Y-79869890D01*
X144267817Y-79890714D01*
X144270967Y-79911949D01*
X144272020Y-79933390D01*
X144272020Y-80370890D01*
X144270967Y-80392331D01*
X144267817Y-80413566D01*
X144262601Y-80434390D01*
X144255369Y-80454602D01*
X144246190Y-80474008D01*
X144235154Y-80492421D01*
X144222366Y-80509664D01*
X144207950Y-80525570D01*
X144192044Y-80539986D01*
X144174801Y-80552774D01*
X144156388Y-80563810D01*
X144136982Y-80572989D01*
X144116770Y-80580221D01*
X144095946Y-80585437D01*
X144074711Y-80588587D01*
X144053270Y-80589640D01*
X143540770Y-80589640D01*
X143519329Y-80588587D01*
X143498094Y-80585437D01*
X143477270Y-80580221D01*
X143457058Y-80572989D01*
X143437652Y-80563810D01*
X143419239Y-80552774D01*
X143401996Y-80539986D01*
X143386090Y-80525570D01*
X143371674Y-80509664D01*
X143358886Y-80492421D01*
X143347850Y-80474008D01*
X143338671Y-80454602D01*
X143331439Y-80434390D01*
X143326223Y-80413566D01*
X143323073Y-80392331D01*
X143322020Y-80370890D01*
X143322020Y-79933390D01*
X143323073Y-79911949D01*
X143326223Y-79890714D01*
X143331439Y-79869890D01*
X143338671Y-79849678D01*
X143347850Y-79830272D01*
X143358886Y-79811859D01*
X143371674Y-79794616D01*
X143386090Y-79778710D01*
X143401996Y-79764294D01*
X143419239Y-79751506D01*
X143437652Y-79740470D01*
X143457058Y-79731291D01*
X143477270Y-79724059D01*
X143498094Y-79718843D01*
X143519329Y-79715693D01*
X143540770Y-79714640D01*
X144053270Y-79714640D01*
X144074711Y-79715693D01*
X144074711Y-79715693D01*
G37*
D20*
G04 #@! TD*
G04 #@! TO.P,C13,1*
G04 #@! TO.N,Net-(C12-Pad1)*
X143797020Y-80152140D03*
D21*
G04 #@! TO.P,J2,1*
G04 #@! TO.N,GPIO1*
X125500000Y-67500000D03*
D22*
G04 #@! TO.P,J2,2*
G04 #@! TO.N,RX*
X128040000Y-67500000D03*
G04 #@! TO.P,J2,3*
G04 #@! TO.N,GPIO2*
X125500000Y-70040000D03*
G04 #@! TO.P,J2,4*
G04 #@! TO.N,TX*
X128040000Y-70040000D03*
G04 #@! TD*
D19*
G04 #@! TO.N,VCC_CLEAN*
G04 #@! TO.C,R1*
G36*
X161491491Y-69235653D02*
X161512726Y-69238803D01*
X161533550Y-69244019D01*
X161553762Y-69251251D01*
X161573168Y-69260430D01*
X161591581Y-69271466D01*
X161608824Y-69284254D01*
X161624730Y-69298670D01*
X161639146Y-69314576D01*
X161651934Y-69331819D01*
X161662970Y-69350232D01*
X161672149Y-69369638D01*
X161679381Y-69389850D01*
X161684597Y-69410674D01*
X161687747Y-69431909D01*
X161688800Y-69453350D01*
X161688800Y-69890850D01*
X161687747Y-69912291D01*
X161684597Y-69933526D01*
X161679381Y-69954350D01*
X161672149Y-69974562D01*
X161662970Y-69993968D01*
X161651934Y-70012381D01*
X161639146Y-70029624D01*
X161624730Y-70045530D01*
X161608824Y-70059946D01*
X161591581Y-70072734D01*
X161573168Y-70083770D01*
X161553762Y-70092949D01*
X161533550Y-70100181D01*
X161512726Y-70105397D01*
X161491491Y-70108547D01*
X161470050Y-70109600D01*
X160957550Y-70109600D01*
X160936109Y-70108547D01*
X160914874Y-70105397D01*
X160894050Y-70100181D01*
X160873838Y-70092949D01*
X160854432Y-70083770D01*
X160836019Y-70072734D01*
X160818776Y-70059946D01*
X160802870Y-70045530D01*
X160788454Y-70029624D01*
X160775666Y-70012381D01*
X160764630Y-69993968D01*
X160755451Y-69974562D01*
X160748219Y-69954350D01*
X160743003Y-69933526D01*
X160739853Y-69912291D01*
X160738800Y-69890850D01*
X160738800Y-69453350D01*
X160739853Y-69431909D01*
X160743003Y-69410674D01*
X160748219Y-69389850D01*
X160755451Y-69369638D01*
X160764630Y-69350232D01*
X160775666Y-69331819D01*
X160788454Y-69314576D01*
X160802870Y-69298670D01*
X160818776Y-69284254D01*
X160836019Y-69271466D01*
X160854432Y-69260430D01*
X160873838Y-69251251D01*
X160894050Y-69244019D01*
X160914874Y-69238803D01*
X160936109Y-69235653D01*
X160957550Y-69234600D01*
X161470050Y-69234600D01*
X161491491Y-69235653D01*
X161491491Y-69235653D01*
G37*
D20*
G04 #@! TD*
G04 #@! TO.P,R1,1*
G04 #@! TO.N,VCC_CLEAN*
X161213800Y-69672100D03*
D19*
G04 #@! TO.N,Net-(C6-Pad2)*
G04 #@! TO.C,R1*
G36*
X161491491Y-70810653D02*
X161512726Y-70813803D01*
X161533550Y-70819019D01*
X161553762Y-70826251D01*
X161573168Y-70835430D01*
X161591581Y-70846466D01*
X161608824Y-70859254D01*
X161624730Y-70873670D01*
X161639146Y-70889576D01*
X161651934Y-70906819D01*
X161662970Y-70925232D01*
X161672149Y-70944638D01*
X161679381Y-70964850D01*
X161684597Y-70985674D01*
X161687747Y-71006909D01*
X161688800Y-71028350D01*
X161688800Y-71465850D01*
X161687747Y-71487291D01*
X161684597Y-71508526D01*
X161679381Y-71529350D01*
X161672149Y-71549562D01*
X161662970Y-71568968D01*
X161651934Y-71587381D01*
X161639146Y-71604624D01*
X161624730Y-71620530D01*
X161608824Y-71634946D01*
X161591581Y-71647734D01*
X161573168Y-71658770D01*
X161553762Y-71667949D01*
X161533550Y-71675181D01*
X161512726Y-71680397D01*
X161491491Y-71683547D01*
X161470050Y-71684600D01*
X160957550Y-71684600D01*
X160936109Y-71683547D01*
X160914874Y-71680397D01*
X160894050Y-71675181D01*
X160873838Y-71667949D01*
X160854432Y-71658770D01*
X160836019Y-71647734D01*
X160818776Y-71634946D01*
X160802870Y-71620530D01*
X160788454Y-71604624D01*
X160775666Y-71587381D01*
X160764630Y-71568968D01*
X160755451Y-71549562D01*
X160748219Y-71529350D01*
X160743003Y-71508526D01*
X160739853Y-71487291D01*
X160738800Y-71465850D01*
X160738800Y-71028350D01*
X160739853Y-71006909D01*
X160743003Y-70985674D01*
X160748219Y-70964850D01*
X160755451Y-70944638D01*
X160764630Y-70925232D01*
X160775666Y-70906819D01*
X160788454Y-70889576D01*
X160802870Y-70873670D01*
X160818776Y-70859254D01*
X160836019Y-70846466D01*
X160854432Y-70835430D01*
X160873838Y-70826251D01*
X160894050Y-70819019D01*
X160914874Y-70813803D01*
X160936109Y-70810653D01*
X160957550Y-70809600D01*
X161470050Y-70809600D01*
X161491491Y-70810653D01*
X161491491Y-70810653D01*
G37*
D20*
G04 #@! TD*
G04 #@! TO.P,R1,2*
G04 #@! TO.N,Net-(C6-Pad2)*
X161213800Y-71247100D03*
D19*
G04 #@! TO.N,+1V8*
G04 #@! TO.C,R2*
G36*
X158278391Y-85159113D02*
X158299626Y-85162263D01*
X158320450Y-85167479D01*
X158340662Y-85174711D01*
X158360068Y-85183890D01*
X158378481Y-85194926D01*
X158395724Y-85207714D01*
X158411630Y-85222130D01*
X158426046Y-85238036D01*
X158438834Y-85255279D01*
X158449870Y-85273692D01*
X158459049Y-85293098D01*
X158466281Y-85313310D01*
X158471497Y-85334134D01*
X158474647Y-85355369D01*
X158475700Y-85376810D01*
X158475700Y-85814310D01*
X158474647Y-85835751D01*
X158471497Y-85856986D01*
X158466281Y-85877810D01*
X158459049Y-85898022D01*
X158449870Y-85917428D01*
X158438834Y-85935841D01*
X158426046Y-85953084D01*
X158411630Y-85968990D01*
X158395724Y-85983406D01*
X158378481Y-85996194D01*
X158360068Y-86007230D01*
X158340662Y-86016409D01*
X158320450Y-86023641D01*
X158299626Y-86028857D01*
X158278391Y-86032007D01*
X158256950Y-86033060D01*
X157744450Y-86033060D01*
X157723009Y-86032007D01*
X157701774Y-86028857D01*
X157680950Y-86023641D01*
X157660738Y-86016409D01*
X157641332Y-86007230D01*
X157622919Y-85996194D01*
X157605676Y-85983406D01*
X157589770Y-85968990D01*
X157575354Y-85953084D01*
X157562566Y-85935841D01*
X157551530Y-85917428D01*
X157542351Y-85898022D01*
X157535119Y-85877810D01*
X157529903Y-85856986D01*
X157526753Y-85835751D01*
X157525700Y-85814310D01*
X157525700Y-85376810D01*
X157526753Y-85355369D01*
X157529903Y-85334134D01*
X157535119Y-85313310D01*
X157542351Y-85293098D01*
X157551530Y-85273692D01*
X157562566Y-85255279D01*
X157575354Y-85238036D01*
X157589770Y-85222130D01*
X157605676Y-85207714D01*
X157622919Y-85194926D01*
X157641332Y-85183890D01*
X157660738Y-85174711D01*
X157680950Y-85167479D01*
X157701774Y-85162263D01*
X157723009Y-85159113D01*
X157744450Y-85158060D01*
X158256950Y-85158060D01*
X158278391Y-85159113D01*
X158278391Y-85159113D01*
G37*
D20*
G04 #@! TD*
G04 #@! TO.P,R2,1*
G04 #@! TO.N,+1V8*
X158000700Y-85595560D03*
D19*
G04 #@! TO.N,Net-(C7-Pad1)*
G04 #@! TO.C,R2*
G36*
X158278391Y-83584113D02*
X158299626Y-83587263D01*
X158320450Y-83592479D01*
X158340662Y-83599711D01*
X158360068Y-83608890D01*
X158378481Y-83619926D01*
X158395724Y-83632714D01*
X158411630Y-83647130D01*
X158426046Y-83663036D01*
X158438834Y-83680279D01*
X158449870Y-83698692D01*
X158459049Y-83718098D01*
X158466281Y-83738310D01*
X158471497Y-83759134D01*
X158474647Y-83780369D01*
X158475700Y-83801810D01*
X158475700Y-84239310D01*
X158474647Y-84260751D01*
X158471497Y-84281986D01*
X158466281Y-84302810D01*
X158459049Y-84323022D01*
X158449870Y-84342428D01*
X158438834Y-84360841D01*
X158426046Y-84378084D01*
X158411630Y-84393990D01*
X158395724Y-84408406D01*
X158378481Y-84421194D01*
X158360068Y-84432230D01*
X158340662Y-84441409D01*
X158320450Y-84448641D01*
X158299626Y-84453857D01*
X158278391Y-84457007D01*
X158256950Y-84458060D01*
X157744450Y-84458060D01*
X157723009Y-84457007D01*
X157701774Y-84453857D01*
X157680950Y-84448641D01*
X157660738Y-84441409D01*
X157641332Y-84432230D01*
X157622919Y-84421194D01*
X157605676Y-84408406D01*
X157589770Y-84393990D01*
X157575354Y-84378084D01*
X157562566Y-84360841D01*
X157551530Y-84342428D01*
X157542351Y-84323022D01*
X157535119Y-84302810D01*
X157529903Y-84281986D01*
X157526753Y-84260751D01*
X157525700Y-84239310D01*
X157525700Y-83801810D01*
X157526753Y-83780369D01*
X157529903Y-83759134D01*
X157535119Y-83738310D01*
X157542351Y-83718098D01*
X157551530Y-83698692D01*
X157562566Y-83680279D01*
X157575354Y-83663036D01*
X157589770Y-83647130D01*
X157605676Y-83632714D01*
X157622919Y-83619926D01*
X157641332Y-83608890D01*
X157660738Y-83599711D01*
X157680950Y-83592479D01*
X157701774Y-83587263D01*
X157723009Y-83584113D01*
X157744450Y-83583060D01*
X158256950Y-83583060D01*
X158278391Y-83584113D01*
X158278391Y-83584113D01*
G37*
D20*
G04 #@! TD*
G04 #@! TO.P,R2,2*
G04 #@! TO.N,Net-(C7-Pad1)*
X158000700Y-84020560D03*
D19*
G04 #@! TO.N,+1V8*
G04 #@! TO.C,R3*
G36*
X153133051Y-84341733D02*
X153154286Y-84344883D01*
X153175110Y-84350099D01*
X153195322Y-84357331D01*
X153214728Y-84366510D01*
X153233141Y-84377546D01*
X153250384Y-84390334D01*
X153266290Y-84404750D01*
X153280706Y-84420656D01*
X153293494Y-84437899D01*
X153304530Y-84456312D01*
X153313709Y-84475718D01*
X153320941Y-84495930D01*
X153326157Y-84516754D01*
X153329307Y-84537989D01*
X153330360Y-84559430D01*
X153330360Y-85071930D01*
X153329307Y-85093371D01*
X153326157Y-85114606D01*
X153320941Y-85135430D01*
X153313709Y-85155642D01*
X153304530Y-85175048D01*
X153293494Y-85193461D01*
X153280706Y-85210704D01*
X153266290Y-85226610D01*
X153250384Y-85241026D01*
X153233141Y-85253814D01*
X153214728Y-85264850D01*
X153195322Y-85274029D01*
X153175110Y-85281261D01*
X153154286Y-85286477D01*
X153133051Y-85289627D01*
X153111610Y-85290680D01*
X152674110Y-85290680D01*
X152652669Y-85289627D01*
X152631434Y-85286477D01*
X152610610Y-85281261D01*
X152590398Y-85274029D01*
X152570992Y-85264850D01*
X152552579Y-85253814D01*
X152535336Y-85241026D01*
X152519430Y-85226610D01*
X152505014Y-85210704D01*
X152492226Y-85193461D01*
X152481190Y-85175048D01*
X152472011Y-85155642D01*
X152464779Y-85135430D01*
X152459563Y-85114606D01*
X152456413Y-85093371D01*
X152455360Y-85071930D01*
X152455360Y-84559430D01*
X152456413Y-84537989D01*
X152459563Y-84516754D01*
X152464779Y-84495930D01*
X152472011Y-84475718D01*
X152481190Y-84456312D01*
X152492226Y-84437899D01*
X152505014Y-84420656D01*
X152519430Y-84404750D01*
X152535336Y-84390334D01*
X152552579Y-84377546D01*
X152570992Y-84366510D01*
X152590398Y-84357331D01*
X152610610Y-84350099D01*
X152631434Y-84344883D01*
X152652669Y-84341733D01*
X152674110Y-84340680D01*
X153111610Y-84340680D01*
X153133051Y-84341733D01*
X153133051Y-84341733D01*
G37*
D20*
G04 #@! TD*
G04 #@! TO.P,R3,2*
G04 #@! TO.N,+1V8*
X152892860Y-84815680D03*
D19*
G04 #@! TO.N,Net-(R3-Pad1)*
G04 #@! TO.C,R3*
G36*
X151558051Y-84341733D02*
X151579286Y-84344883D01*
X151600110Y-84350099D01*
X151620322Y-84357331D01*
X151639728Y-84366510D01*
X151658141Y-84377546D01*
X151675384Y-84390334D01*
X151691290Y-84404750D01*
X151705706Y-84420656D01*
X151718494Y-84437899D01*
X151729530Y-84456312D01*
X151738709Y-84475718D01*
X151745941Y-84495930D01*
X151751157Y-84516754D01*
X151754307Y-84537989D01*
X151755360Y-84559430D01*
X151755360Y-85071930D01*
X151754307Y-85093371D01*
X151751157Y-85114606D01*
X151745941Y-85135430D01*
X151738709Y-85155642D01*
X151729530Y-85175048D01*
X151718494Y-85193461D01*
X151705706Y-85210704D01*
X151691290Y-85226610D01*
X151675384Y-85241026D01*
X151658141Y-85253814D01*
X151639728Y-85264850D01*
X151620322Y-85274029D01*
X151600110Y-85281261D01*
X151579286Y-85286477D01*
X151558051Y-85289627D01*
X151536610Y-85290680D01*
X151099110Y-85290680D01*
X151077669Y-85289627D01*
X151056434Y-85286477D01*
X151035610Y-85281261D01*
X151015398Y-85274029D01*
X150995992Y-85264850D01*
X150977579Y-85253814D01*
X150960336Y-85241026D01*
X150944430Y-85226610D01*
X150930014Y-85210704D01*
X150917226Y-85193461D01*
X150906190Y-85175048D01*
X150897011Y-85155642D01*
X150889779Y-85135430D01*
X150884563Y-85114606D01*
X150881413Y-85093371D01*
X150880360Y-85071930D01*
X150880360Y-84559430D01*
X150881413Y-84537989D01*
X150884563Y-84516754D01*
X150889779Y-84495930D01*
X150897011Y-84475718D01*
X150906190Y-84456312D01*
X150917226Y-84437899D01*
X150930014Y-84420656D01*
X150944430Y-84404750D01*
X150960336Y-84390334D01*
X150977579Y-84377546D01*
X150995992Y-84366510D01*
X151015398Y-84357331D01*
X151035610Y-84350099D01*
X151056434Y-84344883D01*
X151077669Y-84341733D01*
X151099110Y-84340680D01*
X151536610Y-84340680D01*
X151558051Y-84341733D01*
X151558051Y-84341733D01*
G37*
D20*
G04 #@! TD*
G04 #@! TO.P,R3,1*
G04 #@! TO.N,Net-(R3-Pad1)*
X151317860Y-84815680D03*
D19*
G04 #@! TO.N,Net-(C12-Pad1)*
G04 #@! TO.C,R4*
G36*
X142565951Y-79723313D02*
X142587186Y-79726463D01*
X142608010Y-79731679D01*
X142628222Y-79738911D01*
X142647628Y-79748090D01*
X142666041Y-79759126D01*
X142683284Y-79771914D01*
X142699190Y-79786330D01*
X142713606Y-79802236D01*
X142726394Y-79819479D01*
X142737430Y-79837892D01*
X142746609Y-79857298D01*
X142753841Y-79877510D01*
X142759057Y-79898334D01*
X142762207Y-79919569D01*
X142763260Y-79941010D01*
X142763260Y-80378510D01*
X142762207Y-80399951D01*
X142759057Y-80421186D01*
X142753841Y-80442010D01*
X142746609Y-80462222D01*
X142737430Y-80481628D01*
X142726394Y-80500041D01*
X142713606Y-80517284D01*
X142699190Y-80533190D01*
X142683284Y-80547606D01*
X142666041Y-80560394D01*
X142647628Y-80571430D01*
X142628222Y-80580609D01*
X142608010Y-80587841D01*
X142587186Y-80593057D01*
X142565951Y-80596207D01*
X142544510Y-80597260D01*
X142032010Y-80597260D01*
X142010569Y-80596207D01*
X141989334Y-80593057D01*
X141968510Y-80587841D01*
X141948298Y-80580609D01*
X141928892Y-80571430D01*
X141910479Y-80560394D01*
X141893236Y-80547606D01*
X141877330Y-80533190D01*
X141862914Y-80517284D01*
X141850126Y-80500041D01*
X141839090Y-80481628D01*
X141829911Y-80462222D01*
X141822679Y-80442010D01*
X141817463Y-80421186D01*
X141814313Y-80399951D01*
X141813260Y-80378510D01*
X141813260Y-79941010D01*
X141814313Y-79919569D01*
X141817463Y-79898334D01*
X141822679Y-79877510D01*
X141829911Y-79857298D01*
X141839090Y-79837892D01*
X141850126Y-79819479D01*
X141862914Y-79802236D01*
X141877330Y-79786330D01*
X141893236Y-79771914D01*
X141910479Y-79759126D01*
X141928892Y-79748090D01*
X141948298Y-79738911D01*
X141968510Y-79731679D01*
X141989334Y-79726463D01*
X142010569Y-79723313D01*
X142032010Y-79722260D01*
X142544510Y-79722260D01*
X142565951Y-79723313D01*
X142565951Y-79723313D01*
G37*
D20*
G04 #@! TD*
G04 #@! TO.P,R4,2*
G04 #@! TO.N,Net-(C12-Pad1)*
X142288260Y-80159760D03*
D19*
G04 #@! TO.N,+1V8*
G04 #@! TO.C,R4*
G36*
X142565951Y-81298313D02*
X142587186Y-81301463D01*
X142608010Y-81306679D01*
X142628222Y-81313911D01*
X142647628Y-81323090D01*
X142666041Y-81334126D01*
X142683284Y-81346914D01*
X142699190Y-81361330D01*
X142713606Y-81377236D01*
X142726394Y-81394479D01*
X142737430Y-81412892D01*
X142746609Y-81432298D01*
X142753841Y-81452510D01*
X142759057Y-81473334D01*
X142762207Y-81494569D01*
X142763260Y-81516010D01*
X142763260Y-81953510D01*
X142762207Y-81974951D01*
X142759057Y-81996186D01*
X142753841Y-82017010D01*
X142746609Y-82037222D01*
X142737430Y-82056628D01*
X142726394Y-82075041D01*
X142713606Y-82092284D01*
X142699190Y-82108190D01*
X142683284Y-82122606D01*
X142666041Y-82135394D01*
X142647628Y-82146430D01*
X142628222Y-82155609D01*
X142608010Y-82162841D01*
X142587186Y-82168057D01*
X142565951Y-82171207D01*
X142544510Y-82172260D01*
X142032010Y-82172260D01*
X142010569Y-82171207D01*
X141989334Y-82168057D01*
X141968510Y-82162841D01*
X141948298Y-82155609D01*
X141928892Y-82146430D01*
X141910479Y-82135394D01*
X141893236Y-82122606D01*
X141877330Y-82108190D01*
X141862914Y-82092284D01*
X141850126Y-82075041D01*
X141839090Y-82056628D01*
X141829911Y-82037222D01*
X141822679Y-82017010D01*
X141817463Y-81996186D01*
X141814313Y-81974951D01*
X141813260Y-81953510D01*
X141813260Y-81516010D01*
X141814313Y-81494569D01*
X141817463Y-81473334D01*
X141822679Y-81452510D01*
X141829911Y-81432298D01*
X141839090Y-81412892D01*
X141850126Y-81394479D01*
X141862914Y-81377236D01*
X141877330Y-81361330D01*
X141893236Y-81346914D01*
X141910479Y-81334126D01*
X141928892Y-81323090D01*
X141948298Y-81313911D01*
X141968510Y-81306679D01*
X141989334Y-81301463D01*
X142010569Y-81298313D01*
X142032010Y-81297260D01*
X142544510Y-81297260D01*
X142565951Y-81298313D01*
X142565951Y-81298313D01*
G37*
D20*
G04 #@! TD*
G04 #@! TO.P,R4,1*
G04 #@! TO.N,+1V8*
X142288260Y-81734760D03*
D18*
G04 #@! TO.N,GND*
X146304000Y-87884000D03*
X147828000Y-75692000D03*
X161036000Y-81280000D03*
X139212320Y-82524598D03*
X156616400Y-75819000D03*
G04 #@! TO.N,+3V3*
X149504400Y-73286620D03*
X165573931Y-89905260D03*
D23*
X129811780Y-87508080D03*
D18*
X157581598Y-75412600D03*
X129794000Y-75996800D03*
G04 #@! TO.N,+1V8*
X142748000Y-84328000D03*
X152400000Y-86360000D03*
G04 #@! TO.N,RX*
X153670002Y-71983600D03*
G04 #@! TO.N,TX*
X152755600Y-72745600D03*
G04 #@! TO.N,GPIO4*
X131013200Y-89263220D03*
X150342600Y-71882000D03*
G04 #@! TO.N,UFO.RST*
X160995360Y-78767940D03*
G04 #@! TO.N,JTAG_TRST*
X160944558Y-82486500D03*
G04 #@! TO.N,JTAG_TDI*
X150740002Y-93970000D03*
G04 #@! TO.N,JTAG_TDO*
X149565360Y-96296480D03*
G04 #@! TO.N,JTAG_TMS*
X150830000Y-96180000D03*
G04 #@! TO.N,VCC_CLEAN*
X157756860Y-79992220D03*
X146484342Y-79443580D03*
X149529800Y-75234800D03*
X155295600Y-75920600D03*
G04 #@! TO.N,LED1*
X164137340Y-90782140D03*
X152171402Y-74829379D03*
G04 #@! TO.N,LED2*
X151030000Y-73910000D03*
X162321240Y-91887040D03*
G04 #@! TO.N,FLASH_IO0*
X140639800Y-76230480D03*
X145750014Y-77750000D03*
G04 #@! TO.N,LED3*
X152000000Y-73300000D03*
G04 #@! TD*
D24*
G04 #@! TO.N,GND*
X164758400Y-74650600D02*
X163169600Y-73061800D01*
X169938701Y-74650600D02*
X164758400Y-74650600D01*
X146842480Y-85666580D02*
X146842480Y-87345520D01*
X146842480Y-87345520D02*
X146304000Y-87884000D01*
X146419600Y-74231500D02*
X146419600Y-74283600D01*
X146419600Y-74283600D02*
X147828000Y-75692000D01*
X162421560Y-81554280D02*
X161310280Y-81554280D01*
X161310280Y-81554280D02*
X161036000Y-81280000D01*
X138201378Y-83535540D02*
X138812321Y-82924597D01*
X138812321Y-82924597D02*
X139212320Y-82524598D01*
X137431780Y-83535540D02*
X138201378Y-83535540D01*
X156616400Y-76391800D02*
X156616400Y-76384685D01*
X155907740Y-77100460D02*
X156616400Y-76391800D01*
X156616400Y-76384685D02*
X156616400Y-75819000D01*
G04 #@! TO.N,+3V3*
X148433600Y-81657600D02*
X148433600Y-82057600D01*
X146924620Y-83916580D02*
X146842480Y-83916580D01*
X148433600Y-82407600D02*
X146924620Y-83916580D01*
X148433600Y-82057600D02*
X148433600Y-82407600D01*
X155500600Y-79257600D02*
X155907740Y-78850460D01*
X154283600Y-79257600D02*
X155500600Y-79257600D01*
X164842766Y-95703965D02*
X164842766Y-91402158D01*
X164842766Y-91402158D02*
X165573931Y-90670993D01*
X169189401Y-100050600D02*
X164842766Y-95703965D01*
X165573931Y-90470945D02*
X165573931Y-89905260D01*
X169938701Y-100050600D02*
X169189401Y-100050600D01*
X165573931Y-90670993D02*
X165573931Y-90470945D01*
X130631978Y-88328278D02*
X129811780Y-87508080D01*
X146842480Y-83916580D02*
X142430782Y-88328278D01*
X142430782Y-88328278D02*
X130631978Y-88328278D01*
X133305600Y-75919360D02*
X133621780Y-76235540D01*
X131036060Y-75919360D02*
X133305600Y-75919360D01*
X133621780Y-75135540D02*
X135470700Y-73286620D01*
X148938715Y-73286620D02*
X149504400Y-73286620D01*
X135470700Y-73286620D02*
X148938715Y-73286620D01*
X133621780Y-76235540D02*
X133621780Y-75135540D01*
X149114480Y-73286620D02*
X148169600Y-74231500D01*
X149504400Y-73286620D02*
X149114480Y-73286620D01*
X157581598Y-75978285D02*
X157581598Y-75412600D01*
X155907740Y-78850460D02*
X157581598Y-77176602D01*
X157581598Y-77176602D02*
X157581598Y-75978285D01*
X148169600Y-74968600D02*
X149558600Y-76357600D01*
X149558600Y-76357600D02*
X149558600Y-76932600D01*
X148169600Y-74231500D02*
X148169600Y-74968600D01*
X131036060Y-75919360D02*
X129871440Y-75919360D01*
X129871440Y-75919360D02*
X129794000Y-75996800D01*
G04 #@! TO.N,+1V8*
X153158600Y-83357600D02*
X153158600Y-82782600D01*
X154611600Y-84810600D02*
X153158600Y-83357600D01*
X151558600Y-83357600D02*
X151558600Y-82782600D01*
X153011600Y-84810600D02*
X151558600Y-83357600D01*
X154611600Y-84810600D02*
X153011600Y-84810600D01*
X160527880Y-84810600D02*
X160632140Y-84810600D01*
X159721560Y-84004280D02*
X160527880Y-84810600D01*
X159721560Y-83454280D02*
X159721560Y-84004280D01*
X169938701Y-84810600D02*
X164259260Y-84810600D01*
X164259260Y-84810600D02*
X160632140Y-84810600D01*
X163390580Y-80617060D02*
X164259260Y-81485740D01*
X164259260Y-81485740D02*
X164259260Y-84810600D01*
X160078300Y-80617060D02*
X163390580Y-80617060D01*
X159724100Y-79712860D02*
X159724100Y-80262860D01*
X159724100Y-80262860D02*
X160078300Y-80617060D01*
X158000700Y-85058060D02*
X158003240Y-85055520D01*
X158000700Y-85683060D02*
X158000700Y-85058060D01*
X158003240Y-85055520D02*
X158003240Y-84810600D01*
X160632140Y-84810600D02*
X158003240Y-84810600D01*
X158003240Y-84810600D02*
X154611600Y-84810600D01*
X142288260Y-81822260D02*
X142288260Y-83868260D01*
X142288260Y-83868260D02*
X142748000Y-84328000D01*
X152400000Y-85396040D02*
X152980360Y-84815680D01*
X152400000Y-86360000D02*
X152400000Y-85396040D01*
X169189401Y-84810600D02*
X169938701Y-84810600D01*
X167500000Y-86500001D02*
X169189401Y-84810600D01*
X167500000Y-93281199D02*
X167500000Y-86500001D01*
X169938701Y-94970600D02*
X169189401Y-94970600D01*
X169189401Y-94970600D02*
X167500000Y-93281199D01*
G04 #@! TO.N,Net-(C6-Pad2)*
X163146800Y-71334600D02*
X163169600Y-71311800D01*
X161213800Y-71334600D02*
X163146800Y-71334600D01*
X163968400Y-72110600D02*
X169938701Y-72110600D01*
X163169600Y-71311800D02*
X163968400Y-72110600D01*
G04 #@! TO.N,Net-(C7-Pad1)*
X153908600Y-82782600D02*
X153558600Y-82782600D01*
X158946560Y-81554280D02*
X157718240Y-82782600D01*
X159721560Y-81554280D02*
X158946560Y-81554280D01*
X156458920Y-82940080D02*
X156301440Y-82782600D01*
X156458920Y-83940680D02*
X156458920Y-82940080D01*
X157718240Y-82782600D02*
X156301440Y-82782600D01*
X156301440Y-82782600D02*
X153908600Y-82782600D01*
X156466540Y-83933060D02*
X156458920Y-83940680D01*
X158000700Y-83933060D02*
X156466540Y-83933060D01*
X158694120Y-81301840D02*
X158946560Y-81554280D01*
X159724100Y-77812860D02*
X159724100Y-78197700D01*
X158694120Y-79227680D02*
X158694120Y-81301840D01*
X159724100Y-78197700D02*
X158694120Y-79227680D01*
G04 #@! TO.N,Net-(C12-Pad1)*
X143797020Y-80064640D02*
X145303240Y-80064640D01*
X143789400Y-80072260D02*
X143797020Y-80064640D01*
X142288260Y-80072260D02*
X143789400Y-80072260D01*
X145802312Y-80563712D02*
X146489108Y-80563712D01*
X146489108Y-80563712D02*
X146995220Y-80057600D01*
X146995220Y-80057600D02*
X147858600Y-80057600D01*
X147858600Y-80057600D02*
X148433600Y-80057600D01*
X145303240Y-80064640D02*
X145802312Y-80563712D01*
G04 #@! TO.N,PLL_AVSS*
X145802312Y-81315568D02*
X145303240Y-81814640D01*
X146517352Y-81315568D02*
X145802312Y-81315568D01*
X148433600Y-80457600D02*
X147375320Y-80457600D01*
X147375320Y-80457600D02*
X146517352Y-81315568D01*
X145303240Y-81814640D02*
X143797020Y-81814640D01*
G04 #@! TO.N,CLKIN*
X122428001Y-72110600D02*
X121678701Y-72110600D01*
X147858600Y-80857600D02*
X140938880Y-87777320D01*
X148433600Y-80857600D02*
X147858600Y-80857600D01*
X140938880Y-87777320D02*
X131754880Y-87777320D01*
X131754880Y-87777320D02*
X126359920Y-82382360D01*
X126359920Y-82382360D02*
X126359920Y-76042519D01*
X126359920Y-76042519D02*
X122428001Y-72110600D01*
G04 #@! TO.N,RX*
X153158600Y-76932600D02*
X153158600Y-76178000D01*
X153158600Y-76178000D02*
X153670000Y-75666600D01*
X153670002Y-72549285D02*
X153670000Y-72549287D01*
X153670000Y-72549287D02*
X153670000Y-75666600D01*
X153670002Y-71983600D02*
X153670002Y-72549285D01*
G04 #@! TO.N,TX*
X152758600Y-76932600D02*
X152758600Y-72748600D01*
X152758600Y-72748600D02*
X152755600Y-72745600D01*
G04 #@! TO.N,GPIO4*
X130613201Y-89663219D02*
X131013200Y-89263220D01*
X130385820Y-89890600D02*
X130613201Y-89663219D01*
X121678701Y-89890600D02*
X130385820Y-89890600D01*
X150358600Y-72043800D02*
X150358600Y-76932600D01*
X150342600Y-71882000D02*
X150358600Y-72043800D01*
G04 #@! TO.N,UFO.RST*
X162419020Y-78767940D02*
X162424100Y-78762860D01*
X160995360Y-78767940D02*
X162419020Y-78767940D01*
G04 #@! TO.N,JTAG_TRST*
X162421560Y-82504280D02*
X160962338Y-82504280D01*
X160962338Y-82504280D02*
X160944558Y-82486500D01*
G04 #@! TO.N,JTAG_TDI*
X150358600Y-82782600D02*
X150358600Y-93588598D01*
X150440003Y-93670001D02*
X150740002Y-93970000D01*
X150358600Y-93588598D02*
X150440003Y-93670001D01*
G04 #@! TO.N,JTAG_TDO*
X149558600Y-82782600D02*
X149558600Y-96289720D01*
X149558600Y-96289720D02*
X149565360Y-96296480D01*
G04 #@! TO.N,JTAG_TMS*
X149958600Y-82782600D02*
X149958600Y-95308600D01*
X149958600Y-95308600D02*
X150530001Y-95880001D01*
X150530001Y-95880001D02*
X150830000Y-96180000D01*
G04 #@! TO.N,JTAG_TCK*
X134378701Y-118622000D02*
X134378701Y-120370600D01*
X134378701Y-109461299D02*
X134378701Y-118622000D01*
X149158600Y-82782600D02*
X149158600Y-94681400D01*
X149158600Y-94681400D02*
X134378701Y-109461299D01*
G04 #@! TO.N,VCC_CLEAN*
X169924701Y-69584600D02*
X169938701Y-69570600D01*
X161213800Y-69584600D02*
X169924701Y-69584600D01*
X154283600Y-80057600D02*
X157691480Y-80057600D01*
X157691480Y-80057600D02*
X157756860Y-79992220D01*
X148433600Y-79657600D02*
X146698362Y-79657600D01*
X146698362Y-79657600D02*
X146484342Y-79443580D01*
X160963580Y-69584600D02*
X161213800Y-69584600D01*
X156944060Y-73604120D02*
X160963580Y-69584600D01*
X157756860Y-79426535D02*
X158379001Y-78804394D01*
X158379001Y-78804394D02*
X158379001Y-75039061D01*
X157756860Y-79992220D02*
X157756860Y-79426535D01*
X158379001Y-75039061D02*
X156944060Y-73604120D01*
X149958600Y-76932600D02*
X149958600Y-75663600D01*
X149958600Y-75663600D02*
X149829799Y-75534799D01*
X149829799Y-75534799D02*
X149529800Y-75234800D01*
X155338780Y-75209400D02*
X156944060Y-73604120D01*
X155295600Y-75920600D02*
X155295600Y-75946000D01*
X155338780Y-75902820D02*
X155338780Y-75209400D01*
X155295600Y-75946000D02*
X155338780Y-75902820D01*
G04 #@! TO.N,LED1*
X169189401Y-110210600D02*
X163394441Y-104415640D01*
X163394441Y-104415640D02*
X163394441Y-91525039D01*
X169938701Y-110210600D02*
X169189401Y-110210600D01*
X163737341Y-91182139D02*
X164137340Y-90782140D01*
X163394441Y-91525039D02*
X163737341Y-91182139D01*
X151958600Y-76932600D02*
X151958600Y-75042181D01*
X151958600Y-75042181D02*
X152171402Y-74829379D01*
G04 #@! TO.N,LED2*
X151030000Y-73910000D02*
X150758600Y-74361600D01*
X150758600Y-74361600D02*
X150758600Y-76932600D01*
X162321240Y-105882439D02*
X162321240Y-91887040D01*
X169189401Y-112750600D02*
X162321240Y-105882439D01*
X169938701Y-112750600D02*
X169189401Y-112750600D01*
G04 #@! TO.N,Net-(R3-Pad1)*
X151158600Y-84743920D02*
X151158600Y-82782600D01*
X151230360Y-84815680D02*
X151158600Y-84743920D01*
G04 #@! TO.N,FLASH_S*
X135138090Y-85576850D02*
X133621780Y-84060540D01*
X138608630Y-85576850D02*
X135138090Y-85576850D01*
X148433600Y-79257600D02*
X147321980Y-79257600D01*
X147321980Y-79257600D02*
X146512280Y-78447900D01*
X146512280Y-78447900D02*
X142153640Y-78447900D01*
X142153640Y-78447900D02*
X140591540Y-80010000D01*
X133621780Y-84060540D02*
X133621780Y-83535540D01*
X140591540Y-80010000D02*
X140591540Y-83593940D01*
X140591540Y-83593940D02*
X138608630Y-85576850D01*
G04 #@! TO.N,FLASH_IO1*
X134891780Y-84060540D02*
X134891780Y-83535540D01*
X138082020Y-85206840D02*
X136038080Y-85206840D01*
X147796624Y-78457600D02*
X145599984Y-76260960D01*
X148433600Y-78457600D02*
X147796624Y-78457600D01*
X136038080Y-85206840D02*
X134891780Y-84060540D01*
X145599984Y-76260960D02*
X143598900Y-76260960D01*
X143598900Y-76260960D02*
X139989560Y-79870300D01*
X139989560Y-79870300D02*
X139989560Y-83299300D01*
X139989560Y-83299300D02*
X138082020Y-85206840D01*
G04 #@! TO.N,FLASH_IO2*
X147919898Y-78057600D02*
X148433600Y-78057600D01*
X145753247Y-75890949D02*
X147919898Y-78057600D01*
X143281371Y-75890949D02*
X145753247Y-75890949D01*
X136737526Y-81186348D02*
X136790049Y-81144463D01*
X136695640Y-81558091D02*
X136666492Y-81497565D01*
X137181623Y-82116689D02*
X137181623Y-82105493D01*
X136691161Y-82488161D02*
X136702077Y-82485669D01*
X136651544Y-81432071D02*
X136651545Y-81364891D01*
X138452120Y-81638789D02*
X138410235Y-81586266D01*
X137515019Y-80649038D02*
X137500071Y-80583544D01*
X136695641Y-81238871D02*
X136737526Y-81186348D01*
X137161790Y-81186349D02*
X137985971Y-82010531D01*
X136666492Y-81497565D02*
X136651544Y-81432071D01*
X138496216Y-81831988D02*
X138496216Y-81764809D01*
X138634541Y-80537782D02*
X138980578Y-80191742D01*
X137544168Y-80390344D02*
X137586053Y-80337821D01*
X138980578Y-80191742D02*
X143281371Y-75890949D01*
X137149617Y-82022703D02*
X136737526Y-81610612D01*
X138210277Y-80537782D02*
X138262800Y-80579666D01*
X137131937Y-82040379D02*
X137149617Y-82022703D01*
X136651545Y-81364891D02*
X136666493Y-81299397D01*
X138481267Y-81699315D02*
X138452120Y-81638789D01*
X137831774Y-80251841D02*
X137897269Y-80266789D01*
X136783983Y-82514330D02*
X136794899Y-82511838D01*
X137167293Y-82075735D02*
X137131937Y-82040379D01*
X137181623Y-82105493D02*
X137179132Y-82094577D01*
X137174274Y-82084489D02*
X137167293Y-82075735D01*
X136850574Y-81115317D02*
X136916069Y-81100367D01*
X136161780Y-83535540D02*
X136161780Y-83010540D01*
X137174274Y-82137692D02*
X137179132Y-82127605D01*
X136790049Y-81144463D02*
X136850574Y-81115317D01*
X136681073Y-82493019D02*
X136691161Y-82488161D01*
X136672320Y-82500000D02*
X136681073Y-82493019D01*
X136161780Y-83010540D02*
X136672320Y-82500000D01*
X136813740Y-82500000D02*
X137167293Y-82146446D01*
X138496216Y-81764809D02*
X138481267Y-81699315D01*
X138010317Y-80337822D02*
X138210277Y-80537782D01*
X137167293Y-82146446D02*
X137174274Y-82137692D01*
X136702077Y-82485669D02*
X136713273Y-82485669D01*
X138323326Y-80608814D02*
X138388820Y-80623762D01*
X136713273Y-82485669D02*
X136724189Y-82488161D01*
X136734276Y-82493019D02*
X136751783Y-82506980D01*
X136772787Y-82514330D02*
X136783983Y-82514330D01*
X137586053Y-80762085D02*
X137544167Y-80709564D01*
X137179132Y-82127605D02*
X137181623Y-82116689D01*
X136724189Y-82488161D02*
X136734276Y-82493019D01*
X138521492Y-80608815D02*
X138582018Y-80579667D01*
X138297186Y-82081564D02*
X138357712Y-82052416D01*
X136761871Y-82511838D02*
X136772787Y-82514330D01*
X136794899Y-82511838D02*
X136804986Y-82506980D01*
X137897269Y-80266789D02*
X137957794Y-80295937D01*
X136804986Y-82506980D02*
X136813740Y-82500000D01*
X137179132Y-82094577D02*
X137174274Y-82084489D01*
X138099019Y-82081564D02*
X138164513Y-82096512D01*
X136983247Y-81100368D02*
X137048742Y-81115316D01*
X137048742Y-81115316D02*
X137109267Y-81144464D01*
X137109267Y-81144464D02*
X137161790Y-81186349D01*
X137985971Y-82010531D02*
X138038493Y-82052416D01*
X138038493Y-82052416D02*
X138099019Y-82081564D01*
X138164513Y-82096512D02*
X138231692Y-82096512D01*
X138231692Y-82096512D02*
X138297186Y-82081564D01*
X137764596Y-80251840D02*
X137831774Y-80251841D01*
X138410235Y-82010531D02*
X138452120Y-81958008D01*
X138452120Y-81958008D02*
X138481267Y-81897482D01*
X138481267Y-81897482D02*
X138496216Y-81831988D01*
X138410235Y-81586266D02*
X137586053Y-80762085D01*
X137957794Y-80295937D02*
X138010317Y-80337822D01*
X136751783Y-82506980D02*
X136761871Y-82511838D01*
X137544167Y-80709564D02*
X137515019Y-80649038D01*
X137500071Y-80583544D02*
X137500072Y-80516364D01*
X137500072Y-80516364D02*
X137515020Y-80450870D01*
X136737526Y-81610612D02*
X136695640Y-81558091D01*
X137515020Y-80450870D02*
X137544168Y-80390344D01*
X136916069Y-81100367D02*
X136983247Y-81100368D01*
X137586053Y-80337821D02*
X137638576Y-80295936D01*
X137638576Y-80295936D02*
X137699101Y-80266790D01*
X138357712Y-82052416D02*
X138410235Y-82010531D01*
X137699101Y-80266790D02*
X137764596Y-80251840D01*
X136666493Y-81299397D02*
X136695641Y-81238871D01*
X138262800Y-80579666D02*
X138323326Y-80608814D01*
X138388820Y-80623762D02*
X138455998Y-80623763D01*
X138455998Y-80623763D02*
X138521492Y-80608815D01*
X138582018Y-80579667D02*
X138634541Y-80537782D01*
G04 #@! TO.N,FLASH_IO0*
X139752609Y-76235540D02*
X137431780Y-76235540D01*
X140639800Y-76230480D02*
X140634740Y-76235540D01*
X140634740Y-76235540D02*
X139752609Y-76235540D01*
X146174278Y-77750000D02*
X145750014Y-77750000D01*
X146337652Y-77750000D02*
X146174278Y-77750000D01*
X147445252Y-78857600D02*
X146337652Y-77750000D01*
X148433600Y-78857600D02*
X147445252Y-78857600D01*
G04 #@! TO.N,FLASH_SCK*
X145408846Y-74500000D02*
X147841446Y-76932600D01*
X140969834Y-74529709D02*
X141033243Y-74507521D01*
X140912953Y-74565450D02*
X140969834Y-74529709D01*
X140829709Y-74669834D02*
X140865450Y-74612953D01*
X140807521Y-74733243D02*
X140829709Y-74669834D01*
X140800000Y-74800000D02*
X140807521Y-74733243D01*
X140800000Y-75082885D02*
X140800000Y-74800000D01*
X140792478Y-75149641D02*
X140800000Y-75082885D01*
X140770290Y-75213050D02*
X140792478Y-75149641D01*
X140687046Y-75317434D02*
X140734549Y-75269931D01*
X140630165Y-75353175D02*
X140687046Y-75317434D01*
X140207521Y-75149641D02*
X140229709Y-75213050D01*
X138429709Y-73986950D02*
X138465450Y-73930069D01*
X139900000Y-73817115D02*
X139966756Y-73824637D01*
X139366756Y-75375363D02*
X139430165Y-75353175D01*
X138465450Y-73930069D02*
X138512953Y-73882566D01*
X140229709Y-75213050D02*
X140265450Y-75269931D01*
X140734549Y-75269931D02*
X140770290Y-75213050D01*
X138230165Y-75103175D02*
X138287046Y-75067434D01*
X140566756Y-75375363D02*
X140630165Y-75353175D01*
X138334549Y-75019931D02*
X138370290Y-74963050D01*
X137912953Y-75067434D02*
X137969834Y-75103175D01*
X138100000Y-75132885D02*
X138166756Y-75125363D01*
X138934549Y-73930069D02*
X138970290Y-73986950D01*
X138700000Y-73817115D02*
X138766756Y-73824637D01*
X140087046Y-73882566D02*
X140134549Y-73930069D01*
X137800000Y-74832885D02*
X137807521Y-74899641D01*
X138287046Y-75067434D02*
X138334549Y-75019931D01*
X136161780Y-75710540D02*
X137372320Y-74500000D01*
X138766756Y-73824637D02*
X138830165Y-73846825D01*
X137372320Y-74500000D02*
X137500000Y-74500000D01*
X139600000Y-74117115D02*
X139607521Y-74050359D01*
X137630165Y-74529709D02*
X137687046Y-74565450D01*
X138830165Y-73846825D02*
X138887046Y-73882566D01*
X140433243Y-75375363D02*
X140500000Y-75382885D01*
X139112953Y-75317434D02*
X139169834Y-75353175D01*
X139000000Y-75082885D02*
X139007521Y-75149641D01*
X138569834Y-73846825D02*
X138633243Y-73824637D01*
X138392478Y-74899641D02*
X138400000Y-74832885D01*
X147841446Y-76932600D02*
X149155950Y-76932600D01*
X137687046Y-74565450D02*
X137734549Y-74612953D01*
X138512953Y-73882566D02*
X138569834Y-73846825D01*
X138033243Y-75125363D02*
X138100000Y-75132885D01*
X137800000Y-74800000D02*
X137800000Y-74832885D01*
X136161780Y-76235540D02*
X136161780Y-75710540D01*
X139712953Y-73882566D02*
X139769834Y-73846825D01*
X140865450Y-74612953D02*
X140912953Y-74565450D01*
X138370290Y-74963050D02*
X138392478Y-74899641D01*
X137792478Y-74733243D02*
X137800000Y-74800000D01*
X137734549Y-74612953D02*
X137770290Y-74669834D01*
X140200000Y-75082885D02*
X140207521Y-75149641D01*
X139629709Y-73986950D02*
X139665450Y-73930069D01*
X137770290Y-74669834D02*
X137792478Y-74733243D01*
X139169834Y-75353175D02*
X139233243Y-75375363D01*
X139607521Y-74050359D02*
X139629709Y-73986950D01*
X137807521Y-74899641D02*
X137829709Y-74963050D01*
X137566756Y-74507521D02*
X137630165Y-74529709D01*
X139487046Y-75317434D02*
X139534549Y-75269931D01*
X140134549Y-73930069D02*
X140170290Y-73986950D01*
X138407521Y-74050359D02*
X138429709Y-73986950D01*
X137865450Y-75019931D02*
X137912953Y-75067434D01*
X137829709Y-74963050D02*
X137865450Y-75019931D01*
X138887046Y-73882566D02*
X138934549Y-73930069D01*
X141033243Y-74507521D02*
X141100000Y-74500000D01*
X140312953Y-75317434D02*
X140369834Y-75353175D01*
X138970290Y-73986950D02*
X138992478Y-74050359D01*
X139000000Y-74117115D02*
X139000000Y-75082885D01*
X139570290Y-75213050D02*
X139592478Y-75149641D01*
X140200000Y-74117115D02*
X140200000Y-75082885D01*
X137969834Y-75103175D02*
X138033243Y-75125363D01*
X139007521Y-75149641D02*
X139029709Y-75213050D01*
X138992478Y-74050359D02*
X139000000Y-74117115D01*
X139029709Y-75213050D02*
X139065450Y-75269931D01*
X141100000Y-74500000D02*
X145408846Y-74500000D01*
X140369834Y-75353175D02*
X140433243Y-75375363D01*
X139065450Y-75269931D02*
X139112953Y-75317434D01*
X138400000Y-74832885D02*
X138400000Y-74117115D01*
X139233243Y-75375363D02*
X139300000Y-75382885D01*
X140500000Y-75382885D02*
X140566756Y-75375363D01*
X138166756Y-75125363D02*
X138230165Y-75103175D01*
X139769834Y-73846825D02*
X139833243Y-73824637D01*
X139300000Y-75382885D02*
X139366756Y-75375363D01*
X139534549Y-75269931D02*
X139570290Y-75213050D01*
X140265450Y-75269931D02*
X140312953Y-75317434D01*
X139833243Y-73824637D02*
X139900000Y-73817115D01*
X139430165Y-75353175D02*
X139487046Y-75317434D01*
X139600000Y-75082885D02*
X139600000Y-74117115D01*
X139592478Y-75149641D02*
X139600000Y-75082885D01*
X139966756Y-73824637D02*
X140030165Y-73846825D01*
X139665450Y-73930069D02*
X139712953Y-73882566D01*
X138633243Y-73824637D02*
X138700000Y-73817115D01*
X138400000Y-74117115D02*
X138407521Y-74050359D01*
X137500000Y-74500000D02*
X137566756Y-74507521D01*
X140030165Y-73846825D02*
X140087046Y-73882566D01*
X140170290Y-73986950D02*
X140192478Y-74050359D01*
X140192478Y-74050359D02*
X140200000Y-74117115D01*
G04 #@! TO.N,FLASH_IO3*
X138325572Y-77592149D02*
X138268691Y-77627890D01*
X138373075Y-77544646D02*
X138325572Y-77592149D01*
X138408816Y-77487765D02*
X138373075Y-77544646D01*
X138446047Y-76921372D02*
X138438526Y-76988129D01*
X138468235Y-76857963D02*
X138446047Y-76921372D01*
X138551479Y-76753579D02*
X138503976Y-76801082D01*
X138868691Y-76717838D02*
X138805282Y-76695650D01*
X138973075Y-76801082D02*
X138925572Y-76753579D01*
X139038526Y-76988129D02*
X139031004Y-76921372D01*
X139068235Y-78457237D02*
X139046047Y-78393828D01*
X139103976Y-78514118D02*
X139068235Y-78457237D01*
X139151479Y-78561621D02*
X139103976Y-78514118D01*
X139008816Y-76857963D02*
X138973075Y-76801082D01*
X139031004Y-76921372D02*
X139008816Y-76857963D01*
X139208360Y-78597362D02*
X139151479Y-78561621D01*
X139271769Y-78619550D02*
X139208360Y-78597362D01*
X139338526Y-78627071D02*
X139271769Y-78619550D01*
X140005282Y-76695650D02*
X139938526Y-76688129D01*
X140238526Y-76988129D02*
X140231004Y-76921372D01*
X140246047Y-77424356D02*
X140238526Y-77357600D01*
X140408360Y-77627890D02*
X140351479Y-77592149D01*
X139668235Y-76857963D02*
X139646047Y-76921372D01*
X140268235Y-77487765D02*
X140246047Y-77424356D01*
X140538526Y-77657600D02*
X140471769Y-77650078D01*
X134891780Y-76760540D02*
X134891780Y-76235540D01*
X138431004Y-77424356D02*
X138408816Y-77487765D01*
X138438526Y-77357600D02*
X138431004Y-77424356D01*
X138671769Y-76695650D02*
X138608360Y-76717838D01*
X139871769Y-76695650D02*
X139808360Y-76717838D01*
X138738526Y-76688129D02*
X138671769Y-76695650D01*
X145891123Y-75505551D02*
X142690575Y-75505551D01*
X138805282Y-76695650D02*
X138738526Y-76688129D01*
X148433600Y-77657600D02*
X148208600Y-77657600D01*
X140238526Y-77357600D02*
X140238526Y-76988129D01*
X139468691Y-78597362D02*
X139405282Y-78619550D01*
X140173075Y-76801082D02*
X140125572Y-76753579D01*
X138268691Y-77627890D02*
X138205282Y-77650078D01*
X139608816Y-78457237D02*
X139573075Y-78514118D01*
X138205282Y-77650078D02*
X138138526Y-77657600D01*
X147858600Y-77307600D02*
X147693172Y-77307600D01*
X140303976Y-77544646D02*
X140268235Y-77487765D01*
X139938526Y-76688129D02*
X139871769Y-76695650D01*
X140471769Y-77650078D02*
X140408360Y-77627890D01*
X147693172Y-77307600D02*
X145891123Y-75505551D01*
X138608360Y-76717838D02*
X138551479Y-76753579D01*
X142690575Y-75505551D02*
X140538526Y-77657600D01*
X140208816Y-76857963D02*
X140173075Y-76801082D01*
X138503976Y-76801082D02*
X138468235Y-76857963D01*
X139038526Y-78327071D02*
X139038526Y-76988129D01*
X140125572Y-76753579D02*
X140068691Y-76717838D01*
X138438526Y-76988129D02*
X138438526Y-77357600D01*
X140231004Y-76921372D02*
X140208816Y-76857963D01*
X139751479Y-76753579D02*
X139703976Y-76801082D01*
X140068691Y-76717838D02*
X140005282Y-76695650D01*
X138138526Y-77657600D02*
X135788840Y-77657600D01*
X139405282Y-78619550D02*
X139338526Y-78627071D01*
X139808360Y-76717838D02*
X139751479Y-76753579D01*
X139703976Y-76801082D02*
X139668235Y-76857963D01*
X139646047Y-76921372D02*
X139638526Y-76988129D01*
X139638526Y-76988129D02*
X139638526Y-78327071D01*
X139046047Y-78393828D02*
X139038526Y-78327071D01*
X139638526Y-78327071D02*
X139631004Y-78393828D01*
X139631004Y-78393828D02*
X139608816Y-78457237D01*
X138925572Y-76753579D02*
X138868691Y-76717838D01*
X148208600Y-77657600D02*
X147858600Y-77307600D01*
X139573075Y-78514118D02*
X139525572Y-78561621D01*
X135788840Y-77657600D02*
X134891780Y-76760540D01*
X140351479Y-77592149D02*
X140303976Y-77544646D01*
X139525572Y-78561621D02*
X139468691Y-78597362D01*
G04 #@! TO.N,LED3*
X151158600Y-74741400D02*
X151158600Y-76932600D01*
X152000000Y-73900000D02*
X151158600Y-74741400D01*
X152000000Y-73300000D02*
X152000000Y-73900000D01*
G04 #@! TD*
D25*
G04 #@! TO.N,GND*
G36*
X173315000Y-57932539D02*
X173315001Y-122932538D01*
X173315001Y-123315000D01*
X118685000Y-123315000D01*
X118685000Y-120497600D01*
X120294401Y-120497600D01*
X120294401Y-121246900D01*
X120448375Y-121766981D01*
X120789655Y-122188550D01*
X121266284Y-122447427D01*
X121337626Y-122461524D01*
X121551701Y-122338852D01*
X121551701Y-120497600D01*
X120294401Y-120497600D01*
X118685000Y-120497600D01*
X118685000Y-119494300D01*
X120294401Y-119494300D01*
X120294401Y-120243600D01*
X121551701Y-120243600D01*
X121551701Y-118402348D01*
X121337626Y-118279676D01*
X121266284Y-118293773D01*
X120789655Y-118552650D01*
X120448375Y-118974219D01*
X120294401Y-119494300D01*
X118685000Y-119494300D01*
X118685000Y-107670600D01*
X119517981Y-107670600D01*
X119625419Y-108210727D01*
X119931376Y-108668625D01*
X120338416Y-108940600D01*
X119931376Y-109212575D01*
X119625419Y-109670473D01*
X119517981Y-110210600D01*
X119625419Y-110750727D01*
X119931376Y-111208625D01*
X120338416Y-111480600D01*
X119931376Y-111752575D01*
X119625419Y-112210473D01*
X119517981Y-112750600D01*
X119625419Y-113290727D01*
X119931376Y-113748625D01*
X120338416Y-114020600D01*
X119931376Y-114292575D01*
X119625419Y-114750473D01*
X119517981Y-115290600D01*
X119625419Y-115830727D01*
X119931376Y-116288625D01*
X120389274Y-116594582D01*
X120793060Y-116674900D01*
X122564342Y-116674900D01*
X122968128Y-116594582D01*
X123426026Y-116288625D01*
X123731983Y-115830727D01*
X123839421Y-115290600D01*
X123731983Y-114750473D01*
X123426026Y-114292575D01*
X123018986Y-114020600D01*
X123426026Y-113748625D01*
X123731983Y-113290727D01*
X123839421Y-112750600D01*
X123731983Y-112210473D01*
X123426026Y-111752575D01*
X123018986Y-111480600D01*
X123426026Y-111208625D01*
X123731983Y-110750727D01*
X123839421Y-110210600D01*
X123731983Y-109670473D01*
X123426026Y-109212575D01*
X123018986Y-108940600D01*
X123426026Y-108668625D01*
X123731983Y-108210727D01*
X123839421Y-107670600D01*
X123731983Y-107130473D01*
X123426026Y-106672575D01*
X122995064Y-106384616D01*
X123075082Y-106360926D01*
X123496651Y-106019646D01*
X123755528Y-105543017D01*
X123769625Y-105471675D01*
X123646953Y-105257600D01*
X121805701Y-105257600D01*
X121805701Y-105277600D01*
X121551701Y-105277600D01*
X121551701Y-105257600D01*
X119710449Y-105257600D01*
X119587777Y-105471675D01*
X119601874Y-105543017D01*
X119860751Y-106019646D01*
X120282320Y-106360926D01*
X120362338Y-106384616D01*
X119931376Y-106672575D01*
X119625419Y-107130473D01*
X119517981Y-107670600D01*
X118685000Y-107670600D01*
X118685000Y-102931675D01*
X119587777Y-102931675D01*
X119601874Y-103003017D01*
X119860751Y-103479646D01*
X120282320Y-103820926D01*
X120416328Y-103860600D01*
X120282320Y-103900274D01*
X119860751Y-104241554D01*
X119601874Y-104718183D01*
X119587777Y-104789525D01*
X119710449Y-105003600D01*
X121551701Y-105003600D01*
X121551701Y-102717600D01*
X121805701Y-102717600D01*
X121805701Y-105003600D01*
X123646953Y-105003600D01*
X123769625Y-104789525D01*
X123755528Y-104718183D01*
X123496651Y-104241554D01*
X123075082Y-103900274D01*
X122941074Y-103860600D01*
X123075082Y-103820926D01*
X123496651Y-103479646D01*
X123755528Y-103003017D01*
X123769625Y-102931675D01*
X123646953Y-102717600D01*
X121805701Y-102717600D01*
X121551701Y-102717600D01*
X119710449Y-102717600D01*
X119587777Y-102931675D01*
X118685000Y-102931675D01*
X118685000Y-77190600D01*
X119517981Y-77190600D01*
X119625419Y-77730727D01*
X119931376Y-78188625D01*
X120362338Y-78476584D01*
X120282320Y-78500274D01*
X119860751Y-78841554D01*
X119601874Y-79318183D01*
X119587777Y-79389525D01*
X119710449Y-79603600D01*
X121551701Y-79603600D01*
X121551701Y-79583600D01*
X121805701Y-79583600D01*
X121805701Y-79603600D01*
X123646953Y-79603600D01*
X123769625Y-79389525D01*
X123755528Y-79318183D01*
X123496651Y-78841554D01*
X123075082Y-78500274D01*
X122995064Y-78476584D01*
X123426026Y-78188625D01*
X123731983Y-77730727D01*
X123839421Y-77190600D01*
X123731983Y-76650473D01*
X123426026Y-76192575D01*
X122995064Y-75904616D01*
X123075082Y-75880926D01*
X123496651Y-75539646D01*
X123755528Y-75063017D01*
X123769625Y-74991675D01*
X123646953Y-74777600D01*
X121805701Y-74777600D01*
X121805701Y-74797600D01*
X121551701Y-74797600D01*
X121551701Y-74777600D01*
X119710449Y-74777600D01*
X119587777Y-74991675D01*
X119601874Y-75063017D01*
X119860751Y-75539646D01*
X120282320Y-75880926D01*
X120362338Y-75904616D01*
X119931376Y-76192575D01*
X119625419Y-76650473D01*
X119517981Y-77190600D01*
X118685000Y-77190600D01*
X118685000Y-72110600D01*
X119517981Y-72110600D01*
X119625419Y-72650727D01*
X119931376Y-73108625D01*
X120362338Y-73396584D01*
X120282320Y-73420274D01*
X119860751Y-73761554D01*
X119601874Y-74238183D01*
X119587777Y-74309525D01*
X119710449Y-74523600D01*
X121551701Y-74523600D01*
X121551701Y-74503600D01*
X121805701Y-74503600D01*
X121805701Y-74523600D01*
X123646953Y-74523600D01*
X123690393Y-74447793D01*
X125599921Y-76357322D01*
X125599920Y-82307513D01*
X125585032Y-82382360D01*
X125599920Y-82457207D01*
X125599920Y-82457211D01*
X125644016Y-82678896D01*
X125811991Y-82930289D01*
X125875450Y-82972691D01*
X129443223Y-86540465D01*
X129225500Y-86630649D01*
X128934349Y-86921800D01*
X128776780Y-87302206D01*
X128776780Y-87713954D01*
X128934349Y-88094360D01*
X129225500Y-88385511D01*
X129605906Y-88543080D01*
X129771978Y-88543080D01*
X130041649Y-88812751D01*
X130084049Y-88876207D01*
X130144687Y-88916724D01*
X130078200Y-89077237D01*
X130078200Y-89123418D01*
X130071018Y-89130600D01*
X123585069Y-89130600D01*
X123426026Y-88892575D01*
X123018986Y-88620600D01*
X123426026Y-88348625D01*
X123731983Y-87890727D01*
X123839421Y-87350600D01*
X123731983Y-86810473D01*
X123426026Y-86352575D01*
X123018986Y-86080600D01*
X123426026Y-85808625D01*
X123731983Y-85350727D01*
X123839421Y-84810600D01*
X123731983Y-84270473D01*
X123426026Y-83812575D01*
X123018986Y-83540600D01*
X123426026Y-83268625D01*
X123731983Y-82810727D01*
X123839421Y-82270600D01*
X123731983Y-81730473D01*
X123426026Y-81272575D01*
X122995064Y-80984616D01*
X123075082Y-80960926D01*
X123496651Y-80619646D01*
X123755528Y-80143017D01*
X123769625Y-80071675D01*
X123646953Y-79857600D01*
X121805701Y-79857600D01*
X121805701Y-79877600D01*
X121551701Y-79877600D01*
X121551701Y-79857600D01*
X119710449Y-79857600D01*
X119587777Y-80071675D01*
X119601874Y-80143017D01*
X119860751Y-80619646D01*
X120282320Y-80960926D01*
X120362338Y-80984616D01*
X119931376Y-81272575D01*
X119625419Y-81730473D01*
X119517981Y-82270600D01*
X119625419Y-82810727D01*
X119931376Y-83268625D01*
X120338416Y-83540600D01*
X119931376Y-83812575D01*
X119625419Y-84270473D01*
X119517981Y-84810600D01*
X119625419Y-85350727D01*
X119931376Y-85808625D01*
X120338416Y-86080600D01*
X119931376Y-86352575D01*
X119625419Y-86810473D01*
X119517981Y-87350600D01*
X119625419Y-87890727D01*
X119931376Y-88348625D01*
X120338416Y-88620600D01*
X119931376Y-88892575D01*
X119625419Y-89350473D01*
X119517981Y-89890600D01*
X119625419Y-90430727D01*
X119931376Y-90888625D01*
X120338416Y-91160600D01*
X119931376Y-91432575D01*
X119625419Y-91890473D01*
X119517981Y-92430600D01*
X119625419Y-92970727D01*
X119931376Y-93428625D01*
X120338416Y-93700600D01*
X119931376Y-93972575D01*
X119625419Y-94430473D01*
X119517981Y-94970600D01*
X119625419Y-95510727D01*
X119931376Y-95968625D01*
X120338416Y-96240600D01*
X119931376Y-96512575D01*
X119625419Y-96970473D01*
X119517981Y-97510600D01*
X119625419Y-98050727D01*
X119931376Y-98508625D01*
X120338416Y-98780600D01*
X119931376Y-99052575D01*
X119625419Y-99510473D01*
X119517981Y-100050600D01*
X119625419Y-100590727D01*
X119931376Y-101048625D01*
X120362338Y-101336584D01*
X120282320Y-101360274D01*
X119860751Y-101701554D01*
X119601874Y-102178183D01*
X119587777Y-102249525D01*
X119710449Y-102463600D01*
X121551701Y-102463600D01*
X121551701Y-102443600D01*
X121805701Y-102443600D01*
X121805701Y-102463600D01*
X123646953Y-102463600D01*
X123769625Y-102249525D01*
X123755528Y-102178183D01*
X123496651Y-101701554D01*
X123075082Y-101360274D01*
X122995064Y-101336584D01*
X123426026Y-101048625D01*
X123731983Y-100590727D01*
X123839421Y-100050600D01*
X123731983Y-99510473D01*
X123426026Y-99052575D01*
X123018986Y-98780600D01*
X123426026Y-98508625D01*
X123731983Y-98050727D01*
X123839421Y-97510600D01*
X123731983Y-96970473D01*
X123426026Y-96512575D01*
X123018986Y-96240600D01*
X123426026Y-95968625D01*
X123731983Y-95510727D01*
X123839421Y-94970600D01*
X123731983Y-94430473D01*
X123426026Y-93972575D01*
X123018986Y-93700600D01*
X123426026Y-93428625D01*
X123731983Y-92970727D01*
X123839421Y-92430600D01*
X123731983Y-91890473D01*
X123426026Y-91432575D01*
X123018986Y-91160600D01*
X123426026Y-90888625D01*
X123585069Y-90650600D01*
X130310973Y-90650600D01*
X130385820Y-90665488D01*
X130460667Y-90650600D01*
X130460672Y-90650600D01*
X130682357Y-90606504D01*
X130933749Y-90438529D01*
X130976150Y-90375071D01*
X131153002Y-90198220D01*
X131199183Y-90198220D01*
X131542835Y-90055875D01*
X131805855Y-89792855D01*
X131948200Y-89449203D01*
X131948200Y-89088278D01*
X142355935Y-89088278D01*
X142430782Y-89103166D01*
X142505629Y-89088278D01*
X142505634Y-89088278D01*
X142727319Y-89044182D01*
X142978711Y-88876207D01*
X143021113Y-88812748D01*
X145732480Y-86101382D01*
X145732480Y-86142889D01*
X145829153Y-86376278D01*
X146007781Y-86554907D01*
X146241170Y-86651580D01*
X146556730Y-86651580D01*
X146715480Y-86492830D01*
X146715480Y-85706080D01*
X146969480Y-85706080D01*
X146969480Y-86492830D01*
X147128230Y-86651580D01*
X147443790Y-86651580D01*
X147677179Y-86554907D01*
X147855807Y-86376278D01*
X147952480Y-86142889D01*
X147952480Y-85864830D01*
X147793730Y-85706080D01*
X146969480Y-85706080D01*
X146715480Y-85706080D01*
X146695480Y-85706080D01*
X146695480Y-85452080D01*
X146715480Y-85452080D01*
X146715480Y-85432080D01*
X146969480Y-85432080D01*
X146969480Y-85452080D01*
X147793730Y-85452080D01*
X147952480Y-85293330D01*
X147952480Y-85015271D01*
X147855807Y-84781882D01*
X147790537Y-84716611D01*
X147898985Y-84554307D01*
X147964920Y-84222830D01*
X147964920Y-83951081D01*
X148398600Y-83517402D01*
X148398601Y-94366597D01*
X133894231Y-108870968D01*
X133830772Y-108913370D01*
X133662797Y-109164763D01*
X133618701Y-109386448D01*
X133618701Y-109386452D01*
X133603813Y-109461299D01*
X133618701Y-109536146D01*
X133618702Y-118464232D01*
X133380677Y-118623275D01*
X133108702Y-119030316D01*
X132836726Y-118623275D01*
X132378828Y-118317318D01*
X131838701Y-118209880D01*
X131298575Y-118317318D01*
X130840677Y-118623275D01*
X130568702Y-119030316D01*
X130296726Y-118623275D01*
X129838828Y-118317318D01*
X129298701Y-118209880D01*
X128758575Y-118317318D01*
X128300677Y-118623275D01*
X128028702Y-119030316D01*
X127756726Y-118623275D01*
X127298828Y-118317318D01*
X126758701Y-118209880D01*
X126218575Y-118317318D01*
X125760677Y-118623275D01*
X125488702Y-119030316D01*
X125216726Y-118623275D01*
X124758828Y-118317318D01*
X124218701Y-118209880D01*
X123678575Y-118317318D01*
X123220677Y-118623275D01*
X122932717Y-119054238D01*
X122909027Y-118974219D01*
X122567747Y-118552650D01*
X122091118Y-118293773D01*
X122019776Y-118279676D01*
X121805701Y-118402348D01*
X121805701Y-120243600D01*
X121825701Y-120243600D01*
X121825701Y-120497600D01*
X121805701Y-120497600D01*
X121805701Y-122338852D01*
X122019776Y-122461524D01*
X122091118Y-122447427D01*
X122567747Y-122188550D01*
X122909027Y-121766981D01*
X122932717Y-121686962D01*
X123220676Y-122117924D01*
X123678574Y-122423882D01*
X124218701Y-122531320D01*
X124758827Y-122423882D01*
X125216725Y-122117925D01*
X125488701Y-121710884D01*
X125760676Y-122117924D01*
X126218574Y-122423882D01*
X126758701Y-122531320D01*
X127298827Y-122423882D01*
X127756725Y-122117925D01*
X128028701Y-121710884D01*
X128300676Y-122117924D01*
X128758574Y-122423882D01*
X129298701Y-122531320D01*
X129838827Y-122423882D01*
X130296725Y-122117925D01*
X130568701Y-121710884D01*
X130840676Y-122117924D01*
X131298574Y-122423882D01*
X131838701Y-122531320D01*
X132378827Y-122423882D01*
X132836725Y-122117925D01*
X133108701Y-121710884D01*
X133380676Y-122117924D01*
X133838574Y-122423882D01*
X134378701Y-122531320D01*
X134918827Y-122423882D01*
X135376725Y-122117925D01*
X135648701Y-121710884D01*
X135920676Y-122117924D01*
X136378574Y-122423882D01*
X136918701Y-122531320D01*
X137458827Y-122423882D01*
X137916725Y-122117925D01*
X138188701Y-121710884D01*
X138460676Y-122117924D01*
X138918574Y-122423882D01*
X139458701Y-122531320D01*
X139998827Y-122423882D01*
X140456725Y-122117925D01*
X140744685Y-121686963D01*
X140768375Y-121766981D01*
X141109655Y-122188550D01*
X141586284Y-122447427D01*
X141657626Y-122461524D01*
X141871701Y-122338852D01*
X141871701Y-120497600D01*
X142125701Y-120497600D01*
X142125701Y-122338852D01*
X142339776Y-122461524D01*
X142411118Y-122447427D01*
X142887747Y-122188550D01*
X143229027Y-121766981D01*
X143268701Y-121632973D01*
X143308375Y-121766981D01*
X143649655Y-122188550D01*
X144126284Y-122447427D01*
X144197626Y-122461524D01*
X144411701Y-122338852D01*
X144411701Y-120497600D01*
X142125701Y-120497600D01*
X141871701Y-120497600D01*
X141851701Y-120497600D01*
X141851701Y-120243600D01*
X141871701Y-120243600D01*
X141871701Y-118402348D01*
X142125701Y-118402348D01*
X142125701Y-120243600D01*
X144411701Y-120243600D01*
X144411701Y-118402348D01*
X144665701Y-118402348D01*
X144665701Y-120243600D01*
X144685701Y-120243600D01*
X144685701Y-120497600D01*
X144665701Y-120497600D01*
X144665701Y-122338852D01*
X144879776Y-122461524D01*
X144951118Y-122447427D01*
X145427747Y-122188550D01*
X145769027Y-121766981D01*
X145792717Y-121686962D01*
X146080676Y-122117924D01*
X146538574Y-122423882D01*
X147078701Y-122531320D01*
X147618827Y-122423882D01*
X148076725Y-122117925D01*
X148348701Y-121710884D01*
X148620676Y-122117924D01*
X149078574Y-122423882D01*
X149618701Y-122531320D01*
X150158827Y-122423882D01*
X150616725Y-122117925D01*
X150888701Y-121710884D01*
X151160676Y-122117924D01*
X151618574Y-122423882D01*
X152158701Y-122531320D01*
X152698827Y-122423882D01*
X153156725Y-122117925D01*
X153428701Y-121710884D01*
X153700676Y-122117924D01*
X154158574Y-122423882D01*
X154698701Y-122531320D01*
X155238827Y-122423882D01*
X155696725Y-122117925D01*
X155968701Y-121710884D01*
X156240676Y-122117924D01*
X156698574Y-122423882D01*
X157238701Y-122531320D01*
X157778827Y-122423882D01*
X158236725Y-122117925D01*
X158508701Y-121710884D01*
X158780676Y-122117924D01*
X159238574Y-122423882D01*
X159778701Y-122531320D01*
X160318827Y-122423882D01*
X160776725Y-122117925D01*
X161048701Y-121710884D01*
X161320676Y-122117924D01*
X161778574Y-122423882D01*
X162318701Y-122531320D01*
X162858827Y-122423882D01*
X163316725Y-122117925D01*
X163588701Y-121710884D01*
X163860676Y-122117924D01*
X164318574Y-122423882D01*
X164858701Y-122531320D01*
X165398827Y-122423882D01*
X165856725Y-122117925D01*
X166128701Y-121710884D01*
X166400676Y-122117924D01*
X166858574Y-122423882D01*
X167398701Y-122531320D01*
X167938827Y-122423882D01*
X168396725Y-122117925D01*
X168668701Y-121710884D01*
X168940676Y-122117924D01*
X169398574Y-122423882D01*
X169938701Y-122531320D01*
X170478827Y-122423882D01*
X170936725Y-122117925D01*
X171242683Y-121660027D01*
X171323001Y-121256241D01*
X171323001Y-119484959D01*
X171242683Y-119081173D01*
X170936726Y-118623275D01*
X170478828Y-118317318D01*
X169938701Y-118209880D01*
X169398575Y-118317318D01*
X168940677Y-118623275D01*
X168668702Y-119030316D01*
X168396726Y-118623275D01*
X167938828Y-118317318D01*
X167398701Y-118209880D01*
X166858575Y-118317318D01*
X166400677Y-118623275D01*
X166128702Y-119030316D01*
X165856726Y-118623275D01*
X165398828Y-118317318D01*
X164858701Y-118209880D01*
X164318575Y-118317318D01*
X163860677Y-118623275D01*
X163588702Y-119030316D01*
X163316726Y-118623275D01*
X162858828Y-118317318D01*
X162318701Y-118209880D01*
X161778575Y-118317318D01*
X161320677Y-118623275D01*
X161048702Y-119030316D01*
X160776726Y-118623275D01*
X160318828Y-118317318D01*
X159778701Y-118209880D01*
X159238575Y-118317318D01*
X158780677Y-118623275D01*
X158508702Y-119030316D01*
X158236726Y-118623275D01*
X157778828Y-118317318D01*
X157238701Y-118209880D01*
X156698575Y-118317318D01*
X156240677Y-118623275D01*
X155968702Y-119030316D01*
X155696726Y-118623275D01*
X155238828Y-118317318D01*
X154698701Y-118209880D01*
X154158575Y-118317318D01*
X153700677Y-118623275D01*
X153428702Y-119030316D01*
X153156726Y-118623275D01*
X152698828Y-118317318D01*
X152158701Y-118209880D01*
X151618575Y-118317318D01*
X151160677Y-118623275D01*
X150888702Y-119030316D01*
X150616726Y-118623275D01*
X150158828Y-118317318D01*
X149618701Y-118209880D01*
X149078575Y-118317318D01*
X148620677Y-118623275D01*
X148348702Y-119030316D01*
X148076726Y-118623275D01*
X147618828Y-118317318D01*
X147078701Y-118209880D01*
X146538575Y-118317318D01*
X146080677Y-118623275D01*
X145792717Y-119054238D01*
X145769027Y-118974219D01*
X145427747Y-118552650D01*
X144951118Y-118293773D01*
X144879776Y-118279676D01*
X144665701Y-118402348D01*
X144411701Y-118402348D01*
X144197626Y-118279676D01*
X144126284Y-118293773D01*
X143649655Y-118552650D01*
X143308375Y-118974219D01*
X143268701Y-119108227D01*
X143229027Y-118974219D01*
X142887747Y-118552650D01*
X142411118Y-118293773D01*
X142339776Y-118279676D01*
X142125701Y-118402348D01*
X141871701Y-118402348D01*
X141657626Y-118279676D01*
X141586284Y-118293773D01*
X141109655Y-118552650D01*
X140768375Y-118974219D01*
X140744685Y-119054237D01*
X140456726Y-118623275D01*
X139998828Y-118317318D01*
X139458701Y-118209880D01*
X138918575Y-118317318D01*
X138460677Y-118623275D01*
X138188702Y-119030316D01*
X137916726Y-118623275D01*
X137458828Y-118317318D01*
X136918701Y-118209880D01*
X136378575Y-118317318D01*
X135920677Y-118623275D01*
X135648702Y-119030316D01*
X135376726Y-118623275D01*
X135138701Y-118464232D01*
X135138701Y-111992744D01*
X140728701Y-111992744D01*
X140728701Y-113508456D01*
X141308739Y-114908791D01*
X142380510Y-115980562D01*
X143780845Y-116560600D01*
X145296557Y-116560600D01*
X146696892Y-115980562D01*
X147768663Y-114908791D01*
X148348701Y-113508456D01*
X148348701Y-111992744D01*
X147768663Y-110592409D01*
X146696892Y-109520638D01*
X145296557Y-108940600D01*
X143780845Y-108940600D01*
X142380510Y-109520638D01*
X141308739Y-110592409D01*
X140728701Y-111992744D01*
X135138701Y-111992744D01*
X135138701Y-109776100D01*
X148630360Y-96284442D01*
X148630360Y-96482463D01*
X148772705Y-96826115D01*
X149035725Y-97089135D01*
X149379377Y-97231480D01*
X149751343Y-97231480D01*
X150094995Y-97089135D01*
X150255920Y-96928210D01*
X150300365Y-96972655D01*
X150644017Y-97115000D01*
X151015983Y-97115000D01*
X151359635Y-96972655D01*
X151622655Y-96709635D01*
X151765000Y-96365983D01*
X151765000Y-95994017D01*
X151622655Y-95650365D01*
X151359635Y-95387345D01*
X151015983Y-95245000D01*
X150969802Y-95245000D01*
X150718600Y-94993799D01*
X150718600Y-94905000D01*
X150925985Y-94905000D01*
X151269637Y-94762655D01*
X151532657Y-94499635D01*
X151675002Y-94155983D01*
X151675002Y-93784017D01*
X151532657Y-93440365D01*
X151269637Y-93177345D01*
X151118600Y-93114784D01*
X151118600Y-85938120D01*
X151536610Y-85938120D01*
X151565055Y-85932462D01*
X151465000Y-86174017D01*
X151465000Y-86545983D01*
X151607345Y-86889635D01*
X151870365Y-87152655D01*
X152214017Y-87295000D01*
X152585983Y-87295000D01*
X152929635Y-87152655D01*
X153192655Y-86889635D01*
X153244185Y-86765230D01*
X153349940Y-86765230D01*
X153349940Y-87043289D01*
X153446613Y-87276678D01*
X153625241Y-87455307D01*
X153858630Y-87551980D01*
X154174190Y-87551980D01*
X154332940Y-87393230D01*
X154332940Y-86606480D01*
X153508690Y-86606480D01*
X153349940Y-86765230D01*
X153244185Y-86765230D01*
X153335000Y-86545983D01*
X153335000Y-86174017D01*
X153227722Y-85915024D01*
X153361206Y-85888472D01*
X153349940Y-85915671D01*
X153349940Y-86193730D01*
X153508690Y-86352480D01*
X154332940Y-86352480D01*
X154332940Y-86332480D01*
X154586940Y-86332480D01*
X154586940Y-86352480D01*
X154606940Y-86352480D01*
X154606940Y-86606480D01*
X154586940Y-86606480D01*
X154586940Y-87393230D01*
X154745690Y-87551980D01*
X155061250Y-87551980D01*
X155294639Y-87455307D01*
X155473267Y-87276678D01*
X155569940Y-87043289D01*
X155569940Y-86765230D01*
X155552160Y-86747450D01*
X163184820Y-86747450D01*
X163184820Y-87025509D01*
X163281493Y-87258898D01*
X163460121Y-87437527D01*
X163693510Y-87534200D01*
X164009070Y-87534200D01*
X164167820Y-87375450D01*
X164167820Y-86588700D01*
X164421820Y-86588700D01*
X164421820Y-87375450D01*
X164580570Y-87534200D01*
X164896130Y-87534200D01*
X165129519Y-87437527D01*
X165308147Y-87258898D01*
X165404820Y-87025509D01*
X165404820Y-86747450D01*
X165246070Y-86588700D01*
X164421820Y-86588700D01*
X164167820Y-86588700D01*
X163343570Y-86588700D01*
X163184820Y-86747450D01*
X155552160Y-86747450D01*
X155411192Y-86606482D01*
X155569940Y-86606482D01*
X155569940Y-86524726D01*
X155624221Y-86579007D01*
X155857610Y-86675680D01*
X156173170Y-86675680D01*
X156331920Y-86516930D01*
X156331920Y-85730180D01*
X156311920Y-85730180D01*
X156311920Y-85570600D01*
X156605920Y-85570600D01*
X156605920Y-85730180D01*
X156585920Y-85730180D01*
X156585920Y-86516930D01*
X156744670Y-86675680D01*
X157060230Y-86675680D01*
X157293619Y-86579007D01*
X157320110Y-86552516D01*
X157412973Y-86614565D01*
X157744450Y-86680500D01*
X158256950Y-86680500D01*
X158588427Y-86614565D01*
X158869439Y-86426799D01*
X159057205Y-86145787D01*
X159123140Y-85814310D01*
X159123140Y-85570600D01*
X160453032Y-85570600D01*
X160527880Y-85585488D01*
X160602728Y-85570600D01*
X163327632Y-85570600D01*
X163346763Y-85599231D01*
X163281493Y-85664502D01*
X163184820Y-85897891D01*
X163184820Y-86175950D01*
X163343570Y-86334700D01*
X164167820Y-86334700D01*
X164167820Y-86314700D01*
X164421820Y-86314700D01*
X164421820Y-86334700D01*
X165246070Y-86334700D01*
X165404820Y-86175950D01*
X165404820Y-85897891D01*
X165308147Y-85664502D01*
X165242877Y-85599231D01*
X165262008Y-85570600D01*
X167354600Y-85570600D01*
X167015528Y-85909672D01*
X166952072Y-85952072D01*
X166909672Y-86015528D01*
X166909671Y-86015529D01*
X166784097Y-86203464D01*
X166725112Y-86500001D01*
X166740001Y-86574853D01*
X166740000Y-93206352D01*
X166725112Y-93281199D01*
X166740000Y-93356046D01*
X166740000Y-93356050D01*
X166784096Y-93577735D01*
X166952071Y-93829128D01*
X167015530Y-93871530D01*
X167833830Y-94689830D01*
X167777981Y-94970600D01*
X167885419Y-95510727D01*
X168191376Y-95968625D01*
X168598416Y-96240600D01*
X168191376Y-96512575D01*
X167885419Y-96970473D01*
X167777981Y-97510600D01*
X167791334Y-97577732D01*
X165602766Y-95389164D01*
X165602766Y-91716960D01*
X166058407Y-91261320D01*
X166121860Y-91218922D01*
X166164258Y-91155469D01*
X166164260Y-91155467D01*
X166283434Y-90977110D01*
X166289835Y-90967530D01*
X166333931Y-90745845D01*
X166333931Y-90745841D01*
X166348819Y-90670994D01*
X166333931Y-90596147D01*
X166333931Y-90467550D01*
X166366586Y-90434895D01*
X166508931Y-90091243D01*
X166508931Y-89719277D01*
X166366586Y-89375625D01*
X166103566Y-89112605D01*
X165759914Y-88970260D01*
X165387948Y-88970260D01*
X165044296Y-89112605D01*
X164781276Y-89375625D01*
X164638931Y-89719277D01*
X164638931Y-89977869D01*
X164323323Y-89847140D01*
X163951357Y-89847140D01*
X163607705Y-89989485D01*
X163344685Y-90252505D01*
X163202340Y-90596157D01*
X163202340Y-90642339D01*
X162909969Y-90934710D01*
X162846513Y-90977110D01*
X162804113Y-91040566D01*
X162804112Y-91040567D01*
X162786084Y-91067548D01*
X162507223Y-90952040D01*
X162135257Y-90952040D01*
X161791605Y-91094385D01*
X161528585Y-91357405D01*
X161386240Y-91701057D01*
X161386240Y-92073023D01*
X161528585Y-92416675D01*
X161561241Y-92449331D01*
X161561240Y-105807592D01*
X161546352Y-105882439D01*
X161561240Y-105957286D01*
X161561240Y-105957290D01*
X161605336Y-106178975D01*
X161773311Y-106430368D01*
X161836770Y-106472770D01*
X167833829Y-112469831D01*
X167777981Y-112750600D01*
X167885419Y-113290727D01*
X168191376Y-113748625D01*
X168598416Y-114020600D01*
X168191376Y-114292575D01*
X167885419Y-114750473D01*
X167777981Y-115290600D01*
X167885419Y-115830727D01*
X168191376Y-116288625D01*
X168649274Y-116594582D01*
X169053060Y-116674900D01*
X170824342Y-116674900D01*
X171228128Y-116594582D01*
X171686026Y-116288625D01*
X171991983Y-115830727D01*
X172099421Y-115290600D01*
X171991983Y-114750473D01*
X171686026Y-114292575D01*
X171278986Y-114020600D01*
X171686026Y-113748625D01*
X171991983Y-113290727D01*
X172099421Y-112750600D01*
X171991983Y-112210473D01*
X171686026Y-111752575D01*
X171278986Y-111480600D01*
X171686026Y-111208625D01*
X171991983Y-110750727D01*
X172099421Y-110210600D01*
X171991983Y-109670473D01*
X171686026Y-109212575D01*
X171255064Y-108924616D01*
X171335082Y-108900926D01*
X171756651Y-108559646D01*
X172015528Y-108083017D01*
X172029625Y-108011675D01*
X171906953Y-107797600D01*
X170065701Y-107797600D01*
X170065701Y-107817600D01*
X169811701Y-107817600D01*
X169811701Y-107797600D01*
X167970449Y-107797600D01*
X167927009Y-107873407D01*
X165525277Y-105471675D01*
X167847777Y-105471675D01*
X167861874Y-105543017D01*
X168120751Y-106019646D01*
X168542320Y-106360926D01*
X168676328Y-106400600D01*
X168542320Y-106440274D01*
X168120751Y-106781554D01*
X167861874Y-107258183D01*
X167847777Y-107329525D01*
X167970449Y-107543600D01*
X169811701Y-107543600D01*
X169811701Y-105257600D01*
X170065701Y-105257600D01*
X170065701Y-107543600D01*
X171906953Y-107543600D01*
X172029625Y-107329525D01*
X172015528Y-107258183D01*
X171756651Y-106781554D01*
X171335082Y-106440274D01*
X171201074Y-106400600D01*
X171335082Y-106360926D01*
X171756651Y-106019646D01*
X172015528Y-105543017D01*
X172029625Y-105471675D01*
X171906953Y-105257600D01*
X170065701Y-105257600D01*
X169811701Y-105257600D01*
X167970449Y-105257600D01*
X167847777Y-105471675D01*
X165525277Y-105471675D01*
X164154441Y-104100839D01*
X164154441Y-96041776D01*
X164294837Y-96251894D01*
X164358296Y-96294296D01*
X167833830Y-99769830D01*
X167777981Y-100050600D01*
X167885419Y-100590727D01*
X168191376Y-101048625D01*
X168598416Y-101320600D01*
X168191376Y-101592575D01*
X167885419Y-102050473D01*
X167777981Y-102590600D01*
X167885419Y-103130727D01*
X168191376Y-103588625D01*
X168622338Y-103876584D01*
X168542320Y-103900274D01*
X168120751Y-104241554D01*
X167861874Y-104718183D01*
X167847777Y-104789525D01*
X167970449Y-105003600D01*
X169811701Y-105003600D01*
X169811701Y-104983600D01*
X170065701Y-104983600D01*
X170065701Y-105003600D01*
X171906953Y-105003600D01*
X172029625Y-104789525D01*
X172015528Y-104718183D01*
X171756651Y-104241554D01*
X171335082Y-103900274D01*
X171255064Y-103876584D01*
X171686026Y-103588625D01*
X171991983Y-103130727D01*
X172099421Y-102590600D01*
X171991983Y-102050473D01*
X171686026Y-101592575D01*
X171278986Y-101320600D01*
X171686026Y-101048625D01*
X171991983Y-100590727D01*
X172099421Y-100050600D01*
X171991983Y-99510473D01*
X171686026Y-99052575D01*
X171278986Y-98780600D01*
X171686026Y-98508625D01*
X171991983Y-98050727D01*
X172099421Y-97510600D01*
X171991983Y-96970473D01*
X171686026Y-96512575D01*
X171278986Y-96240600D01*
X171686026Y-95968625D01*
X171991983Y-95510727D01*
X172099421Y-94970600D01*
X171991983Y-94430473D01*
X171686026Y-93972575D01*
X171278986Y-93700600D01*
X171686026Y-93428625D01*
X171991983Y-92970727D01*
X172099421Y-92430600D01*
X171991983Y-91890473D01*
X171686026Y-91432575D01*
X171255064Y-91144616D01*
X171335082Y-91120926D01*
X171756651Y-90779646D01*
X172015528Y-90303017D01*
X172029625Y-90231675D01*
X171906953Y-90017600D01*
X170065701Y-90017600D01*
X170065701Y-90037600D01*
X169811701Y-90037600D01*
X169811701Y-90017600D01*
X169791701Y-90017600D01*
X169791701Y-89763600D01*
X169811701Y-89763600D01*
X169811701Y-87477600D01*
X170065701Y-87477600D01*
X170065701Y-89763600D01*
X171906953Y-89763600D01*
X172029625Y-89549525D01*
X172015528Y-89478183D01*
X171756651Y-89001554D01*
X171335082Y-88660274D01*
X171201074Y-88620600D01*
X171335082Y-88580926D01*
X171756651Y-88239646D01*
X172015528Y-87763017D01*
X172029625Y-87691675D01*
X171906953Y-87477600D01*
X170065701Y-87477600D01*
X169811701Y-87477600D01*
X169791701Y-87477600D01*
X169791701Y-87223600D01*
X169811701Y-87223600D01*
X169811701Y-87203600D01*
X170065701Y-87203600D01*
X170065701Y-87223600D01*
X171906953Y-87223600D01*
X172029625Y-87009525D01*
X172015528Y-86938183D01*
X171756651Y-86461554D01*
X171335082Y-86120274D01*
X171255064Y-86096584D01*
X171686026Y-85808625D01*
X171991983Y-85350727D01*
X172099421Y-84810600D01*
X171991983Y-84270473D01*
X171686026Y-83812575D01*
X171255064Y-83524616D01*
X171335082Y-83500926D01*
X171756651Y-83159646D01*
X172015528Y-82683017D01*
X172029625Y-82611675D01*
X171906953Y-82397600D01*
X170065701Y-82397600D01*
X170065701Y-82417600D01*
X169811701Y-82417600D01*
X169811701Y-82397600D01*
X167970449Y-82397600D01*
X167847777Y-82611675D01*
X167861874Y-82683017D01*
X168120751Y-83159646D01*
X168542320Y-83500926D01*
X168622338Y-83524616D01*
X168191376Y-83812575D01*
X168032333Y-84050600D01*
X165156284Y-84050600D01*
X165019260Y-83959044D01*
X165019260Y-82500769D01*
X165027827Y-82499065D01*
X165190131Y-82390617D01*
X165255402Y-82455887D01*
X165488791Y-82552560D01*
X165766850Y-82552560D01*
X165925600Y-82393810D01*
X165925600Y-81569560D01*
X166179600Y-81569560D01*
X166179600Y-82393810D01*
X166338350Y-82552560D01*
X166616409Y-82552560D01*
X166849798Y-82455887D01*
X167028427Y-82277259D01*
X167125100Y-82043870D01*
X167125100Y-81728310D01*
X166966350Y-81569560D01*
X166179600Y-81569560D01*
X165925600Y-81569560D01*
X165905600Y-81569560D01*
X165905600Y-81315560D01*
X165925600Y-81315560D01*
X165925600Y-80491310D01*
X166179600Y-80491310D01*
X166179600Y-81315560D01*
X166966350Y-81315560D01*
X167125100Y-81156810D01*
X167125100Y-80841250D01*
X167028427Y-80607861D01*
X166849798Y-80429233D01*
X166616409Y-80332560D01*
X166338350Y-80332560D01*
X166179600Y-80491310D01*
X165925600Y-80491310D01*
X165766850Y-80332560D01*
X165488791Y-80332560D01*
X165255402Y-80429233D01*
X165190131Y-80494503D01*
X165027827Y-80386055D01*
X164696350Y-80320120D01*
X164258850Y-80320120D01*
X164183441Y-80335120D01*
X163980911Y-80132590D01*
X163938509Y-80069131D01*
X163687117Y-79901156D01*
X163596540Y-79883139D01*
X163596540Y-79412860D01*
X163561731Y-79237860D01*
X163596540Y-79062860D01*
X163596540Y-78462860D01*
X163562445Y-78291449D01*
X163584100Y-78239169D01*
X163584100Y-78098610D01*
X163425350Y-77939860D01*
X163309345Y-77939860D01*
X163196865Y-77864703D01*
X162949100Y-77815420D01*
X161899100Y-77815420D01*
X161651335Y-77864703D01*
X161538855Y-77939860D01*
X161439471Y-77939860D01*
X161181343Y-77832940D01*
X160896540Y-77832940D01*
X160896540Y-77512860D01*
X160871416Y-77386551D01*
X161264100Y-77386551D01*
X161264100Y-77527110D01*
X161422850Y-77685860D01*
X162297100Y-77685860D01*
X162297100Y-77036610D01*
X162551100Y-77036610D01*
X162551100Y-77685860D01*
X163425350Y-77685860D01*
X163584100Y-77527110D01*
X163584100Y-77386551D01*
X163502935Y-77190600D01*
X167777981Y-77190600D01*
X167885419Y-77730727D01*
X168191376Y-78188625D01*
X168598416Y-78460600D01*
X168191376Y-78732575D01*
X167885419Y-79190473D01*
X167777981Y-79730600D01*
X167885419Y-80270727D01*
X168191376Y-80728625D01*
X168622338Y-81016584D01*
X168542320Y-81040274D01*
X168120751Y-81381554D01*
X167861874Y-81858183D01*
X167847777Y-81929525D01*
X167970449Y-82143600D01*
X169811701Y-82143600D01*
X169811701Y-82123600D01*
X170065701Y-82123600D01*
X170065701Y-82143600D01*
X171906953Y-82143600D01*
X172029625Y-81929525D01*
X172015528Y-81858183D01*
X171756651Y-81381554D01*
X171335082Y-81040274D01*
X171255064Y-81016584D01*
X171686026Y-80728625D01*
X171991983Y-80270727D01*
X172099421Y-79730600D01*
X171991983Y-79190473D01*
X171686026Y-78732575D01*
X171278986Y-78460600D01*
X171686026Y-78188625D01*
X171991983Y-77730727D01*
X172099421Y-77190600D01*
X171991983Y-76650473D01*
X171686026Y-76192575D01*
X171255064Y-75904616D01*
X171335082Y-75880926D01*
X171756651Y-75539646D01*
X172015528Y-75063017D01*
X172029625Y-74991675D01*
X171906953Y-74777600D01*
X170065701Y-74777600D01*
X170065701Y-74797600D01*
X169811701Y-74797600D01*
X169811701Y-74777600D01*
X167970449Y-74777600D01*
X167847777Y-74991675D01*
X167861874Y-75063017D01*
X168120751Y-75539646D01*
X168542320Y-75880926D01*
X168622338Y-75904616D01*
X168191376Y-76192575D01*
X167885419Y-76650473D01*
X167777981Y-77190600D01*
X163502935Y-77190600D01*
X163487427Y-77153162D01*
X163308799Y-76974533D01*
X163075410Y-76877860D01*
X162709850Y-76877860D01*
X162551100Y-77036610D01*
X162297100Y-77036610D01*
X162138350Y-76877860D01*
X161772790Y-76877860D01*
X161539401Y-76974533D01*
X161360773Y-77153162D01*
X161264100Y-77386551D01*
X160871416Y-77386551D01*
X160847257Y-77265095D01*
X160706909Y-77055051D01*
X160496865Y-76914703D01*
X160249100Y-76865420D01*
X159199100Y-76865420D01*
X159139001Y-76877374D01*
X159139001Y-75113907D01*
X159153889Y-75039060D01*
X159139001Y-74964213D01*
X159139001Y-74964209D01*
X159094905Y-74742524D01*
X158926930Y-74491132D01*
X158863474Y-74448732D01*
X158018861Y-73604120D01*
X158362931Y-73260050D01*
X162059600Y-73260050D01*
X162059600Y-73538109D01*
X162156273Y-73771498D01*
X162334901Y-73950127D01*
X162568290Y-74046800D01*
X162883850Y-74046800D01*
X163042600Y-73888050D01*
X163042600Y-73101300D01*
X163296600Y-73101300D01*
X163296600Y-73888050D01*
X163455350Y-74046800D01*
X163770910Y-74046800D01*
X164004299Y-73950127D01*
X164182927Y-73771498D01*
X164279600Y-73538109D01*
X164279600Y-73260050D01*
X164120850Y-73101300D01*
X163296600Y-73101300D01*
X163042600Y-73101300D01*
X162218350Y-73101300D01*
X162059600Y-73260050D01*
X158362931Y-73260050D01*
X160102272Y-71520709D01*
X160157295Y-71797327D01*
X160345061Y-72078339D01*
X160626073Y-72266105D01*
X160957550Y-72332040D01*
X161470050Y-72332040D01*
X161801527Y-72266105D01*
X162058203Y-72094600D01*
X162210030Y-72094600D01*
X162221543Y-72111831D01*
X162156273Y-72177102D01*
X162059600Y-72410491D01*
X162059600Y-72688550D01*
X162218350Y-72847300D01*
X163042600Y-72847300D01*
X163042600Y-72827300D01*
X163296600Y-72827300D01*
X163296600Y-72847300D01*
X163776411Y-72847300D01*
X163893548Y-72870600D01*
X163893552Y-72870600D01*
X163968400Y-72885488D01*
X164043248Y-72870600D01*
X168032333Y-72870600D01*
X168191376Y-73108625D01*
X168622338Y-73396584D01*
X168542320Y-73420274D01*
X168120751Y-73761554D01*
X167861874Y-74238183D01*
X167847777Y-74309525D01*
X167970449Y-74523600D01*
X169811701Y-74523600D01*
X169811701Y-74503600D01*
X170065701Y-74503600D01*
X170065701Y-74523600D01*
X171906953Y-74523600D01*
X172029625Y-74309525D01*
X172015528Y-74238183D01*
X171756651Y-73761554D01*
X171335082Y-73420274D01*
X171255064Y-73396584D01*
X171686026Y-73108625D01*
X171991983Y-72650727D01*
X172099421Y-72110600D01*
X171991983Y-71570473D01*
X171686026Y-71112575D01*
X171278986Y-70840600D01*
X171686026Y-70568625D01*
X171991983Y-70110727D01*
X172099421Y-69570600D01*
X171991983Y-69030473D01*
X171686026Y-68572575D01*
X171255064Y-68284616D01*
X171335082Y-68260926D01*
X171756651Y-67919646D01*
X172015528Y-67443017D01*
X172029625Y-67371675D01*
X171906953Y-67157600D01*
X170065701Y-67157600D01*
X170065701Y-67177600D01*
X169811701Y-67177600D01*
X169811701Y-67157600D01*
X167970449Y-67157600D01*
X167847777Y-67371675D01*
X167861874Y-67443017D01*
X168120751Y-67919646D01*
X168542320Y-68260926D01*
X168622338Y-68284616D01*
X168191376Y-68572575D01*
X168022979Y-68824600D01*
X162058203Y-68824600D01*
X161801527Y-68653095D01*
X161470050Y-68587160D01*
X160957550Y-68587160D01*
X160626073Y-68653095D01*
X160345061Y-68840861D01*
X160157295Y-69121873D01*
X160109072Y-69364306D01*
X156459590Y-73013789D01*
X156459587Y-73013791D01*
X156396131Y-73056191D01*
X156353732Y-73119646D01*
X154854308Y-74619071D01*
X154790852Y-74661471D01*
X154748452Y-74724927D01*
X154748451Y-74724928D01*
X154643270Y-74882343D01*
X154622877Y-74912863D01*
X154578780Y-75134548D01*
X154578780Y-75134553D01*
X154563892Y-75209400D01*
X154578780Y-75284247D01*
X154578780Y-75315130D01*
X154502945Y-75390965D01*
X154430000Y-75567070D01*
X154430000Y-72624147D01*
X154430002Y-72624137D01*
X154430002Y-72624133D01*
X154444890Y-72549285D01*
X154441857Y-72534035D01*
X154462657Y-72513235D01*
X154605002Y-72169583D01*
X154605002Y-71797617D01*
X154462657Y-71453965D01*
X154199637Y-71190945D01*
X153855985Y-71048600D01*
X153484019Y-71048600D01*
X153140367Y-71190945D01*
X152877347Y-71453965D01*
X152735002Y-71797617D01*
X152735002Y-71810600D01*
X152569617Y-71810600D01*
X152225965Y-71952945D01*
X151962945Y-72215965D01*
X151901213Y-72365000D01*
X151814017Y-72365000D01*
X151470365Y-72507345D01*
X151207345Y-72770365D01*
X151122583Y-72975000D01*
X151118600Y-72975000D01*
X151118600Y-72428290D01*
X151135255Y-72411635D01*
X151277600Y-72067983D01*
X151277600Y-71696017D01*
X151135255Y-71352365D01*
X150872235Y-71089345D01*
X150528583Y-70947000D01*
X150156617Y-70947000D01*
X149812965Y-71089345D01*
X149549945Y-71352365D01*
X149407600Y-71696017D01*
X149407600Y-72067983D01*
X149525086Y-72351620D01*
X149318417Y-72351620D01*
X148974765Y-72493965D01*
X148942110Y-72526620D01*
X135545548Y-72526620D01*
X135470700Y-72511732D01*
X135395852Y-72526620D01*
X135395848Y-72526620D01*
X135229961Y-72559617D01*
X135174162Y-72570716D01*
X134997812Y-72688550D01*
X134922771Y-72738691D01*
X134880371Y-72802147D01*
X133137308Y-74545211D01*
X133073852Y-74587611D01*
X133031452Y-74651067D01*
X133031451Y-74651068D01*
X132938856Y-74789647D01*
X132905877Y-74839003D01*
X132895778Y-74889773D01*
X132838971Y-74927731D01*
X132698623Y-75137775D01*
X132694330Y-75159360D01*
X131880463Y-75159360D01*
X131623787Y-74987855D01*
X131292310Y-74921920D01*
X130779810Y-74921920D01*
X130448333Y-74987855D01*
X130200787Y-75153260D01*
X129979983Y-75061800D01*
X129608017Y-75061800D01*
X129264365Y-75204145D01*
X129001345Y-75467165D01*
X128859000Y-75810817D01*
X128859000Y-76182783D01*
X129001345Y-76526435D01*
X129264365Y-76789455D01*
X129608017Y-76931800D01*
X129961786Y-76931800D01*
X129926060Y-77018051D01*
X129926060Y-77296110D01*
X130084810Y-77454860D01*
X130909060Y-77454860D01*
X130909060Y-77434860D01*
X131163060Y-77434860D01*
X131163060Y-77454860D01*
X131987310Y-77454860D01*
X132146060Y-77296110D01*
X132146060Y-77018051D01*
X132049387Y-76784662D01*
X131984117Y-76719391D01*
X132010865Y-76679360D01*
X132649340Y-76679360D01*
X132649340Y-77085540D01*
X132698623Y-77333305D01*
X132838971Y-77543349D01*
X133049015Y-77683697D01*
X133296780Y-77732980D01*
X133946780Y-77732980D01*
X134194545Y-77683697D01*
X134256780Y-77642113D01*
X134319015Y-77683697D01*
X134566780Y-77732980D01*
X134789418Y-77732980D01*
X135198513Y-78142075D01*
X135240911Y-78205529D01*
X135304364Y-78247927D01*
X135304366Y-78247929D01*
X135413004Y-78320518D01*
X135492303Y-78373504D01*
X135713988Y-78417600D01*
X135713992Y-78417600D01*
X135788839Y-78432488D01*
X135863686Y-78417600D01*
X138106546Y-78417600D01*
X138149242Y-78421201D01*
X138151138Y-78420987D01*
X138161837Y-78423747D01*
X138205377Y-78417600D01*
X138213378Y-78417600D01*
X138232943Y-78413708D01*
X138279561Y-78407127D01*
X138282413Y-78421465D01*
X138292015Y-78489476D01*
X138299205Y-78553294D01*
X138302472Y-78563545D01*
X138303975Y-78574190D01*
X138304606Y-78575993D01*
X138304296Y-78587038D01*
X138338614Y-78676940D01*
X138367843Y-78768648D01*
X138374974Y-78777093D01*
X138375607Y-78778902D01*
X138381070Y-78788164D01*
X138384903Y-78798204D01*
X138385917Y-78799819D01*
X138388073Y-78810655D01*
X138441540Y-78890675D01*
X138490447Y-78973583D01*
X138499278Y-78980229D01*
X138500292Y-78981843D01*
X138507675Y-78989652D01*
X138513647Y-78998590D01*
X138514997Y-78999940D01*
X138519509Y-79010024D01*
X138589450Y-79076147D01*
X138655573Y-79146088D01*
X138665656Y-79150600D01*
X138667006Y-79151950D01*
X138675947Y-79157924D01*
X138683754Y-79165305D01*
X138685368Y-79166319D01*
X138692014Y-79175150D01*
X138774919Y-79224055D01*
X138833993Y-79263526D01*
X138496106Y-79601413D01*
X138496103Y-79601415D01*
X138411688Y-79685830D01*
X138373119Y-79655073D01*
X138363576Y-79650143D01*
X138354991Y-79643682D01*
X138353264Y-79642850D01*
X138345667Y-79634815D01*
X138257790Y-79595494D01*
X138172304Y-79551332D01*
X138161301Y-79550404D01*
X138159588Y-79549579D01*
X138149170Y-79546892D01*
X138139351Y-79542498D01*
X138137500Y-79542076D01*
X138128321Y-79535942D01*
X138033952Y-79517169D01*
X137940724Y-79493120D01*
X137929775Y-79494666D01*
X137927905Y-79494239D01*
X137917168Y-79493938D01*
X137906637Y-79491843D01*
X137904716Y-79491843D01*
X137894381Y-79487898D01*
X137798138Y-79490600D01*
X137701967Y-79487903D01*
X137691656Y-79491839D01*
X137689756Y-79491839D01*
X137679197Y-79493939D01*
X137668443Y-79494241D01*
X137666594Y-79494663D01*
X137655665Y-79493120D01*
X137562512Y-79517148D01*
X137468070Y-79535932D01*
X137458871Y-79542079D01*
X137456998Y-79542506D01*
X137447198Y-79546892D01*
X137436802Y-79549573D01*
X137435080Y-79550402D01*
X137424066Y-79551331D01*
X137338525Y-79595522D01*
X137250685Y-79634829D01*
X137243104Y-79642848D01*
X137241397Y-79643670D01*
X137232803Y-79650137D01*
X137223251Y-79655072D01*
X137221753Y-79656267D01*
X137211220Y-79659624D01*
X137137692Y-79721714D01*
X137060796Y-79779582D01*
X137055180Y-79789102D01*
X137053684Y-79790295D01*
X137046745Y-79798513D01*
X137038527Y-79805452D01*
X137037339Y-79806941D01*
X137027826Y-79812553D01*
X136969958Y-79889445D01*
X136907856Y-79962988D01*
X136904499Y-79973521D01*
X136903304Y-79975019D01*
X136898373Y-79984565D01*
X136891910Y-79993152D01*
X136891079Y-79994877D01*
X136883048Y-80002470D01*
X136843730Y-80090338D01*
X136799563Y-80175834D01*
X136798635Y-80186839D01*
X136797808Y-80188556D01*
X136795122Y-80198968D01*
X136790729Y-80208786D01*
X136790306Y-80210638D01*
X136784173Y-80219817D01*
X136765398Y-80314198D01*
X136754838Y-80355137D01*
X136713985Y-80365675D01*
X136619543Y-80384459D01*
X136610344Y-80390606D01*
X136608471Y-80391033D01*
X136598671Y-80395419D01*
X136588275Y-80398100D01*
X136586553Y-80398929D01*
X136575539Y-80399858D01*
X136489998Y-80444049D01*
X136402158Y-80483356D01*
X136394577Y-80491375D01*
X136392870Y-80492197D01*
X136384276Y-80498664D01*
X136374724Y-80503599D01*
X136373226Y-80504794D01*
X136362693Y-80508151D01*
X136289165Y-80570241D01*
X136212269Y-80628109D01*
X136206653Y-80637629D01*
X136205157Y-80638822D01*
X136198218Y-80647040D01*
X136190000Y-80653979D01*
X136188812Y-80655468D01*
X136179299Y-80661080D01*
X136121431Y-80737972D01*
X136059329Y-80811515D01*
X136055972Y-80822048D01*
X136054777Y-80823546D01*
X136049846Y-80833092D01*
X136043383Y-80841679D01*
X136042552Y-80843404D01*
X136034521Y-80850997D01*
X135995203Y-80938865D01*
X135951036Y-81024361D01*
X135950108Y-81035366D01*
X135949281Y-81037083D01*
X135946595Y-81047495D01*
X135942202Y-81057313D01*
X135941779Y-81059165D01*
X135935646Y-81068344D01*
X135916871Y-81162725D01*
X135892824Y-81255947D01*
X135894369Y-81266891D01*
X135893943Y-81268757D01*
X135893642Y-81279498D01*
X135891547Y-81290028D01*
X135891547Y-81291940D01*
X135887605Y-81302267D01*
X135890304Y-81398499D01*
X135887606Y-81494695D01*
X135891543Y-81505009D01*
X135891543Y-81506911D01*
X135893641Y-81517457D01*
X135893942Y-81528205D01*
X135894368Y-81530071D01*
X135892823Y-81541015D01*
X135916861Y-81634201D01*
X135935636Y-81728597D01*
X135941776Y-81737786D01*
X135942201Y-81739649D01*
X135946594Y-81749467D01*
X135949280Y-81759879D01*
X135950111Y-81761605D01*
X135951041Y-81772624D01*
X135995218Y-81858132D01*
X136034520Y-81945965D01*
X136042551Y-81953558D01*
X136043382Y-81955283D01*
X136049850Y-81963878D01*
X136054788Y-81973435D01*
X136083764Y-82009768D01*
X136078030Y-82019488D01*
X136059418Y-82038100D01*
X135836780Y-82038100D01*
X135589015Y-82087383D01*
X135526780Y-82128967D01*
X135464545Y-82087383D01*
X135216780Y-82038100D01*
X134566780Y-82038100D01*
X134319015Y-82087383D01*
X134256780Y-82128967D01*
X134194545Y-82087383D01*
X133946780Y-82038100D01*
X133296780Y-82038100D01*
X133049015Y-82087383D01*
X132838971Y-82227731D01*
X132698623Y-82437775D01*
X132649340Y-82685540D01*
X132649340Y-84385540D01*
X132698623Y-84633305D01*
X132838971Y-84843349D01*
X133049015Y-84983697D01*
X133296780Y-85032980D01*
X133519419Y-85032980D01*
X134547761Y-86061323D01*
X134590161Y-86124779D01*
X134841553Y-86292754D01*
X135063238Y-86336850D01*
X135063242Y-86336850D01*
X135138089Y-86351738D01*
X135212936Y-86336850D01*
X138533783Y-86336850D01*
X138608630Y-86351738D01*
X138683477Y-86336850D01*
X138683482Y-86336850D01*
X138905167Y-86292754D01*
X139156559Y-86124779D01*
X139198961Y-86061320D01*
X141076013Y-84184269D01*
X141139469Y-84141869D01*
X141307444Y-83890477D01*
X141351540Y-83668792D01*
X141351540Y-83668788D01*
X141366428Y-83593941D01*
X141351540Y-83519094D01*
X141351540Y-82464258D01*
X141419521Y-82565999D01*
X141528260Y-82638656D01*
X141528261Y-83793408D01*
X141513372Y-83868260D01*
X141572357Y-84164797D01*
X141690865Y-84342156D01*
X141740332Y-84416189D01*
X141803788Y-84458589D01*
X141813000Y-84467801D01*
X141813000Y-84513983D01*
X141955345Y-84857635D01*
X142218365Y-85120655D01*
X142432179Y-85209220D01*
X140624079Y-87017320D01*
X132069682Y-87017320D01*
X127119920Y-82067559D01*
X127119920Y-77867610D01*
X129926060Y-77867610D01*
X129926060Y-78145669D01*
X130022733Y-78379058D01*
X130201361Y-78557687D01*
X130434750Y-78654360D01*
X130750310Y-78654360D01*
X130909060Y-78495610D01*
X130909060Y-77708860D01*
X131163060Y-77708860D01*
X131163060Y-78495610D01*
X131321810Y-78654360D01*
X131637370Y-78654360D01*
X131870759Y-78557687D01*
X132049387Y-78379058D01*
X132146060Y-78145669D01*
X132146060Y-77867610D01*
X131987310Y-77708860D01*
X131163060Y-77708860D01*
X130909060Y-77708860D01*
X130084810Y-77708860D01*
X129926060Y-77867610D01*
X127119920Y-77867610D01*
X127119920Y-76117365D01*
X127134808Y-76042518D01*
X127119920Y-75967671D01*
X127119920Y-75967667D01*
X127075824Y-75745982D01*
X126907849Y-75494590D01*
X126844393Y-75452190D01*
X123783572Y-72391370D01*
X123839421Y-72110600D01*
X123731983Y-71570473D01*
X123426026Y-71112575D01*
X122995064Y-70824616D01*
X123075082Y-70800926D01*
X123496651Y-70459646D01*
X123724578Y-70040000D01*
X123985908Y-70040000D01*
X124101161Y-70619418D01*
X124429375Y-71110625D01*
X124920582Y-71438839D01*
X125353744Y-71525000D01*
X125646256Y-71525000D01*
X126079418Y-71438839D01*
X126570625Y-71110625D01*
X126770000Y-70812239D01*
X126969375Y-71110625D01*
X127460582Y-71438839D01*
X127893744Y-71525000D01*
X128186256Y-71525000D01*
X128619418Y-71438839D01*
X129110625Y-71110625D01*
X129438839Y-70619418D01*
X129554092Y-70040000D01*
X129438839Y-69460582D01*
X129110625Y-68969375D01*
X128812239Y-68770000D01*
X129110625Y-68570625D01*
X129438839Y-68079418D01*
X129554092Y-67500000D01*
X129438839Y-66920582D01*
X129284452Y-66689525D01*
X167847777Y-66689525D01*
X167970449Y-66903600D01*
X169811701Y-66903600D01*
X169811701Y-65646300D01*
X170065701Y-65646300D01*
X170065701Y-66903600D01*
X171906953Y-66903600D01*
X172029625Y-66689525D01*
X172015528Y-66618183D01*
X171756651Y-66141554D01*
X171335082Y-65800274D01*
X170815001Y-65646300D01*
X170065701Y-65646300D01*
X169811701Y-65646300D01*
X169062401Y-65646300D01*
X168542320Y-65800274D01*
X168120751Y-66141554D01*
X167861874Y-66618183D01*
X167847777Y-66689525D01*
X129284452Y-66689525D01*
X129110625Y-66429375D01*
X128619418Y-66101161D01*
X128186256Y-66015000D01*
X127893744Y-66015000D01*
X127460582Y-66101161D01*
X126969375Y-66429375D01*
X126957184Y-66447619D01*
X126948157Y-66402235D01*
X126807809Y-66192191D01*
X126597765Y-66051843D01*
X126350000Y-66002560D01*
X124650000Y-66002560D01*
X124402235Y-66051843D01*
X124192191Y-66192191D01*
X124051843Y-66402235D01*
X124002560Y-66650000D01*
X124002560Y-68350000D01*
X124051843Y-68597765D01*
X124192191Y-68807809D01*
X124402235Y-68948157D01*
X124447619Y-68957184D01*
X124429375Y-68969375D01*
X124101161Y-69460582D01*
X123985908Y-70040000D01*
X123724578Y-70040000D01*
X123755528Y-69983017D01*
X123769625Y-69911675D01*
X123646953Y-69697600D01*
X121805701Y-69697600D01*
X121805701Y-69717600D01*
X121551701Y-69717600D01*
X121551701Y-69697600D01*
X119710449Y-69697600D01*
X119587777Y-69911675D01*
X119601874Y-69983017D01*
X119860751Y-70459646D01*
X120282320Y-70800926D01*
X120362338Y-70824616D01*
X119931376Y-71112575D01*
X119625419Y-71570473D01*
X119517981Y-72110600D01*
X118685000Y-72110600D01*
X118685000Y-67030600D01*
X119517981Y-67030600D01*
X119625419Y-67570727D01*
X119931376Y-68028625D01*
X120362338Y-68316584D01*
X120282320Y-68340274D01*
X119860751Y-68681554D01*
X119601874Y-69158183D01*
X119587777Y-69229525D01*
X119710449Y-69443600D01*
X121551701Y-69443600D01*
X121551701Y-69423600D01*
X121805701Y-69423600D01*
X121805701Y-69443600D01*
X123646953Y-69443600D01*
X123769625Y-69229525D01*
X123755528Y-69158183D01*
X123496651Y-68681554D01*
X123075082Y-68340274D01*
X122995064Y-68316584D01*
X123426026Y-68028625D01*
X123731983Y-67570727D01*
X123839421Y-67030600D01*
X123731983Y-66490473D01*
X123426026Y-66032575D01*
X122968128Y-65726618D01*
X122564342Y-65646300D01*
X120793060Y-65646300D01*
X120389274Y-65726618D01*
X119931376Y-66032575D01*
X119625419Y-66490473D01*
X119517981Y-67030600D01*
X118685000Y-67030600D01*
X118685000Y-61192744D01*
X122948701Y-61192744D01*
X122948701Y-62708456D01*
X123528739Y-64108791D01*
X124600510Y-65180562D01*
X126000845Y-65760600D01*
X127516557Y-65760600D01*
X128916892Y-65180562D01*
X129988663Y-64108791D01*
X130568701Y-62708456D01*
X130568701Y-61192744D01*
X161048701Y-61192744D01*
X161048701Y-62708456D01*
X161628739Y-64108791D01*
X162700510Y-65180562D01*
X164100845Y-65760600D01*
X165616557Y-65760600D01*
X167016892Y-65180562D01*
X168088663Y-64108791D01*
X168668701Y-62708456D01*
X168668701Y-61192744D01*
X168088663Y-59792409D01*
X167016892Y-58720638D01*
X165616557Y-58140600D01*
X164100845Y-58140600D01*
X162700510Y-58720638D01*
X161628739Y-59792409D01*
X161048701Y-61192744D01*
X130568701Y-61192744D01*
X129988663Y-59792409D01*
X128916892Y-58720638D01*
X127516557Y-58140600D01*
X126000845Y-58140600D01*
X124600510Y-58720638D01*
X123528739Y-59792409D01*
X122948701Y-61192744D01*
X118685000Y-61192744D01*
X118685000Y-57685000D01*
X173315000Y-57685000D01*
X173315000Y-57932539D01*
X173315000Y-57932539D01*
G37*
X173315000Y-57932539D02*
X173315001Y-122932538D01*
X173315001Y-123315000D01*
X118685000Y-123315000D01*
X118685000Y-120497600D01*
X120294401Y-120497600D01*
X120294401Y-121246900D01*
X120448375Y-121766981D01*
X120789655Y-122188550D01*
X121266284Y-122447427D01*
X121337626Y-122461524D01*
X121551701Y-122338852D01*
X121551701Y-120497600D01*
X120294401Y-120497600D01*
X118685000Y-120497600D01*
X118685000Y-119494300D01*
X120294401Y-119494300D01*
X120294401Y-120243600D01*
X121551701Y-120243600D01*
X121551701Y-118402348D01*
X121337626Y-118279676D01*
X121266284Y-118293773D01*
X120789655Y-118552650D01*
X120448375Y-118974219D01*
X120294401Y-119494300D01*
X118685000Y-119494300D01*
X118685000Y-107670600D01*
X119517981Y-107670600D01*
X119625419Y-108210727D01*
X119931376Y-108668625D01*
X120338416Y-108940600D01*
X119931376Y-109212575D01*
X119625419Y-109670473D01*
X119517981Y-110210600D01*
X119625419Y-110750727D01*
X119931376Y-111208625D01*
X120338416Y-111480600D01*
X119931376Y-111752575D01*
X119625419Y-112210473D01*
X119517981Y-112750600D01*
X119625419Y-113290727D01*
X119931376Y-113748625D01*
X120338416Y-114020600D01*
X119931376Y-114292575D01*
X119625419Y-114750473D01*
X119517981Y-115290600D01*
X119625419Y-115830727D01*
X119931376Y-116288625D01*
X120389274Y-116594582D01*
X120793060Y-116674900D01*
X122564342Y-116674900D01*
X122968128Y-116594582D01*
X123426026Y-116288625D01*
X123731983Y-115830727D01*
X123839421Y-115290600D01*
X123731983Y-114750473D01*
X123426026Y-114292575D01*
X123018986Y-114020600D01*
X123426026Y-113748625D01*
X123731983Y-113290727D01*
X123839421Y-112750600D01*
X123731983Y-112210473D01*
X123426026Y-111752575D01*
X123018986Y-111480600D01*
X123426026Y-111208625D01*
X123731983Y-110750727D01*
X123839421Y-110210600D01*
X123731983Y-109670473D01*
X123426026Y-109212575D01*
X123018986Y-108940600D01*
X123426026Y-108668625D01*
X123731983Y-108210727D01*
X123839421Y-107670600D01*
X123731983Y-107130473D01*
X123426026Y-106672575D01*
X122995064Y-106384616D01*
X123075082Y-106360926D01*
X123496651Y-106019646D01*
X123755528Y-105543017D01*
X123769625Y-105471675D01*
X123646953Y-105257600D01*
X121805701Y-105257600D01*
X121805701Y-105277600D01*
X121551701Y-105277600D01*
X121551701Y-105257600D01*
X119710449Y-105257600D01*
X119587777Y-105471675D01*
X119601874Y-105543017D01*
X119860751Y-106019646D01*
X120282320Y-106360926D01*
X120362338Y-106384616D01*
X119931376Y-106672575D01*
X119625419Y-107130473D01*
X119517981Y-107670600D01*
X118685000Y-107670600D01*
X118685000Y-102931675D01*
X119587777Y-102931675D01*
X119601874Y-103003017D01*
X119860751Y-103479646D01*
X120282320Y-103820926D01*
X120416328Y-103860600D01*
X120282320Y-103900274D01*
X119860751Y-104241554D01*
X119601874Y-104718183D01*
X119587777Y-104789525D01*
X119710449Y-105003600D01*
X121551701Y-105003600D01*
X121551701Y-102717600D01*
X121805701Y-102717600D01*
X121805701Y-105003600D01*
X123646953Y-105003600D01*
X123769625Y-104789525D01*
X123755528Y-104718183D01*
X123496651Y-104241554D01*
X123075082Y-103900274D01*
X122941074Y-103860600D01*
X123075082Y-103820926D01*
X123496651Y-103479646D01*
X123755528Y-103003017D01*
X123769625Y-102931675D01*
X123646953Y-102717600D01*
X121805701Y-102717600D01*
X121551701Y-102717600D01*
X119710449Y-102717600D01*
X119587777Y-102931675D01*
X118685000Y-102931675D01*
X118685000Y-77190600D01*
X119517981Y-77190600D01*
X119625419Y-77730727D01*
X119931376Y-78188625D01*
X120362338Y-78476584D01*
X120282320Y-78500274D01*
X119860751Y-78841554D01*
X119601874Y-79318183D01*
X119587777Y-79389525D01*
X119710449Y-79603600D01*
X121551701Y-79603600D01*
X121551701Y-79583600D01*
X121805701Y-79583600D01*
X121805701Y-79603600D01*
X123646953Y-79603600D01*
X123769625Y-79389525D01*
X123755528Y-79318183D01*
X123496651Y-78841554D01*
X123075082Y-78500274D01*
X122995064Y-78476584D01*
X123426026Y-78188625D01*
X123731983Y-77730727D01*
X123839421Y-77190600D01*
X123731983Y-76650473D01*
X123426026Y-76192575D01*
X122995064Y-75904616D01*
X123075082Y-75880926D01*
X123496651Y-75539646D01*
X123755528Y-75063017D01*
X123769625Y-74991675D01*
X123646953Y-74777600D01*
X121805701Y-74777600D01*
X121805701Y-74797600D01*
X121551701Y-74797600D01*
X121551701Y-74777600D01*
X119710449Y-74777600D01*
X119587777Y-74991675D01*
X119601874Y-75063017D01*
X119860751Y-75539646D01*
X120282320Y-75880926D01*
X120362338Y-75904616D01*
X119931376Y-76192575D01*
X119625419Y-76650473D01*
X119517981Y-77190600D01*
X118685000Y-77190600D01*
X118685000Y-72110600D01*
X119517981Y-72110600D01*
X119625419Y-72650727D01*
X119931376Y-73108625D01*
X120362338Y-73396584D01*
X120282320Y-73420274D01*
X119860751Y-73761554D01*
X119601874Y-74238183D01*
X119587777Y-74309525D01*
X119710449Y-74523600D01*
X121551701Y-74523600D01*
X121551701Y-74503600D01*
X121805701Y-74503600D01*
X121805701Y-74523600D01*
X123646953Y-74523600D01*
X123690393Y-74447793D01*
X125599921Y-76357322D01*
X125599920Y-82307513D01*
X125585032Y-82382360D01*
X125599920Y-82457207D01*
X125599920Y-82457211D01*
X125644016Y-82678896D01*
X125811991Y-82930289D01*
X125875450Y-82972691D01*
X129443223Y-86540465D01*
X129225500Y-86630649D01*
X128934349Y-86921800D01*
X128776780Y-87302206D01*
X128776780Y-87713954D01*
X128934349Y-88094360D01*
X129225500Y-88385511D01*
X129605906Y-88543080D01*
X129771978Y-88543080D01*
X130041649Y-88812751D01*
X130084049Y-88876207D01*
X130144687Y-88916724D01*
X130078200Y-89077237D01*
X130078200Y-89123418D01*
X130071018Y-89130600D01*
X123585069Y-89130600D01*
X123426026Y-88892575D01*
X123018986Y-88620600D01*
X123426026Y-88348625D01*
X123731983Y-87890727D01*
X123839421Y-87350600D01*
X123731983Y-86810473D01*
X123426026Y-86352575D01*
X123018986Y-86080600D01*
X123426026Y-85808625D01*
X123731983Y-85350727D01*
X123839421Y-84810600D01*
X123731983Y-84270473D01*
X123426026Y-83812575D01*
X123018986Y-83540600D01*
X123426026Y-83268625D01*
X123731983Y-82810727D01*
X123839421Y-82270600D01*
X123731983Y-81730473D01*
X123426026Y-81272575D01*
X122995064Y-80984616D01*
X123075082Y-80960926D01*
X123496651Y-80619646D01*
X123755528Y-80143017D01*
X123769625Y-80071675D01*
X123646953Y-79857600D01*
X121805701Y-79857600D01*
X121805701Y-79877600D01*
X121551701Y-79877600D01*
X121551701Y-79857600D01*
X119710449Y-79857600D01*
X119587777Y-80071675D01*
X119601874Y-80143017D01*
X119860751Y-80619646D01*
X120282320Y-80960926D01*
X120362338Y-80984616D01*
X119931376Y-81272575D01*
X119625419Y-81730473D01*
X119517981Y-82270600D01*
X119625419Y-82810727D01*
X119931376Y-83268625D01*
X120338416Y-83540600D01*
X119931376Y-83812575D01*
X119625419Y-84270473D01*
X119517981Y-84810600D01*
X119625419Y-85350727D01*
X119931376Y-85808625D01*
X120338416Y-86080600D01*
X119931376Y-86352575D01*
X119625419Y-86810473D01*
X119517981Y-87350600D01*
X119625419Y-87890727D01*
X119931376Y-88348625D01*
X120338416Y-88620600D01*
X119931376Y-88892575D01*
X119625419Y-89350473D01*
X119517981Y-89890600D01*
X119625419Y-90430727D01*
X119931376Y-90888625D01*
X120338416Y-91160600D01*
X119931376Y-91432575D01*
X119625419Y-91890473D01*
X119517981Y-92430600D01*
X119625419Y-92970727D01*
X119931376Y-93428625D01*
X120338416Y-93700600D01*
X119931376Y-93972575D01*
X119625419Y-94430473D01*
X119517981Y-94970600D01*
X119625419Y-95510727D01*
X119931376Y-95968625D01*
X120338416Y-96240600D01*
X119931376Y-96512575D01*
X119625419Y-96970473D01*
X119517981Y-97510600D01*
X119625419Y-98050727D01*
X119931376Y-98508625D01*
X120338416Y-98780600D01*
X119931376Y-99052575D01*
X119625419Y-99510473D01*
X119517981Y-100050600D01*
X119625419Y-100590727D01*
X119931376Y-101048625D01*
X120362338Y-101336584D01*
X120282320Y-101360274D01*
X119860751Y-101701554D01*
X119601874Y-102178183D01*
X119587777Y-102249525D01*
X119710449Y-102463600D01*
X121551701Y-102463600D01*
X121551701Y-102443600D01*
X121805701Y-102443600D01*
X121805701Y-102463600D01*
X123646953Y-102463600D01*
X123769625Y-102249525D01*
X123755528Y-102178183D01*
X123496651Y-101701554D01*
X123075082Y-101360274D01*
X122995064Y-101336584D01*
X123426026Y-101048625D01*
X123731983Y-100590727D01*
X123839421Y-100050600D01*
X123731983Y-99510473D01*
X123426026Y-99052575D01*
X123018986Y-98780600D01*
X123426026Y-98508625D01*
X123731983Y-98050727D01*
X123839421Y-97510600D01*
X123731983Y-96970473D01*
X123426026Y-96512575D01*
X123018986Y-96240600D01*
X123426026Y-95968625D01*
X123731983Y-95510727D01*
X123839421Y-94970600D01*
X123731983Y-94430473D01*
X123426026Y-93972575D01*
X123018986Y-93700600D01*
X123426026Y-93428625D01*
X123731983Y-92970727D01*
X123839421Y-92430600D01*
X123731983Y-91890473D01*
X123426026Y-91432575D01*
X123018986Y-91160600D01*
X123426026Y-90888625D01*
X123585069Y-90650600D01*
X130310973Y-90650600D01*
X130385820Y-90665488D01*
X130460667Y-90650600D01*
X130460672Y-90650600D01*
X130682357Y-90606504D01*
X130933749Y-90438529D01*
X130976150Y-90375071D01*
X131153002Y-90198220D01*
X131199183Y-90198220D01*
X131542835Y-90055875D01*
X131805855Y-89792855D01*
X131948200Y-89449203D01*
X131948200Y-89088278D01*
X142355935Y-89088278D01*
X142430782Y-89103166D01*
X142505629Y-89088278D01*
X142505634Y-89088278D01*
X142727319Y-89044182D01*
X142978711Y-88876207D01*
X143021113Y-88812748D01*
X145732480Y-86101382D01*
X145732480Y-86142889D01*
X145829153Y-86376278D01*
X146007781Y-86554907D01*
X146241170Y-86651580D01*
X146556730Y-86651580D01*
X146715480Y-86492830D01*
X146715480Y-85706080D01*
X146969480Y-85706080D01*
X146969480Y-86492830D01*
X147128230Y-86651580D01*
X147443790Y-86651580D01*
X147677179Y-86554907D01*
X147855807Y-86376278D01*
X147952480Y-86142889D01*
X147952480Y-85864830D01*
X147793730Y-85706080D01*
X146969480Y-85706080D01*
X146715480Y-85706080D01*
X146695480Y-85706080D01*
X146695480Y-85452080D01*
X146715480Y-85452080D01*
X146715480Y-85432080D01*
X146969480Y-85432080D01*
X146969480Y-85452080D01*
X147793730Y-85452080D01*
X147952480Y-85293330D01*
X147952480Y-85015271D01*
X147855807Y-84781882D01*
X147790537Y-84716611D01*
X147898985Y-84554307D01*
X147964920Y-84222830D01*
X147964920Y-83951081D01*
X148398600Y-83517402D01*
X148398601Y-94366597D01*
X133894231Y-108870968D01*
X133830772Y-108913370D01*
X133662797Y-109164763D01*
X133618701Y-109386448D01*
X133618701Y-109386452D01*
X133603813Y-109461299D01*
X133618701Y-109536146D01*
X133618702Y-118464232D01*
X133380677Y-118623275D01*
X133108702Y-119030316D01*
X132836726Y-118623275D01*
X132378828Y-118317318D01*
X131838701Y-118209880D01*
X131298575Y-118317318D01*
X130840677Y-118623275D01*
X130568702Y-119030316D01*
X130296726Y-118623275D01*
X129838828Y-118317318D01*
X129298701Y-118209880D01*
X128758575Y-118317318D01*
X128300677Y-118623275D01*
X128028702Y-119030316D01*
X127756726Y-118623275D01*
X127298828Y-118317318D01*
X126758701Y-118209880D01*
X126218575Y-118317318D01*
X125760677Y-118623275D01*
X125488702Y-119030316D01*
X125216726Y-118623275D01*
X124758828Y-118317318D01*
X124218701Y-118209880D01*
X123678575Y-118317318D01*
X123220677Y-118623275D01*
X122932717Y-119054238D01*
X122909027Y-118974219D01*
X122567747Y-118552650D01*
X122091118Y-118293773D01*
X122019776Y-118279676D01*
X121805701Y-118402348D01*
X121805701Y-120243600D01*
X121825701Y-120243600D01*
X121825701Y-120497600D01*
X121805701Y-120497600D01*
X121805701Y-122338852D01*
X122019776Y-122461524D01*
X122091118Y-122447427D01*
X122567747Y-122188550D01*
X122909027Y-121766981D01*
X122932717Y-121686962D01*
X123220676Y-122117924D01*
X123678574Y-122423882D01*
X124218701Y-122531320D01*
X124758827Y-122423882D01*
X125216725Y-122117925D01*
X125488701Y-121710884D01*
X125760676Y-122117924D01*
X126218574Y-122423882D01*
X126758701Y-122531320D01*
X127298827Y-122423882D01*
X127756725Y-122117925D01*
X128028701Y-121710884D01*
X128300676Y-122117924D01*
X128758574Y-122423882D01*
X129298701Y-122531320D01*
X129838827Y-122423882D01*
X130296725Y-122117925D01*
X130568701Y-121710884D01*
X130840676Y-122117924D01*
X131298574Y-122423882D01*
X131838701Y-122531320D01*
X132378827Y-122423882D01*
X132836725Y-122117925D01*
X133108701Y-121710884D01*
X133380676Y-122117924D01*
X133838574Y-122423882D01*
X134378701Y-122531320D01*
X134918827Y-122423882D01*
X135376725Y-122117925D01*
X135648701Y-121710884D01*
X135920676Y-122117924D01*
X136378574Y-122423882D01*
X136918701Y-122531320D01*
X137458827Y-122423882D01*
X137916725Y-122117925D01*
X138188701Y-121710884D01*
X138460676Y-122117924D01*
X138918574Y-122423882D01*
X139458701Y-122531320D01*
X139998827Y-122423882D01*
X140456725Y-122117925D01*
X140744685Y-121686963D01*
X140768375Y-121766981D01*
X141109655Y-122188550D01*
X141586284Y-122447427D01*
X141657626Y-122461524D01*
X141871701Y-122338852D01*
X141871701Y-120497600D01*
X142125701Y-120497600D01*
X142125701Y-122338852D01*
X142339776Y-122461524D01*
X142411118Y-122447427D01*
X142887747Y-122188550D01*
X143229027Y-121766981D01*
X143268701Y-121632973D01*
X143308375Y-121766981D01*
X143649655Y-122188550D01*
X144126284Y-122447427D01*
X144197626Y-122461524D01*
X144411701Y-122338852D01*
X144411701Y-120497600D01*
X142125701Y-120497600D01*
X141871701Y-120497600D01*
X141851701Y-120497600D01*
X141851701Y-120243600D01*
X141871701Y-120243600D01*
X141871701Y-118402348D01*
X142125701Y-118402348D01*
X142125701Y-120243600D01*
X144411701Y-120243600D01*
X144411701Y-118402348D01*
X144665701Y-118402348D01*
X144665701Y-120243600D01*
X144685701Y-120243600D01*
X144685701Y-120497600D01*
X144665701Y-120497600D01*
X144665701Y-122338852D01*
X144879776Y-122461524D01*
X144951118Y-122447427D01*
X145427747Y-122188550D01*
X145769027Y-121766981D01*
X145792717Y-121686962D01*
X146080676Y-122117924D01*
X146538574Y-122423882D01*
X147078701Y-122531320D01*
X147618827Y-122423882D01*
X148076725Y-122117925D01*
X148348701Y-121710884D01*
X148620676Y-122117924D01*
X149078574Y-122423882D01*
X149618701Y-122531320D01*
X150158827Y-122423882D01*
X150616725Y-122117925D01*
X150888701Y-121710884D01*
X151160676Y-122117924D01*
X151618574Y-122423882D01*
X152158701Y-122531320D01*
X152698827Y-122423882D01*
X153156725Y-122117925D01*
X153428701Y-121710884D01*
X153700676Y-122117924D01*
X154158574Y-122423882D01*
X154698701Y-122531320D01*
X155238827Y-122423882D01*
X155696725Y-122117925D01*
X155968701Y-121710884D01*
X156240676Y-122117924D01*
X156698574Y-122423882D01*
X157238701Y-122531320D01*
X157778827Y-122423882D01*
X158236725Y-122117925D01*
X158508701Y-121710884D01*
X158780676Y-122117924D01*
X159238574Y-122423882D01*
X159778701Y-122531320D01*
X160318827Y-122423882D01*
X160776725Y-122117925D01*
X161048701Y-121710884D01*
X161320676Y-122117924D01*
X161778574Y-122423882D01*
X162318701Y-122531320D01*
X162858827Y-122423882D01*
X163316725Y-122117925D01*
X163588701Y-121710884D01*
X163860676Y-122117924D01*
X164318574Y-122423882D01*
X164858701Y-122531320D01*
X165398827Y-122423882D01*
X165856725Y-122117925D01*
X166128701Y-121710884D01*
X166400676Y-122117924D01*
X166858574Y-122423882D01*
X167398701Y-122531320D01*
X167938827Y-122423882D01*
X168396725Y-122117925D01*
X168668701Y-121710884D01*
X168940676Y-122117924D01*
X169398574Y-122423882D01*
X169938701Y-122531320D01*
X170478827Y-122423882D01*
X170936725Y-122117925D01*
X171242683Y-121660027D01*
X171323001Y-121256241D01*
X171323001Y-119484959D01*
X171242683Y-119081173D01*
X170936726Y-118623275D01*
X170478828Y-118317318D01*
X169938701Y-118209880D01*
X169398575Y-118317318D01*
X168940677Y-118623275D01*
X168668702Y-119030316D01*
X168396726Y-118623275D01*
X167938828Y-118317318D01*
X167398701Y-118209880D01*
X166858575Y-118317318D01*
X166400677Y-118623275D01*
X166128702Y-119030316D01*
X165856726Y-118623275D01*
X165398828Y-118317318D01*
X164858701Y-118209880D01*
X164318575Y-118317318D01*
X163860677Y-118623275D01*
X163588702Y-119030316D01*
X163316726Y-118623275D01*
X162858828Y-118317318D01*
X162318701Y-118209880D01*
X161778575Y-118317318D01*
X161320677Y-118623275D01*
X161048702Y-119030316D01*
X160776726Y-118623275D01*
X160318828Y-118317318D01*
X159778701Y-118209880D01*
X159238575Y-118317318D01*
X158780677Y-118623275D01*
X158508702Y-119030316D01*
X158236726Y-118623275D01*
X157778828Y-118317318D01*
X157238701Y-118209880D01*
X156698575Y-118317318D01*
X156240677Y-118623275D01*
X155968702Y-119030316D01*
X155696726Y-118623275D01*
X155238828Y-118317318D01*
X154698701Y-118209880D01*
X154158575Y-118317318D01*
X153700677Y-118623275D01*
X153428702Y-119030316D01*
X153156726Y-118623275D01*
X152698828Y-118317318D01*
X152158701Y-118209880D01*
X151618575Y-118317318D01*
X151160677Y-118623275D01*
X150888702Y-119030316D01*
X150616726Y-118623275D01*
X150158828Y-118317318D01*
X149618701Y-118209880D01*
X149078575Y-118317318D01*
X148620677Y-118623275D01*
X148348702Y-119030316D01*
X148076726Y-118623275D01*
X147618828Y-118317318D01*
X147078701Y-118209880D01*
X146538575Y-118317318D01*
X146080677Y-118623275D01*
X145792717Y-119054238D01*
X145769027Y-118974219D01*
X145427747Y-118552650D01*
X144951118Y-118293773D01*
X144879776Y-118279676D01*
X144665701Y-118402348D01*
X144411701Y-118402348D01*
X144197626Y-118279676D01*
X144126284Y-118293773D01*
X143649655Y-118552650D01*
X143308375Y-118974219D01*
X143268701Y-119108227D01*
X143229027Y-118974219D01*
X142887747Y-118552650D01*
X142411118Y-118293773D01*
X142339776Y-118279676D01*
X142125701Y-118402348D01*
X141871701Y-118402348D01*
X141657626Y-118279676D01*
X141586284Y-118293773D01*
X141109655Y-118552650D01*
X140768375Y-118974219D01*
X140744685Y-119054237D01*
X140456726Y-118623275D01*
X139998828Y-118317318D01*
X139458701Y-118209880D01*
X138918575Y-118317318D01*
X138460677Y-118623275D01*
X138188702Y-119030316D01*
X137916726Y-118623275D01*
X137458828Y-118317318D01*
X136918701Y-118209880D01*
X136378575Y-118317318D01*
X135920677Y-118623275D01*
X135648702Y-119030316D01*
X135376726Y-118623275D01*
X135138701Y-118464232D01*
X135138701Y-111992744D01*
X140728701Y-111992744D01*
X140728701Y-113508456D01*
X141308739Y-114908791D01*
X142380510Y-115980562D01*
X143780845Y-116560600D01*
X145296557Y-116560600D01*
X146696892Y-115980562D01*
X147768663Y-114908791D01*
X148348701Y-113508456D01*
X148348701Y-111992744D01*
X147768663Y-110592409D01*
X146696892Y-109520638D01*
X145296557Y-108940600D01*
X143780845Y-108940600D01*
X142380510Y-109520638D01*
X141308739Y-110592409D01*
X140728701Y-111992744D01*
X135138701Y-111992744D01*
X135138701Y-109776100D01*
X148630360Y-96284442D01*
X148630360Y-96482463D01*
X148772705Y-96826115D01*
X149035725Y-97089135D01*
X149379377Y-97231480D01*
X149751343Y-97231480D01*
X150094995Y-97089135D01*
X150255920Y-96928210D01*
X150300365Y-96972655D01*
X150644017Y-97115000D01*
X151015983Y-97115000D01*
X151359635Y-96972655D01*
X151622655Y-96709635D01*
X151765000Y-96365983D01*
X151765000Y-95994017D01*
X151622655Y-95650365D01*
X151359635Y-95387345D01*
X151015983Y-95245000D01*
X150969802Y-95245000D01*
X150718600Y-94993799D01*
X150718600Y-94905000D01*
X150925985Y-94905000D01*
X151269637Y-94762655D01*
X151532657Y-94499635D01*
X151675002Y-94155983D01*
X151675002Y-93784017D01*
X151532657Y-93440365D01*
X151269637Y-93177345D01*
X151118600Y-93114784D01*
X151118600Y-85938120D01*
X151536610Y-85938120D01*
X151565055Y-85932462D01*
X151465000Y-86174017D01*
X151465000Y-86545983D01*
X151607345Y-86889635D01*
X151870365Y-87152655D01*
X152214017Y-87295000D01*
X152585983Y-87295000D01*
X152929635Y-87152655D01*
X153192655Y-86889635D01*
X153244185Y-86765230D01*
X153349940Y-86765230D01*
X153349940Y-87043289D01*
X153446613Y-87276678D01*
X153625241Y-87455307D01*
X153858630Y-87551980D01*
X154174190Y-87551980D01*
X154332940Y-87393230D01*
X154332940Y-86606480D01*
X153508690Y-86606480D01*
X153349940Y-86765230D01*
X153244185Y-86765230D01*
X153335000Y-86545983D01*
X153335000Y-86174017D01*
X153227722Y-85915024D01*
X153361206Y-85888472D01*
X153349940Y-85915671D01*
X153349940Y-86193730D01*
X153508690Y-86352480D01*
X154332940Y-86352480D01*
X154332940Y-86332480D01*
X154586940Y-86332480D01*
X154586940Y-86352480D01*
X154606940Y-86352480D01*
X154606940Y-86606480D01*
X154586940Y-86606480D01*
X154586940Y-87393230D01*
X154745690Y-87551980D01*
X155061250Y-87551980D01*
X155294639Y-87455307D01*
X155473267Y-87276678D01*
X155569940Y-87043289D01*
X155569940Y-86765230D01*
X155552160Y-86747450D01*
X163184820Y-86747450D01*
X163184820Y-87025509D01*
X163281493Y-87258898D01*
X163460121Y-87437527D01*
X163693510Y-87534200D01*
X164009070Y-87534200D01*
X164167820Y-87375450D01*
X164167820Y-86588700D01*
X164421820Y-86588700D01*
X164421820Y-87375450D01*
X164580570Y-87534200D01*
X164896130Y-87534200D01*
X165129519Y-87437527D01*
X165308147Y-87258898D01*
X165404820Y-87025509D01*
X165404820Y-86747450D01*
X165246070Y-86588700D01*
X164421820Y-86588700D01*
X164167820Y-86588700D01*
X163343570Y-86588700D01*
X163184820Y-86747450D01*
X155552160Y-86747450D01*
X155411192Y-86606482D01*
X155569940Y-86606482D01*
X155569940Y-86524726D01*
X155624221Y-86579007D01*
X155857610Y-86675680D01*
X156173170Y-86675680D01*
X156331920Y-86516930D01*
X156331920Y-85730180D01*
X156311920Y-85730180D01*
X156311920Y-85570600D01*
X156605920Y-85570600D01*
X156605920Y-85730180D01*
X156585920Y-85730180D01*
X156585920Y-86516930D01*
X156744670Y-86675680D01*
X157060230Y-86675680D01*
X157293619Y-86579007D01*
X157320110Y-86552516D01*
X157412973Y-86614565D01*
X157744450Y-86680500D01*
X158256950Y-86680500D01*
X158588427Y-86614565D01*
X158869439Y-86426799D01*
X159057205Y-86145787D01*
X159123140Y-85814310D01*
X159123140Y-85570600D01*
X160453032Y-85570600D01*
X160527880Y-85585488D01*
X160602728Y-85570600D01*
X163327632Y-85570600D01*
X163346763Y-85599231D01*
X163281493Y-85664502D01*
X163184820Y-85897891D01*
X163184820Y-86175950D01*
X163343570Y-86334700D01*
X164167820Y-86334700D01*
X164167820Y-86314700D01*
X164421820Y-86314700D01*
X164421820Y-86334700D01*
X165246070Y-86334700D01*
X165404820Y-86175950D01*
X165404820Y-85897891D01*
X165308147Y-85664502D01*
X165242877Y-85599231D01*
X165262008Y-85570600D01*
X167354600Y-85570600D01*
X167015528Y-85909672D01*
X166952072Y-85952072D01*
X166909672Y-86015528D01*
X166909671Y-86015529D01*
X166784097Y-86203464D01*
X166725112Y-86500001D01*
X166740001Y-86574853D01*
X166740000Y-93206352D01*
X166725112Y-93281199D01*
X166740000Y-93356046D01*
X166740000Y-93356050D01*
X166784096Y-93577735D01*
X166952071Y-93829128D01*
X167015530Y-93871530D01*
X167833830Y-94689830D01*
X167777981Y-94970600D01*
X167885419Y-95510727D01*
X168191376Y-95968625D01*
X168598416Y-96240600D01*
X168191376Y-96512575D01*
X167885419Y-96970473D01*
X167777981Y-97510600D01*
X167791334Y-97577732D01*
X165602766Y-95389164D01*
X165602766Y-91716960D01*
X166058407Y-91261320D01*
X166121860Y-91218922D01*
X166164258Y-91155469D01*
X166164260Y-91155467D01*
X166283434Y-90977110D01*
X166289835Y-90967530D01*
X166333931Y-90745845D01*
X166333931Y-90745841D01*
X166348819Y-90670994D01*
X166333931Y-90596147D01*
X166333931Y-90467550D01*
X166366586Y-90434895D01*
X166508931Y-90091243D01*
X166508931Y-89719277D01*
X166366586Y-89375625D01*
X166103566Y-89112605D01*
X165759914Y-88970260D01*
X165387948Y-88970260D01*
X165044296Y-89112605D01*
X164781276Y-89375625D01*
X164638931Y-89719277D01*
X164638931Y-89977869D01*
X164323323Y-89847140D01*
X163951357Y-89847140D01*
X163607705Y-89989485D01*
X163344685Y-90252505D01*
X163202340Y-90596157D01*
X163202340Y-90642339D01*
X162909969Y-90934710D01*
X162846513Y-90977110D01*
X162804113Y-91040566D01*
X162804112Y-91040567D01*
X162786084Y-91067548D01*
X162507223Y-90952040D01*
X162135257Y-90952040D01*
X161791605Y-91094385D01*
X161528585Y-91357405D01*
X161386240Y-91701057D01*
X161386240Y-92073023D01*
X161528585Y-92416675D01*
X161561241Y-92449331D01*
X161561240Y-105807592D01*
X161546352Y-105882439D01*
X161561240Y-105957286D01*
X161561240Y-105957290D01*
X161605336Y-106178975D01*
X161773311Y-106430368D01*
X161836770Y-106472770D01*
X167833829Y-112469831D01*
X167777981Y-112750600D01*
X167885419Y-113290727D01*
X168191376Y-113748625D01*
X168598416Y-114020600D01*
X168191376Y-114292575D01*
X167885419Y-114750473D01*
X167777981Y-115290600D01*
X167885419Y-115830727D01*
X168191376Y-116288625D01*
X168649274Y-116594582D01*
X169053060Y-116674900D01*
X170824342Y-116674900D01*
X171228128Y-116594582D01*
X171686026Y-116288625D01*
X171991983Y-115830727D01*
X172099421Y-115290600D01*
X171991983Y-114750473D01*
X171686026Y-114292575D01*
X171278986Y-114020600D01*
X171686026Y-113748625D01*
X171991983Y-113290727D01*
X172099421Y-112750600D01*
X171991983Y-112210473D01*
X171686026Y-111752575D01*
X171278986Y-111480600D01*
X171686026Y-111208625D01*
X171991983Y-110750727D01*
X172099421Y-110210600D01*
X171991983Y-109670473D01*
X171686026Y-109212575D01*
X171255064Y-108924616D01*
X171335082Y-108900926D01*
X171756651Y-108559646D01*
X172015528Y-108083017D01*
X172029625Y-108011675D01*
X171906953Y-107797600D01*
X170065701Y-107797600D01*
X170065701Y-107817600D01*
X169811701Y-107817600D01*
X169811701Y-107797600D01*
X167970449Y-107797600D01*
X167927009Y-107873407D01*
X165525277Y-105471675D01*
X167847777Y-105471675D01*
X167861874Y-105543017D01*
X168120751Y-106019646D01*
X168542320Y-106360926D01*
X168676328Y-106400600D01*
X168542320Y-106440274D01*
X168120751Y-106781554D01*
X167861874Y-107258183D01*
X167847777Y-107329525D01*
X167970449Y-107543600D01*
X169811701Y-107543600D01*
X169811701Y-105257600D01*
X170065701Y-105257600D01*
X170065701Y-107543600D01*
X171906953Y-107543600D01*
X172029625Y-107329525D01*
X172015528Y-107258183D01*
X171756651Y-106781554D01*
X171335082Y-106440274D01*
X171201074Y-106400600D01*
X171335082Y-106360926D01*
X171756651Y-106019646D01*
X172015528Y-105543017D01*
X172029625Y-105471675D01*
X171906953Y-105257600D01*
X170065701Y-105257600D01*
X169811701Y-105257600D01*
X167970449Y-105257600D01*
X167847777Y-105471675D01*
X165525277Y-105471675D01*
X164154441Y-104100839D01*
X164154441Y-96041776D01*
X164294837Y-96251894D01*
X164358296Y-96294296D01*
X167833830Y-99769830D01*
X167777981Y-100050600D01*
X167885419Y-100590727D01*
X168191376Y-101048625D01*
X168598416Y-101320600D01*
X168191376Y-101592575D01*
X167885419Y-102050473D01*
X167777981Y-102590600D01*
X167885419Y-103130727D01*
X168191376Y-103588625D01*
X168622338Y-103876584D01*
X168542320Y-103900274D01*
X168120751Y-104241554D01*
X167861874Y-104718183D01*
X167847777Y-104789525D01*
X167970449Y-105003600D01*
X169811701Y-105003600D01*
X169811701Y-104983600D01*
X170065701Y-104983600D01*
X170065701Y-105003600D01*
X171906953Y-105003600D01*
X172029625Y-104789525D01*
X172015528Y-104718183D01*
X171756651Y-104241554D01*
X171335082Y-103900274D01*
X171255064Y-103876584D01*
X171686026Y-103588625D01*
X171991983Y-103130727D01*
X172099421Y-102590600D01*
X171991983Y-102050473D01*
X171686026Y-101592575D01*
X171278986Y-101320600D01*
X171686026Y-101048625D01*
X171991983Y-100590727D01*
X172099421Y-100050600D01*
X171991983Y-99510473D01*
X171686026Y-99052575D01*
X171278986Y-98780600D01*
X171686026Y-98508625D01*
X171991983Y-98050727D01*
X172099421Y-97510600D01*
X171991983Y-96970473D01*
X171686026Y-96512575D01*
X171278986Y-96240600D01*
X171686026Y-95968625D01*
X171991983Y-95510727D01*
X172099421Y-94970600D01*
X171991983Y-94430473D01*
X171686026Y-93972575D01*
X171278986Y-93700600D01*
X171686026Y-93428625D01*
X171991983Y-92970727D01*
X172099421Y-92430600D01*
X171991983Y-91890473D01*
X171686026Y-91432575D01*
X171255064Y-91144616D01*
X171335082Y-91120926D01*
X171756651Y-90779646D01*
X172015528Y-90303017D01*
X172029625Y-90231675D01*
X171906953Y-90017600D01*
X170065701Y-90017600D01*
X170065701Y-90037600D01*
X169811701Y-90037600D01*
X169811701Y-90017600D01*
X169791701Y-90017600D01*
X169791701Y-89763600D01*
X169811701Y-89763600D01*
X169811701Y-87477600D01*
X170065701Y-87477600D01*
X170065701Y-89763600D01*
X171906953Y-89763600D01*
X172029625Y-89549525D01*
X172015528Y-89478183D01*
X171756651Y-89001554D01*
X171335082Y-88660274D01*
X171201074Y-88620600D01*
X171335082Y-88580926D01*
X171756651Y-88239646D01*
X172015528Y-87763017D01*
X172029625Y-87691675D01*
X171906953Y-87477600D01*
X170065701Y-87477600D01*
X169811701Y-87477600D01*
X169791701Y-87477600D01*
X169791701Y-87223600D01*
X169811701Y-87223600D01*
X169811701Y-87203600D01*
X170065701Y-87203600D01*
X170065701Y-87223600D01*
X171906953Y-87223600D01*
X172029625Y-87009525D01*
X172015528Y-86938183D01*
X171756651Y-86461554D01*
X171335082Y-86120274D01*
X171255064Y-86096584D01*
X171686026Y-85808625D01*
X171991983Y-85350727D01*
X172099421Y-84810600D01*
X171991983Y-84270473D01*
X171686026Y-83812575D01*
X171255064Y-83524616D01*
X171335082Y-83500926D01*
X171756651Y-83159646D01*
X172015528Y-82683017D01*
X172029625Y-82611675D01*
X171906953Y-82397600D01*
X170065701Y-82397600D01*
X170065701Y-82417600D01*
X169811701Y-82417600D01*
X169811701Y-82397600D01*
X167970449Y-82397600D01*
X167847777Y-82611675D01*
X167861874Y-82683017D01*
X168120751Y-83159646D01*
X168542320Y-83500926D01*
X168622338Y-83524616D01*
X168191376Y-83812575D01*
X168032333Y-84050600D01*
X165156284Y-84050600D01*
X165019260Y-83959044D01*
X165019260Y-82500769D01*
X165027827Y-82499065D01*
X165190131Y-82390617D01*
X165255402Y-82455887D01*
X165488791Y-82552560D01*
X165766850Y-82552560D01*
X165925600Y-82393810D01*
X165925600Y-81569560D01*
X166179600Y-81569560D01*
X166179600Y-82393810D01*
X166338350Y-82552560D01*
X166616409Y-82552560D01*
X166849798Y-82455887D01*
X167028427Y-82277259D01*
X167125100Y-82043870D01*
X167125100Y-81728310D01*
X166966350Y-81569560D01*
X166179600Y-81569560D01*
X165925600Y-81569560D01*
X165905600Y-81569560D01*
X165905600Y-81315560D01*
X165925600Y-81315560D01*
X165925600Y-80491310D01*
X166179600Y-80491310D01*
X166179600Y-81315560D01*
X166966350Y-81315560D01*
X167125100Y-81156810D01*
X167125100Y-80841250D01*
X167028427Y-80607861D01*
X166849798Y-80429233D01*
X166616409Y-80332560D01*
X166338350Y-80332560D01*
X166179600Y-80491310D01*
X165925600Y-80491310D01*
X165766850Y-80332560D01*
X165488791Y-80332560D01*
X165255402Y-80429233D01*
X165190131Y-80494503D01*
X165027827Y-80386055D01*
X164696350Y-80320120D01*
X164258850Y-80320120D01*
X164183441Y-80335120D01*
X163980911Y-80132590D01*
X163938509Y-80069131D01*
X163687117Y-79901156D01*
X163596540Y-79883139D01*
X163596540Y-79412860D01*
X163561731Y-79237860D01*
X163596540Y-79062860D01*
X163596540Y-78462860D01*
X163562445Y-78291449D01*
X163584100Y-78239169D01*
X163584100Y-78098610D01*
X163425350Y-77939860D01*
X163309345Y-77939860D01*
X163196865Y-77864703D01*
X162949100Y-77815420D01*
X161899100Y-77815420D01*
X161651335Y-77864703D01*
X161538855Y-77939860D01*
X161439471Y-77939860D01*
X161181343Y-77832940D01*
X160896540Y-77832940D01*
X160896540Y-77512860D01*
X160871416Y-77386551D01*
X161264100Y-77386551D01*
X161264100Y-77527110D01*
X161422850Y-77685860D01*
X162297100Y-77685860D01*
X162297100Y-77036610D01*
X162551100Y-77036610D01*
X162551100Y-77685860D01*
X163425350Y-77685860D01*
X163584100Y-77527110D01*
X163584100Y-77386551D01*
X163502935Y-77190600D01*
X167777981Y-77190600D01*
X167885419Y-77730727D01*
X168191376Y-78188625D01*
X168598416Y-78460600D01*
X168191376Y-78732575D01*
X167885419Y-79190473D01*
X167777981Y-79730600D01*
X167885419Y-80270727D01*
X168191376Y-80728625D01*
X168622338Y-81016584D01*
X168542320Y-81040274D01*
X168120751Y-81381554D01*
X167861874Y-81858183D01*
X167847777Y-81929525D01*
X167970449Y-82143600D01*
X169811701Y-82143600D01*
X169811701Y-82123600D01*
X170065701Y-82123600D01*
X170065701Y-82143600D01*
X171906953Y-82143600D01*
X172029625Y-81929525D01*
X172015528Y-81858183D01*
X171756651Y-81381554D01*
X171335082Y-81040274D01*
X171255064Y-81016584D01*
X171686026Y-80728625D01*
X171991983Y-80270727D01*
X172099421Y-79730600D01*
X171991983Y-79190473D01*
X171686026Y-78732575D01*
X171278986Y-78460600D01*
X171686026Y-78188625D01*
X171991983Y-77730727D01*
X172099421Y-77190600D01*
X171991983Y-76650473D01*
X171686026Y-76192575D01*
X171255064Y-75904616D01*
X171335082Y-75880926D01*
X171756651Y-75539646D01*
X172015528Y-75063017D01*
X172029625Y-74991675D01*
X171906953Y-74777600D01*
X170065701Y-74777600D01*
X170065701Y-74797600D01*
X169811701Y-74797600D01*
X169811701Y-74777600D01*
X167970449Y-74777600D01*
X167847777Y-74991675D01*
X167861874Y-75063017D01*
X168120751Y-75539646D01*
X168542320Y-75880926D01*
X168622338Y-75904616D01*
X168191376Y-76192575D01*
X167885419Y-76650473D01*
X167777981Y-77190600D01*
X163502935Y-77190600D01*
X163487427Y-77153162D01*
X163308799Y-76974533D01*
X163075410Y-76877860D01*
X162709850Y-76877860D01*
X162551100Y-77036610D01*
X162297100Y-77036610D01*
X162138350Y-76877860D01*
X161772790Y-76877860D01*
X161539401Y-76974533D01*
X161360773Y-77153162D01*
X161264100Y-77386551D01*
X160871416Y-77386551D01*
X160847257Y-77265095D01*
X160706909Y-77055051D01*
X160496865Y-76914703D01*
X160249100Y-76865420D01*
X159199100Y-76865420D01*
X159139001Y-76877374D01*
X159139001Y-75113907D01*
X159153889Y-75039060D01*
X159139001Y-74964213D01*
X159139001Y-74964209D01*
X159094905Y-74742524D01*
X158926930Y-74491132D01*
X158863474Y-74448732D01*
X158018861Y-73604120D01*
X158362931Y-73260050D01*
X162059600Y-73260050D01*
X162059600Y-73538109D01*
X162156273Y-73771498D01*
X162334901Y-73950127D01*
X162568290Y-74046800D01*
X162883850Y-74046800D01*
X163042600Y-73888050D01*
X163042600Y-73101300D01*
X163296600Y-73101300D01*
X163296600Y-73888050D01*
X163455350Y-74046800D01*
X163770910Y-74046800D01*
X164004299Y-73950127D01*
X164182927Y-73771498D01*
X164279600Y-73538109D01*
X164279600Y-73260050D01*
X164120850Y-73101300D01*
X163296600Y-73101300D01*
X163042600Y-73101300D01*
X162218350Y-73101300D01*
X162059600Y-73260050D01*
X158362931Y-73260050D01*
X160102272Y-71520709D01*
X160157295Y-71797327D01*
X160345061Y-72078339D01*
X160626073Y-72266105D01*
X160957550Y-72332040D01*
X161470050Y-72332040D01*
X161801527Y-72266105D01*
X162058203Y-72094600D01*
X162210030Y-72094600D01*
X162221543Y-72111831D01*
X162156273Y-72177102D01*
X162059600Y-72410491D01*
X162059600Y-72688550D01*
X162218350Y-72847300D01*
X163042600Y-72847300D01*
X163042600Y-72827300D01*
X163296600Y-72827300D01*
X163296600Y-72847300D01*
X163776411Y-72847300D01*
X163893548Y-72870600D01*
X163893552Y-72870600D01*
X163968400Y-72885488D01*
X164043248Y-72870600D01*
X168032333Y-72870600D01*
X168191376Y-73108625D01*
X168622338Y-73396584D01*
X168542320Y-73420274D01*
X168120751Y-73761554D01*
X167861874Y-74238183D01*
X167847777Y-74309525D01*
X167970449Y-74523600D01*
X169811701Y-74523600D01*
X169811701Y-74503600D01*
X170065701Y-74503600D01*
X170065701Y-74523600D01*
X171906953Y-74523600D01*
X172029625Y-74309525D01*
X172015528Y-74238183D01*
X171756651Y-73761554D01*
X171335082Y-73420274D01*
X171255064Y-73396584D01*
X171686026Y-73108625D01*
X171991983Y-72650727D01*
X172099421Y-72110600D01*
X171991983Y-71570473D01*
X171686026Y-71112575D01*
X171278986Y-70840600D01*
X171686026Y-70568625D01*
X171991983Y-70110727D01*
X172099421Y-69570600D01*
X171991983Y-69030473D01*
X171686026Y-68572575D01*
X171255064Y-68284616D01*
X171335082Y-68260926D01*
X171756651Y-67919646D01*
X172015528Y-67443017D01*
X172029625Y-67371675D01*
X171906953Y-67157600D01*
X170065701Y-67157600D01*
X170065701Y-67177600D01*
X169811701Y-67177600D01*
X169811701Y-67157600D01*
X167970449Y-67157600D01*
X167847777Y-67371675D01*
X167861874Y-67443017D01*
X168120751Y-67919646D01*
X168542320Y-68260926D01*
X168622338Y-68284616D01*
X168191376Y-68572575D01*
X168022979Y-68824600D01*
X162058203Y-68824600D01*
X161801527Y-68653095D01*
X161470050Y-68587160D01*
X160957550Y-68587160D01*
X160626073Y-68653095D01*
X160345061Y-68840861D01*
X160157295Y-69121873D01*
X160109072Y-69364306D01*
X156459590Y-73013789D01*
X156459587Y-73013791D01*
X156396131Y-73056191D01*
X156353732Y-73119646D01*
X154854308Y-74619071D01*
X154790852Y-74661471D01*
X154748452Y-74724927D01*
X154748451Y-74724928D01*
X154643270Y-74882343D01*
X154622877Y-74912863D01*
X154578780Y-75134548D01*
X154578780Y-75134553D01*
X154563892Y-75209400D01*
X154578780Y-75284247D01*
X154578780Y-75315130D01*
X154502945Y-75390965D01*
X154430000Y-75567070D01*
X154430000Y-72624147D01*
X154430002Y-72624137D01*
X154430002Y-72624133D01*
X154444890Y-72549285D01*
X154441857Y-72534035D01*
X154462657Y-72513235D01*
X154605002Y-72169583D01*
X154605002Y-71797617D01*
X154462657Y-71453965D01*
X154199637Y-71190945D01*
X153855985Y-71048600D01*
X153484019Y-71048600D01*
X153140367Y-71190945D01*
X152877347Y-71453965D01*
X152735002Y-71797617D01*
X152735002Y-71810600D01*
X152569617Y-71810600D01*
X152225965Y-71952945D01*
X151962945Y-72215965D01*
X151901213Y-72365000D01*
X151814017Y-72365000D01*
X151470365Y-72507345D01*
X151207345Y-72770365D01*
X151122583Y-72975000D01*
X151118600Y-72975000D01*
X151118600Y-72428290D01*
X151135255Y-72411635D01*
X151277600Y-72067983D01*
X151277600Y-71696017D01*
X151135255Y-71352365D01*
X150872235Y-71089345D01*
X150528583Y-70947000D01*
X150156617Y-70947000D01*
X149812965Y-71089345D01*
X149549945Y-71352365D01*
X149407600Y-71696017D01*
X149407600Y-72067983D01*
X149525086Y-72351620D01*
X149318417Y-72351620D01*
X148974765Y-72493965D01*
X148942110Y-72526620D01*
X135545548Y-72526620D01*
X135470700Y-72511732D01*
X135395852Y-72526620D01*
X135395848Y-72526620D01*
X135229961Y-72559617D01*
X135174162Y-72570716D01*
X134997812Y-72688550D01*
X134922771Y-72738691D01*
X134880371Y-72802147D01*
X133137308Y-74545211D01*
X133073852Y-74587611D01*
X133031452Y-74651067D01*
X133031451Y-74651068D01*
X132938856Y-74789647D01*
X132905877Y-74839003D01*
X132895778Y-74889773D01*
X132838971Y-74927731D01*
X132698623Y-75137775D01*
X132694330Y-75159360D01*
X131880463Y-75159360D01*
X131623787Y-74987855D01*
X131292310Y-74921920D01*
X130779810Y-74921920D01*
X130448333Y-74987855D01*
X130200787Y-75153260D01*
X129979983Y-75061800D01*
X129608017Y-75061800D01*
X129264365Y-75204145D01*
X129001345Y-75467165D01*
X128859000Y-75810817D01*
X128859000Y-76182783D01*
X129001345Y-76526435D01*
X129264365Y-76789455D01*
X129608017Y-76931800D01*
X129961786Y-76931800D01*
X129926060Y-77018051D01*
X129926060Y-77296110D01*
X130084810Y-77454860D01*
X130909060Y-77454860D01*
X130909060Y-77434860D01*
X131163060Y-77434860D01*
X131163060Y-77454860D01*
X131987310Y-77454860D01*
X132146060Y-77296110D01*
X132146060Y-77018051D01*
X132049387Y-76784662D01*
X131984117Y-76719391D01*
X132010865Y-76679360D01*
X132649340Y-76679360D01*
X132649340Y-77085540D01*
X132698623Y-77333305D01*
X132838971Y-77543349D01*
X133049015Y-77683697D01*
X133296780Y-77732980D01*
X133946780Y-77732980D01*
X134194545Y-77683697D01*
X134256780Y-77642113D01*
X134319015Y-77683697D01*
X134566780Y-77732980D01*
X134789418Y-77732980D01*
X135198513Y-78142075D01*
X135240911Y-78205529D01*
X135304364Y-78247927D01*
X135304366Y-78247929D01*
X135413004Y-78320518D01*
X135492303Y-78373504D01*
X135713988Y-78417600D01*
X135713992Y-78417600D01*
X135788839Y-78432488D01*
X135863686Y-78417600D01*
X138106546Y-78417600D01*
X138149242Y-78421201D01*
X138151138Y-78420987D01*
X138161837Y-78423747D01*
X138205377Y-78417600D01*
X138213378Y-78417600D01*
X138232943Y-78413708D01*
X138279561Y-78407127D01*
X138282413Y-78421465D01*
X138292015Y-78489476D01*
X138299205Y-78553294D01*
X138302472Y-78563545D01*
X138303975Y-78574190D01*
X138304606Y-78575993D01*
X138304296Y-78587038D01*
X138338614Y-78676940D01*
X138367843Y-78768648D01*
X138374974Y-78777093D01*
X138375607Y-78778902D01*
X138381070Y-78788164D01*
X138384903Y-78798204D01*
X138385917Y-78799819D01*
X138388073Y-78810655D01*
X138441540Y-78890675D01*
X138490447Y-78973583D01*
X138499278Y-78980229D01*
X138500292Y-78981843D01*
X138507675Y-78989652D01*
X138513647Y-78998590D01*
X138514997Y-78999940D01*
X138519509Y-79010024D01*
X138589450Y-79076147D01*
X138655573Y-79146088D01*
X138665656Y-79150600D01*
X138667006Y-79151950D01*
X138675947Y-79157924D01*
X138683754Y-79165305D01*
X138685368Y-79166319D01*
X138692014Y-79175150D01*
X138774919Y-79224055D01*
X138833993Y-79263526D01*
X138496106Y-79601413D01*
X138496103Y-79601415D01*
X138411688Y-79685830D01*
X138373119Y-79655073D01*
X138363576Y-79650143D01*
X138354991Y-79643682D01*
X138353264Y-79642850D01*
X138345667Y-79634815D01*
X138257790Y-79595494D01*
X138172304Y-79551332D01*
X138161301Y-79550404D01*
X138159588Y-79549579D01*
X138149170Y-79546892D01*
X138139351Y-79542498D01*
X138137500Y-79542076D01*
X138128321Y-79535942D01*
X138033952Y-79517169D01*
X137940724Y-79493120D01*
X137929775Y-79494666D01*
X137927905Y-79494239D01*
X137917168Y-79493938D01*
X137906637Y-79491843D01*
X137904716Y-79491843D01*
X137894381Y-79487898D01*
X137798138Y-79490600D01*
X137701967Y-79487903D01*
X137691656Y-79491839D01*
X137689756Y-79491839D01*
X137679197Y-79493939D01*
X137668443Y-79494241D01*
X137666594Y-79494663D01*
X137655665Y-79493120D01*
X137562512Y-79517148D01*
X137468070Y-79535932D01*
X137458871Y-79542079D01*
X137456998Y-79542506D01*
X137447198Y-79546892D01*
X137436802Y-79549573D01*
X137435080Y-79550402D01*
X137424066Y-79551331D01*
X137338525Y-79595522D01*
X137250685Y-79634829D01*
X137243104Y-79642848D01*
X137241397Y-79643670D01*
X137232803Y-79650137D01*
X137223251Y-79655072D01*
X137221753Y-79656267D01*
X137211220Y-79659624D01*
X137137692Y-79721714D01*
X137060796Y-79779582D01*
X137055180Y-79789102D01*
X137053684Y-79790295D01*
X137046745Y-79798513D01*
X137038527Y-79805452D01*
X137037339Y-79806941D01*
X137027826Y-79812553D01*
X136969958Y-79889445D01*
X136907856Y-79962988D01*
X136904499Y-79973521D01*
X136903304Y-79975019D01*
X136898373Y-79984565D01*
X136891910Y-79993152D01*
X136891079Y-79994877D01*
X136883048Y-80002470D01*
X136843730Y-80090338D01*
X136799563Y-80175834D01*
X136798635Y-80186839D01*
X136797808Y-80188556D01*
X136795122Y-80198968D01*
X136790729Y-80208786D01*
X136790306Y-80210638D01*
X136784173Y-80219817D01*
X136765398Y-80314198D01*
X136754838Y-80355137D01*
X136713985Y-80365675D01*
X136619543Y-80384459D01*
X136610344Y-80390606D01*
X136608471Y-80391033D01*
X136598671Y-80395419D01*
X136588275Y-80398100D01*
X136586553Y-80398929D01*
X136575539Y-80399858D01*
X136489998Y-80444049D01*
X136402158Y-80483356D01*
X136394577Y-80491375D01*
X136392870Y-80492197D01*
X136384276Y-80498664D01*
X136374724Y-80503599D01*
X136373226Y-80504794D01*
X136362693Y-80508151D01*
X136289165Y-80570241D01*
X136212269Y-80628109D01*
X136206653Y-80637629D01*
X136205157Y-80638822D01*
X136198218Y-80647040D01*
X136190000Y-80653979D01*
X136188812Y-80655468D01*
X136179299Y-80661080D01*
X136121431Y-80737972D01*
X136059329Y-80811515D01*
X136055972Y-80822048D01*
X136054777Y-80823546D01*
X136049846Y-80833092D01*
X136043383Y-80841679D01*
X136042552Y-80843404D01*
X136034521Y-80850997D01*
X135995203Y-80938865D01*
X135951036Y-81024361D01*
X135950108Y-81035366D01*
X135949281Y-81037083D01*
X135946595Y-81047495D01*
X135942202Y-81057313D01*
X135941779Y-81059165D01*
X135935646Y-81068344D01*
X135916871Y-81162725D01*
X135892824Y-81255947D01*
X135894369Y-81266891D01*
X135893943Y-81268757D01*
X135893642Y-81279498D01*
X135891547Y-81290028D01*
X135891547Y-81291940D01*
X135887605Y-81302267D01*
X135890304Y-81398499D01*
X135887606Y-81494695D01*
X135891543Y-81505009D01*
X135891543Y-81506911D01*
X135893641Y-81517457D01*
X135893942Y-81528205D01*
X135894368Y-81530071D01*
X135892823Y-81541015D01*
X135916861Y-81634201D01*
X135935636Y-81728597D01*
X135941776Y-81737786D01*
X135942201Y-81739649D01*
X135946594Y-81749467D01*
X135949280Y-81759879D01*
X135950111Y-81761605D01*
X135951041Y-81772624D01*
X135995218Y-81858132D01*
X136034520Y-81945965D01*
X136042551Y-81953558D01*
X136043382Y-81955283D01*
X136049850Y-81963878D01*
X136054788Y-81973435D01*
X136083764Y-82009768D01*
X136078030Y-82019488D01*
X136059418Y-82038100D01*
X135836780Y-82038100D01*
X135589015Y-82087383D01*
X135526780Y-82128967D01*
X135464545Y-82087383D01*
X135216780Y-82038100D01*
X134566780Y-82038100D01*
X134319015Y-82087383D01*
X134256780Y-82128967D01*
X134194545Y-82087383D01*
X133946780Y-82038100D01*
X133296780Y-82038100D01*
X133049015Y-82087383D01*
X132838971Y-82227731D01*
X132698623Y-82437775D01*
X132649340Y-82685540D01*
X132649340Y-84385540D01*
X132698623Y-84633305D01*
X132838971Y-84843349D01*
X133049015Y-84983697D01*
X133296780Y-85032980D01*
X133519419Y-85032980D01*
X134547761Y-86061323D01*
X134590161Y-86124779D01*
X134841553Y-86292754D01*
X135063238Y-86336850D01*
X135063242Y-86336850D01*
X135138089Y-86351738D01*
X135212936Y-86336850D01*
X138533783Y-86336850D01*
X138608630Y-86351738D01*
X138683477Y-86336850D01*
X138683482Y-86336850D01*
X138905167Y-86292754D01*
X139156559Y-86124779D01*
X139198961Y-86061320D01*
X141076013Y-84184269D01*
X141139469Y-84141869D01*
X141307444Y-83890477D01*
X141351540Y-83668792D01*
X141351540Y-83668788D01*
X141366428Y-83593941D01*
X141351540Y-83519094D01*
X141351540Y-82464258D01*
X141419521Y-82565999D01*
X141528260Y-82638656D01*
X141528261Y-83793408D01*
X141513372Y-83868260D01*
X141572357Y-84164797D01*
X141690865Y-84342156D01*
X141740332Y-84416189D01*
X141803788Y-84458589D01*
X141813000Y-84467801D01*
X141813000Y-84513983D01*
X141955345Y-84857635D01*
X142218365Y-85120655D01*
X142432179Y-85209220D01*
X140624079Y-87017320D01*
X132069682Y-87017320D01*
X127119920Y-82067559D01*
X127119920Y-77867610D01*
X129926060Y-77867610D01*
X129926060Y-78145669D01*
X130022733Y-78379058D01*
X130201361Y-78557687D01*
X130434750Y-78654360D01*
X130750310Y-78654360D01*
X130909060Y-78495610D01*
X130909060Y-77708860D01*
X131163060Y-77708860D01*
X131163060Y-78495610D01*
X131321810Y-78654360D01*
X131637370Y-78654360D01*
X131870759Y-78557687D01*
X132049387Y-78379058D01*
X132146060Y-78145669D01*
X132146060Y-77867610D01*
X131987310Y-77708860D01*
X131163060Y-77708860D01*
X130909060Y-77708860D01*
X130084810Y-77708860D01*
X129926060Y-77867610D01*
X127119920Y-77867610D01*
X127119920Y-76117365D01*
X127134808Y-76042518D01*
X127119920Y-75967671D01*
X127119920Y-75967667D01*
X127075824Y-75745982D01*
X126907849Y-75494590D01*
X126844393Y-75452190D01*
X123783572Y-72391370D01*
X123839421Y-72110600D01*
X123731983Y-71570473D01*
X123426026Y-71112575D01*
X122995064Y-70824616D01*
X123075082Y-70800926D01*
X123496651Y-70459646D01*
X123724578Y-70040000D01*
X123985908Y-70040000D01*
X124101161Y-70619418D01*
X124429375Y-71110625D01*
X124920582Y-71438839D01*
X125353744Y-71525000D01*
X125646256Y-71525000D01*
X126079418Y-71438839D01*
X126570625Y-71110625D01*
X126770000Y-70812239D01*
X126969375Y-71110625D01*
X127460582Y-71438839D01*
X127893744Y-71525000D01*
X128186256Y-71525000D01*
X128619418Y-71438839D01*
X129110625Y-71110625D01*
X129438839Y-70619418D01*
X129554092Y-70040000D01*
X129438839Y-69460582D01*
X129110625Y-68969375D01*
X128812239Y-68770000D01*
X129110625Y-68570625D01*
X129438839Y-68079418D01*
X129554092Y-67500000D01*
X129438839Y-66920582D01*
X129284452Y-66689525D01*
X167847777Y-66689525D01*
X167970449Y-66903600D01*
X169811701Y-66903600D01*
X169811701Y-65646300D01*
X170065701Y-65646300D01*
X170065701Y-66903600D01*
X171906953Y-66903600D01*
X172029625Y-66689525D01*
X172015528Y-66618183D01*
X171756651Y-66141554D01*
X171335082Y-65800274D01*
X170815001Y-65646300D01*
X170065701Y-65646300D01*
X169811701Y-65646300D01*
X169062401Y-65646300D01*
X168542320Y-65800274D01*
X168120751Y-66141554D01*
X167861874Y-66618183D01*
X167847777Y-66689525D01*
X129284452Y-66689525D01*
X129110625Y-66429375D01*
X128619418Y-66101161D01*
X128186256Y-66015000D01*
X127893744Y-66015000D01*
X127460582Y-66101161D01*
X126969375Y-66429375D01*
X126957184Y-66447619D01*
X126948157Y-66402235D01*
X126807809Y-66192191D01*
X126597765Y-66051843D01*
X126350000Y-66002560D01*
X124650000Y-66002560D01*
X124402235Y-66051843D01*
X124192191Y-66192191D01*
X124051843Y-66402235D01*
X124002560Y-66650000D01*
X124002560Y-68350000D01*
X124051843Y-68597765D01*
X124192191Y-68807809D01*
X124402235Y-68948157D01*
X124447619Y-68957184D01*
X124429375Y-68969375D01*
X124101161Y-69460582D01*
X123985908Y-70040000D01*
X123724578Y-70040000D01*
X123755528Y-69983017D01*
X123769625Y-69911675D01*
X123646953Y-69697600D01*
X121805701Y-69697600D01*
X121805701Y-69717600D01*
X121551701Y-69717600D01*
X121551701Y-69697600D01*
X119710449Y-69697600D01*
X119587777Y-69911675D01*
X119601874Y-69983017D01*
X119860751Y-70459646D01*
X120282320Y-70800926D01*
X120362338Y-70824616D01*
X119931376Y-71112575D01*
X119625419Y-71570473D01*
X119517981Y-72110600D01*
X118685000Y-72110600D01*
X118685000Y-67030600D01*
X119517981Y-67030600D01*
X119625419Y-67570727D01*
X119931376Y-68028625D01*
X120362338Y-68316584D01*
X120282320Y-68340274D01*
X119860751Y-68681554D01*
X119601874Y-69158183D01*
X119587777Y-69229525D01*
X119710449Y-69443600D01*
X121551701Y-69443600D01*
X121551701Y-69423600D01*
X121805701Y-69423600D01*
X121805701Y-69443600D01*
X123646953Y-69443600D01*
X123769625Y-69229525D01*
X123755528Y-69158183D01*
X123496651Y-68681554D01*
X123075082Y-68340274D01*
X122995064Y-68316584D01*
X123426026Y-68028625D01*
X123731983Y-67570727D01*
X123839421Y-67030600D01*
X123731983Y-66490473D01*
X123426026Y-66032575D01*
X122968128Y-65726618D01*
X122564342Y-65646300D01*
X120793060Y-65646300D01*
X120389274Y-65726618D01*
X119931376Y-66032575D01*
X119625419Y-66490473D01*
X119517981Y-67030600D01*
X118685000Y-67030600D01*
X118685000Y-61192744D01*
X122948701Y-61192744D01*
X122948701Y-62708456D01*
X123528739Y-64108791D01*
X124600510Y-65180562D01*
X126000845Y-65760600D01*
X127516557Y-65760600D01*
X128916892Y-65180562D01*
X129988663Y-64108791D01*
X130568701Y-62708456D01*
X130568701Y-61192744D01*
X161048701Y-61192744D01*
X161048701Y-62708456D01*
X161628739Y-64108791D01*
X162700510Y-65180562D01*
X164100845Y-65760600D01*
X165616557Y-65760600D01*
X167016892Y-65180562D01*
X168088663Y-64108791D01*
X168668701Y-62708456D01*
X168668701Y-61192744D01*
X168088663Y-59792409D01*
X167016892Y-58720638D01*
X165616557Y-58140600D01*
X164100845Y-58140600D01*
X162700510Y-58720638D01*
X161628739Y-59792409D01*
X161048701Y-61192744D01*
X130568701Y-61192744D01*
X129988663Y-59792409D01*
X128916892Y-58720638D01*
X127516557Y-58140600D01*
X126000845Y-58140600D01*
X124600510Y-58720638D01*
X123528739Y-59792409D01*
X122948701Y-61192744D01*
X118685000Y-61192744D01*
X118685000Y-57685000D01*
X173315000Y-57685000D01*
X173315000Y-57932539D01*
G36*
X139229561Y-82984497D02*
X138391780Y-83822279D01*
X138391780Y-83821290D01*
X138233030Y-83662540D01*
X137558780Y-83662540D01*
X137558780Y-83682540D01*
X137304780Y-83682540D01*
X137304780Y-83662540D01*
X137284780Y-83662540D01*
X137284780Y-83408540D01*
X137304780Y-83408540D01*
X137304780Y-83388540D01*
X137558780Y-83388540D01*
X137558780Y-83408540D01*
X138233030Y-83408540D01*
X138391780Y-83249790D01*
X138391780Y-82842040D01*
X138433830Y-82831193D01*
X138528229Y-82812416D01*
X138537414Y-82806279D01*
X138539270Y-82805855D01*
X138549088Y-82801462D01*
X138559500Y-82798776D01*
X138561217Y-82797949D01*
X138572222Y-82797021D01*
X138657718Y-82752854D01*
X138745586Y-82713536D01*
X138753179Y-82705505D01*
X138754904Y-82704674D01*
X138763491Y-82698211D01*
X138773037Y-82693280D01*
X138774535Y-82692085D01*
X138785068Y-82688728D01*
X138858611Y-82626626D01*
X138935503Y-82568758D01*
X138941115Y-82559245D01*
X138942604Y-82558057D01*
X138949543Y-82549839D01*
X138957761Y-82542900D01*
X138958952Y-82541407D01*
X138968470Y-82535792D01*
X139026340Y-82458895D01*
X139088432Y-82385364D01*
X139091789Y-82374831D01*
X139092984Y-82373333D01*
X139097917Y-82363784D01*
X139104383Y-82355192D01*
X139105209Y-82353477D01*
X139113233Y-82345891D01*
X139152545Y-82258039D01*
X139196725Y-82172518D01*
X139197654Y-82161507D01*
X139198482Y-82159787D01*
X139201165Y-82149385D01*
X139205554Y-82139577D01*
X139205979Y-82137716D01*
X139212120Y-82128525D01*
X139229561Y-82040845D01*
X139229561Y-82984497D01*
X139229561Y-82984497D01*
G37*
X139229561Y-82984497D02*
X138391780Y-83822279D01*
X138391780Y-83821290D01*
X138233030Y-83662540D01*
X137558780Y-83662540D01*
X137558780Y-83682540D01*
X137304780Y-83682540D01*
X137304780Y-83662540D01*
X137284780Y-83662540D01*
X137284780Y-83408540D01*
X137304780Y-83408540D01*
X137304780Y-83388540D01*
X137558780Y-83388540D01*
X137558780Y-83408540D01*
X138233030Y-83408540D01*
X138391780Y-83249790D01*
X138391780Y-82842040D01*
X138433830Y-82831193D01*
X138528229Y-82812416D01*
X138537414Y-82806279D01*
X138539270Y-82805855D01*
X138549088Y-82801462D01*
X138559500Y-82798776D01*
X138561217Y-82797949D01*
X138572222Y-82797021D01*
X138657718Y-82752854D01*
X138745586Y-82713536D01*
X138753179Y-82705505D01*
X138754904Y-82704674D01*
X138763491Y-82698211D01*
X138773037Y-82693280D01*
X138774535Y-82692085D01*
X138785068Y-82688728D01*
X138858611Y-82626626D01*
X138935503Y-82568758D01*
X138941115Y-82559245D01*
X138942604Y-82558057D01*
X138949543Y-82549839D01*
X138957761Y-82542900D01*
X138958952Y-82541407D01*
X138968470Y-82535792D01*
X139026340Y-82458895D01*
X139088432Y-82385364D01*
X139091789Y-82374831D01*
X139092984Y-82373333D01*
X139097917Y-82363784D01*
X139104383Y-82355192D01*
X139105209Y-82353477D01*
X139113233Y-82345891D01*
X139152545Y-82258039D01*
X139196725Y-82172518D01*
X139197654Y-82161507D01*
X139198482Y-82159787D01*
X139201165Y-82149385D01*
X139205554Y-82139577D01*
X139205979Y-82137716D01*
X139212120Y-82128525D01*
X139229561Y-82040845D01*
X139229561Y-82984497D01*
G36*
X161420310Y-81427280D02*
X162294560Y-81427280D01*
X162294560Y-81407280D01*
X162548560Y-81407280D01*
X162548560Y-81427280D01*
X162568560Y-81427280D01*
X162568560Y-81556840D01*
X161896560Y-81556840D01*
X161648795Y-81606123D01*
X161536315Y-81681280D01*
X161443858Y-81681280D01*
X161130541Y-81551500D01*
X160894000Y-81551500D01*
X160894000Y-81377060D01*
X161370090Y-81377060D01*
X161420310Y-81427280D01*
X161420310Y-81427280D01*
G37*
X161420310Y-81427280D02*
X162294560Y-81427280D01*
X162294560Y-81407280D01*
X162548560Y-81407280D01*
X162548560Y-81427280D01*
X162568560Y-81427280D01*
X162568560Y-81556840D01*
X161896560Y-81556840D01*
X161648795Y-81606123D01*
X161536315Y-81681280D01*
X161443858Y-81681280D01*
X161130541Y-81551500D01*
X160894000Y-81551500D01*
X160894000Y-81377060D01*
X161370090Y-81377060D01*
X161420310Y-81427280D01*
G36*
X156034740Y-77060960D02*
X156054740Y-77060960D01*
X156054740Y-77314960D01*
X156034740Y-77314960D01*
X156034740Y-77334960D01*
X155780740Y-77334960D01*
X155780740Y-77314960D01*
X155760740Y-77314960D01*
X155760740Y-77060960D01*
X155780740Y-77060960D01*
X155780740Y-77040960D01*
X156034740Y-77040960D01*
X156034740Y-77060960D01*
X156034740Y-77060960D01*
G37*
X156034740Y-77060960D02*
X156054740Y-77060960D01*
X156054740Y-77314960D01*
X156034740Y-77314960D01*
X156034740Y-77334960D01*
X155780740Y-77334960D01*
X155780740Y-77314960D01*
X155760740Y-77314960D01*
X155760740Y-77060960D01*
X155780740Y-77060960D01*
X155780740Y-77040960D01*
X156034740Y-77040960D01*
X156034740Y-77060960D01*
G36*
X156968523Y-74703385D02*
X156788943Y-74882965D01*
X156646598Y-75226617D01*
X156646598Y-75598583D01*
X156788943Y-75942235D01*
X156821598Y-75974890D01*
X156821598Y-76053136D01*
X156821599Y-76053140D01*
X156821599Y-76291293D01*
X156742439Y-76212133D01*
X156509050Y-76115460D01*
X156226923Y-76115460D01*
X156230600Y-76106583D01*
X156230600Y-75734617D01*
X156130362Y-75492620D01*
X156944060Y-74678922D01*
X156968523Y-74703385D01*
X156968523Y-74703385D01*
G37*
X156968523Y-74703385D02*
X156788943Y-74882965D01*
X156646598Y-75226617D01*
X156646598Y-75598583D01*
X156788943Y-75942235D01*
X156821598Y-75974890D01*
X156821598Y-76053136D01*
X156821599Y-76053140D01*
X156821599Y-76291293D01*
X156742439Y-76212133D01*
X156509050Y-76115460D01*
X156226923Y-76115460D01*
X156230600Y-76106583D01*
X156230600Y-75734617D01*
X156130362Y-75492620D01*
X156944060Y-74678922D01*
X156968523Y-74703385D01*
G36*
X147572112Y-75442357D02*
X147621672Y-75516529D01*
X147685128Y-75558929D01*
X148298799Y-76172600D01*
X148156248Y-76172600D01*
X147310843Y-75327196D01*
X147455208Y-75267398D01*
X147572112Y-75442357D01*
X147572112Y-75442357D01*
G37*
X147572112Y-75442357D02*
X147621672Y-75516529D01*
X147685128Y-75558929D01*
X148298799Y-76172600D01*
X148156248Y-76172600D01*
X147310843Y-75327196D01*
X147455208Y-75267398D01*
X147572112Y-75442357D01*
G36*
X146839500Y-74104500D02*
X146859500Y-74104500D01*
X146859500Y-74358500D01*
X146839500Y-74358500D01*
X146839500Y-74378500D01*
X146585500Y-74378500D01*
X146585500Y-74358500D01*
X146565500Y-74358500D01*
X146565500Y-74104500D01*
X146585500Y-74104500D01*
X146585500Y-74084500D01*
X146839500Y-74084500D01*
X146839500Y-74104500D01*
X146839500Y-74104500D01*
G37*
X146839500Y-74104500D02*
X146859500Y-74104500D01*
X146859500Y-74358500D01*
X146839500Y-74358500D01*
X146839500Y-74378500D01*
X146585500Y-74378500D01*
X146585500Y-74358500D01*
X146565500Y-74358500D01*
X146565500Y-74104500D01*
X146585500Y-74104500D01*
X146585500Y-74084500D01*
X146839500Y-74084500D01*
X146839500Y-74104500D01*
G04 #@! TD*
M02*
